<svg xmlns="http://www.w3.org/2000/svg" viewBox="0 0 748 1905.27"><defs><style>.cls-1{fill:#141f42;}.cls-2{fill:#ffd200;}.cls-3{fill:#00d7ff;}.cls-4{fill:#fff;}.cls-5{fill:#4b4b4b;}.cls-6{fill:#a6f5ff;}.cls-7{fill:#3c3c3c;}.cls-8{fill:#ffe600;}.cls-9{fill:#fff03c;}.cls-10{fill:#ffaa1e;}</style></defs><title>support-img-01-sp</title><g id="Layer_2" data-name="Layer 2"><g id="レイヤー_6" data-name="レイヤー 6"><path class="cls-1" d="M637.8,73.08H111.65a36.54,36.54,0,0,1,0-73.08H637.8a36.54,36.54,0,1,1,0,73.08Z"/><polygon class="cls-1" points="334.13 53.59 374.73 95 415.32 53.59 334.13 53.59"/><ellipse class="cls-2" cx="518.72" cy="268.42" rx="212.01" ry="139.42"/><circle class="cls-2" cx="556.79" cy="465.76" r="21.68"/><circle class="cls-2" cx="598.84" cy="399.34" r="32.81"/><circle class="cls-2" cx="510.13" cy="504.89" r="16.26"/><circle class="cls-2" cx="464.52" cy="528.42" r="9.98"/><path class="cls-3" d="M254.08,593.4s8.85-83.11,10.39-202c7.7-29.24,11.54-51.55,2.7-68.1s-26.94-21.54-52.33-22.7l-14.62-20.39c-5,20-26.55,31.55-34.24,35.4s-9.24,7.69-13.08,16.16-9.62,18.47-9.62,18.47C125.58,329.85,129,303.68,129,303.68a59,59,0,0,1-9.57-8.23l-4.66,6.31s-6.93-.77-23.09.77-26.93,13.08-39.63,44.63-30,84.26-23.47,106.57S52.48,486.05,89,477.2c0,0,2.69,58.1-5.39,116.2"/><path d="M83.64,596l-.36,0A2.6,2.6,0,0,1,81.06,593C88,543.45,87,493.27,86.54,480.45c-33.38,7.32-53.15-1.2-60.42-26-8-27.4,18.22-95,23.56-108.28,12.89-32,24.22-44.58,41.79-46.25a156.37,156.37,0,0,1,22.09-.88l3.82-5.16a2.6,2.6,0,0,1,4-.23,56.21,56.21,0,0,0,9.14,7.86,2.61,2.61,0,0,1,1.11,2.49c0,.24-2.76,22.85,11.27,41.59,2-3.62,5.22-9.61,7.64-14.92l.37-.83c3.64-8,5.65-12.45,13.91-16.58,18.29-9.14,29.66-20.8,32.88-33.7a2.61,2.61,0,0,1,2-1.92,2.58,2.58,0,0,1,2.6,1l13.89,19.36c21.73,1.09,43,4.94,53.24,24,8.91,16.66,5.89,38.17-2.39,69.68-1.53,117.48-10.31,201.08-10.4,201.91a2.6,2.6,0,1,1-5.17-.55c.08-.83,8.85-84.36,10.37-201.75a2.72,2.72,0,0,1,.08-.63c8-30.42,11.05-51,2.92-66.21-7.42-13.86-22-20-50.15-21.32a2.6,2.6,0,0,1-2-1.09L201.1,285.9c-5,12.37-16.61,23.36-34,32-6.61,3.3-7.94,6.24-11.49,14.07l-.39.84c-3.85,8.48-9.49,18.27-9.73,18.69a2.6,2.6,0,0,1-4.22.4c-15.93-18.35-15.48-40.83-15-47a61.36,61.36,0,0,1-6.55-5.5l-2.85,3.87a2.62,2.62,0,0,1-2.38,1c-.07,0-7-.71-22.55.77-12.94,1.23-23.72,8.86-37.46,43C40.06,384,25.27,433,31.12,453c4.18,14.25,14.66,32,57.29,21.67a2.61,2.61,0,0,1,2.18.45,2.64,2.64,0,0,1,1,2c0,.59,2.61,59-5.41,116.68A2.6,2.6,0,0,1,83.64,596Z"/><path class="cls-4" d="M219.46,244.82c-5.39-.39-11.93,14.23-11.93,14.23s-6.16,3.08-15.39,1.93c0,0,11.93-10.39,14.24-35.4,0,0-23.86-6.16-13.47-25.78,0,0-11.93,10.39-35.4,10,0,0,12.7-8.84,16.55-21.93,0,0-14.62,20-41.94,6.93,0,0-1.92,15.39-23.09,16.54,0,0-3.46,24.63-4.61,44.63-.89,15.33,5.46,29.28,15,39.48a59,59,0,0,0,9.57,8.23s-3.46,26.17,14.24,46.56c0,0,5.77-10,9.62-18.47s5.38-12.31,13.08-16.16,29.24-15.39,34.24-35.4c8.85,3.47,19.24-7.69,22.31-17.31S224.84,245.2,219.46,244.82Z"/><path d="M143.28,352.84a2.59,2.59,0,0,1-2-.9c-15.93-18.35-15.48-40.83-15-47a62,62,0,0,1-8.73-7.71c-11-11.72-16.62-26.43-15.75-41.41,1.15-19.88,4.6-44.59,4.64-44.84a2.6,2.6,0,0,1,2.43-2.24c18.59-1,20.57-13.74,20.65-14.28a2.62,2.62,0,0,1,3.7-2c24.95,12,38.17-5.38,38.72-6.12a2.6,2.6,0,0,1,4.59,2.28c-2.32,7.89-7.54,14.26-11.7,18.34,17.29-1.51,26.26-9,26.36-9.12a2.6,2.6,0,0,1,4,3.19c-2.48,4.69-3,8.84-1.44,12.32,3.07,7,13.16,9.69,13.26,9.72a2.62,2.62,0,0,1,1.94,2.76c-1.56,16.92-7.37,27.43-11.33,32.78a25.37,25.37,0,0,0,7.94-1.55c2.15-4.58,7.89-15.27,14.06-14.83h0a7,7,0,0,1,5.43,3.14c2.51,3.7,2.49,10.39-.06,18.33-2.46,7.71-8.63,15.21-15,18.23a14.15,14.15,0,0,1-8,1.43c-4.35,13.4-16.35,25.32-34.89,34.59-6.61,3.3-7.94,6.24-11.49,14.07l-.39.84c-3.85,8.48-9.49,18.27-9.73,18.69a2.6,2.6,0,0,1-2,1.29ZM111.33,213.77c-.85,6.33-3.37,26-4.31,42.35-.78,13.54,4.31,26.87,14.35,37.55a56.21,56.21,0,0,0,9.14,7.86,2.61,2.61,0,0,1,1.11,2.49c0,.24-2.76,22.85,11.27,41.59,2-3.62,5.22-9.61,7.64-14.92l.37-.83c3.64-8,5.65-12.45,13.91-16.58,18.29-9.14,29.66-20.8,32.88-33.7a2.61,2.61,0,0,1,3.48-1.79,8.17,8.17,0,0,0,6.62-.57c5.08-2.42,10.24-8.77,12.27-15.11,2.23-7,2-12,.7-13.83a1.8,1.8,0,0,0-1.49-.87h0c-1.9-.1-6.38,6-9.36,12.7a2.64,2.64,0,0,1-1.22,1.27c-.28.14-7,3.42-16.87,2.18a2.6,2.6,0,0,1-1.39-4.55c.1-.09,10.53-9.56,13.13-31.6-3.77-1.37-11.44-4.93-14.54-11.95A16.16,16.16,0,0,1,188,206c-6.06,3.07-16.26,6.64-30.48,6.42a2.6,2.6,0,0,1-1.45-4.74,50.87,50.87,0,0,0,10-10c-7.17,3.9-18.05,6.56-32.23.71a21.4,21.4,0,0,1-3.26,5.83C127.58,208.06,121.85,212.68,111.33,213.77Z"/><path class="cls-5" d="M216.76,164.79c6.93-31.94-43.86-41.17-68.48-24.24-26.55-4.23-50.79,16.16-41.94,36.94-26.93,8.84-26.93,33.47-8.08,40A24.56,24.56,0,0,1,92.49,226c4.73,2,10.72,2.53,14.38,2.67C108,218.7,109,211.34,109,211.34c21.17-1.15,23.09-16.54,23.09-16.54,27.32,13.08,41.94-6.93,41.94-6.93-3.85,13.09-16.55,21.93-16.55,21.93,23.47.39,35.4-10,35.4-10-10.39,19.62,13.47,25.78,13.47,25.78-2.31,25-14.24,35.4-14.24,35.4,9.23,1.15,15.39-1.93,15.39-1.93s6.54-14.62,11.93-14.23a4.62,4.62,0,0,1,4.07,3.18c16.91-12.4,9.39-27.81,9.39-27.81C250.24,201.72,242.16,168.64,216.76,164.79Z"/><path d="M196.27,263.84a35,35,0,0,1-4.45-.28,2.6,2.6,0,0,1-1.39-4.55c.1-.09,10.53-9.56,13.13-31.6-3.77-1.37-11.44-4.93-14.54-11.95A16.16,16.16,0,0,1,188,206c-6.06,3.07-16.26,6.64-30.48,6.42a2.6,2.6,0,0,1-1.45-4.74,50.87,50.87,0,0,0,10-10c-7.17,3.9-18.05,6.56-32.23.71a21.4,21.4,0,0,1-3.26,5.83c-3,3.82-8.71,8.44-19.23,9.53-.38,2.86-1.11,8.44-1.87,15.15a2.64,2.64,0,0,1-2.68,2.31c-4.24-.16-10.34-.78-15.3-2.87a2.59,2.59,0,0,1-1.56-2,2.63,2.63,0,0,1,.83-2.37,23.11,23.11,0,0,0,4-5.16C87,215.22,82.33,208.32,82.4,200.34c.06-8.15,5.57-18.62,20.6-24.43-2.44-8-.77-16.37,4.76-23.45,8.54-10.93,24.47-16.74,39.91-14.63,16.76-10.9,44-11.09,60.16-.27,9.08,6.09,13.26,15,11.93,25.16,10.64,2.52,19.09,10.3,22.88,21.24a38,38,0,0,1-6.71,36.78,24.67,24.67,0,0,1,1.24,8.82c-.24,5.5-2.53,13.52-12.1,20.54a2.6,2.6,0,0,1-3.95-1.11c-.54-1.31-1.24-1.53-1.85-1.58-1.9-.1-6.38,6-9.36,12.7a2.64,2.64,0,0,1-1.22,1.27A29.62,29.62,0,0,1,196.27,263.84Zm-3.36-66.64a2.61,2.61,0,0,1,2.3,3.82c-2.48,4.69-3,8.84-1.44,12.32,3.07,7,13.16,9.69,13.26,9.72a2.62,2.62,0,0,1,1.94,2.76c-1.56,16.92-7.37,27.43-11.33,32.78a25.37,25.37,0,0,0,7.94-1.55c2.15-4.58,7.89-15.27,14.06-14.83a6.85,6.85,0,0,1,4.47,2c12.15-10.52,6.72-22.36,6.47-22.89a2.62,2.62,0,0,1,.44-2.91,32.67,32.67,0,0,0,6.7-32.75c-3.5-10.1-11.28-16.77-21.35-18.3a2.59,2.59,0,0,1-2.15-3.12c2.52-11.63-3.66-18.58-9.29-22.36-14.56-9.76-40.34-9.38-55.18.81a2.61,2.61,0,0,1-1.88.43c-13.94-2.23-28.41,2.82-36,12.55-5,6.4-6.11,13.79-3.12,20.8a2.61,2.61,0,0,1-1.59,3.49c-14.33,4.71-19.49,13.64-19.55,20.43,0,6.55,4.36,12.17,11.51,14.65a2.6,2.6,0,0,1,1.58,3.39,25.11,25.11,0,0,1-3.61,6.3,45.41,45.41,0,0,0,7.49,1.16c1-8.61,1.88-14.84,1.89-14.91a2.6,2.6,0,0,1,2.43-2.24c18.78-1,20.63-14.13,20.65-14.26a2.59,2.59,0,0,1,3.7-2c25.07,12,38.58-5.93,38.72-6.11a2.6,2.6,0,0,1,4.59,2.27c-2.32,7.89-7.54,14.26-11.7,18.34,17.29-1.51,26.26-9,26.36-9.12A2.58,2.58,0,0,1,192.91,197.2Z"/><path d="M142.76,310.48c-6.35,0-11.5-1.6-15.37-4.79a2.6,2.6,0,1,1,3.31-4c4.5,3.71,11.66,4.57,21.27,2.54,6.44-1.35,22.44-7.24,30.29-14.72a2.6,2.6,0,1,1,3.59,3.77c-8.71,8.29-25.66,14.54-32.8,16.05A50.41,50.41,0,0,1,142.76,310.48Z"/><path d="M128.66,341.2a1.77,1.77,0,0,1-1.26-.53c-6-6.27-8-11.7-8.66-15L101.57,337.8A1.74,1.74,0,0,1,99,335.73L113.2,301.1a1.74,1.74,0,1,1,3.21,1.32l-12,29.11,14.75-10.41a1.71,1.71,0,0,1,1.88-.08,1.73,1.73,0,0,1,.85,1.68s-.47,6.73,8,15.54a1.73,1.73,0,0,1-1.25,2.94Z"/><path d="M188.68,350.05a1.74,1.74,0,0,1-1.25-.53l-21.93-22.7a1.73,1.73,0,1,1,2.49-2.41l20.64,21.35c4.33-5,19.1-23.25,24.52-45.56a1.74,1.74,0,0,1,3.38.81c-6.58,27.07-25.78,47.63-26.59,48.49a1.72,1.72,0,0,1-1.25.55Z"/><path d="M89,479.81a2.6,2.6,0,0,1-.5-5.16c19.93-3.92,74.18-16.34,89.4-19.84-4.4-6.35-11.89-21.21-5.42-42.76L70.24,430.14a2.6,2.6,0,0,1-.9-5.13l106.57-18.86a2.62,2.62,0,0,1,2.9,3.48c-10.46,28.13,5.41,44.81,5.57,45a2.6,2.6,0,0,1-1.27,4.35c-.7.17-70.34,16.22-93.58,20.8A2.94,2.94,0,0,1,89,479.81Z"/><path d="M193.93,507.81a76.54,76.54,0,0,1-17.79-2.3c-27.16-6.5-80.95-26.82-81.49-27a2.61,2.61,0,1,1,1.84-4.88c.54.21,54,20.41,80.87,26.84,26,6.22,43-.92,53.61-22.47,10.81-22,21.53-52.16,31-87.25a2.6,2.6,0,1,1,5,1.35c-9.54,35.41-20.38,65.91-31.34,88.2C226.59,498.7,212.86,507.81,193.93,507.81Z"/><path d="M184.93,457.41l-4.82-2s20.78-50.78,38.47-94.26a2.61,2.61,0,0,1,4.83,2C205.71,406.62,184.93,457.41,184.93,457.41Z"/><path class="cls-4" d="M176.36,408.72c-11.15,30,6.16,47.71,6.16,47.71s7.81-19.1,17.93-43.88A45.67,45.67,0,0,0,176.36,408.72Z"/><path d="M182.52,459a2.62,2.62,0,0,1-1.86-.78c-.75-.77-18.33-19.24-6.74-50.44a2.6,2.6,0,0,1,2-1.66,48,48,0,0,1,25.61,4.05,2.61,2.61,0,0,1,1.29,3.33c-10.12,24.79-17.93,43.88-17.93,43.88A2.61,2.61,0,0,1,183,459,2.12,2.12,0,0,1,182.52,459Zm-4.26-47.89c-7,20.23-.45,34.14,3.55,40.15,2.71-6.62,8.4-20.54,15.27-37.37A44.26,44.26,0,0,0,178.26,411.14Z"/><path class="cls-4" d="M103.07,407.76c-5.48-4-12.84-7.22-14.72-4-6.49-5.77-15.15-4-10.38,3-4.77-.72-8.08,2.59-5,8.08-3.9,0-4.76,3.89-3,6.78a51,51,0,0,0,3.84,5.26l41.91-7.41C112.22,415.94,106.66,410.4,103.07,407.76Z"/><path d="M73.73,429.48a2.59,2.59,0,0,1-2-1A52.2,52.2,0,0,1,67.65,423a7.75,7.75,0,0,1-.37-7.65,5.84,5.84,0,0,1,2.15-2.18,7.16,7.16,0,0,1,.9-6.07,6.94,6.94,0,0,1,3.78-2.65,5.34,5.34,0,0,1,1.64-5.21c2.85-2.49,8.08-1.91,12.58,1.2a5.92,5.92,0,0,1,1.31-.43c5.4-1.09,13.42,4.56,15,5.7h0c3.62,2.67,9,8,12.88,12a2.61,2.61,0,0,1-1.41,4.38l-41.91,7.41A3.42,3.42,0,0,1,73.73,429.48Zm3-20.23a2.54,2.54,0,0,0-2.11.78c-.48.68-.25,2,.6,3.54a2.61,2.61,0,0,1-2.28,3.86c-.86,0-1,.32-1.11.44a2.6,2.6,0,0,0,.31,2.4A39.86,39.86,0,0,0,74.8,424l35.49-6.28a92.58,92.58,0,0,0-8.76-7.91h0c-5.52-4.06-10.1-5.25-11-4.74a2.51,2.51,0,0,1-1.81,1.21,2.56,2.56,0,0,1-2.1-.66c-3.41-3-6.91-3.09-7.45-2.55a4.47,4.47,0,0,0,1,2.18,2.6,2.6,0,0,1-2.55,4A5.36,5.36,0,0,0,76.71,409.25Z"/><path d="M85.18,426.66a1.73,1.73,0,0,1-1.26-.54A73.25,73.25,0,0,0,72,416.29a1.74,1.74,0,0,1,1.87-2.93,76.82,76.82,0,0,1,12.59,10.37,1.74,1.74,0,0,1-1.26,2.93Z"/><path d="M96.87,424.64a1.73,1.73,0,0,1-1.31-.59,88.33,88.33,0,0,0-18.49-15.82,1.73,1.73,0,0,1,1.79-3,89.82,89.82,0,0,1,19.31,16.5,1.73,1.73,0,0,1-1.3,2.88Z"/><path d="M107.11,422.62a1.74,1.74,0,0,1-1.28-.56,100.69,100.69,0,0,0-18.9-16.4,1.74,1.74,0,0,1,1.88-2.92,104.69,104.69,0,0,1,19.58,17,1.73,1.73,0,0,1-.11,2.45A1.7,1.7,0,0,1,107.11,422.62Z"/><path d="M86.91,404h0a2.6,2.6,0,0,1-2.58-2.62,220.23,220.23,0,0,0-4-39.86,2.6,2.6,0,0,1,5.1-1,220.72,220.72,0,0,1,4.09,40.94A2.6,2.6,0,0,1,86.91,404Z"/><path d="M49.4,457.25a1.85,1.85,0,0,1-.69-.14,1.72,1.72,0,0,1-.9-2.28c4.74-11,14.14-18.15,14.54-18.45a1.74,1.74,0,1,1,2.09,2.77c-.09.07-9.08,6.94-13.45,17.05A1.72,1.72,0,0,1,49.4,457.25Z"/><path d="M154.58,464.46a1.7,1.7,0,0,1-1.06-.36c-16.12-12.35-11.38-35.39-11.17-36.36a1.73,1.73,0,1,1,3.39.72c0,.22-4.47,21.88,9.89,32.89a1.73,1.73,0,0,1-1,3.11Z"/><path d="M198.87,484.37a1.74,1.74,0,0,1-1.48-.82L187,466.67a1.73,1.73,0,1,1,3-1.82l10.39,16.88a1.74,1.74,0,0,1-.57,2.39A1.76,1.76,0,0,1,198.87,484.37Z"/><path d="M136.83,365.2a2.66,2.66,0,0,1-1.16-.27,2.61,2.61,0,0,1-1.17-3.5c.18-.34,4.24-8.47,6.51-12.48a2.6,2.6,0,1,1,4.53,2.57c-2.2,3.89-6.34,12.16-6.38,12.24A2.59,2.59,0,0,1,136.83,365.2Z"/><ellipse class="cls-6" cx="142.46" cy="376.16" rx="4.18" ry="5.34"/><ellipse class="cls-6" cx="145.63" cy="530.54" rx="4.18" ry="5.34"/><path d="M132.51,582.34h-.19a1.73,1.73,0,0,1-1.54-1.91,649.22,649.22,0,0,0,3.16-77.67,1.74,1.74,0,0,1,1.68-1.79,1.72,1.72,0,0,1,1.79,1.68,652.33,652.33,0,0,1-3.18,78.15A1.73,1.73,0,0,1,132.51,582.34Z"/><path d="M141.45,261.46a1.82,1.82,0,0,1-.56-.09l-6.78-2.31a1.74,1.74,0,0,1,1.12-3.29l6.78,2.31a1.74,1.74,0,0,1-.56,3.38Z"/><path d="M152,283.54a1.74,1.74,0,0,1-.95-.29c-13.32-8.74-24.15-10.39-24.26-10.41a1.73,1.73,0,1,1,.5-3.43c.47.06,11.65,1.74,25.66,10.94a1.74,1.74,0,0,1-1,3.19Z"/><path d="M140.58,287a1.76,1.76,0,0,1-.93-.27,57.17,57.17,0,0,0-8.92-4.46A1.74,1.74,0,0,1,132,279a60.13,60.13,0,0,1,9.54,4.78,1.73,1.73,0,0,1-.93,3.2Z"/><path d="M124.58,219.25a18.86,18.86,0,0,1-6.41-1.05,1.73,1.73,0,0,1,1.25-3.23,16.1,16.1,0,0,0,13.72-1.71,1.73,1.73,0,0,1,1.9,2.9A18.88,18.88,0,0,1,124.58,219.25Z"/><path d="M179,232.46a1.89,1.89,0,0,1-.53-.08c-11.66-3.79-16-11.91-16.16-12.25a1.74,1.74,0,0,1,3.08-1.61c.08.15,4,7.25,14.15,10.55a1.74,1.74,0,0,1-.54,3.39Z"/><path class="cls-4" d="M127.88,179.22a1.74,1.74,0,0,1-1.69-1.36c-1-4.6.25-10,3.38-14.41A18.28,18.28,0,0,1,142,155.56a1.74,1.74,0,0,1,.43,3.45,14.79,14.79,0,0,0-10,6.45,15.18,15.18,0,0,0-2.82,11.65,1.73,1.73,0,0,1-1.32,2.07A1.64,1.64,0,0,1,127.88,179.22Z"/><path class="cls-4" d="M218.35,211.4a1.74,1.74,0,0,1-1.3-2.89c7-7.87,2.16-16.67,1.95-17a1.74,1.74,0,0,1,3-1.72c.07.12,6.29,11.3-2.37,21.06A1.72,1.72,0,0,1,218.35,211.4Z"/><ellipse cx="123.99" cy="229.28" rx="5.03" ry="3.86" transform="matrix(0.15, -0.99, 0.99, 0.15, -121.45, 317.03)"/><ellipse cx="166.41" cy="238.23" rx="5.03" ry="3.86" transform="translate(-94.32 366.55) rotate(-81.27)"/><path class="cls-4" d="M149.2,16a4.78,4.78,0,0,1,0,9.56,2.28,2.28,0,0,1-.52,0c-.12.44-.2.84-.32,1.2-.92,3.92-2.64,10.12-6,14.56a32.19,32.19,0,0,1-16.07,11.07l-4.36-4.8c7.92-1.84,12.43-5.32,15.67-9.39a25.14,25.14,0,0,0,4.68-11.28H123.69c-1.84,0-3.76.08-4.76.16V21.36a44.54,44.54,0,0,0,4.76.32H142.2a17.26,17.26,0,0,0,2.28-.16,4.43,4.43,0,0,1-.08-.76A4.81,4.81,0,0,1,149.2,16Zm0,7.08a2.3,2.3,0,1,0-2.32-2.28A2.31,2.31,0,0,0,149.2,23Z"/><path class="cls-4" d="M168.17,22.44V36c0,1,0,2.56.12,3.48h-5.8c0-.76.2-2.32.2-3.52V22.44a28.4,28.4,0,0,0-.16-3.08h5.76C168.21,20.28,168.17,21.16,168.17,22.44Zm18.51.6V31c0,8.6-1.68,12.31-4.64,15.59a23.58,23.58,0,0,1-9.71,5.76l-4.16-4.4c4-.92,7.19-2.44,9.59-5,2.76-3,3.28-6,3.28-12.24V23a28.22,28.22,0,0,0-.24-4h6C186.76,20.16,186.68,21.44,186.68,23Z"/><path class="cls-4" d="M214.68,41.08a37.66,37.66,0,0,0,14.56-15.56l3.12,5.64A42.43,42.43,0,0,1,217.56,46a43.26,43.26,0,0,1-14.83,5.64l-3.36-5.28A41.11,41.11,0,0,0,214.68,41.08Zm0-12.92-4.07,4.16a83.17,83.17,0,0,0-10-8.64l3.76-4A80,80,0,0,1,214.68,28.16Z"/><path class="cls-4" d="M255,22.48h8.12A12.7,12.7,0,0,0,266.6,22l4.08,2.52a18.82,18.82,0,0,0-1.32,2.84,45.8,45.8,0,0,1-5.92,11.52c1.72,1.24,3.28,2.4,4.44,3.35l-3.8,4.52c-1.08-1-2.56-2.24-4.2-3.56a37.59,37.59,0,0,1-14.31,9.48l-4.64-4A34,34,0,0,0,255.6,40c-2.6-1.92-5.23-3.72-7.27-5l3.56-3.64c2.11,1.2,4.63,2.84,7.15,4.52a28.39,28.39,0,0,0,4.4-8.84H252A48.11,48.11,0,0,1,241.45,37.4l-4.32-3.32a37.14,37.14,0,0,0,12.72-13.32,16.56,16.56,0,0,0,1.84-4.16l5.79,1.8A43.09,43.09,0,0,0,255,22.48Z"/><path class="cls-4" d="M284.85,31.8h21.47c1.88,0,3.64-.16,4.68-.24v6.28c-1,0-3-.2-4.68-.2H284.85c-2.28,0-5,.08-6.44.2V31.56C279.85,31.68,282.77,31.8,284.85,31.8Z"/><path class="cls-4" d="M346.76,24.28a60.41,60.41,0,0,1-5.36,10.88A106.13,106.13,0,0,1,351,44l-4.12,4.56A80.45,80.45,0,0,0,338,39.72a50.08,50.08,0,0,1-14.87,12.35l-4.48-4a43.86,43.86,0,0,0,15.19-11.79,108.55,108.55,0,0,0-10.79-7.6l3.4-4.08c3.2,2,7.39,4.84,10.63,7.24a41.48,41.48,0,0,0,4.44-9.52,25,25,0,0,0,1-3.68l6,2.08C347.92,21.6,347.16,23.36,346.76,24.28Z"/><path class="cls-4" d="M364.85,31.8h21.47c1.88,0,3.64-.16,4.68-.24v6.28c-1,0-3-.2-4.68-.2H364.85c-2.28,0-5,.08-6.44.2V31.56C359.85,31.68,362.77,31.8,364.85,31.8Z"/><path class="cls-4" d="M415.76,21.56c0,1.24-.08,2.44-.15,3.6h7.51a18.59,18.59,0,0,0,3-.28l3.48,1.68a16.35,16.35,0,0,0-.28,2.12c-.16,4.32-.64,15.47-2.36,19.55-.88,2-2.4,3.08-5.16,3.08-2.28,0-4.68-.16-6.6-.32l-.64-5.36a33.11,33.11,0,0,0,5.6.56,2.13,2.13,0,0,0,2.28-1.4c1.16-2.52,1.68-10.51,1.68-14.83h-9c-1.47,10.56-5.27,16.83-12.43,21.91l-4.64-3.76a23.84,23.84,0,0,0,5.24-3.92C407,40.52,409,36,409.89,30h-5.28c-1.36,0-3.56,0-5.28.16V24.88c1.68.16,3.76.28,5.28.28h5.72c0-1.12.08-2.28.08-3.48a29.6,29.6,0,0,0-.28-3.68H416C415.88,18.92,415.8,20.6,415.76,21.56Z"/><path class="cls-4" d="M444.85,31.8h21.47c1.88,0,3.64-.16,4.68-.24v6.28c-1,0-3-.2-4.68-.2H444.85c-2.28,0-5,.08-6.44.2V31.56C439.85,31.68,442.77,31.8,444.85,31.8Z"/><path class="cls-4" d="M479.61,35c1.84-1.92,4.92-6,7.4-8.92,2.8-3.16,5.39-3.44,8.31-.6,2.72,2.64,5.92,6.76,8.28,9.32a137.41,137.41,0,0,0,9.76,9.79l-4.12,4.8c-2.88-2.72-6.28-6.6-8.8-9.55S495,33.12,493.08,31c-1.39-1.56-2.15-1.36-3.31.12-1.6,2-4.44,6-6.16,8.24-.92,1.32-1.84,2.76-2.52,3.79l-4.88-5A26.77,26.77,0,0,0,479.61,35Z"/><path class="cls-4" d="M536.56,52l-3-4.76a30.77,30.77,0,0,0,3.72-.64c5.12-1.2,9.12-4.87,9.12-10.71,0-5.52-3-9.64-8.4-10.56a82.37,82.37,0,0,1-2.39,10.84c-2.41,8.07-5.84,13-10.2,13s-8.12-4.88-8.12-11.63c0-9.24,8-17.12,18.35-17.12,9.92,0,16.16,6.88,16.16,15.6C551.8,44.43,546.64,50.39,536.56,52Zm-11-9c1.68,0,3.24-2.52,4.88-7.92a59,59,0,0,0,2.11-9.68C526,26.76,522.41,32.6,522.41,37,522.41,41,524,43,525.57,43Z"/><path class="cls-4" d="M581.48,46.83c4.08,1.44,8.68,3.36,11.4,4.68l-5.52,2.12A78.87,78.87,0,0,0,577,48.91l3.6-2.08H568.89l3.63,1.6a49.34,49.34,0,0,1-12.47,5.24,48.24,48.24,0,0,0-3.52-3.48,47,47,0,0,0,11-3.36h-5.92V30.52h13.27a11.34,11.34,0,0,0-2.75-2.92,9.78,9.78,0,0,0,2.31-2h-3.59v4.16h-4.24V25.6h-3.52a13.37,13.37,0,0,1-3.84,6.64,13.71,13.71,0,0,0-3.12-3,10.86,10.86,0,0,0,3.4-8.56V17.08l3,.76a48.86,48.86,0,0,0,8.32-1.6l2.92,2.8a51.23,51.23,0,0,1-10.16,1.72V21c0,.36,0,.8,0,1.2h11V25.4A7.29,7.29,0,0,0,576,20.76V17.12l3.2.76a61.74,61.74,0,0,0,9-1.64L591,19.08a62.44,62.44,0,0,1-10.92,1.72V21c0,.36,0,.76,0,1.16H592.6V25.6h-5v4.2h-4.24V25.6h-4a10.63,10.63,0,0,1-3.92,4.92h13V46.83ZM566.21,35.08h17.35V33.36H566.21Zm0,4.44h17.35V37.8H566.21Zm0,4.43h17.35V42.19H566.21Z"/><path class="cls-4" d="M602.73,32.6V53.55H598V17.72h15.27V32.6Zm0-11.24v2.16h6.12V21.36ZM608.85,29V26.72h-6.12V29Zm2.44,18.91v2.24h-4.44V35.36h15.47V47.91Zm0-8.63V44h6.59V39.28Zm20.39,8.59c0,2.64-.52,4-2.2,4.76s-4.16.92-7.84.92a17,17,0,0,0-1.6-4.88c2.32.16,5,.12,5.8.08s1-.24,1-1V32.64H616V17.72h15.64ZM620.56,21.32v2.2h6.32v-2.2ZM626.88,29V26.72h-6.32V29Z"/><path class="cls-7" d="M416.3,192.69h5.39l2.13,13c.39,2.81.83,5.62,1.22,8.5h.15c.54-2.88,1.11-5.73,1.69-8.5l3.09-13h4.58l3.06,13c.57,2.74,1.11,5.62,1.69,8.5h.18c.39-2.88.79-5.73,1.18-8.5l2.13-13h5l-4.93,26.67h-6.63l-3-13.17c-.44-2.09-.83-4.14-1.16-6.19H432c-.36,2.05-.72,4.1-1.15,6.19l-2.92,13.17h-6.51Z"/><path class="cls-7" d="M451,193.05a3.08,3.08,0,1,1,3.1,2.92A2.84,2.84,0,0,1,451,193.05Zm.44,6.16h5.29v20.15H451.4Z"/><path class="cls-7" d="M461.26,207.16h9.83v3.78h-9.83Z"/><path class="cls-7" d="M476.09,192.69H492.5v4.47H481.42v6.94h9.46v4.47h-9.46v10.79h-5.33Z"/><path class="cls-7" d="M496.29,193.05a3.08,3.08,0,1,1,3.09,2.92A2.84,2.84,0,0,1,496.29,193.05Zm.43,6.16H502v20.15h-5.29Z"/><path class="cls-7" d="M523.5,195c-.47,2.41-1.73,9.61-1.73,13.21a17.11,17.11,0,0,0,.15,2.34c.54-1.23,1.11-2.49,1.62-3.68l2.23,1.77c-1,3-2.2,6.91-2.59,8.82a10.6,10.6,0,0,0-.18,1.69c0,.39,0,1,.07,1.47l-4.18.29a46,46,0,0,1-1.4-11.77A101.19,101.19,0,0,1,519,194.89c.11-1,.32-2.38.36-3.53l5,.43C524.11,192.55,523.65,194.35,523.5,195Zm8.89,17.6c0,1.58,1.37,2.55,5,2.55a43.15,43.15,0,0,0,9-.93l.07,4.86a51.24,51.24,0,0,1-9.29.68c-6.19,0-9.18-2.2-9.18-5.9a22.27,22.27,0,0,1,.61-4.68l4.14.39A12.67,12.67,0,0,0,532.39,212.6Zm13-18.43v4.64a96.39,96.39,0,0,1-15.48,0V194.2A73.37,73.37,0,0,0,545.42,194.17Z"/><path class="cls-7" d="M574,204.07c-.36.82-.76,1.72-1.19,2.59h11.59v3.6h-3.89a15.82,15.82,0,0,1-2.55,5.79,41.94,41.94,0,0,1,6,3.24l-2.7,3.21a42.55,42.55,0,0,0-6.33-3.6c-2.81,1.87-6.73,2.95-12.17,3.67a11.27,11.27,0,0,0-1.58-3.46c4.14-.36,7.23-1,9.54-2.05-.9-.36-1.8-.72-2.67-1l-.36.65-3.7-1.19c.82-1.44,1.76-3.31,2.66-5.25h-4.32v-1.95l-2.7.8v8.56c0,2.13-.36,3.28-1.51,3.93s-2.88.86-5.36.86a15.7,15.7,0,0,0-1.19-4.18,32.89,32.89,0,0,0,3.35,0c.43,0,.61-.14.61-.68v-7.38l-4,1.08-.9-4.14c1.37-.29,3.06-.69,4.9-1.12V199.6H551.4v-3.92h4.18v-6.77h4.1v6.77h2.77v3.92h-2.77v5.47l2.74-.72.28,2.31h5.62c.4-.9.76-1.77,1.08-2.59h-7.31v-3.64h5.4a24.09,24.09,0,0,0-1-4.39l.72-.14h-4v-3.6h8v-3.42h4.35v3.42h8v3.6h-3c-.58,1.65-1.19,3.23-1.73,4.53h5.55v3.64Zm-2.92,6.19c-.43.9-.9,1.8-1.33,2.66,1.4.43,2.92,1,4.46,1.55a11,11,0,0,0,2.09-4.21Zm-.75-14.36a19.19,19.19,0,0,1,1.08,4.49l-.15,0h3.78a37.3,37.3,0,0,0,1.37-4.53Z"/><path class="cls-7" d="M591.65,210.51a33.61,33.61,0,0,1-2.12,9.29,17.88,17.88,0,0,0-3.14-1.52c1.05-2.12,1.55-5.32,1.84-8.35Zm4.17-2.92V222.5h-3.67V207.88l-5,.4-.43-3.71,2.59-.14c.54-.65,1.08-1.37,1.62-2.13a33.42,33.42,0,0,0-4.1-5l2.08-2.88c.26.26.54.51.83.76a43.06,43.06,0,0,0,2.59-6.23l3.71,1.3a78.79,78.79,0,0,1-4.07,7.34c.43.47.83,1,1.15,1.4a53.51,53.51,0,0,0,3.24-5.83l3.5,1.62c-2,3-4.43,6.59-6.7,9.47l3.13-.18c-.36-.79-.75-1.58-1.15-2.3l3-1.26a36.91,36.91,0,0,1,2.49,5.29v-3.39h19.76v7.13h-3.74v-3.81H604.21v3.81h-3.56v-1.08l-2.49,1.15c-.1-.61-.32-1.33-.54-2.12Zm3.32,2.2a26.25,26.25,0,0,1,1.83,6.33l-3.17,1a28.58,28.58,0,0,0-1.65-6.48Zm5.83-2.3h3.85v2.88c0,3.7-1,8.89-7.67,12.16a20.13,20.13,0,0,0-2.91-2.84c5.9-2.81,6.73-6.77,6.73-9.4Zm3.24-12.31h-7.45v-3.5h7.45v-2.8h4.24v2.8h7.6v3.5h-7.6v2.08H619v3.46h-17v-3.46h6.16ZM617,218.54c.5,0,.68-.58.75-4.47a9.62,9.62,0,0,0,3.42,1.59c-.36,5.14-1.33,6.48-3.78,6.48h-2.3c-3.06,0-3.71-1.16-3.71-4.72v-9.93h3.85v9.93c0,1,.07,1.12.54,1.12Z"/><path class="cls-7" d="M434.73,252.49c3-.25,9-.79,15.55-1.33,3.7-.32,7.63-.54,10.18-.65l0,4.61a38.51,38.51,0,0,0-6.95.5,11,11,0,0,0-7.63,10.08c0,5.94,5.54,8.06,11.66,8.39L455.89,279c-7.56-.5-14.68-4.54-14.68-12.35a14.4,14.4,0,0,1,5.36-11.12c-3.38.36-10.73,1.15-14.9,2.05l-.47-4.93C432.64,252.64,434,252.56,434.73,252.49Zm23.5,11.05-2.73,1.23a28,28,0,0,0-2.81-5l2.66-1.11A43.79,43.79,0,0,1,458.23,263.54Zm4.18-1.76-2.7,1.29a32.15,32.15,0,0,0-2.95-4.86l2.62-1.22A54,54,0,0,1,462.41,261.78Z"/><path class="cls-7" d="M484.19,259.37c-.18-.44-.33-.87-.47-1.26-.29-.83-.5-1.52-.72-2.13a84.4,84.4,0,0,1-12.13-.32l-.25-4.14a75.11,75.11,0,0,0,11.27.54c-.37-1.15-.72-2.3-1.16-3.56l4.83-.54c.18,1.29.39,2.55.64,3.78a42,42,0,0,0,7.1-1.55l.57,4.14a53.73,53.73,0,0,1-6.62,1.33c.18.57.36,1.15.54,1.69s.39,1,.61,1.62a46.51,46.51,0,0,0,6.88-1.44l.72,4.25a47.3,47.3,0,0,1-5.76,1.11,31.65,31.65,0,0,0,1.87,3.21,11,11,0,0,0,1.62,1.83l-2.2,3.32c-2-.4-5.9-.87-8.53-1.16l.36-3.42,4.54.44a41.94,41.94,0,0,1-2-3.75,134.23,134.23,0,0,1-15.66,0l-.25-4.25A93,93,0,0,0,484.19,259.37Zm-8.89,12.05c0,2.67,2.52,3.75,7.27,3.75a47.61,47.61,0,0,0,9-.79l-.25,4.57a55.46,55.46,0,0,1-8.74.68c-7.2,0-11.67-2.12-11.74-7.27a11.92,11.92,0,0,1,1.55-5.79l4.46.86A6.79,6.79,0,0,0,475.3,271.42Z"/><path class="cls-7" d="M516.41,253.32a44.25,44.25,0,0,0,4.86-1.15l.14,4.17a62.79,62.79,0,0,1-6.3,1.26,65.91,65.91,0,0,1-7.7,15.41l-4.35-2.23a57.1,57.1,0,0,0,7.34-12.71c-.65,0-1.26,0-1.87,0-1.48,0-3,0-4.5-.15l-.33-4.17a45.54,45.54,0,0,0,4.79.25c1.08,0,2.16,0,3.28-.14a30.39,30.39,0,0,0,1-6l5,.51C517.42,249.54,517,251.38,516.41,253.32Zm9.72,10.87c0,1,.14,2.77.21,4.57a23.48,23.48,0,0,1,7.46,4.61l-2.42,3.85a30.75,30.75,0,0,0-4.86-3.85v.36c0,3.35-1.83,5.94-6.94,5.94-4.47,0-8-2-8-5.94,0-3.53,2.95-6.23,7.95-6.23.86,0,1.66.07,2.48.15-.14-2.67-.32-5.87-.39-8.07h4.5C526,261.09,526.09,262.61,526.13,264.19Zm-7.2,11.34c2.48,0,3.24-1.37,3.24-3.35v-.72a13.34,13.34,0,0,0-2.92-.36c-2.08,0-3.42.94-3.42,2.2S517,275.53,518.93,275.53Zm4.75-19.15,2.3-3.56a61.52,61.52,0,0,1,8.9,4.89l-2.56,3.78A51.27,51.27,0,0,0,523.68,256.38Z"/><path class="cls-7" d="M560,253.9c-2.34,1.87-7.09,5.54-9.5,7.59-1.91,1.66-1.87,2.05.07,3.74,2.7,2.27,9.54,7.67,13.21,11.23l-4.21,3.86c-1-1.12-2.05-2.27-3.13-3.35-2.19-2.27-7.49-6.77-10.76-9.58-3.6-3.06-3.31-5,.29-8,2.84-2.3,7.77-6.3,10.18-8.64a23.38,23.38,0,0,0,2.77-3.06l4.22,3.71C562,252.28,560.83,253.21,560,253.9Z"/><path class="cls-7" d="M578.83,252.42c3-.25,8.93-.79,15.52-1.37,3.71-.29,7.67-.54,10.19-.61l0,4.61a39.42,39.42,0,0,0-7,.47c-4.35,1.15-7.59,5.83-7.59,10.11,0,5.9,5.54,8.06,11.63,8.39L600,279c-7.52-.51-14.65-4.57-14.65-12.35a14.49,14.49,0,0,1,5.33-11.12c-3.38.36-10.73,1.15-14.9,2l-.47-4.93C576.71,252.56,578.11,252.49,578.83,252.42Z"/><path class="cls-7" d="M441.65,306.42v32.15h-4.46V337H415.27v1.55H411V306.42Zm-4.46,26.64V310.38H415.27v22.68Zm-7.52-14a19.93,19.93,0,0,0,6.84,7.74,16.86,16.86,0,0,0-2.78,3.17,22.31,22.31,0,0,1-5.65-7.16v9.07h-3.92v-8.93a22.32,22.32,0,0,1-5.8,7.24,17.53,17.53,0,0,0-2.59-2.92,20.68,20.68,0,0,0,6.7-8.21h-5.69v-3.6h7.38v-4.17h3.92v4.17h7.71V319Z"/><path class="cls-7" d="M453.25,319.17c2.45-.76,8.57-2.81,12.92-2.81,5.69,0,9.5,3.38,9.5,8.82,0,6.51-5.72,10.94-17.17,11.66l-1.9-4.43c8.24-.21,14.29-2.41,14.29-7.3,0-2.7-2-4.58-5.15-4.58-4.18,0-11.38,3-14.43,4.29l-1.88-4.68C450.51,319.92,452.17,319.49,453.25,319.17Z"/><path class="cls-7" d="M486.4,310.42c3-.25,8.93-.79,15.52-1.37,3.71-.29,7.67-.54,10.19-.61l0,4.61a39.42,39.42,0,0,0-6.95.47c-4.35,1.15-7.59,5.83-7.59,10.11,0,5.9,5.54,8.06,11.63,8.39l-1.7,4.93c-7.52-.51-14.65-4.57-14.65-12.35a14.49,14.49,0,0,1,5.33-11.12c-3.38.36-10.73,1.15-14.9,2l-.47-4.93C484.28,310.56,485.69,310.49,486.4,310.42Z"/><path class="cls-7" d="M537.56,308.8c0,.36,0,.9,0,1.48a76.64,76.64,0,0,0,9.11-1l0,4.14c-2.37.29-5.65.61-9.14.79v3.71c3.64-.18,6.7-.47,9.61-.86l0,4.25c-3.24.36-6,.61-9.51.72.08,1.36.15,2.84.25,4.28a28.27,28.27,0,0,1,10.08,5.43l-2.59,4a27.62,27.62,0,0,0-7.27-5c0,.51,0,.94,0,1.33,0,3.06-2.34,5.44-7.09,5.44-5.76,0-8.79-2.2-8.79-6,0-3.64,3.35-6.19,8.89-6.19a20.49,20.49,0,0,1,2.24.11c-.08-1.12-.11-2.27-.15-3.35h-1.87c-2.09,0-6.19-.18-8.57-.47l0-4.25a63.88,63.88,0,0,0,8.67.69h1.73c0-1.19,0-2.49,0-3.71h-1.34a84.06,84.06,0,0,1-8.82-.65l-.1-4.1a67.41,67.41,0,0,0,8.89.79h1.4v-1.69a15,15,0,0,0-.21-2.49h4.85C537.67,307,537.6,307.86,537.56,308.8Zm-7.27,24.69c1.91,0,3.17-.54,3.17-2.63,0-.39,0-.9,0-1.54a19.14,19.14,0,0,0-2.95-.26c-2.56,0-4,1-4,2.24S527.8,333.49,530.29,333.49Z"/><path class="cls-7" d="M575.54,309.45c0,.29,0,.68,0,1.11,3.64,0,8.57-.07,10.44,0l0,4.24c-2.16-.1-5.51-.18-10.41-.18,0,1.84,0,3.82,0,5.4a9.21,9.21,0,0,1,1.29,4.94c0,4.67-2.73,10.65-11.51,13.1l-3.86-3.82c3.64-.75,6.81-1.94,8.79-4.1a7.66,7.66,0,0,1-1.62.18,6.35,6.35,0,0,1-6.19-6.62c0-4.07,3.27-6.74,7.2-6.74a9.66,9.66,0,0,1,1.44.11c0-.79,0-1.62,0-2.41-5.44.07-11,.29-15.48.54l-.11-4.35c4.11,0,10.66-.15,15.55-.22,0-.47,0-.83-.07-1.12a26.19,26.19,0,0,0-.36-3.13h5.22C575.72,306.93,575.57,308.87,575.54,309.45Zm-6,16.84c1.51,0,2.84-1.15,2.34-4.32a2.68,2.68,0,0,0-2.34-1.26,2.79,2.79,0,0,0,0,5.58Z"/><path class="cls-7" d="M591.78,332.41a3.29,3.29,0,1,1,3.31,3.46A3.31,3.31,0,0,1,591.78,332.41Zm13.64,0a3.3,3.3,0,1,1,3.27,3.46A3.3,3.3,0,0,1,605.42,332.41Zm13.64,0a3.3,3.3,0,1,1,3.28,3.46A3.31,3.31,0,0,1,619.06,332.41Z"/><path class="cls-1" d="M637.8,749.08H111.65a36.54,36.54,0,1,1,0-73.08H637.8a36.54,36.54,0,1,1,0,73.08Z"/><polygon class="cls-1" points="334.13 729.59 374.73 771 415.32 729.59 334.13 729.59"/><ellipse class="cls-2" cx="518.72" cy="944.42" rx="212.01" ry="139.42"/><circle class="cls-2" cx="556.79" cy="1141.76" r="21.68"/><circle class="cls-2" cx="598.84" cy="1075.34" r="32.81"/><circle class="cls-2" cx="510.13" cy="1180.89" r="16.26"/><circle class="cls-2" cx="464.52" cy="1204.42" r="9.98"/><path class="cls-8" d="M250.48,1268.09l-3.58-92.88c41.75.87,44.06-16.5,43.28-46.12-.8-30.19-12.32-97.7-21.05-123.91s-25.82-35.75-41-34.16c-9.44.79-19.33,2.17-26.9,3.36-1.92,10.53-10.14,48-36.26,94.34-26.11-46.3-34.34-83.81-36.26-94.34-7.56-1.19-17.46-2.57-26.89-3.36-16.22-1.59-30.92,2.78-46.41,36.94s-27,87-29.39,110.8,6.76,40.51,26.22,40.51c12.53,0,24.73-5.6,31.83-9.58l-4.56,118.4"/><path d="M250.48,1270.78a2.69,2.69,0,0,1-2.69-2.58l-3.57-92.88a2.67,2.67,0,0,1,2.74-2.79c16.86.36,27.48-2.26,33.4-8.22,7.26-7.3,7.52-20.24,7.13-35.15-.79-30-12.13-96.78-20.91-123.13C259.25,984,245,972,228.45,973.69c-8.89.75-18.14,2-24.89,3-2.49,12.66-11.27,49.08-36.21,93.3a2.68,2.68,0,0,1-4.68,0c-24.94-44.22-33.72-80.64-36.2-93.3-6.75-1-16-2.3-24.84-3-16.38-1.61-29.39,3.75-43.73,35.37-15.21,33.53-26.71,85.4-29.16,110-1.34,13.4,1.14,24.34,7,30.79,4.06,4.49,9.63,6.77,16.56,6.77,12.23,0,24.37-5.79,30.51-9.25a2.68,2.68,0,0,1,4,2.45L82.23,1268.2a2.66,2.66,0,0,1-2.78,2.58,2.7,2.7,0,0,1-2.59-2.79l4.38-113.74c-7.83,3.9-18.22,7.71-29,7.71-8.39,0-15.49-3-20.54-8.53-6.88-7.6-9.84-20-8.35-34.94,2.49-24.92,14.17-77.59,29.62-111.64,15.6-34.42,30.91-40.3,49.11-38.5,9.8.82,20.12,2.29,27,3.37a2.7,2.7,0,0,1,2.23,2.18c1.82,10,9.55,45.3,33.61,89.29,24.07-44,31.79-79.29,33.62-89.29a2.69,2.69,0,0,1,2.23-2.18c6.92-1.08,17.24-2.55,27.08-3.38,22.61-2.36,37.42,17,43.73,36,8.91,26.7,20.39,94.29,21.19,124.69.43,16.17.07,30.27-8.69,39.08-6.64,6.68-17.61,9.83-34.38,9.83h-.09l3.46,90.06a2.69,2.69,0,0,1-2.58,2.79Z"/><path d="M238.74,1057.41a1.82,1.82,0,0,1-.75-.17,1.79,1.79,0,0,1-.87-2.38c9.27-19.89,10.54-44.17,10.56-44.41a1.79,1.79,0,0,1,3.58.17c0,1-1.32,25.21-10.89,45.75A1.81,1.81,0,0,1,238.74,1057.41Z"/><path d="M91.28,1057.41a1.79,1.79,0,0,1-1.62-1c-9.57-20.54-10.84-44.73-10.89-45.75a1.79,1.79,0,0,1,3.58-.17c0,.24,1.29,24.52,10.56,44.41a1.8,1.8,0,0,1-.87,2.38A1.87,1.87,0,0,1,91.28,1057.41Z"/><path class="cls-4" d="M188.38,976.58V955.93L165,965.06l-23.37-9.13v20.65s-5.25-1-12.89-2.2c1.92,10.53,10.15,48,36.26,94.34,26.12-46.3,34.34-83.81,36.26-94.34C193.64,975.58,188.38,976.58,188.38,976.58Z"/><path d="M165,1071.41a2.7,2.7,0,0,1-2.34-1.37c-26.32-46.67-34.64-84.65-36.56-95.18a2.68,2.68,0,0,1,.72-2.36,2.71,2.71,0,0,1,2.34-.78c4.06.64,7.48,1.23,9.79,1.64V955.93a2.68,2.68,0,0,1,3.66-2.5L165,962.18l22.4-8.75a2.68,2.68,0,0,1,3.66,2.5v17.43c2.31-.41,5.72-1,9.79-1.64a2.69,2.69,0,0,1,3.06,3.14c-1.93,10.53-10.25,48.51-36.57,95.18A2.69,2.69,0,0,1,165,1071.41Zm-32.88-93.77c2.8,13.41,11.23,46,32.88,85.55,21.66-39.59,30.08-72.14,32.88-85.55-5.41.9-9,1.57-9,1.58a2.73,2.73,0,0,1-2.22-.57,2.67,2.67,0,0,1-1-2.07V959.86L166,967.56a2.63,2.63,0,0,1-2,0l-19.71-7.7v16.72a2.68,2.68,0,0,1-3.19,2.64S137.55,978.54,132.13,977.64Z"/><path class="cls-5" d="M154.71,812.14c-10.82-15.69.71-31.66,14.1-34.74s24.15,4.2,25.39,13.17c13.67-5.61,26.85,7.28,19.18,20.17,0,0,5.68,3.92,15.5,2.24,0,0-2.33,9.81-14.23,12.61S154.71,812.14,154.71,812.14Z"/><path d="M211.28,828.59c-15.85,0-52.89-12.36-57.44-13.9a2.79,2.79,0,0,1-1.35-1c-4.94-7.17-6.07-15.23-3.18-22.67a27.32,27.32,0,0,1,18.89-16.22c7.59-1.75,15.18-.52,20.82,3.37a18.42,18.42,0,0,1,7.1,9,18.31,18.31,0,0,1,18.31,5.5,16,16,0,0,1,2.56,16.9,21.81,21.81,0,0,0,11.44.81,2.72,2.72,0,0,1,2.41.81,2.68,2.68,0,0,1,.65,2.46c-.11.47-2.86,11.46-16.22,14.61A17.65,17.65,0,0,1,211.28,828.59Zm-54.85-18.7c13.82,4.62,48.66,15.19,57.61,13.09a16.77,16.77,0,0,0,10.43-6.89c-7.89.11-12.39-3-12.62-3.14a2.69,2.69,0,0,1-.78-3.58c2.74-4.6,2.47-9.55-.71-13.24-3.59-4.17-9.54-5.38-15.14-3.08a2.69,2.69,0,0,1-3.68-2.12,12.39,12.39,0,0,0-5.57-8.35c-4.4-3-10.44-4-16.56-2.57a21.85,21.85,0,0,0-15.09,12.93C152.8,796.87,152,802.94,156.43,809.89Z"/><path class="cls-4" d="M112.24,886.68c-4.19-2.8-9.8,5.89-9.14,16.81s5.17,18.22,12.6,16.82l2.86-21.3Z"/><path d="M113.93,923.17a10.59,10.59,0,0,1-6.62-2.28c-4-3.09-6.41-9.21-6.89-17.23-.52-8.56,2.46-16.69,7.08-19.34a5.73,5.73,0,0,1,6.23.13,2.7,2.7,0,0,1,.9,1L121,897.79a2.7,2.7,0,0,1,.28,1.58l-2.86,21.3A2.71,2.71,0,0,1,116.2,923,12.73,12.73,0,0,1,113.93,923.17Zm-3.58-34.28-.18.1c-2.08,1.19-4.83,7-4.39,14.34.38,6.37,2.15,11.22,4.84,13.32a5.17,5.17,0,0,0,2.72,1.11l2.45-18.27Z"/><path class="cls-4" d="M226.71,902.65c6.85-.56,9.28,8.13,4.57,18.78S218,940.2,211.7,934l5.83-21.58Z"/><path d="M216.51,938.86a9.44,9.44,0,0,1-6.69-2.9,2.68,2.68,0,0,1-.72-2.62l5.84-21.58a2.64,2.64,0,0,1,.63-1.13l9.18-9.81a2.62,2.62,0,0,1,1.74-.84,8.35,8.35,0,0,1,7.79,3.51c3,4.27,2.84,11.39-.54,19-3.08,7-8.75,14.88-15.4,16.16A9.62,9.62,0,0,1,216.51,938.86ZM214.76,933a3.65,3.65,0,0,0,2.56.38c3.75-.72,8.37-6,11.51-13.06,2.87-6.49,2.6-11.58,1.07-13.74a2.83,2.83,0,0,0-2-1.25L220,913.81Z"/><path class="cls-5" d="M229.91,837.64c-12.35-25.5-50.86-40.35-84.72-23s-42.27,58-29.59,86.59c15-40.07,60.81-43.43,60.81-43.43,35.85,18.77,42.64,59.69,42.64,59.69A73.14,73.14,0,0,0,229.91,837.64Z"/><path d="M219.05,920.19a2.62,2.62,0,0,1-.73-.1A2.69,2.69,0,0,1,216.4,918c-.07-.4-6.94-39.3-40.53-57.38-5.85.67-44.61,6.41-57.76,41.62a2.68,2.68,0,0,1-5,.15c-12.9-29.09-4.78-71.8,30.82-90.07A69.37,69.37,0,0,1,198,808c15.57,5.2,28.08,15.57,34.31,28.44h0a75.57,75.57,0,0,1-11.26,82.8A2.65,2.65,0,0,1,219.05,920.19Zm-42.64-65.06a2.72,2.72,0,0,1,1.25.31c29,15.2,39.54,44,42.78,56.08a70.18,70.18,0,0,0,7.06-72.7h0c-5.61-11.58-17-21-31.18-25.7a64,64,0,0,0-49.91,3.94c-30.42,15.61-39,50.63-30.65,77.05,17.55-35.41,60-38.94,60.46-39Z"/><path class="cls-4" d="M176.41,857.82s-45.85,3.36-60.81,43.43c-2.59,16.26-.71,33.35,5.32,45.12s23.09,26.9,34.42,29.14,30.94-5.6,41-15.41,19.21-25.22,22.69-42.59C219.05,917.51,212.26,876.59,176.41,857.82Z"/><path d="M159.38,978.55a23.74,23.74,0,0,1-4.56-.4c-12.73-2.52-30.26-18.78-36.3-30.56-6.22-12.15-8.3-29.63-5.58-46.76a3.07,3.07,0,0,1,.14-.52c15.39-41.21,62.66-45.14,63.14-45.17a2.77,2.77,0,0,1,1.44.3c36.61,19.17,43.76,59.9,44,61.63a2.58,2.58,0,0,1,0,1c-3.29,16.45-12.05,32.9-23.45,44C187.41,972.56,170.54,978.55,159.38,978.55Zm-41.17-76.61c-2.45,15.72-.51,32.26,5.1,43.2,5.89,11.52,22.62,25.77,32.55,27.73s28.82-5.15,38.62-14.7c10.53-10.25,18.67-25.43,21.83-40.68-.88-4.47-8.84-39.91-40.44-56.92C170,861.24,131.45,867,118.21,901.94Z"/><path d="M163.62,941.06a12.7,12.7,0,0,1-5.63-1.24,1.79,1.79,0,0,1,1.7-3.16,9.73,9.73,0,0,0,5.71.66,1.79,1.79,0,1,1,.61,3.53A14.69,14.69,0,0,1,163.62,941.06Z"/><path d="M173.09,957.41a1.89,1.89,0,0,1-.88-.23c-10.22-5.78-22.74-4.15-22.87-4.13a1.79,1.79,0,1,1-.49-3.55c.55-.08,13.82-1.83,25.13,4.56a1.79,1.79,0,0,1-.89,3.35Z"/><path d="M164.92,961.05a1.73,1.73,0,0,1-.32,0l-10.13-1.82a1.79,1.79,0,1,1,.63-3.53l10.13,1.82a1.79,1.79,0,0,1-.31,3.56Z"/><path d="M133.85,900.39h-.62a1.78,1.78,0,0,1-1.71-1.86,1.81,1.81,0,0,1,1.85-1.72c.1,0,10.08.31,17.48-5a1.79,1.79,0,1,1,2.09,2.91C145.56,900,136.32,900.39,133.85,900.39Z"/><path d="M199.78,908.65a1.68,1.68,0,0,1-.5-.07,41.5,41.5,0,0,1-17.87-10.75,1.79,1.79,0,0,1,2.66-2.4,38.62,38.62,0,0,0,16.21,9.71,1.79,1.79,0,0,1-.5,3.51Z"/><path class="cls-4" d="M150.64,849.62h0a1.8,1.8,0,0,1-1.76-1.83c.31-17.51,8.75-26.27,9.11-26.63a1.79,1.79,0,0,1,2.55,2.51c-.09.1-7.8,8.21-8.08,24.19A1.8,1.8,0,0,1,150.64,849.62Z"/><path class="cls-4" d="M212.3,866.24a2,2,0,0,1-.48-.06,1.79,1.79,0,0,1-1.25-2.21,47.84,47.84,0,0,0-.7-27.27,1.79,1.79,0,0,1,3.34-1.3,50.57,50.57,0,0,1,.81,29.53A1.79,1.79,0,0,1,212.3,866.24Z"/><ellipse cx="142.02" cy="911.48" rx="4.8" ry="4.33" transform="translate(-780.02 940.16) rotate(-82.93)"/><ellipse cx="187.63" cy="918.21" rx="4.8" ry="4.33" transform="translate(-746.7 991.32) rotate(-82.93)"/><path class="cls-9" d="M85.19,1125c5.76,9.13,12.88,14.61,17.92,10.83,9.55-7.16,7.22-31.36,5.47-42.95l-.1.06Z"/><path d="M99.54,1139.74a10.2,10.2,0,0,1-1.72-.16c-6.52-1.21-12.14-8.75-14.9-13.14a2.67,2.67,0,0,1,.1-3l23.28-32.06a2.64,2.64,0,0,1,.88-.78,2.81,2.81,0,0,1,2.54-.08,2.75,2.75,0,0,1,1.52,2c2.05,13.63,4,37.66-6.51,45.51A8.51,8.51,0,0,1,99.54,1139.74Zm-11.09-14.65c3.58,5.25,7.38,8.65,10.35,9.2a3.25,3.25,0,0,0,2.7-.6c5.28-4,7.16-16.39,5.28-33.83Z"/><path d="M51.68,1109.34a2.69,2.69,0,0,1-1.7-4.78c13.55-11,28.49-28.66,28.64-28.84a2.69,2.69,0,0,1,4.11,3.47c-.63.74-15.42,18.2-29.35,29.54A2.67,2.67,0,0,1,51.68,1109.34Z"/><path d="M84.11,1152.37a2.69,2.69,0,0,1-1.35-5c8.67-5,18.5-13.47,18.6-13.56a2.69,2.69,0,0,1,3.51,4.08c-.42.36-10.31,8.85-19.41,14.13A2.66,2.66,0,0,1,84.11,1152.37Z"/><path class="cls-4" d="M141,1032.18c-3.57-4.76-11.52-13.5-13.3-15.49s-5.56-3.17-8.14-1.59-11.72,8.54-11.72,8.54-17.08,5.17-23,8.54-8.93,7-8.53,16.88,4.36,28.4,4.36,28.4c-9.82,11.26-4.24,33.65,4.52,47.55L108.48,1093l.1-.06a85.92,85.92,0,0,0,25.12-22.58l-1-18.67-13.7,4.77-2.38-21.65L123,1029s5.56,5.37,10.53,9.34S144.62,1037,141,1032.18Z"/><path d="M85.19,1127.69H85.1a2.68,2.68,0,0,1-2.18-1.25c-9.59-15.21-14.44-37.44-5.14-49.68-.91-4.39-3.81-19-4.16-27.59-.45-11.22,3.29-15.58,9.9-19.33,5.65-3.2,20.26-7.75,23.12-8.63,1.79-1.36,9.16-6.93,11.55-8.39,3.84-2.37,9-.77,11.54,2.07l.5.56c2.62,2.9,9.58,10.61,13,15.12h0a7.16,7.16,0,0,1-.59,9.66,8.07,8.07,0,0,1-10.78.21c-3.31-2.65-6.82-5.84-8.89-7.77l-3.49,3.16,1.86,16.93,10.52-3.66a2.7,2.7,0,0,1,3.57,2.4l1,18.67a2.7,2.7,0,0,1-.48,1.67A87.64,87.64,0,0,1,110.32,1095l-23,31.61A2.68,2.68,0,0,1,85.19,1127.69Zm37.17-110.63a2.61,2.61,0,0,0-1.36.33c-2,1.25-9,6.48-11.49,8.39a2.87,2.87,0,0,1-.85.44c-.17,0-16.86,5.11-22.49,8.3-5.25,3-7.53,5.76-7.18,14.43.38,9.59,4.27,27.76,4.31,27.94a2.69,2.69,0,0,1-.6,2.34c-7.76,8.89-4.78,27,2.73,40.87l20.87-28.73a2.64,2.64,0,0,1,.88-.78,84.15,84.15,0,0,0,23.78-21.1l-.75-14.13L119.88,1059a2.69,2.69,0,0,1-3.55-2.25L114,1035.06a2.67,2.67,0,0,1,.86-2.29l6.36-5.76a2.69,2.69,0,0,1,3.67.06s5.53,5.33,10.34,9.17a2.68,2.68,0,0,0,3.68.14,1.79,1.79,0,0,0,0-2.59h0c-3.23-4.31-10.32-12.16-12.65-14.74l-.5-.56A4.94,4.94,0,0,0,122.36,1017.06Z"/><path class="cls-4" d="M81.77,1040.42s3.87,10.33,5,14.8,9.83,3.87,10.33-3.48c3.17,5.46,9.73,3.38,10.42-3.57,2.78,4.56,9.14,3.67,9.83-1.59s-1.59-17.67-3.37-22.44"/><path d="M90.87,1059.83a5.76,5.76,0,0,1-5.88-4.19c-1-4.31-4.86-14.49-4.9-14.59a1.79,1.79,0,0,1,3.35-1.26c.16.43,3.93,10.48,5,15,.28,1.14,1.58,1.54,2.75,1.45,1.74-.15,3.84-1.45,4-4.62a1.8,1.8,0,0,1,3.34-.78c1,1.67,2.32,2.45,3.72,2.15s3-1.78,3.37-5a1.79,1.79,0,0,1,3.31-.75,3.91,3.91,0,0,0,4.07,2,3.18,3.18,0,0,0,2.46-2.92c.64-4.89-1.58-17-3.28-21.57a1.79,1.79,0,1,1,3.35-1.26c1.87,5,4.22,17.67,3.48,23.3a6.74,6.74,0,0,1-5.27,6,7,7,0,0,1-5.39-1.06,7.69,7.69,0,0,1-5.34,4.79,6.37,6.37,0,0,1-5.14-1.11,7.87,7.87,0,0,1-6.42,4.43C91.31,1059.83,91.08,1059.83,90.87,1059.83Z"/><path d="M107,1084.12h-.1a1.79,1.79,0,0,1-1.69-1.88c.53-10.33-10.16-17-10.27-17a1.79,1.79,0,0,1,1.87-3.06c.51.31,12.62,7.84,12,20.29A1.79,1.79,0,0,1,107,1084.12Z"/><path d="M83.51,1090.45a2.68,2.68,0,0,1-2.55-1.84c-.07-.22-1.8-5.4-2.91-10.59a2.69,2.69,0,1,1,5.25-1.13c1.06,4.9,2.74,10,2.76,10a2.69,2.69,0,0,1-1.7,3.4A2.53,2.53,0,0,1,83.51,1090.45Z"/><path d="M246.9,1177.9h-.15c-13.48-.74-28-3.21-28.16-3.24a2.68,2.68,0,1,1,.91-5.29c.14,0,14.38,2.44,27.55,3.16a2.69,2.69,0,0,1-.15,5.37Z"/><path d="M267.34,1124.43a3.89,3.89,0,0,1-.47,0c-16.68-3-39.33-10.43-40.29-10.75a2.69,2.69,0,1,1,1.69-5.1c.23.08,23.25,7.65,39.54,10.56a2.69,2.69,0,0,1-.47,5.33Z"/><path d="M241.52,1118.27a2.69,2.69,0,0,1-2.68-2.52l-2-32.57a2.68,2.68,0,0,1,5.36-.32l2,32.56a2.69,2.69,0,0,1-2.52,2.85Z"/><path class="cls-4" d="M189.54,1131.87H140.48a5.71,5.71,0,0,1-5.71-5.5l-3.55-94.61a5.72,5.72,0,0,1,5.71-5.94h56.16a5.73,5.73,0,0,1,5.72,5.94l-3.55,94.61A5.72,5.72,0,0,1,189.54,1131.87Z"/><path d="M189.54,1134.56H140.48a8.38,8.38,0,0,1-8.4-8.1l-3.54-94.6a8.39,8.39,0,0,1,8.39-8.72h56.16a8.39,8.39,0,0,1,8.4,8.72l-3.55,94.61A8.38,8.38,0,0,1,189.54,1134.56Zm-52.61-106a3,3,0,0,0-3,3.15l3.54,94.6a3,3,0,0,0,3,2.92h49.06a3,3,0,0,0,3-2.92l3.55-94.6a3,3,0,0,0-3-3.15Z"/><circle cx="142.53" cy="1038.64" r="3.97"/><path class="cls-9" d="M211.44,1145c-.68,13.07,1.54,25.26,7.6,27,6.39,1.84,11.85-9.73,14.48-23.33l-18-5.58A16.74,16.74,0,0,1,211.44,1145Z"/><path d="M220.37,1174.89a7.77,7.77,0,0,1-2.07-.29c-10.14-2.92-9.87-23.5-9.55-29.73a2.69,2.69,0,0,1,1.89-2.43,13.58,13.58,0,0,0,3.45-1.59,2.7,2.7,0,0,1,2.28-.32l17.95,5.58a2.69,2.69,0,0,1,1.84,3.08c-1.15,5.92-4.57,20.16-11.59,24.46A8,8,0,0,1,220.37,1174.89Zm-6.32-28c-.44,13.58,2.48,21.58,5.74,22.51a2.32,2.32,0,0,0,2-.36c3.22-2,6.53-9.14,8.62-18.55l-14.46-4.5A19.14,19.14,0,0,1,214.05,1146.92Z"/><path class="cls-4" d="M227.42,1111.09,219,1108.2s-2.5-11.76-6.36-17.74-8.37-13.5-10.87-20-11.11-4.05-8.79,5,7.52,23.72,7.52,23.72-14.08-7.71-22.56-11.76-20.12-8.1-25.52-10.22-10,4.43-3,8.48,27.37,13.6,31.42,18c-6,.39-15.07-1.66-20.85-4s-13.64-5.22-18.07-7.15c-6-2.48-10.62,4.85-3.87,8.71-3.28,1-6.75,6.17,1.54,11.18a219.37,219.37,0,0,0,36.25,17.74l-13.11,5.4s-12-6.94-18.13-7.91-7.32,5.21-1.92,8.48,13.11,7.33,15.61,8.68,7.71,1.54,10.22.58,12.73-3.66,12.73-3.66,18.16,7,30.18,3.26a16.74,16.74,0,0,0,4.13-1.91l18,5.58C236.7,1132.28,235.85,1113.52,227.42,1111.09Z"/><path d="M233.52,1151.37a2.44,2.44,0,0,1-.8-.13L215.93,1146a20.54,20.54,0,0,1-3.69,1.55c-11.4,3.56-27.27-1.63-31.12-3-3.25.87-9.85,2.67-11.62,3.36-3.33,1.28-9.39.93-12.46-.72l-1.43-.77c-3.37-1.8-9.65-5.15-14.31-8-3.78-2.29-5.58-6.21-4.37-9.51.83-2.27,3.45-4.65,8.11-3.92,5.47.85,14.65,5.76,17.9,7.57l5.71-2.35a225.22,225.22,0,0,1-30.43-15.5c-6.17-3.73-6.64-7.74-6.38-9.8a7.23,7.23,0,0,1,1.82-3.92,7,7,0,0,1-.9-7.56,7.79,7.79,0,0,1,10.21-3.39c2.75,1.2,6.88,2.79,10.88,4.34,2.48,1,5,1.92,7.16,2.79a58.31,58.31,0,0,0,9.71,2.83c-4.23-2.4-9.25-5-13.21-7s-7.24-3.74-9.42-5c-4.87-2.84-5.63-7.07-4.21-10,1.64-3.39,5.75-4.8,9.56-3.31,1.37.54,3.14,1.2,5.16,1.95,6,2.23,14.11,5.28,20.54,8.34,4.91,2.35,11.73,5.94,16.61,8.55-1.71-5.08-4-12.13-5.34-17.41-1.66-6.5,1.31-10.64,4.77-11.74,3.18-1,7.35.42,9.14,5.1,2,5.11,5.43,11.51,10.62,19.55,3.27,5.07,5.56,13.68,6.39,17.14l6.91,2.39c11.79,3.49,10.53,27.18,7.92,40.66a2.71,2.71,0,0,1-1.26,1.79A2.62,2.62,0,0,1,233.52,1151.37Zm-18-11a2.72,2.72,0,0,1,.8.12l15,4.68c2.61-16.15.63-30-4.73-31.54l-.13,0-8.38-2.89a2.68,2.68,0,0,1-1.75-2c0-.11-2.46-11.35-6-16.84-5.39-8.37-9-15.09-11.12-20.55-.55-1.43-1.56-2.19-2.49-1.89-1.13.36-2,2.16-1.19,5.28,2.26,8.84,7.4,23.33,7.45,23.48a2.69,2.69,0,0,1-3.83,3.25c-.14-.07-14.1-7.72-22.42-11.69-6.21-3-14.24-6-20.1-8.15-2.05-.77-3.85-1.44-5.24-2a2.09,2.09,0,0,0-2.76.65c-.41.85.4,2,2.08,3,2.06,1.21,5.36,2.91,9.18,4.89,11.18,5.79,20,10.47,22.86,13.65a2.68,2.68,0,0,1-1.81,4.49c-6.58.42-16.05-1.77-22-4.16-2.17-.86-4.63-1.82-7.1-2.77-4-1.56-8.23-3.18-11-4.41-1.62-.68-2.84,0-3.27.82s.18,2.16,1.81,3.09a2.69,2.69,0,0,1-.57,4.92,2.4,2.4,0,0,0-1.66,1.79c-.16,1.27,1.27,3,3.83,4.51a213.6,213.6,0,0,0,35.79,17.52,2.69,2.69,0,0,1,.09,5l-13.11,5.4a2.67,2.67,0,0,1-2.37-.16c-3.21-1.86-12.54-6.85-17.19-7.57-1.15-.18-2.07,0-2.23.46s.3,2,2.11,3.07c4.53,2.75,10.72,6.06,14,7.83l1.45.78a13.31,13.31,0,0,0,8,.43c2.56-1,11.94-3.47,13-3.75a2.66,2.66,0,0,1,1.65.09c.18.06,17.45,6.63,28.42,3.2a13.58,13.58,0,0,0,3.45-1.59A2.72,2.72,0,0,1,215.57,1140.41Z"/><path d="M179.07,1119.46a1.68,1.68,0,0,1-.54-.08,330.37,330.37,0,0,1-41.26-16.52,1.79,1.79,0,0,1,1.6-3.21A325.45,325.45,0,0,0,179.61,1116a1.79,1.79,0,0,1-.54,3.5Z"/><path d="M107.48,1050a1.78,1.78,0,0,1-1.77-1.56c0-.09-1.21-9.16-3.25-17.9a1.79,1.79,0,0,1,3.49-.81c2.08,8.92,3.3,18.15,3.31,18.25a1.78,1.78,0,0,1-1.55,2Z"/><path d="M97.06,1053.53a1.79,1.79,0,0,1-1.76-1.43c0-.07-1.51-7.39-4.52-17.31a1.79,1.79,0,1,1,3.42-1c3.07,10.09,4.6,17.56,4.61,17.64a1.79,1.79,0,0,1-1.4,2.11Z"/><path class="cls-4" d="M186.89,696.44h9.72c6.55,0,11.59,2.32,11.59,9.32,0,6.76-5.08,9.8-11.43,9.8h-4v10.51h-5.92Zm9.48,14.44c4.08,0,6-1.72,6-5.12s-2.15-4.6-6.23-4.6h-3.36v9.72Z"/><path class="cls-4" d="M212.09,711.4c0-9.76,6.28-15.48,13.76-15.48a12.07,12.07,0,0,1,8.67,3.8l-3.08,3.76A7.8,7.8,0,0,0,226,701c-4.47,0-7.83,3.84-7.83,10.2s3,10.31,7.72,10.31A8.18,8.18,0,0,0,232,718.6l3.12,3.67a12,12,0,0,1-9.43,4.36C218.17,726.63,212.09,721.27,212.09,711.4Z"/><path class="cls-4" d="M278.24,700.28a60.41,60.41,0,0,1-5.36,10.88,106.13,106.13,0,0,1,9.6,8.83l-4.12,4.56a80.45,80.45,0,0,0-8.88-8.83,50.21,50.21,0,0,1-14.87,12.35l-4.48-4a44,44,0,0,0,15.19-11.79,109.74,109.74,0,0,0-10.79-7.6l3.4-4.08c3.2,2,7.39,4.84,10.63,7.24a41.48,41.48,0,0,0,4.44-9.52,25,25,0,0,0,1-3.68l6,2.08C279.4,697.6,278.64,699.36,278.24,700.28Z"/><path class="cls-4" d="M296.33,707.8H317.8c1.88,0,3.64-.16,4.68-.24v6.28c-1,0-3-.2-4.68-.2H296.33c-2.28,0-5,.08-6.44.2v-6.28C291.33,707.68,294.25,707.8,296.33,707.8Z"/><path class="cls-4" d="M347.24,697.56c0,1.24-.08,2.44-.16,3.6h7.52a18.59,18.59,0,0,0,3-.28l3.48,1.68a16.35,16.35,0,0,0-.28,2.12c-.16,4.32-.64,15.47-2.36,19.55-.88,2-2.4,3.08-5.16,3.08-2.28,0-4.68-.16-6.6-.32l-.64-5.36a33.11,33.11,0,0,0,5.6.56,2.13,2.13,0,0,0,2.28-1.4c1.16-2.52,1.68-10.51,1.68-14.83h-9c-1.48,10.56-5.27,16.83-12.43,21.91l-4.64-3.76a23.84,23.84,0,0,0,5.24-3.92c3.72-3.67,5.72-8.15,6.59-14.23h-5.27c-1.36,0-3.56,0-5.28.16v-5.24c1.68.16,3.76.28,5.28.28h5.71c0-1.12.08-2.28.08-3.48a29.54,29.54,0,0,0-.27-3.68h5.87C347.36,694.92,347.28,696.6,347.24,697.56Z"/><path class="cls-4" d="M376.33,707.8H397.8c1.88,0,3.64-.16,4.68-.24v6.28c-1,0-3-.2-4.68-.2H376.33c-2.28,0-5,.08-6.44.2v-6.28C371.33,707.68,374.25,707.8,376.33,707.8Z"/><path class="cls-4" d="M411.09,711c1.84-1.92,4.92-6,7.4-8.92,2.79-3.16,5.39-3.44,8.31-.6,2.72,2.64,5.92,6.76,8.28,9.32a137.41,137.41,0,0,0,9.76,9.79l-4.12,4.8c-2.88-2.72-6.28-6.6-8.8-9.55s-5.48-6.76-7.36-8.88c-1.4-1.56-2.16-1.36-3.32.12-1.59,2-4.43,6-6.15,8.24-.92,1.32-1.84,2.76-2.52,3.79l-4.88-5A26.77,26.77,0,0,0,411.09,711Z"/><path class="cls-4" d="M468,728l-3-4.76a30.77,30.77,0,0,0,3.72-.64c5.12-1.2,9.12-4.87,9.12-10.71,0-5.52-3-9.64-8.4-10.56a80.89,80.89,0,0,1-2.4,10.84c-2.4,8.07-5.84,13-10.19,13s-8.12-4.88-8.12-11.63c0-9.24,8-17.12,18.35-17.12,9.92,0,16.16,6.88,16.16,15.6C483.28,720.43,478.12,726.39,468,728Zm-11-9c1.68,0,3.24-2.52,4.88-7.92A60,60,0,0,0,464,701.4c-6.59,1.36-10.15,7.2-10.15,11.6C453.89,717,455.49,719,457.05,719Z"/><path class="cls-4" d="M513,722.83c4.08,1.44,8.68,3.36,11.4,4.68l-5.52,2.12a78.87,78.87,0,0,0-10.4-4.72l3.6-2.08H500.36l3.64,1.6a49.34,49.34,0,0,1-12.47,5.24,48.24,48.24,0,0,0-3.52-3.48,47,47,0,0,0,11-3.36h-5.92V706.52h13.27a11.51,11.51,0,0,0-2.75-2.92,10,10,0,0,0,2.31-2h-3.6v4.16h-4.23V701.6h-3.52a13.37,13.37,0,0,1-3.84,6.64,13.71,13.71,0,0,0-3.12-3,10.86,10.86,0,0,0,3.4-8.56v-3.64l3,.76a48.72,48.72,0,0,0,8.31-1.6l2.92,2.8a51.13,51.13,0,0,1-10.15,1.72v.2c0,.36,0,.8,0,1.2h11v3.24a7.24,7.24,0,0,0,1.4-4.64v-3.64l3.2.76a61.74,61.74,0,0,0,9-1.64l2.88,2.84a62.44,62.44,0,0,1-10.92,1.72v.2c0,.36,0,.76,0,1.16h12.52v3.44h-5v4.2H514.8v-4.2h-4a10.63,10.63,0,0,1-3.92,4.92h13v16.31Zm-15.27-11.75H515v-1.72H497.69Zm0,4.44H515V713.8H497.69Zm0,4.43H515v-1.76H497.69Z"/><path class="cls-4" d="M534.21,708.6v20.95h-4.72V693.72h15.27V708.6Zm0-11.24v2.16h6.11v-2.16Zm6.11,7.64v-2.28h-6.11V705Zm2.45,18.91v2.24h-4.44V711.36H553.8v12.55Zm0-8.63V720h6.59v-4.71Zm20.39,8.59c0,2.64-.52,4-2.2,4.76s-4.16.92-7.84.92a17,17,0,0,0-1.6-4.88c2.32.16,5,.12,5.8.08s1-.24,1-1V708.64H547.52V693.72h15.64ZM552,697.32v2.2h6.32v-2.2Zm6.32,7.72v-2.32H552V705Z"/><path class="cls-7" d="M394.91,868.69h5.4l2.13,13c.39,2.81.82,5.62,1.22,8.5h.14c.54-2.88,1.12-5.73,1.7-8.5l3.09-13h4.57l3.06,13c.58,2.74,1.12,5.62,1.69,8.5h.18c.4-2.88.8-5.73,1.19-8.5l2.13-13h5l-4.93,26.67h-6.62l-3-13.17c-.43-2.09-.83-4.14-1.15-6.19h-.14c-.36,2-.72,4.1-1.15,6.19l-2.92,13.17H400Z"/><path class="cls-7" d="M429.58,869.05a3.08,3.08,0,1,1,3.1,2.92A2.84,2.84,0,0,1,429.58,869.05Zm.43,6.16h5.29v20.15H430Z"/><path class="cls-7" d="M441,875.21h4.31l.4,2.66h.11c1.76-1.73,3.81-3.17,6.55-3.17,4.36,0,6.23,3,6.23,8.1v12.56h-5.29V883.45c0-3.13-.87-4.21-2.85-4.21-1.65,0-2.7.79-4.17,2.27v13.85H441Z"/><path class="cls-7" d="M462.88,885.29c0-6.56,4.1-10.59,8.46-10.59a6.94,6.94,0,0,1,5.11,2.2l-.18-3.17v-7.09h5.26v28.72h-4.29l-.39-2.08h-.15a8.34,8.34,0,0,1-5.58,2.59C466.12,895.87,462.88,891.91,462.88,885.29Zm13.39,4.13v-8.85a5.41,5.41,0,0,0-3.78-1.51c-2.27,0-4.18,2.16-4.18,6.19s1.52,6.26,4.18,6.26A4.58,4.58,0,0,0,476.27,889.42Z"/><path class="cls-7" d="M486,885.29c0-6.7,4.64-10.59,9.68-10.59s9.68,3.89,9.68,10.59-4.64,10.58-9.68,10.58S486,892,486,885.29Zm14,0c0-3.78-1.55-6.27-4.28-6.27s-4.28,2.49-4.28,6.27,1.54,6.26,4.28,6.26S499.92,889.1,499.92,885.29Z"/><path class="cls-7" d="M507.88,875.21h5.29l2.2,9.93c.39,2,.64,3.89,1,5.9h.15c.39-2,.75-3.95,1.26-5.9l2.45-9.93h4.68l2.52,9.93c.46,2,.82,3.89,1.26,5.9h.17c.37-2,.65-3.92,1-5.9l2.2-9.93H537l-5,20.15h-6.23l-2.12-8.78c-.44-1.91-.76-3.74-1.16-5.87h-.18c-.39,2.13-.68,4-1.11,5.87l-2.05,8.78h-6Z"/><path class="cls-7" d="M538.91,893l2.41-3.31a8.73,8.73,0,0,0,5.4,2.2c2,0,2.92-.87,2.92-2.12,0-1.52-2.09-2.2-4.21-3-2.56-1-5.4-2.52-5.4-5.9,0-3.6,2.91-6.16,7.52-6.16a11.18,11.18,0,0,1,6.84,2.49l-2.38,3.2a7.52,7.52,0,0,0-4.32-1.73c-1.83,0-2.7.79-2.7,2,0,1.47,1.88,2,4,2.8,2.66,1,5.62,2.34,5.62,6.09,0,3.52-2.78,6.37-8,6.37A12.78,12.78,0,0,1,538.91,893Z"/><path class="cls-7" d="M558.75,891.08h5.72V874.92h-4.82v-3.28a17.1,17.1,0,0,0,6.19-2.23h3.92v21.67h5v4.28h-16Z"/><path class="cls-7" d="M578.58,882.26c0-8.78,3.57-13.35,9-13.35s9,4.61,9,13.35-3.53,13.61-9,13.61S578.58,891.08,578.58,882.26Zm13,0c0-7.2-1.69-9.21-4-9.21s-4,2-4,9.21,1.72,9.47,4,9.47S591.61,889.5,591.61,882.26Z"/><path class="cls-7" d="M626.86,897.06l-2.7-4.29a28.26,28.26,0,0,0,3.34-.57c4.61-1.08,8.21-4.39,8.21-9.65,0-5-2.7-8.67-7.56-9.5A71.08,71.08,0,0,1,626,882.8c-2.16,7.27-5.25,11.74-9.18,11.74s-7.3-4.39-7.3-10.48c0-8.31,7.19-15.4,16.52-15.4,8.92,0,14.54,6.19,14.54,14C640.57,890.29,635.93,895.65,626.86,897.06ZM617,889c1.51,0,2.91-2.26,4.39-7.12a54.56,54.56,0,0,0,1.91-8.71c-5.94,1.22-9.15,6.47-9.15,10.43C614.11,887.23,615.55,889,617,889Z"/><path class="cls-7" d="M372.81,955.63,369,952c6.95-2.42,10-5.51,10-14.37v-1.36h-8.53v4.89c0,1.59.11,3.06.14,3.78h-5a28.59,28.59,0,0,0,.22-3.78v-4.89h-3.06c-1.8,0-3.09.07-3.89.14v-4.89a24.59,24.59,0,0,0,3.89.32h3.06v-3.56c0-1-.11-2.16-.22-3.24h5.12a21.5,21.5,0,0,0-.22,3.24v3.56H379v-3.78a23.36,23.36,0,0,0-.22-3.35h5.15a22.49,22.49,0,0,0-.25,3.35v3.78h2.66a21.34,21.34,0,0,0,4-.25v4.78c-.79-.07-2.05-.1-4-.1h-2.66v1.18C383.64,946.38,381.48,951.82,372.81,955.63Z"/><path class="cls-7" d="M398,950.48l-3.89-2.66a37,37,0,0,0,6.77-9.29l4.07,1.91A56.31,56.31,0,0,1,398,950.48Zm15.08-22.38V931h8.39a28.17,28.17,0,0,0,3.57-.26v4.72c-1.16-.07-2.56-.11-3.53-.11h-8.43v16.74c0,2.09-1.18,3.38-3.74,3.38a53.58,53.58,0,0,1-5.87-.32l-.43-4.47a24.84,24.84,0,0,0,4,.44c.93,0,1.29-.36,1.33-1.3,0-1.33,0-12.74,0-14.43v0H399.3c-1.08,0-2.48,0-3.49.14v-4.78a28.16,28.16,0,0,0,3.49.29h9.15V928.1a18.14,18.14,0,0,0-.33-3.14h5.33A29.88,29.88,0,0,0,413.12,928.1Zm13.5,19.79-4.24,2.31a68.38,68.38,0,0,0-5.84-9.65l3.93-2.12A84.73,84.73,0,0,1,426.62,947.89Zm-4-25.7a4.18,4.18,0,1,1-4.17,4.18A4.14,4.14,0,0,1,422.59,922.19Zm0,6.12a1.95,1.95,0,1,0,0-3.89,1.95,1.95,0,1,0,0,3.89Z"/><path class="cls-7" d="M437.82,936.91h19.33c1.69,0,3.28-.14,4.21-.21v5.65c-.86,0-2.7-.18-4.21-.18H437.82c-2.05,0-4.46.07-5.79.18V936.7C433.32,936.81,436,936.91,437.82,936.91Z"/><path class="cls-7" d="M476,929.21a25.19,25.19,0,0,0-.36-4.32h5.61a40.3,40.3,0,0,0-.32,4.32v5.33A117.69,117.69,0,0,1,496,940.12l-2.06,5a102.14,102.14,0,0,0-13-5.37v10.19c0,1,.18,3.56.32,5h-5.61a40.67,40.67,0,0,0,.36-5Z"/><path class="cls-7" d="M510.07,928.78a96.11,96.11,0,0,0-1.72,13.93,16.7,16.7,0,0,0,.14,2.34c.47-1.26,1.08-2.48,1.62-3.71l2.2,1.8c-1,3-2.16,6.62-2.6,8.57a10.83,10.83,0,0,0-.18,1.69c0,.36,0,1,.08,1.48l-4.07.32a42.1,42.1,0,0,1-1.44-11.52,115.27,115.27,0,0,1,1.47-15,33.58,33.58,0,0,0,.37-3.53l5,.44A23.27,23.27,0,0,0,510.07,928.78Zm18.18-1.26c0,.79-.07,2.12-.11,3.71a49,49,0,0,0,5.58-.83v4.5c-1.72.25-3.6.47-5.58.61.08,3.49.26,6.37.4,8.82a23.4,23.4,0,0,1,7,4.64L533,952.75a37.7,37.7,0,0,0-4.39-3.63c-.22,3.45-2.16,5.9-7,5.9s-8.06-2.09-8.06-5.87,3.09-6.15,8-6.15a15.83,15.83,0,0,1,2.34.14c-.08-2.23-.22-4.86-.26-7.41-.86,0-1.72,0-2.55,0-2.12,0-4.18-.07-6.3-.21v-4.29a58.88,58.88,0,0,0,6.3.33c.83,0,1.69,0,2.52,0,0-1.76,0-3.24,0-4a15.82,15.82,0,0,0-.25-2.38h5.15A23,23,0,0,0,528.25,927.52Zm-7.13,23.25c2.2,0,3-1.15,3-3.27v-.65a11.24,11.24,0,0,0-2.88-.4c-2.05,0-3.42.87-3.42,2.24S519.22,950.77,521.12,950.77Z"/><path class="cls-7" d="M545.64,932c0,2.34,0,5,.22,7.63.5,5.18,1.58,8.75,3.85,8.75,1.69,0,3.13-4.21,3.81-7.09l3.6,4.39c-2.37,6.26-4.64,8.46-7.52,8.46-4,0-7.38-3.57-8.39-13.21-.35-3.32-.39-7.53-.39-9.72a21.39,21.39,0,0,0-.29-3.67l5.54.07A29.24,29.24,0,0,0,545.64,932Zm25,15.08-4.71,1.84c-.58-5.8-2.49-14.55-6.41-19l4.57-1.47C567.49,932.59,570.23,941.59,570.62,947.1Z"/><path class="cls-7" d="M579.09,932.56c2.77-.87,10.11-3.46,15.37-3.46,6.51,0,11.62,3.75,11.62,10.41,0,8.17-7.77,13.39-20.44,14l-2.09-4.78c9.76-.26,17.39-3.06,17.39-9.33,0-3.38-2.34-6-6.66-6-5.3,0-13.83,3.6-17.57,5.22l-2.05-5C576,933.42,577.79,932.92,579.09,932.56Z"/><path class="cls-7" d="M630,926.8c0,.36,0,.9,0,1.48a76.86,76.86,0,0,0,9.11-1l0,4.14c-2.37.29-5.65.61-9.14.79v3.71c3.64-.18,6.7-.47,9.61-.86l0,4.25c-3.24.36-6.05.61-9.51.72.07,1.36.15,2.84.25,4.28a28.27,28.27,0,0,1,10.08,5.43l-2.59,4a27.62,27.62,0,0,0-7.27-5c0,.51,0,.94,0,1.33,0,3.06-2.34,5.44-7.09,5.44-5.76,0-8.79-2.2-8.79-6,0-3.64,3.35-6.19,8.89-6.19a20.62,20.62,0,0,1,2.24.11c-.08-1.12-.11-2.27-.15-3.35h-1.87c-2.09,0-6.19-.18-8.57-.47l0-4.25a63.88,63.88,0,0,0,8.67.69h1.73c0-1.19,0-2.49,0-3.71h-1.33a84.06,84.06,0,0,1-8.82-.65l-.1-4.1a67.41,67.41,0,0,0,8.89.79h1.4v-1.69a15,15,0,0,0-.21-2.49h4.85A25,25,0,0,0,630,926.8Zm-7.27,24.69c1.91,0,3.17-.54,3.17-2.63,0-.39,0-.9,0-1.54a19.14,19.14,0,0,0-3-.26c-2.56,0-4,1-4,2.24S620.23,951.49,622.72,951.49Z"/><path class="cls-7" d="M650.73,928.49c3-.25,9-.79,15.55-1.33,3.7-.32,7.63-.54,10.18-.65l0,4.61a38.51,38.51,0,0,0-7,.5,11,11,0,0,0-7.63,10.08c0,5.94,5.54,8.06,11.66,8.39L671.89,955c-7.56-.5-14.68-4.54-14.68-12.35a14.4,14.4,0,0,1,5.36-11.12c-3.38.36-10.73,1.15-14.9,2.05l-.47-4.93C648.64,928.64,650,928.56,650.73,928.49Zm23.5,11-2.73,1.23a28,28,0,0,0-2.81-5l2.66-1.11A43.79,43.79,0,0,1,674.23,939.54Zm4.18-1.76-2.7,1.29a32.15,32.15,0,0,0-3-4.86l2.62-1.22A54,54,0,0,1,678.41,937.78Z"/><path class="cls-7" d="M416.55,1002.51a33.24,33.24,0,0,1-2.13,9.29,18.13,18.13,0,0,0-3.13-1.52c1-2.12,1.55-5.32,1.84-8.35Zm4.17-2.92v14.91h-3.67V999.88l-5,.4-.44-3.71,2.6-.14c.54-.65,1.08-1.37,1.62-2.13a33.5,33.5,0,0,0-4.11-5l2.09-2.88c.25.26.54.51.83.76a44.22,44.22,0,0,0,2.59-6.23l3.71,1.3a81.17,81.17,0,0,1-4.07,7.34c.43.47.83,1,1.15,1.4a57.12,57.12,0,0,0,3.24-5.83l3.49,1.62c-2,3-4.42,6.59-6.69,9.47l3.13-.18c-.36-.79-.76-1.58-1.15-2.3l3-1.26a36.91,36.91,0,0,1,2.49,5.29v-3.39h19.76v7.13h-3.75v-3.81H429.11v3.81h-3.56v-1.08l-2.49,1.15c-.11-.61-.32-1.33-.54-2.12Zm3.31,2.2a26.3,26.3,0,0,1,1.84,6.33l-3.17,1a28.58,28.58,0,0,0-1.65-6.48Zm5.83-2.3h3.86v2.88c0,3.7-1,8.89-7.67,12.16a19.72,19.72,0,0,0-2.92-2.84c5.91-2.81,6.73-6.77,6.73-9.4Zm3.25-12.31h-7.46v-3.5h7.46v-2.8h4.24v2.8H445v3.5h-7.6v2.08h6.55v3.46H427v-3.46h6.16Zm8.81,23.36c.51,0,.69-.58.76-4.47a9.62,9.62,0,0,0,3.42,1.59c-.36,5.14-1.33,6.48-3.78,6.48H440c-3.06,0-3.71-1.16-3.71-4.72v-9.93h3.85v9.93c0,1,.07,1.12.54,1.12Z"/><path class="cls-7" d="M466.19,993.37c-.18-.44-.33-.87-.47-1.26-.29-.83-.5-1.52-.72-2.13a84.4,84.4,0,0,1-12.13-.32l-.25-4.14a75.11,75.11,0,0,0,11.27.54c-.37-1.15-.72-2.3-1.16-3.56l4.83-.54c.18,1.29.39,2.55.64,3.78a42,42,0,0,0,7.1-1.55l.57,4.14a53.73,53.73,0,0,1-6.62,1.33c.18.57.36,1.15.54,1.69s.39,1,.61,1.62a46.51,46.51,0,0,0,6.88-1.44l.72,4.25a47.3,47.3,0,0,1-5.76,1.11,31.65,31.65,0,0,0,1.87,3.21,11,11,0,0,0,1.62,1.83l-2.2,3.32c-2-.4-5.9-.87-8.53-1.16l.36-3.42,4.54.44a41.94,41.94,0,0,1-2-3.75,134.23,134.23,0,0,1-15.66,0l-.25-4.25A93,93,0,0,0,466.19,993.37Zm-8.89,12c0,2.67,2.52,3.75,7.27,3.75a47.61,47.61,0,0,0,9-.79l-.25,4.57a55.46,55.46,0,0,1-8.74.68c-7.2,0-11.67-2.12-11.74-7.27a11.92,11.92,0,0,1,1.55-5.79l4.46.86A6.79,6.79,0,0,0,457.3,1005.42Z"/><path class="cls-7" d="M504,984.8c0,.36,0,.9,0,1.48a76.86,76.86,0,0,0,9.11-1l0,4.14c-2.37.29-5.65.61-9.14.79v3.71c3.64-.18,6.7-.47,9.61-.86l0,4.25c-3.24.36-6.05.61-9.51.72.07,1.36.15,2.84.25,4.28a28.27,28.27,0,0,1,10.08,5.43l-2.59,4a27.62,27.62,0,0,0-7.27-5c0,.51,0,.94,0,1.33,0,3.06-2.34,5.44-7.09,5.44-5.76,0-8.79-2.2-8.79-6,0-3.64,3.35-6.19,8.89-6.19a20.62,20.62,0,0,1,2.24.11c-.08-1.12-.11-2.27-.15-3.35h-1.87c-2.09,0-6.19-.18-8.57-.47l0-4.25a63.88,63.88,0,0,0,8.67.69h1.73c0-1.19,0-2.49,0-3.71h-1.33a84.06,84.06,0,0,1-8.82-.65l-.1-4.1a67.41,67.41,0,0,0,8.89.79h1.4v-1.69a15,15,0,0,0-.21-2.49h4.85A25,25,0,0,0,504,984.8Zm-7.27,24.69c1.91,0,3.17-.54,3.17-2.63,0-.39,0-.9,0-1.54a19.14,19.14,0,0,0-3-.26c-2.56,0-4,1-4,2.24S494.23,1009.49,496.72,1009.49Z"/><path class="cls-7" d="M542,985.45c0,.29,0,.68,0,1.11,3.64,0,8.57-.07,10.44,0l0,4.24c-2.16-.1-5.51-.18-10.41-.18,0,1.84,0,3.82,0,5.4a9.21,9.21,0,0,1,1.29,4.94c0,4.67-2.73,10.65-11.51,13.1l-3.86-3.82c3.64-.75,6.81-1.94,8.79-4.1a7.66,7.66,0,0,1-1.62.18,6.35,6.35,0,0,1-6.19-6.62c0-4.07,3.27-6.74,7.19-6.74a9.69,9.69,0,0,1,1.45.11c0-.79,0-1.62,0-2.41-5.44.07-11.05.29-15.48.54l-.11-4.35c4.11,0,10.66-.15,15.55-.22,0-.47,0-.83-.07-1.12a26.19,26.19,0,0,0-.36-3.13h5.22C542.15,982.93,542,984.87,542,985.45Zm-6,16.84c1.51,0,2.84-1.15,2.34-4.32a2.68,2.68,0,0,0-2.34-1.26,2.79,2.79,0,0,0,0,5.58Z"/><path class="cls-7" d="M570.7,985.92c-.25,1.08-.51,2.41-.76,3.7,1.19-.07,2.27-.14,3-.14,3.81,0,6.51,1.69,6.51,6.87,0,4.25-.5,10.08-2.05,13.21-1.19,2.52-3.2,3.32-5.91,3.32a23.34,23.34,0,0,1-4.31-.51l-.8-4.75a21,21,0,0,0,4.43.76,2.66,2.66,0,0,0,2.7-1.55c1-2.05,1.44-6.41,1.44-10,0-2.88-1.22-3.28-3.49-3.28-.58,0-1.48.07-2.48.15-1.37,5.47-4,14-7.35,19.29l-4.68-1.87c3.5-4.72,6-12,7.27-16.92-1.29.14-2.41.29-3.09.36-1,.18-2.92.43-4,.61l-.43-4.89a35.32,35.32,0,0,0,3.85,0c1.12,0,2.81-.15,4.65-.29a39.86,39.86,0,0,0,.75-7.63l5.37.54C571.13,983.86,570.88,985,570.7,985.92Zm19.36,13.78-4.57,2.13c-.93-4-3.49-10.52-6-13.68l4.29-1.84C586,989.41,589,996.28,590.06,999.7Z"/><path class="cls-7" d="M612.85,991.67c0-2.15-1.73-3.38-4.53-3.38a7.63,7.63,0,0,0-5.76,2.84l-2.95-2.73a12,12,0,0,1,9.28-4.39c5.22,0,9,2.41,9,7.2,0,5.29-7.85,5.9-7.31,10.9H606C605.22,996.46,612.85,995.17,612.85,991.67Zm-7.7,16.85a3.17,3.17,0,1,1,3.17,3.17A3.07,3.07,0,0,1,605.15,1008.52Z"/><path class="cls-1" d="M637.8,1424.78H111.65a36.54,36.54,0,0,1,0-73.08H637.8a36.54,36.54,0,1,1,0,73.08Z"/><polygon class="cls-1" points="334.13 1405.29 374.73 1446.7 415.32 1405.29 334.13 1405.29"/><ellipse class="cls-2" cx="535.99" cy="1625.39" rx="212.01" ry="139.42"/><circle class="cls-2" cx="574.06" cy="1822.73" r="21.68"/><circle class="cls-2" cx="616.11" cy="1756.32" r="32.81"/><circle class="cls-2" cx="527.4" cy="1861.87" r="16.26"/><circle class="cls-2" cx="481.79" cy="1885.4" r="9.98"/><path class="cls-5" d="M273.91,1559.35c-14.83-29.66-48.4-46.45-68.69-29.27-31.23-15.61-64.66,24.49-58.67,67.05a7.79,7.79,0,0,1,9.09,2.42c3.18,4.49,1.18,16.79,1.18,16.79l12.1-16.4s31.22,7.81,44.49-28.88c0,0,10.15,35.13,35.91,41.37a115.7,115.7,0,0,0,16,15.62s-4.17,7.85-9.93,17.75C292.4,1638,288.32,1588.17,273.91,1559.35Z"/><path d="M255.39,1648.45a2.64,2.64,0,0,1-2.28-4c4-6.89,7.26-12.83,8.85-15.75a119.74,119.74,0,0,1-14.12-14c-19.6-5.26-30.28-25.73-34.63-36.43-12.94,26.74-36.49,25.44-43.14,24.48l-11.13,15.07a2.64,2.64,0,0,1-4.73-2c.75-4.66,1-12.35-.72-14.83a5.17,5.17,0,0,0-6-1.47,2.67,2.67,0,0,1-2.27-.21,2.63,2.63,0,0,1-1.26-1.9c-3.6-25.58,6.76-52.7,25.2-66,11.37-8.18,24-9.77,35.71-4.56,7.64-5.81,17.14-7.75,27.57-5.61,17.23,3.54,34.44,18,43.85,36.8h0c9.66,19.31,15.51,49.52,5.53,70.2-5.19,10.76-13.89,17.49-25.87,20A2.48,2.48,0,0,1,255.39,1648.45Zm-42-80h.09a2.65,2.65,0,0,1,2.45,1.91c.1.33,10.05,33.73,34,39.54a2.67,2.67,0,0,1,1.43.89A112.49,112.49,0,0,0,267,1626a2.63,2.63,0,0,1,.7,3.32c0,.06-2.7,5.08-6.67,12.07A29.86,29.86,0,0,0,277,1626.08c8.8-18.23,3.9-46.77-5.49-65.55h0c-8.71-17.42-24.49-30.76-40.19-34-9.41-1.93-17.87,0-24.44,5.55a2.66,2.66,0,0,1-2.89.35c-10.31-5.16-21.6-4-31.8,3.39-16.25,11.69-25.64,35.27-23.4,58.14a10,10,0,0,1,9,4.06c1.65,2.32,2.2,6,2.29,9.42l6.7-9.08a2.65,2.65,0,0,1,2.77-1c1.17.28,29.1,6.69,41.37-27.22A2.63,2.63,0,0,1,213.41,1568.42Z"/><path class="cls-4" d="M249.32,1612.43c-25.76-6.24-35.91-41.37-35.91-41.37-13.27,36.69-44.49,28.88-44.49,28.88l-12.1,16.4s2-12.3-1.18-16.79a7.79,7.79,0,0,0-9.09-2.42c-2.79,1-5.53,3.59-7.3,8.28-3.17,7.66-5.07,26.54,3.9,30.44l-8.19,16.4c9.37,32,35.91,55,35.91,55,6.24-1.56,12.1-8.2,12.1-8.2,16.78,8.2,36.69-4.68,49.57-19.12,7-7.83,16-22.43,22.85-34.16,5.76-9.9,9.93-17.75,9.93-17.75A115.7,115.7,0,0,1,249.32,1612.43Z"/><path d="M170.87,1709.92a2.59,2.59,0,0,1-1.73-.65c-1.11-1-27.24-23.9-36.72-56.28a2.69,2.69,0,0,1,.18-1.93l7.11-14.22c-8.48-6.76-5.71-25.65-2.9-32.44,2.34-6.22,6.1-8.74,8.83-9.75A10.38,10.38,0,0,1,157.8,1598c1.65,2.32,2.2,6,2.29,9.42l6.7-9.08a2.65,2.65,0,0,1,2.77-1c1.17.28,29.1,6.69,41.37-27.22a2.71,2.71,0,0,1,2.57-1.74,2.65,2.65,0,0,1,2.45,1.91c.1.33,10.05,33.73,34,39.54a2.67,2.67,0,0,1,1.43.89A112.49,112.49,0,0,0,267,1626a2.63,2.63,0,0,1,.7,3.32c0,.07-4.26,8-10,17.84-6.57,11.3-15.93,26.47-23.16,34.59-13.22,14.81-33.32,27.67-50.93,20.53-2.24,2.2-7,6.31-12.07,7.59A2.8,2.8,0,0,1,170.87,1709.92Zm-33.08-57.43c8.18,26.76,28.8,47.2,33.74,51.82,4.89-1.86,9.41-6.92,9.46-7a2.66,2.66,0,0,1,3.14-.62c15.37,7.51,34.06-4.64,46.44-18.51,6.94-7.78,16.09-22.64,22.54-33.72,4-6.89,7.26-12.83,8.85-15.75a119.74,119.74,0,0,1-14.12-14c-19.61-5.26-30.29-25.75-34.63-36.44-11.44,23.5-31.93,26.57-43.18,24.54l-11.09,15a2.64,2.64,0,0,1-4.73-2c.75-4.66,1-12.35-.72-14.83a5.17,5.17,0,0,0-6-1.47c-1.7.62-4.08,2.3-5.75,6.73-3.14,7.6-4.22,24.17,2.49,27.09a2.64,2.64,0,0,1,1.31,3.6Z"/><path class="cls-4" d="M170.87,1707.28s-26.54-23-35.91-55l-5.56,9.17s-16.69,65.28,13.75,213.7c0,0,55.44-54.38,50.51-173.5a25,25,0,0,1-10.69-2.54S177.11,1705.72,170.87,1707.28Z"/><path d="M143.15,1877.76a2.66,2.66,0,0,1-2.58-2.11c-30.22-147.32-14.42-212.2-13.73-214.89a2.34,2.34,0,0,1,.3-.71l5.56-9.17a2.64,2.64,0,0,1,4.79.62c8,27.25,29,48.14,34,52.81,4.89-1.86,9.41-6.92,9.46-7a2.66,2.66,0,0,1,3.14-.62,22.46,22.46,0,0,0,9.58,2.27,2.65,2.65,0,0,1,2.59,2.54c2.57,62.06-11.44,106.38-23.65,132.63-13.29,28.59-27.07,42.28-27.65,42.85A2.64,2.64,0,0,1,143.15,1877.76Zm-11.28-215.33c-1.22,5.37-14.58,70.2,12.82,207,11.76-14.12,49.82-67.64,46.42-165.31a27.45,27.45,0,0,1-7.52-1.86c-2.25,2.2-7,6.31-12.08,7.59a2.62,2.62,0,0,1-2.37-.57c-1-.9-24.29-21.31-34.91-50.74Z"/><path class="cls-10" d="M253.22,1705.91c-4.94-12.74-8.05-23.16-18.11-29-.88,1.1-1.74,2.14-2.57,3.07-10.23,11.46-24.88,21.93-38.88,21.66,4.93,119.12-50.51,173.5-50.51,173.5-30.44-148.42-13.75-213.7-13.75-213.7l2.19-3.63c-6.82,1.7-60.34,15.08-84.16,24.12C22,1691.57,19,1715,17.28,1742.8s-.29,94,3.51,121.48,12.3,38.35,30.74,38.35H200.24s1.46-52.1,20.2-127.34l30.44,72,28.1-68.5S258.79,1720.26,253.22,1705.91Z"/><path d="M200.24,1905.27H51.53c-19.7,0-29.36-11.77-33.35-40.63-3.83-27.67-5.29-94.31-3.54-122,1.88-29.67,5.41-53.16,31.85-63.19,24-9.11,78.35-22.69,84.47-24.21a2.64,2.64,0,0,1,2.89,3.93l-2,3.27c-1.22,5.37-14.58,70.2,12.82,207,11.85-14.23,50.43-68.51,46.33-167.69a2.67,2.67,0,0,1,.75-2,2.49,2.49,0,0,1,1.94-.8c11.26.21,25.06-7.55,36.86-20.78.8-.9,1.63-1.89,2.47-3a2.65,2.65,0,0,1,3.4-.63c9.88,5.75,13.57,15.45,17.84,26.67.45,1.2.92,2.43,1.41,3.68h0c5.51,14.23,25.59,72.4,25.79,73a2.68,2.68,0,0,1-.05,1.87l-28.1,68.5a2.67,2.67,0,0,1-2.43,1.64h0a2.64,2.64,0,0,1-2.43-1.62l-27.34-64.66c-16.67,69.92-18.22,118.54-18.23,119A2.64,2.64,0,0,1,200.24,1905.27Zm-73.64-243.5c-15.85,4-58,15-78.23,22.61-23.54,8.93-26.65,29.91-28.46,58.59-1.73,27.47-.29,93.54,3.5,121C27,1890.21,34.67,1900,51.53,1900H197.71c.58-11.43,3.89-60,20.16-125.34a2.65,2.65,0,0,1,5-.39l28,66.18,25.31-61.72c-2.62-7.59-20.3-58.71-25.4-71.85-.49-1.26-1-2.5-1.42-3.71-3.75-9.86-6.78-17.81-13.68-22.77l-1.15,1.33c-11.89,13.33-25.92,21.55-38.11,22.46,2.06,60.67-11.72,104.1-23.75,130-13.29,28.59-27.07,42.28-27.65,42.85a2.64,2.64,0,0,1-4.43-1.35C112,1736.4,124.56,1670.81,126.6,1661.77Z"/><path d="M189.7,1735.78a2.63,2.63,0,0,1-2.35-1.45c-7-13.7-14-21.16-16.84-23.83-4.14,2.4-16,9.92-29.56,23.89a2.63,2.63,0,0,1-2.23.78,2.6,2.6,0,0,1-2-1.32,139.84,139.84,0,0,1-10.47-24.23,2.64,2.64,0,1,1,5-1.56,133.32,133.32,0,0,0,8.37,20.08c16.23-16.11,29.39-22.92,30-23.21a2.64,2.64,0,0,1,2.83.27c.4.32,10,8,19.55,26.74a2.64,2.64,0,0,1-2.35,3.84Z"/><path d="M125.59,1857a1.77,1.77,0,0,1-1.59-1c-35.74-76.13-39.07-135.61-39.1-136.2a1.76,1.76,0,0,1,1.07-1.71l21-8.85-16.76-9.36a1.78,1.78,0,0,1-.87-1.18,1.8,1.8,0,0,1,.32-1.42L109,1671.77a1.76,1.76,0,1,1,2.8,2.13l-18.1,23.85,18.14,10.14a1.76,1.76,0,0,1-.17,3.16l-23.14,9.76c.67,8.82,6.07,64.19,38.68,133.65a1.75,1.75,0,0,1-.84,2.34A1.68,1.68,0,0,1,125.59,1857Z"/><path d="M167.45,1852.87a1.73,1.73,0,0,1-1.07-.36,1.75,1.75,0,0,1-.33-2.46c45-59.15,52-116.92,52.83-125.57L202,1715.37a1.76,1.76,0,0,1,0-3.1l13.38-7.34-4.13-7.54a1.76,1.76,0,0,1,3.09-1.69l5,9.07a1.77,1.77,0,0,1-.7,2.39l-12.1,6.65,15,8.12a1.77,1.77,0,0,1,.92,1.66c0,.63-4.41,63.92-53.64,128.59A1.76,1.76,0,0,1,167.45,1852.87Z"/><path d="M220.44,1777.93a2.54,2.54,0,0,1-.61-.07,2.63,2.63,0,0,1-2-3.17c3.8-16.1,11.78-36.4,12.11-37.25a2.64,2.64,0,0,1,4.92,1.94c-.08.2-8.18,20.79-11.89,36.52A2.64,2.64,0,0,1,220.44,1777.93Z"/><path class="cls-3" d="M170.06,1833.44c.47-17.58,1-60.5-3.78-91.23,0,0,10.83-9.71,13.91-24.58-5.34-7.21-9.32-10.35-9.32-10.35s-7.56,3.87-18.23,12.69c.73,4.8,2.47,14.59,5.44,22.24,0,0-12.49,34.17-24.15,81.8,2.44,15.8,5.47,32.82,9.22,51.11C143.15,1875.12,156.88,1861.64,170.06,1833.44Z"/><path d="M143.15,1877.76a2.66,2.66,0,0,1-2.58-2.11c-3.59-17.47-6.7-34.71-9.25-51.24a2.56,2.56,0,0,1,.05-1c10.5-42.91,21.83-75.33,23.9-81.14a121.23,121.23,0,0,1-5.24-21.87,2.62,2.62,0,0,1,.93-2.43c10.77-8.9,18.38-12.85,18.7-13a2.64,2.64,0,0,1,2.84.28c.18.13,4.32,3.44,9.81,10.84a2.65,2.65,0,0,1,.47,2.11c-2.68,12.92-10.76,22-13.68,25,4.6,30.93,4.06,73.37,3.6,90.36a2.61,2.61,0,0,1-.25,1c-13.23,28.3-26.87,41.87-27.45,42.43A2.64,2.64,0,0,1,143.15,1877.76Zm-6.53-53.63c2.27,14.65,5,29.87,8.08,45.31,4.78-5.69,13.89-17.82,22.73-36.62.46-17.45.95-59.93-3.76-90.2a2.62,2.62,0,0,1,.85-2.37c.09-.09,9.67-8.85,12.83-22a64.43,64.43,0,0,0-6.84-7.74,122.84,122.84,0,0,0-15,10.56c.84,5.19,2.47,13.55,5.06,20.19a2.62,2.62,0,0,1,0,1.87C160.44,1743.46,148.07,1777.47,136.62,1824.13Zm33.44,9.32h0Z"/><path d="M51.53,1905.27a2.64,2.64,0,0,1-.25-5.27c15.2-1.43,64.81-11.28,65.31-11.38a2.65,2.65,0,0,1,1,5.19c-2.05.4-50.37,10-65.84,11.45Z"/><path d="M72.61,1850.53a2.66,2.66,0,0,1-1.74-.65A2.63,2.63,0,0,1,70,1848c0-.38-1.17-38.58-.59-79.45a2.64,2.64,0,1,1,5.28.08c-.49,34.31.25,66.75.51,76.36l51-5.55a2.64,2.64,0,0,1,.57,5.25l-53.86,5.86Z"/><path d="M67.63,1755.39a1.75,1.75,0,0,1-1.55-.92c-.11-.21-11.5-21.15-23.85-37.24a1.76,1.76,0,1,1,2.79-2.14c12.53,16.31,24,37.49,24.16,37.7a1.77,1.77,0,0,1-.71,2.39A1.83,1.83,0,0,1,67.63,1755.39Z"/><path d="M40.11,1869.85a1.69,1.69,0,0,1-.58-.1,1.75,1.75,0,0,1-1.08-2.24c4.27-12.19,18.62-20.51,19.23-20.85a1.76,1.76,0,1,1,1.75,3c-.14.08-13.83,8-17.66,19A1.75,1.75,0,0,1,40.11,1869.85Z"/><path class="cls-4" d="M127.93,1887.41s13.76,1.46,22.84-5.42,24.29-11.27,24.29-11.27l-6.58-6.14-28,.44Z"/><path d="M131.15,1890.19c-2,0-3.32-.13-3.5-.15a2.65,2.65,0,0,1-2-3.92l12.59-22.4a2.62,2.62,0,0,1,2.26-1.34l28-.44a2.63,2.63,0,0,1,1.84.71l6.59,6.14a2.66,2.66,0,0,1,.76,2.55,2.64,2.64,0,0,1-1.83,1.92c-.15,0-14.87,4.34-23.44,10.84C145.39,1889.38,136.13,1890.19,131.15,1890.19Zm10.93-22.56-9.69,17.24c4.45-.13,11.57-1,16.78-5,6.39-4.84,15.48-8.44,20.81-10.3l-2.53-2.35Z"/><path class="cls-4" d="M233.32,1827s-6.88,11-8.93,14.93a7.8,7.8,0,0,0,3.07,10.39c3.52,2.2,12.59,5.86,12.59,5.86Z"/><path d="M240.05,1860.78a2.85,2.85,0,0,1-1-.19c-.38-.16-9.33-3.77-13-6.07a10.43,10.43,0,0,1-4-13.85c2.07-4,8.75-14.66,9-15.11a2.64,2.64,0,0,1,4.82.84l6.73,31.18a2.63,2.63,0,0,1-.88,2.58A2.68,2.68,0,0,1,240.05,1860.78Zm-7.93-26.86c-2,3.29-4.35,7.2-5.39,9.19a5.21,5.21,0,0,0,2.13,6.93,69.4,69.4,0,0,0,7.54,3.69Z"/><path class="cls-4" d="M100.42,1872.19c-.52,13.45,8.63,21.81,21.07,18.59s25.32-22.4,25.32-22.4l18.89-.29s11.85,9.37,16.39,12.59,9.22.58,8.63-4.69c0,0,2.49,2.49,7.18,6.3s11.27,2.34,10.24-3.66c4.25.88,6.59-3.22,2.93-7.91s-15.95-19.17-15.95-19.17l-9.37-5.12,7.76-.59s15.36,10.1,22.1,14.05,12.29-1.61,7-6.29-16.83-13-20-15.66-5.42-5.12-14.2-5.12-37,2.34-58.11,7.17S101,1856.82,100.42,1872.19Z"/><path d="M116.31,1894.11a17.74,17.74,0,0,1-11.31-3.85c-5-4-7.52-10.44-7.22-18.17h0c.69-18.32,11.43-30,31.9-34.68,20.74-4.75,49.24-7.24,58.7-7.24,9,0,12.13,2.6,15.12,5.1l.75.62c1.09.89,3.24,2.52,5.73,4.4,4.86,3.66,10.9,8.22,14.41,11.34s3.53,7,1.82,9.39c-2.07,2.84-6.83,4.15-11.94,1.15-3.58-2.1-9.48-5.86-14.3-9,3.87,4.58,10.59,12.58,13.18,15.9s3.07,6.85,1.45,9.47a5.94,5.94,0,0,1-3.83,2.66,6.69,6.69,0,0,1-3.25,4.74c-3.23,1.88-7.77,1.23-11.29-1.63-1.51-1.23-2.8-2.33-3.86-3.25a7.05,7.05,0,0,1-2.59,2.64c-2.72,1.6-6.17,1.27-9.22-.9-3.93-2.79-13.08-10-15.76-12.08l-16.59.25c-3.1,4.34-14.49,19.34-26.06,22.33A23.24,23.24,0,0,1,116.31,1894.11Zm-13.26-21.82c-.22,6,1.64,11,5.26,13.86,3.22,2.59,7.67,3.33,12.52,2.07,11.34-2.93,23.67-21.13,23.79-21.31a2.66,2.66,0,0,1,2.15-1.17l18.88-.29a2.73,2.73,0,0,1,1.68.57c.12.09,11.86,9.36,16.29,12.5,1.3.93,2.6,1.17,3.48.66s1.15-1.52,1-2.89a2.64,2.64,0,0,1,4.49-2.16s2.47,2.45,7,6.11c2,1.61,4.21,1.8,5.29,1.17.25-.14,1-.58.69-2.34a2.65,2.65,0,0,1,3.14-3c.54.12,1.2.11,1.43-.26s.21-1.73-1.12-3.43c-3.26-4.17-13.62-16.42-15.57-18.72l-8.94-4.89a2.64,2.64,0,0,1,1.07-5l7.76-.58a2.63,2.63,0,0,1,1.65.42c.15.11,15.39,10.11,22,14,2.5,1.47,4.46,1.05,5,.31s-.29-1.66-1.06-2.35c-3.35-3-9.3-7.46-14.08-11.07-2.54-1.91-4.73-3.56-5.89-4.52l-.8-.66c-2.68-2.24-4.62-3.86-11.73-3.86-9.25,0-37.16,2.44-57.52,7.1-18.1,4.15-27.2,13.88-27.81,29.73Z"/><path d="M189.39,1877.14s-9.8-11.4-13-15.06c-3-3.36-5.51-4.31-8.42-4.69-2.65-.34-13.8-.1-17.87,0a1.76,1.76,0,1,1-.11-3.52c.61,0,15-.44,18.43,0a16,16,0,0,1,10.61,5.85c3.22,3.67,13,15.1,13,15.1Z"/><path d="M208.14,1880.39a1.77,1.77,0,0,1-1.33-.61c-.59-.68-14.53-16.74-17.3-20.08a19.31,19.31,0,0,0-8-5.65c-2.13-.9-14.8-4.85-21.2-6.82a1.76,1.76,0,1,1,1-3.36c.76.23,18.71,5.74,21.54,6.94a22.85,22.85,0,0,1,9.31,6.64c2.73,3.32,17.1,19.86,17.24,20a1.76,1.76,0,0,1-1.33,2.92Z"/><path d="M185.75,1848.19a1.77,1.77,0,0,1-.88-.24c-5.74-3.3-14-7.37-14.1-7.41a1.76,1.76,0,0,1,1.56-3.16c.08,0,8.46,4.16,14.3,7.52a1.77,1.77,0,0,1-.88,3.29Z"/><path class="cls-4" d="M261.42,1821.11a183,183,0,0,0-20.34-2.79c-8.35-.43-8.93,6.3-8.49,13.62s7.31,31.76,7.31,31.76Z"/><path d="M239.91,1866.34h-.26a2.67,2.67,0,0,1-2.29-1.92c-.28-1-7-24.8-7.41-32.32-.31-5.22-.16-10.5,3.06-13.74,1.94-1.95,4.68-2.85,8.2-2.66a185.65,185.65,0,0,1,20.72,2.82,2.66,2.66,0,0,1,1.85,3.79l-21.52,42.59A2.65,2.65,0,0,1,239.91,1866.34Zm.4-45.4a4.82,4.82,0,0,0-3.55,1.13c-1.77,1.78-1.75,6.12-1.54,9.71.28,4.64,3.38,16.89,5.43,24.59l16.82-33.3a161,161,0,0,0-16.53-2.11Z"/><path d="M248.25,1851.26a1.75,1.75,0,0,1-1.74-1.49L243,1827.08a1.76,1.76,0,0,1,3.48-.54l3.52,22.69a1.77,1.77,0,0,1-1.47,2Z"/><path d="M183,1701.73a2.8,2.8,0,0,1-1-.19c-12.21-4.89-22.27-17.89-30.76-39.75a2.64,2.64,0,1,1,4.93-1.91c7.92,20.42,17,32.44,27.79,36.75a2.65,2.65,0,0,1-1,5.1Z"/><path d="M215.36,1663.57a1.47,1.47,0,0,1-.36,0l-7.42-1.56a1.76,1.76,0,0,1,.73-3.45l7.42,1.57a1.76,1.76,0,0,1-.37,3.48Z"/><path d="M212,1679.18a1.79,1.79,0,0,1-1.07-.36c-9.32-7.17-24-2.69-24.16-2.65a1.76,1.76,0,1,1-1.05-3.36c.67-.21,16.61-5.06,27.36,3.22a1.75,1.75,0,0,1,.32,2.46A1.77,1.77,0,0,1,212,1679.18Z"/><path d="M200.92,1683.67h-.08l-8.39-.39a1.77,1.77,0,0,1-1.68-1.84,1.83,1.83,0,0,1,1.84-1.68l8.39.39a1.76,1.76,0,0,1-.08,3.52Z"/><path d="M197.74,1620a35.77,35.77,0,0,1-8.15-1,1.76,1.76,0,0,1,.8-3.43c11.58,2.71,19.5-1.9,19.58-1.94a1.76,1.76,0,0,1,1.82,3A28.87,28.87,0,0,1,197.74,1620Z"/><path d="M254.79,1635.66h-.24c-10.84-1.49-15.27-12.15-15.45-12.6a1.77,1.77,0,1,1,3.27-1.33h0c0,.1,3.86,9.23,12.65,10.44a1.76,1.76,0,0,1-.23,3.5Z"/><path d="M249.32,1615.07a2.65,2.65,0,0,1-2-.89c-7.81-8.83-10.27-21.6-10.37-22.14a2.64,2.64,0,0,1,5.19-1c0,.12,2.31,11.9,9.14,19.62a2.64,2.64,0,0,1-.23,3.73A2.6,2.6,0,0,1,249.32,1615.07Z"/><path class="cls-4" d="M263.37,1579.65a1.75,1.75,0,0,1-1.74-1.51c-2-14.32-13.68-23.76-13.79-23.85a1.76,1.76,0,1,1,2.19-2.76c.52.42,12.87,10.38,15.09,26.11a1.76,1.76,0,0,1-1.5,2A1.06,1.06,0,0,1,263.37,1579.65Z"/><ellipse cx="196.79" cy="1632.15" rx="5.1" ry="3.91" transform="translate(-1344.22 1059.51) rotate(-62.74)"/><ellipse cx="241.87" cy="1641.37" rx="5.1" ry="3.91" transform="translate(-1327.99 1104.58) rotate(-62.74)"/><rect class="cls-4" x="121.49" y="1891.9" width="280.05" height="10.73"/><path d="M401.54,1905.27h-280a2.64,2.64,0,0,1-2.64-2.64V1891.9a2.64,2.64,0,0,1,2.64-2.64H401.54a2.64,2.64,0,0,1,2.64,2.64v10.73A2.64,2.64,0,0,1,401.54,1905.27ZM124.13,1900H398.9v-5.45H124.13Z"/><path d="M229.42,1904.39a1.76,1.76,0,0,1-1.77-1.76V1891.9a1.77,1.77,0,0,1,3.53,0v10.73A1.76,1.76,0,0,1,229.42,1904.39Z"/><path class="cls-4" d="M283.31,1744.36H450a6.64,6.64,0,0,1,6.27,8.83l-46.89,134.26a6.64,6.64,0,0,1-6.26,4.45H236.42a6.64,6.64,0,0,1-6.27-8.83L277,1748.81A6.63,6.63,0,0,1,283.31,1744.36Z"/><path d="M403.08,1894.54H236.42a9.29,9.29,0,0,1-8.76-12.34l46.89-134.26a9.29,9.29,0,0,1,8.76-6.22H450a9.28,9.28,0,0,1,8.76,12.34l-46.88,134.26A9.29,9.29,0,0,1,403.08,1894.54ZM283.31,1747a4,4,0,0,0-3.78,2.68l-46.88,134.26a4,4,0,0,0,3.77,5.32H403.08a4,4,0,0,0,3.77-2.68l46.89-134.26A4,4,0,0,0,450,1747Z"/><path d="M431.21,1905.27H2.64a2.64,2.64,0,0,1,0-5.28H431.21a2.64,2.64,0,1,1,0,5.28Z"/><path class="cls-4" d="M225.77,1396.18c1.56,2.68,4.32,3.8,8.39,4,4.76.2,14.24.08,19.72-.36a19.66,19.66,0,0,0-1.48,4.64c-4.92.24-13.4.32-18.27.12s-8-1.36-10.36-4.44c-1.84,1.56-3.72,3.12-6,4.8l-2.2-4.76a55.06,55.06,0,0,0,5.6-3.64v-8.72h-5.08v-4.36h9.64Zm-2.36-17.88a32.47,32.47,0,0,0-6.68-6.52l3.28-3a34.26,34.26,0,0,1,7,6.16Zm10.24,20.2h-4.48v-20.6h9c-1.8-.84-3.72-1.64-5.35-2.28l3.07-2.56c1.4.52,3.08,1.16,4.72,1.88a37,37,0,0,0,3.2-2.12H229.53v-3.6h18.35l.92-.24,2.84,2.28a45.53,45.53,0,0,1-7.12,5.4c.88.44,1.72.84,2.4,1.24h4.84v16.48c0,1.92-.36,2.92-1.64,3.56s-3,.68-5.4.68a13,13,0,0,0-1.16-3.72c1.24,0,2.64,0,3,0s.6-.2.6-.6v-1.84h-4.72v5.84h-4.24v-5.84h-4.59Zm0-17.16v2.16h4.59v-2.16Zm4.59,7.72v-2.24h-4.59v2.24Zm9-7.72h-4.72v2.16h4.72Zm0,7.72v-2.24h-4.72v2.24Z"/><path class="cls-4" d="M269.37,1369.42a64.87,64.87,0,0,1-3.72,7.72v28h-4.52V1384a39,39,0,0,1-3.32,3.76,30.82,30.82,0,0,0-2.48-4.84,42.56,42.56,0,0,0,9.64-15Zm24.11,5.72V1379H267.89v-3.84Zm-23.07,17.16h20.87v12.8h-4.8v-1.48H275v1.6h-4.55Zm20.31-7.68H271.05v-3.68h19.67Zm-19.67,2h19.51v3.72H271.05ZM290,1373.18H271.69v-3.72H290ZM275,1396v3.92h11.52V1396Z"/><path class="cls-4" d="M305.41,1381.34a46.18,46.18,0,0,1-6.76,4,18.58,18.58,0,0,0-2.8-4c6.8-3,13.16-8.68,16.16-13.4H317a36.59,36.59,0,0,0,16.92,12.68,24.66,24.66,0,0,0-3.08,4.36,48.34,48.34,0,0,1-6.72-3.88v3.16H305.41Zm-7.08,6.24H331.4v4.4H313.48c-1.15,2.36-2.47,4.84-3.67,7.08,3.84-.12,7.95-.28,12-.44a47.68,47.68,0,0,0-3.92-4.08l4.2-2.2a53.8,53.8,0,0,1,9.16,10.28l-4.44,2.68a21.21,21.21,0,0,0-1.6-2.48c-9.4.52-19.27.92-26.07,1.24l-.64-4.64,6-.2a76.81,76.81,0,0,0,3-7.24h-9.28Zm24-7.68a38.93,38.93,0,0,1-7.68-7.4,36.28,36.28,0,0,1-7.31,7.4Z"/><path class="cls-4" d="M350.85,1394.38c-.84-1.12-2.2-2.72-3.56-4.2v15.08h-4.72v-13.8a33.1,33.1,0,0,1-5,3.84,19.07,19.07,0,0,0-2.24-4.52,29.88,29.88,0,0,0,11.16-11.16h-9.64v-4.32h5.68v-7.36h4.72v7.36h1.8l.84-.2,2.68,1.72a38.82,38.82,0,0,1-4.72,8.56c1.92,1.56,5,4.32,5.83,5.12Zm22.91,5.08v4.64H351.13v-4.64h9.23v-14.64h-7.59v-4.6h7.59v-12h4.88v12h7.56v4.6h-7.56v14.64Z"/><path class="cls-4" d="M379.61,1386.74c1.84-1.92,4.92-6,7.4-8.92,2.8-3.16,5.39-3.44,8.31-.6,2.72,2.64,5.92,6.76,8.28,9.32,2.56,2.8,6,6.4,9.76,9.8l-4.12,4.8c-2.88-2.72-6.28-6.6-8.8-9.56s-5.48-6.76-7.36-8.88c-1.39-1.56-2.15-1.36-3.31.12-1.6,2-4.44,6-6.16,8.24-.92,1.32-1.84,2.76-2.52,3.8l-4.88-5A26.77,26.77,0,0,0,379.61,1386.74Z"/><path class="cls-4" d="M436.56,1403.66l-3-4.76a30.77,30.77,0,0,0,3.72-.64c5.12-1.2,9.12-4.88,9.12-10.72,0-5.52-3-9.64-8.4-10.56a82.37,82.37,0,0,1-2.39,10.84c-2.41,8.08-5.84,13-10.2,13s-8.12-4.88-8.12-11.64c0-9.24,8-17.12,18.35-17.12,9.92,0,16.16,6.88,16.16,15.6C451.8,1396.14,446.64,1402.1,436.56,1403.66Zm-11-9c1.68,0,3.24-2.52,4.88-7.92a59,59,0,0,0,2.11-9.68c-6.59,1.36-10.15,7.2-10.15,11.6C422.41,1392.74,424,1394.7,425.57,1394.7Z"/><path class="cls-4" d="M481.48,1398.54c4.08,1.44,8.68,3.36,11.4,4.68l-5.52,2.12a78.87,78.87,0,0,0-10.4-4.72l3.6-2.08H468.89l3.63,1.6a49.34,49.34,0,0,1-12.47,5.24,48.24,48.24,0,0,0-3.52-3.48,47,47,0,0,0,11-3.36h-5.92v-16.32h13.27a11.34,11.34,0,0,0-2.75-2.92,9.78,9.78,0,0,0,2.31-2h-3.59v4.16h-4.24v-4.16h-3.52a13.37,13.37,0,0,1-3.84,6.64,13.71,13.71,0,0,0-3.12-3,10.86,10.86,0,0,0,3.4-8.56v-3.64l3,.76a48.86,48.86,0,0,0,8.32-1.6l2.92,2.8a51.23,51.23,0,0,1-10.16,1.72v.2c0,.36,0,.8,0,1.2h11v3.24a7.29,7.29,0,0,0,1.39-4.64v-3.64l3.2.76a61.74,61.74,0,0,0,9-1.64l2.88,2.84a62.44,62.44,0,0,1-10.92,1.72v.2c0,.36,0,.76,0,1.16H492.6v3.44h-5v4.2h-4.24v-4.2h-4a10.63,10.63,0,0,1-3.92,4.92h13v16.32Zm-15.27-11.76h17.35v-1.72H466.21Zm0,4.44h17.35v-1.72H466.21Zm0,4.44h17.35v-1.76H466.21Z"/><path class="cls-4" d="M502.73,1384.3v21H498v-35.84h15.27v14.88Zm0-11.24v2.16h6.12v-2.16Zm6.12,7.64v-2.28h-6.12v2.28Zm2.44,18.92v2.24h-4.44v-14.8h15.47v12.56Zm0-8.64v4.72h6.59V1391Zm20.39,8.6c0,2.64-.52,4-2.2,4.76s-4.16.92-7.84.92a17,17,0,0,0-1.6-4.88c2.32.16,5,.12,5.8.08s1-.24,1-1v-15.16H516v-14.92h15.64ZM520.56,1373v2.2h6.32V1373Zm6.32,7.72v-2.32h-6.32v2.32Z"/><path class="cls-7" d="M438.14,1561.73c-3.2.64-6.05,1.22-7.56,1.58l-.86-4.71c1.69-.22,4.86-.76,8.42-1.41V1552a31.28,31.28,0,0,0-.29-4.14h5.37a36.53,36.53,0,0,0-.33,4.14v4.25c5.26-1,10.3-2,11.92-2.41a10.31,10.31,0,0,0,2.55-.83l3.46,2.67a20.71,20.71,0,0,0-1.19,2,51.8,51.8,0,0,1-7.45,10.47l-4-2.34a30.75,30.75,0,0,0,5.76-7.31c-1.12.25-6,1.19-11.09,2.23v9.54c0,2.24.65,3,4.61,3a58.86,58.86,0,0,0,11.34-1.23l-.15,4.9a84.78,84.78,0,0,1-11.16.79c-8.2,0-9.39-2-9.39-6.23Z"/><path class="cls-7" d="M476.37,1547.9l5.08-.82c.1.72.21,1.94.39,2.8.07.51.29,1.7.58,3.32,3.06-.51,5.79-.94,7.09-1.19s2.52-.51,3.38-.76l.87,4.72c-.79.07-2.24.29-3.31.43-1.48.25-4.22.68-7.2,1.15.36,1.8.72,3.78,1.11,5.76,3.24-.54,6.19-1,7.81-1.37,1.41-.29,2.74-.57,3.68-.86l1,4.75c-1,.07-2.45.32-3.82.54-1.73.29-4.64.76-7.81,1.26.58,2.95,1.08,5.36,1.3,6.48s.61,2.37.93,3.53l-5.18.93c-.18-1.33-.29-2.59-.51-3.63s-.64-3.53-1.22-6.55c-3.67.61-7.05,1.18-8.6,1.47s-2.77.54-3.6.76l-1-4.83c1,0,2.59-.25,3.74-.39,1.66-.22,5-.76,8.64-1.33-.36-2-.75-4-1.08-5.8-3.16.5-5.94,1-7.05,1.15s-2.09.43-3.31.76l-1-5a33.19,33.19,0,0,0,3.35-.25c1.26-.14,4-.54,7.13-1-.29-1.52-.54-2.7-.65-3.28C476.88,1549.6,476.62,1548.77,476.37,1547.9Z"/><path class="cls-7" d="M527,1560.68c-.29,2.13-1.22,8.32-1.76,11.74h2.3c.94,0,2.59,0,3.53-.15v4.65c-.72,0-2.49-.11-3.46-.11H508.63c-1.3,0-2.2,0-3.57.11v-4.68a34.27,34.27,0,0,0,3.57.18h11.66c.5-3.06,1.3-8.17,1.4-10.19H512c-1.16,0-2.56.11-3.6.18v-4.75c.93.11,2.59.22,3.56.22h9.21a8.21,8.21,0,0,0,2.67-.4l3.49,1.69A9.83,9.83,0,0,0,527,1560.68Z"/><path class="cls-7" d="M548.08,1551.47v12.16c0,.9,0,2.31.11,3.14H543c0-.69.18-2.09.18-3.17v-12.13a24.81,24.81,0,0,0-.14-2.77h5.18C548.12,1549.52,548.08,1550.32,548.08,1551.47Zm16.67.54v7.12c0,7.74-1.51,11.09-4.18,14a21.24,21.24,0,0,1-8.74,5.19l-3.75-4a16.28,16.28,0,0,0,8.64-4.54c2.49-2.7,2.95-5.4,2.95-11V1552a26.13,26.13,0,0,0-.21-3.6h5.43C564.82,1549.42,564.75,1550.57,564.75,1552Z"/><path class="cls-7" d="M578.5,1558.16h23.58a28.06,28.06,0,0,0,3.28-.21v4.68c-.9-.08-2.27-.11-3.28-.11h-8.67a22.82,22.82,0,0,1-2.31,9.25,17.3,17.3,0,0,1-7.23,6.91l-4.21-3.06a15,15,0,0,0,6.51-5.15,15.38,15.38,0,0,0,2.23-8h-9.9c-1.08,0-2.44.07-3.45.14V1558C576.13,1558.06,577.39,1558.16,578.5,1558.16Zm4.58-9.18h14.47a28.09,28.09,0,0,0,3.88-.25v4.65c-1.22-.08-2.62-.15-3.88-.15H583.11c-1.26,0-2.77.07-3.89.15v-4.65A27.8,27.8,0,0,0,583.08,1549Z"/><path class="cls-7" d="M624.73,1560.93a37.5,37.5,0,0,0,9-7.7l3.56,3.49a46.65,46.65,0,0,1-8.06,6.55v12.35a20.58,20.58,0,0,0,.25,3.89h-5.33c.08-.72.18-2.63.18-3.89v-9.5a74.5,74.5,0,0,1-10.33,4.21l-2.12-4.25A47.63,47.63,0,0,0,624.73,1560.93Z"/><path class="cls-7" d="M406.24,1618l-4.75,2.7a82.8,82.8,0,0,0-6.08-10.87l4.61-2.37C401.82,1609.94,404.91,1615.44,406.24,1618Zm6.84,4.5a28.06,28.06,0,0,0,4.25-10.87,20.45,20.45,0,0,0,.47-4.35l5.83.79c-.43,1.4-.83,3.17-1.08,4.21a38.06,38.06,0,0,1-5,12.63,30.49,30.49,0,0,1-12.49,11.05l-4.29-3.67A27.3,27.3,0,0,0,413.08,1622.46Z"/><path class="cls-7" d="M459.2,1612.89c-.83,3.53-2.41,9.1-5.4,13.1a28.83,28.83,0,0,1-14.47,9.93l-3.93-4.28c7.13-1.69,11.2-4.82,14.11-8.46a22.78,22.78,0,0,0,4.22-10.15H437c-1.62,0-3.35.07-4.28.15v-5.08c1.08.11,3.13.29,4.32.29h16.63a12.14,12.14,0,0,0,2.84-.29l3.53,2.27A15,15,0,0,0,459.2,1612.89Z"/><path class="cls-7" d="M475.29,1610.19a25.19,25.19,0,0,0-.36-4.32h5.62a37.6,37.6,0,0,0-.33,4.32v5.33a116.64,116.64,0,0,1,15,5.57l-2,5a104.31,104.31,0,0,0-13-5.36v10.19c0,1,.18,3.56.33,5h-5.62a38.67,38.67,0,0,0,.36-5Z"/><path class="cls-7" d="M519.64,1636l-2.7-4.28a27.91,27.91,0,0,0,3.35-.58c4.61-1.08,8.21-4.39,8.21-9.64,0-5-2.7-8.68-7.56-9.51a74.3,74.3,0,0,1-2.16,9.76c-2.16,7.27-5.26,11.73-9.18,11.73s-7.31-4.39-7.31-10.47c0-8.32,7.2-15.41,16.52-15.41,8.93,0,14.55,6.19,14.55,14C533.36,1629.27,528.71,1634.63,519.64,1636Zm-9.9-8.06c1.52,0,2.92-2.27,4.4-7.13a54.09,54.09,0,0,0,1.9-8.71,11.33,11.33,0,0,0-9.14,10.44C506.9,1626.21,508.34,1628,509.74,1628Z"/><path class="cls-7" d="M551.25,1613.18H537.18v-3.39h14.07Zm18,7a24.32,24.32,0,0,1-5.54,10.47,24.63,24.63,0,0,0,7.41,3.1,18.49,18.49,0,0,0-2.77,3.71,25.21,25.21,0,0,1-7.92-3.93,29.2,29.2,0,0,1-8.24,3.93,17.92,17.92,0,0,0-2.23-3.71v1.83H542.4V1637h-3.64v-12.28h11.16v9a23.55,23.55,0,0,0,7.27-3.1,25,25,0,0,1-4.14-6.23l3.67-1.18h-5v-3.86h1.22a18.94,18.94,0,0,0-3-2.59v1.37H538.87v-3.27H550v1.72c3.1-2.12,3.5-5,3.5-7.38v-4.28h12.06v8.06c0,1,.07,1.12.46,1.12h.9c.47,0,.61-.47.65-3.6A12.33,12.33,0,0,0,571,1612c-.36,4.47-1.29,5.72-3.7,5.72h-2.09c-2.88,0-3.71-1.11-3.71-4.67v-4.36h-4v.61c0,3.39-.72,7.49-4.47,10h12.68l.71-.18ZM550,1622.93H538.87v-3.2H550Zm-.07-14.72H539V1605h10.87Zm-3.67,19.87H542.4v4.14h3.81Zm10.62-4.93a17.65,17.65,0,0,0,3.49,4.86,17.26,17.26,0,0,0,3.39-4.86Z"/><path class="cls-7" d="M592.18,1632.61a35.91,35.91,0,0,0,4.11.22c1.94,0,7.88,0,10.29-.11a15.85,15.85,0,0,0-1.51,4.36h-9c-6.62,0-11.55-1.08-14.87-6.19a18.11,18.11,0,0,1-4.78,6.8,26,26,0,0,0-3.53-2.92c3.89-2.88,5.65-7.84,6.3-14l4.46.43c-.21,1.62-.47,3.13-.79,4.57a9.73,9.73,0,0,0,4.89,5.66v-12.71h-7.66v-4.07h19.8v4.07h-7.71v4.5h9.9v4h-9.9Zm-13.35-16.12h-4.21v-9h13.06v-3.6h4.54v3.6h13.17v9H601v-4.93H578.83Z"/><path class="cls-7" d="M624.8,1613.68c-.11,1.55-.22,3.13-.4,4.68h13.9a17.53,17.53,0,0,1-.15,1.87c-.64,9.79-1.4,13.82-2.84,15.41a5.31,5.31,0,0,1-3.89,1.65,47.7,47.7,0,0,1-6.15,0,10,10,0,0,0-1.52-4.21c2.49.25,5,.25,6,.25a2.34,2.34,0,0,0,1.73-.46c.94-.8,1.58-3.93,2.09-10.48h-9.9c-1.37,6.08-4.36,11.7-11.56,15.33a13.56,13.56,0,0,0-3-3.63c9.72-4.5,10.55-12.71,10.94-20.41H609.79v-4.1h13.78v-5.87H628v5.87h14.22v4.1Z"/><path class="cls-7" d="M651.91,1620.63a27.55,27.55,0,0,0-6.77-3.71l2.2-3.24a28.72,28.72,0,0,1,6.94,3.35Zm3.78,5c-1.77,3.74-3.85,7.84-5.87,11.3l-3.71-2.74a106.44,106.44,0,0,0,6.37-11.3Zm-1.8-14.55a27.93,27.93,0,0,0-6.73-4l2.37-3.2a31.71,31.71,0,0,1,6.88,3.67Zm21.27,26.35a20,20,0,0,0-1.22-2.84c-6.52.57-13.32,1-18.18,1.4l-.58-4.32,2.7-.11a63.71,63.71,0,0,0,3.42-9.32h-6.15v-4.1h9.25v-5.08H657V1609h7.45v-5.11h4.46V1609h7.81v4.1h-7.81v5.08h9.5v4.1H666.27l.14,0c-1.15,3-2.59,6.33-3.88,9,2.88-.14,6.08-.32,9.25-.5-.9-1.44-1.91-2.84-2.88-4.1l3.67-2c2.66,3.17,5.54,7.45,6.66,10.48Z"/><path class="cls-7" d="M425.72,1667.14c-.22,1.08-.5,2.42-.76,3.71,1.23-.07,2.27-.14,3-.14,3.81,0,6.51,1.69,6.51,6.87,0,4.25-.5,10.08-2.05,13.21-1.19,2.52-3.17,3.31-5.9,3.31a23.78,23.78,0,0,1-4.32-.5l-.76-4.75a20.56,20.56,0,0,0,4.39.75,2.62,2.62,0,0,0,2.7-1.54c1-2,1.48-6.41,1.48-10,0-2.88-1.26-3.28-3.49-3.28-.58,0-1.48.07-2.52.15-1.37,5.47-4,14-7.35,19.29l-4.68-1.87c3.5-4.72,6-12,7.31-16.92-1.29.14-2.45.29-3.09.36-1.05.18-2.92.43-4,.61l-.43-4.89a38,38,0,0,0,3.85,0c1.12,0,2.81-.15,4.65-.33a36.33,36.33,0,0,0,.75-7.59l5.37.54C426.15,1665.09,425.9,1666.24,425.72,1667.14Zm15.26.58-1.76.76a64.39,64.39,0,0,1,5.86,12.56l-4.57,2.09c-.93-4-3.49-10.33-6-13.5l3.24-1.41a39.93,39.93,0,0,0-2.45-4.24l2.84-1.19C439,1664.12,440.3,1666.39,441,1667.72Zm4.28-1.66-2.84,1.23a42.14,42.14,0,0,0-2.91-5l2.87-1.15A47,47,0,0,1,445.26,1666.06Z"/><path class="cls-7" d="M455.64,1663.15l5.25.18c-.21,1-.5,2.84-.79,5.11l1.33,1.69c-.5.65-1.22,1.84-1.83,2.77,0,.33,0,.69-.08,1a17.71,17.71,0,0,1,10.59-3.71,9.56,9.56,0,0,1,9.93,9.72c0,7.27-4.57,11.63-13.5,13.39l-2.16-4.35c6.34-.94,10.87-3.53,10.84-9.15a5.53,5.53,0,0,0-5.87-5.39c-3.82,0-7.16,1.83-10.19,4.6,0,1-.07,2.09-.07,3,0,3,0,6,.22,9.35,0,.65.14,1.95.25,2.78h-5c.07-.8.11-2.09.11-2.67.07-2.8.11-4.89.14-7.92-1.51,2.27-3.27,4.9-4.53,6.59l-2.85-3.92c2.06-2.52,5.66-7.27,7.71-10.3.07-.83.14-1.69.18-2.55-1.77.21-4.54.57-6.55.86l-.47-4.61a30.21,30.21,0,0,0,3.13,0c1-.07,2.63-.25,4.18-.47.07-1.37.14-2.38.14-2.77A19.81,19.81,0,0,0,455.64,1663.15Z"/><path class="cls-7" d="M498,1666.89c-.25,1.08-.5,2.41-.75,3.71,1.18-.07,2.26-.14,3-.14,3.81,0,6.51,1.69,6.51,6.87,0,4.25-.5,10.08-2.05,13.21-1.19,2.52-3.2,3.31-5.9,3.31a23.47,23.47,0,0,1-4.32-.5l-.79-4.75a21.35,21.35,0,0,0,4.42.75,2.67,2.67,0,0,0,2.7-1.54c1-2.06,1.44-6.41,1.44-10,0-2.87-1.22-3.27-3.49-3.27-.57,0-1.47.07-2.48.14-1.37,5.47-4,14-7.34,19.3l-4.68-1.87c3.49-4.72,6-12,7.27-16.92-1.3.14-2.41.29-3.1.36-1,.18-2.91.43-4,.61l-.44-4.9a33.14,33.14,0,0,0,3.86,0c1.11,0,2.8-.14,4.64-.28a40.85,40.85,0,0,0,.76-7.64l5.36.54C498.4,1664.84,498.15,1666,498,1666.89Zm19.37,13.79-4.57,2.12c-.94-4-3.5-10.51-6-13.68l4.28-1.83C513.23,1670.38,516.26,1677.26,517.34,1680.68Z"/><path class="cls-7" d="M529.54,1670.92c1.73-2.8,4.86-5.83,8.93-5.83,5,0,8.89,4.9,8.89,12.82,0,10.18-6.23,15-15.76,16.77l-2.74-4.18c8-1.22,13.64-3.85,13.64-12.56,0-5.54-1.87-8.64-4.89-8.64-4.25,0-8,6.37-8.14,11.13a19.38,19.38,0,0,0,.18,3.81l-4.43.29a41.69,41.69,0,0,1-.46-6,95.46,95.46,0,0,1,1-11.52,32,32,0,0,0,.29-3.78l4.93.22A60.07,60.07,0,0,0,529.54,1670.92Z"/><path class="cls-7" d="M575.26,1665.78c0,.36,0,.9,0,1.47a74.39,74.39,0,0,0,9.1-1l0,4.14c-2.38.29-5.65.61-9.15.79v3.71c3.64-.18,6.7-.47,9.62-.86l0,4.24c-3.24.36-6.05.61-9.5.72.07,1.37.14,2.85.25,4.29a28.13,28.13,0,0,1,10.08,5.43l-2.59,4a27.83,27.83,0,0,0-7.28-5c0,.5,0,.94,0,1.33,0,3.06-2.34,5.44-7.09,5.44-5.76,0-8.78-2.2-8.78-6,0-3.64,3.34-6.2,8.89-6.2.75,0,1.51,0,2.23.11-.07-1.11-.11-2.27-.15-3.35H569c-2.08,0-6.19-.18-8.56-.46l0-4.25a63.91,63.91,0,0,0,8.67.68h1.73c0-1.18,0-2.48,0-3.7h-1.33a83.67,83.67,0,0,1-8.82-.65l-.11-4.11a65.84,65.84,0,0,0,8.89.8h1.4v-1.7a14.83,14.83,0,0,0-.21-2.48h4.86A24.76,24.76,0,0,0,575.26,1665.78ZM568,1690.47c1.91,0,3.17-.54,3.17-2.63,0-.39,0-.9,0-1.55a20.47,20.47,0,0,0-3-.25c-2.55,0-4,1-4,2.23C564.21,1689.64,565.51,1690.47,568,1690.47Z"/><path class="cls-7" d="M617.31,1667.22c0,1.4,0,2.7-.07,3.88,1-.07,1.87-.14,2.7-.18,1-.07,2.41-.14,3.45-.25v4.43c-.61,0-2.52,0-3.45,0s-1.73.08-2.77.15a65.65,65.65,0,0,1-.54,7.2c-.4,1.91-1.3,2.37-3.14,2.37a54.54,54.54,0,0,1-5.43-.54l.11-4a19.2,19.2,0,0,0,3.31.47c.72,0,1-.15,1.11-.83a36.81,36.81,0,0,0,.29-4.36c-3.2.25-6.73.58-9.79.9,0,3.31-.07,6.63,0,8.17.07,3.53.4,4.32,5.8,4.32a72.3,72.3,0,0,0,10.76-.9l-.18,4.9a101.38,101.38,0,0,1-10.26.57c-9.32,0-10.44-1.94-10.62-8.17,0-1.54,0-5,0-8.38l-2.42.25c-1.15.14-3.38.5-4.32.65l-.5-4.61c1,0,2.7-.07,4.54-.25.64-.07,1.58-.15,2.73-.25v-3.64a27.85,27.85,0,0,0-.29-4h5.08a24,24,0,0,0-.22,3.75c0,.83,0,2,0,3.45l9.82-.9v-4.06a30,30,0,0,0-.25-3.32h4.82C617.45,1664.66,617.35,1666.24,617.31,1667.22Z"/><path class="cls-7" d="M645.61,1667.29c-1.77,2.59-4.29,7.2-6.09,10.36a8.45,8.45,0,0,1,4.14-1.08c2.7,0,4.32,1.7,4.47,4.68.07,1.62,0,4.5.14,6a2.09,2.09,0,0,0,2.34,1.94c3.13,0,5-4,6.08-8.5l3.89,3.17c-1.87,6.16-5.22,10.26-10.73,10.26-4,0-5.86-2.38-6-5-.14-1.91-.11-4.86-.21-6.34a2,2,0,0,0-2.13-2c-2.44,0-4.46,2.52-5.76,5.43a77,77,0,0,0-2.73,8l-5.08-1.73c2.67-7.2,10.05-21.88,12-25.3.47-1,1.15-2.16,1.77-3.68l5.11,2.06C646.4,1666.1,646,1666.71,645.61,1667.29Z"/></g></g></svg>