<svg xmlns="http://www.w3.org/2000/svg" viewBox="0 0 963.73 272.92"><defs><style>.cls-1{fill:#141f42;}.cls-2{fill:#fff;}.cls-3{fill:#ffd200;}.cls-4{fill:#3c3c3c;}.cls-5{fill:#00d7ff;}.cls-6{fill:#4b4b4b;}.cls-7{fill:#a6f5ff;}.cls-8{fill:#ffe600;}.cls-9{fill:#fff03c;}.cls-10{fill:#ffaa1e;}</style></defs><title>support-img-01</title><g id="Layer_2" data-name="Layer 2"><g id="レイヤー_5" data-name="レイヤー 5"><path class="cls-1" d="M248.37,30h-216a15,15,0,1,1,0-30h216a15,15,0,0,1,0,30Z"/><path class="cls-2" d="M50.16,6.08a1.92,1.92,0,0,1,0,3.83.68.68,0,0,1-.2,0l-.13.48a16.3,16.3,0,0,1-2.4,5.83A12.88,12.88,0,0,1,41,20.63l-1.74-1.92A10.52,10.52,0,0,0,45.52,15a10,10,0,0,0,1.87-4.51H40c-.74,0-1.5,0-1.9.06V8.24a16.21,16.21,0,0,0,1.9.13h7.41a8.58,8.58,0,0,0,.92-.06,1.55,1.55,0,0,1,0-.31A1.93,1.93,0,0,1,50.16,6.08Zm0,2.83A.92.92,0,0,0,51.08,8a.93.93,0,1,0-.92.91Z"/><path class="cls-2" d="M57.74,8.67v5.41c0,.41,0,1,0,1.4H55.47c0-.31.08-.93.08-1.41V8.67a10.85,10.85,0,0,0-.06-1.23h2.3C57.76,7.81,57.74,8.16,57.74,8.67Zm7.41.24v3.17c0,3.45-.67,4.93-1.85,6.25a9.47,9.47,0,0,1-3.89,2.3l-1.67-1.76a7.3,7.3,0,0,0,3.85-2c1.1-1.2,1.31-2.4,1.31-4.89V8.91a10.42,10.42,0,0,0-.1-1.6h2.42C65.19,7.76,65.15,8.27,65.15,8.91Z"/><path class="cls-2" d="M76.35,16.13a15,15,0,0,0,5.83-6.22l1.25,2.25a17.11,17.11,0,0,1-5.92,5.93,17.47,17.47,0,0,1-5.94,2.25l-1.35-2.11A16.39,16.39,0,0,0,76.35,16.13Zm0-5.17-1.63,1.67a33,33,0,0,0-4-3.46l1.5-1.6A32.8,32.8,0,0,1,76.35,11Z"/><path class="cls-2" d="M92.48,8.69h3.25a4.74,4.74,0,0,0,1.39-.18l1.64,1a7.1,7.1,0,0,0-.53,1.14,18.75,18.75,0,0,1-2.37,4.61c.69.5,1.31,1,1.77,1.34l-1.51,1.81c-.44-.4-1-.89-1.69-1.42a14.9,14.9,0,0,1-5.73,3.79l-1.85-1.61a13.59,13.59,0,0,0,5.87-3.48c-1-.77-2.1-1.49-2.91-2l1.42-1.46c.85.48,1.86,1.14,2.87,1.81a11.38,11.38,0,0,0,1.76-3.53H91.28a19.35,19.35,0,0,1-4.23,4.14l-1.72-1.33A14.77,14.77,0,0,0,90.42,8a6.66,6.66,0,0,0,.73-1.66l2.32.72A17,17,0,0,0,92.48,8.69Z"/><path class="cls-2" d="M104.42,12.42H113c.75,0,1.46-.06,1.87-.1v2.52c-.38,0-1.2-.08-1.87-.08h-8.59c-.92,0-2,0-2.58.08V12.32C102.41,12.37,103.58,12.42,104.42,12.42Z"/><path class="cls-2" d="M129.19,9.41A23.57,23.57,0,0,1,127,13.76a43.38,43.38,0,0,1,3.84,3.54l-1.65,1.83a30.43,30.43,0,0,0-3.55-3.54,20.14,20.14,0,0,1-6,4.95l-1.8-1.62A17.81,17.81,0,0,0,124,14.2a42.35,42.35,0,0,0-4.32-3l1.35-1.64c1.29.79,3,1.94,4.26,2.9a16.51,16.51,0,0,0,1.78-3.81,10.26,10.26,0,0,0,.38-1.47l2.39.83C129.65,8.34,129.35,9,129.19,9.41Z"/><path class="cls-2" d="M136.42,12.42H145c.75,0,1.46-.06,1.87-.1v2.52c-.38,0-1.2-.08-1.87-.08h-8.59c-.92,0-2,0-2.58.08V12.32C134.41,12.37,135.58,12.42,136.42,12.42Z"/><path class="cls-2" d="M156.79,8.32c0,.5,0,1-.07,1.44h3a6.78,6.78,0,0,0,1.2-.11l1.39.67c0,.26-.11.68-.11.85-.06,1.73-.25,6.2-.94,7.83a2,2,0,0,1-2.07,1.23c-.91,0-1.87-.06-2.64-.13L156.3,18a13.73,13.73,0,0,0,2.24.22.85.85,0,0,0,.92-.56,22.1,22.1,0,0,0,.67-5.94h-3.6c-.59,4.23-2.11,6.74-5,8.78L149.69,19a9.41,9.41,0,0,0,2.1-1.57,9.37,9.37,0,0,0,2.64-5.7h-2.11c-.54,0-1.43,0-2.11.07V9.65c.67.07,1.5.11,2.11.11h2.29c0-.45,0-.91,0-1.39a12.58,12.58,0,0,0-.11-1.47h2.35C156.83,7.27,156.8,7.94,156.79,8.32Z"/><path class="cls-2" d="M168.42,12.42H177c.75,0,1.46-.06,1.87-.1v2.52c-.38,0-1.2-.08-1.87-.08h-8.59c-.92,0-2,0-2.58.08V12.32C166.41,12.37,167.58,12.42,168.42,12.42Z"/><path class="cls-2" d="M182.32,13.72c.73-.77,2-2.42,3-3.57s2.16-1.38,3.33-.24,2.37,2.7,3.31,3.73,2.39,2.56,3.91,3.92l-1.65,1.92c-1.15-1.09-2.51-2.64-3.52-3.83s-2.2-2.7-2.95-3.55c-.56-.62-.86-.54-1.33.05-.64.8-1.77,2.38-2.46,3.3-.37.52-.74,1.1-1,1.52L181,15A11,11,0,0,0,182.32,13.72Z"/><path class="cls-2" d="M205.11,20.49l-1.21-1.91a12.73,12.73,0,0,0,1.49-.25A4.35,4.35,0,0,0,209,14a4,4,0,0,0-3.36-4.23,31.11,31.11,0,0,1-1,4.34c-1,3.23-2.34,5.22-4.08,5.22s-3.25-2-3.25-4.66a7.11,7.11,0,0,1,7.35-6.85,6.09,6.09,0,0,1,6.46,6.24C211.2,17.48,209.14,19.86,205.11,20.49ZM200.7,16.9c.67,0,1.3-1,2-3.17a24.07,24.07,0,0,0,.84-3.87,5,5,0,0,0-4.06,4.64C199.44,16.12,200.08,16.9,200.7,16.9Z"/><path class="cls-2" d="M223.07,18.44a47.18,47.18,0,0,1,4.57,1.87l-2.21.85a32.39,32.39,0,0,0-4.16-1.89l1.44-.83H218l1.46.64a20.08,20.08,0,0,1-5,2.1,18.49,18.49,0,0,0-1.4-1.4,18.72,18.72,0,0,0,4.4-1.34h-2.37V11.91h5.31a4.58,4.58,0,0,0-1.1-1.17,4.23,4.23,0,0,0,.93-.8h-1.44V11.6h-1.7V9.94h-1.41a5.37,5.37,0,0,1-1.54,2.66,5.39,5.39,0,0,0-1.24-1.19A4.36,4.36,0,0,0,214.29,8V6.53l1.21.3a18.78,18.78,0,0,0,3.33-.64L220,7.31a19.75,19.75,0,0,1-4.06.69v.08a3.93,3.93,0,0,1,0,.48h4.4v1.3A2.87,2.87,0,0,0,220.88,8V6.55l1.28.3a24.31,24.31,0,0,0,3.59-.66l1.15,1.14a25.31,25.31,0,0,1-4.37.69V8.1a3.7,3.7,0,0,1,0,.46h5V9.94h-2v1.68h-1.7V9.94h-1.62a4.26,4.26,0,0,1-1.57,2h5.22v6.53ZM217,13.73h6.95V13H217Zm0,1.78h6.95v-.69H217Zm0,1.78h6.95v-.71H217Z"/><path class="cls-2" d="M231.57,12.74v8.39h-1.89V6.79h6.11v6Zm0-4.5v.87H234V8.24ZM234,11.3v-.91h-2.45v.91Zm1,7.57v.9h-1.78V13.84h6.2v5Zm0-3.46V17.3h2.64V15.41Zm8.17,3.44c0,1.06-.21,1.61-.88,1.91a7.89,7.89,0,0,1-3.14.37,7,7,0,0,0-.64-1.95c.93.06,2,0,2.32,0s.41-.1.41-.39V12.76H236.9v-6h6.26ZM238.71,8.23v.88h2.52V8.23Zm2.52,3.09v-.93h-2.52v.93Z"/><polygon class="cls-1" points="123.7 22 140.37 39 157.03 22 123.7 22"/><ellipse class="cls-3" cx="181.55" cy="132.46" rx="99.18" ry="65.22"/><path class="cls-4" d="M136,97.65h2.4l.95,5.8c.17,1.24.37,2.49.54,3.77H140c.24-1.28.49-2.54.75-3.77l1.37-5.8h2l1.36,5.8c.25,1.21.49,2.49.75,3.77h.08c.18-1.28.35-2.54.53-3.77l.94-5.8h2.24l-2.19,11.86h-2.94l-1.33-5.86c-.2-.92-.37-1.84-.52-2.75H143c-.16.91-.32,1.83-.51,2.75l-1.3,5.86h-2.9Z"/><path class="cls-4" d="M151.44,97.81a1.37,1.37,0,1,1,1.38,1.3A1.26,1.26,0,0,1,151.44,97.81Zm.19,2.74H154v9h-2.35Z"/><path class="cls-4" d="M156,104.09h4.37v1.68H156Z"/><path class="cls-4" d="M162.61,97.65h7.3v2H165v3.09h4.21v2H165v4.8h-2.37Z"/><path class="cls-4" d="M171.58,97.81a1.37,1.37,0,1,1,1.38,1.3A1.26,1.26,0,0,1,171.58,97.81Zm.19,2.74h2.36v9h-2.36Z"/><path class="cls-4" d="M183.68,98.68a42,42,0,0,0-.77,5.87,9.33,9.33,0,0,0,.06,1c.24-.54.5-1.1.72-1.63l1,.78c-.45,1.33-1,3.08-1.15,3.92a4.68,4.68,0,0,0-.08.76c0,.17,0,.43,0,.65l-1.86.13A20.48,20.48,0,0,1,181,105a44.11,44.11,0,0,1,.67-6.34c0-.45.14-1.06.16-1.57l2.24.19A13.62,13.62,0,0,0,183.68,98.68Zm3.95,7.82c0,.71.61,1.14,2.24,1.14a18.8,18.8,0,0,0,4-.42l0,2.16a21.88,21.88,0,0,1-4.13.31c-2.75,0-4.08-1-4.08-2.63A10.23,10.23,0,0,1,186,105l1.84.18A5.82,5.82,0,0,0,187.63,106.5Zm5.8-8.19v2.06a41.71,41.71,0,0,1-6.89,0V98.32A32.34,32.34,0,0,0,193.43,98.31Z"/><path class="cls-4" d="M206.13,102.71c-.16.37-.34.77-.53,1.15h5.15v1.6H209a7.21,7.21,0,0,1-1.14,2.58,18.54,18.54,0,0,1,2.69,1.44l-1.2,1.43a19.41,19.41,0,0,0-2.82-1.61,12.68,12.68,0,0,1-5.41,1.64,5,5,0,0,0-.7-1.54,12.87,12.87,0,0,0,4.24-.91c-.4-.16-.8-.32-1.19-.45l-.16.29-1.64-.53c.36-.64.78-1.47,1.18-2.34H201v-.86l-1.2.35v3.81c0,.94-.16,1.46-.67,1.75a4.75,4.75,0,0,1-2.39.38,7.06,7.06,0,0,0-.53-1.86c.63,0,1.28,0,1.49,0s.27-.07.27-.31v-3.28l-1.77.48-.4-1.84,2.17-.49v-2.88h-1.85V99h1.85V96h1.83v3H201v1.75h-1.23v2.43l1.22-.32.12,1h2.5c.18-.4.34-.78.48-1.15h-3.25v-1.62h2.4a10.6,10.6,0,0,0-.46-2l.32-.06h-1.78v-1.6h3.57V96h1.94v1.52h3.57v1.6h-1.32c-.25.73-.52,1.44-.76,2h2.46v1.62Zm-1.3,2.75c-.19.4-.4.8-.59,1.19.63.19,1.3.43,2,.69a4.87,4.87,0,0,0,.92-1.88Zm-.33-6.38a8.22,8.22,0,0,1,.48,2h1.61a13.83,13.83,0,0,0,.61-2Z"/><path class="cls-4" d="M214,105.58a14.72,14.72,0,0,1-.95,4.12,8.92,8.92,0,0,0-1.39-.67,11.81,11.81,0,0,0,.82-3.71Zm1.85-1.3v6.63h-1.63v-6.5l-2.23.17-.19-1.65,1.16-.06c.24-.29.48-.61.72-.94a15.16,15.16,0,0,0-1.83-2.25l.93-1.28a4,4,0,0,0,.37.34A19.67,19.67,0,0,0,214.27,96l1.65.58a36.14,36.14,0,0,1-1.81,3.26,6.72,6.72,0,0,1,.51.63,26,26,0,0,0,1.44-2.6l1.56.72c-.88,1.35-2,2.93-3,4.21l1.39-.08c-.16-.35-.34-.7-.51-1l1.34-.56a16.24,16.24,0,0,1,1.11,2.35V102h8.78v3.17h-1.66v-1.7h-5.54v1.7H218v-.48l-1.11.51a8.81,8.81,0,0,0-.24-1Zm1.48,1a11.7,11.7,0,0,1,.81,2.82l-1.41.47a12.69,12.69,0,0,0-.73-2.88Zm2.59-1h1.71v1.28a5.57,5.57,0,0,1-3.41,5.41,9.08,9.08,0,0,0-1.29-1.26c2.62-1.25,3-3,3-4.18Zm1.44-5.47H218V97.2h3.31V96h1.89V97.2h3.37v1.56h-3.37v.92h2.91v1.54h-7.54V99.68h2.74Zm3.92,10.38c.22,0,.3-.25.34-2a4.17,4.17,0,0,0,1.52.7c-.16,2.29-.59,2.89-1.68,2.89h-1c-1.36,0-1.65-.52-1.65-2.1v-4.42h1.72v4.42c0,.43,0,.49.24.49Z"/><path class="cls-4" d="M144.22,125.45l6.92-.59c1.65-.14,3.39-.24,4.53-.29v2.05a17.6,17.6,0,0,0-3.08.22,4.88,4.88,0,0,0-3.4,4.49c0,2.64,2.47,3.58,5.19,3.73l-.75,2.19c-3.37-.23-6.53-2-6.53-5.49a6.4,6.4,0,0,1,2.38-4.95c-1.5.16-4.77.51-6.63.92l-.2-2.2C143.3,125.52,143.92,125.48,144.22,125.45Zm10.46,4.92-1.22.54a12.43,12.43,0,0,0-1.25-2.22l1.19-.5A20.72,20.72,0,0,1,154.68,130.37Zm1.85-.79-1.2.58A13.6,13.6,0,0,0,154,128l1.17-.55A23.16,23.16,0,0,1,156.53,129.58Z"/><path class="cls-4" d="M166.21,128.51c-.08-.19-.14-.38-.21-.56-.13-.37-.22-.67-.32-1a37.61,37.61,0,0,1-5.39-.14l-.11-1.84a33.5,33.5,0,0,0,5,.24c-.16-.51-.32-1-.52-1.58l2.15-.24c.08.57.17,1.13.29,1.68a19,19,0,0,0,3.15-.69l.26,1.84a22.61,22.61,0,0,1-3,.59q.12.39.24.75c.08.23.18.47.27.72a20.14,20.14,0,0,0,3.06-.64l.32,1.89a22.38,22.38,0,0,1-2.56.5,13.31,13.31,0,0,0,.83,1.42,4.6,4.6,0,0,0,.72.82l-1,1.47c-.9-.17-2.63-.38-3.8-.51l.16-1.52,2,.19c-.34-.56-.64-1.12-.9-1.66a62.32,62.32,0,0,1-7,0l-.11-1.89A40.51,40.51,0,0,0,166.21,128.51Zm-4,5.36c0,1.19,1.12,1.67,3.23,1.67a20.61,20.61,0,0,0,4-.36l-.11,2a24.88,24.88,0,0,1-3.89.3c-3.21,0-5.19-.94-5.22-3.23a5.32,5.32,0,0,1,.69-2.58l2,.38A3,3,0,0,0,162.26,133.87Z"/><path class="cls-4" d="M180.53,125.82a19.19,19.19,0,0,0,2.16-.51l.06,1.86a27.52,27.52,0,0,1-2.8.56,29.45,29.45,0,0,1-3.42,6.85l-1.94-1a25.25,25.25,0,0,0,3.27-5.65c-.29,0-.56,0-.84,0-.65,0-1.31,0-2-.06l-.14-1.86a20.28,20.28,0,0,0,2.13.11c.48,0,1,0,1.45-.06a12.91,12.91,0,0,0,.44-2.68l2.21.23C181,124.14,180.77,125,180.53,125.82Zm4.32,4.83c0,.47.07,1.24.1,2a10.46,10.46,0,0,1,3.31,2.05l-1.07,1.71a13.23,13.23,0,0,0-2.16-1.71v.16c0,1.48-.82,2.64-3.09,2.64-2,0-3.56-.88-3.56-2.64,0-1.57,1.32-2.77,3.54-2.77.39,0,.74,0,1.11.06-.07-1.18-.15-2.61-.18-3.58h2A19.83,19.83,0,0,0,184.85,130.65Zm-3.2,5c1.1,0,1.44-.61,1.44-1.49v-.32a5.58,5.58,0,0,0-1.3-.16c-.92,0-1.52.41-1.52,1S180.77,135.7,181.65,135.7Zm2.11-8.52,1-1.58a27.46,27.46,0,0,1,4,2.17l-1.14,1.68A23.37,23.37,0,0,0,183.76,127.18Z"/><path class="cls-4" d="M199.91,126.08c-1,.83-3.16,2.46-4.23,3.37-.85.74-.83.92,0,1.67,1.2,1,4.25,3.41,5.88,5l-1.88,1.72c-.44-.5-.91-1-1.39-1.49-1-1-3.33-3-4.78-4.26s-1.48-2.21.12-3.55c1.27-1,3.46-2.81,4.53-3.85a10.41,10.41,0,0,0,1.24-1.36L201.3,125C200.8,125.36,200.28,125.77,199.91,126.08Z"/><path class="cls-4" d="M208.27,125.42l6.9-.61c1.65-.13,3.41-.24,4.53-.27l0,2a16.78,16.78,0,0,0-3.09.21,4.86,4.86,0,0,0-3.38,4.49c0,2.63,2.46,3.59,5.17,3.73l-.75,2.2c-3.35-.23-6.52-2-6.52-5.49a6.46,6.46,0,0,1,2.37-4.95c-1.5.16-4.77.51-6.62.91l-.21-2.19C207.33,125.48,208,125.45,208.27,125.42Z"/><path class="cls-4" d="M147.31,150.64v14.3h-2v-.69h-9.74v.69h-1.91v-14.3Zm-2,11.85V152.4h-9.74v10.09ZM142,156.25a8.9,8.9,0,0,0,3,3.44,7.24,7.24,0,0,0-1.23,1.41,9.94,9.94,0,0,1-2.52-3.19v4h-1.74v-4a9.7,9.7,0,0,1-2.58,3.22,7.81,7.81,0,0,0-1.15-1.29,9.33,9.33,0,0,0,3-3.65h-2.53v-1.6h3.28v-1.86h1.74v1.86h3.43v1.6Z"/><path class="cls-4" d="M152.46,156.31a22.31,22.31,0,0,1,5.74-1.25c2.53,0,4.23,1.51,4.23,3.92,0,2.9-2.55,4.87-7.64,5.19l-.84-2c3.66-.1,6.35-1.07,6.35-3.25a2.05,2.05,0,0,0-2.29-2c-1.86,0-5.06,1.33-6.42,1.9l-.83-2.08C151.24,156.65,152,156.45,152.46,156.31Z"/><path class="cls-4" d="M167.19,152.42l6.9-.61c1.65-.13,3.41-.24,4.53-.27l0,2.05a16.78,16.78,0,0,0-3.09.21,4.86,4.86,0,0,0-3.38,4.49c0,2.63,2.46,3.59,5.17,3.73l-.75,2.2c-3.35-.23-6.52-2-6.52-5.49a6.46,6.46,0,0,1,2.37-4.95c-1.5.16-4.77.51-6.62.91l-.21-2.19C166.25,152.48,166.87,152.45,167.19,152.42Z"/><path class="cls-4" d="M189.93,151.7a6.24,6.24,0,0,0,0,.66,34.52,34.52,0,0,0,4.05-.44v1.84c-1.06.13-2.51.28-4.07.36v1.65c1.62-.08,3-.21,4.28-.39l0,1.89c-1.44.16-2.69.27-4.23.32,0,.61.07,1.26.12,1.91a12.48,12.48,0,0,1,4.48,2.41l-1.15,1.79a12.5,12.5,0,0,0-3.24-2.22c0,.22,0,.42,0,.59,0,1.36-1,2.42-3.15,2.42-2.57,0-3.91-1-3.91-2.67s1.49-2.76,3.95-2.76c.34,0,.68,0,1,.05,0-.5-.05-1-.07-1.49h-.83c-.93,0-2.75-.08-3.81-.21l0-1.88a28.59,28.59,0,0,0,3.86.3h.77c0-.53,0-1.1,0-1.65h-.6a35.32,35.32,0,0,1-3.92-.29l-.05-1.82a30.37,30.37,0,0,0,4,.35H188v-.75a6.92,6.92,0,0,0-.09-1.11H190A11.26,11.26,0,0,0,189.93,151.7Zm-3.23,11c.85,0,1.41-.24,1.41-1.17,0-.17,0-.4,0-.69a9.38,9.38,0,0,0-1.31-.11c-1.14,0-1.76.45-1.76,1S185.59,162.68,186.7,162.68Z"/><path class="cls-4" d="M206.81,152a4.54,4.54,0,0,1,0,.49c1.62,0,3.81,0,4.65,0l0,1.89c-1-.05-2.45-.08-4.63-.08,0,.81,0,1.69,0,2.4a4,4,0,0,1,.58,2.19c0,2.08-1.22,4.74-5.13,5.83l-1.71-1.7a7.22,7.22,0,0,0,3.91-1.82,4.18,4.18,0,0,1-.72.08,2.83,2.83,0,0,1-2.76-2.95,3,3,0,0,1,3.21-3,3.39,3.39,0,0,1,.64.05c0-.36,0-.72,0-1.08-2.42,0-4.91.13-6.88.24l-.05-1.93c1.82,0,4.74-.07,6.91-.1,0-.21,0-.37,0-.5a11.67,11.67,0,0,0-.16-1.39h2.32C206.89,150.87,206.83,151.73,206.81,152Zm-2.67,7.49c.67,0,1.26-.51,1-1.92a1.18,1.18,0,0,0-1-.56,1.24,1.24,0,0,0,0,2.48Z"/><path class="cls-4" d="M214,162.2a1.47,1.47,0,1,1,1.48,1.54A1.48,1.48,0,0,1,214,162.2Zm6.07,0a1.47,1.47,0,1,1,1.46,1.54A1.47,1.47,0,0,1,220.09,162.2Zm6.07,0a1.46,1.46,0,1,1,1.45,1.54A1.47,1.47,0,0,1,226.16,162.2Z"/><circle class="cls-3" cx="199.36" cy="224.78" r="10.14"/><circle class="cls-3" cx="219.03" cy="193.71" r="15.35"/><circle class="cls-3" cx="177.53" cy="243.09" r="7.6"/><circle class="cls-3" cx="156.2" cy="254.09" r="4.67"/><path class="cls-5" d="M100.59,268.1s3.88-36.43,4.56-88.55c3.37-12.82,5.06-22.6,1.18-29.85s-11.81-9.45-22.94-9.95L77,130.81c-2.19,8.77-11.64,13.83-15,15.52s-4,3.37-5.73,7.08S52,161.5,52,161.5c-7.76-8.93-6.24-20.4-6.24-20.4a26.48,26.48,0,0,1-4.2-3.61l-2,2.76a57.4,57.4,0,0,0-10.12.34c-7.08.68-11.81,5.74-17.37,19.57S-1.11,197.09,1.76,206.87,12.22,221,28.24,217.16a316.13,316.13,0,0,1-2.36,50.94"/><path d="M25.88,269.24h-.16a1.15,1.15,0,0,1-1-1.29,317.29,317.29,0,0,0,2.4-49.36c-14.63,3.21-23.3-.52-26.49-11.39-3.52-12,8-41.64,10.33-47.46,5.65-14,10.62-19.54,18.32-20.28a68.79,68.79,0,0,1,9.68-.38l1.68-2.26a1.14,1.14,0,0,1,.85-.46,1.12,1.12,0,0,1,.89.36,25.44,25.44,0,0,0,4,3.45,1.12,1.12,0,0,1,.49,1.09c0,.1-1.21,10,4.94,18.23.88-1.59,2.29-4.22,3.35-6.54l.16-.37c1.6-3.52,2.48-5.45,6.1-7.27,8-4,13-9.11,14.41-14.77a1.15,1.15,0,0,1,2-.39L84,138.63c9.52.48,18.86,2.17,23.33,10.53,3.91,7.3,2.58,16.74-1,30.55-.68,51.49-4.52,88.14-4.56,88.51a1.14,1.14,0,1,1-2.27-.25c0-.36,3.88-37,4.55-88.43a1.27,1.27,0,0,1,0-.28c3.51-13.33,4.85-22.36,1.28-29-3.25-6.08-9.62-8.79-22-9.35a1.16,1.16,0,0,1-.88-.48l-5.09-7.11c-2.19,5.42-7.28,10.24-14.89,14-2.9,1.45-3.48,2.73-5,6.16l-.17.37c-1.69,3.72-4.16,8-4.26,8.19a1.16,1.16,0,0,1-.88.57,1.12,1.12,0,0,1-1-.39c-7-8-6.79-17.9-6.58-20.6a27.13,27.13,0,0,1-2.87-2.41l-1.25,1.69a1.16,1.16,0,0,1-1.05.46,57.53,57.53,0,0,0-9.88.34c-5.67.54-10.4,3.88-16.42,18.85C6.77,176.32.29,197.8,2.85,206.55c1.84,6.25,6.43,14,25.12,9.5a1.12,1.12,0,0,1,1,.2,1.13,1.13,0,0,1,.46.86c0,.25,1.14,25.86-2.37,51.14A1.15,1.15,0,0,1,25.88,269.24Z"/><path class="cls-2" d="M85.41,115.29c-2.36-.17-5.22,6.24-5.22,6.24a12.74,12.74,0,0,1-6.75.85s5.23-4.56,6.24-15.52c0,0-10.46-2.7-5.9-11.3,0,0-5.23,4.55-15.52,4.38,0,0,5.57-3.87,7.25-9.61,0,0-6.41,8.77-18.38,3,0,0-.84,6.74-10.12,7.25,0,0-1.52,10.79-2,19.56a23.46,23.46,0,0,0,6.6,17.31,26.48,26.48,0,0,0,4.2,3.61S44.26,152.57,52,161.5c0,0,2.53-4.38,4.22-8.09S58.6,148,62,146.33s12.82-6.75,15-15.52c3.88,1.52,8.43-3.37,9.78-7.59S87.77,115.46,85.41,115.29Z"/><path d="M52,162.65a1.15,1.15,0,0,1-.86-.4c-7-8-6.79-17.9-6.58-20.6a27,27,0,0,1-3.83-3.38,24.38,24.38,0,0,1-6.9-18.15c.5-8.72,2-19.55,2-19.66a1.13,1.13,0,0,1,1.07-1c8.15-.44,9-6,9-6.26a1.14,1.14,0,0,1,.59-.85,1.1,1.1,0,0,1,1,0c10.94,5.23,16.73-2.36,17-2.69a1.15,1.15,0,0,1,2,1,19.46,19.46,0,0,1-5.13,8c7.58-.66,11.51-4,11.55-4a1.15,1.15,0,0,1,1.46,0,1.13,1.13,0,0,1,.29,1.42c-1.08,2.06-1.3,3.88-.62,5.4,1.34,3.06,5.76,4.25,5.81,4.26a1.16,1.16,0,0,1,.85,1.21c-.69,7.42-3.24,12-5,14.38a11.6,11.6,0,0,0,3.48-.68c.94-2,3.46-6.7,6.16-6.51h0a3.07,3.07,0,0,1,2.39,1.38c1.09,1.62,1.08,4.55,0,8a14.07,14.07,0,0,1-6.57,8,6.18,6.18,0,0,1-3.51.62c-1.9,5.88-7.16,11.1-15.29,15.17-2.9,1.45-3.48,2.73-5,6.16l-.17.37c-1.69,3.72-4.16,8-4.26,8.19a1.16,1.16,0,0,1-.88.57Zm-14-61c-.38,2.78-1.48,11.41-1.9,18.57a22.18,22.18,0,0,0,6.29,16.46,25.44,25.44,0,0,0,4,3.45,1.12,1.12,0,0,1,.49,1.09c0,.1-1.21,10,4.94,18.23.88-1.59,2.29-4.22,3.35-6.54l.16-.37c1.6-3.52,2.48-5.45,6.1-7.27,8-4,13-9.11,14.41-14.77a1.16,1.16,0,0,1,.59-.74,1.14,1.14,0,0,1,.94,0,3.58,3.58,0,0,0,2.9-.25,11.82,11.82,0,0,0,5.38-6.63c1-3.06.86-5.25.31-6.06a.82.82,0,0,0-.66-.38h0c-.83,0-2.79,2.65-4.1,5.57a1.13,1.13,0,0,1-.53.55,13.86,13.86,0,0,1-7.4,1,1.14,1.14,0,0,1-.61-2s4.62-4.2,5.76-13.86c-1.66-.6-5-2.16-6.38-5.24a7.11,7.11,0,0,1-.47-4.15,28.46,28.46,0,0,1-13.36,2.82,1.15,1.15,0,0,1-1.07-.81A1.13,1.13,0,0,1,57.61,99,22.53,22.53,0,0,0,62,94.64c-3.14,1.71-7.91,2.87-14.12.31a9.82,9.82,0,0,1-1.43,2.56C45.14,99.18,42.63,101.2,38,101.68Z"/><path class="cls-6" d="M84.23,80.21c3-14-19.22-18-30-10.62C42.57,67.73,32,76.67,35.83,85.78,24,89.66,24,100.45,32.29,103.32A10.93,10.93,0,0,1,29.76,107a19.3,19.3,0,0,0,6.3,1.17c.5-4.36.95-7.58.95-7.58,9.28-.51,10.12-7.25,10.12-7.25,12,5.73,18.38-3,18.38-3-1.68,5.74-7.25,9.61-7.25,9.61,10.29.17,15.52-4.38,15.52-4.38-4.56,8.6,5.9,11.3,5.9,11.3-1,11-6.24,15.52-6.24,15.52a12.74,12.74,0,0,0,6.75-.85s2.86-6.41,5.22-6.24a2,2,0,0,1,1.79,1.4c7.41-5.44,4.12-12.19,4.12-12.19C98.91,96.4,95.36,81.9,84.23,80.21Z"/><path d="M75.25,123.63a16.84,16.84,0,0,1-2-.12,1.14,1.14,0,0,1-.61-2s4.62-4.2,5.76-13.86c-1.66-.6-5-2.16-6.38-5.24a7.11,7.11,0,0,1-.47-4.15,28.46,28.46,0,0,1-13.36,2.82,1.15,1.15,0,0,1-1.07-.81A1.13,1.13,0,0,1,57.61,99,22.53,22.53,0,0,0,62,94.64c-3.14,1.71-7.91,2.87-14.12.31a9.82,9.82,0,0,1-1.43,2.56c-1.31,1.67-3.82,3.69-8.43,4.17-.17,1.26-.49,3.7-.82,6.64a1.17,1.17,0,0,1-1.18,1,20.36,20.36,0,0,1-6.71-1.26,1.14,1.14,0,0,1-.32-1.9,10.13,10.13,0,0,0,1.75-2.26,8.86,8.86,0,0,1-5.41-8.12c0-3.58,2.44-8.17,9-10.71a11.14,11.14,0,0,1,2.09-10.28c3.74-4.79,10.73-7.34,17.49-6.42,7.35-4.78,19.31-4.86,26.38-.12,4,2.68,5.81,6.56,5.23,11a14.07,14.07,0,0,1,10,9.32,16.69,16.69,0,0,1-3,16.12,10.81,10.81,0,0,1,.55,3.86c-.11,2.41-1.11,5.93-5.31,9a1.14,1.14,0,0,1-1,.18,1.16,1.16,0,0,1-.75-.67c-.23-.57-.54-.67-.81-.69-.83,0-2.79,2.65-4.1,5.57a1.13,1.13,0,0,1-.53.55A13.1,13.1,0,0,1,75.25,123.63ZM73.78,94.42a1.13,1.13,0,0,1,1,1.67c-1.08,2.06-1.3,3.88-.62,5.4,1.34,3.06,5.76,4.25,5.81,4.26a1.16,1.16,0,0,1,.85,1.21c-.69,7.42-3.24,12-5,14.38a11.6,11.6,0,0,0,3.48-.68c.94-2,3.46-6.7,6.16-6.51a3.07,3.07,0,0,1,2,.88c5.32-4.62,2.94-9.81,2.83-10a1.14,1.14,0,0,1,.19-1.27,14.34,14.34,0,0,0,2.94-14.36,11.61,11.61,0,0,0-9.36-8A1.13,1.13,0,0,1,83.12,80a8.9,8.9,0,0,0-4.07-9.8c-6.39-4.28-17.69-4.11-24.19.36a1.15,1.15,0,0,1-.83.18c-6.11-1-12.45,1.24-15.78,5.5a8.75,8.75,0,0,0-1.37,9.12,1.18,1.18,0,0,1,0,.92,1.13,1.13,0,0,1-.69.61c-6.28,2.07-8.54,6-8.57,9s1.91,5.33,5,6.42a1.15,1.15,0,0,1,.69,1.49,11,11,0,0,1-1.58,2.76,21.59,21.59,0,0,0,3.28.51c.44-3.78.82-6.51.83-6.54a1.13,1.13,0,0,1,1.07-1c8.23-.45,9-6.2,9-6.25a1.11,1.11,0,0,1,.58-.86,1.12,1.12,0,0,1,1,0c11,5.26,16.91-2.6,17-2.68a1.14,1.14,0,0,1,2,1,19.46,19.46,0,0,1-5.13,8c7.58-.66,11.51-4,11.55-4A1.11,1.11,0,0,1,73.78,94.42Z"/><path d="M51.79,144.08a10.29,10.29,0,0,1-6.74-2.1,1.15,1.15,0,0,1-.15-1.61,1.13,1.13,0,0,1,1.6-.15c2,1.62,5.12,2,9.33,1.11,2.82-.59,9.84-3.18,13.28-6.46a1.14,1.14,0,0,1,1.57,1.66c-3.81,3.63-11.25,6.37-14.38,7A21.54,21.54,0,0,1,51.79,144.08Z"/><path d="M45.61,157.54a.78.78,0,0,1-.55-.23,13.49,13.49,0,0,1-3.8-6.57l-7.52,5.31a.77.77,0,0,1-.92,0,.79.79,0,0,1-.23-.89L38.84,140a.76.76,0,0,1,1.4.58L35,153.3l6.46-4.56a.76.76,0,0,1,.82,0,.78.78,0,0,1,.38.74s-.21,2.95,3.5,6.82a.76.76,0,0,1,0,1.07A.77.77,0,0,1,45.61,157.54Z"/><path d="M71.92,161.42a.76.76,0,0,1-.55-.23l-9.61-9.95a.77.77,0,0,1,0-1.08.76.76,0,0,1,1.07,0l9.05,9.36c1.9-2.19,8.37-10.19,10.75-20a.76.76,0,1,1,1.48.36c-2.88,11.86-11.3,20.88-11.66,21.25a.75.75,0,0,1-.54.24Z"/><path d="M28.24,218.3A1.14,1.14,0,0,1,28,216c8.73-1.72,32.51-7.16,39.19-8.69-1.93-2.79-5.22-9.3-2.38-18.75L20,196.53a1.14,1.14,0,1,1-.39-2.25L66.32,186a1.15,1.15,0,0,1,1.08.39,1.13,1.13,0,0,1,.19,1.13C63,199.87,70,207.18,70,207.26a1.14,1.14,0,0,1,.28,1.11,1.17,1.17,0,0,1-.84.8c-.31.07-30.83,7.11-41,9.11A.86.86,0,0,1,28.24,218.3Z"/><path d="M74.23,230.58a33.54,33.54,0,0,1-7.8-1c-11.91-2.85-35.49-11.76-35.73-11.85a1.14,1.14,0,1,1,.81-2.13c.24.09,23.68,8.94,35.45,11.76,11.39,2.73,18.86-.4,23.5-9.85,4.74-9.64,9.44-22.86,13.58-38.25a1.15,1.15,0,0,1,2.21.6c-4.19,15.52-8.94,28.89-13.74,38.66C88.54,226.59,82.52,230.58,74.23,230.58Z"/><path d="M70.28,208.49l-2.11-.87S77.27,185.36,85,166.3a1.14,1.14,0,0,1,2.12.86C79.39,186.22,70.28,208.49,70.28,208.49Z"/><path class="cls-2" d="M66.52,187.14c-4.89,13.16,2.7,20.91,2.7,20.91s3.43-8.37,7.86-19.23A20.06,20.06,0,0,0,66.52,187.14Z"/><path d="M69.22,209.2a1.14,1.14,0,0,1-.81-.35c-.33-.34-8-8.43-3-22.11a1.18,1.18,0,0,1,.9-.73,21.16,21.16,0,0,1,11.22,1.78,1.14,1.14,0,0,1,.57,1.46l-7.86,19.24a1.14,1.14,0,0,1-.84.68A.78.78,0,0,1,69.22,209.2Zm-1.86-21c-3.06,8.87-.2,15,1.55,17.6,1.19-2.9,3.68-9,6.69-16.38A19.4,19.4,0,0,0,67.36,188.2Z"/><path class="cls-2" d="M34.39,186.72C32,185,28.77,183.56,27.94,185c-2.84-2.53-6.64-1.77-4.55,1.33-2.09-.32-3.54,1.13-2.21,3.54-1.71,0-2.09,1.71-1.33,3a23.14,23.14,0,0,0,1.68,2.31l18.37-3.25A56.84,56.84,0,0,0,34.39,186.72Z"/><path d="M21.53,196.24a1.11,1.11,0,0,1-.88-.42,23.51,23.51,0,0,1-1.78-2.44,3.36,3.36,0,0,1-.16-3.35,2.48,2.48,0,0,1,.94-1,3.11,3.11,0,0,1,.39-2.66,3,3,0,0,1,1.66-1.16,2.34,2.34,0,0,1,.72-2.29c1.25-1.09,3.54-.83,5.51.53a2.63,2.63,0,0,1,.58-.19c2.36-.48,5.88,2,6.56,2.5h0a56.6,56.6,0,0,1,5.65,5.25A1.14,1.14,0,0,1,40.1,193l-18.37,3.25Zm1.31-8.87a1.16,1.16,0,0,0-.93.34c-.2.3-.11.88.27,1.56a1.16,1.16,0,0,1,0,1.13,1.14,1.14,0,0,1-1,.56c-.38,0-.46.14-.49.19a1.13,1.13,0,0,0,.14,1A16.41,16.41,0,0,0,22,193.86l15.56-2.75a40,40,0,0,0-3.84-3.47h0c-2.42-1.78-4.43-2.31-4.82-2.08a1.12,1.12,0,0,1-.8.53,1.1,1.1,0,0,1-.91-.29c-1.5-1.33-3-1.35-3.27-1.12a1.83,1.83,0,0,0,.42,1,1.14,1.14,0,0,1-1.12,1.76Z"/><path d="M26.55,195a.75.75,0,0,1-.55-.24,32.5,32.5,0,0,0-5.23-4.31.76.76,0,0,1,.82-1.28,33.39,33.39,0,0,1,5.51,4.54.76.76,0,0,1-.55,1.29Z"/><path d="M31.68,194.12a.77.77,0,0,1-.58-.26,38.46,38.46,0,0,0-8.1-6.93.76.76,0,0,1,.78-1.31,39.14,39.14,0,0,1,8.47,7.24.76.76,0,0,1-.08,1.07A.72.72,0,0,1,31.68,194.12Z"/><path d="M36.17,193.23a.78.78,0,0,1-.57-.24,44.18,44.18,0,0,0-8.28-7.19.77.77,0,0,1-.23-1.05.75.75,0,0,1,1.05-.23A46,46,0,0,1,36.73,192a.76.76,0,0,1,0,1.07A.73.73,0,0,1,36.17,193.23Z"/><path d="M27.31,185.08h0a1.15,1.15,0,0,1-1.13-1.15,96.37,96.37,0,0,0-1.75-17.47,1.14,1.14,0,0,1,2.24-.46,96.67,96.67,0,0,1,1.79,17.94A1.14,1.14,0,0,1,27.31,185.08Z"/><path d="M10.87,208.41a.85.85,0,0,1-.31-.06.76.76,0,0,1-.39-1,22.42,22.42,0,0,1,6.37-8.08.76.76,0,1,1,.92,1.21A21.12,21.12,0,0,0,11.57,208,.78.78,0,0,1,10.87,208.41Z"/><path d="M57,211.58a.8.8,0,0,1-.46-.16c-7.07-5.42-5-15.52-4.9-15.94a.78.78,0,0,1,.91-.59.77.77,0,0,1,.58.91c0,.09-2,9.59,4.34,14.41a.77.77,0,0,1,.14,1.07A.79.79,0,0,1,57,211.58Z"/><path d="M76.39,220.3a.76.76,0,0,1-.65-.36l-4.55-7.4a.76.76,0,0,1,1.29-.8l4.56,7.4a.76.76,0,0,1-.25,1.05A.73.73,0,0,1,76.39,220.3Z"/><path d="M49.19,168.06a1.19,1.19,0,0,1-.51-.12,1.14,1.14,0,0,1-.51-1.53c.08-.15,1.86-3.71,2.86-5.47a1.13,1.13,0,0,1,1.55-.43,1.14,1.14,0,0,1,.43,1.56c-1,1.7-2.78,5.33-2.79,5.36A1.15,1.15,0,0,1,49.19,168.06Z"/><ellipse class="cls-7" cx="51.66" cy="172.87" rx="1.83" ry="2.34"/><ellipse class="cls-7" cx="53.05" cy="240.54" rx="1.83" ry="2.34"/><path d="M47.3,263.25h-.08a.76.76,0,0,1-.68-.83,285.69,285.69,0,0,0,1.39-34.05.76.76,0,1,1,1.52-.05,288,288,0,0,1-1.4,34.26A.76.76,0,0,1,47.3,263.25Z"/><path d="M51.22,122.59a.73.73,0,0,1-.25,0l-3-1a.76.76,0,0,1-.47-1,.74.74,0,0,1,1-.47l3,1a.76.76,0,0,1-.24,1.48Z"/><path d="M55.83,132.27a.71.71,0,0,1-.41-.13,29.39,29.39,0,0,0-10.63-4.56.76.76,0,0,1,.21-1.51,30.41,30.41,0,0,1,11.25,4.8.76.76,0,0,1,.22,1A.77.77,0,0,1,55.83,132.27Z"/><path d="M50.84,133.78a.7.7,0,0,1-.41-.12,26.1,26.1,0,0,0-3.91-1.95.76.76,0,0,1-.44-1,.75.75,0,0,1,1-.44,25.89,25.89,0,0,1,4.19,2.09.76.76,0,0,1,.23,1.05A.74.74,0,0,1,50.84,133.78Z"/><path d="M43.82,104.09a8.51,8.51,0,0,1-2.81-.46.77.77,0,0,1-.43-1,.76.76,0,0,1,1-.43,7.08,7.08,0,0,0,6-.75.76.76,0,0,1,.83,1.27A8.29,8.29,0,0,1,43.82,104.09Z"/><path d="M67.66,109.88a.93.93,0,0,1-.23,0,12.3,12.3,0,0,1-7.08-5.37.76.76,0,0,1,.32-1,.78.78,0,0,1,1,.33,11.06,11.06,0,0,0,6.2,4.62.76.76,0,0,1,.49,1A.78.78,0,0,1,67.66,109.88Z"/><path class="cls-2" d="M45.27,86.54a.76.76,0,0,1-.74-.6A8.2,8.2,0,0,1,46,79.63a8,8,0,0,1,5.43-3.46.76.76,0,0,1,.19,1.51,6.52,6.52,0,0,0-4.38,2.82A6.61,6.61,0,0,0,46,85.61a.77.77,0,0,1-.58.91Z"/><path class="cls-2" d="M84.93,100.64a.77.77,0,0,1-.51-.19.76.76,0,0,1-.06-1.07,6.61,6.61,0,0,0,.86-7.47.76.76,0,1,1,1.32-.75s2.75,5-1,9.23A.75.75,0,0,1,84.93,100.64Z"/><ellipse cx="43.57" cy="108.48" rx="2.2" ry="1.69" transform="translate(-70.27 135.08) rotate(-81.27)"/><ellipse cx="62.16" cy="112.4" rx="2.2" ry="1.69" transform="translate(-58.38 156.78) rotate(-81.27)"/><path class="cls-1" d="M561.37,30h-156a15,15,0,0,1,0-30h156a15,15,0,0,1,0,30Z"/><path class="cls-2" d="M408.23,7.87h3.89c2.63,0,4.64.93,4.64,3.73s-2,3.93-4.58,3.93H410.6v4.21h-2.37ZM412,13.65c1.64,0,2.42-.69,2.42-2.05s-.86-1.84-2.5-1.84H410.6v3.89Z"/><path class="cls-2" d="M418.31,13.86c0-3.9,2.51-6.19,5.51-6.19a4.84,4.84,0,0,1,3.47,1.52l-1.23,1.5a3.15,3.15,0,0,0-2.19-1c-1.8,0-3.14,1.54-3.14,4.08s1.21,4.13,3.09,4.13a3.29,3.29,0,0,0,2.45-1.17l1.24,1.47A4.77,4.77,0,0,1,423.74,20C420.74,20,418.31,17.81,418.31,13.86Z"/><path class="cls-2" d="M444.78,9.41a23.57,23.57,0,0,1-2.15,4.35,42,42,0,0,1,3.84,3.54l-1.64,1.83a31.3,31.3,0,0,0-3.56-3.54,20,20,0,0,1-5.95,4.95l-1.79-1.62a17.86,17.86,0,0,0,6.08-4.72,42.35,42.35,0,0,0-4.32-3l1.36-1.64c1.28.79,3,1.94,4.25,2.9a16.1,16.1,0,0,0,1.78-3.81,10.32,10.32,0,0,0,.39-1.47l2.38.83C445.24,8.34,444.94,9,444.78,9.41Z"/><path class="cls-2" d="M452,12.42h8.59c.76,0,1.46-.06,1.87-.1v2.52c-.38,0-1.19-.08-1.87-.08H452c-.91,0-2,0-2.58.08V12.32C450,12.37,451.18,12.42,452,12.42Z"/><path class="cls-2" d="M472.38,8.32c0,.5,0,1-.07,1.44h3a6.78,6.78,0,0,0,1.2-.11l1.4.67a6.61,6.61,0,0,0-.12.85c-.06,1.73-.25,6.2-.94,7.83a2,2,0,0,1-2.07,1.23c-.91,0-1.87-.06-2.64-.13L471.9,18a13.53,13.53,0,0,0,2.24.22.85.85,0,0,0,.91-.56,22.1,22.1,0,0,0,.67-5.94h-3.6c-.59,4.23-2.11,6.74-5,8.78L465.29,19a9.6,9.6,0,0,0,2.09-1.57,9.37,9.37,0,0,0,2.64-5.7h-2.11c-.54,0-1.42,0-2.11.07V9.65c.67.07,1.5.11,2.11.11h2.29c0-.45,0-.91,0-1.39a12.58,12.58,0,0,0-.11-1.47h2.35C472.43,7.27,472.39,7.94,472.38,8.32Z"/><path class="cls-2" d="M484,12.42h8.59c.76,0,1.46-.06,1.87-.1v2.52c-.38,0-1.19-.08-1.87-.08H484c-.91,0-2,0-2.58.08V12.32C482,12.37,483.18,12.42,484,12.42Z"/><path class="cls-2" d="M497.91,13.72c.74-.77,2-2.42,3-3.57s2.16-1.38,3.33-.24,2.37,2.7,3.31,3.73,2.39,2.56,3.91,3.92l-1.65,1.92c-1.15-1.09-2.51-2.64-3.52-3.83s-2.19-2.7-2.95-3.55c-.56-.62-.86-.54-1.32.05-.64.8-1.78,2.38-2.47,3.3-.37.52-.73,1.1-1,1.52l-1.95-2A11,11,0,0,0,497.91,13.72Z"/><path class="cls-2" d="M520.7,20.49l-1.2-1.91a12.53,12.53,0,0,0,1.48-.25A4.35,4.35,0,0,0,524.63,14a4,4,0,0,0-3.36-4.23,31.11,31.11,0,0,1-1,4.34c-1,3.23-2.33,5.22-4.08,5.22s-3.25-2-3.25-4.66a7.11,7.11,0,0,1,7.35-6.85,6.09,6.09,0,0,1,6.46,6.24C526.79,17.48,524.73,19.86,520.7,20.49Zm-4.41-3.59c.68,0,1.3-1,2-3.17a24.06,24.06,0,0,0,.85-3.87A5,5,0,0,0,515,14.5C515,16.12,515.67,16.9,516.29,16.9Z"/><path class="cls-2" d="M538.67,18.44a48,48,0,0,1,4.56,1.87l-2.21.85a31.77,31.77,0,0,0-4.16-1.89l1.44-.83h-4.68l1.46.64a20.17,20.17,0,0,1-5,2.1c-.34-.37-1-1.06-1.41-1.4a18.72,18.72,0,0,0,4.4-1.34h-2.37V11.91H536a4.45,4.45,0,0,0-1.11-1.17,4.23,4.23,0,0,0,.93-.8h-1.44V11.6h-1.7V9.94H531.3a5.35,5.35,0,0,1-1.53,2.66,5.65,5.65,0,0,0-1.25-1.19A4.33,4.33,0,0,0,529.88,8V6.53l1.22.3a18.83,18.83,0,0,0,3.32-.64l1.17,1.12a19.75,19.75,0,0,1-4.06.69v.08a3.93,3.93,0,0,1,0,.48h4.4v1.3A2.87,2.87,0,0,0,536.47,8V6.55l1.28.3a24.31,24.31,0,0,0,3.59-.66l1.15,1.14a25.31,25.31,0,0,1-4.37.69V8.1c0,.14,0,.3,0,.46h5V9.94h-2v1.68h-1.7V9.94h-1.61a4.39,4.39,0,0,1-1.57,2h5.22v6.53Zm-6.12-4.71h7V13h-7Zm0,1.78h7v-.69h-7Zm0,1.78h7v-.71h-7Z"/><path class="cls-2" d="M547.16,12.74v8.39h-1.89V6.79h6.11v6Zm0-4.5v.87h2.45V8.24Zm2.45,3.06v-.91h-2.45v.91Zm1,7.57v.9h-1.77V13.84H555v5Zm0-3.46V17.3h2.64V15.41Zm8.17,3.44c0,1.06-.21,1.61-.88,1.91a7.89,7.89,0,0,1-3.14.37,6.66,6.66,0,0,0-.64-1.95c.93.06,2,0,2.32,0s.42-.1.42-.39V12.76h-4.34v-6h6.26ZM554.3,8.23v.88h2.53V8.23Zm2.53,3.09v-.93H554.3v.93Z"/><polygon class="cls-1" points="466.7 22 483.37 39 500.03 22 466.7 22"/><ellipse class="cls-3" cx="525.55" cy="132.46" rx="99.18" ry="65.22"/><path class="cls-4" d="M470.53,97.65h2.4l.94,5.8c.18,1.24.37,2.49.55,3.77h.06c.24-1.28.5-2.54.75-3.77l1.38-5.8h2l1.36,5.8c.26,1.21.5,2.49.76,3.77h.08c.17-1.28.35-2.54.52-3.77l.95-5.8h2.24l-2.19,11.86h-2.95l-1.33-5.86c-.19-.92-.37-1.84-.51-2.75h-.06c-.16.91-.32,1.83-.52,2.75l-1.29,5.86h-2.9Z"/><path class="cls-4" d="M485.94,97.81a1.37,1.37,0,1,1,1.37,1.3A1.26,1.26,0,0,1,485.94,97.81Zm.19,2.74h2.35v9h-2.35Z"/><path class="cls-4" d="M491,100.55h1.92l.18,1.18h.05a4.14,4.14,0,0,1,2.91-1.41c1.94,0,2.77,1.35,2.77,3.61v5.58h-2.36v-5.3c0-1.39-.38-1.87-1.26-1.87a2.51,2.51,0,0,0-1.86,1v6.16H491Z"/><path class="cls-4" d="M500.73,105c0-2.91,1.83-4.71,3.77-4.71a3.1,3.1,0,0,1,2.27,1l-.08-1.41V96.74H509v12.77h-1.91l-.17-.93h-.07a3.73,3.73,0,0,1-2.48,1.16C502.18,109.74,500.73,108,500.73,105Zm6,1.84v-3.94a2.45,2.45,0,0,0-1.68-.67c-1,0-1.86,1-1.86,2.75s.67,2.79,1.86,2.79A2.05,2.05,0,0,0,506.69,106.87Z"/><path class="cls-4" d="M511,105a4.32,4.32,0,1,1,4.31,4.71A4.38,4.38,0,0,1,511,105Zm6.21,0c0-1.68-.69-2.78-1.9-2.78s-1.91,1.1-1.91,2.78.69,2.79,1.91,2.79S517.2,106.73,517.2,105Z"/><path class="cls-4" d="M520.73,100.55h2.36l1,4.42c.18.88.29,1.73.45,2.62h.07c.17-.89.33-1.76.56-2.62l1.08-4.42h2.08l1.13,4.42c.2.88.36,1.73.56,2.62h.08c.16-.89.28-1.74.44-2.62l1-4.42h2.18l-2.21,9h-2.77l-.94-3.9c-.2-.85-.34-1.67-.52-2.61h-.08c-.17.94-.3,1.77-.49,2.61l-.92,3.9h-2.69Z"/><path class="cls-4" d="M534.53,108.47,535.6,107a3.92,3.92,0,0,0,2.4,1c.9,0,1.3-.39,1.3-1s-.93-1-1.88-1.34c-1.13-.44-2.4-1.12-2.4-2.63s1.3-2.74,3.35-2.74a5,5,0,0,1,3,1.11l-1.06,1.42a3.34,3.34,0,0,0-1.92-.76c-.81,0-1.2.35-1.2.86s.83.9,1.78,1.25c1.18.45,2.49,1,2.49,2.7s-1.23,2.84-3.57,2.84A5.63,5.63,0,0,1,534.53,108.47Z"/><path class="cls-4" d="M543.34,107.61h2.55v-7.19h-2.15V99a7.55,7.55,0,0,0,2.76-1h1.74v9.64h2.22v1.9h-7.12Z"/><path class="cls-4" d="M552.16,103.69c0-3.91,1.58-5.94,4-5.94s4,2,4,5.94-1.57,6-4,6S552.16,107.61,552.16,103.69Zm5.79,0c0-3.2-.75-4.1-1.78-4.1s-1.79.9-1.79,4.1.77,4.21,1.79,4.21S558,106.9,558,103.69Z"/><path class="cls-4" d="M573.62,110.26l-1.2-1.9a10.88,10.88,0,0,0,1.48-.26,4.34,4.34,0,0,0,3.65-4.29,4,4,0,0,0-3.36-4.22,31.11,31.11,0,0,1-1,4.34c-1,3.23-2.33,5.21-4.08,5.21s-3.25-2-3.25-4.65a7.11,7.11,0,0,1,7.35-6.85,6.09,6.09,0,0,1,6.46,6.24C579.71,107.26,577.65,109.64,573.62,110.26Zm-4.41-3.58c.68,0,1.3-1,2-3.17a24.06,24.06,0,0,0,.85-3.87,5,5,0,0,0-4.07,4.64C568,105.9,568.59,106.68,569.21,106.68Z"/><path class="cls-4" d="M460.71,137.52,459,135.9c3.09-1.07,4.45-2.44,4.45-6.38v-.61h-3.79v2.18c0,.7.05,1.36.06,1.68h-2.24a12.43,12.43,0,0,0,.1-1.68v-2.18h-1.36c-.8,0-1.38,0-1.73.06V126.8a11.55,11.55,0,0,0,1.73.14h1.36v-1.58a14.13,14.13,0,0,0-.1-1.44h2.28a9.29,9.29,0,0,0-.1,1.44v1.58h3.79v-1.68a12.24,12.24,0,0,0-.09-1.49h2.29a9.63,9.63,0,0,0-.12,1.49v1.68h1.19a9.49,9.49,0,0,0,1.76-.11V129c-.35,0-.91-.05-1.76-.05h-1.19v.53C465.52,133.41,464.56,135.82,460.71,137.52Z"/><path class="cls-4" d="M471.92,135.23l-1.73-1.18a17,17,0,0,0,3-4.13l1.81.85A25.29,25.29,0,0,1,471.92,135.23Zm6.71-9.95v1.28h3.73a11.88,11.88,0,0,0,1.58-.12v2.1c-.51,0-1.14,0-1.57,0h-3.74v7.45c0,.92-.53,1.5-1.67,1.5a24.76,24.76,0,0,1-2.61-.14l-.19-2a10.8,10.8,0,0,0,1.78.19c.41,0,.57-.16.59-.57,0-.59,0-5.67,0-6.42v0h-4.07c-.48,0-1.1,0-1.55.07v-2.13a13,13,0,0,0,1.55.13h4.07v-1.28a7.8,7.8,0,0,0-.15-1.4h2.37A14,14,0,0,0,478.63,125.28Zm6,8.8-1.89,1a31,31,0,0,0-2.59-4.29l1.74-.94A36.19,36.19,0,0,1,484.63,134.08Zm-1.79-11.43a1.86,1.86,0,1,1-1.86,1.86A1.85,1.85,0,0,1,482.84,122.65Zm0,2.72a.87.87,0,0,0,0-1.73.87.87,0,1,0,0,1.73Z"/><path class="cls-4" d="M489.6,129.2h8.6c.75,0,1.45-.07,1.87-.1v2.51c-.39,0-1.2-.08-1.87-.08h-8.6c-.91,0-2,0-2.58.08V129.1C487.6,129.15,488.77,129.2,489.6,129.2Z"/><path class="cls-4" d="M506.58,125.77a11.31,11.31,0,0,0-.16-1.92h2.49a18.6,18.6,0,0,0-.14,1.92v2.37a52.75,52.75,0,0,1,6.69,2.48l-.91,2.21a46.55,46.55,0,0,0-5.78-2.38V135c0,.46.08,1.58.14,2.24h-2.49a18.74,18.74,0,0,0,.16-2.24Z"/><path class="cls-4" d="M521.71,125.58a42.63,42.63,0,0,0-.77,6.19,7.41,7.41,0,0,0,.07,1c.21-.57.48-1.11.72-1.65l1,.8c-.45,1.31-1,2.94-1.16,3.81a4.17,4.17,0,0,0-.08.75c0,.16,0,.43,0,.66l-1.8.14a18.67,18.67,0,0,1-.64-5.12,51.94,51.94,0,0,1,.65-6.68,12.43,12.43,0,0,0,.16-1.57l2.21.2A10.28,10.28,0,0,0,521.71,125.58Zm8.09-.56c0,.35,0,.94,0,1.65a22,22,0,0,0,2.48-.37v2c-.77.11-1.6.21-2.48.27,0,1.56.11,2.84.17,3.93a10.5,10.5,0,0,1,3.11,2.06l-1.11,1.68a18,18,0,0,0-1.95-1.62c-.09,1.54-1,2.63-3.12,2.63s-3.59-.93-3.59-2.61,1.38-2.74,3.56-2.74a6.8,6.8,0,0,1,1,.07c0-1-.1-2.16-.11-3.3-.39,0-.77,0-1.14,0-.94,0-1.86,0-2.8-.1v-1.91a25.58,25.58,0,0,0,2.8.15c.37,0,.75,0,1.12,0,0-.78,0-1.44,0-1.77a6.16,6.16,0,0,0-.11-1.06h2.29A8.22,8.22,0,0,0,529.8,125Zm-3.17,10.34c1,0,1.31-.51,1.31-1.46v-.28a4.65,4.65,0,0,0-1.28-.18c-.91,0-1.52.38-1.52,1S525.78,135.36,526.63,135.36Z"/><path class="cls-4" d="M537.52,127a32.85,32.85,0,0,0,.1,3.39c.22,2.31.7,3.89,1.71,3.89.75,0,1.39-1.87,1.7-3.15l1.6,1.95c-1.06,2.79-2.07,3.76-3.35,3.76-1.76,0-3.28-1.58-3.73-5.87-.16-1.47-.17-3.34-.17-4.32a10.31,10.31,0,0,0-.13-1.63l2.46,0A13.06,13.06,0,0,0,537.52,127Zm11.11,6.71-2.1.81c-.25-2.57-1.1-6.46-2.85-8.45l2-.65C547.24,127.28,548.45,131.28,548.63,133.73Z"/><path class="cls-4" d="M552.38,127.26c1.24-.38,4.5-1.54,6.84-1.54,2.9,0,5.17,1.67,5.17,4.63,0,3.63-3.46,6-9.09,6.24l-.93-2.13c4.34-.11,7.73-1.36,7.73-4.14a2.64,2.64,0,0,0-3-2.66c-2.35,0-6.15,1.6-7.81,2.32l-.91-2.24A18.67,18.67,0,0,0,552.38,127.26Z"/><path class="cls-4" d="M575,124.7a6.24,6.24,0,0,0,0,.66,34.52,34.52,0,0,0,4-.44v1.84c-1.06.13-2.51.28-4.07.36v1.65c1.62-.08,3-.21,4.28-.39l0,1.89c-1.44.16-2.69.27-4.23.32,0,.61.07,1.26.12,1.91a12.48,12.48,0,0,1,4.48,2.41l-1.15,1.79a12.5,12.5,0,0,0-3.24-2.22c0,.22,0,.42,0,.59,0,1.36-1,2.42-3.15,2.42-2.57,0-3.91-1-3.91-2.67s1.49-2.76,4-2.76c.34,0,.68,0,1,.05,0-.5-.05-1-.07-1.49h-.83c-.93,0-2.75-.08-3.81-.21l0-1.88a28.59,28.59,0,0,0,3.86.3H573c0-.53,0-1.1,0-1.65h-.6a35.32,35.32,0,0,1-3.92-.29l0-1.82a30.37,30.37,0,0,0,4,.35H573v-.75a6.92,6.92,0,0,0-.09-1.11h2.16A11.26,11.26,0,0,0,575,124.7Zm-3.23,11c.85,0,1.41-.24,1.41-1.17,0-.17,0-.4,0-.69a9.38,9.38,0,0,0-1.31-.11c-1.14,0-1.76.45-1.76,1S570.67,135.68,571.78,135.68Z"/><path class="cls-4" d="M584.22,125.45l6.92-.59c1.65-.14,3.39-.24,4.53-.29v2.05a17.6,17.6,0,0,0-3.08.22,4.88,4.88,0,0,0-3.4,4.49c0,2.64,2.47,3.58,5.19,3.73l-.75,2.19c-3.37-.23-6.53-2-6.53-5.49a6.4,6.4,0,0,1,2.38-4.95c-1.5.16-4.77.51-6.63.92l-.2-2.2C583.3,125.52,583.92,125.48,584.22,125.45Zm10.46,4.92-1.22.54a12.43,12.43,0,0,0-1.25-2.22l1.19-.5A20.72,20.72,0,0,1,594.68,130.37Zm1.85-.79-1.2.58A13.6,13.6,0,0,0,594,128l1.17-.55A23.16,23.16,0,0,1,596.53,129.58Z"/><path class="cls-4" d="M480.14,159.58a14.4,14.4,0,0,1-.94,4.12,8.92,8.92,0,0,0-1.39-.67,11.55,11.55,0,0,0,.81-3.71Zm1.86-1.3v6.63h-1.63v-6.5l-2.23.17-.19-1.65,1.15-.06c.24-.29.48-.61.72-.94a14.48,14.48,0,0,0-1.82-2.25l.93-1.28a4,4,0,0,0,.37.34,20.94,20.94,0,0,0,1.15-2.77l1.65.58a36.14,36.14,0,0,1-1.81,3.26,6.72,6.72,0,0,1,.51.63,26,26,0,0,0,1.44-2.6l1.55.72c-.88,1.35-2,2.93-3,4.21l1.39-.08c-.16-.35-.34-.7-.51-1l1.34-.56a16.24,16.24,0,0,1,1.11,2.35V156h8.78v3.17h-1.66v-1.7h-5.54v1.7h-1.58v-.48l-1.11.51c-.05-.27-.14-.59-.24-.95Zm1.47,1a11.75,11.75,0,0,1,.82,2.82l-1.41.47a12.23,12.23,0,0,0-.74-2.88Zm2.6-1h1.71v1.28a5.57,5.57,0,0,1-3.41,5.41,8.66,8.66,0,0,0-1.3-1.26c2.63-1.25,3-3,3-4.18Zm1.44-5.47h-3.32V151.2h3.32V150h1.89v1.24h3.37v1.56H489.4v.92h2.91v1.54h-7.54v-1.54h2.74Zm3.92,10.38c.22,0,.3-.25.33-2a4.21,4.21,0,0,0,1.53.7c-.17,2.29-.6,2.89-1.69,2.89h-1c-1.36,0-1.65-.52-1.65-2.1v-4.42h1.71v4.42c0,.43,0,.49.24.49Z"/><path class="cls-4" d="M502.21,155.51c-.08-.19-.14-.38-.21-.56-.13-.37-.22-.67-.32-.95a37.61,37.61,0,0,1-5.39-.14l-.11-1.84a33.5,33.5,0,0,0,5,.24c-.16-.51-.32-1-.52-1.58l2.15-.24c.08.57.17,1.13.29,1.68a19,19,0,0,0,3.15-.69l.26,1.84a22.61,22.61,0,0,1-2.95.59q.12.39.24.75c.08.23.18.47.27.72a20.14,20.14,0,0,0,3.06-.64l.32,1.89a22.38,22.38,0,0,1-2.56.5,13.31,13.31,0,0,0,.83,1.42,4.6,4.6,0,0,0,.72.82l-1,1.47c-.9-.17-2.63-.38-3.8-.51l.16-1.52,2,.19c-.34-.56-.64-1.12-.9-1.66a62.32,62.32,0,0,1-7,0l-.11-1.89A40.51,40.51,0,0,0,502.21,155.51Zm-3.95,5.36c0,1.19,1.12,1.67,3.23,1.67a20.61,20.61,0,0,0,4-.36l-.11,2a24.88,24.88,0,0,1-3.89.3c-3.21,0-5.19-.94-5.22-3.23a5.32,5.32,0,0,1,.69-2.58l2,.38A3,3,0,0,0,498.26,160.87Z"/><path class="cls-4" d="M519,151.7a6.24,6.24,0,0,0,0,.66,34.52,34.52,0,0,0,4-.44v1.84c-1.06.13-2.51.28-4.07.36v1.65c1.62-.08,3-.21,4.28-.39l0,1.89c-1.44.16-2.69.27-4.23.32,0,.61.07,1.26.12,1.91a12.48,12.48,0,0,1,4.48,2.41l-1.15,1.79a12.5,12.5,0,0,0-3.24-2.22c0,.22,0,.42,0,.59,0,1.36-1,2.42-3.15,2.42-2.57,0-3.91-1-3.91-2.67s1.49-2.76,4-2.76c.34,0,.68,0,1,.05,0-.5-.05-1-.07-1.49h-.83c-.93,0-2.75-.08-3.81-.21l0-1.88a28.59,28.59,0,0,0,3.86.3H517c0-.53,0-1.1,0-1.65h-.6a35.32,35.32,0,0,1-3.92-.29l0-1.82a30.37,30.37,0,0,0,4,.35H517v-.75a6.92,6.92,0,0,0-.09-1.11h2.16A11.26,11.26,0,0,0,519,151.7Zm-3.23,11c.85,0,1.41-.24,1.41-1.17,0-.17,0-.4,0-.69a9.38,9.38,0,0,0-1.31-.11c-1.14,0-1.76.45-1.76,1S514.67,162.68,515.78,162.68Z"/><path class="cls-4" d="M535.89,152a4.54,4.54,0,0,1,0,.49c1.62,0,3.81,0,4.65,0l0,1.89c-1-.05-2.45-.08-4.63-.08,0,.81,0,1.69,0,2.4a4,4,0,0,1,.58,2.19c0,2.08-1.22,4.74-5.13,5.83l-1.71-1.7a7.22,7.22,0,0,0,3.91-1.82,4.18,4.18,0,0,1-.72.08,2.83,2.83,0,0,1-2.76-2.95,3,3,0,0,1,3.21-3,3.39,3.39,0,0,1,.64.05c0-.36,0-.72,0-1.08-2.42,0-4.91.13-6.88.24l0-1.93c1.82,0,4.74-.07,6.91-.1,0-.21,0-.37,0-.5a11.67,11.67,0,0,0-.16-1.39H536C536,150.87,535.91,151.73,535.89,152Zm-2.67,7.49c.67,0,1.26-.51,1-1.92a1.18,1.18,0,0,0-1-.56,1.24,1.24,0,0,0,0,2.48Z"/><path class="cls-4" d="M548.66,152.2c-.11.48-.23,1.07-.34,1.64.53,0,1-.06,1.35-.06,1.69,0,2.89.75,2.89,3.06a15.61,15.61,0,0,1-.91,5.87,2.56,2.56,0,0,1-2.62,1.48,10.41,10.41,0,0,1-1.92-.23l-.36-2.11a9.83,9.83,0,0,0,2,.33,1.18,1.18,0,0,0,1.2-.68,12.84,12.84,0,0,0,.64-4.44c0-1.28-.54-1.45-1.55-1.45-.26,0-.66,0-1.1.06a33.92,33.92,0,0,1-3.27,8.58l-2.08-.83a24,24,0,0,0,3.23-7.53l-1.37.16-1.78.28-.19-2.18a13.94,13.94,0,0,0,1.71,0c.5,0,1.25-.07,2.06-.13a17,17,0,0,0,.34-3.39l2.39.24C548.85,151.28,548.74,151.8,548.66,152.2Zm8.61,6.13-2,.94a18.59,18.59,0,0,0-2.69-6.08l1.9-.82A27.92,27.92,0,0,1,557.27,158.33Z"/><path class="cls-4" d="M567.39,154.76c0-1-.76-1.51-2-1.51a3.37,3.37,0,0,0-2.56,1.27l-1.32-1.22a5.34,5.34,0,0,1,4.13-2c2.33,0,4,1.07,4,3.2,0,2.35-3.49,2.62-3.25,4.85h-2.06C564,156.89,567.39,156.31,567.39,154.76ZM564,162.25a1.41,1.41,0,1,1,1.41,1.41A1.35,1.35,0,0,1,564,162.25Z"/><circle class="cls-3" cx="543.36" cy="224.78" r="10.14"/><circle class="cls-3" cx="563.03" cy="193.71" r="15.35"/><circle class="cls-3" cx="521.53" cy="243.09" r="7.6"/><circle class="cls-3" cx="500.2" cy="254.09" r="4.67"/><path class="cls-8" d="M439.66,271.18l-1.54-39.87c17.92.37,18.91-7.09,18.58-19.8-.34-13-5.29-41.95-9-53.2S436.58,143,430.08,143.64c-4.05.34-8.3.94-11.55,1.45-.82,4.52-4.35,20.62-15.57,40.5-11.21-19.88-14.74-36-15.56-40.5-3.25-.51-7.5-1.11-11.55-1.45-7-.68-13.27,1.2-19.92,15.86s-11.6,37.34-12.62,47.57,2.9,17.39,11.25,17.39c5.38,0,10.62-2.4,13.67-4.11l-2,50.83"/><path d="M439.65,272.34a1.16,1.16,0,0,1-1.15-1.11L437,231.35a1.14,1.14,0,0,1,.33-.85,1.19,1.19,0,0,1,.84-.35c7.24.16,11.8-1,14.35-3.52,3.11-3.14,3.22-8.69,3.06-15.09-.34-12.9-5.21-41.55-9-52.87-3.15-9.44-9.27-14.63-16.37-13.88-3.82.32-7.79.87-10.69,1.31-1.07,5.44-4.83,21.07-15.54,40.06a1.16,1.16,0,0,1-1,.58,1.15,1.15,0,0,1-1-.58c-10.71-19-14.48-34.62-15.55-40.06-2.89-.44-6.86-1-10.66-1.31-7-.69-12.62,1.61-18.77,15.19-6.53,14.39-11.47,36.66-12.52,47.21-.58,5.75.49,10.45,3,13.22a9.15,9.15,0,0,0,7.1,2.9c5.26,0,10.47-2.49,13.1-4a1.19,1.19,0,0,1,1.17,0,1.15,1.15,0,0,1,.55,1l-2,50.84a1.14,1.14,0,0,1-1.19,1.11,1.15,1.15,0,0,1-1.11-1.2L367,222.31a28.85,28.85,0,0,1-12.44,3.31,11.54,11.54,0,0,1-8.82-3.66c-2.95-3.27-4.22-8.59-3.58-15,1.07-10.7,6.09-33.31,12.72-47.94s13.27-17.3,21.08-16.52c4.21.35,8.64,1,11.62,1.45a1.15,1.15,0,0,1,.95.93c.79,4.29,4.1,19.45,14.43,38.33,10.34-18.88,13.65-34,14.44-38.33a1.14,1.14,0,0,1,1-.93c3-.47,7.41-1.1,11.63-1.46,9.7-1,16.06,7.32,18.78,15.45,3.82,11.47,8.75,40.49,9.09,53.54.18,6.94,0,13-3.73,16.77-2.85,2.87-7.56,4.23-14.76,4.23h0l1.49,38.66a1.16,1.16,0,0,1-1.11,1.2Z"/><path d="M434.62,180.73a.78.78,0,0,1-.33-.07.77.77,0,0,1-.37-1c4-8.54,4.53-19,4.53-19.07a.77.77,0,1,1,1.54.08c0,.43-.57,10.82-4.67,19.64A.77.77,0,0,1,434.62,180.73Z"/><path d="M371.31,180.73a.77.77,0,0,1-.7-.44c-4.11-8.82-4.65-19.21-4.67-19.64a.77.77,0,1,1,1.53-.08c0,.11.56,10.53,4.54,19.07a.77.77,0,0,1-.38,1A.71.71,0,0,1,371.31,180.73Z"/><path class="cls-2" d="M413,146v-8.87l-10,3.92-10-3.92V146s-2.26-.43-5.53-.94c.82,4.52,4.35,20.62,15.56,40.5,11.22-19.88,14.75-36,15.57-40.5C415.25,145.6,413,146,413,146Z"/><path d="M403,186.74a1.15,1.15,0,0,1-1-.58c-11.3-20-14.87-36.35-15.7-40.87a1.15,1.15,0,0,1,.31-1,1.13,1.13,0,0,1,1-.33c1.75.27,3.22.52,4.21.7v-7.49a1.14,1.14,0,0,1,.5-.95,1.16,1.16,0,0,1,1.07-.12l9.61,3.76,9.62-3.76a1.15,1.15,0,0,1,1.57,1.07v7.49c1-.18,2.46-.43,4.2-.7a1.15,1.15,0,0,1,1,.33,1.18,1.18,0,0,1,.31,1c-.83,4.52-4.4,20.83-15.7,40.87A1.16,1.16,0,0,1,403,186.74Zm-14.11-40.25c1.2,5.75,4.82,19.73,14.11,36.72,9.3-17,12.92-31,14.12-36.72-2.32.38-3.85.67-3.87.67a1.14,1.14,0,0,1-.95-.24,1.18,1.18,0,0,1-.42-.89v-7.18l-8.46,3.31a1.11,1.11,0,0,1-.84,0l-8.46-3.31V146a1.17,1.17,0,0,1-.41.89,1.15,1.15,0,0,1-1,.24S391.17,146.87,388.85,146.49Z"/><path class="cls-6" d="M398.54,75.43c-4.64-6.73.3-13.59,6-14.91s10.37,1.8,10.9,5.65c5.87-2.41,11.53,3.13,8.24,8.66a9.4,9.4,0,0,0,6.65,1,8,8,0,0,1-6.1,5.42C419.17,82.41,398.54,75.43,398.54,75.43Z"/><path d="M422.83,82.49c-6.81,0-22.71-5.3-24.66-6a1.16,1.16,0,0,1-.58-.44,10.25,10.25,0,0,1-1.37-9.73,11.76,11.76,0,0,1,8.11-7,11.3,11.3,0,0,1,8.94,1.45,7.91,7.91,0,0,1,3.05,3.85,7.87,7.87,0,0,1,7.86,2.36,6.88,6.88,0,0,1,1.1,7.26,9.46,9.46,0,0,0,4.91.35,1.11,1.11,0,0,1,1,.35,1.13,1.13,0,0,1,.29,1,9.09,9.09,0,0,1-7,6.27A7.71,7.71,0,0,1,422.83,82.49Zm-23.55-8c5.93,2,20.89,6.52,24.73,5.62a7.21,7.21,0,0,0,4.48-3,9.59,9.59,0,0,1-5.42-1.35,1.15,1.15,0,0,1-.33-1.54,4.69,4.69,0,0,0-.31-5.68,5.6,5.6,0,0,0-6.5-1.32,1.16,1.16,0,0,1-1.58-.91A5.3,5.3,0,0,0,412,62.74a9,9,0,0,0-7.11-1.1,9.37,9.37,0,0,0-6.48,5.55A7.81,7.81,0,0,0,399.28,74.47Z"/><path class="cls-2" d="M380.31,107.44c-1.8-1.21-4.21,2.52-3.93,7.21s2.22,7.82,5.41,7.22l1.23-9.14Z"/><path d="M381,123.1a4.53,4.53,0,0,1-2.84-1c-1.7-1.33-2.75-4-3-7.4-.22-3.67,1.06-7.16,3-8.3a2.46,2.46,0,0,1,2.68.06,1.13,1.13,0,0,1,.38.43l2.72,5.29a1.07,1.07,0,0,1,.11.68L382.94,122a1.17,1.17,0,0,1-.93,1A5.5,5.5,0,0,1,381,123.1Zm-1.53-14.72-.08,0c-.89.52-2.08,3-1.89,6.16.17,2.74.93,4.82,2.08,5.72a2.16,2.16,0,0,0,1.17.48l1.05-7.85Z"/><path class="cls-2" d="M429.45,114.29c2.94-.24,4,3.49,2,8.06s-5.71,8.06-8.41,5.42l2.5-9.27Z"/><path d="M425.07,129.84a4.06,4.06,0,0,1-2.87-1.25,1.14,1.14,0,0,1-.31-1.12l2.51-9.27a1.18,1.18,0,0,1,.27-.49l3.94-4.21a1.16,1.16,0,0,1,.75-.36,3.58,3.58,0,0,1,3.34,1.51c1.31,1.84,1.22,4.89-.23,8.17-1.32,3-3.76,6.39-6.61,6.94A4.32,4.32,0,0,1,425.07,129.84Zm-.75-2.51a1.54,1.54,0,0,0,1.1.16c1.61-.3,3.59-2.56,4.94-5.6,1.23-2.79,1.12-5,.46-5.9a1.19,1.19,0,0,0-.87-.54l-3.4,3.63Z"/><path class="cls-6" d="M430.83,86.38c-5.31-10.95-21.84-17.32-36.38-9.86s-18.14,24.9-12.7,37.17C388.17,96.49,407.86,95,407.86,95c15.39,8.06,18.3,25.63,18.3,25.63A31.4,31.4,0,0,0,430.83,86.38Z"/><path d="M426.16,121.82a1.1,1.1,0,0,1-.31,0,1.14,1.14,0,0,1-.82-.92c0-.17-3-16.87-17.4-24.63-2.52.28-19.16,2.75-24.8,17.86a1.16,1.16,0,0,1-2.14.07c-5.53-12.49-2.05-30.83,13.24-38.67a29.77,29.77,0,0,1,23.21-1.82c6.68,2.23,12.05,6.68,14.73,12.21h0A32.46,32.46,0,0,1,427,121.43,1.16,1.16,0,0,1,426.16,121.82Zm-18.3-27.93a1.22,1.22,0,0,1,.53.13c12.47,6.53,17,18.88,18.37,24.08a30.14,30.14,0,0,0,3-31.22h0c-2.41-5-7.29-9-13.39-11A27.49,27.49,0,0,0,395,77.54c-13.06,6.71-16.77,21.74-13.16,33.08,7.53-15.2,25.76-16.71,25.95-16.73Z"/><path class="cls-2" d="M407.86,95s-19.69,1.45-26.11,18.65c-1.11,7-.3,14.32,2.28,19.37s9.92,11.55,14.78,12.51,13.29-2.4,17.61-6.61a36.25,36.25,0,0,0,9.74-18.29S423.25,103.1,407.86,95Z"/><path d="M400.55,146.88a9.76,9.76,0,0,1-2-.18c-5.47-1.08-13-8.06-15.58-13.11-2.68-5.22-3.57-12.73-2.4-20.08a.79.79,0,0,1,.06-.22c6.6-17.69,26.9-19.38,27.1-19.4a1.2,1.2,0,0,1,.62.13c15.72,8.23,18.79,25.72,18.91,26.46a1.19,1.19,0,0,1,0,.42,37.45,37.45,0,0,1-10.07,18.88C412.58,144.3,405.34,146.88,400.55,146.88ZM382.87,114c-1.05,6.75-.22,13.84,2.19,18.54,2.53,4.95,9.71,11.07,14,11.91s12.38-2.21,16.58-6.31A35.11,35.11,0,0,0,425,120.66c-.38-1.92-3.8-17.13-17.36-24.43C405.12,96.51,388.55,99,382.87,114Z"/><path d="M402.37,130.78a5.56,5.56,0,0,1-2.42-.53.78.78,0,0,1-.31-1.05.77.77,0,0,1,1-.31,4.11,4.11,0,0,0,2.45.28.77.77,0,1,1,.26,1.52A6.22,6.22,0,0,1,402.37,130.78Z"/><path d="M406.43,137.8a.69.69,0,0,1-.37-.1,17.7,17.7,0,0,0-9.83-1.77.78.78,0,0,1-.86-.66.77.77,0,0,1,.65-.87,19,19,0,0,1,10.79,2,.77.77,0,0,1-.38,1.44Z"/><path d="M402.92,139.36h-.13l-4.35-.78a.77.77,0,0,1-.62-.89.76.76,0,0,1,.89-.62l4.35.78a.77.77,0,0,1-.14,1.52Z"/><path d="M389.58,113.32h-.26a.77.77,0,0,1,.06-1.54,13.76,13.76,0,0,0,7.5-2.14.76.76,0,0,1,1.07.17.78.78,0,0,1-.17,1.08A14.94,14.94,0,0,1,389.58,113.32Z"/><path d="M417.89,116.87a.83.83,0,0,1-.22,0,17.87,17.87,0,0,1-7.67-4.62.77.77,0,0,1,1.14-1,16.62,16.62,0,0,0,7,4.17.77.77,0,0,1,.53,1A.78.78,0,0,1,417.89,116.87Z"/><path class="cls-2" d="M396.79,91.52h0a.78.78,0,0,1-.76-.78c.14-7.52,3.76-11.28,3.91-11.44a.77.77,0,0,1,1.09,0,.76.76,0,0,1,0,1.08c0,.05-3.35,3.53-3.47,10.39A.77.77,0,0,1,396.79,91.52Z"/><path class="cls-2" d="M423.26,98.66a.69.69,0,0,1-.2,0,.77.77,0,0,1-.54-.94,20.53,20.53,0,0,0-.3-11.71.77.77,0,1,1,1.43-.56A21.57,21.57,0,0,1,424,98.1.76.76,0,0,1,423.26,98.66Z"/><ellipse cx="393.09" cy="118.08" rx="2.06" ry="1.86" transform="translate(227.5 493.64) rotate(-82.93)"/><ellipse cx="412.67" cy="120.97" rx="2.06" ry="1.86" transform="translate(241.8 515.6) rotate(-82.93)"/><path class="cls-9" d="M368.69,209.75c2.48,3.93,5.54,6.28,7.7,4.65,4.1-3.07,3.1-13.46,2.34-18.44l0,0Z"/><path d="M374.85,216.08a4.62,4.62,0,0,1-.73-.07c-2.8-.52-5.21-3.76-6.4-5.64a1.15,1.15,0,0,1,0-1.29l10-13.77a1.1,1.1,0,0,1,.38-.33,1.21,1.21,0,0,1,1.08,0,1.19,1.19,0,0,1,.66.85c.88,5.85,1.69,16.17-2.8,19.54A3.7,3.7,0,0,1,374.85,216.08Zm-4.76-6.29c1.54,2.25,3.17,3.71,4.45,4a1.41,1.41,0,0,0,1.16-.26c2.26-1.7,3.07-7,2.26-14.52Z"/><path d="M354.31,203a1.15,1.15,0,0,1-.73-2.05,114.58,114.58,0,0,0,12.29-12.38,1.15,1.15,0,0,1,1.77,1.48A114.53,114.53,0,0,1,355,202.77,1.21,1.21,0,0,1,354.31,203Z"/><path d="M368.23,221.5a1.15,1.15,0,0,1-.58-2.15,65.49,65.49,0,0,0,8-5.82,1.15,1.15,0,0,1,1.5,1.75,66.33,66.33,0,0,1-8.33,6.07A1.19,1.19,0,0,1,368.23,221.5Z"/><path class="cls-2" d="M392.67,169.9c-1.53-2-4.94-5.8-5.71-6.65a3,3,0,0,0-3.49-.68c-1.11.68-5,3.67-5,3.67s-7.34,2.21-9.89,3.66-3.84,3-3.67,7.25a98.47,98.47,0,0,0,1.88,12.19c-4.22,4.84-1.83,14.45,1.93,20.41l10-13.76,0,0a36.78,36.78,0,0,0,10.79-9.69l-.43-8-5.88,2-1-9.29,2.72-2.47s2.39,2.3,4.52,4S394.21,172,392.67,169.9Z"/><path d="M368.69,210.91h0a1.17,1.17,0,0,1-.94-.54c-4.12-6.53-6.2-16.07-2.21-21.33a93.23,93.23,0,0,1-1.78-11.85c-.2-4.81,1.41-6.68,4.25-8.29,2.42-1.38,8.7-3.33,9.92-3.71.77-.58,3.94-3,5-3.6a4.11,4.11,0,0,1,5,.89l.21.24c1.13,1.24,4.11,4.55,5.57,6.49h0a3.08,3.08,0,0,1-.26,4.15,3.48,3.48,0,0,1-4.63.09c-1.42-1.14-2.92-2.51-3.81-3.34l-1.5,1.36.8,7.27,4.51-1.57a1.18,1.18,0,0,1,1,.13,1.14,1.14,0,0,1,.5.9l.43,8a1.21,1.21,0,0,1-.2.72,37.75,37.75,0,0,1-11,9.93l-9.85,13.57A1.17,1.17,0,0,1,368.69,210.91Zm16-47.5a1.09,1.09,0,0,0-.58.14c-.87.54-3.86,2.78-4.94,3.6a1,1,0,0,1-.36.19c-.07,0-7.24,2.2-9.66,3.56-2.25,1.28-3.23,2.48-3.08,6.2a100.91,100.91,0,0,0,1.85,12,1.15,1.15,0,0,1-.26,1c-3.33,3.82-2.05,11.58,1.18,17.55l9-12.34a1.1,1.1,0,0,1,.38-.33,36.41,36.41,0,0,0,10.2-9.06l-.32-6.07-4.43,1.54a1.14,1.14,0,0,1-1-.11,1.18,1.18,0,0,1-.53-.85l-1-9.29a1.15,1.15,0,0,1,.37-1l2.73-2.48a1.16,1.16,0,0,1,1.58,0s2.37,2.28,4.43,3.93a1.15,1.15,0,0,0,1.59.06.77.77,0,0,0,0-1.11h0c-1.39-1.85-4.43-5.22-5.43-6.33l-.22-.24A2.12,2.12,0,0,0,384.65,163.41Z"/><path class="cls-2" d="M367.22,173.44s1.67,4.43,2.14,6.35,4.22,1.66,4.43-1.49c1.36,2.34,4.18,1.45,4.47-1.54,1.2,2,3.93,1.58,4.22-.68s-.68-7.59-1.44-9.63"/><path d="M371.13,181.77a2.47,2.47,0,0,1-2.52-1.8c-.45-1.85-2.09-6.22-2.11-6.26a.77.77,0,0,1,.45-1,.77.77,0,0,1,1,.45c.07.18,1.69,4.5,2.16,6.44.12.49.68.66,1.18.62a1.94,1.94,0,0,0,1.74-2,.77.77,0,0,1,1.43-.34,1.54,1.54,0,0,0,1.6.93c.58-.13,1.31-.77,1.45-2.15a.78.78,0,0,1,.59-.68.77.77,0,0,1,.83.36,1.67,1.67,0,0,0,1.75.86,1.35,1.35,0,0,0,1.05-1.25c.28-2.1-.67-7.31-1.4-9.26a.77.77,0,0,1,1.44-.54c.8,2.14,1.81,7.59,1.49,10a2.9,2.9,0,0,1-2.26,2.56,3.07,3.07,0,0,1-2.32-.46,3.29,3.29,0,0,1-2.29,2.06,2.74,2.74,0,0,1-2.21-.48,3.35,3.35,0,0,1-2.75,1.9Z"/><path d="M378.05,192.2h0a.78.78,0,0,1-.73-.81c.23-4.44-4.36-7.29-4.4-7.32a.77.77,0,0,1-.26-1.06.77.77,0,0,1,1.06-.25c.22.13,5.42,3.37,5.14,8.71A.77.77,0,0,1,378.05,192.2Z"/><path d="M368,194.92a1.16,1.16,0,0,1-1.09-.79c0-.1-.77-2.32-1.25-4.55a1.15,1.15,0,1,1,2.25-.48c.46,2.1,1.18,4.28,1.19,4.3a1.16,1.16,0,0,1-.73,1.46A1.19,1.19,0,0,1,368,194.92Z"/><path d="M438.12,232.46h-.06c-5.79-.32-12-1.38-12.09-1.39a1.15,1.15,0,1,1,.38-2.27c.07,0,6.18,1,11.83,1.36a1.15,1.15,0,0,1-.06,2.3Z"/><path d="M446.9,209.51l-.21,0a156.26,156.26,0,0,1-17.29-4.61,1.16,1.16,0,1,1,.72-2.2,153.15,153.15,0,0,0,17,4.54,1.15,1.15,0,0,1-.2,2.29Z"/><path d="M435.81,206.86a1.16,1.16,0,0,1-1.15-1.08l-.85-14a1.15,1.15,0,0,1,2.3-.14l.85,14a1.15,1.15,0,0,1-1.08,1.22Z"/><path class="cls-2" d="M413.5,212.7H392.43a2.45,2.45,0,0,1-2.45-2.36l-1.52-40.62a2.45,2.45,0,0,1,2.45-2.55H415a2.46,2.46,0,0,1,2.45,2.55L416,210.34A2.46,2.46,0,0,1,413.5,212.7Z"/><path d="M413.5,213.85H392.43a3.58,3.58,0,0,1-3.6-3.47l-1.53-40.62a3.61,3.61,0,0,1,3.61-3.74H415a3.59,3.59,0,0,1,3.6,3.74l-1.52,40.62A3.59,3.59,0,0,1,413.5,213.85Zm-22.59-45.52a1.28,1.28,0,0,0-1.3,1.35l1.52,40.61a1.3,1.3,0,0,0,1.3,1.26H413.5a1.3,1.3,0,0,0,1.3-1.26l1.52-40.61a1.35,1.35,0,0,0-.36-1,1.32,1.32,0,0,0-.94-.39Z"/><circle cx="393.31" cy="172.67" r="1.71"/><path class="cls-9" d="M422.89,218.34c-.29,5.61.67,10.85,3.27,11.59s5.08-4.17,6.22-10l-7.71-2.4A7.22,7.22,0,0,1,422.89,218.34Z"/><path d="M426.73,231.17a3,3,0,0,1-.89-.13c-4.35-1.25-4.24-10.08-4.1-12.76a1.16,1.16,0,0,1,.81-1,6,6,0,0,0,1.48-.68,1.17,1.17,0,0,1,1-.14l7.71,2.39a1.17,1.17,0,0,1,.79,1.33c-.49,2.54-2,8.65-5,10.5A3.42,3.42,0,0,1,426.73,231.17Zm-2.72-12c-.18,5.83,1.07,9.26,2.47,9.67a1,1,0,0,0,.85-.16c1.39-.85,2.8-3.92,3.7-8l-6.21-1.94A7.62,7.62,0,0,1,424,219.16Z"/><path class="cls-2" d="M429.76,203.78l-3.6-1.24s-1.08-5-2.73-7.62a50.58,50.58,0,0,1-4.67-8.61c-1.08-2.81-4.77-1.73-3.77,2.16s3.22,10.18,3.22,10.18-6-3.31-9.68-5.05-8.64-3.48-11-4.39-4.27,1.91-1.29,3.64,11.75,5.84,13.49,7.74a24.23,24.23,0,0,1-9-1.7c-2.48-1-5.85-2.24-7.75-3.07-2.56-1.07-4.56,2.08-1.66,3.74-1.41.41-2.9,2.65.66,4.8A94.18,94.18,0,0,0,407.62,212L402,214.29s-5.13-3-7.78-3.39-3.14,2.23-.83,3.64,5.63,3.14,6.71,3.72a6.61,6.61,0,0,0,4.38.25c1.08-.41,5.47-1.57,5.47-1.57s7.8,3,12.95,1.4a7.22,7.22,0,0,0,1.78-.82l7.71,2.4C433.74,212.88,433.38,204.82,429.76,203.78Z"/><path d="M432.38,221.07a1.34,1.34,0,0,1-.35,0l-7.21-2.25a8.34,8.34,0,0,1-1.58.67c-4.89,1.53-11.71-.7-13.36-1.29-1.4.37-4.23,1.15-5,1.44a7.81,7.81,0,0,1-5.35-.31l-.61-.33c-1.45-.77-4.15-2.21-6.15-3.42a3.55,3.55,0,0,1-1.87-4.09,3,3,0,0,1,3.48-1.68c2.35.36,6.29,2.47,7.68,3.25l2.46-1a96.46,96.46,0,0,1-13.07-6.65c-2.65-1.61-2.85-3.33-2.74-4.21a3.2,3.2,0,0,1,.78-1.69,3,3,0,0,1-.38-3.24,3.34,3.34,0,0,1,4.38-1.46c1.18.52,3,1.2,4.67,1.87,1.07.41,2.13.82,3.07,1.2a26.11,26.11,0,0,0,4.17,1.21c-1.81-1-4-2.15-5.67-3s-3.11-1.61-4-2.16c-2.09-1.22-2.42-3-1.81-4.29a3.19,3.19,0,0,1,4.11-1.42l2.21.84c2.56,1,6.06,2.26,8.82,3.58,2.11,1,5,2.55,7.13,3.67-.73-2.19-1.71-5.21-2.29-7.48-.71-2.79.56-4.56,2.05-5a3.21,3.21,0,0,1,3.92,2.19,48.61,48.61,0,0,0,4.56,8.4,27.77,27.77,0,0,1,2.74,7.36l3,1c5.06,1.5,4.52,11.67,3.4,17.46a1.16,1.16,0,0,1-.54.77A1.24,1.24,0,0,1,432.38,221.07Zm-7.71-4.7a1,1,0,0,1,.34,0l6.46,2c1.12-6.94.27-12.88-2-13.54l-.06,0-3.6-1.24a1.17,1.17,0,0,1-.75-.85c0-.05-1-4.88-2.57-7.23a50.61,50.61,0,0,1-4.78-8.82c-.23-.62-.66-.95-1.07-.82s-.85.93-.51,2.27c1,3.79,3.18,10,3.2,10.08a1.15,1.15,0,0,1-1.64,1.4c-.06,0-6.06-3.32-9.63-5-2.66-1.27-6.11-2.56-8.63-3.5l-2.25-.85a.88.88,0,0,0-1.18.28c-.18.36.17.87.89,1.29.89.51,2.3,1.25,3.94,2.1,4.8,2.48,8.57,4.49,9.82,5.86a1.15,1.15,0,0,1-.78,1.92,25.34,25.34,0,0,1-9.45-1.78l-3.05-1.19c-1.74-.67-3.54-1.37-4.74-1.89a1,1,0,0,0-1.41.35c-.21.43.08.93.78,1.33a1.15,1.15,0,0,1-.25,2.1,1.06,1.06,0,0,0-.71.77c-.07.55.55,1.28,1.65,1.94A90.88,90.88,0,0,0,408,210.89a1.16,1.16,0,0,1,0,2.15l-5.63,2.32a1.15,1.15,0,0,1-1-.07c-1.37-.8-5.38-2.94-7.38-3.25-.49-.08-.89,0-1,.19s.14.85.91,1.32c1.95,1.19,4.61,2.6,6,3.37l.62.33a5.73,5.73,0,0,0,3.43.19c1.1-.43,5.13-1.5,5.58-1.62a1.22,1.22,0,0,1,.71,0c.08,0,7.49,2.85,12.2,1.38a6,6,0,0,0,1.48-.68A1.16,1.16,0,0,1,424.67,216.37Z"/><path d="M409,207.37a.85.85,0,0,1-.23,0,143.14,143.14,0,0,1-17.72-7.09.77.77,0,0,1,.69-1.38,140.72,140.72,0,0,0,17.49,7,.77.77,0,0,1-.23,1.5Z"/><path d="M378.26,177.53a.77.77,0,0,1-.76-.67s-.52-3.93-1.39-7.68a.76.76,0,0,1,.57-.92.77.77,0,0,1,.93.57c.89,3.83,1.41,7.8,1.42,7.84a.77.77,0,0,1-.67.86Z"/><path d="M373.79,179.07a.76.76,0,0,1-.75-.62s-.65-3.17-2-7.43a.77.77,0,0,1,1.47-.45c1.32,4.34,2,7.54,2,7.58a.76.76,0,0,1-.6.9Z"/><path class="cls-1" d="M875.09,30h-126a15,15,0,0,1,0-30h126a15,15,0,0,1,0,30Z"/><path class="cls-2" d="M752.5,17.49c.63,1.08,1.73,1.52,3.37,1.59,1.9.08,5.69,0,7.89-.14a7.43,7.43,0,0,0-.6,1.85c-2,.1-5.36.13-7.31.05s-3.19-.54-4.15-1.78c-.73.63-1.49,1.25-2.38,1.92l-.88-1.9a22.32,22.32,0,0,0,2.24-1.46V14.13h-2V12.39h3.85Zm-.94-7.15a13.29,13.29,0,0,0-2.67-2.61l1.31-1.22A13.6,13.6,0,0,1,753,9Zm4.1,8.08h-1.79V10.18h3.58c-.72-.34-1.49-.66-2.15-.91l1.24-1c.56.21,1.23.47,1.89.75.44-.25.88-.56,1.28-.84H754V6.71h7.35l.36-.1,1.14.91A18.35,18.35,0,0,1,760,9.68c.35.18.69.34,1,.5h1.94v6.59c0,.77-.15,1.17-.66,1.43a4.84,4.84,0,0,1-2.16.27,5.06,5.06,0,0,0-.46-1.49c.49,0,1,0,1.21,0s.24-.08.24-.24V16H759.2v2.34h-1.7V16h-1.84Zm0-6.86v.86h1.84v-.86Zm1.84,3.09v-.9h-1.84v.9Zm3.58-3.09H759.2v.86h1.88Zm0,3.09v-.9H759.2v.9Z"/><path class="cls-2" d="M770,6.79a28.15,28.15,0,0,1-1.49,3.09v11.2h-1.81V12.63a16.65,16.65,0,0,1-1.33,1.5,12.17,12.17,0,0,0-1-1.93,17,17,0,0,0,3.85-6Zm9.65,2.28v1.54H769.35V9.07Zm-9.24,6.87h8.36v5.12h-1.93v-.59h-4.6v.64h-1.83Zm8.13-3.07h-7.87V11.4h7.87Zm-7.87.8h7.81v1.49h-7.81Zm7.59-5.38h-7.34V6.8h7.34Zm-6,9.12V19h4.6V17.41Z"/><path class="cls-2" d="M784.36,11.56a19.47,19.47,0,0,1-2.71,1.6,7,7,0,0,0-1.11-1.6A15.88,15.88,0,0,0,787,6.19h2a14.59,14.59,0,0,0,6.77,5.08A9.87,9.87,0,0,0,794.52,13a18,18,0,0,1-2.68-1.55v1.26h-7.48Zm-2.83,2.49h13.23v1.76h-7.17c-.46,1-1,1.94-1.47,2.84l4.82-.18a18.78,18.78,0,0,0-1.57-1.63l1.68-.88a22,22,0,0,1,3.67,4.11l-1.78,1.07a9.54,9.54,0,0,0-.64-1c-3.76.21-7.72.37-10.44.5l-.25-1.86,2.41-.08a29.6,29.6,0,0,0,1.22-2.9h-3.71ZM791.15,11a15.63,15.63,0,0,1-3.08-3,14.55,14.55,0,0,1-2.93,3Z"/><path class="cls-2" d="M802.54,16.77c-.34-.44-.88-1.08-1.43-1.68v6h-1.89V15.61a13,13,0,0,1-2,1.53,7.65,7.65,0,0,0-.9-1.81,11.88,11.88,0,0,0,4.47-4.46H797V9.14h2.27V6.19h1.89v3h.72l.34-.08,1.07.69a15.43,15.43,0,0,1-1.89,3.42c.77.63,2,1.73,2.34,2.05Zm9.17,2v1.85h-9.06V18.81h3.7V13H803.3V11.11h3.05V6.32h1.95v4.79h3V13h-3v5.86Z"/><path class="cls-2" d="M814,13.72c.74-.77,2-2.42,3-3.57s2.16-1.38,3.33-.24,2.37,2.7,3.31,3.73,2.39,2.56,3.91,3.92l-1.65,1.92c-1.15-1.09-2.51-2.64-3.52-3.83s-2.19-2.7-3-3.55c-.56-.62-.86-.54-1.32.05-.65.8-1.78,2.38-2.47,3.3-.37.52-.74,1.1-1,1.52l-2-2A11,11,0,0,0,814,13.72Z"/><path class="cls-2" d="M836.83,20.49l-1.21-1.91a12.73,12.73,0,0,0,1.49-.25A4.35,4.35,0,0,0,840.76,14a4,4,0,0,0-3.36-4.23,31.11,31.11,0,0,1-1,4.34c-1,3.23-2.33,5.22-4.08,5.22s-3.25-2-3.25-4.66a7.11,7.11,0,0,1,7.35-6.85,6.09,6.09,0,0,1,6.46,6.24C842.92,17.48,840.86,19.86,836.83,20.49Zm-4.41-3.59c.68,0,1.3-1,2-3.17a24.07,24.07,0,0,0,.84-3.87,5,5,0,0,0-4.06,4.64C831.16,16.12,831.8,16.9,832.42,16.9Z"/><path class="cls-2" d="M854.79,18.44a47.18,47.18,0,0,1,4.57,1.87l-2.21.85A32.39,32.39,0,0,0,853,19.27l1.44-.83h-4.68l1.46.64a20.08,20.08,0,0,1-5,2.1,18.49,18.49,0,0,0-1.4-1.4,18.72,18.72,0,0,0,4.4-1.34h-2.37V11.91h5.31a4.58,4.58,0,0,0-1.1-1.17,4.23,4.23,0,0,0,.93-.8h-1.44V11.6h-1.7V9.94h-1.41a5.37,5.37,0,0,1-1.54,2.66,5.39,5.39,0,0,0-1.24-1.19A4.36,4.36,0,0,0,846,8V6.53l1.21.3a18.78,18.78,0,0,0,3.33-.64l1.17,1.12a19.75,19.75,0,0,1-4.06.69v.08a3.93,3.93,0,0,1,0,.48H852v1.3A2.87,2.87,0,0,0,852.6,8V6.55l1.28.3a24.31,24.31,0,0,0,3.59-.66l1.15,1.14a25.31,25.31,0,0,1-4.37.69V8.1a3.7,3.7,0,0,1,0,.46h5V9.94h-2v1.68h-1.7V9.94h-1.62a4.3,4.3,0,0,1-1.56,2h5.21v6.53Zm-6.11-4.71h7V13h-7Zm0,1.78h7v-.69h-7Zm0,1.78h7v-.71h-7Z"/><path class="cls-2" d="M863.29,12.74v8.39H861.4V6.79h6.11v6Zm0-4.5v.87h2.45V8.24Zm2.45,3.06v-.91h-2.45v.91Zm1,7.57v.9h-1.77V13.84h6.19v5Zm0-3.46V17.3h2.64V15.41Zm8.17,3.44c0,1.06-.21,1.61-.88,1.91a7.89,7.89,0,0,1-3.14.37,7,7,0,0,0-.64-1.95c.93.06,2,0,2.32,0s.42-.1.42-.39V12.76h-4.34v-6h6.26ZM870.43,8.23v.88H873V8.23ZM873,11.32v-.93h-2.53v.93Z"/><polygon class="cls-1" points="795.42 22 812.09 39 828.75 22 795.42 22"/><ellipse class="cls-3" cx="864.55" cy="132.46" rx="99.18" ry="65.22"/><path class="cls-4" d="M821.06,103c-1.42.29-2.68.55-3.36.71l-.38-2.1c.75-.09,2.16-.33,3.74-.62V98.71a13.76,13.76,0,0,0-.12-1.84h2.38a17.63,17.63,0,0,0-.14,1.84v1.89c2.33-.45,4.57-.9,5.3-1.08a4.29,4.29,0,0,0,1.13-.36l1.54,1.18a8.9,8.9,0,0,0-.53.88,22.92,22.92,0,0,1-3.31,4.66l-1.76-1a13.92,13.92,0,0,0,2.56-3.25l-4.93,1v4.24c0,1,.29,1.35,2.05,1.35a26.19,26.19,0,0,0,5-.55l-.07,2.18a37.77,37.77,0,0,1-5,.35c-3.65,0-4.18-.88-4.18-2.77Z"/><path class="cls-4" d="M838.06,96.87l2.25-.37c.05.32.1.86.18,1.25,0,.22.13.75.26,1.47,1.36-.22,2.57-.42,3.15-.53s1.12-.22,1.5-.33l.39,2.09-1.47.2-3.21.51c.16.8.32,1.68.5,2.56,1.44-.24,2.75-.47,3.47-.61s1.22-.26,1.64-.38l.43,2.11c-.43,0-1.09.14-1.7.24l-3.47.56c.25,1.31.48,2.38.57,2.88s.28,1.06.42,1.57l-2.3.42c-.08-.6-.13-1.16-.23-1.62s-.29-1.57-.54-2.91c-1.64.27-3.14.52-3.83.65s-1.23.24-1.6.34l-.45-2.15c.44,0,1.16-.11,1.67-.17.73-.1,2.22-.34,3.84-.6-.16-.86-.34-1.76-.48-2.57l-3.14.51c-.51.11-.93.19-1.47.34l-.43-2.21a14.72,14.72,0,0,0,1.49-.12c.56-.06,1.79-.24,3.17-.46-.13-.67-.25-1.2-.29-1.46C838.28,97.62,838.17,97.25,838.06,96.87Z"/><path class="cls-4" d="M860.54,102.55c-.13.94-.54,3.7-.79,5.22h1c.42,0,1.15,0,1.57-.07v2.07c-.32,0-1.11,0-1.54,0h-8.42c-.57,0-1,0-1.58,0v-2.08a14.72,14.72,0,0,0,1.58.08h5.19c.22-1.36.57-3.64.62-4.53h-4.32c-.51,0-1.14.05-1.6.08v-2.11c.42,0,1.15.09,1.59.09H858a3.7,3.7,0,0,0,1.19-.17l1.55.75A4.26,4.26,0,0,0,860.54,102.55Z"/><path class="cls-4" d="M869.93,98.45v5.41c0,.4,0,1,.05,1.39h-2.32c0-.3.08-.92.08-1.4v-5.4a11,11,0,0,0-.07-1.23H870C870,97.59,869.93,97.94,869.93,98.45Zm7.41.24v3.17c0,3.44-.67,4.93-1.86,6.24a9.33,9.33,0,0,1-3.89,2.31l-1.66-1.76a7.27,7.27,0,0,0,3.84-2c1.1-1.2,1.31-2.4,1.31-4.9v-3a12.05,12.05,0,0,0-.09-1.6h2.41C877.37,97.54,877.34,98.05,877.34,98.69Z"/><path class="cls-4" d="M883.45,101.43h10.48a11.08,11.08,0,0,0,1.46-.1v2.08c-.4,0-1,0-1.46,0h-3.86a10,10,0,0,1-1,4.11,7.67,7.67,0,0,1-3.22,3.07L884,109.19a6.61,6.61,0,0,0,2.9-2.29,6.88,6.88,0,0,0,1-3.53h-4.4c-.48,0-1.09,0-1.54.06v-2.1C882.39,101.38,883,101.43,883.45,101.43Zm2-4.08h6.44a12.42,12.42,0,0,0,1.72-.11V99.3c-.54,0-1.16-.06-1.72-.06H885.5c-.56,0-1.24,0-1.73.06V97.24A12.27,12.27,0,0,0,885.48,97.35Z"/><path class="cls-4" d="M904,102.66a16.53,16.53,0,0,0,4-3.42l1.58,1.55A20.91,20.91,0,0,1,906,103.7v5.49a8.64,8.64,0,0,0,.11,1.73h-2.37c0-.32.08-1.17.08-1.73V105a33.8,33.8,0,0,1-4.59,1.87l-1-1.89A21.09,21.09,0,0,0,904,102.66Z"/><path class="cls-4" d="M806.89,129.23l-2.11,1.2a35.63,35.63,0,0,0-2.71-4.83l2-1.06C804.92,125.66,806.3,128.11,806.89,129.23Zm3,2a12.46,12.46,0,0,0,1.89-4.83,9.43,9.43,0,0,0,.21-1.94l2.59.35c-.19.63-.37,1.41-.48,1.87a17,17,0,0,1-2.22,5.62,13.61,13.61,0,0,1-5.56,4.92l-1.9-1.64A12.1,12.1,0,0,0,809.93,131.23Z"/><path class="cls-4" d="M830.43,127a16.48,16.48,0,0,1-2.4,5.83,12.89,12.89,0,0,1-6.44,4.42l-1.74-1.91a10.58,10.58,0,0,0,6.27-3.76A10.13,10.13,0,0,0,828,127h-7.46c-.72,0-1.49,0-1.91.06v-2.26c.48,0,1.39.13,1.92.13H828a4.94,4.94,0,0,0,1.26-.13l1.57,1A7.63,7.63,0,0,0,830.43,127Z"/><path class="cls-4" d="M837.58,125.77a11.31,11.31,0,0,0-.16-1.92h2.49a18.6,18.6,0,0,0-.14,1.92v2.37a52.75,52.75,0,0,1,6.69,2.48l-.91,2.21a46.55,46.55,0,0,0-5.78-2.38V135c0,.46.08,1.58.14,2.24h-2.49a18.74,18.74,0,0,0,.16-2.24Z"/><path class="cls-4" d="M857.29,137.26l-1.2-1.9a10.78,10.78,0,0,0,1.49-.26,4.34,4.34,0,0,0,3.65-4.29,4,4,0,0,0-3.36-4.22,34.27,34.27,0,0,1-1,4.34c-1,3.23-2.34,5.21-4.09,5.21s-3.24-1.95-3.24-4.65a7.11,7.11,0,0,1,7.34-6.85,6.1,6.1,0,0,1,6.47,6.24C863.39,134.26,861.32,136.64,857.29,137.26Zm-4.4-3.58c.67,0,1.3-1,2-3.17a24.06,24.06,0,0,0,.85-3.87,5,5,0,0,0-4.07,4.64C851.62,132.9,852.26,133.68,852.89,133.68Z"/><path class="cls-4" d="M871.34,127.1h-6.26v-1.5h6.26Zm8,3.11a10.94,10.94,0,0,1-2.47,4.65,10.68,10.68,0,0,0,3.3,1.38,8.29,8.29,0,0,0-1.24,1.65,11.06,11.06,0,0,1-3.52-1.75,12.78,12.78,0,0,1-3.66,1.75,8.11,8.11,0,0,0-1-1.65v.82H867.4v.62h-1.62v-5.46h5v4a10.55,10.55,0,0,0,3.23-1.38,10.87,10.87,0,0,1-1.84-2.77l1.63-.53h-2.22v-1.71h.54a8.34,8.34,0,0,0-1.33-1.15v.61h-4.93v-1.46h4.93v.77a3.58,3.58,0,0,0,1.55-3.28V123.4h5.37V127c0,.45,0,.5.2.5h.4c.21,0,.28-.21.29-1.61a5.29,5.29,0,0,0,1.55.68c-.16,2-.57,2.54-1.64,2.54h-.93c-1.28,0-1.65-.49-1.65-2.08v-1.94h-1.79v.28a5,5,0,0,1-2,4.46h5.64l.32-.08Zm-8.57,1.23h-4.93V130h4.93Zm0-6.55H865.9v-1.44h4.83Zm-1.63,8.84h-1.7v1.84h1.7Zm4.72-2.2a7.84,7.84,0,0,0,1.55,2.17,7.68,7.68,0,0,0,1.51-2.17Z"/><path class="cls-4" d="M889.53,135.74a15.19,15.19,0,0,0,1.83.1c.86,0,3.5,0,4.57-.05a7.42,7.42,0,0,0-.67,1.94h-4c-3,0-5.14-.48-6.61-2.75a8,8,0,0,1-2.13,3,12.19,12.19,0,0,0-1.57-1.3c1.73-1.28,2.51-3.48,2.8-6.22l2,.19c-.1.72-.21,1.39-.36,2a4.4,4.4,0,0,0,2.18,2.52v-5.65h-3.41v-1.81H893v1.81h-3.43v2h4.4v1.79h-4.4Zm-5.94-7.17h-1.87v-4h5.81V123h2v1.6h5.85v4h-2v-2.19h-9.85Z"/><path class="cls-4" d="M904,127.32c0,.69-.1,1.4-.18,2.09H910a7.81,7.81,0,0,1-.07.83c-.28,4.35-.62,6.14-1.26,6.85a2.4,2.4,0,0,1-1.73.74,24.59,24.59,0,0,1-2.74,0,4.45,4.45,0,0,0-.67-1.88c1.11.11,2.23.11,2.69.11a1.06,1.06,0,0,0,.77-.2c.42-.36.7-1.75.93-4.66h-4.4a9.42,9.42,0,0,1-5.14,6.82,6,6,0,0,0-1.35-1.62c4.32-2,4.69-5.65,4.87-9.08h-4.58V125.5h6.13v-2.61h2v2.61h6.32v1.82Z"/><path class="cls-4" d="M916.07,130.41a12.47,12.47,0,0,0-3-1.64l1-1.45a13.67,13.67,0,0,1,3.09,1.49Zm1.68,2.25c-.78,1.66-1.71,3.48-2.61,5l-1.64-1.22a48.47,48.47,0,0,0,2.83-5Zm-.8-6.47a12,12,0,0,0-3-1.76L915,123a13.88,13.88,0,0,1,3.05,1.64Zm9.46,11.72a9.06,9.06,0,0,0-.54-1.27c-2.9.26-5.92.46-8.08.62l-.26-1.92,1.2,0a28,28,0,0,0,1.52-4.15h-2.74v-1.82h4.12v-2.26h-3.32v-1.83h3.32V123h2v2.27h3.47v1.83h-3.47v2.26h4.23v1.82h-5.38l.06,0c-.51,1.34-1.15,2.81-1.73,4l4.12-.22c-.4-.64-.85-1.26-1.28-1.82l1.63-.87a18.79,18.79,0,0,1,3,4.66Z"/><path class="cls-4" d="M815.55,152.31c-.1.48-.23,1.07-.34,1.65.54,0,1-.07,1.34-.07,1.7,0,2.9.76,2.9,3.06a15.61,15.61,0,0,1-.91,5.87,2.56,2.56,0,0,1-2.63,1.48,10,10,0,0,1-1.92-.23l-.33-2.11a8.89,8.89,0,0,0,2,.34,1.18,1.18,0,0,0,1.2-.69,12.75,12.75,0,0,0,.66-4.44c0-1.28-.56-1.45-1.56-1.45-.25,0-.65,0-1.12.06a33.51,33.51,0,0,1-3.26,8.58l-2.08-.83A24.8,24.8,0,0,0,812.7,156l-1.38.16c-.46.08-1.3.19-1.79.27l-.2-2.18a14.1,14.1,0,0,0,1.72,0c.49,0,1.25-.06,2.06-.14a16.06,16.06,0,0,0,.34-3.38l2.38.24C815.74,151.4,815.63,151.91,815.55,152.31Zm6.78.25-.78.34a29.1,29.1,0,0,1,2.61,5.59l-2,.93a18,18,0,0,0-2.68-6l1.44-.62a17,17,0,0,0-1.09-1.89l1.26-.53A24.85,24.85,0,0,1,822.33,152.56Zm1.91-.73-1.27.54a19,19,0,0,0-1.29-2.21l1.28-.51A24.54,24.54,0,0,1,824.24,151.83Z"/><path class="cls-4" d="M828.84,150.53l2.34.08c-.1.45-.23,1.27-.35,2.27l.59.76c-.23.28-.55.81-.82,1.23,0,.14,0,.3,0,.45a7.86,7.86,0,0,1,4.71-1.65,4.24,4.24,0,0,1,4.41,4.32c0,3.23-2,5.17-6,5.95l-1-1.93c2.82-.42,4.83-1.57,4.82-4.07a2.46,2.46,0,0,0-2.61-2.4,6.73,6.73,0,0,0-4.53,2.05c0,.46,0,.93,0,1.34,0,1.32,0,2.66.09,4.17,0,.28.07.86.11,1.23h-2.2c0-.35,0-.93,0-1.19,0-1.24.05-2.17.07-3.52-.67,1-1.46,2.18-2,2.93l-1.26-1.74c.91-1.12,2.51-3.24,3.42-4.58,0-.37.07-.75.08-1.14l-2.91.39-.21-2c.47,0,.83,0,1.39,0s1.17-.11,1.86-.21c0-.6.06-1,.06-1.23A8.86,8.86,0,0,0,828.84,150.53Z"/><path class="cls-4" d="M847.66,152.2c-.11.48-.23,1.07-.34,1.64.53,0,1-.06,1.35-.06,1.69,0,2.89.75,2.89,3.06a15.61,15.61,0,0,1-.91,5.87,2.56,2.56,0,0,1-2.62,1.48,10.41,10.41,0,0,1-1.92-.23l-.36-2.11a9.83,9.83,0,0,0,2,.33,1.18,1.18,0,0,0,1.2-.68,12.84,12.84,0,0,0,.64-4.44c0-1.28-.54-1.45-1.55-1.45-.26,0-.66,0-1.1.06a33.92,33.92,0,0,1-3.27,8.58l-2.08-.83a24,24,0,0,0,3.23-7.53l-1.37.16-1.78.28-.19-2.18a13.94,13.94,0,0,0,1.71,0c.5,0,1.25-.07,2.06-.13a17,17,0,0,0,.34-3.39l2.39.24C847.85,151.28,847.74,151.8,847.66,152.2Zm8.61,6.13-2,.94a18.59,18.59,0,0,0-2.69-6.08l1.9-.82A27.92,27.92,0,0,1,856.27,158.33Z"/><path class="cls-4" d="M861.69,154a4.94,4.94,0,0,1,4-2.59c2.22,0,4,2.17,4,5.69,0,4.53-2.77,6.69-7,7.46l-1.22-1.85c3.56-.55,6.07-1.72,6.07-5.59,0-2.46-.83-3.84-2.18-3.84-1.88,0-3.53,2.83-3.61,4.94a7.58,7.58,0,0,0,.08,1.7l-2,.13a17.47,17.47,0,0,1-.21-2.67,41.1,41.1,0,0,1,.45-5.13,14,14,0,0,0,.13-1.68l2.19.1A27.3,27.3,0,0,0,861.69,154Z"/><path class="cls-4" d="M882,151.7a6.24,6.24,0,0,0,0,.66,34.52,34.52,0,0,0,4-.44v1.84c-1.06.13-2.51.28-4.07.36v1.65c1.62-.08,3-.21,4.28-.39l0,1.89c-1.44.16-2.69.27-4.23.32,0,.61.07,1.26.12,1.91a12.48,12.48,0,0,1,4.48,2.41l-1.15,1.79a12.5,12.5,0,0,0-3.24-2.22c0,.22,0,.42,0,.59,0,1.36-1,2.42-3.15,2.42-2.57,0-3.91-1-3.91-2.67s1.49-2.76,4-2.76c.34,0,.68,0,1,.05,0-.5-.05-1-.07-1.49h-.83c-.93,0-2.75-.08-3.81-.21l0-1.88a28.59,28.59,0,0,0,3.86.3H880c0-.53,0-1.1,0-1.65h-.6a35.32,35.32,0,0,1-3.92-.29l0-1.82a30.37,30.37,0,0,0,4,.35H880v-.75a6.92,6.92,0,0,0-.09-1.11h2.16A11.26,11.26,0,0,0,882,151.7Zm-3.23,11c.85,0,1.41-.24,1.41-1.17,0-.17,0-.4,0-.69a9.38,9.38,0,0,0-1.31-.11c-1.14,0-1.76.45-1.76,1S877.67,162.68,878.78,162.68Z"/><path class="cls-4" d="M900.7,152.34c0,.62,0,1.2,0,1.73.43,0,.83-.07,1.2-.08l1.53-.11v2c-.27,0-1.12,0-1.53,0s-.77,0-1.23.07a30.92,30.92,0,0,1-.24,3.2c-.18.85-.58,1.05-1.4,1.05-.57,0-1.85-.16-2.41-.24l0-1.77a8.69,8.69,0,0,0,1.48.2c.32,0,.46-.06.49-.36a17.25,17.25,0,0,0,.13-1.94c-1.42.11-3,.26-4.35.4,0,1.47,0,2.95,0,3.63,0,1.57.17,1.92,2.57,1.92a32,32,0,0,0,4.79-.4l-.08,2.18a44.54,44.54,0,0,1-4.56.26c-4.15,0-4.64-.87-4.72-3.64,0-.68,0-2.24,0-3.73l-1.07.12c-.51.06-1.51.22-1.92.28l-.23-2c.47,0,1.2,0,2-.12l1.22-.11V153.2a12.26,12.26,0,0,0-.13-1.77h2.25a10.58,10.58,0,0,0-.09,1.66c0,.37,0,.91,0,1.54l4.37-.4v-1.81a13,13,0,0,0-.11-1.47h2.15C900.76,151.2,900.72,151.91,900.7,152.34Z"/><path class="cls-4" d="M913.27,152.37c-.78,1.15-1.9,3.2-2.7,4.61a3.77,3.77,0,0,1,1.84-.48,1.9,1.9,0,0,1,2,2.08c0,.72,0,2,.07,2.68a.93.93,0,0,0,1,.86c1.39,0,2.24-1.79,2.7-3.78l1.73,1.41c-.83,2.74-2.32,4.56-4.77,4.56a2.37,2.37,0,0,1-2.67-2.22c-.06-.85,0-2.16-.1-2.82a.87.87,0,0,0-.94-.9c-1.09,0-2,1.13-2.56,2.42a32.85,32.85,0,0,0-1.22,3.57l-2.25-.77a122.06,122.06,0,0,1,5.31-11.25c.21-.43.51-1,.78-1.63l2.28.91C913.63,151.84,913.45,152.12,913.27,152.37Z"/><circle class="cls-3" cx="882.36" cy="224.78" r="10.14"/><circle class="cls-3" cx="902.03" cy="193.71" r="15.35"/><circle class="cls-3" cx="860.53" cy="243.09" r="7.6"/><circle class="cls-3" cx="839.2" cy="254.09" r="4.67"/><path class="cls-6" d="M775.76,127.27c-6.24-12.49-20.37-19.55-28.92-12.32-13.14-6.57-27.22,10.31-24.7,28.23a3.28,3.28,0,0,1,3.83,1c1.34,1.89.49,7.07.49,7.07l5.1-6.91s13.15,3.29,18.73-12.16c0,0,4.28,14.79,15.12,17.42a48.56,48.56,0,0,0,6.74,6.58s-1.76,3.3-4.18,7.47C783.55,160.38,781.83,139.41,775.76,127.27Z"/><path d="M768,164.78a1.11,1.11,0,0,1-1-1.67c1.68-2.9,3.06-5.4,3.72-6.63a49.51,49.51,0,0,1-5.94-5.87c-8.25-2.21-12.75-10.83-14.58-15.34C744.76,146.53,734.85,146,732,145.58l-4.68,6.35a1.11,1.11,0,0,1-2-.84c.32-2,.43-5.2-.31-6.25a2.18,2.18,0,0,0-2.53-.62,1.08,1.08,0,0,1-1-.09,1.13,1.13,0,0,1-.53-.8c-1.51-10.76,2.85-22.18,10.61-27.77,4.79-3.44,10.1-4.11,15-1.91a14,14,0,0,1,11.61-2.37c7.25,1.49,14.5,7.57,18.46,15.5h0c4.07,8.13,6.53,20.85,2.33,29.55a14.93,14.93,0,0,1-10.89,8.43A.93.93,0,0,1,768,164.78Zm-17.68-33.69h0a1.11,1.11,0,0,1,1,.8c0,.15,4.23,14.21,14.31,16.65a1.09,1.09,0,0,1,.6.38,48.14,48.14,0,0,0,6.56,6.4,1.11,1.11,0,0,1,.3,1.4s-1.14,2.14-2.81,5.08a12.57,12.57,0,0,0,6.76-6.43c3.71-7.68,1.64-19.69-2.31-27.6h0c-3.67-7.34-10.31-13-16.92-14.31a11.74,11.74,0,0,0-10.29,2.34,1.13,1.13,0,0,1-1.22.14c-4.34-2.17-9.09-1.66-13.39,1.43-6.84,4.92-10.79,14.85-9.85,24.48a4.23,4.23,0,0,1,3.78,1.71,7.47,7.47,0,0,1,1,4l2.82-3.83a1.12,1.12,0,0,1,1.17-.41c.49.11,12.25,2.81,17.42-11.46A1.11,1.11,0,0,1,750.29,131.09Z"/><path class="cls-2" d="M765.41,149.62c-10.84-2.63-15.12-17.42-15.12-17.42-5.58,15.45-18.73,12.16-18.73,12.16l-5.1,6.91s.85-5.18-.49-7.07a3.28,3.28,0,0,0-3.83-1,5.51,5.51,0,0,0-3.07,3.48c-1.34,3.23-2.14,11.18,1.64,12.82l-3.45,6.9c4,13.48,15.12,23.18,15.12,23.18,2.63-.66,5.1-3.46,5.1-3.46,7.06,3.46,15.44-2,20.87-8,2.94-3.29,6.74-9.44,9.62-14.38,2.42-4.17,4.18-7.47,4.18-7.47A48.56,48.56,0,0,1,765.41,149.62Z"/><path d="M732.38,190.67a1.18,1.18,0,0,1-.73-.27c-.46-.41-11.47-10.07-15.45-23.7a1.08,1.08,0,0,1,.07-.81l3-6c-3.57-2.85-2.4-10.8-1.22-13.66a6.45,6.45,0,0,1,3.72-4.1,4.37,4.37,0,0,1,5.12,1.42,7.47,7.47,0,0,1,1,4l2.82-3.83a1.12,1.12,0,0,1,1.17-.41c.49.11,12.25,2.81,17.42-11.46a1.13,1.13,0,0,1,1.08-.74,1.11,1.11,0,0,1,1,.8c0,.15,4.23,14.21,14.31,16.65a1.09,1.09,0,0,1,.6.38,48.14,48.14,0,0,0,6.56,6.4,1.11,1.11,0,0,1,.3,1.4s-1.79,3.37-4.2,7.51c-2.77,4.76-6.71,11.15-9.75,14.56-5.57,6.24-14,11.65-21.44,8.65a12.32,12.32,0,0,1-5.09,3.19A.84.84,0,0,1,732.38,190.67Zm-13.93-24.18c3.45,11.27,12.13,19.87,14.21,21.81a12.39,12.39,0,0,0,4-2.93,1.1,1.1,0,0,1,1.32-.26c6.48,3.16,14.35-2,19.56-7.8,2.92-3.28,6.77-9.53,9.49-14.2,1.68-2.9,3.06-5.4,3.72-6.63a49.51,49.51,0,0,1-5.94-5.87c-8.26-2.21-12.75-10.84-14.58-15.34-4.82,9.89-13.45,11.19-18.18,10.33l-4.67,6.33a1.11,1.11,0,0,1-2-.84c.32-2,.43-5.2-.31-6.25a2.18,2.18,0,0,0-2.53-.62,4.37,4.37,0,0,0-2.42,2.84c-1.32,3.2-1.78,10.18,1,11.4a1.14,1.14,0,0,1,.6.64,1.17,1.17,0,0,1,0,.88Z"/><path class="cls-2" d="M732.38,189.56s-11.17-9.7-15.12-23.18l-2.34,3.87s-7,27.48,5.79,90c0,0,23.34-22.89,21.27-73.05a10.32,10.32,0,0,1-4.5-1.07S735,188.9,732.38,189.56Z"/><path d="M720.71,261.33a.89.89,0,0,1-.32-.05,1.13,1.13,0,0,1-.77-.84c-12.72-62-6.07-89.34-5.78-90.47a1.14,1.14,0,0,1,.13-.3l2.34-3.86a1.11,1.11,0,0,1,2,.26c3.36,11.47,12.22,20.27,14.33,22.23a12.39,12.39,0,0,0,4-2.93,1.1,1.1,0,0,1,1.32-.26,9.59,9.59,0,0,0,4,.95,1.11,1.11,0,0,1,1.09,1.07c1.08,26.13-4.82,44.79-10,55.84-5.59,12-11.39,17.8-11.64,18A1.1,1.1,0,0,1,720.71,261.33ZM716,170.67c-.51,2.26-6.13,29.56,5.4,87.15,4.95-5.94,21-28.48,19.55-69.6a11.69,11.69,0,0,1-3.17-.78,12.42,12.42,0,0,1-5.09,3.19,1.13,1.13,0,0,1-1-.23c-.44-.39-10.22-9-14.69-21.37Z"/><path class="cls-10" d="M767.06,189c-2.08-5.36-3.39-9.75-7.63-12.22q-.55.7-1.08,1.29c-4.31,4.83-10.48,9.24-16.37,9.12,2.07,50.16-21.27,73.05-21.27,73.05-12.81-62.49-5.79-90-5.79-90l.93-1.53c-2.88.71-25.41,6.35-35.44,10.15-10.72,4.07-11.95,13.93-12.69,25.64s-.13,39.56,1.47,51.15,5.18,16.14,12.95,16.14h62.61s.61-21.93,8.5-53.61l12.82,30.32,11.83-28.84S769.4,195,767.06,189Z"/><path d="M744.75,272.92H682.14c-8.3,0-12.37-5-14-17.11-1.61-11.65-2.22-39.71-1.48-51.37.79-12.49,2.27-22.38,13.41-26.61,10.1-3.83,33-9.55,35.56-10.19a1.12,1.12,0,0,1,1.22,1.66l-.84,1.37c-.51,2.26-6.13,29.56,5.4,87.15,5-6,21.23-28.84,19.51-70.6a1.08,1.08,0,0,1,.31-.82,1.06,1.06,0,0,1,.82-.34c4.74.09,10.55-3.18,15.52-8.75.33-.38.68-.79,1-1.24a1.11,1.11,0,0,1,1.43-.27c4.16,2.42,5.71,6.5,7.51,11.23l.59,1.55h0c2.32,6,10.78,30.48,10.86,30.73a1.1,1.1,0,0,1,0,.78L767.1,248.93a1.11,1.11,0,0,1-1,.69h0a1.1,1.1,0,0,1-1-.68l-11.51-27.22c-7,29.44-7.68,49.9-7.68,50.12A1.11,1.11,0,0,1,744.75,272.92Zm-31-102.53c-6.67,1.69-24.43,6.3-32.94,9.52-9.91,3.76-11.21,12.6-12,24.67-.74,11.57-.13,39.38,1.47,50.93,1.53,11.07,4.74,15.18,11.84,15.18h61.54c.25-4.81,1.64-25.25,8.49-52.77a1.12,1.12,0,0,1,2.11-.16l11.77,27.86,10.66-26c-1.1-3.2-8.55-24.73-10.69-30.26q-.32-.8-.6-1.56c-1.58-4.15-2.85-7.5-5.76-9.59-.16.2-.33.38-.48.56-5,5.61-10.92,9.08-16,9.46.87,25.54-4.93,43.83-10,54.72-5.59,12-11.39,17.8-11.64,18a1.09,1.09,0,0,1-1.1.27,1.13,1.13,0,0,1-.77-.84C707.6,201.82,712.88,174.2,713.74,170.39Z"/><path d="M740.31,201.55a1.11,1.11,0,0,1-1-.6,36.79,36.79,0,0,0-7.09-10A60.35,60.35,0,0,0,719.79,201a1.15,1.15,0,0,1-.94.33,1.12,1.12,0,0,1-.83-.56,59.25,59.25,0,0,1-4.41-10.2,1.11,1.11,0,0,1,2.13-.66,55.21,55.21,0,0,0,3.52,8.46c6.83-6.79,12.37-9.65,12.62-9.77a1.1,1.1,0,0,1,1.19.11c.17.13,4.22,3.37,8.23,11.26a1.1,1.1,0,0,1-.49,1.49A1,1,0,0,1,740.31,201.55Z"/><path d="M713.32,252.58a.73.73,0,0,1-.67-.43c-15-32.05-16.45-57.09-16.46-57.34a.73.73,0,0,1,.45-.72l8.83-3.72-7.06-4a.73.73,0,0,1-.36-.49.75.75,0,0,1,.13-.6l8.14-10.72a.74.74,0,1,1,1.18.89l-7.62,10,7.64,4.27a.78.78,0,0,1,.38.69.76.76,0,0,1-.46.64l-9.74,4.11c.29,3.71,2.56,27,16.29,56.27a.75.75,0,0,1-.36,1A.7.7,0,0,1,713.32,252.58Z"/><path d="M730.94,250.85a.78.78,0,0,1-.45-.15.75.75,0,0,1-.14-1c19-24.9,21.9-49.22,22.25-52.86L745.5,193a.73.73,0,0,1-.38-.65.71.71,0,0,1,.38-.65l5.64-3.1-1.74-3.17a.73.73,0,0,1,.29-1,.74.74,0,0,1,1,.29l2.09,3.82a.74.74,0,0,1-.29,1l-5.09,2.79,6.32,3.42a.74.74,0,0,1,.38.7c0,.27-1.85,26.92-22.58,54.14A.72.72,0,0,1,730.94,250.85Z"/><path d="M753.25,219.3a1.07,1.07,0,0,1-.25,0,1.11,1.11,0,0,1-.83-1.33,138.81,138.81,0,0,1,5.1-15.69,1.11,1.11,0,0,1,2.07.82,139,139,0,0,0-5,15.38A1.1,1.1,0,0,1,753.25,219.3Z"/><path class="cls-5" d="M732,242.67c.2-7.4.42-25.47-1.59-38.41a21.08,21.08,0,0,0,5.86-10.35,24.46,24.46,0,0,0-3.93-4.35,47.71,47.71,0,0,0-7.67,5.34,48.84,48.84,0,0,0,2.29,9.36s-5.26,14.39-10.17,34.44c1,6.65,2.3,13.82,3.88,21.52C720.71,260.22,726.49,254.55,732,242.67Z"/><path d="M720.71,261.33a.89.89,0,0,1-.32-.05,1.13,1.13,0,0,1-.77-.84c-1.5-7.35-2.81-14.61-3.89-21.57a1,1,0,0,1,0-.43c4.42-18.07,9.19-31.72,10.06-34.17a51.36,51.36,0,0,1-2.2-9.2,1.12,1.12,0,0,1,.39-1,48.93,48.93,0,0,1,7.87-5.47,1.11,1.11,0,0,1,1.2.11,25.71,25.71,0,0,1,4.13,4.57,1.13,1.13,0,0,1,.2.89,22,22,0,0,1-5.76,10.52c1.93,13,1.7,30.89,1.51,38a1.14,1.14,0,0,1-.1.45c-5.57,11.91-11.32,17.62-11.56,17.86A1.1,1.1,0,0,1,720.71,261.33ZM718,238.75c1,6.17,2.1,12.58,3.4,19.08a72.19,72.19,0,0,0,9.58-15.42c.19-7.34.39-25.23-1.59-38a1.09,1.09,0,0,1,.36-1,20.3,20.3,0,0,0,5.4-9.27,27.26,27.26,0,0,0-2.88-3.26,52.72,52.72,0,0,0-6.33,4.45,45.92,45.92,0,0,0,2.14,8.5,1.1,1.1,0,0,1,0,.78C728,204.79,722.78,219.11,718,238.75ZM732,242.67h0Z"/><path d="M682.13,272.92a1.11,1.11,0,0,1-.1-2.22c6.4-.61,27.29-4.75,27.5-4.79a1.1,1.1,0,0,1,1.3.87,1.11,1.11,0,0,1-.87,1.31c-.86.17-21.21,4.21-27.72,4.82Z"/><path d="M691,249.87a1.13,1.13,0,0,1-.73-.27,1.15,1.15,0,0,1-.38-.81c0-.16-.49-16.25-.25-33.45a1.12,1.12,0,0,1,2.23,0c-.21,14.45.1,28.11.21,32.15l21.48-2.33a1.1,1.1,0,0,1,1.22,1,1.11,1.11,0,0,1-1,1.23l-22.68,2.46Z"/><path d="M688.92,209.81a.75.75,0,0,1-.66-.39,140.7,140.7,0,0,0-10-15.67.74.74,0,0,1,.14-1,.75.75,0,0,1,1,.13,142.08,142.08,0,0,1,10.17,15.88.74.74,0,0,1-.3,1A.76.76,0,0,1,688.92,209.81Z"/><path d="M677.33,258a.77.77,0,0,1-.25,0,.74.74,0,0,1-.45-.94c1.8-5.14,7.84-8.64,8.1-8.78a.74.74,0,1,1,.73,1.28c-.06,0-5.82,3.38-7.43,8A.74.74,0,0,1,677.33,258Z"/><path class="cls-2" d="M714.3,265.4s5.8.61,9.62-2.28,10.23-4.75,10.23-4.75l-2.78-2.59L719.6,256Z"/><path d="M715.66,266.56a14.55,14.55,0,0,1-1.47-.06,1.1,1.1,0,0,1-.87-.59,1.11,1.11,0,0,1,0-1.06l5.3-9.43a1.12,1.12,0,0,1,1-.56l11.77-.19a1.09,1.09,0,0,1,.77.3l2.78,2.59a1.11,1.11,0,0,1-.45,1.88c-.07,0-6.26,1.83-9.87,4.56C721.65,266.23,717.76,266.56,715.66,266.56Zm4.6-9.49-4.08,7.26a12.77,12.77,0,0,0,7.07-2.1,34.44,34.44,0,0,1,8.76-4.34l-1.07-1Z"/><path class="cls-2" d="M758.67,239.94s-2.89,4.63-3.75,6.29a3.29,3.29,0,0,0,1.29,4.38,51.23,51.23,0,0,0,5.3,2.46Z"/><path d="M761.51,254.18a1,1,0,0,1-.42-.08,50.09,50.09,0,0,1-5.47-2.55,4.39,4.39,0,0,1-1.69-5.83c.87-1.69,3.68-6.18,3.8-6.37a1.11,1.11,0,0,1,2,.36l2.84,13.13a1.11,1.11,0,0,1-1.09,1.34Zm-3.34-11.3c-.85,1.38-1.83,3-2.27,3.86a2.2,2.2,0,0,0,.9,2.92,29.41,29.41,0,0,0,3.17,1.56Z"/><path class="cls-2" d="M702.72,259c-.22,5.66,3.63,9.18,8.87,7.82s10.66-9.43,10.66-9.43l8-.12s5,3.95,6.91,5.3,3.88.25,3.63-2c0,0,1,1.05,3,2.65s4.75,1,4.31-1.54c1.79.37,2.78-1.36,1.24-3.33s-6.72-8.07-6.72-8.07l-3.94-2.16,3.26-.25s6.47,4.26,9.31,5.92,5.17-.68,3-2.65-7.09-5.48-8.45-6.59-2.28-2.16-6-2.16a143,143,0,0,0-24.47,3C706.42,247.46,703,252.52,702.72,259Z"/><path d="M709.41,268.22a7.47,7.47,0,0,1-4.76-1.62,9,9,0,0,1-3-7.66h0c.29-7.71,4.81-12.62,13.43-14.59a143.23,143.23,0,0,1,24.72-3c3.8,0,5.1,1.09,6.36,2.14l.32.27c.45.37,1.36,1,2.41,1.84,2,1.55,4.59,3.47,6.06,4.78s1.49,3,.77,4c-.87,1.19-2.87,1.74-5,.48-1.5-.89-4-2.47-6-3.78,1.63,1.93,4.46,5.3,5.55,6.7a3.49,3.49,0,0,1,.61,4,2.46,2.46,0,0,1-1.61,1.12,2.81,2.81,0,0,1-1.37,2,4.27,4.27,0,0,1-4.75-.69c-.64-.52-1.18-1-1.63-1.37a2.93,2.93,0,0,1-1.09,1.12,3.53,3.53,0,0,1-3.88-.38c-1.65-1.18-5.5-4.2-6.63-5.09l-7,.11c-1.3,1.82-6.1,8.14-11,9.4A9.75,9.75,0,0,1,709.41,268.22ZM703.83,259a6.87,6.87,0,0,0,2.21,5.83,5.84,5.84,0,0,0,5.27.88c4.78-1.24,10-8.9,10-9a1.12,1.12,0,0,1,.91-.49l8-.12a1.14,1.14,0,0,1,.7.24c.05,0,5,3.94,6.86,5.26a1.4,1.4,0,0,0,1.47.28,1.2,1.2,0,0,0,.42-1.22,1.08,1.08,0,0,1,.62-1.12,1.11,1.11,0,0,1,1.27.21s1,1,2.93,2.58a2.17,2.17,0,0,0,2.23.49c.1-.06.42-.24.29-1a1.12,1.12,0,0,1,.32-1,1.09,1.09,0,0,1,1-.29c.23.05.51,0,.6-.11s.09-.73-.47-1.44c-1.37-1.76-5.73-6.92-6.55-7.89l-3.77-2a1.12,1.12,0,0,1-.55-1.21,1.1,1.1,0,0,1,1-.88l3.27-.24a1.11,1.11,0,0,1,.69.17c.07,0,6.48,4.26,9.26,5.89,1.05.62,1.88.44,2.1.13s-.12-.7-.44-1c-1.41-1.25-3.92-3.14-5.93-4.66-1.07-.81-2-1.5-2.48-1.9l-.34-.28c-1.13-1-1.94-1.63-4.93-1.63a141.6,141.6,0,0,0-24.22,3c-7.63,1.75-11.46,5.84-11.71,12.52Z"/><path d="M740.18,261.07s-4.13-4.8-5.48-6.34a5.17,5.17,0,0,0-3.54-2c-1.12-.15-5.81,0-7.53,0a.74.74,0,0,1,0-1.48c.25,0,6.3-.18,7.76,0a6.7,6.7,0,0,1,4.46,2.46c1.36,1.54,5.49,6.36,5.49,6.36Z"/><path d="M748.08,262.44a.73.73,0,0,1-.56-.26c-.25-.28-6.13-7-7.29-8.45a8.12,8.12,0,0,0-3.35-2.38c-.9-.38-6.23-2-8.93-2.87a.74.74,0,0,1,.44-1.42c.32.1,7.87,2.42,9.06,2.92a9.69,9.69,0,0,1,3.92,2.8c1.16,1.4,7.2,8.36,7.26,8.43a.74.74,0,0,1-.07,1.05A.74.74,0,0,1,748.08,262.44Z"/><path d="M738.65,248.88a.69.69,0,0,1-.37-.1c-2.42-1.39-5.9-3.1-5.94-3.12a.74.74,0,0,1-.34-1,.75.75,0,0,1,1-.34s3.56,1.75,6,3.17a.74.74,0,0,1-.37,1.38Z"/><path class="cls-2" d="M770.51,237.48a76.43,76.43,0,0,0-8.57-1.17c-3.51-.19-3.76,2.65-3.57,5.73s3.08,13.37,3.08,13.37Z"/><path d="M761.45,256.52h-.11a1.09,1.09,0,0,1-1-.81c-.12-.42-2.93-10.44-3.12-13.6-.14-2.2-.07-4.43,1.28-5.79A4.33,4.33,0,0,1,762,235.2a78.42,78.42,0,0,1,8.72,1.19,1.15,1.15,0,0,1,.79.6,1.11,1.11,0,0,1,0,1l-9.06,17.93A1.11,1.11,0,0,1,761.45,256.52Zm.17-19.11a2,2,0,0,0-1.5.48c-.74.75-.73,2.57-.64,4.08a81.28,81.28,0,0,0,2.28,10.36l7.08-14a67,67,0,0,0-7-.89Z"/><path d="M765,250.18a.74.74,0,0,1-.73-.63L762.75,240a.74.74,0,1,1,1.46-.23l1.48,9.55a.74.74,0,0,1-.62.85Z"/><path d="M737.47,187.22a1.24,1.24,0,0,1-.41-.08c-5.14-2.06-9.37-7.53-12.95-16.74a1.11,1.11,0,1,1,2.08-.8c3.33,8.6,7.16,13.66,11.7,15.47a1.12,1.12,0,0,1-.42,2.15Z"/><path d="M751.12,171.15H751l-3.12-.66a.74.74,0,1,1,.31-1.45l3.12.66a.74.74,0,0,1-.15,1.46Z"/><path d="M749.72,177.73a.69.69,0,0,1-.45-.16c-3.93-3-10.12-1.13-10.18-1.11a.74.74,0,0,1-.44-1.42c.28-.08,7-2.13,11.52,1.36a.74.74,0,0,1-.45,1.33Z"/><path d="M745,179.62h0l-3.53-.16a.74.74,0,0,1-.71-.77.77.77,0,0,1,.78-.71l3.53.16a.74.74,0,0,1,.7.78A.73.73,0,0,1,745,179.62Z"/><path d="M743.7,152.8a15.16,15.16,0,0,1-3.44-.4.75.75,0,0,1-.55-.89.73.73,0,0,1,.89-.55,11.88,11.88,0,0,0,8.24-.82.74.74,0,1,1,.77,1.27A12.19,12.19,0,0,1,743.7,152.8Z"/><path d="M767.71,159.4h-.1c-4.56-.63-6.42-5.12-6.5-5.31a.74.74,0,0,1,.41-1,.73.73,0,0,1,1,.4h0s1.63,3.89,5.33,4.4a.74.74,0,0,1-.1,1.47Z"/><path d="M765.41,150.73a1.1,1.1,0,0,1-.83-.37,21.92,21.92,0,0,1-4.37-9.32,1.11,1.11,0,0,1,.89-1.3,1.12,1.12,0,0,1,1.3.89,20,20,0,0,0,3.85,8.26,1.12,1.12,0,0,1-.1,1.57A1.15,1.15,0,0,1,765.41,150.73Z"/><path class="cls-2" d="M771.33,135.82a.75.75,0,0,1-.74-.64c-.85-6-5.75-10-5.8-10a.73.73,0,0,1-.12-1,.74.74,0,0,1,1-.12c.22.18,5.42,4.37,6.35,11a.73.73,0,0,1-.63.83Z"/><ellipse cx="743.29" cy="157.93" rx="2.15" ry="1.65" transform="translate(262.46 746.33) rotate(-62.74)"/><ellipse cx="762.28" cy="161.81" rx="2.15" ry="1.65" transform="translate(269.29 765.31) rotate(-62.74)"/><rect class="cls-2" x="711.59" y="267.29" width="117.91" height="4.52"/><path d="M829.5,272.92H711.59a1.12,1.12,0,0,1-1.11-1.12v-4.51a1.12,1.12,0,0,1,1.11-1.12H829.5a1.11,1.11,0,0,1,1.11,1.12v4.51A1.11,1.11,0,0,1,829.5,272.92Zm-116.8-2.23H828.39V268.4H712.7Z"/><path d="M757,272.55a.75.75,0,0,1-.74-.75v-4.51a.74.74,0,1,1,1.48,0v4.51A.75.75,0,0,1,757,272.55Z"/><path class="cls-2" d="M779.72,205.17h70.17a2.8,2.8,0,0,1,2.64,3.71l-19.74,56.53a2.81,2.81,0,0,1-2.64,1.88H760a2.8,2.8,0,0,1-2.64-3.72L777.08,207A2.79,2.79,0,0,1,779.72,205.17Z"/><path d="M830.15,268.4H760a3.92,3.92,0,0,1-3.69-5.2L776,206.67a3.92,3.92,0,0,1,3.69-2.61h70.17a3.9,3.9,0,0,1,3.18,1.64,3.94,3.94,0,0,1,.51,3.55l-19.75,56.53A3.9,3.9,0,0,1,830.15,268.4Zm-50.43-62.12a1.69,1.69,0,0,0-1.59,1.13l-19.74,56.53a1.68,1.68,0,0,0,.22,1.53,1.66,1.66,0,0,0,1.37.7h70.17a1.69,1.69,0,0,0,1.59-1.12l19.74-56.53a1.69,1.69,0,0,0-1.59-2.24Z"/><path d="M842,272.92H661.55a1.12,1.12,0,0,1,0-2.23H842a1.12,1.12,0,0,1,0,2.23Z"/></g></g></svg>