<?xml version="1.0" encoding="utf-8"?>
<!-- Generator: Adobe Illustrator 26.0.0, SVG Export Plug-In . SVG Version: 6.00 Build 0)  -->
<svg version="1.1" id="レイヤー_1" xmlns="http://www.w3.org/2000/svg" xmlns:xlink="http://www.w3.org/1999/xlink" x="0px"
	 y="0px" viewBox="0 0 879.3 413.6" style="enable-background:new 0 0 879.3 413.6;" xml:space="preserve">
<style type="text/css">
	.st0{fill:#FF8296;}
	.st1{opacity:0.5;fill:#1EB4E1;enable-background:new    ;}
	.st2{fill:#1EB4E1;}
	.st3{fill:none;stroke:#000000;stroke-miterlimit:10;}
	.st4{fill:none;stroke:#786478;stroke-width:8;stroke-linecap:round;stroke-miterlimit:10;}
	.st5{fill:#141F42;}
	.st6{fill:#FFFFFF;}
	.st7{fill:none;stroke:#FF8296;stroke-width:2;stroke-miterlimit:10;stroke-dasharray:10,8;}
	.st8{fill:none;stroke:#4B4B4B;stroke-width:2;stroke-miterlimit:10;}
	.st9{fill:#4B4B4B;}
	.st10{fill:#FFAA1E;}
	.st11{fill:#00D7FF;}
	.st12{fill:#786478;}
</style>
<g>
	<g id="Layer_2">
		<g id="レイヤー_6">
			<path class="st0" d="M119.2,392.6v5.3c3.3-0.8,6.5-1.8,9.7-3.1c1.1-0.4,2.1-0.9,3.1-1.5l1.5,3.5c-1.1,0.5-2.4,1-3.3,1.3
				c-3.6,1.4-7.3,2.5-11,3.4v5.2c0,1.2,0.6,1.5,1.8,1.8c1.1,0.1,2.2,0.2,3.2,0.2c3.3,0,6.5-0.3,9.7-1v4.1c-3.3,0.4-6.7,0.6-10,0.6
				c-1.6,0-3.1-0.1-4.7-0.3c-2.4-0.5-3.8-1.8-3.8-4.2v-15.2c0-1-0.1-2-0.2-2.9h4.1C119.2,390.6,119.1,391.6,119.2,392.6z
				 M133.7,392.3l-2.3,1c-0.6-1.3-1.4-2.6-2.2-3.9l2.2-0.9C132.1,389.5,133.2,391.2,133.7,392.3z M137,391l-2.2,1
				c-0.7-1.3-1.4-2.6-2.3-3.9l2.2-0.9C135.6,388.4,136.3,389.7,137,391z"/>
			<path class="st0" d="M162.3,391.9l-1.4,0.6l0.6,3.3c-0.6,0-1.7,0.2-2.6,0.3l-5.6,0.9c0.3,1.4,0.6,3,0.9,4.5
				c2.5-0.4,4.8-0.8,6.1-1c1.1-0.2,2.1-0.5,2.9-0.7l0.8,3.7c-0.8,0-1.9,0.2-3,0.4l-6.1,1c0.4,2.3,0.8,4.2,1,5s0.5,1.9,0.7,2.7
				l-4,0.7c-0.1-1.1-0.2-2-0.4-2.9s-0.5-2.7-0.9-5.1c-2.9,0.5-5.5,0.9-6.7,1.1s-2.2,0.4-2.8,0.6l-0.8-3.7c0.8,0,2-0.2,2.9-0.3
				c1.3-0.2,3.9-0.6,6.8-1.1c-0.3-1.5-0.6-3-0.9-4.5l-5.5,0.9c-0.9,0.2-1.6,0.3-2.6,0.6l-0.8-3.9c0.9-0.1,1.7-0.1,2.6-0.2
				s3.1-0.4,5.5-0.8c-0.2-1.2-0.4-2.1-0.5-2.5c-0.2-0.8-0.4-1.5-0.6-2.1l3.9-0.6c0.1,0.6,0.2,1.5,0.3,2.2c0.1,0.4,0.2,1.3,0.5,2.6
				c2.4-0.4,4.5-0.7,5.5-0.9c0.5-0.1,1.1-0.2,1.6-0.3c-0.6-1.2-1.2-2.3-1.9-3.4l2.2-0.9C160.8,389.1,161.8,390.9,162.3,391.9z
				 M165.7,390.6l-2.2,1c-0.7-1.3-1.4-2.6-2.3-3.9l2.2-0.9C164.2,388,165,389.3,165.7,390.6L165.7,390.6z"/>
			<path class="st0" d="M179.2,389h4.4c-0.2,1.1-0.2,2.2-0.2,3.3v3h6.3c1.3,0,2.5-0.1,3.1-0.2v3.9c-0.6,0-2-0.1-3.1-0.1h-6.3
				c-0.2,5.6-1.9,10.2-8,13.8l-3.4-2.6c5.5-2.5,7.4-6.5,7.6-11.2h-7.1c-1.2,0-2.4,0.1-3.2,0.1v-3.9c1,0.1,2.1,0.2,3.1,0.2h7.3v-3.1
				C179.6,391.2,179.5,390.1,179.2,389z"/>
			<path class="st0" d="M201.9,398.3h15c1.3,0,2.5-0.1,3.3-0.2v4.4c-0.7,0-2.1-0.1-3.3-0.1h-15c-1.6,0-3.5,0.1-4.5,0.1v-4.4
				C198.4,398.2,200.4,398.3,201.9,398.3z"/>
			<path class="st0" d="M248.4,409.7c0,1.8-0.4,2.8-1.6,3.3s-3,0.6-5.5,0.6c-0.2-1.2-0.6-2.3-1.1-3.4c1.6,0.1,3.5,0.1,4.1,0
				s0.7-0.1,0.7-0.6v-14.3h-16.5v18.2h-3.3v-21.5h7.8c0.6-1.5,1.1-3.1,1.5-4.7l4.2,0.6c-0.6,1.4-1.3,2.9-2,4.1h11.7L248.4,409.7z
				 M234.3,407.6v2h-3V398h10.9v9.5L234.3,407.6z M234.3,401v3.7h4.9V401L234.3,401z"/>
			<path class="st0" d="M258,391.6c-0.7,3.1-1.7,9-0.9,12.5c0.4-0.9,0.9-2.2,1.3-3.2l1.7,1.1c-0.8,2.2-1.4,4.5-1.9,6.8
				c-0.1,0.4-0.2,0.9-0.2,1.4c0,0.3,0,0.8,0,1.1l-3.1,0.3c-1-2.9-1.5-6-1.6-9.1c0-3.7,0.3-7.5,0.9-11.2c0.1-0.8,0.2-1.6,0.2-2.4
				l4.1,0.4C258.4,390.1,258.2,390.8,258,391.6z M272.5,390.8v3.6c1.4-0.1,2.8-0.3,4.2-0.5v3.6c-1.1,0.1-2.6,0.3-4.1,0.3v1.2
				c0,6.6-0.5,10.7-6.1,14.2l-3.2-2.5c1.2-0.5,2.3-1.3,3.2-2.2c2.2-2.2,2.6-4.7,2.6-9.5v-1c-1.1,0-2.1,0.1-3.1,0.1
				c-1.2,0-2.9-0.1-4.3-0.1v-3.6c1.4,0.2,2.8,0.3,4.2,0.3c1,0,2.1,0,3.2-0.1c0-1.6-0.1-3-0.1-3.8c-0.1-0.6-0.2-1.3-0.3-1.9h4.1
				C272.5,389.5,272.5,390.2,272.5,390.8L272.5,390.8z"/>
			<path class="st0" d="M286.6,391.4h14.1c0.8,0,2,0,2.5-0.1c0,0.6-0.1,1.8-0.1,2.6v14.5c0,1,0,2.5,0.1,3.3h-4.1c0-0.5,0-0.9,0-1.5
				h-12.7c-1.1,0-2.7,0.1-3.6,0.2v-4c1,0.1,2.2,0.2,3.5,0.2h12.9V395h-12.6c-1.2,0-2.7,0.1-3.5,0.1v-3.9
				C284.2,391.4,285.7,391.4,286.6,391.4z"/>
			<path class="st0" d="M320.8,404.8c4.4-2.6,8-6.3,10.2-10.9l2.2,4c-2.5,4.3-6.1,7.8-10.4,10.4c-3.2,1.9-6.7,3.3-10.4,3.9l-2.4-3.7
				C313.8,408,317.5,406.8,320.8,404.8z M320.8,395.8l-2.9,2.9c-2.2-2.2-4.5-4.2-7-6l2.6-2.8C316.1,391.7,318.5,393.6,320.8,395.8
				L320.8,395.8z"/>
			<path class="st0" d="M339.9,397h18.3c0.9,0,1.7-0.1,2.5-0.2v3.6c-0.7,0-1.8-0.1-2.5-0.1h-6.7c-0.1,2.5-0.7,4.9-1.8,7.2
				c-1.3,2.3-3.3,4.2-5.7,5.4l-3.3-2.4c2-0.8,3.8-2.2,5.1-4c1.1-1.9,1.7-4,1.7-6.2h-7.7c-0.8,0-1.9,0-2.7,0.1v-3.7
				C338,397,338.9,397,339.9,397z M343.4,389.9h11.3c1,0,2-0.1,3-0.2v3.6c-1-0.1-2-0.1-3-0.1h-11.2c-1,0-2.2,0.1-3,0.1v-3.6
				C341.4,389.8,342.4,389.9,343.4,389.9L343.4,389.9z"/>
			<path class="st0" d="M376.8,404.8c4.4-2.6,8-6.3,10.2-10.9l2.2,4c-2.5,4.3-6.1,7.8-10.4,10.4c-3.2,1.9-6.7,3.3-10.4,3.9l-2.4-3.7
				C369.8,408,373.5,406.8,376.8,404.8z M376.8,395.8l-2.9,2.9c-2.2-2.2-4.5-4.2-7-6l2.6-2.8C372.1,391.7,374.5,393.6,376.8,395.8
				L376.8,395.8z"/>
			<path class="st0" d="M399.5,398.9l-3.6,1.3c-0.9-2.7-2-5.3-3.2-7.9l3.6-1.2C397.1,392.8,398.9,397,399.5,398.9z M416.1,393.7
				c-0.9,3.8-2.5,7.4-4.7,10.6c-2.8,3.7-6.6,6.5-11,8.2l-3.1-3.1c4.3-1.2,8.2-3.8,11.1-7.2c2.1-2.7,3.8-7.5,4.3-11.8l4.2,1.2
				C416.5,392.3,416.3,393,416.1,393.7L416.1,393.7z M407,396.8l-3.5,1.2c-0.8-2.6-1.8-5.1-2.9-7.6l3.5-1.1
				C405.2,391.8,406.2,394.3,407,396.8z"/>
			<path class="st0" d="M431,391.5c-0.2,0.8-0.4,1.9-0.6,2.9c1,0,1.8-0.1,2.4-0.1c3,0,5.1,1.3,5.1,5.4c0,3.3-0.4,7.8-1.6,10.3
				c-0.9,2-2.5,2.6-4.6,2.6c-1.1,0-2.3-0.2-3.4-0.4l-0.6-3.7c1.1,0.3,2.3,0.5,3.4,0.6c0.9,0.1,1.7-0.4,2.1-1.2
				c0.8-1.6,1.1-5,1.1-7.8c0-2.2-1-2.5-2.7-2.5c-0.5,0-1.1,0.1-2,0.1c-1.1,4.2-3.1,10.9-5.7,15l-3.6-1.5c2.7-3.7,4.6-9.3,5.7-13.2
				l-2.4,0.3c-0.8,0.1-2.3,0.3-3.1,0.5l-0.3-3.8c1,0.1,2,0.1,3,0c0.9,0,2.2-0.1,3.6-0.3c0.4-1.9,0.6-3.9,0.6-5.9l4.2,0.4
				C431.4,389.9,431.2,390.8,431,391.5z M442.9,392l-1.4,0.6c1.9,3.1,3.4,6.4,4.6,9.8l-3.5,1.7c-0.7-3.1-2.7-8-4.7-10.5l2.5-1.1
				c-0.6-1.1-1.2-2.2-1.9-3.3l2.2-0.9C441.4,389.2,442.4,390.9,442.9,392L442.9,392z M446.2,390.7l-2.2,1c-0.7-1.3-1.4-2.6-2.3-3.9
				l2.2-0.9C444.8,388.1,445.5,389.4,446.2,390.7L446.2,390.7z"/>
			<path class="st0" d="M464.7,396.5c3,2.1,7.3,5.4,9.3,7.6l-2.8,2.5c-2.6-2.8-5.5-5.3-8.6-7.6v14.5H459v-13.7
				c-2.6,2.8-5.6,5.1-8.9,6.9c-0.7-1.1-1.4-2.1-2.3-3c5-2.5,9.2-6.3,12.1-11h-11.2v-3.4h24.3v3.4h-8.7c-0.5,0.9-1,1.7-1.6,2.6v2.9
				L464.7,396.5z"/>
			<path class="st0" d="M490.7,409.8c1.4,0.2,2.9,0.3,4.3,0.3c1.2,0,5.4,0,6.9,0c-0.5,1-0.9,2.1-1.1,3.2h-5.9c-5.6,0-10-1-12.9-5.3
				c-0.8,2.1-2.1,4-3.8,5.5c-0.7-0.8-1.5-1.6-2.4-2.3c3-2.4,4.3-6.9,4.6-10.8l3.5,0.4c-0.2,1.1-0.4,2.2-0.7,3.3
				c0.7,1.9,2.2,3.5,4,4.5v-9.9h-8v-10.2H499v10.2h-8.2v3.5h9.1v3.1h-9.1L490.7,409.8z M482.6,395.6h12.8v-3.8h-12.8V395.6z"/>
			<ellipse class="st1" cx="401.4" cy="204.6" rx="208" ry="93.6"/>
			<path class="st2" d="M400.3,46.5l-3-2.1c2.1-2.1,3.9-4.5,5.3-7.2l3.2,1.5C404.2,41.5,402.4,44.1,400.3,46.5z M412,29.1v2.2h6.5
				c0.9,0,1.9-0.1,2.8-0.2v3.7c-0.9-0.1-2-0.1-2.7-0.1H412v13c0,1.6-1,2.6-2.9,2.6c-1.5,0-3-0.1-4.5-0.2l-0.4-3.5
				c1,0.2,2.1,0.3,3.1,0.3c0.7,0,1-0.3,1-1c0-1,0-9.9,0-11.2l0,0h-7.1c-0.9,0-1.8,0-2.7,0.1v-3.7c0.9,0.1,1.8,0.2,2.7,0.2h7.1v-2.2
				c0-0.8-0.1-1.6-0.2-2.4h4.1C412.1,27.5,412,28.3,412,29.1z M422.5,44.5l-3.3,1.8c-1.3-2.6-2.8-5.1-4.6-7.5l3-1.7
				C419.4,39.5,421,42,422.5,44.5L422.5,44.5z"/>
			<path class="st2" d="M430.9,36.3h15c1.3,0,2.5-0.1,3.3-0.2v4.4c-0.7,0-2.1-0.1-3.3-0.1h-15c-1.6,0-3.5,0.1-4.5,0.1v-4.4
				C427.4,36.2,429.4,36.3,430.9,36.3z"/>
			<path class="st2" d="M466.1,31.1c-0.9,2.7-3.2,9.9-4.6,13.6c3.4-0.3,7.4-0.7,10.2-1.1c-0.8-1.8-1.8-3.5-2.9-5.1l3.5-1.4
				c2.3,3.7,4.4,7.6,6.1,11.6l-3.8,1.7c-0.4-1-0.8-2.1-1.3-3.3c-4.5,0.5-13,1.4-16.5,1.8l-2.6,0.3l-0.6-4.1c1,0,2.2,0,3.1,0h0.8
				c1.6-4.1,4-11.8,4.8-14.7c0.3-1.1,0.5-2.2,0.7-3.2l4.5,0.9C467,28.9,466.5,29.9,466.1,31.1z"/>
			<path class="st2" d="M483.1,39c1.3-1.3,3.4-4,5.4-6.3c1.6-2,3.3-2.3,5.5-0.2c1.9,1.8,4,4,5.7,5.8c1.9,2,4.7,5.1,6.9,7.4l-3.1,3.3
				c-1.9-2.3-4.2-5.2-5.9-7.1s-4.1-4.7-5.1-5.7s-1.5-0.8-2.3,0.2c-1.1,1.4-3.1,4.2-4.2,5.7c-0.6,0.9-1.3,1.9-1.8,2.6l-3.4-3.5
				C481.6,40.5,482.4,39.8,483.1,39z M501.8,28.3c2,0,3.6,1.6,3.6,3.6c0,2-1.6,3.6-3.6,3.6c0,0,0,0,0,0c-2,0-3.6-1.6-3.6-3.6
				C498.2,30,499.8,28.3,501.8,28.3z M501.8,33.7c1,0,1.8-0.8,1.8-1.8c0-1-0.8-1.8-1.8-1.8c-1,0-1.8,0.8-1.8,1.8c0,0,0,0,0,0
				C500,33,500.8,33.8,501.8,33.7C501.8,33.8,501.8,33.8,501.8,33.7L501.8,33.7z"/>
			<path class="st2" d="M514.9,36.3h15c1.3,0,2.5-0.1,3.3-0.2v4.4c-0.7,0-2.1-0.1-3.3-0.1h-15c-1.6,0-3.5,0.1-4.5,0.1v-4.4
				C511.4,36.2,513.4,36.3,514.9,36.3z"/>
			<path class="st2" d="M546.2,37.4l-2,3.1c-1.6-1.1-4.5-3-6.4-4l2-3.1C542,34.7,544.1,36,546.2,37.4z M548.4,43.8
				c4.5-2.4,8.3-6.1,10.9-10.5l2.2,3.8c-2.9,4.2-6.7,7.6-11.1,10.1c-2.9,1.6-6.1,2.7-9.3,3.4l-2.1-3.6
				C542.2,46.5,545.4,45.4,548.4,43.8z M550.4,31.1l-2.1,3.1c-1.6-1.1-4.5-3-6.3-4l2-3.1C545.9,28.1,549,30.1,550.4,31.1L550.4,31.1
				z M558.7,32l-2.4,1c-0.7-1.5-1.5-3-2.5-4.4l2.4-1C557.1,29,558,30.5,558.7,32L558.7,32z M562.7,30.4l-2.4,1.1
				c-0.7-1.5-1.6-2.9-2.6-4.3l2.4-1C561,27.6,561.9,29,562.7,30.4L562.7,30.4z"/>
			<path class="st2" d="M590.5,46.8v3.4h-25.5v-3.4h10V25.7h3.6v8h9.9v3.4h-9.9v9.7L590.5,46.8z"/>
			<path class="st2" d="M607.1,50.4l-2.1-3.3c0.9-0.1,1.7-0.2,2.6-0.4c3.6-0.8,6.4-3.4,6.4-7.5c0-3.9-2.1-6.8-5.9-7.4
				c-0.4,2.6-0.9,5.1-1.7,7.6c-1.7,5.7-4.1,9.1-7.1,9.1s-5.7-3.4-5.7-8.2c0-6.5,5.6-12,12.8-12c6.9,0,11.3,4.8,11.3,10.9
				C617.7,45.2,614.1,49.3,607.1,50.4z M599.4,44.2c1.2,0,2.3-1.8,3.4-5.5c0.7-2.2,1.2-4.5,1.5-6.8c-4,0.8-6.9,4.1-7.1,8.1
				C597.2,42.8,598.3,44.2,599.4,44.2z"/>
			<path class="st2" d="M398.3,64.9h12.8v3.5h-8.6v5.4h7.4v3.5h-7.4v8.4h-4.1L398.3,64.9z"/>
			<path class="st2" d="M418.7,64.9h4.9l6.7,20.8h-4.3l-1.5-5.3h-6.7l-1.5,5.3h-4.2L418.7,64.9z M418.6,77.1h4.9l-0.6-2.3
				c-0.6-2.2-1.2-4.5-1.8-6.8H421c-0.5,2.3-1.1,4.6-1.8,6.8L418.6,77.1z"/>
			<path class="st2" d="M439,85.8c-4.4-0.8-7.4-4.8-7.4-10.7c0-6.8,3.8-10.7,9.3-10.7s9.3,4,9.3,10.7c0,5.7-2.7,9.5-6.8,10.5
				c1.1,1.5,2.9,2.3,4.7,2.2c0.8,0,1.5-0.1,2.3-0.3l0.8,3.1c-1.1,0.4-2.3,0.7-3.5,0.6C443.9,91.4,440.5,89.2,439,85.8z M445.9,75.2
				c0-4.4-2-7.1-5-7.1s-5,2.7-5,7.1c0,4.7,2,7.4,5,7.4S445.9,79.8,445.9,75.2L445.9,75.2z"/>
			<path class="st2" d="M474.3,77.1v1.7h4.7v2.8h-4.7v3c0,1.7-0.3,2.4-1.5,2.9c-1.6,0.4-3.2,0.6-4.8,0.5c-0.3-1.1-0.7-2.1-1.2-3.1
				c1.4,0.1,3.1,0.1,3.6,0.1s0.6-0.1,0.6-0.4v-3h-8.3c1.3,0.9,2.4,2,3.4,3.2l-2.6,2.1c-1.2-1.6-2.6-3-4.2-4.2l1.5-1.1h-5.1v-2.8
				h15.4v-1.6h-16.5v-2.8h11v-1.6h-8.1v-2.8h8.1v-1.3h1.7c-0.6-0.4-1.2-0.8-1.6-1c0.4-0.3,0.7-0.6,1-1h-3.8c0.3,0.6,0.6,1.2,0.8,1.8
				l-2.9,1.2c-0.3-1-0.8-2-1.3-2.9H459c-0.8,1.1-1.7,2.2-2.6,3.2c-0.9-0.7-1.8-1.2-2.7-1.8c1.9-1.7,3.5-3.9,4.5-6.3l3.2,0.8
				c-0.2,0.5-0.4,0.9-0.7,1.4h6.1v2.3c1.1-1.3,2-2.9,2.6-4.5l3.2,0.8c-0.2,0.5-0.4,1-0.6,1.4h7.7v2.7h-4.6c0.4,0.6,0.8,1.1,1.1,1.8
				l-2.9,1.2c-0.5-1.1-1-2.1-1.7-3h-1.1c-0.5,0.8-1,1.5-1.6,2.2v1.1h8.5v2.8h-8.5v1.6h11.1v2.8H474.3z"/>
			<path class="st2" d="M496.4,86.9l-2.1-3.3c0.9-0.1,1.7-0.2,2.6-0.4c3.6-0.8,6.4-3.4,6.4-7.5c0-3.9-2.1-6.7-5.9-7.4
				c-0.4,2.6-0.9,5.1-1.7,7.6c-1.7,5.7-4.1,9.2-7.1,9.2s-5.7-3.4-5.7-8.2c0-6.5,5.6-12,12.9-12c6.9,0,11.3,4.8,11.3,10.9
				C507,81.7,503.4,85.8,496.4,86.9z M488.7,80.7c1.2,0,2.3-1.8,3.4-5.6c0.7-2.2,1.2-4.5,1.5-6.8c-3.9,0.8-6.9,4.1-7.1,8.1
				C486.5,79.3,487.6,80.7,488.7,80.7L488.7,80.7z"/>
			<path class="st2" d="M534.6,84.2c0,1.8-0.4,2.7-1.5,3.2s-2.9,0.6-5.4,0.6c-0.2-1.2-0.6-2.3-1.1-3.3c1.7,0.1,3.5,0.1,4.1,0.1
				s0.7-0.2,0.7-0.7V80l-2.8,2.1c-1.6-2.1-3.4-4-5.3-5.8c-1.3,2.7-3.4,5-6,6.4c-0.7-0.9-1.4-1.8-2.3-2.5v7.9h-3.3V66.5h9.8v-4.6h3.4
				v4.6h9.8L534.6,84.2z M515,80.1c5.3-2.7,6.2-6.9,6.4-10.3H515V80.1z M524.8,69.8c0,1.1-0.2,2.1-0.4,3.2c2.5,2.2,4.8,4.5,6.9,6.9
				V69.8H524.8z"/>
			<path class="st2" d="M552.7,71.2c3.1,3.6,7.1,6.3,11.6,7.8c-0.8,0.9-1.5,1.9-2.1,3c-1-0.4-2.1-1-3.1-1.6V88h-3.4v-0.8h-9.2V88
				h-3.2v-7.3c-1,0.6-2,1.1-3.1,1.6c-0.5-1-1.2-2-1.9-2.8c4.3-1.7,8.1-4.6,11-8.3L552.7,71.2z M542.4,70.2h-3.2v-6h10.1v-2.3h3.4
				v2.2H563v6h-3.4v-3h-17.2L542.4,70.2z M549.2,68.8c-1.9,2.6-4.4,4.8-7.1,6.4c-0.7-1-1.5-1.8-2.3-2.7c2.4-1.1,4.6-2.8,6.2-4.8
				L549.2,68.8z M555.7,84.3v-3h-9.2v3H555.7z M555.9,78.5c-1.8-1.2-3.4-2.6-4.7-4.2c-1.3,1.6-2.8,3-4.5,4.2H555.9z M555.1,67.7
				c2.5,1.5,4.9,3.2,7,5.1l-2.5,2.2c-2.1-2-4.4-3.8-6.9-5.3L555.1,67.7z"/>
			<line class="st3" x1="12.2" y1="311.7" x2="699.1" y2="311.7"/>
			<polygon points="698.3,305.6 698.3,317.8 704.3,311.7 			"/>
			<line class="st3" x1="32.2" y1="354.5" x2="32.2" y2="87.4"/>
			<polygon points="26.1,88.3 38.2,88.3 32.2,82.2 			"/>
			<path class="st4" d="M38.8,293.7c0,0,80.7-182.7,143.4-182.8c54.1,0,96,115.9,205.1,142.1c135.8,32.7,254.1,30.5,254.1,30.5"/>
			<path d="M294.7,341.2c-0.3,2-1,7-1.5,9.4h2.4c0.7,0,1.3-0.1,2-0.2v3.2c-0.7-0.1-1.3-0.1-2-0.1H281c-0.6,0-1.4,0-2.2,0.1v-3.2
				c0.7,0.1,1.4,0.2,2.2,0.2h9c0.4-2.4,1.2-7,1.2-8.5h-7.5c-0.9,0-1.7,0-2.5,0.1v-3.1c0.8,0.1,1.6,0.2,2.5,0.2h6.9
				c0.7,0,1.3-0.1,2-0.3l2.3,1.1C294.8,340.6,294.7,340.9,294.7,341.2z"/>
			<path d="M304.7,344.5h11.8c1,0,2-0.1,2.6-0.1v3.4c-0.5,0-1.6-0.1-2.6-0.1h-11.8c-1.2,0-2.7,0-3.5,0.1v-3.4
				C301.9,344.4,303.5,344.5,304.7,344.5z"/>
			<path d="M330.4,356.2l-2.3-2.2c4.2-1.5,6.1-3.4,6.1-8.8v-0.8H329v3c0,1,0.1,1.9,0.1,2.3H326c0.1-0.8,0.1-1.5,0.1-2.3v-3h-1.9
				c-1.1,0-1.9,0.1-2.4,0.1v-3c0.8,0.1,1.6,0.2,2.4,0.2h1.9v-2.2c0-0.6-0.1-1.3-0.1-2h3.1c-0.1,0.7-0.1,1.3-0.1,2v2.1h5.2v-2.3
				c0-0.7,0-1.3-0.1-2h3.1c-0.1,0.7-0.2,1.3-0.2,2v2.3h1.6c0.8,0,1.6,0,2.4-0.2v2.9c-0.5,0-1.2-0.1-2.4-0.1H337v0.7
				C337,350.5,335.7,353.8,330.4,356.2z M340.1,340.4l-1.5,0.5c-0.3-1-0.7-2-1.1-3l1.5-0.5C339.4,338.4,339.7,339.4,340.1,340.4z
				 M342.4,339.7l-1.5,0.5c-0.3-1-0.7-2-1.2-3l1.5-0.5C341.6,337.7,342,338.7,342.4,339.7L342.4,339.7z"/>
			<path d="M348.4,344.5h11.8c1,0,2-0.1,2.6-0.1v3.4c-0.5,0-1.6-0.1-2.6-0.1h-11.8c-1.2,0-2.7,0-3.5,0.1v-3.4
				C345.7,344.4,347.3,344.5,348.4,344.5z"/>
			<path d="M365.6,355.4c1.1-1.1,2-2.4,2.5-3.8l2.5,0.7c-0.6,1.5-1.5,3-2.6,4.2L365.6,355.4z M383.9,339.2c-0.1,6.5-0.1,9.8,0.6,9.8
				c0.2,0,0.3-1.2,0.4-2.6c0.4,0.5,0.9,1,1.4,1.5c-0.2,2.4-0.6,3.4-2,3.4c-1.7,0-2.3-1.4-2.5-4.4l-1.1,1.8c-0.4-0.5-0.9-1-1.4-1.4
				c-0.8,1.8-2,3.4-3.7,4.5c-0.5-0.6-1.1-1.1-1.7-1.6c0.7-0.5,1.3-1,1.9-1.6l-3.6,0.2v0.9c0,1-0.2,1.4-0.9,1.7c-1,0.2-2,0.3-2.9,0.3
				c-0.1-0.6-0.4-1.2-0.6-1.8c0.7,0,1.5,0,1.8,0s0.3-0.1,0.3-0.3v-0.8l-3.9,0.2l-0.2-1.8c1.1,0,2.5-0.1,4-0.1v-0.8h0.8
				c0.3-0.1,0.6-0.3,0.9-0.5h-4.9v-1.5h7l0.5-0.1l1.2,1c-0.9,0.7-1.8,1.3-2.8,1.8l3.4-0.1v1.6c0.7-0.8,1.2-1.7,1.6-2.7
				c-0.6-0.5-1.3-1-2-1.5l1.2-1.8c0.4,0.3,0.9,0.5,1.3,0.9c0.1-0.6,0.1-1.3,0.1-1.9h-2v-2.2h2v-3.2h2.2v3.2h2.6l0,0L383.9,339.2z
				 M376.2,339.1h-10.3v-1.7h3.9v-1.5h2.4v1.5h4L376.2,339.1z M367.1,343.5v-3.7h7.9v3.7H367.1z M369.2,342.1h3.6v-1h-3.6
				L369.2,342.1z M374.4,352c0.3,1.2,0.4,2.5,0.5,3.8l-2.6,0.3c0-1.3-0.1-2.6-0.4-3.9L374.4,352z M378.8,351.9
				c0.5,1.2,0.9,2.5,1.2,3.8l-2.6,0.5c-0.2-1.3-0.5-2.6-1-3.9L378.8,351.9z M380.3,341.4c0,1.1-0.1,2.3-0.3,3.4
				c0.6,0.5,1.2,1,1.7,1.5c-0.1-1.4-0.1-3-0.1-4.9H380.3z M383.3,351.5c1,1.3,1.9,2.6,2.7,4.1l-2.7,0.9c-0.7-1.5-1.5-2.9-2.5-4.2
				L383.3,351.5z"/>
			<path d="M390.2,349.1c-0.2,1.9-0.6,3.8-1.3,5.6c-0.6-0.4-1.2-0.7-1.9-0.9c0.6-1.6,1-3.3,1.1-5.1L390.2,349.1z M403.6,349.1
				c1.2,1.8,2.8,3.2,4.6,4.4c-0.7,0.6-1.3,1.3-1.8,2c-1.4-1.1-2.7-2.5-3.7-4v4.9h-2.5v-4.8c-1.2,1.7-2.7,3.1-4.4,4.2
				c-0.5-0.7-1.1-1.4-1.7-2c2.1-1.1,3.9-2.7,5.2-4.6h-3.4v-1.4l-1.7,0.8c-0.1-0.4-0.2-0.8-0.3-1.3l-1.1,0.1v9.1h-2.2v-8.9l-3,0.2
				l-0.3-2.2l1.6-0.1c0.3-0.4,0.6-0.8,1-1.3c-0.7-1.1-1.6-2.1-2.6-3.1l1.3-1.8c0.1,0.1,0.3,0.3,0.5,0.5c0.6-1.2,1.1-2.5,1.6-3.8
				l2.2,0.8c-0.7,1.5-1.6,3-2.5,4.5c0.3,0.3,0.5,0.6,0.7,0.9c0.7-1.1,1.4-2.3,2-3.5l2.1,1c-1.2,1.8-2.7,4-4.1,5.8l1.9-0.1
				c-0.2-0.5-0.5-1-0.7-1.4l1.8-0.8c0.7,1.2,1.3,2.5,1.7,3.8v-5.4h4.3v-1.2h-4.9v-2.2h4.9v-1.9h2.5v1.9h4.7v2.2h-4.7v1.2h4.4v7.8
				L403.6,349.1z M394.9,348.6c0.5,1.2,0.8,2.4,1.1,3.6l-2,0.6c-0.2-1.3-0.5-2.5-0.9-3.7L394.9,348.6z M398.2,344.3h2.2v-1.2h-2.2
				V344.3z M398.2,347.2h2.2v-1.2h-2.2V347.2z M404.7,343.1h-2.2v1.2h2.2V343.1z M404.7,346.1h-2.2v1.2h2.2V346.1z"/>
			<path d="M413.5,344c0,3.5-0.3,8.9-2.3,12.3c-0.6-0.6-1.4-1-2.1-1.4c1.8-3.1,2-7.7,2-10.9v-6.1h7.8v-2h2.7v2h7.8v2.3h-15.8V344z
				 M428.1,349.1c-0.9,1.7-2.1,3.1-3.7,4.2c1.8,0.5,3.6,0.8,5.4,0.9c-0.6,0.7-1.1,1.4-1.5,2.2c-2.3-0.2-4.5-0.8-6.6-1.7
				c-2.3,0.9-4.7,1.4-7.2,1.7c-0.2-0.8-0.6-1.5-1-2.2c1.9-0.1,3.8-0.5,5.7-1c-1-0.7-1.8-1.5-2.5-2.4l1-0.4h-3.3v-2H426l0.5-0.1
				L428.1,349.1z M417,347.5v-3.4h-3v-2h3v-1.5h2.5v1.5h4v-1.5h2.6v1.5h3.1v2H426v3.4L417,347.5z M419.1,350.4
				c0.7,0.7,1.6,1.4,2.6,1.8c1-0.5,1.9-1.1,2.6-1.8H419.1z M419.5,344.1v1.5h4v-1.5H419.5z"/>
			<path d="M48,323.9v5c2.8-0.7,5.6-1.6,8.3-2.7c0.7-0.3,1.3-0.6,1.9-1l0.8,1.8c-0.6,0.3-1.4,0.6-2,0.9c-2.9,1.1-5.9,2.1-9,2.8v4.8
				c0,1.1,0.5,1.4,1.5,1.6c1,0.1,1.9,0.2,2.9,0.2c2.5,0,5-0.2,7.5-0.7v2c-2.5,0.3-5,0.5-7.6,0.5c-1.2,0-2.3-0.1-3.5-0.2
				c-1.7-0.3-2.6-1.1-2.6-2.8v-12c0-0.6,0-1.2-0.1-1.8h2C48,322.7,48,323.3,48,323.9z M59.7,324.3l-1.2,0.5c-0.5-1-1.1-2-1.8-3
				l1.2-0.5C58.6,322.3,59.2,323.3,59.7,324.3L59.7,324.3z M62.2,323.4L61,324c-0.5-1-1.1-2-1.8-3l1.2-0.5
				C61,321.4,61.6,322.4,62.2,323.4L62.2,323.4z"/>
			<path d="M71.7,321.9l2-0.3c0,0.4,0.1,1,0.2,1.5c0,0.2,0.2,1.1,0.4,2.4c2.1-0.4,4.1-0.7,5.1-0.9c0.5-0.1,1.1-0.2,1.6-0.4l0.3,1.8
				c-0.3,0-1,0.1-1.6,0.2c-1,0.1-3,0.5-5.1,0.8c0.3,1.4,0.6,2.9,0.8,4.4l5.4-0.9c0.8-0.2,1.5-0.3,1.9-0.4l0.4,1.8
				c-0.5,0-1.2,0.2-2,0.3c-1.2,0.2-3.3,0.5-5.4,0.9c0.4,2.1,0.8,3.9,0.9,4.4s0.3,1.4,0.6,2l-2,0.4c-0.1-0.8-0.2-1.4-0.3-2.1
				c-0.1-0.5-0.4-2.2-0.8-4.4c-2.5,0.4-4.8,0.8-5.9,1c-0.9,0.1-1.5,0.3-2,0.4l-0.4-1.9c0.6,0,1.3-0.1,1.9-0.2c1.1-0.1,3.5-0.5,6-0.9
				c-0.3-1.5-0.6-3-0.8-4.4c-2.1,0.3-4,0.6-4.8,0.8c-0.6,0.1-1.1,0.2-1.8,0.4l-0.4-1.9l1.8-0.2c0.8-0.1,2.8-0.4,4.8-0.7
				c-0.2-1.2-0.4-2-0.5-2.3C72,322.9,71.9,322.4,71.7,321.9z M82.2,323.7l-1.2,0.5c-0.5-1.1-1.1-2.1-1.8-3l1.2-0.5
				C81,321.7,81.6,322.7,82.2,323.7z M84.6,322.8l-1.2,0.5c-0.5-1-1.1-2-1.8-3l1.2-0.5C83.4,320.8,84.1,321.8,84.6,322.8L84.6,322.8
				z"/>
			<path d="M96.2,321.6h2.2c-0.1,0.7-0.1,1.5-0.1,2.2v2.9h5.8c0.7,0,1.6,0,1.9-0.1v1.9c-0.3,0-1.2-0.1-1.9-0.1h-5.8
				c0,4.8-1.6,8.4-6.1,10.9l-1.7-1.3c4.1-1.9,5.9-5.2,5.9-9.7H90c-0.8,0-1.6,0-2.1,0.1v-1.9c0.5,0,1.3,0.1,2,0.1h6.4v-3
				C96.4,323,96.3,322.3,96.2,321.6z"/>
			<path d="M113,329.1h12c1.1,0,1.9-0.1,2.4-0.1v2.1c-0.4,0-1.3-0.1-2.3-0.1h-12c-1.2,0-2.4,0-3,0.1V329
				C110.6,329.1,111.8,329.1,113,329.1z"/>
			<path d="M12,51.5c0,4.1,0.6,12.1,8.6,16.9c-0.8,0.7-1.5,1.4-2.1,2.3c-3.9-2.5-6.8-6.3-8-10.8c-1.6,4.9-4.3,8.5-8.1,10.8
				c-0.8-0.8-1.6-1.5-2.5-2.1c4.6-2.3,7.2-6.5,8.4-12.3l1.3,0.2c-0.1-0.8-0.2-1.6-0.3-2.4h-5v-2.7H12z"/>
			<path d="M24.9,58.2h-2.3v-4.4h8.2v-0.8h-6.8V51h16.1v1.9h-6.8v0.8h8.4v4.4h-2.4v-2.7h-6v4.6h-2.5v-4.6h-6V58.2z M38.9,68.6
				c1.1,0,1.3-0.3,1.5-2.2c0.7,0.4,1.4,0.7,2.2,0.8c-0.3,2.6-1,3.3-3.4,3.3h-4.6c-3,0-3.8-0.6-3.8-2.9v-0.1h-3.6v1h-2.5v-8h15.1v7
				h-6.5v0.1c0,0.8,0.2,0.9,1.6,0.9L38.9,68.6z M25.3,58.4H30v1.4h-4.7V58.4z M30,57.6h-4.3v-1.4H30V57.6z M27,62.4v1h3.6v-1H27z
				 M30.7,65.9v-0.9h-3.6v0.9H30.7z M37.1,62.4h-4v1h4V62.4z M37.1,65.9v-0.9h-4v0.9H37.1z M38.5,56.2v1.4h-4.2v-1.4H38.5z
				 M34.2,58.4H39v1.4h-4.8L34.2,58.4z"/>
			<path d="M63,56.6c-0.3,2.8-1.1,5.6-2.4,8.2c0.9,1.5,2.3,2.8,3.9,3.6c-0.7,0.7-1.3,1.4-1.8,2.3c-1.5-0.9-2.7-2.1-3.7-3.5
				c-1.3,1.5-2.8,2.7-4.6,3.6c-0.2-0.5-0.5-1-0.8-1.5l-1,1c-0.7-0.6-1.5-1.1-2.3-1.6c-1.6,1.1-3.4,1.8-5.3,2.1
				c-0.2-0.8-0.5-1.5-1-2.1c1.4-0.1,2.9-0.5,4.2-1.2c-0.4-0.2-0.8-0.4-1.2-0.6l-0.2,0.4l-2.3-0.7c0.5-0.8,1-1.8,1.6-2.8h-2.1v-2.1
				H47c0.3-0.5,0.5-1.1,0.7-1.5l0.5,0.1v-2.1c-1,1-2,1.8-3.2,2.5c-0.3-0.7-0.8-1.3-1.3-1.9c1.4-0.6,2.7-1.6,3.8-2.7h-3.4v-2.1h1.7
				c-0.3-0.9-0.7-1.7-1.1-2.5l1.9-0.8c0.6,0.8,1,1.7,1.3,2.7l-1.4,0.6h1.8v-3.7h2.4v3.7h1.7l-1.4-0.6c0.6-0.9,1.1-1.8,1.5-2.8
				l2.2,0.9c-0.7,0.9-1.3,1.9-1.9,2.5h2.1V56h-3.6c1,0.6,2.6,1.5,3.1,1.8l-1.4,1.8c-0.5-0.5-1.4-1.2-2.2-1.9v2.7h-1.4l0.9,0.2
				l-0.5,1h5.2c-0.6-0.5-1.1-1.1-1.8-1.5c1.9-2.2,2.9-6,3.4-9.8l2.6,0.3c-0.2,1.2-0.4,2.4-0.7,3.6h5.8v2.4H63z M47.9,64.9
				c0.7,0.3,1.3,0.5,1.9,0.8c0.4-0.6,0.7-1.3,0.8-2h-2.1L47.9,64.9z M53.1,63.7c-0.2,1.1-0.5,2.2-1.1,3.1c0.6,0.4,1.2,0.8,1.8,1.2
				c1.5-0.8,2.8-1.9,3.8-3.3c-0.6-1.4-1.1-2.8-1.5-4.3c-0.3,0.6-0.6,1.1-1,1.6l-0.3-0.3v2.1L53.1,63.7z M57.8,56.6
				c0.3,1.8,0.7,3.5,1.3,5.1c0.6-1.7,1-3.4,1.2-5.1H57.8z"/>
			<path d="M561.2,324h12c0.6,0,1.2,0,1.9-0.1v1.9c-0.6-0.1-1.2-0.1-1.9-0.1H568v10.1h6.4c0.6,0,1.2-0.1,1.8-0.1v2
				c-0.6-0.1-1.2-0.1-1.8-0.1H560c-0.6,0-1.3,0-1.9,0.1v-2c0.6,0.1,1.3,0.1,1.9,0.1h6.2v-10.1h-4.9c-0.6,0-1.2,0-1.8,0.1v-1.9
				C560,323.9,560.6,324,561.2,324z"/>
			<path d="M586.3,321.5l2-0.4c0,0.4,0.1,1,0.2,1.5c0,0.2,0.2,1.1,0.5,2.4c2.1-0.4,4.1-0.7,5-0.9c0.5-0.1,1-0.2,1.6-0.4l0.4,1.8
				c-0.3,0-1,0.1-1.6,0.2l-5.1,0.8c0.3,1.4,0.6,2.9,0.9,4.4c2.2-0.4,4.3-0.7,5.4-0.9c0.9-0.1,1.5-0.3,2-0.4l0.3,1.8
				c-0.5,0-1.2,0.1-2,0.3c-1.2,0.2-3.2,0.5-5.4,0.9c0.4,2.1,0.8,3.9,0.9,4.4s0.3,1.4,0.5,2l-2,0.4c-0.1-0.8-0.2-1.4-0.3-2.1
				c-0.1-0.5-0.4-2.3-0.8-4.4c-2.5,0.4-4.8,0.8-5.9,1c-0.8,0.2-1.5,0.3-1.9,0.4l-0.4-1.9c0.5,0,1.4-0.1,1.9-0.2
				c1.1-0.1,3.5-0.5,6-0.9c-0.3-1.5-0.6-3-0.9-4.4c-2.1,0.3-4,0.6-4.8,0.8c-0.6,0.1-1.1,0.2-1.8,0.4l-0.4-2c0.5,0,1.1-0.1,1.8-0.1
				c0.9-0.1,2.8-0.4,4.8-0.7c-0.2-1.2-0.4-2-0.5-2.3C586.6,322.5,586.5,322,586.3,321.5z"/>
			<path d="M617,324.8c-0.9,2.3-2.2,4.5-3.7,6.4c2.3,2,4.4,4.2,6.4,6.5l-1.5,1.3c-1.8-2.3-3.8-4.5-6-6.5c-2.4,2.7-5.3,4.8-8.5,6.4
				l-1.4-1.5c3.4-1.5,6.5-3.7,9-6.5c1.6-1.8,2.8-3.9,3.6-6.1h-8.6c-0.8,0-2,0.1-2.2,0.1v-2c0.3,0,1.5,0.1,2.2,0.1h8.5
				c0.6,0,1.1,0,1.6-0.2l1.1,0.9C617.3,324.2,617.1,324.5,617,324.8z"/>
			<path d="M628.8,323.8l2,0.4c-0.1,0.5-0.3,1.1-0.4,1.6c-0.5,2.3-1.2,4.6-2,6.9c-0.9,2.1-1.9,4.1-3.2,6l-1.9-0.8
				c1.4-1.9,2.5-3.9,3.4-6C627.7,329.3,628.4,326.6,628.8,323.8z M634.2,324.2l1.8-0.6c1.2,2.2,2.3,4.5,3.2,6.9
				c0.9,2.2,2,5.5,2.6,7.5l-1.9,0.6c-0.7-2.6-1.5-5.1-2.5-7.5C636.5,328.7,635.5,326.4,634.2,324.2L634.2,324.2z M640.5,320.8
				c1.4,0,2.5,1.1,2.5,2.5c0,1.4-1.1,2.5-2.5,2.5s-2.5-1.1-2.5-2.5C638,321.9,639.1,320.8,640.5,320.8z M640.5,324.7
				c0.8,0,1.5-0.6,1.5-1.4s-0.6-1.5-1.4-1.5c-0.8,0-1.5,0.6-1.5,1.4c0,0,0,0,0,0C639,324,639.7,324.7,640.5,324.7
				C640.5,324.7,640.5,324.7,640.5,324.7L640.5,324.7z"/>
			<path d="M649,329.1h12c1.1,0,1.9-0.1,2.4-0.1v2.1c-0.4,0-1.3-0.1-2.3-0.1h-12c-1.2,0-2.4,0-3,0.1V329
				C646.7,329.1,647.8,329.1,649,329.1z"/>
			<path d="M673,323.8c0-0.8-0.1-1.5-0.2-2.3h2.2c-0.1,0.7-0.2,1.6-0.2,2.3v3.6c3.2,1,6.3,2.2,9.4,3.6l-0.8,1.9
				c-2.8-1.4-5.6-2.6-8.6-3.5c0,3.3,0,6.6,0,7.2c0,0.9,0,1.7,0.1,2.6h-2.1c0.1-0.9,0.2-1.7,0.2-2.6L673,323.8z"/>
			<polygon class="st5" points="198.1,95.3 211.7,67.1 220.5,79.3 229.2,91.5 			"/>
			<circle class="st5" cx="253" cy="54.6" r="54.6"/>
			<path class="st6" d="M264.7,65.8c-1.4-1.5-3.5-2.2-5.5-1.6l-6.4,1.9c-2.6-2.4-4.9-5.1-7.1-7.9l-0.1-0.1l0,0
				c-2.1-2.8-4-5.8-5.6-8.9l3.6-5.6c1.1-1.7,1.1-4,0-5.7l-4.1-6.4c-1.2-1.8-3.4-2.7-5.5-2.3c-3,0.6-6.9,2-8.9,5.1
				c-1.1,1.8-6,11.6,8.5,31.7l0.1,0.2l0.4,0.5l0.7,0.9c0,0.1,0.1,0.1,0.2,0.2c11.6,15,20.7,17.3,25.2,17.3c0.9,0,1.9-0.1,2.8-0.4
				c3.5-1,6-4.4,7.4-7.1c1-1.9,0.8-4.3-0.7-5.9L264.7,65.8z"/>
			<path class="st6" d="M276.5,33.7c-4.5-5.4-11-8.8-18.1-9.4c-0.9-0.1-1.6,0.6-1.7,1.4c-0.1,0.9,0.6,1.6,1.4,1.7
				c12.9,1.1,22.4,12.5,21.3,25.3c0,0,0,0,0,0c-0.1,0.9,0.6,1.6,1.4,1.7c0,0,0,0,0,0h0.1c0.8,0,1.5-0.6,1.6-1.5
				C283.2,46.1,281,39.1,276.5,33.7z"/>
			<path class="st6" d="M256.4,31.8c-0.9-0.1-1.6,0.6-1.7,1.5c-0.1,0.9,0.6,1.6,1.5,1.7c9.6,0.8,16.6,9.3,15.8,18.8
				c-0.1,0.9,0.6,1.6,1.4,1.7c0,0,0,0,0,0h0.1c0.8,0,1.5-0.6,1.6-1.5C276.1,42.8,267.8,32.8,256.4,31.8z"/>
			<path class="st6" d="M253.8,42.4c6.6,0.9,11.3,6.8,10.9,13.4c-0.1,0.9,0.6,1.6,1.5,1.7c0,0,0,0,0,0h0.1c0.8,0,1.5-0.6,1.6-1.5
				c0.5-8.3-5.4-15.5-13.6-16.7c-0.9-0.1-1.7,0.5-1.8,1.3C252.3,41.5,252.9,42.3,253.8,42.4L253.8,42.4L253.8,42.4z"/>
			<circle class="st7" cx="176.3" cy="199.4" r="58"/>
			<line class="st8" x1="482.7" y1="100.2" x2="474.5" y2="136.9"/>
			<path class="st9" d="M467.2,134.9c-0.9,4.1,1.7,8.1,5.7,9c4.1,0.9,8.1-1.7,9-5.7c0.9-4-1.6-8.1-5.7-9
				C472.2,128.3,468.1,130.9,467.2,134.9C467.2,134.9,467.2,134.9,467.2,134.9z"/>
			<line class="st8" x1="175.8" y1="364.4" x2="175.8" y2="206.5"/>
			<path class="st9" d="M183.4,206.9c0-4.2-3.4-7.5-7.5-7.5c-4.2,0-7.5,3.4-7.5,7.5c0,4.2,3.4,7.5,7.5,7.5S183.4,211.1,183.4,206.9
				C183.4,206.9,183.4,206.9,183.4,206.9z"/>
		</g>
	</g>
	<g>
		<g>
			<path class="st10" d="M790.2,150.1c0,0,6.2,0,13.1,5.3c0,0-1.8,8-3.2,18.5h-9.4L790.2,150.1z"/>
			<path d="M800.1,174.7h-9.4c-0.5,0-0.9-0.4-0.9-0.9l-0.5-23.7c0-0.2,0.1-0.5,0.3-0.6c0.2-0.2,0.4-0.3,0.6-0.3
				c0.3,0,6.6,0.1,13.6,5.5c0.3,0.2,0.4,0.6,0.3,0.9c0,0.1-1.9,8.1-3.1,18.4C800.9,174.4,800.5,174.7,800.1,174.7z M791.6,172.9h7.7
				c1.1-8.4,2.5-15.2,3-17.2c-4.8-3.6-9.3-4.5-11.1-4.7L791.6,172.9z"/>
		</g>
		<g>
			<path class="st10" d="M736.4,150.1c0,0-6.2,0-13.1,5.3c0,0,1.8,8,3.2,18.5h9.4L736.4,150.1z"/>
			<path d="M735.9,174.7h-9.4c-0.4,0-0.8-0.3-0.9-0.8c-1.3-10.2-3.1-18.3-3.1-18.4c-0.1-0.3,0-0.7,0.3-0.9c7-5.4,13.3-5.5,13.6-5.5
				c0.2,0,0.5,0.1,0.6,0.3c0.2,0.2,0.3,0.4,0.3,0.6l-0.5,23.7C736.8,174.3,736.4,174.7,735.9,174.7z M727.3,172.9h7.7l0.5-21.9
				c-1.9,0.2-6.3,1.1-11.1,4.7C724.8,157.7,726.2,164.5,727.3,172.9z"/>
		</g>
		<g>
			<path class="st11" d="M823.6,110.9c-11.2-13.6-26.9-31-26.9-31L786,95.2l3.3,3.3c-4.7-1.3-10.1-1.9-10.1-1.9l-5.1-5v5.5
				c0,0-3,6.7-10.7,16c-7.6-9.2-10.7-16-10.7-16v-5.5l-6.5,7.6c-10.9,0.9-23.1,10-29.3,27.7l-1.2,10.9l9.6,21l8.2-20.4v37.4h29.8
				h29.8V123c10.5,3,19.4,5,22.7,5.7c4.2,1,7.5-1.3,9.3-4.3C826.8,121.3,828.4,116,823.6,110.9z"/>
			<path d="M793.1,176.7h-59.6c-0.5,0-0.9-0.4-0.9-0.9V143l-6.5,16.1c-0.1,0.3-0.4,0.6-0.8,0.6c-0.4,0-0.7-0.2-0.8-0.5l-9.6-21
				c-0.1-0.1-0.1-0.3-0.1-0.5l1.2-10.9c0-0.1,0-0.1,0-0.2c6.8-19.3,19.7-27.2,29.7-28.3l6.2-7.3c0.2-0.3,0.6-0.4,1-0.3
				c0.4,0.1,0.6,0.5,0.6,0.8v5.3c0.5,1.1,3.5,6.9,9.8,14.7c6.3-7.8,9.3-13.7,9.8-14.7v-5.3c0-0.4,0.2-0.7,0.5-0.8
				c0.3-0.1,0.7-0.1,1,0.2l4.9,4.8c0.9,0.1,3.8,0.5,6.9,1.1l-1-1c-0.3-0.3-0.3-0.8-0.1-1.1L796,79.4c0.2-0.2,0.4-0.4,0.7-0.4
				c0.3,0,0.5,0.1,0.7,0.3c0.2,0.2,15.8,17.5,26.9,31c5.5,6,2.9,12.1,1.5,14.5c-1.8,3.1-5.4,5.9-10.3,4.8l-1.3-0.3
				c-3.8-0.8-11.4-2.6-20.3-5.1v51.7C794,176.3,793.6,176.7,793.1,176.7z M734.4,174.9h57.8v-52c0-0.3,0.1-0.5,0.4-0.7
				c0.2-0.2,0.5-0.2,0.8-0.1c9.3,2.7,17.4,4.5,21.4,5.4l1.3,0.3c4.9,1.2,7.6-2.7,8.3-3.9c1.5-2.5,3.2-7.4-1.3-12.4c0,0,0,0,0,0
				c-9.7-11.7-22.9-26.5-26.1-30.1l-9.7,13.7l2.7,2.7c0.3,0.3,0.3,0.7,0.1,1.1c-0.2,0.3-0.6,0.5-1,0.4c-4.6-1.2-9.9-1.9-10-1.9
				c-0.2,0-0.4-0.1-0.5-0.2l-3.6-3.5v3.4c0,0.1,0,0.3-0.1,0.4c-0.1,0.3-3.2,6.9-10.8,16.2c-0.3,0.4-1,0.4-1.4,0
				c-7.6-9.2-10.7-15.9-10.8-16.2c-0.1-0.1-0.1-0.2-0.1-0.4V94l-4.9,5.8c-0.2,0.2-0.4,0.3-0.6,0.3c-9.5,0.8-21.9,8.3-28.5,27
				l-1.1,10.6l8.7,18.9l7.4-18.5c0.2-0.4,0.6-0.6,1-0.5c0.4,0.1,0.7,0.4,0.7,0.9V174.9z"/>
		</g>
		<g>
			<path class="st6" d="M740.6,73.7c0.5,3.8,2.5,7,5.4,6.1c-1.4-4.3-1.8-8.9-1.9-12.1C742,67,740,70.1,740.6,73.7z"/>
			<path d="M745,80.8c-0.7,0-1.4-0.2-2.1-0.6c-1.6-1-2.8-3.4-3.3-6.4l0,0c-0.4-2.6,0.4-5.2,1.9-6.4c0.9-0.7,1.8-0.9,2.8-0.6
				c0.3,0.1,0.6,0.4,0.6,0.8c0.1,3.1,0.5,7.7,1.9,11.8c0.1,0.2,0.1,0.5-0.1,0.7c-0.1,0.2-0.3,0.4-0.5,0.4
				C745.9,80.7,745.4,80.8,745,80.8z M741.4,73.6c0.3,2.4,1.3,4.4,2.4,5.1c0.3,0.2,0.6,0.3,1,0.3c-1.1-3.7-1.5-7.6-1.6-10.5
				c-0.2,0-0.3,0.1-0.5,0.3C741.9,69.5,741.1,71.4,741.4,73.6L741.4,73.6z"/>
		</g>
		<g>
			<path class="st6" d="M784.4,73.8c-0.5,3.8-2,6.2-3.8,6c1.4-4.3,1.8-8.9,1.9-12.1C784.6,67,784.9,70.1,784.4,73.8z"/>
			<path d="M780.8,80.6c-0.1,0-0.2,0-0.3,0c-0.3,0-0.5-0.2-0.7-0.4c-0.1-0.2-0.2-0.5-0.1-0.8c1.4-4.2,1.8-8.7,1.9-11.8
				c0-0.4,0.2-0.7,0.6-0.8c0.8-0.3,1.6-0.2,2.1,0.3c1.4,1.2,1.3,4.3,1,6.8l0,0C784.7,78.2,783,80.6,780.8,80.6z M783.4,68.7
				c-0.1,2.6-0.5,6.1-1.4,9.4c0.7-0.9,1.2-2.4,1.5-4.5c0,0,0,0,0,0C784,70.7,783.7,69.2,783.4,68.7z"/>
		</g>
		<g>
			<path class="st9" d="M790.7,47.8c-2.5-1.3-5.2-3.6-5.2-3.6c3.2-1.1,4.4-4.7,4.4-4.7c-5.5,0.1-9-2.9-10.8-5.7
				c-3.9-6.1-13.3-8.4-19-2.2c-9.5-5.4-16.7,4.3-18.1,10.2c-1.6,3.8-7.5,4.7-7.5,4.7c1.3,2.8,5.1,4.5,5.1,4.5c-1.1,3.4-4,6-4,6
				c2.3,1.5,5,0.4,5,0.4c-2.3,6.2,0.2,10.8,3.7,13.4c-0.3-3.9-0.2-6.8-0.2-6.8c3-11,12-15.5,12-15.5s0.1,3.5-2.9,7.2
				c0,0,8.6-1.4,12-6.3c0.4,3.9,6.5,7.2,11,3.6c2.4,2.5,4.9,6.1,6.3,11c0,0,0.1,2.1,0,5.1c4.5-4.5,7-12.7,4-18.4
				C788.9,49.6,790.7,47.8,790.7,47.8z"/>
			<path d="M744.3,71.7c-0.2,0-0.4-0.1-0.5-0.2c-4.2-3.1-5.8-7.8-4.5-12.9c-1.1,0.1-2.7,0.1-4.1-0.9c-0.2-0.1-0.4-0.4-0.4-0.7
				c0-0.3,0.1-0.5,0.3-0.7c0,0,2.3-2.2,3.5-4.9c-1.3-0.7-3.7-2.2-4.8-4.5c-0.1-0.3-0.1-0.5,0-0.8c0.1-0.2,0.4-0.4,0.6-0.5
				c0.1,0,5.4-0.9,6.8-4.1c1-4.2,4.5-9.4,9.2-11.5c3.1-1.3,6.4-1.2,9.6,0.5c2.6-2.5,5.9-3.7,9.6-3.4c4.2,0.4,8.2,2.8,10.4,6.3
				c1,1.6,4,5.3,9.8,5.3c0.1,0,0.2,0,0.3,0c0.3,0,0.6,0.1,0.7,0.4c0.2,0.2,0.2,0.5,0.1,0.8c0,0.1-1,3-3.6,4.6c1,0.8,2.5,1.8,3.9,2.6
				c0.3,0.1,0.4,0.4,0.5,0.7c0,0.3,0,0.6-0.3,0.8c-0.1,0.1-1.6,1.6-3.7,2.6c2.6,6.2-0.2,14.4-4.6,18.6c-0.3,0.3-0.7,0.3-1,0.2
				c-0.3-0.2-0.5-0.5-0.5-0.9c0.1-2.6,0.1-4.5,0.1-4.9c-1-3.7-2.9-7.1-5.5-10c-2.2,1.4-5,1.6-7.5,0.6c-1.7-0.7-3.1-2-3.8-3.5
				c-4,4.1-11.1,5.3-11.5,5.3c-0.4,0.1-0.7-0.1-0.9-0.4c-0.2-0.3-0.2-0.7,0.1-1c1.5-1.8,2.1-3.6,2.4-4.9c-2.6,1.8-7.8,6.2-9.9,13.9
				c0,0.5-0.1,3.2,0.2,6.6c0,0.3-0.1,0.7-0.5,0.9C744.6,71.6,744.4,71.7,744.3,71.7z M740.6,56.5c0.2,0,0.5,0.1,0.6,0.2
				c0.3,0.2,0.3,0.6,0.2,1c-2,5.4,0,9,1.8,11c-0.1-2.7,0-4.6,0-4.7c0-0.1,0-0.1,0-0.2c3-11.2,12-15.9,12.4-16.1
				c0.3-0.1,0.6-0.1,0.9,0c0.3,0.2,0.4,0.4,0.4,0.7c0,0.1,0,2.7-1.8,5.8c2.7-0.7,7.1-2.4,9.2-5.4c0.2-0.3,0.6-0.5,1-0.4
				c0.4,0.1,0.6,0.4,0.7,0.8c0.2,1.5,1.4,3,3.3,3.8c1,0.4,3.7,1.2,6.3-0.8c0.4-0.3,0.9-0.2,1.2,0.1c3.1,3.3,5.3,7.1,6.5,11.4
				c0,0.1,0,0.1,0,0.2c0,0.1,0.1,1.1,0,2.7c3.1-4.3,4.7-10.7,2.2-15.5c-0.1-0.2-0.1-0.5,0-0.7c0.1-0.2,0.3-0.4,0.5-0.5
				c1.3-0.5,2.4-1.3,3.1-1.9c-2.2-1.3-4.1-3-4.2-3c-0.2-0.2-0.4-0.5-0.3-0.8c0.1-0.3,0.3-0.6,0.6-0.7c1.6-0.6,2.7-2,3.3-3
				c-6.1-0.5-9.3-4.7-10.1-6.1c-1.9-3-5.4-5.1-9-5.4c-3.3-0.3-6.4,0.9-8.6,3.3c-0.3,0.3-0.7,0.4-1.1,0.2c-2.9-1.7-5.8-1.9-8.6-0.7
				c-4.1,1.8-7.3,6.7-8.2,10.3c0,0,0,0.1,0,0.1c-1.3,3.1-5,4.4-6.9,4.9c1.5,1.9,4,3,4,3.1c0.4,0.2,0.6,0.7,0.5,1.1
				c-0.8,2.3-2.3,4.3-3.3,5.4c1.6,0.5,3.1-0.1,3.1-0.1C740.4,56.5,740.5,56.5,740.6,56.5z"/>
		</g>
		<path class="st6" d="M750.6,44.6C750.5,44.6,750.5,44.6,750.6,44.6c-0.4,0-0.6-0.3-0.6-0.6c0.3-4.5,3.9-6.1,4-6.2
			c0.3-0.1,0.7,0,0.8,0.3c0.1,0.3,0,0.6-0.3,0.8c-0.1,0.1-3,1.4-3.3,5.2C751.1,44.4,750.9,44.6,750.6,44.6z"/>
		<path class="st6" d="M775.2,46.8c-0.3,0-0.6-0.2-0.6-0.6c-0.3-5.9-3.5-8-3.7-8.1c-0.3-0.2-0.4-0.5-0.2-0.8
			c0.2-0.3,0.5-0.4,0.8-0.2c0.2,0.1,3.9,2.5,4.2,9C775.8,46.5,775.5,46.8,775.2,46.8C775.2,46.8,775.2,46.8,775.2,46.8z"/>
		<path d="M746.3,113.9c-0.1,0-0.2,0-0.3-0.1c-0.2-0.1-0.3-0.3-0.3-0.5l0.7-11.9c0-0.3,0.3-0.6,0.6-0.6c0.3,0,0.6,0.3,0.6,0.6
			l-0.6,10.7l6.4-4.2c0.2-0.1,0.5-0.1,0.7,0l5.5,4.1c0.3,0.2,0.3,0.6,0.1,0.8c-0.2,0.3-0.6,0.3-0.8,0.1l-5.2-3.8l-7,4.6
			C746.5,113.9,746.4,113.9,746.3,113.9z"/>
		<g>
			<path class="st6" d="M763.3,90.4L752.6,88v3.6v5.5c0,0,1.3,2.8,4.2,7.2c1.3,0.8,3.4,1.7,6.5,1.7s5.2-0.9,6.5-1.7
				c2.9-4.5,4.2-7.2,4.2-7.2v-5.5V88L763.3,90.4z"/>
			<path d="M763.3,106.9c-3.4,0-5.6-1-7-1.9c-0.1-0.1-0.2-0.2-0.3-0.3c-2.9-4.5-4.2-7.3-4.3-7.4c-0.1-0.1-0.1-0.2-0.1-0.4V88
				c0-0.3,0.1-0.5,0.3-0.7c0.2-0.2,0.5-0.2,0.8-0.2l10.5,2.3l10.5-2.3c0.3-0.1,0.5,0,0.8,0.2c0.2,0.2,0.3,0.4,0.3,0.7v9.1
				c0,0.1,0,0.3-0.1,0.4c-0.1,0.1-1.3,2.9-4.3,7.4c-0.1,0.1-0.2,0.2-0.3,0.3C768.9,105.9,766.7,106.9,763.3,106.9z M757.5,103.7
				c1.1,0.7,3.1,1.5,5.8,1.5c2.8,0,4.7-0.8,5.8-1.5c2.4-3.6,3.6-6.1,3.9-6.8v-7.8l-9.6,2.1c-0.1,0-0.3,0-0.4,0l-9.6-2.1v7.8
				C753.8,97.5,755.1,100,757.5,103.7z"/>
		</g>
		<g>
			<path class="st6" d="M763.3,106.1c-3.1,0-5.2-0.9-6.5-1.7c1.6,2.5,3.8,5.4,6.5,8.7c2.7-3.3,4.9-6.2,6.5-8.7
				C768.5,105.1,766.4,106.1,763.3,106.1z"/>
			<path d="M763.3,113.9c-0.3,0-0.5-0.1-0.7-0.3c-2.4-2.9-4.6-5.9-6.5-8.8c-0.2-0.4-0.2-0.8,0.1-1.1c0.3-0.3,0.8-0.4,1.1-0.1
				c1.1,0.7,3.1,1.6,6,1.6c2.9,0,4.9-0.9,6-1.6c0.4-0.2,0.8-0.2,1.1,0.1c0.3,0.3,0.3,0.8,0.1,1.1c-1.9,2.9-4.1,5.9-6.5,8.8
				C763.8,113.8,763.6,113.9,763.3,113.9z M759.3,106.4c1.2,1.7,2.6,3.5,4,5.2c1.4-1.7,2.7-3.5,4-5.2c-1.1,0.3-2.4,0.5-4,0.5
				C761.8,106.9,760.4,106.7,759.3,106.4z"/>
		</g>
		<path d="M780.3,113.9c-0.1,0-0.2,0-0.3-0.1l-7-4.6l-5.2,3.8c-0.3,0.2-0.6,0.1-0.8-0.1c-0.2-0.3-0.1-0.6,0.1-0.8l5.5-4.1
			c0.2-0.1,0.5-0.2,0.7,0l6.4,4.2l-0.6-10.7c0-0.3,0.2-0.6,0.6-0.6c0.3,0,0.6,0.2,0.6,0.6l0.7,11.9c0,0.2-0.1,0.4-0.3,0.5
			C780.5,113.9,780.4,113.9,780.3,113.9z"/>
		<path d="M760.1,162.1c-0.3,0-0.6-0.3-0.6-0.6v-35.1c0-0.3,0.3-0.6,0.6-0.6s0.6,0.3,0.6,0.6v35.1
			C760.7,161.8,760.4,162.1,760.1,162.1z"/>
		<circle cx="763.3" cy="120.6" r="1.4"/>
		<circle cx="763.3" cy="146.3" r="1.4"/>
		<path d="M809.8,123.4c-0.3,0-0.5-0.1-0.7-0.3c-4.2-5.1-17-20.5-20.5-24c-0.4-0.3-0.4-0.9,0-1.3c0.3-0.4,0.9-0.4,1.3,0
			c2.4,2.4,9.2,10.3,20.6,24.1c0.3,0.4,0.3,0.9-0.1,1.3C810.2,123.3,810,123.4,809.8,123.4z"/>
		<path d="M794.5,103.9c-0.3,0-0.6,0-0.8,0c-0.3,0-0.6-0.3-0.5-0.7c0-0.3,0.3-0.6,0.7-0.5c1.8,0.2,3.7-0.4,5.4-1.9
			c2.2-1.9,3.7-4.8,3.9-7.4c0-0.3,0.3-0.6,0.6-0.6c0.3,0,0.6,0.3,0.6,0.6c-0.1,3-1.8,6.2-4.3,8.3
			C798.3,103.1,796.4,103.9,794.5,103.9z"/>
		<g>
			<path class="st6" d="M777.4,82.8c0,0,1.4,5.2,3.8,8.6c2.4,3.3,6,5.6,9.5,5.2c3.4-0.3,5.7-5.9,6.3-8.7c0.7-2.9,1.6-8.1,1.1-10.3
				s-4.2-7.5-5.7-9.1c-1.5-1.6-6.5-3.8-8.2-4.2c-1.8-0.4-2.5,1.5-1.1,3.3L777.4,82.8z"/>
			<path d="M790.1,97.5c-3.4,0-7-2.1-9.6-5.6c-2.5-3.4-3.9-8.6-3.9-8.9c0-0.2,0-0.4,0-0.5l5.6-14.6c-0.7-1.1-0.9-2.4-0.3-3.3
				c0.5-0.8,1.5-1.2,2.6-1c1.8,0.4,7,2.7,8.7,4.4c1.5,1.6,5.3,7.1,5.9,9.4c0.7,2.6-0.7,8.8-1.1,10.7c-0.7,3.1-3.1,9.1-7.1,9.4
				C790.5,97.5,790.3,97.5,790.1,97.5z M778.4,82.8c0.3,1.1,1.6,5.3,3.6,8c2.3,3.2,5.7,5.1,8.7,4.9c2.7-0.2,4.9-5.1,5.5-8.1
				c0.8-3.7,1.5-8.2,1.1-9.8c-0.5-1.9-4-7.1-5.5-8.7c-1.4-1.4-6.2-3.6-7.7-3.9c-0.2,0-0.5-0.1-0.7,0.2c-0.2,0.3-0.1,1,0.5,1.7
				c0.2,0.2,0.2,0.6,0.1,0.9L778.4,82.8z"/>
		</g>
		<g>
			<path class="st11" d="M779.7,80.2l5.4,9.1c0.8,1.3,2.8,1.4,3.3-0.1l3-13.4l-3.1-6.6l-5.7-2.8l-1.7,1.6L779.7,80.2z"/>
			<path d="M786.9,91.2c-1,0-2-0.6-2.6-1.4l-5.4-9.1c-0.1-0.2-0.1-0.3-0.1-0.5l1.1-12.2c0-0.2,0.1-0.4,0.3-0.6l1.7-1.6
				c0.3-0.3,0.7-0.3,1-0.1l5.7,2.8c0.2,0.1,0.3,0.2,0.4,0.4l3.1,6.6c0.1,0.2,0.1,0.4,0.1,0.6l-3,13.4c-0.3,1-1,1.6-1.9,1.7
				C787.2,91.2,787,91.2,786.9,91.2z M780.6,80l5.2,8.8c0.3,0.4,0.8,0.6,1.2,0.6c0.3,0,0.4-0.2,0.5-0.4l2.9-13l-2.9-6l-4.8-2.4l-1,1
				L780.6,80z"/>
		</g>
		<path d="M786.4,88.2c0,0-0.1,0-0.1,0c-0.3-0.1-0.5-0.4-0.5-0.7l2.3-10.8c0.1-0.3,0.4-0.5,0.7-0.5c0.3,0.1,0.5,0.4,0.5,0.7
			l-2.3,10.8C786.9,88,786.6,88.2,786.4,88.2z"/>
		<g>
			<polygon points="780.6,77.6 784.9,85.2 787.6,72.4 785.4,68.1 782.6,66.4 780.8,68 			"/>
			<path d="M784.9,85.5c-0.1,0-0.2-0.1-0.3-0.2l-4.3-7.5c0,0,0-0.1,0-0.2l0.2-9.6c0-0.1,0-0.2,0.1-0.2l1.7-1.6
				c0.1-0.1,0.2-0.1,0.4,0l2.8,1.7c0,0,0.1,0.1,0.1,0.1l2.2,4.3c0,0.1,0,0.1,0,0.2l-2.7,12.7C785.2,85.4,785.1,85.4,784.9,85.5
				C784.9,85.5,784.9,85.5,784.9,85.5z M780.9,77.6l3.9,6.8l2.5-11.9l-2.1-4.2l-2.6-1.5l-1.5,1.4L780.9,77.6z"/>
		</g>
		<g>
			<polyline class="st6" points="878.4,217.7 845,171.2 763.3,171.2 681.6,171.2 648.2,217.7 			"/>
			<path d="M878.4,218.6c-0.3,0-0.6-0.1-0.7-0.4l-33.2-46.1H682.1l-33.2,46.1c-0.3,0.4-0.8,0.5-1.2,0.2c-0.4-0.3-0.5-0.8-0.2-1.2
				l33.4-46.5c0.2-0.2,0.4-0.4,0.7-0.4H845c0.3,0,0.6,0.1,0.7,0.4l33.4,46.5c0.3,0.4,0.2,1-0.2,1.2
				C878.8,218.5,878.6,218.6,878.4,218.6z"/>
		</g>
		<g>
			<path class="st12" d="M851.9,201.1v2.6c0,0.7-0.6,1.3-1.3,1.3h-57.7c-0.6,0-1.1-0.4-1.2-1l-4.1-19.9v-2.6c0-0.4,0.4-0.8,0.8-0.8
				H813L851.9,201.1z"/>
			<path d="M850.7,205.8h-57.7c-1,0-1.9-0.7-2.1-1.7l-4.1-19.9c0-0.1,0-0.1,0-0.2v-2.6c0-0.9,0.8-1.7,1.7-1.7H813
				c0.1,0,0.3,0,0.4,0.1l39,20.4c0.3,0.2,0.5,0.5,0.5,0.8v2.6C852.8,204.8,851.8,205.8,850.7,205.8z M788.4,184l4.1,19.8
				c0,0.2,0.2,0.3,0.4,0.3h57.7c0.2,0,0.4-0.2,0.4-0.4v-2.1l-38.3-20h-24.3V184z"/>
		</g>
		<path d="M797,197.9h-2.7c-0.3,0-0.5-0.2-0.6-0.5l-2.4-10.7c0-0.2,0-0.4,0.1-0.5c0.1-0.1,0.3-0.2,0.5-0.2h7.1
			c0.2,0,0.3,0.1,0.5,0.2c0.1,0.1,0.2,0.3,0.1,0.5l-1.9,10.7C797.6,197.7,797.3,197.9,797,197.9z M794.8,196.7h1.7l1.7-9.5h-5.6
			L794.8,196.7z"/>
		<path d="M792.1,199.2c-0.1,0-0.3-0.1-0.3-0.2l-3.7-16.8c0-0.2,0.1-0.3,0.2-0.4c0.2,0,0.3,0.1,0.4,0.2l3.7,16.8
			C792.5,199,792.4,199.2,792.1,199.2C792.2,199.2,792.2,199.2,792.1,199.2z"/>
		<path d="M792.3,204.9c-0.2,0-0.3-0.1-0.3-0.3v-2.5c0-0.2,0.1-0.3,0.3-0.3c0.2,0,0.3,0.1,0.3,0.3v2.5
			C792.6,204.8,792.5,204.9,792.3,204.9z"/>
		<g>
			<path class="st6" d="M782.5,64c-1.3-4.9-3.9-8.5-6.3-11c-4.5,3.5-10.7,0.3-11-3.6c-3.4,4.9-12,6.3-12,6.3
				c2.9-3.7,2.9-7.2,2.9-7.2s-9,4.5-12,15.5c0,0-0.7,11.8,3.5,19.5c4.2,7.7,12,10.7,15.7,10.7s11.6-3,15.7-10.7
				C783.2,75.8,782.5,64,782.5,64z"/>
			<path d="M763.3,95c-2.3,0-5.4-1-8.2-2.6c-2.5-1.4-5.9-4.1-8.3-8.6c-4.2-7.8-3.6-19.5-3.6-20c0-0.1,0-0.1,0-0.2
				c3-11.2,12-15.9,12.4-16.1c0.3-0.1,0.6-0.1,0.9,0c0.3,0.2,0.4,0.4,0.4,0.7c0,0.1,0,2.7-1.8,5.8c2.7-0.7,7.1-2.4,9.2-5.4
				c0.2-0.3,0.6-0.5,1-0.4c0.4,0.1,0.6,0.4,0.7,0.8c0.2,1.5,1.4,3,3.3,3.8c1,0.4,3.7,1.2,6.3-0.8c0.4-0.3,0.9-0.2,1.2,0.1
				c3.1,3.3,5.3,7.1,6.5,11.4c0,0.1,0,0.1,0,0.2c0,0.5,0.7,12.1-3.6,20c-2.4,4.5-5.9,7.1-8.3,8.6C768.7,94.1,765.6,95,763.3,95z
				 M745,64.1c-0.1,1.1-0.4,11.9,3.4,18.9c4.2,7.7,11.9,10.2,14.9,10.2c3.1,0,10.8-2.5,14.9-10.2c3.8-7.1,3.4-17.8,3.4-18.9
				c-1-3.7-2.9-7.1-5.5-10c-2.2,1.4-5,1.6-7.5,0.6c-1.7-0.7-3.1-2-3.8-3.5c-4,4.1-11.1,5.3-11.5,5.3c-0.4,0.1-0.7-0.1-0.9-0.4
				c-0.2-0.3-0.2-0.7,0.1-1c1.5-1.8,2.1-3.6,2.4-4.9C752.3,52,747.1,56.5,745,64.1z"/>
		</g>
		<g>
			<path class="st6" d="M798.1,77.6c-0.5-2.1-4.2-7.5-5.7-9.1c-1.5-1.6-6.5-3.8-8.2-4.2c-1.8-0.4-2.5,1.5-1.1,3.3
				c0,0,0.4,1.5,2.3,2.7c0,0-0.6,1.9,1.3,3.1c1.9,1.3,4.3,3.3,4.3,3.3l1.5,2.8"/>
			<path d="M792.5,80.5c-0.3,0-0.6-0.2-0.8-0.5l-1.4-2.6c-0.5-0.4-2.5-2.1-4.1-3.2c-1.5-1-1.8-2.5-1.7-3.5c-1.4-1-1.9-2.2-2.1-2.6
				c-0.9-1.2-1.1-2.6-0.5-3.6c0.5-0.8,1.5-1.2,2.6-1c1.8,0.4,7,2.7,8.7,4.4c1.5,1.6,5.3,7.1,5.9,9.4c0.1,0.5-0.2,1-0.6,1.1
				c-0.5,0.1-1-0.2-1.1-0.6c-0.5-1.9-4-7.1-5.5-8.7c-1.4-1.4-6.2-3.6-7.7-3.9c-0.2,0-0.5-0.1-0.7,0.2c-0.2,0.3-0.1,1,0.5,1.7
				c0.1,0.1,0.1,0.2,0.2,0.3c0,0,0.4,1.2,1.9,2.1c0.4,0.2,0.5,0.6,0.4,1c0,0.1-0.3,1.3,0.9,2.1c1.9,1.3,4.3,3.3,4.4,3.4
				c0.1,0.1,0.2,0.2,0.2,0.3l1.5,2.8c0.2,0.4,0.1,1-0.4,1.2C792.8,80.4,792.7,80.5,792.5,80.5z"/>
		</g>
		<path d="M797.5,77.9c-0.2,0-0.4-0.1-0.5-0.3c-2.2-3.3-4.9-4.7-6.9-5.7c-0.3-0.2-0.6-0.3-0.9-0.5c-1.1-0.6-2.4-1.3-2.9-1.1
			c-0.1,0-0.2,0.1-0.2,0.2c-0.2,0.3-0.5,0.4-0.8,0.2c-0.3-0.2-0.4-0.5-0.2-0.8c0.2-0.4,0.5-0.7,1-0.8c1-0.3,2.1,0.3,3.8,1.2
			c0.3,0.1,0.6,0.3,0.9,0.5c2,1,4.9,2.5,7.4,6.1c0.2,0.3,0.1,0.6-0.2,0.8C797.7,77.9,797.6,77.9,797.5,77.9z"/>
		<path d="M794.5,72.1c-0.2,0-0.3-0.1-0.4-0.2c-2.3-2.4-5.2-4.1-8.4-5c-0.6-0.2-1-0.2-1.3,0c-0.3,0.2-0.5,0.5-0.6,0.9
			c-0.1,0.3-0.4,0.5-0.7,0.4c-0.3-0.1-0.5-0.4-0.4-0.7c0.2-0.8,0.6-1.3,1.1-1.7c0.6-0.3,1.4-0.4,2.3-0.1c3.4,1,6.5,2.8,9,5.3
			c0.2,0.2,0.2,0.6,0,0.8C794.8,72,794.7,72.1,794.5,72.1z"/>
		<ellipse cx="755" cy="66.2" rx="1.5" ry="1.8"/>
		<path d="M763.3,75.8h-1.5c-0.3,0-0.6-0.3-0.6-0.6c0-0.3,0.3-0.6,0.6-0.6h1.5c0.3,0,0.6,0.3,0.6,0.6
			C763.9,75.5,763.6,75.8,763.3,75.8z"/>
		<path d="M752.2,62.9c-0.4,0-0.7,0-1.1-0.1c-0.3-0.1-0.5-0.4-0.4-0.7c0.1-0.3,0.4-0.5,0.7-0.4c1.7,0.5,4.7-0.9,5.7-2.6
			c0.2-0.3,0.5-0.4,0.8-0.2c0.3,0.2,0.4,0.5,0.2,0.8C757.2,61.4,754.4,62.9,752.2,62.9z"/>
		<ellipse cx="771.6" cy="66.2" rx="1.5" ry="1.8"/>
		<path d="M764.8,75.8h-1.5c-0.3,0-0.6-0.3-0.6-0.6c0-0.3,0.3-0.6,0.6-0.6h1.5c0.3,0,0.6,0.3,0.6,0.6
			C765.4,75.5,765.2,75.8,764.8,75.8z"/>
		<path d="M774.4,62.9c-2.2,0-5-1.5-6-3.3c-0.2-0.3-0.1-0.6,0.2-0.8c0.3-0.2,0.6-0.1,0.8,0.2c0.9,1.7,4,3.1,5.7,2.6
			c0.3-0.1,0.6,0.1,0.7,0.4c0.1,0.3-0.1,0.6-0.4,0.7C775.1,62.8,774.8,62.9,774.4,62.9z"/>
		<path d="M762.7,86.1c-1.3,0-2.1-0.1-2.6-0.6c-0.3-0.3-0.5-0.8-0.5-1.4c0-1.5,1.2-3.3,1.2-3.4c0.1-0.1,0.2-0.2,0.4-0.3
			c2.2-0.4,4,0,4.1,0c0.3,0.1,0.5,0.4,0.5,0.7c-0.1,0.3-0.4,0.5-0.7,0.5c0,0-1.5-0.3-3.4,0c-0.3,0.6-0.9,1.7-0.9,2.5
			c0,0.4,0.1,0.5,0.2,0.5c0.3,0.3,1.3,0.3,2.4,0.3c1,0,2-0.1,2.4-0.6c0.2-0.3,0.2-0.7,0.1-1.3c-0.1-0.3,0.1-0.6,0.4-0.7
			c0.3-0.1,0.6,0.1,0.7,0.4c0.2,1,0.2,1.8-0.3,2.3c-0.6,0.8-1.8,1-3.3,1C763.1,86.1,762.9,86.1,762.7,86.1z"/>
		<g>
			<path class="st12" d="M868.9,157h-57.8c-1.5,0-3.2,1.2-3.8,2.8l-14.3,39.7c-0.5,1.4,0.3,2.6,1.7,2.6h56c1.5,0,3.1-1.2,3.7-2.6
				l16-39.7C871.2,158.2,870.4,157,868.9,157z"/>
			<path d="M850.8,202.9h-56c-1,0-1.8-0.4-2.3-1.1c-0.5-0.7-0.6-1.7-0.3-2.7l14.3-39.7c0.7-1.9,2.7-3.3,4.6-3.3h57.8
				c1,0,1.8,0.4,2.3,1.1c0.5,0.8,0.6,1.8,0.2,2.9l-16,39.7C854.7,201.6,852.7,202.9,850.8,202.9z M811.2,157.8c-1.2,0-2.5,1-2.9,2.2
				L794,199.8c-0.2,0.4-0.1,0.8,0,1c0.2,0.2,0.5,0.4,0.9,0.4h56c1.1,0,2.4-0.9,2.9-2l16-39.7c0.2-0.5,0.2-0.9,0-1.2
				c-0.2-0.3-0.6-0.3-0.8-0.3H811.2z"/>
		</g>
		<path class="st6" d="M869,159.6h-57.8c-0.5,0-0.9-0.4-0.9-0.9c0-0.5,0.4-0.9,0.9-0.9H869c0.5,0,0.9,0.4,0.9,0.9
			C869.9,159.2,869.5,159.6,869,159.6z"/>
		<g>
			<path class="st11" d="M716.9,126.9c-6.1,14.5-10,27.7-11.1,33.8c-1.1,6.1,2.6,11.9,9.1,12.8s24.3,3.8,24.3,3.8l8.8-15.4l-22.7-3
				l8.2-20.4"/>
			<path d="M739.2,178.2c0,0-0.1,0-0.1,0c-0.2,0-17.9-2.9-24.2-3.8c-3.2-0.5-6-2.1-7.8-4.6c-1.9-2.6-2.6-5.9-2-9.2
				c1.1-6,5-19.2,11.1-33.9c0.2-0.5,0.7-0.7,1.2-0.5c0.5,0.2,0.7,0.7,0.5,1.2c-6.1,14.6-10,27.6-11,33.6c-0.5,2.9,0.1,5.6,1.7,7.9
				c1.5,2.1,3.9,3.5,6.6,3.9c5.7,0.8,20.5,3.2,23.7,3.7l7.9-13.7l-21.4-2.9c-0.3,0-0.5-0.2-0.7-0.4c-0.1-0.2-0.2-0.5-0.1-0.8
				l8.2-20.4c0.2-0.5,0.7-0.7,1.2-0.5c0.5,0.2,0.7,0.7,0.5,1.2l-7.8,19.4l21.5,2.9c0.3,0,0.6,0.2,0.7,0.5c0.1,0.3,0.1,0.6,0,0.8
				l-8.8,15.4C739.8,178,739.5,178.2,739.2,178.2z"/>
		</g>
		<g>
			<path class="st6" d="M744.4,161.4c-4.2,1.2-7.7,5.6-8,10c-0.2,4.5,1.9,6,4.3,6.6c2.5,0.7,6.1-0.5,8.6-3.2c-0.8,3.1,0.5,3.7,2.3,4
				c1.8,0.2,5,1,5.5-2.2c1.4,0.1,2.9-0.7,3-2.8c1.4,0.4,2.5-1,2.5-2.5c1.6,0.2,2.5-1.4,1.9-3.6c-0.7-2.2-2.2-5.3-3.3-6.6
				c-1-1.3-2.5-2.1-5.1-1.8C753.5,159.4,748.6,160.1,744.4,161.4z"/>
			<path d="M754,179.9c-0.8,0-1.5-0.1-2-0.2l-0.4-0.1c-1-0.1-2.1-0.4-2.8-1.4c-0.3-0.4-0.4-0.8-0.5-1.3c-2.5,1.8-5.4,2.6-7.8,1.9
				c-3.6-1-5.2-3.4-5-7.5c0.3-4.8,4-9.4,8.6-10.8l0,0c4-1.2,8.7-1.9,11.9-2.3c2.6-0.3,4.6,0.4,5.9,2.2c1,1.3,2.7,4.5,3.4,6.9
				c0.5,1.6,0.3,3-0.5,3.9c-0.4,0.4-0.9,0.7-1.4,0.8c-0.2,0.8-0.6,1.6-1.2,2.1c-0.4,0.3-0.8,0.5-1.3,0.5c-0.4,1.7-1.7,2.6-3.1,2.8
				C757.3,179.5,755.5,179.9,754,179.9z M749.4,173.9c0.1,0,0.3,0,0.4,0.1c0.4,0.2,0.5,0.6,0.4,1c-0.3,1.1-0.3,1.9,0,2.3
				c0.2,0.3,0.7,0.5,1.6,0.6l0.4,0.1c2.5,0.4,3.8,0.2,4.1-1.5c0.1-0.5,0.5-0.8,0.9-0.8c0.7,0,2-0.2,2.1-2c0-0.3,0.1-0.5,0.4-0.7
				c0.2-0.2,0.5-0.2,0.7-0.1c0.3,0.1,0.5,0,0.8-0.1c0.4-0.3,0.6-0.9,0.6-1.5c0-0.3,0.1-0.5,0.3-0.7c0.2-0.2,0.5-0.2,0.7-0.2
				c0.3,0,0.6,0,0.7-0.2c0.3-0.3,0.5-1.1,0.1-2.3c-0.6-2.2-2.2-5.1-3.1-6.3c-0.7-0.8-1.7-1.8-4.3-1.5c-3.1,0.4-7.7,1-11.6,2.2l0,0
				c-3.9,1.2-7.1,5.2-7.3,9.2c-0.2,4.1,1.7,5.2,3.7,5.7c2.3,0.6,5.5-0.6,7.8-3C748.9,174,749.1,173.9,749.4,173.9z"/>
		</g>
		<path d="M729.6,176.3c-0.2,0-0.4-0.1-0.5-0.3c-2.1-3.6-1.5-10.4,1.9-12.8c0.3-0.2,0.6-0.1,0.8,0.2c0.2,0.3,0.1,0.6-0.2,0.8
			c-2.5,1.7-3.7,7.6-1.6,11.2c0.2,0.3,0.1,0.6-0.2,0.8C729.9,176.3,729.7,176.3,729.6,176.3z"/>
		<path d="M712.8,161.6c-0.1,0-0.3,0-0.4-0.2c-0.2-0.2-0.3-0.6,0-0.8c3.3-3.7,8.1-3.7,8.3-3.7c0.3,0,0.6,0.3,0.6,0.6
			c0,0.3-0.3,0.6-0.6,0.6c0,0-4.5,0.1-7.4,3.3C713.1,161.5,713,161.6,712.8,161.6z"/>
		<path d="M757.2,177.2C757.1,177.2,757.1,177.2,757.2,177.2c-0.4,0-0.6-0.3-0.6-0.7c0.1-1.1-1.8-4.1-4.4-6.3
			c-0.3-0.2-0.3-0.6-0.1-0.8c0.2-0.3,0.6-0.3,0.8-0.1c2.5,2.1,5.1,5.6,4.9,7.4C757.7,177,757.5,177.2,757.2,177.2z"/>
		<path d="M760.2,174.3c-0.3,0-0.6-0.3-0.6-0.6c0-1.5-1.4-4.3-4.4-7.3c-0.2-0.2-0.2-0.6,0-0.8c0.2-0.2,0.6-0.2,0.8,0
			c2.8,2.8,4.7,5.9,4.8,8.1C760.8,174.1,760.5,174.3,760.2,174.3C760.2,174.3,760.2,174.3,760.2,174.3z"/>
		<path d="M762.6,171.8C762.6,171.8,762.6,171.8,762.6,171.8c-0.4-0.1-0.6-0.4-0.6-0.7c0.2-1.5-1.8-5.6-4.2-7.8
			c-0.2-0.2-0.3-0.6,0-0.8c0.2-0.2,0.6-0.3,0.8,0c2.5,2.3,4.8,6.8,4.5,8.8C763.2,171.6,762.9,171.8,762.6,171.8z"/>
		<path d="M751.8,176.9c-0.2,0-0.3-0.1-0.4-0.2c-1.3-1.3-3.7-2.6-3.7-2.6c-0.3-0.2-0.4-0.5-0.2-0.8c0.2-0.3,0.5-0.4,0.8-0.2
			c0.1,0.1,2.6,1.4,4,2.8c0.2,0.2,0.2,0.6,0,0.8C752.1,176.9,751.9,176.9,751.8,176.9z"/>
		<path d="M733.5,148.4c-0.5,0-0.9-0.4-0.9-0.9v-25.3c0-0.5,0.4-0.9,0.9-0.9s0.9,0.4,0.9,0.9v25.3C734.4,148,734,148.4,733.5,148.4z
			"/>
	</g>
</g>
</svg>
