<?xml version="1.0" encoding="utf-8"?>
<!-- Generator: Adobe Illustrator 26.0.0, SVG Export Plug-In . SVG Version: 6.00 Build 0)  -->
<svg version="1.1" id="レイヤー_1" xmlns="http://www.w3.org/2000/svg" xmlns:xlink="http://www.w3.org/1999/xlink" x="0px"
	 y="0px" viewBox="0 0 1009.6 547.4" style="enable-background:new 0 0 1009.6 547.4;" xml:space="preserve">
<style type="text/css">
	.st0{fill:#FFAA1E;}
	.st1{fill:#00D7FF;}
	.st2{fill:#FFFFFF;}
	.st3{fill:#4B4B4B;}
	.st4{fill:#1EB4E1;}
	.st5{fill:#786478;}
	.st6{opacity:0.5;fill:#1EB4E1;enable-background:new    ;}
	.st7{fill:#FF8296;}
	.st8{fill:none;stroke:#000000;stroke-width:2;stroke-miterlimit:10;}
	.st9{fill:none;stroke:#786478;stroke-width:8;stroke-linecap:round;stroke-miterlimit:10;}
	.st10{fill:#141F42;}
	.st11{fill:none;stroke:#FF8296;stroke-width:2;stroke-miterlimit:10;stroke-dasharray:10,8;}
	.st12{fill:none;stroke:#4B4B4B;stroke-width:3;stroke-miterlimit:10;}
</style>
<g id="Layer_2">
	<g id="レイヤー_7">
		<path class="st0" d="M915.4,195.2c0,0,6.5,0,13.8,5.6c0,0-2,8.5-3.3,19.5h-9.9L915.4,195.2z"/>
		<path d="M925.8,221.3h-9.9c-0.5,0-1-0.4-1-0.9l-0.5-25.1c0-0.3,0.1-0.5,0.3-0.7c0.2-0.2,0.4-0.3,0.7-0.3c0.3,0,7,0.1,14.4,5.8
			c0.3,0.2,0.4,0.6,0.3,1c0,0.1-2,8.6-3.3,19.4C926.6,220.9,926.3,221.3,925.8,221.3z M916.8,219.4h8.2c1.2-8.9,2.7-16.1,3.1-18.2
			c-3.4-2.6-7.5-4.4-11.8-5L916.8,219.4z"/>
		<path class="st0" d="M858.5,195.2c0,0-6.5,0-13.8,5.6c0,0,2,8.5,3.3,19.5h9.9L858.5,195.2z"/>
		<path d="M857.9,221.3H848c-0.5,0-0.9-0.4-0.9-0.8c-1.4-10.8-3.3-19.4-3.3-19.4c-0.1-0.4,0-0.8,0.3-1c7.4-5.7,14.1-5.8,14.4-5.8
			c0.3,0,0.5,0.1,0.7,0.3c0.2,0.2,0.3,0.4,0.3,0.7l-0.6,25.1C858.9,220.8,858.4,221.3,857.9,221.3z M848.9,219.4h8.1l0.5-23.1
			c-4.3,0.6-8.3,2.4-11.8,5C846.2,203.3,847.7,210.5,848.9,219.4z"/>
		<path class="st1" d="M950.7,153.8c-11.9-14.4-28.5-32.8-28.5-32.8l-11.3,16.1l3.4,3.4c-3.5-0.9-7.1-1.6-10.7-2l-5.4-5.2v5.8
			c0,0-3.2,7.1-11.3,16.9c-8.1-9.8-11.3-16.9-11.3-16.9v-5.8l-6.8,8c-11.6,1-24.4,10.6-31,29.3l-1.2,11.6l10.2,22.2l8.6-21.6v39.6
			h63v-55.8c11.1,3.2,20.5,5.2,24,6c4.5,1.1,8-1.4,9.8-4.6S955.7,159.2,950.7,153.8z"/>
		<path d="M918.5,223.4h-63c-0.5,0-0.9-0.4-0.9-0.9l0,0v-34.7l-6.8,17.1c-0.1,0.4-0.5,0.6-0.8,0.6c-0.4,0-0.7-0.2-0.9-0.6
			l-10.2-22.2c-0.1-0.2-0.1-0.3-0.1-0.5l1.2-11.6c0-0.1,0-0.1,0-0.2c7.2-20.4,20.8-28.8,31.4-29.9l6.6-7.7c0.3-0.3,0.7-0.4,1-0.3
			c0.4,0.1,0.6,0.5,0.6,0.9v5.6c2.9,5.6,6.3,10.8,10.4,15.6c4-4.8,7.5-10,10.3-15.6v-5.6c0-0.4,0.2-0.7,0.6-0.9
			c0.3-0.1,0.7-0.1,1,0.2l5.2,5c1,0.1,4,0.5,7.3,1.2l-1.1-1.1c-0.3-0.3-0.4-0.8-0.1-1.2l11.4-16.1c0.2-0.2,0.4-0.4,0.7-0.4
			c0.3,0,0.6,0.1,0.8,0.3c0.2,0.2,16.7,18.5,28.5,32.7c4,4.1,4.7,10.4,1.6,15.3c-1.9,3.2-5.7,6.3-10.9,5l-1.3-0.3
			c-4-0.9-12.1-2.7-21.5-5.4v54.6C919.4,222.9,919,223.3,918.5,223.4C918.5,223.4,918.5,223.4,918.5,223.4z M856.4,221.5h61.1v-54.9
			c0-0.3,0.1-0.6,0.4-0.8c0.2-0.2,0.5-0.2,0.8-0.2c9.8,2.9,18.4,4.8,22.6,5.7l1.4,0.3c5.2,1.3,8-2.9,8.8-4.1
			c1.5-2.6,3.4-7.9-1.4-13.1l0,0c-10.2-12.4-24.2-28-27.6-31.8l-10.2,14.5l2.8,2.9c0.3,0.3,0.3,0.8,0.2,1.1
			c-0.2,0.4-0.6,0.6-1.1,0.4c-3.5-0.9-7-1.6-10.6-2c-0.2,0-0.4-0.1-0.5-0.3l-3.8-3.7v3.6c0,0.1,0,0.3-0.1,0.4
			c-0.1,0.3-3.3,7.3-11.4,17.1c-0.4,0.4-1,0.4-1.4,0c0,0,0,0,0,0c-8.1-9.8-11.3-16.8-11.4-17.1c-0.1-0.1-0.1-0.2-0.1-0.4V136l-5.1,6
			c-0.2,0.2-0.4,0.3-0.6,0.3c-10,0.8-23.1,8.8-30.1,28.6l-1.2,11.2l9.2,19.9l7.8-19.6c0.2-0.4,0.6-0.7,1-0.6
			c0.4,0.1,0.8,0.5,0.8,0.9L856.4,221.5z"/>
		<path class="st2" d="M862.9,114.4c0.6,4,2.7,7.4,5.8,6.4c-1.2-4.1-1.9-8.4-2-12.8C864.4,107.3,862.3,110.6,862.9,114.4z"/>
		<path d="M867.6,122c-0.8,0-1.5-0.2-2.2-0.7c-1.7-1.1-3-3.6-3.5-6.7l0,0c-0.4-2.7,0.4-5.4,2-6.8c0.8-0.7,2-1,3-0.6
			c0.4,0.1,0.6,0.5,0.6,0.9c0.1,4.2,0.8,8.4,2,12.5c0.2,0.5-0.1,1-0.6,1.2C868.5,121.9,868.1,122,867.6,122z M863.8,114.3
			c0.4,2.6,1.3,4.6,2.6,5.4c0.3,0.2,0.6,0.3,1,0.3c-1-3.6-1.6-7.4-1.7-11.1c-0.2,0.1-0.4,0.2-0.5,0.3
			C864.2,110.1,863.5,112,863.8,114.3L863.8,114.3z"/>
		<path class="st2" d="M909.3,114.5c-0.6,4-2.1,6.5-4,6.3c1.2-4.1,1.9-8.4,2-12.8C909.5,107.3,909.8,110.7,909.3,114.5z"/>
		<path d="M905.5,121.8h-0.3c-0.3,0-0.5-0.2-0.7-0.4c-0.2-0.2-0.2-0.5-0.1-0.8c1.2-4.1,1.9-8.3,2-12.5c0-0.4,0.3-0.7,0.6-0.9
			c0.8-0.3,1.6-0.2,2.2,0.3c1.5,1.2,1.4,4.6,1,7.1l0,0C909.6,119.2,907.8,121.8,905.5,121.8z M908.1,109.2c-0.1,3.4-0.6,6.7-1.4,10
			c0.9-1.4,1.5-3.1,1.6-4.8l0,0C908.8,111.3,908.5,109.7,908.1,109.2z"/>
		<path class="st3" d="M915.9,87.1c-1.9-1.1-3.8-2.3-5.5-3.8c3.3-1.2,4.6-4.9,4.6-4.9c-4.6,0.2-8.9-2.1-11.4-6
			c-4.1-6.4-14.1-8.9-20.1-2.4c-10-5.7-17.6,4.5-19.1,10.8c-1.7,4-8,5-8,5c1.4,3,5.4,4.7,5.4,4.7c-0.9,2.4-2.4,4.6-4.2,6.3
			c1.6,0.9,3.5,1.1,5.3,0.4c-2.4,6.6,0.2,11.4,3.9,14.2c-0.2-2.4-0.3-4.8-0.2-7.2c1.9-7,6.4-12.9,12.7-16.5
			c-0.2,2.8-1.2,5.5-3.1,7.6c0,0,9.1-1.5,12.7-6.7c0.4,4.1,6.9,7.6,11.7,3.8c3.1,3.3,5.4,7.3,6.6,11.7c0.1,1.8,0.1,3.6,0,5.4
			c4.8-4.7,7.4-13.4,4.2-19.5C913.1,89.4,914.6,88.3,915.9,87.1z"/>
		<path d="M866.8,112.3c-0.2,0-0.4-0.1-0.6-0.2c-4.3-3.1-6.2-8.5-4.8-13.6c-1.5,0.2-3.1-0.2-4.4-1c-0.2-0.2-0.4-0.4-0.4-0.7
			c0-0.3,0.1-0.6,0.3-0.8c1.5-1.5,2.8-3.2,3.7-5.2c-1.3-0.7-3.9-2.3-5-4.8c-0.2-0.5,0.1-1.1,0.6-1.3c0,0,0.1,0,0.1,0
			c0.1,0,5.7-0.9,7.2-4.3c1.1-4.4,4.8-10,9.7-12.1c3.3-1.4,7-1.2,10.1,0.5c2.7-2.6,6.4-4,10.1-3.6c4.5,0.4,8.5,2.8,11,6.6
			c2.2,3.5,6.1,5.7,10.3,5.6h0.1c0.3,0,0.6,0.1,0.8,0.4c0.2,0.2,0.2,0.6,0.1,0.9c-0.7,2-2,3.6-3.8,4.8c1.3,1,2.7,1.9,4.2,2.7
			c0.3,0.1,0.5,0.4,0.5,0.7c0.1,0.3-0.1,0.6-0.3,0.8c-1.2,1.1-2.5,2.1-3.9,2.8c2.8,6.6-0.2,15.2-4.8,19.7c-0.4,0.4-1,0.4-1.3,0
			c-0.2-0.2-0.3-0.5-0.3-0.7c0.2-2.7,0.1-4.8,0.1-5.2c-1.1-3.9-3.1-7.6-5.8-10.6c-2.4,1.5-5.3,1.7-7.9,0.6c-1.7-0.7-3.2-2-4-3.7
			c-4.2,4.3-11.8,5.6-12.1,5.6c-0.5,0.1-1-0.3-1.1-0.8c0-0.3,0-0.5,0.2-0.8c1.2-1.5,2.1-3.3,2.6-5.1c-5.1,3.5-8.8,8.7-10.5,14.7
			c-0.1,2.3,0,4.6,0.2,6.9c0,0.4-0.1,0.7-0.5,0.9C867.1,112.2,867,112.3,866.8,112.3z M862.9,96.3c0.2,0,0.5,0.1,0.7,0.3
			c0.3,0.3,0.4,0.6,0.2,1c-2.1,5.7,0,9.5,1.9,11.6c-0.1-2.9,0-4.9,0-5c0-0.1,0-0.1,0-0.2c1.9-7.2,6.7-13.3,13.1-17
			c0.5-0.2,1-0.1,1.3,0.4c0.1,0.1,0.1,0.3,0.1,0.4c-0.1,2.2-0.7,4.3-1.8,6.2c2.8-0.8,7.5-2.5,9.8-5.7c0.2-0.3,0.6-0.5,1-0.4
			c0.4,0.1,0.7,0.4,0.7,0.8c0.4,1.8,1.7,3.4,3.5,4c2.2,1,4.8,0.7,6.7-0.8c0.4-0.3,0.9-0.3,1.3,0.1c3.3,3.4,5.6,7.5,6.8,12.1
			c0,0.1,0,0.1,0,0.2c0,0.1,0.1,1.1,0,2.8c3.3-4.5,5-11.3,2.3-16.4c-0.1-0.2-0.1-0.5,0-0.8c0.1-0.2,0.3-0.4,0.5-0.6
			c1.2-0.5,2.3-1.2,3.2-2c-1.6-1-3-2.1-4.5-3.2c-0.4-0.3-0.5-0.9-0.1-1.3c0.1-0.1,0.3-0.2,0.4-0.3c1.5-0.6,2.7-1.7,3.5-3.2
			c-4.4-0.3-8.4-2.7-10.7-6.4c-2.1-3.3-5.6-5.4-9.5-5.7c-3.4-0.3-6.8,1-9.1,3.5c-0.3,0.3-0.8,0.4-1.2,0.2c-2.7-1.7-6.1-2-9.1-0.8
			c-4.4,1.9-7.7,7-8.7,10.9c0,0.1,0,0.1,0,0.2c-1.4,3.2-5.3,4.7-7.3,5.2c1.2,1.4,2.6,2.5,4.3,3.2c0.5,0.2,0.7,0.7,0.5,1.2
			c-0.8,2.1-2,4.1-3.5,5.8c1.1,0.3,2.3,0.2,3.3-0.2C862.7,96.2,862.8,96.2,862.9,96.3L862.9,96.3z"/>
		<path class="st2" d="M873.5,83.7L873.5,83.7c-0.4,0-0.7-0.3-0.6-0.7c0.2-2.8,1.8-5.3,4.2-6.6c0.3-0.1,0.7,0,0.8,0.3
			c0.1,0.3,0,0.7-0.3,0.8l0,0c-2.1,1.1-3.4,3.2-3.5,5.5C874,83.5,873.8,83.7,873.5,83.7z"/>
		<path class="st2" d="M899.5,86c-0.3,0-0.6-0.3-0.6-0.6c-0.3-6.2-3.8-8.4-3.9-8.5c-0.3-0.2-0.4-0.6-0.2-0.9
			c0.2-0.3,0.6-0.4,0.9-0.2c0,0,0,0,0,0c0.2,0.1,4.2,2.6,4.5,9.5C900.1,85.7,899.8,86,899.5,86L899.5,86z"/>
		<path d="M869,157c-0.1,0-0.2,0-0.3-0.1c-0.2-0.1-0.3-0.3-0.3-0.6l0.7-12.6c0-0.3,0.2-0.6,0.6-0.7c0.3,0,0.6,0.2,0.7,0.6
			c0,0,0,0.1,0,0.1l-0.6,11.3l6.8-4.5c0.2-0.1,0.5-0.1,0.7,0l5.8,4.3c0.3,0.2,0.3,0.6,0.1,0.9c0,0,0,0,0,0c-0.2,0.3-0.6,0.3-0.9,0.1
			l-5.5-4.1l-7.5,4.9C869.2,156.9,869.1,157,869,157z"/>
		<path class="st2" d="M886.9,132.1l-11.3-2.5v9.6c1.3,2.7,2.8,5.2,4.4,7.7c4.2,2.4,9.5,2.4,13.7,0c1.7-2.4,3.1-5,4.4-7.7v-9.6
			L886.9,132.1z"/>
		<path d="M886.9,149.6c-2.6,0.1-5.1-0.6-7.4-2c-0.1-0.1-0.2-0.2-0.3-0.3c-1.7-2.5-3.2-5.1-4.5-7.8c-0.1-0.1-0.1-0.3-0.1-0.4v-9.6
			c0-0.5,0.4-1,0.9-1c0.1,0,0.1,0,0.2,0l11.1,2.5l11.1-2.4c0.3-0.1,0.6,0,0.8,0.2c0.2,0.2,0.3,0.5,0.3,0.7v9.6c0,0.1,0,0.3-0.1,0.4
			c-1.3,2.7-2.8,5.3-4.5,7.8c-0.1,0.1-0.2,0.2-0.3,0.3C892.1,149,889.5,149.7,886.9,149.6z M880.8,146.2c3.9,2.1,8.5,2.1,12.3,0
			c1.5-2.3,2.9-4.7,4.2-7.2v-8.2l-10.1,2.3c-0.1,0-0.3,0-0.4,0l-10.2-2.3v8.3C877.8,141.5,879.2,143.9,880.8,146.2z"/>
		<path class="st2" d="M886.9,148.7c-2.4,0.1-4.8-0.6-6.9-1.8c2.1,3.2,4.4,6.3,6.9,9.2c2.4-2.9,4.7-6,6.8-9.2
			C891.7,148.1,889.4,148.7,886.9,148.7z"/>
		<path d="M886.9,157c-0.3,0-0.6-0.1-0.7-0.3c-2.5-3-4.8-6.1-6.9-9.3c-0.3-0.4-0.2-1,0.3-1.3c0.3-0.2,0.7-0.2,1,0
			c3.9,2.2,8.7,2.2,12.7,0c0.4-0.3,1-0.2,1.3,0.3c0.2,0.3,0.2,0.7,0,1c-2.1,3.2-4.4,6.3-6.9,9.3C887.5,156.9,887.2,157,886.9,157z
			 M882.7,149c1.3,1.8,2.7,3.7,4.2,5.5c1.5-1.8,2.9-3.7,4.2-5.5C888.4,149.8,885.5,149.8,882.7,149L882.7,149z"/>
		<path d="M904.9,157c-0.1,0-0.2,0-0.3-0.1l-7.4-4.9l-5.5,4.1c-0.3,0.2-0.7,0.1-0.9-0.1c-0.2-0.3-0.1-0.7,0.1-0.9c0,0,0,0,0,0
			l5.9-4.3c0.2-0.1,0.5-0.1,0.7,0l6.8,4.5l-0.6-11.3c0-0.3,0.2-0.6,0.6-0.7c0.3,0,0.6,0.2,0.7,0.6l0.7,12.6c0,0.2-0.1,0.5-0.3,0.6
			C905.1,157,905,157,904.9,157z"/>
		<path d="M883.5,207.9c-0.3,0-0.6-0.3-0.6-0.6v-37.1c0-0.3,0.3-0.6,0.6-0.6c0.3,0,0.6,0.3,0.6,0.6c0,0,0,0,0,0v37.1
			C884.2,207.6,883.9,207.9,883.5,207.9z"/>
		<circle cx="886.9" cy="164.1" r="1.5"/>
		<circle cx="886.9" cy="191.2" r="1.5"/>
		<path d="M936.1,167c-0.3,0-0.5-0.1-0.7-0.3c-4.4-5.4-18-21.7-21.7-25.4c-0.3-0.4-0.3-1,0-1.3c0.4-0.4,1-0.4,1.3,0c0,0,0,0,0,0
			c2.6,2.5,9.7,10.9,21.8,25.5c0.3,0.4,0.3,1-0.1,1.3c0,0,0,0,0,0C936.6,166.9,936.3,167,936.1,167z"/>
		<path d="M920,146.4c-0.3,0-0.6,0-0.9-0.1c-0.3,0-0.6-0.4-0.5-0.7c0-0.3,0.4-0.6,0.7-0.6c2.1,0.2,4.2-0.6,5.8-2
			c2.3-2,3.8-4.8,4.1-7.9c0-0.3,0.2-0.6,0.6-0.7c0.3,0,0.6,0.2,0.7,0.6c0,0,0,0.1,0,0.1c-0.3,3.4-1.9,6.6-4.5,8.8
			C924.2,145.5,922.2,146.3,920,146.4z"/>
		<path class="st2" d="M901.9,124c0,0,1.5,5.6,4,9.1s6.4,5.9,10,5.6s6-6.2,6.7-9.2s1.7-8.6,1.2-10.8s-4.4-7.9-6-9.6s-6.8-4-8.7-4.4
			s-2.7,1.6-1.1,3.5L901.9,124z"/>
		<path d="M915.2,139.6c-3.6,0-7.4-2.2-10.1-6s-4.1-9.1-4.2-9.4c-0.1-0.2-0.1-0.4,0-0.6l5.9-15.5c-0.8-1-0.9-2.4-0.3-3.5
			c0.6-0.9,1.7-1.3,2.7-1c1.9,0.4,7.4,2.8,9.2,4.7c1.6,1.7,5.6,7.5,6.2,10c0.7,2.8-0.7,9.3-1.1,11.3c-0.8,3.3-3.3,9.6-7.5,10
			C915.7,139.6,915.5,139.6,915.2,139.6z M902.9,124.1c0.8,3,2.1,5.8,3.8,8.5c2.5,3.4,6.1,5.4,9.2,5.2c2.9-0.2,5.1-5.4,5.9-8.5
			c0.9-3.9,1.6-8.7,1.2-10.4c-0.5-2-4.2-7.5-5.8-9.2s-6.5-3.8-8.2-4.1c-0.3-0.1-0.5,0-0.7,0.2c-0.2,0.3-0.1,1,0.5,1.8
			c0.2,0.3,0.3,0.6,0.2,0.9L902.9,124.1z"/>
		<path class="st4" d="M904.3,121.3l5.7,9.6c0.8,1.3,3,1.5,3.4-0.1l3.2-14.2l-3.3-7l-6-3l-1.8,1.7L904.3,121.3z"/>
		<path d="M911.9,132.9c-1.1,0-2.1-0.6-2.7-1.5l-5.7-9.6c-0.1-0.2-0.1-0.4-0.1-0.6l1.2-12.9c0-0.2,0.1-0.4,0.3-0.6l1.8-1.7
			c0.3-0.3,0.7-0.3,1.1-0.2l6,3c0.2,0.1,0.3,0.2,0.4,0.4l3.3,7c0.1,0.2,0.1,0.4,0.1,0.6l-3.2,14.2c-0.2,1-1.1,1.7-2,1.8
			C912.1,133,912,133,911.9,132.9z M905.3,121.1l5.5,9.3c0.3,0.4,0.7,0.6,1.2,0.6c0.2,0,0.4-0.2,0.5-0.4l3.1-13.8l-3-6.4l-5.1-2.6
			l-1.1,1L905.3,121.1z"/>
		<path d="M911.3,129.8h-0.1c-0.3-0.1-0.6-0.4-0.5-0.7l2.4-11.4c0.1-0.3,0.4-0.6,0.7-0.5c0.3,0.1,0.6,0.4,0.5,0.8l-2.4,11.4
			C911.9,129.6,911.6,129.8,911.3,129.8z"/>
		<polygon points="905.2,118.6 909.8,126.6 912.6,113.1 910.3,108.5 907.3,106.7 905.4,108.5 		"/>
		<path d="M909.8,126.9c-0.1,0-0.2-0.1-0.3-0.2l-4.5-8c0-0.1,0-0.1,0-0.2l0.2-10.1c0-0.1,0-0.2,0.1-0.2l1.8-1.7
			c0.1-0.1,0.3-0.1,0.4,0l3,1.8c0.1,0,0.1,0.1,0.1,0.1l2.3,4.6c0,0.1,0,0.1,0,0.2l-2.8,13.5C910.1,126.8,910,126.9,909.8,126.9
			L909.8,126.9z M905.6,118.5l4.1,7.2l2.6-12.5l-2.2-4.4l-2.7-1.6l-1.6,1.5L905.6,118.5z"/>
		<polyline class="st2" points="1008.7,266.7 973.3,217.5 886.9,217.5 800.5,217.5 765.2,266.7 		"/>
		<path d="M1008.7,267.6c-0.3,0-0.6-0.1-0.8-0.4l-35.1-48.8H801l-35,48.8c-0.3,0.4-0.9,0.5-1.3,0.2c-0.4-0.3-0.5-0.9-0.2-1.3
			l35.3-49.2c0.2-0.2,0.5-0.4,0.8-0.4h172.8c0.3,0,0.6,0.1,0.8,0.4l35.3,49.2c0.3,0.4,0.2,1-0.2,1.3
			C1009.1,267.6,1008.9,267.7,1008.7,267.6z"/>
		<path class="st5" d="M980.6,249.1v2.8c0,0.7-0.6,1.3-1.3,1.3l0,0h-61.1c-0.6,0-1.2-0.4-1.3-1.1l-4.4-21v-2.7
			c0-0.5,0.4-0.9,0.9-0.9h26L980.6,249.1z"/>
		<path d="M979.3,254.2h-61.1c-1.1,0-2-0.8-2.2-1.8l-4.4-21c0-0.1,0-0.1,0-0.2v-2.7c0-1,0.8-1.8,1.8-1.8h26c0.2,0,0.3,0,0.4,0.1
			l41.2,21.6c0.3,0.2,0.5,0.5,0.5,0.8v2.8C981.6,253.1,980.6,254.2,979.3,254.2z M913.5,231l4.4,20.9c0,0.2,0.2,0.3,0.4,0.3h61.1
			c0.2,0,0.4-0.2,0.4-0.4v-2.2l-40.5-21.2h-25.7V231z"/>
		<path d="M922.6,245.8h-2.9c-0.3,0-0.5-0.2-0.6-0.5l-2.6-11.3c0-0.2,0-0.4,0.1-0.5c0.1-0.1,0.3-0.2,0.5-0.2h7.5
			c0.2,0,0.4,0.1,0.5,0.2c0.1,0.1,0.2,0.3,0.1,0.5l-2,11.3C923.2,245.6,922.9,245.8,922.6,245.8z M920.2,244.5h1.8l1.8-10H918
			L920.2,244.5z"/>
		<path d="M917.4,247.2c-0.1,0-0.3-0.1-0.3-0.2l-3.9-17.8c0-0.2,0.1-0.3,0.2-0.4c0,0,0,0,0,0c0.2,0,0.3,0.1,0.4,0.2l3.9,17.8
			C917.8,247,917.7,247.2,917.4,247.2C917.5,247.2,917.5,247.2,917.4,247.2L917.4,247.2z"/>
		<path d="M917.6,253.2c-0.2,0-0.3-0.1-0.3-0.3c0,0,0,0,0,0v-2.7c0-0.2,0.2-0.3,0.4-0.3c0.1,0,0.2,0.1,0.3,0.3v2.7
			C917.9,253.1,917.8,253.2,917.6,253.2z"/>
		<path class="st2" d="M907.2,104.2c-1.2-4.4-3.5-8.4-6.6-11.7c-4.8,3.7-11.3,0.3-11.7-3.8c-3.5,5.2-12.7,6.7-12.7,6.7
			c1.8-2.1,2.9-4.8,3.1-7.6c-6.2,3.6-10.8,9.5-12.7,16.4c0,0-0.7,12.4,3.7,20.6s12.7,11.3,16.6,11.3s12.2-3.1,16.6-11.3
			S907.2,104.2,907.2,104.2z"/>
		<path d="M886.9,137c-3.1-0.2-6-1.1-8.6-2.7c-3.7-2.2-6.8-5.3-8.8-9.1c-4.5-8.3-3.8-20.6-3.8-21.1c0-0.1,0-0.1,0-0.2
			c1.9-7.2,6.7-13.3,13.1-17c0.5-0.2,1-0.1,1.3,0.4c0.1,0.1,0.1,0.3,0.1,0.4c-0.1,2.2-0.7,4.3-1.8,6.2c2.8-0.8,7.5-2.5,9.8-5.7
			c0.2-0.3,0.6-0.5,1-0.4c0.4,0.1,0.7,0.4,0.7,0.8c0.4,1.8,1.7,3.4,3.5,4c2.2,1,4.8,0.7,6.7-0.8c0.4-0.3,0.9-0.3,1.3,0.1
			c3.3,3.4,5.6,7.5,6.8,12.1c0,0.1,0,0.1,0,0.2c0,0.5,0.7,12.8-3.8,21.1c-2,3.8-5.1,6.9-8.8,9.1C892.9,135.9,890,136.8,886.9,137z
			 M867.6,104.3c0,1.2-0.5,12.6,3.6,20c4.4,8.2,12.5,10.8,15.8,10.8s11.4-2.6,15.8-10.8c4-7.4,3.6-18.8,3.6-20
			c-1.1-3.9-3.1-7.6-5.8-10.6c-2.4,1.5-5.3,1.7-7.9,0.6c-1.7-0.7-3.2-2-4-3.7c-4.2,4.3-11.8,5.6-12.1,5.6c-0.5,0.1-1-0.3-1.1-0.8
			c0-0.3,0-0.5,0.2-0.8c1.2-1.5,2.1-3.3,2.6-5.1C873,93.1,869.3,98.4,867.6,104.3L867.6,104.3z"/>
		<path class="st2" d="M923.8,118.5c-0.6-2.2-4.4-7.9-6-9.6s-6.8-4-8.7-4.4s-2.7,1.6-1.1,3.5c0.4,1.2,1.3,2.2,2.4,2.8
			c-0.3,1.3,0.2,2.6,1.3,3.3c2,1.3,4.5,3.5,4.5,3.5l1.6,2.9"/>
		<path d="M917.8,121.6c-0.3,0-0.7-0.2-0.8-0.5l-1.5-2.8c-0.5-0.4-2.7-2.2-4.3-3.3c-1.2-0.8-1.9-2.2-1.8-3.7c-1-0.7-1.8-1.7-2.2-2.8
			c-0.9-1.1-1.2-2.6-0.5-3.8c0.6-0.9,1.7-1.3,2.7-1c1.9,0.4,7.4,2.8,9.2,4.7c1.6,1.7,5.6,7.5,6.2,10c0.1,0.5-0.2,1-0.7,1.2
			c-0.5,0.1-1-0.2-1.2-0.7c0,0,0,0,0,0c-0.5-2-4.2-7.5-5.8-9.2s-6.5-3.8-8.2-4.1c-0.3-0.1-0.5,0-0.7,0.2c-0.2,0.3-0.1,1,0.5,1.8
			c0.1,0.1,0.1,0.2,0.2,0.3c0.4,1,1.1,1.8,2,2.3c0.4,0.2,0.5,0.7,0.4,1.1c-0.2,0.9,0.2,1.8,1,2.2c2,1.3,4.5,3.5,4.6,3.6
			c0.1,0.1,0.2,0.2,0.2,0.3l1.6,2.9c0.2,0.5,0.1,1-0.4,1.3C918.1,121.6,918,121.6,917.8,121.6z"/>
		<path d="M923,118.9c-0.2,0-0.4-0.1-0.5-0.3c-1.8-2.6-4.4-4.7-7.3-6c-0.3-0.2-0.7-0.3-1-0.5c-1.1-0.6-2.5-1.4-3.1-1.2
			c-0.1,0-0.2,0.1-0.2,0.2c-0.2,0.3-0.5,0.4-0.8,0.3c-0.3-0.2-0.4-0.5-0.3-0.8c0.2-0.4,0.6-0.7,1-0.9c1-0.3,2.3,0.3,4.1,1.3l0.9,0.5
			c3.1,1.4,5.8,3.6,7.8,6.4c0.2,0.3,0.1,0.7-0.2,0.9C923.3,118.9,923.2,118.9,923,118.9z"/>
		<path d="M919.9,112.7c-0.2,0-0.3-0.1-0.5-0.2c-2.4-2.5-5.5-4.4-8.9-5.3c-0.5-0.2-1-0.2-1.4,0c-0.3,0.2-0.6,0.6-0.6,1
			c-0.1,0.3-0.4,0.5-0.8,0.5c0,0,0,0,0,0c-0.3-0.1-0.5-0.4-0.5-0.8c0,0,0,0,0,0c0.1-0.7,0.6-1.4,1.2-1.8c0.7-0.4,1.6-0.4,2.4-0.2
			c3.6,1,6.9,2.9,9.5,5.7c0.2,0.2,0.2,0.6,0,0.9C920.2,112.7,920.1,112.7,919.9,112.7L919.9,112.7z"/>
		<ellipse cx="878.2" cy="106.5" rx="1.6" ry="1.9"/>
		<path d="M886.9,116.6h-1.6c-0.3,0-0.6-0.4-0.5-0.7c0-0.3,0.3-0.5,0.5-0.5h1.6c0.3,0,0.6,0.4,0.5,0.7
			C887.4,116.4,887.2,116.6,886.9,116.6z"/>
		<path d="M875.2,103c-0.4,0-0.8,0-1.1-0.2c-0.3-0.1-0.5-0.5-0.4-0.8c0,0,0,0,0,0c0.1-0.3,0.4-0.5,0.8-0.4c1.8,0.5,5-1,6-2.8
			c0.2-0.3,0.6-0.4,0.9-0.2c0.3,0.2,0.4,0.5,0.2,0.8C880.1,101.6,877.8,102.9,875.2,103z"/>
		<ellipse cx="895.7" cy="106.5" rx="1.6" ry="1.9"/>
		<path d="M888.6,116.6h-1.6c-0.3,0-0.7-0.2-0.7-0.5s0.2-0.7,0.5-0.7c0.1,0,0.1,0,0.2,0h1.6c0.3,0,0.7,0.2,0.7,0.5s-0.2,0.7-0.5,0.7
			C888.7,116.6,888.6,116.6,888.6,116.6z"/>
		<path d="M898.7,103c-2.6-0.1-4.9-1.4-6.4-3.5c-0.2-0.3,0-0.7,0.3-0.8c0.3-0.1,0.6,0,0.8,0.2c1,1.8,4.3,3.3,6,2.8
			c0.3-0.1,0.7,0.1,0.8,0.4c0.1,0.3-0.1,0.7-0.4,0.8c0,0,0,0,0,0C899.4,103,899,103,898.7,103z"/>
		<path d="M886.3,127.6c-1.4,0-2.2-0.1-2.8-0.7c-0.4-0.4-0.6-0.9-0.5-1.5c0.1-1.3,0.6-2.5,1.3-3.6c0.1-0.1,0.2-0.2,0.4-0.3
			c1.4-0.3,2.9-0.3,4.3,0c0.3,0.1,0.6,0.4,0.5,0.7s-0.4,0.6-0.7,0.5c0,0,0,0,0,0c-1.2-0.2-2.4-0.2-3.6,0c-0.5,0.8-0.9,1.7-1,2.7
			c0,0.4,0.1,0.5,0.2,0.6c0.8,0.3,1.6,0.4,2.5,0.3c1,0,2.2-0.1,2.5-0.6c0.2-0.4,0.3-0.9,0.1-1.4c-0.1-0.3,0.1-0.7,0.5-0.8
			c0,0,0,0,0,0c0.3-0.1,0.7,0.1,0.8,0.5c0.3,0.8,0.2,1.7-0.3,2.5c-0.7,0.8-1.9,1-3.5,1.1L886.3,127.6z"/>
		<path class="st5" d="M998.6,202.5h-61.1c-1.8,0.1-3.4,1.2-4,2.9l-15.1,42c-0.5,0.9-0.1,2.1,0.8,2.5c0.3,0.2,0.7,0.2,1,0.2h59.2
			c1.7-0.1,3.2-1.2,3.9-2.8l16.9-42C1001,203.8,1000.2,202.5,998.6,202.5z"/>
		<path d="M979.5,251.1h-59.2c-1,0-1.9-0.4-2.5-1.2c-0.5-0.8-0.7-1.9-0.3-2.8l15.1-42c0.8-2,2.7-3.4,4.8-3.5h61.1
			c1,0,1.9,0.4,2.5,1.2c0.6,0.9,0.6,2,0.2,3l-16.9,42C983.5,249.7,981.6,251,979.5,251.1z M937.5,203.4c-1.4,0.1-2.6,1-3.1,2.3
			l-15.1,42c-0.2,0.3-0.2,0.8,0,1.1c0.2,0.3,0.6,0.4,0.9,0.4h59.2c1.3-0.1,2.5-0.9,3.1-2.2l16.9-42c0.2-0.4,0.2-0.9,0-1.2
			c-0.2-0.3-0.6-0.4-0.9-0.4L937.5,203.4z"/>
		<path class="st2" d="M998.7,205.3h-61.1c-0.5-0.1-0.9-0.5-0.8-1c0-0.4,0.4-0.8,0.8-0.8h61.1c0.5,0.1,0.9,0.5,0.8,1
			C999.5,204.9,999.1,205.3,998.7,205.3z"/>
		<path class="st1" d="M837.8,170.7c-6.4,15.3-10.6,29.3-11.7,35.7c-1.3,6.1,2.7,12.1,8.8,13.4c0.3,0.1,0.5,0.1,0.8,0.1
			c6.8,1,25.7,4.1,25.7,4.1l9.3-16.3l-24-3.2l8.6-21.6"/>
		<path d="M861.4,224.9h-0.2c-0.2,0-18.9-3.1-25.6-4c-3.3-0.4-6.3-2.2-8.3-4.9c-2-2.8-2.8-6.3-2.2-9.8c1.1-6.4,5.3-20.3,11.8-35.9
			c0.2-0.5,0.8-0.7,1.2-0.5c0.5,0.2,0.7,0.8,0.5,1.2c-6.4,15.4-10.6,29.2-11.7,35.5c-0.6,2.9,0.1,5.9,1.8,8.3c1.7,2.3,4.2,3.8,7,4.1
			c6,0.9,21.7,3.4,25,3.9l8.3-14.5l-22.6-3c-0.3,0-0.5-0.2-0.7-0.5c-0.1-0.3-0.2-0.6-0.1-0.8l8.7-21.6c0.2-0.5,0.7-0.7,1.2-0.5
			c0.5,0.2,0.7,0.7,0.5,1.2l-8.2,20.5l22.8,3.1c0.3,0,0.6,0.2,0.7,0.5c0.1,0.3,0.1,0.6,0,0.9l-9.3,16.3
			C862.1,224.8,861.7,224.9,861.4,224.9z"/>
		<path class="st2" d="M866.9,207.2c-4.7,1.5-8,5.7-8.4,10.6c-0.3,4.7,2,6.3,4.6,7s6.5-0.6,9.1-3.4c-0.8,3.2,0.5,3.9,2.4,4.2
			s5.3,1,5.8-2.4c1.6,0.2,3-1,3.2-2.6c0-0.1,0-0.3,0-0.4c1.5,0.4,2.6-1,2.6-2.7c1.7,0.2,2.7-1.5,2-3.8c-0.8-2.5-2-4.8-3.4-7
			c-1.1-1.4-2.7-2.2-5.4-1.9C875.2,205.3,871,206.1,866.9,207.2z"/>
		<path d="M877.1,226.8c-0.7,0-1.4-0.1-2.1-0.2l-0.4-0.1c-1.2,0-2.3-0.6-3-1.5c-0.3-0.4-0.5-0.9-0.5-1.4c-2.6,1.9-5.8,2.7-8.2,2
			c-3.8-1-5.5-3.6-5.3-8c0.5-5.3,4-9.8,9.1-11.4l0,0c4.1-1.1,8.3-1.9,12.6-2.4c2.8-0.3,4.8,0.4,6.3,2.3c1.6,2.2,2.8,4.7,3.6,7.3
			c0.5,1.4,0.3,3-0.5,4.2c-0.4,0.5-0.9,0.8-1.5,0.9c-0.2,0.9-0.6,1.6-1.3,2.2c-0.4,0.3-0.9,0.5-1.4,0.6c-0.3,1.6-1.6,2.7-3.2,2.9
			C880.5,226.3,878.7,226.8,877.1,226.8z M872.2,220.4c0.2,0,0.3,0,0.5,0.1c0.4,0.2,0.6,0.6,0.5,1.1c-0.3,0.8-0.3,1.6,0,2.4
			c0.2,0.3,0.7,0.5,1.7,0.7l0.5,0.1c2.7,0.4,4,0.2,4.3-1.6c0.1-0.5,0.5-0.8,1-0.8c1.1,0.1,2.1-0.7,2.2-1.8c0-0.1,0-0.2,0-0.3
			c0-0.3,0.1-0.5,0.4-0.7c0.2-0.2,0.5-0.2,0.8-0.2c0.3,0.1,0.6,0,0.8-0.1c0.4-0.4,0.7-1,0.6-1.6c0-0.3,0.1-0.5,0.3-0.7
			c0.2-0.2,0.5-0.3,0.8-0.2c0.3,0.1,0.6,0,0.8-0.2c0.4-0.7,0.5-1.6,0.2-2.4c-0.8-2.4-1.9-4.6-3.3-6.7c-0.7-0.9-1.8-1.9-4.6-1.6
			c-4.1,0.4-8.3,1.2-12.3,2.3l0,0c-4.3,1.4-7.3,5.2-7.8,9.7c-0.2,4.4,1.8,5.5,3.9,6.1c2.4,0.6,5.8-0.7,8.2-3.1
			C871.7,220.6,871.9,220.4,872.2,220.4z"/>
		<path d="M851.3,223c-0.2,0-0.4-0.1-0.5-0.3c-2.2-3.8-1.6-11,2-13.5c0.2-0.3,0.6-0.3,0.9-0.1s0.3,0.6,0.1,0.9
			c-0.1,0.1-0.1,0.1-0.2,0.2c-2.6,1.8-3.9,8-1.7,11.9c0.2,0.3,0.1,0.7-0.2,0.9C851.5,222.9,851.4,223,851.3,223z"/>
		<path d="M833.5,207.4c-0.3,0-0.6-0.3-0.6-0.7c0-0.1,0-0.2,0.1-0.3c2.3-2.4,5.4-3.8,8.8-3.9c0.3,0,0.6,0.4,0.5,0.7
			c0,0.3-0.3,0.5-0.5,0.5c-3,0.1-5.8,1.4-7.8,3.5C833.9,207.4,833.7,207.4,833.5,207.4z"/>
		<path d="M880.4,223.9L880.4,223.9c-0.4,0-0.7-0.4-0.6-0.7c0.2-1.1-1.9-4.4-4.7-6.7c-0.3-0.2-0.3-0.6-0.1-0.9c0,0,0,0,0,0
			c0.2-0.3,0.6-0.3,0.9-0.1c0,0,0,0,0,0c2.7,2.2,5.4,5.9,5.1,7.8C881,223.6,880.7,223.9,880.4,223.9z"/>
		<path d="M883.6,220.9c-0.3,0-0.6-0.3-0.6-0.6c0-1.6-1.5-4.6-4.7-7.7c-0.3-0.2-0.3-0.6-0.1-0.9c0.2-0.3,0.6-0.3,0.9-0.1
			c0,0,0.1,0.1,0.1,0.1c3,2.9,5,6.3,5,8.5C884.2,220.6,883.9,220.9,883.6,220.9C883.6,220.9,883.6,220.9,883.6,220.9L883.6,220.9z"
			/>
		<path d="M886.2,218.2L886.2,218.2c-0.4,0-0.7-0.3-0.6-0.7c0,0,0,0,0,0c0.2-1.6-1.9-6-4.4-8.2c-0.3-0.2-0.3-0.6,0-0.9
			c0.2-0.3,0.6-0.3,0.9,0c2.6,2.4,5.1,7.2,4.8,9.4C886.8,218,886.5,218.2,886.2,218.2z"/>
		<path d="M874.8,223.6c-0.2,0-0.3-0.1-0.5-0.2c-1.2-1.1-2.5-2-3.9-2.8c-0.3-0.2-0.4-0.5-0.3-0.8c0.2-0.3,0.5-0.4,0.8-0.3
			c1.5,0.8,2.9,1.8,4.2,3c0.2,0.2,0.2,0.6,0,0.9C875.1,223.6,874.9,223.6,874.8,223.6L874.8,223.6z"/>
		<path d="M855.4,193.4c-0.5,0-0.9-0.5-0.9-1v-26.7c0.1-0.5,0.5-0.9,1-0.8c0.4,0,0.8,0.4,0.8,0.8v26.8
			C856.3,193,855.9,193.4,855.4,193.4z"/>
		<ellipse class="st6" cx="529.8" cy="270.7" rx="275.3" ry="123.9"/>
		<path class="st4" d="M528.5,39.5l-4.1-2.8c2.9-2.9,5.3-6.2,7.1-9.8l4.3,2C533.7,32.7,531.3,36.3,528.5,39.5z M544.4,15.9v3h8.8
			c1.3,0,2.5-0.1,3.8-0.3v5c-1.2-0.1-2.7-0.1-3.7-0.1h-8.9v17.7c0,2.2-1.3,3.6-4,3.6c-2.1,0-4.1-0.1-6.2-0.3l-0.5-4.7
			c1.4,0.3,2.8,0.4,4.3,0.5c1,0,1.3-0.4,1.4-1.4c0-1.4,0-13.5,0-15.2l0,0h-9.7c-1.1,0-2.6,0-3.6,0.1v-5c1.2,0.2,2.4,0.2,3.6,0.3h9.7
			v-3c0-1.1-0.1-2.2-0.3-3.3h5.6C544.5,13.7,544.4,14.8,544.4,15.9z M558.6,36.8l-4.4,2.4c-1.8-3.6-3.8-7-6.2-10.2l4.1-2.2
			C554.5,30,556.7,33.3,558.6,36.8L558.6,36.8z"/>
		<path class="st4" d="M570,25.7h20.4c1.8,0,3.5-0.2,4.5-0.2v6c-0.9,0-2.8-0.2-4.5-0.2H570c-2.2,0-4.7,0.1-6.1,0.2v-6
			C565.2,25.5,568,25.7,570,25.7z"/>
		<path class="st4" d="M617.8,18.6c-1.2,3.7-4.3,13.4-6.2,18.5c4.6-0.5,10-1.1,13.9-1.5c-1.1-2.4-2.5-4.8-4-7l4.8-1.9
			c3.2,5,6,10.3,8.3,15.8l-5.1,2.3c-0.5-1.3-1.1-2.8-1.8-4.5c-6.2,0.7-17.7,1.9-22.5,2.4l-3.6,0.5l-0.9-5.5c1.3,0,2.9,0,4.2,0
			c0.3,0,0.7,0,1,0c2.2-5.6,5.5-16,6.6-20c0.4-1.4,0.7-2.9,0.9-4.4l6,1.2C619,15.5,618.4,16.9,617.8,18.6z"/>
		<path class="st4" d="M640.8,29.3c1.7-1.7,4.7-5.5,7.3-8.6c2.2-2.7,4.5-3.1,7.5-0.3c2.5,2.4,5.5,5.4,7.8,7.9
			c2.5,2.7,6.4,6.9,9.3,10l-4.2,4.5c-2.5-3.2-5.8-7.1-8-9.7s-5.6-6.3-7-7.7c-1.2-1.2-2-1.1-3.1,0.2c-1.5,1.9-4.2,5.7-5.7,7.7
			c-0.9,1.2-1.8,2.5-2.5,3.5l-4.6-4.7C638.8,31.3,639.8,30.3,640.8,29.3z M666.2,14.8c2.7,0,4.9,2.2,4.9,4.9c0,2.7-2.2,4.9-4.9,4.9
			c0,0,0,0,0,0c-2.7,0-4.9-2.2-4.9-4.9S663.5,14.8,666.2,14.8z M666.2,22.2c1.3,0,2.4-1.1,2.4-2.4c0,0,0,0,0,0
			c0-1.3-1.1-2.4-2.4-2.4c-1.3,0-2.4,1.1-2.4,2.4C663.8,21.1,664.9,22.2,666.2,22.2C666.2,22.2,666.2,22.2,666.2,22.2z"/>
		<path class="st4" d="M684,25.7h20.4c1.8,0,3.5-0.2,4.5-0.2v6c-0.9,0-2.8-0.2-4.5-0.2H684c-2.2,0-4.7,0.1-6.1,0.2v-6
			C679.2,25.5,682,25.7,684,25.7z"/>
		<path class="st4" d="M726.4,27.1l-2.8,4.2c-2.2-1.5-6.1-4.1-8.7-5.4l2.7-4.2C720.3,23.1,724.5,25.8,726.4,27.1z M729.4,35.8
			c6.1-3.3,11.2-8.2,14.8-14.2l2.9,5.2c-3.9,5.6-9.1,10.3-15,13.7c-4,2.1-8.3,3.7-12.7,4.7l-2.8-5C721.1,39.4,725.4,37.9,729.4,35.8
			L729.4,35.8z M732.2,18.5l-2.8,4.2c-2.1-1.5-6.1-4-8.6-5.4l2.7-4.2C726.1,14.5,730.3,17.1,732.2,18.5L732.2,18.5z M743.5,19.7
			l-3.3,1.4c-0.9-2.1-2-4.1-3.3-6l3.2-1.3C741.3,15.7,742.5,17.7,743.5,19.7L743.5,19.7z M748.8,17.7l-3.2,1.4c-1-2-2.2-4-3.6-5.8
			l3.3-1.4C746.6,13.8,747.8,15.7,748.8,17.7L748.8,17.7z"/>
		<path class="st4" d="M786.7,39.9v4.6h-34.5v-4.6h13.6V11.3h4.9v10.9H784v4.6h-13.4v13.1H786.7z"/>
		<path class="st4" d="M809.1,44.8l-2.8-4.5c1.2-0.1,2.4-0.3,3.5-0.6c4.9-1.1,8.7-4.6,8.7-10.2c0-5.2-2.8-9.1-8-10
			c-0.5,3.5-1.3,6.9-2.3,10.3c-2.3,7.7-5.5,12.4-9.7,12.4s-7.7-4.6-7.7-11.1c0-8.8,7.6-16.3,17.4-16.3c9.4,0,15.3,6.5,15.3,14.8
			C823.6,37.7,818.7,43.3,809.1,44.8z M798.7,36.3c1.6,0,3.1-2.4,4.6-7.5c0.9-3,1.6-6.1,2-9.2c-6.3,1.3-9.7,6.8-9.7,11
			C795.7,34.4,797.2,36.3,798.7,36.3z"/>
		<path class="st4" d="M525.8,64.9h17.3v4.7h-11.7v7.3h10v4.7h-10V93h-5.6V64.9z"/>
		<path class="st4" d="M553.5,64.9h6.6l9,28.2h-5.9l-2-7.2H552l-2,7.2h-5.7L553.5,64.9z M553.3,81.4h6.7l-0.8-3.1
			c-0.9-2.9-1.6-6.2-2.4-9.2h-0.2c-0.7,3.1-1.6,6.3-2.4,9.2L553.3,81.4z"/>
		<path class="st4" d="M581,93.3c-6-1.1-10-6.5-10-14.5c0-9.2,5.1-14.5,12.6-14.5s12.6,5.4,12.6,14.5c0,7.7-3.7,12.8-9.2,14.3
			c1.3,2.1,3.8,3,6.4,3c1,0,2.1-0.1,3.1-0.5l1,4.1c-1.5,0.6-3.1,0.9-4.8,0.8C587.6,100.8,583,97.9,581,93.3z M590.4,78.8
			c0-6-2.7-9.7-6.8-9.7s-6.8,3.6-6.8,9.7c0,6.3,2.7,10.1,6.8,10.1S590.4,85.1,590.4,78.8z"/>
		<path class="st4" d="M628.9,81.4v2.3h6.4v3.8h-6.4v4.1c0,2.2-0.5,3.3-2.1,4s-3.8,0.7-6.6,0.7c-0.4-1.5-0.9-2.9-1.6-4.2
			c1.9,0.1,4.2,0.1,4.8,0.1s0.8-0.2,0.8-0.6v-4h-11.3c1.7,1.3,3.3,2.7,4.6,4.4l-3.5,2.8c-1.6-2.2-3.5-4.1-5.7-5.7l2-1.5h-7v-3.8
			h20.9v-2.3h-22.3v-3.8h14.8v-2.2h-11v-3.7h11v-1.8h2.3c-0.8-0.5-1.6-1-2.2-1.3c0.5-0.4,1-0.8,1.4-1.3h-5.1
			c0.4,0.8,0.8,1.6,1.1,2.4l-3.9,1.6c-0.4-1.4-1-2.7-1.8-4h-0.4c-1.1,1.5-2.2,3-3.5,4.3c-1.2-0.9-2.4-1.8-3.8-2.5
			c2.6-2.4,4.7-5.3,6-8.5l4.3,1.1c-0.3,0.6-0.6,1.3-0.9,1.9h8.3v3.1c1.5-1.8,2.7-3.9,3.5-6.1l4.3,1.1c-0.2,0.7-0.5,1.3-0.8,1.9h10.5
			v3.7h-6.3c0.5,0.8,1,1.6,1.4,2.4l-3.9,1.6c-0.6-1.4-1.4-2.8-2.3-4h-1.5c-0.7,1-1.4,2-2.2,2.9v1.5h11.5v3.7h-11.5v2.2h15v3.8H628.9
			z"/>
		<path class="st4" d="M658.9,94.8l-2.9-4.5c1.2-0.1,2.4-0.3,3.5-0.6c4.9-1.1,8.7-4.6,8.7-10.2c0-5.2-2.8-9.2-8-10
			c-0.5,3.5-1.3,6.9-2.3,10.3c-2.3,7.7-5.5,12.4-9.7,12.4s-7.7-4.6-7.7-11.1c0-8.8,7.6-16.3,17.4-16.3c9.4,0,15.3,6.5,15.3,14.8
			C673.3,87.7,668.4,93.3,658.9,94.8z M648.4,86.3c1.6,0,3.1-2.4,4.6-7.5c0.9-3,1.6-6.1,2-9.2c-6.3,1.3-9.7,6.8-9.7,11
			C645.4,84.4,646.9,86.3,648.4,86.3z"/>
		<path class="st4" d="M710.8,91.2c0,2.4-0.5,3.7-2.1,4.4s-4,0.8-7.4,0.8c-0.2-1.6-0.7-3.1-1.5-4.5c2.2,0.1,4.8,0.1,5.5,0.1
			s1-0.2,1-0.9v-5.7l-3.7,2.9c-2.2-2.8-4.6-5.5-7.2-7.9c-1.8,3.7-4.6,6.7-8.2,8.7c-0.9-1.2-2-2.4-3.2-3.3v10.7h-4.5V67.1h13.2v-6.3
			h4.7v6.3h13.3L710.8,91.2z M684.1,85.6c7.2-3.7,8.5-9.3,8.7-14h-8.7V85.6z M697.4,71.6c-0.1,1.4-0.3,2.9-0.5,4.3
			c3.3,2.9,6.5,6.1,9.4,9.4V71.5L697.4,71.6z"/>
		<path class="st4" d="M735.3,73.4c4.1,4.9,9.6,8.6,15.7,10.6c-1.1,1.3-2,2.7-2.8,4.1c-1.4-0.6-2.8-1.3-4.3-2.1v10.3h-4.6v-1h-12.5
			v1.1h-4.4v-10c-1.4,0.8-2.7,1.5-4.2,2.1c-0.7-1.4-1.6-2.7-2.5-3.8c6.2-2.4,12.1-7.2,15-11.2L735.3,73.4z M721.3,72h-4.4v-8.2h13.8
			v-3h4.6v3h14V72h-4.6V68h-23.4L721.3,72z M730.6,70.2c-2.6,3.5-5.9,6.5-9.7,8.7c-0.9-1.3-2-2.5-3.1-3.6c3.3-1.5,6.2-3.7,8.4-6.5
			L730.6,70.2z M739.4,91.3v-4h-12.5v4H739.4z M739.7,83.3c-2.4-1.6-4.5-3.5-6.4-5.7c-1.8,2.2-3.8,4.1-6.1,5.7H739.7z M738.6,68.6
			c3.4,2,6.6,4.3,9.5,7l-3.4,3c-2.8-2.8-5.9-5.2-9.3-7.2L738.6,68.6z"/>
		<path class="st7" d="M156.6,518.9v7.2c4.5-1.1,8.9-2.5,13.1-4.2c1.4-0.6,2.8-1.2,4.1-2.1l2,4.8c-1.5,0.6-3.2,1.3-4.4,1.8
			c-4.9,1.8-9.8,3.4-14.9,4.6v7c0,1.6,0.8,2,2.5,2.4c1.5,0.2,2.9,0.2,4.4,0.2c4.4,0,8.9-0.4,13.2-1.3v5.5c-4.5,0.5-9,0.8-13.5,0.8
			c-2.1,0-4.3-0.1-6.4-0.4c-3.3-0.6-5.2-2.4-5.2-5.7v-20.7c0-1.3-0.1-2.6-0.3-4h5.6C156.6,516.3,156.5,517.6,156.6,518.9z
			 M176.3,518.5l-3.1,1.3c-0.9-1.8-1.9-3.6-3-5.3l3-1.2C174.2,514.7,175.6,517.1,176.3,518.5z M180.8,516.8l-3,1.3
			c-0.9-1.8-1.9-3.6-3.1-5.2l3-1.2C178.9,513.3,179.9,515,180.8,516.8L180.8,516.8z"/>
		<path class="st7" d="M215.1,518l-1.9,0.8l0.8,4.4c-0.8,0.1-2.4,0.3-3.5,0.5c-1.6,0.2-4.4,0.7-7.6,1.2c0.4,1.9,0.8,4,1.2,6.1
			c3.4-0.6,6.5-1.1,8.2-1.4c1.5-0.3,2.9-0.7,3.9-0.9l1,5c-1,0.1-2.6,0.3-4,0.6c-1.8,0.3-4.9,0.8-8.2,1.3c0.6,3.1,1.1,5.7,1.4,6.8
			s0.6,2.5,1,3.7l-5.5,1c-0.2-1.4-0.3-2.7-0.5-3.9s-0.6-3.7-1.2-6.9c-3.9,0.7-7.5,1.2-9.1,1.6s-2.9,0.5-3.8,0.8l-1.1-5.1
			c1,0,2.7-0.3,3.9-0.4l9.2-1.5c-0.4-2-0.8-4.1-1.2-6.1l-7.4,1.2c-1.2,0.2-2.2,0.5-3.5,0.8l-1-5.2c1.2-0.1,2.4-0.2,3.5-0.3
			c1.3-0.2,4.3-0.6,7.5-1.1c-0.3-1.6-0.6-2.8-0.7-3.5c-0.2-1-0.5-1.9-0.8-2.9l5.4-0.9c0.1,0.8,0.2,2,0.4,2.9
			c0.1,0.5,0.3,1.8,0.6,3.5c3.2-0.5,6.1-1,7.4-1.3c0.7-0.1,1.5-0.3,2.2-0.5c-0.8-1.6-1.7-3.1-2.6-4.6l3-1.2
			C213.1,514.2,214.4,516.6,215.1,518z M219.7,516.2l-3,1.3c-0.9-1.8-1.9-3.6-3.1-5.2l3-1.2C217.7,512.7,218.8,514.5,219.7,516.2
			L219.7,516.2z"/>
		<path class="st7" d="M238.1,514h6c-0.2,1.5-0.3,3-0.3,4.5v4.1h8.6c1.7,0,3.3-0.2,4.1-0.2v5.2c-0.8,0-2.7-0.2-4.2-0.2h-8.5
			c-0.2,7.6-2.6,13.9-10.8,18.8l-4.7-3.5c7.4-3.4,10-8.9,10.3-15.3h-9.7c-1.7,0-3.2,0.1-4.4,0.2v-5.2c1.1,0.1,2.7,0.3,4.2,0.3h9.9
			v-4.2C238.6,517,238.4,515.5,238.1,514z"/>
		<path class="st7" d="M268.8,526.7h20.4c1.8,0,3.5-0.2,4.4-0.2v6c-0.9,0-2.9-0.2-4.4-0.2h-20.4c-2.2,0-4.7,0.1-6.1,0.2v-6
			C264.1,526.6,266.8,526.7,268.8,526.7z"/>
		<path class="st7" d="M332,542.1c0,2.5-0.5,3.8-2.1,4.5s-4,0.8-7.5,0.8c-0.3-1.6-0.8-3.1-1.5-4.6c2.2,0.2,4.8,0.1,5.5,0.1
			s1-0.2,1-0.9v-19.4h-22.4v24.7h-4.5v-29.1H311c0.8-2.1,1.5-4.2,2-6.4l5.7,0.8c-0.8,1.9-1.7,3.7-2.7,5.5H332V542.1z M312.9,539.3
			v2.7h-4.1v-15.7h14.8v13L312.9,539.3z M312.9,530.3v5h6.6v-5.1L312.9,530.3z"/>
		<path class="st7" d="M345,517.6c-1,4.2-2.3,12.2-1.3,16.9c0.5-1.2,1.2-3,1.8-4.4l2.4,1.5c-1,3-1.9,6.1-2.6,9.3
			c-0.1,0.6-0.2,1.2-0.2,1.9c0,0.4,0,1,0.1,1.6l-4.2,0.4c-1.3-4-2.1-8.1-2.2-12.3c0-5.1,0.4-10.1,1.2-15.2c0.2-1.1,0.3-2.2,0.3-3.3
			l5.6,0.6C345.5,515.5,345.2,516.6,345,517.6z M364.6,516.5v4.9c1.9-0.1,3.8-0.3,5.7-0.7v4.9c-1.5,0.2-3.5,0.3-5.6,0.5v1.6
			c0,9-0.7,14.5-8.3,19.3l-4.4-3.5c1.6-0.7,3.1-1.7,4.4-3c2.9-3,3.5-6.4,3.5-12.8v-1.4c-1.4,0-2.9,0.1-4.3,0.1c-1.6,0-4-0.1-5.9-0.2
			v-4.9c1.9,0.3,3.8,0.4,5.7,0.4c1.4,0,2.9,0,4.3-0.1c0-2.1-0.1-4.1-0.1-5.1c-0.1-0.9-0.2-1.8-0.4-2.6h5.5
			C364.6,514.7,364.6,515.6,364.6,516.5L364.6,516.5z"/>
		<path class="st7" d="M383.8,517.3H403c1.1,0,2.7,0,3.3-0.1c0,0.9-0.1,2.4-0.1,3.5v19.7c0,1.3,0.1,3.3,0.1,4.5h-5.5
			c0-0.6,0-1.3,0-2h-17.3c-1.5,0-3.6,0.1-4.9,0.2v-5.4c1.3,0.1,3,0.2,4.8,0.2h17.5v-15.7h-17.1c-1.6,0-3.6,0.1-4.7,0.2v-5.3
			C380.6,517.3,382.5,517.3,383.8,517.3z"/>
		<path class="st7" d="M430.1,535.5c5.9-3.5,10.8-8.6,13.9-14.8l3,5.4c-3.4,5.8-8.3,10.6-14.1,14.1c-4.3,2.6-9.1,4.5-14.1,5.4
			l-3.2-5C420.8,539.9,425.7,538.2,430.1,535.5z M430.1,523.3l-3.9,4c-2.9-3-6.1-5.7-9.5-8.2l3.6-3.8
			C423.8,517.7,427.1,520.3,430.1,523.3L430.1,523.3z"/>
		<path class="st7" d="M456.1,524.9H481c1.2,0,2.3-0.1,3.5-0.2v4.9c-1-0.1-2.4-0.1-3.5-0.1h-9.2c-0.1,3.4-0.9,6.7-2.4,9.8
			c-1.8,3.1-4.4,5.7-7.6,7.3l-4.4-3.2c2.8-1.1,5.1-3,6.9-5.4c1.5-2.5,2.4-5.4,2.4-8.4h-10.4c-1.1,0-2.6,0.1-3.6,0.2v-5
			C453.6,524.8,454.9,524.9,456.1,524.9z M460.9,515.2h15.3c1.4,0,2.7-0.1,4.1-0.3v4.9c-1.3-0.1-2.8-0.2-4.1-0.2h-15.2
			c-1.3,0-2.9,0.1-4.1,0.2V515C458.2,515.2,459.5,515.2,460.9,515.2z"/>
		<path class="st7" d="M506.1,535.5c5.9-3.5,10.8-8.6,13.9-14.8l3,5.4c-3.4,5.8-8.3,10.6-14.1,14.1c-4.3,2.6-9.1,4.5-14.1,5.4
			l-3.2-5C496.8,539.9,501.7,538.2,506.1,535.5z M506.1,523.3l-3.9,4c-2.9-3-6.1-5.7-9.5-8.2l3.6-3.8
			C499.8,517.7,503.1,520.3,506.1,523.3L506.1,523.3z"/>
		<path class="st7" d="M537,527.5l-4.9,1.8c-1.2-3.7-2.7-7.3-4.4-10.8l4.9-1.7C533.7,519.2,536.1,524.9,537,527.5z M559.5,520.5
			c-1.1,4.1-3.2,10.2-6.4,14.3c-3.9,5-9,8.9-14.9,11.1l-4.2-4.3c5.9-1.7,11.1-5.1,15-9.8c2.8-3.6,5.2-10.2,5.8-16l5.7,1.6
			C560.1,518.5,559.8,519.4,559.5,520.5L559.5,520.5z M547.1,524.7l-4.8,1.7c-1.1-3.5-2.5-6.9-4-10.3l4.8-1.5
			C544.7,517.8,546,521.2,547.1,524.7L547.1,524.7z"/>
		<path class="st7" d="M579.8,517.5c-0.2,1.1-0.5,2.5-0.8,3.9c1.3-0.1,2.4-0.2,3.2-0.2c4,0,6.9,1.8,6.9,7.3c0,4.5-0.5,10.6-2.2,13.9
			c-1.2,2.7-3.3,3.5-6.2,3.5c-1.5,0-3.1-0.2-4.6-0.5l-0.8-5c1.5,0.4,3.1,0.7,4.6,0.8c1.2,0.1,2.4-0.5,2.8-1.6
			c1-2.2,1.6-6.8,1.6-10.5c0-3-1.3-3.5-3.7-3.5c-0.6,0-1.6,0.1-2.7,0.2c-1.4,5.8-4.2,14.8-7.8,20.4l-4.9-2c3.7-5,6.3-12.7,7.7-17.9
			l-3.3,0.4c-1.1,0.2-3.1,0.5-4.3,0.7l-0.5-5.2c1.4,0.1,2.7,0.1,4.1,0c1.2,0,3-0.2,4.9-0.3c0.5-2.6,0.8-5.3,0.8-8l5.7,0.6
			C580.2,515.3,580,516.5,579.8,517.5z M595.9,518.1l-1.9,0.8c2.5,4.2,4.6,8.6,6.2,13.3l-4.8,2.2c-1-4.2-3.7-10.9-6.4-14.2l3.4-1.5
			c-0.8-1.5-1.6-3-2.6-4.5l3-1.2C593.8,514.3,595.2,516.7,595.9,518.1z M600.4,516.4l-3,1.3c-0.9-1.8-1.9-3.6-3.1-5.2l3-1.2
			C598.5,512.9,599.5,514.6,600.4,516.4z"/>
		<path class="st7" d="M625.5,524.2c4.1,2.9,9.9,7.3,12.7,10.3l-3.8,3.5c-2.4-2.8-7.5-7.2-11.6-10.3v19.7h-4.9v-18.5
			c-3.5,3.8-7.6,6.9-12.1,9.3c-0.9-1.5-2-2.8-3.1-4.1c6.8-3.3,12.4-8.5,16.4-14.9h-15.2v-4.6h32.9v4.6h-11.8
			c-0.7,1.2-1.4,2.4-2.2,3.5v4L625.5,524.2z"/>
		<path class="st7" d="M660.8,542.3c1.9,0.3,3.9,0.4,5.9,0.4c1.6,0,7.3,0,9.3,0c-0.7,1.4-1.2,2.8-1.6,4.4h-8
			c-7.6,0-13.5-1.4-17.5-7.2c-1.1,2.9-2.9,5.4-5.2,7.4c-0.9-1.1-2-2.2-3.2-3.1c4.1-3.2,5.8-9.4,6.3-14.6l4.7,0.5
			c-0.2,1.5-0.5,3-0.9,4.5c1,2.6,3,4.8,5.5,6.1v-13.5h-11v-13.8H672v13.8h-11.2v4.7h12.4v4.2h-12.4V542.3z M649.8,523h17.4v-5.2
			h-17.4V523z"/>
		<line class="st8" x1="14.8" y1="412.5" x2="920.2" y2="412.5"/>
		<polygon points="918.6,400.4 918.6,424.7 930.7,412.5 		"/>
		<line class="st8" x1="41.2" y1="469.1" x2="41.2" y2="119.3"/>
		<polygon points="29,120.9 53.3,120.9 41.2,108.8 		"/>
		<path class="st9" d="M50,388.7c0,0,106.7-241.8,189.7-241.9c71.6,0,127,153.3,271.4,188.1c179.7,43.3,336.3,40.3,336.3,40.3"/>
		<path d="M391.2,452.2c-0.3,2.5-1.4,8.9-1.9,12.1h3c0.9,0,1.7-0.1,2.6-0.2v4.1c-0.9-0.1-1.7-0.1-2.6-0.1h-18.6
			c-0.8,0-1.8,0-2.8,0.1V464c0.9,0.1,1.8,0.2,2.8,0.2h11.6c0.5-3,1.5-9,1.6-10.8h-9.7c-1.1,0-2.1,0-3.2,0.1v-3.9
			c1,0.1,2.1,0.2,3.1,0.2h8.9c0.9,0,1.8-0.1,2.6-0.4l2.9,1.5C391.3,451.3,391.2,452,391.2,452.2z"/>
		<path d="M404,456.3h15c1.3,0,2.5-0.1,3.3-0.2v4.4c-0.7,0-2.1-0.1-3.3-0.1h-15c-1.6,0-3.5,0-4.5,0.1v-4.4
			C400.5,456.2,402.5,456.3,404,456.3z"/>
		<path d="M436.9,471.3l-3-2.8c5.4-1.9,7.8-4.3,7.8-11.2v-1.1h-6.6v3.8c0,1.3,0.1,2.4,0.1,2.9h-3.9c0.1-1,0.2-2,0.2-2.9v-3.8H429
			c-1.4,0-2.4,0.1-3,0.1v-3.8c1,0.2,2,0.2,3,0.2h2.4V450c0-0.8-0.1-1.7-0.2-2.5h4c-0.1,0.8-0.2,1.7-0.2,2.5v2.7h6.6v-2.9
			c0-0.9-0.1-1.7-0.2-2.6h4c-0.1,0.9-0.2,1.7-0.2,2.6v2.9h2.1c1,0,2.1,0,3.1-0.2v3.7c-0.6-0.1-1.6-0.1-3-0.1h-2.1v0.9
			C445.3,464.1,443.7,468.3,436.9,471.3z M449.2,451.1l-1.9,0.6c-0.4-1.3-0.9-2.6-1.4-3.8l1.9-0.6
			C448.3,448.5,448.8,449.8,449.2,451.1L449.2,451.1z M452.2,450.2l-1.9,0.6c-0.4-1.3-0.9-2.6-1.5-3.8l1.9-0.6
			C451.2,447.5,451.8,449.1,452.2,450.2z"/>
		<path d="M460,456.3h15c1.3,0,2.5-0.1,3.3-0.2v4.4c-0.7,0-2.1-0.1-3.3-0.1h-15c-1.6,0-3.5,0-4.5,0.1v-4.4
			C456.5,456.2,458.5,456.3,460,456.3z"/>
		<path d="M482,470.3c1.4-1.4,2.5-3,3.2-4.9l3.2,0.8c-0.7,2-1.9,3.8-3.3,5.3L482,470.3z M505.4,449.5c-0.1,8.4-0.2,12.6,0.7,12.6
			c0.3,0,0.4-1.5,0.5-3.4c0.5,0.7,1.1,1.3,1.8,1.9c-0.2,3-0.7,4.3-2.5,4.3c-2.1,0-2.9-1.9-3.2-5.6l-1.4,2.2
			c-0.5-0.6-1.1-1.2-1.7-1.8c-1,2.3-2.6,4.3-4.7,5.7c-0.6-0.7-1.4-1.4-2.2-2c0.9-0.6,1.7-1.3,2.4-2.1l-4.6,0.3v1.2
			c0,1.3-0.2,1.8-1.2,2.2c-1.2,0.3-2.5,0.4-3.8,0.3c-0.2-0.8-0.5-1.5-0.8-2.2c1,0,2,0,2.3,0s0.4-0.1,0.4-0.4v-1l-5,0.2l-0.2-2.3
			c1.4,0,3.2-0.1,5.2-0.2v-1.1h1c0.4-0.2,0.7-0.4,1.1-0.6h-6.3v-2h9l0.6-0.1l1.6,1.3c-1.1,0.9-2.3,1.7-3.6,2.3l4.4-0.2v2.1
			c0.9-1,1.5-2.2,2-3.5c-0.8-0.7-1.7-1.3-2.6-1.9l1.6-2.3c0.5,0.3,1.1,0.7,1.7,1.1c0.1-0.8,0.2-1.7,0.1-2.5h-2.5v-2.8h2.5v-4.1h2.8
			v4.1h3.3l0,0L505.4,449.5z M495.6,449.4h-13.3v-2.2h5v-1.9h3.1v1.9h5.1L495.6,449.4z M483.8,455v-4.8h10.1v4.8H483.8z
			 M486.5,453.3h4.6V452h-4.6V453.3z M493.2,466c0.3,1.6,0.6,3.2,0.6,4.9l-3.3,0.4c0-1.7-0.2-3.3-0.5-5L493.2,466z M498.8,465.8
			c0.7,1.6,1.2,3.2,1.5,4.8l-3.3,0.6c-0.3-1.7-0.7-3.4-1.3-5L498.8,465.8z M500.7,452.3c0,1.5-0.1,2.9-0.3,4.4
			c0.8,0.6,1.5,1.2,2.1,1.9c-0.1-1.7-0.1-3.8-0.1-6.3H500.7z M504.4,465.2c1.3,1.6,2.4,3.4,3.4,5.2l-3.4,1.1c-0.9-1.9-2-3.7-3.2-5.3
			L504.4,465.2z"/>
		<path d="M513.4,462.2c-0.2,2.5-0.8,4.9-1.7,7.2c-0.8-0.5-1.6-0.9-2.4-1.2c0.8-2.1,1.3-4.3,1.4-6.5L513.4,462.2z M530.5,462.2
			c1.6,2.2,3.6,4.2,5.9,5.6c-0.9,0.7-1.6,1.6-2.3,2.5c-1.8-1.4-3.4-3.2-4.8-5.1v6.2h-3.2v-6.1c-1.5,2.1-3.4,4-5.7,5.4
			c-0.6-0.9-1.4-1.8-2.2-2.5c2.7-1.4,5-3.4,6.6-5.9h-4.3v-1.8l-2.2,1c-0.1-0.5-0.2-1-0.4-1.6l-1.4,0.1v11.6h-2.8v-11.3l-3.9,0.3
			l-0.3-2.9l2-0.1c0.4-0.5,0.9-1.1,1.3-1.6c-0.9-1.4-2-2.7-3.2-3.9l1.6-2.2c0.2,0.2,0.4,0.4,0.6,0.6c0.8-1.6,1.5-3.2,2-4.8l2.9,1
			c-1,2-2,3.9-3.2,5.7c0.3,0.3,0.6,0.7,0.9,1.1c0.9-1.5,1.8-3,2.5-4.5l2.7,1.3c-1.5,2.4-3.4,5.1-5.2,7.4l2.4-0.1
			c-0.3-0.6-0.6-1.2-0.9-1.8l2.3-1c0.9,1.5,1.6,3.1,2.2,4.8v-6.9h5.5v-1.5h-6.2v-2.9h6.3v-2.4h3.2v2.5h6v2.9h-6v1.5h5.6v9.9
			L530.5,462.2z M519.3,461.6c0.6,1.5,1.1,3,1.4,4.6l-2.5,0.8c-0.2-1.6-0.6-3.2-1.2-4.7L519.3,461.6z M523.6,456.1h2.8v-1.5h-2.8
			V456.1z M523.6,459.8h2.8v-1.5h-2.8V459.8z M531.9,454.6h-2.8v1.5h2.8V454.6z M531.9,458.3h-2.8v1.5h2.8V458.3z"/>
		<path d="M543.2,455.7c0,4.5-0.4,11.4-3,15.7c-0.8-0.7-1.7-1.3-2.7-1.8c2.3-4,2.5-9.8,2.5-13.9v-7.8h10v-2.5h3.5v2.5h9.9v3h-20.2
			V455.7z M561.9,462.2c-1.1,2.2-2.7,4-4.8,5.3c2.3,0.6,4.6,1,6.9,1.2c-0.8,0.9-1.5,1.8-2,2.9c-2.9-0.3-5.8-1.1-8.5-2.2
			c-3,1.1-6.1,1.8-9.2,2.2c-0.3-1-0.8-1.9-1.3-2.8c2.5-0.2,4.9-0.6,7.2-1.3c-1.2-0.9-2.3-1.9-3.2-3.1l1.3-0.5h-4.2v-2.6h15.1
			l0.6-0.1L561.9,462.2z M547.7,460.2v-4.4h-3.8v-2.6h3.8v-1.9h3.1v1.9h5.1v-1.9h3.3v1.9h4v2.6h-4v4.4H547.7z M550.3,463.9
			c0.9,1,2.1,1.7,3.3,2.3c1.2-0.6,2.4-1.4,3.4-2.3H550.3z M550.8,455.9v1.9h5.1v-1.9H550.8z"/>
		<path d="M63.8,429.2v6.3c3.6-0.9,7.2-2,10.6-3.4c0.9-0.4,1.7-0.8,2.5-1.3l1,2.2c-0.8,0.3-1.8,0.8-2.6,1.1
			c-3.7,1.4-7.6,2.6-11.5,3.6v6.1c0,1.4,0.6,1.8,2,2.1c1.2,0.2,2.5,0.2,3.7,0.2c3.2,0,6.4-0.3,9.6-0.9v2.6c-3.2,0.4-6.5,0.6-9.7,0.6
			c-1.5,0-3-0.1-4.5-0.3c-2.2-0.4-3.4-1.4-3.4-3.6v-15.4c0-0.8-0.1-1.5-0.2-2.3H64C63.9,427.7,63.8,428.5,63.8,429.2z M78.8,429.9
			l-1.5,0.7c-0.7-1.4-1.4-2.7-2.3-3.9l1.5-0.6C77.4,427.3,78.1,428.5,78.8,429.9L78.8,429.9z M82,428.7l-1.5,0.7
			c-0.7-1.3-1.5-2.6-2.3-3.9l1.5-0.6C80.5,426.1,81.3,427.4,82,428.7z"/>
		<path d="M94.1,426.8l2.5-0.4c0.1,0.5,0.2,1.3,0.3,1.9c0,0.3,0.3,1.4,0.6,3c2.7-0.5,5.3-0.9,6.5-1.1c0.7-0.1,1.3-0.3,2-0.5l0.4,2.4
			c-0.4,0-1.3,0.2-2,0.3c-1.3,0.2-3.8,0.6-6.5,1c0.3,1.7,0.7,3.7,1.1,5.6c2.8-0.5,5.5-0.9,6.9-1.2c1.1-0.2,1.9-0.4,2.5-0.6l0.5,2.4
			c-0.6,0.1-1.5,0.2-2.5,0.4c-1.5,0.2-4.2,0.6-6.9,1.1c0.6,2.7,1,5,1.1,5.6c0.2,0.8,0.4,1.7,0.7,2.5l-2.6,0.5
			c-0.1-1-0.2-1.8-0.4-2.6c-0.1-0.6-0.5-2.9-1.1-5.7c-3.2,0.5-6.2,1-7.5,1.3c-1.1,0.2-1.9,0.4-2.5,0.5l-0.5-2.5
			c0.7,0,1.7-0.1,2.5-0.2c1.4-0.2,4.4-0.7,7.6-1.2c-0.4-1.9-0.8-3.9-1.1-5.6c-2.7,0.4-5.1,0.8-6.2,1c-0.8,0.1-1.4,0.3-2.2,0.5
			l-0.5-2.5l2.3-0.2c1.1-0.1,3.5-0.5,6.2-0.9c-0.3-1.5-0.5-2.6-0.6-3C94.5,427.9,94.3,427.3,94.1,426.8z M107.5,429.1l-1.5,0.7
			c-0.7-1.3-1.4-2.7-2.3-3.9l1.5-0.6C106,426.5,106.8,427.7,107.5,429.1z M110.6,427.9l-1.5,0.7c-0.7-1.3-1.5-2.6-2.3-3.9l1.5-0.6
			C109.1,425.3,109.9,426.6,110.6,427.9z"/>
		<path d="M125.5,426.3h2.8c-0.1,0.9-0.2,1.9-0.2,2.8v3.8h7.4c0.8,0,1.6,0,2.4-0.1v2.4c-0.4,0-1.6-0.1-2.5-0.1h-7.4
			c0,6.2-2.1,10.7-7.8,14l-2.2-1.6c5.3-2.5,7.6-6.6,7.6-12.4h-8.2c-1,0-2.1,0-2.7,0.1v-2.4c0.6,0.1,1.6,0.1,2.6,0.1h8.3v-3.8
			C125.7,428.1,125.6,427.2,125.5,426.3z"/>
		<path d="M146.9,436h15.3c1.4,0,2.4-0.1,3-0.1v2.7c-0.6,0-1.7-0.1-3-0.1h-15.3c-1.5,0-3,0.1-3.9,0.1v-2.7
			C143.9,435.9,145.3,436,146.9,436z"/>
		<path d="M15.3,68.9c0,5.3,0.8,15.5,11.1,21.6c-1,0.9-1.9,1.8-2.7,2.9c-5-3.1-8.7-8.1-10.3-13.8C11.3,85.8,7.9,90.5,3,93.4
			c-0.9-1-2-1.9-3-2.7c5.8-2.9,9.2-8.3,10.7-15.7l1.7,0.3c-0.2-1.1-0.3-2.1-0.4-3H5.6v-3.4H15.3z"/>
		<path d="M31.8,77.5h-2.9v-5.7h10.6v-1.1h-8.7v-2.5h20.6v2.5h-8.7v1.1h10.8v5.7h-3.1V74h-7.7v5.8h-3.2V74h-7.6V77.5z M49.8,90.8
			c1.4,0,1.7-0.4,1.8-2.8c0.9,0.5,1.8,0.9,2.8,1.1c-0.4,3.4-1.3,4.3-4.3,4.3h-5.9c-3.8,0-4.9-0.8-4.9-3.8v-0.1h-4.6v1.2h-3.2V80.6
			h19.4v8.9h-8.4v0.1c0,1,0.3,1.2,2,1.2L49.8,90.8z M32.4,77.8h6v1.8h-6V77.8z M38.4,76.8h-5.5V75h5.5L38.4,76.8z M34.6,82.8v1.2
			h4.6v-1.2L34.6,82.8z M39.2,87.3v-1.2h-4.6v1.2L39.2,87.3z M47.5,82.8h-5v1.2h5.1L47.5,82.8z M47.5,87.3v-1.2h-5v1.2L47.5,87.3z
			 M49.2,75v1.8h-5.5V75H49.2z M43.8,77.8h6.1v1.8h-6.1L43.8,77.8z"/>
		<path d="M80.6,75.4c-0.4,3.6-1.4,7.2-3,10.4c1.2,2,3,3.6,5,4.7c-0.9,0.8-1.7,1.8-2.3,2.9c-1.9-1.1-3.5-2.6-4.8-4.4
			c-1.6,1.9-3.6,3.5-5.9,4.6c-0.3-0.7-0.7-1.3-1.1-1.9L67.3,93c-0.9-0.8-1.9-1.5-2.9-2.1c-2.1,1.4-4.4,2.3-6.9,2.7
			c-0.2-1-0.7-1.9-1.3-2.8c1.9-0.2,3.7-0.7,5.3-1.5c-0.5-0.3-1-0.5-1.6-0.8l-0.3,0.5l-2.9-0.9c0.6-1,1.3-2.2,2-3.6h-2.6v-2.7h4.1
			c0.3-0.7,0.7-1.4,1-2l0.6,0.1v-2.7c-1.2,1.3-2.7,2.4-4.2,3.2c-0.4-0.9-1-1.7-1.7-2.4c1.9-0.8,3.5-2,4.9-3.5h-4.4V72h2.1
			c-0.4-1.1-0.8-2.2-1.5-3.2l2.4-1c0.7,1.1,1.3,2.2,1.7,3.5L59.4,72h2.3v-4.7h3.1V72H67l-1.8-0.8c0.7-1.1,1.3-2.3,1.8-3.5l2.8,1.1
			c-0.9,1.2-1.7,2.4-2.4,3.2h2.7v2.6h-4.6c1.3,0.8,3.3,1.9,4,2.3l-1.8,2.3c-0.6-0.6-1.8-1.6-2.9-2.4v3.4H63l1.2,0.2l-0.7,1.3h6.7
			c-0.7-0.7-1.5-1.3-2.3-1.9c2.4-2.9,3.7-7.6,4.4-12.6l3.4,0.4c-0.2,1.6-0.5,3.1-0.9,4.6h7.4v3.1L80.6,75.4z M61.3,86
			c0.8,0.3,1.7,0.7,2.5,1.1c0.5-0.8,0.9-1.6,1.1-2.5h-2.7L61.3,86z M68,84.5c-0.2,1.4-0.7,2.8-1.5,4c0.8,0.4,1.6,0.9,2.3,1.5
			c2-1,3.6-2.4,4.9-4.2c-0.8-1.8-1.5-3.6-1.9-5.5c-0.4,0.7-0.8,1.4-1.3,2c-0.1-0.1-0.2-0.2-0.4-0.4v2.7L68,84.5z M74,75.4
			c0.4,2.2,0.9,4.4,1.7,6.6c0.8-2.1,1.3-4.3,1.5-6.6L74,75.4z"/>
		<path d="M744,429.4h15.4c0.8,0,1.6-0.1,2.4-0.2v2.5c-0.8-0.1-1.6-0.1-2.4-0.1h-6.7v12.9h8.2c0.8,0,1.6-0.1,2.3-0.2v2.5
			c-0.8-0.1-1.5-0.1-2.3-0.1h-18.5c-0.8,0-1.6,0-2.5,0.1v-2.5c0.8,0.1,1.6,0.2,2.5,0.2h7.9v-12.9H744c-0.8,0-1.6,0-2.3,0.1v-2.5
			C742.4,429.3,743.2,429.4,744,429.4z"/>
		<path d="M776,426.3l2.5-0.4c0,0.5,0.2,1.3,0.2,1.9c0.1,0.3,0.2,1.5,0.6,3c2.7-0.5,5.3-0.9,6.5-1.1c0.7-0.1,1.3-0.3,2-0.5l0.5,2.4
			c-0.4,0-1.3,0.2-2,0.3c-1.3,0.2-3.8,0.6-6.5,1c0.4,1.7,0.8,3.7,1.1,5.6c2.8-0.5,5.5-0.9,6.9-1.2c1.1-0.2,1.9-0.4,2.5-0.5l0.5,2.4
			c-0.6,0-1.5,0.2-2.5,0.4c-1.5,0.2-4.1,0.7-6.9,1.1c0.6,2.8,1,5,1.2,5.6c0.2,0.8,0.4,1.8,0.7,2.5l-2.5,0.5c-0.1-1-0.2-1.8-0.4-2.6
			c-0.1-0.6-0.5-2.9-1.1-5.6c-3.2,0.5-6.2,1-7.5,1.3c-1.1,0.2-1.9,0.3-2.5,0.5l-0.5-2.4c0.7,0,1.7-0.1,2.5-0.2
			c1.4-0.2,4.5-0.7,7.6-1.2c-0.4-1.9-0.8-3.9-1.1-5.6c-2.7,0.4-5.1,0.8-6.2,1c-0.8,0.1-1.4,0.3-2.3,0.5l-0.5-2.5
			c0.7,0,1.4-0.1,2.3-0.2c1.1-0.1,3.5-0.5,6.2-0.9c-0.3-1.5-0.5-2.6-0.6-2.9C776.4,427.5,776.2,426.9,776,426.3z"/>
		<path d="M815.3,430.5c-1.2,2.9-2.8,5.7-4.7,8.2c2.9,2.6,5.7,5.4,8.2,8.4l-2,1.7c-2.3-3-4.9-5.8-7.7-8.3c-3.1,3.4-6.8,6.2-10.9,8.2
			l-1.8-1.9c4.4-1.9,8.4-4.7,11.5-8.3c2-2.3,3.6-4.9,4.7-7.8h-10.9c-1,0-2.5,0.1-2.8,0.1v-2.5c0.4,0,2,0.2,2.8,0.2h10.8
			c0.7,0,1.4-0.1,2.1-0.2l1.4,1.1C815.7,429.6,815.5,430,815.3,430.5z"/>
		<path d="M830.4,429.2l2.5,0.5c-0.2,0.6-0.4,1.4-0.5,2c-0.6,3-1.5,5.9-2.5,8.8c-1.1,2.7-2.5,5.3-4.1,7.7l-2.4-1
			c1.7-2.4,3.2-4.9,4.3-7.6C829,436.2,830,432.7,830.4,429.2z M837.4,429.6l2.3-0.8c1.5,2.9,2.9,5.8,4.1,8.9c1.2,2.8,2.6,7,3.4,9.6
			l-2.5,0.8c-0.9-3.3-1.9-6.5-3.2-9.6C840.3,435.4,839,432.5,837.4,429.6L837.4,429.6z M845.4,425.3c1.7,0,3.1,1.4,3.1,3.2
			c0,1.7-1.4,3.1-3.1,3.1c-1.7,0-3.1-1.4-3.1-3.2C842.3,426.7,843.7,425.3,845.4,425.3z M845.4,430.3c1,0,1.9-0.8,1.9-1.8
			c0-1-0.8-1.9-1.8-1.9c-1,0-1.9,0.8-1.9,1.8c0,0,0,0,0,0C843.6,429.4,844.4,430.3,845.4,430.3L845.4,430.3z"/>
		<path d="M856.3,436h15.3c1.4,0,2.4-0.1,3-0.1v2.7c-0.6,0-1.7-0.1-3-0.1h-15.3c-1.5,0-3,0.1-3.9,0.1v-2.7
			C853.3,435.9,854.8,436,856.3,436z"/>
		<path d="M887,429.2c0-1-0.1-1.9-0.2-2.9h2.7c-0.1,0.9-0.2,2.1-0.2,2.9v4.6c4.1,1.3,8.1,2.8,12,4.6l-1,2.4c-3.5-1.8-7.2-3.3-11-4.5
			c0,4.2,0,8.4,0,9.2s0,2.4,0.2,3.3h-2.7c0.1-1.1,0.2-2.2,0.2-3.3L887,429.2z"/>
		<polygon class="st10" points="260.8,126.2 278.8,88.9 290.4,105 301.9,121.1 		"/>
		<circle class="st10" cx="333.4" cy="72.3" r="72.3"/>
		<path class="st2" d="M348.8,87.1c-1.8-2-4.6-2.8-7.2-2.1l-8.5,2.5c-3.4-3.2-6.5-6.7-9.3-10.5l-0.1-0.1l0,0
			c-2.8-3.7-5.3-7.7-7.4-11.9l4.7-7.4c1.5-2.3,1.5-5.2,0-7.5l-5.5-8.4c-1.6-2.4-4.5-3.6-7.3-3c-3.9,0.8-9.2,2.7-11.8,6.8
			c-1.5,2.3-8,15.4,11.3,41.9c0,0.1,0.1,0.1,0.1,0.2l0.5,0.6l0.9,1.2c0.1,0.1,0.1,0.2,0.2,0.2c15.5,19.8,27.5,22.9,33.4,22.9
			c1.2,0,2.5-0.1,3.7-0.5c4.6-1.4,7.9-5.9,9.8-9.4c1.4-2.6,1-5.7-0.9-7.9L348.8,87.1z"/>
		<path class="st2" d="M364.5,44.6c-6-7.2-14.6-11.6-23.9-12.4c-1.2-0.1-2.2,0.8-2.2,2c-0.1,1.1,0.7,2,1.8,2.2
			c17,1.5,29.7,16.5,28.2,33.5c-0.1,1.2,0.7,2.2,1.9,2.3c0,0,0,0,0,0h0.2c1.1,0,2-0.8,2.1-1.9C373.4,61,370.5,51.7,364.5,44.6z"/>
		<path class="st2" d="M338,42.1c-1.2-0.1-2.2,0.8-2.3,1.9c-0.1,1.2,0.8,2.2,1.9,2.3c12.7,1.1,22,12.2,20.9,24.9c0,0,0,0,0,0
			c-0.1,1.2,0.8,2.2,1.9,2.3h0.2c1.1,0,2-0.8,2.1-1.9C364.1,56.7,353,43.5,338,42.1z"/>
		<path class="st2" d="M334.5,56.1c8.7,1.3,15,9,14.4,17.7c-0.1,1.2,0.8,2.2,2,2.2c0,0,0,0,0,0h0.1c1.1,0,2-0.9,2.1-2
			c0.6-10.9-7.2-20.5-18-22.1c-1.1-0.2-2.3,0.5-2.5,1.7c-0.2,1.1,0.5,2.3,1.7,2.5C334.4,56.1,334.4,56.1,334.5,56.1L334.5,56.1z"/>
		<circle class="st11" cx="231.9" cy="263.9" r="76.8"/>
		<line class="st12" x1="637.4" y1="112.6" x2="626.2" y2="179.9"/>
		<path class="st3" d="M615.2,177.5c-1,6.1,3.1,12,9.3,13c6.1,1,12-3.1,13-9.3c1-6.1-3.1-11.9-9.3-13
			C622,167.1,616.2,171.3,615.2,177.5C615.2,177.4,615.2,177.5,615.2,177.5z"/>
		<line class="st12" x1="231.3" y1="482.2" x2="231.3" y2="274.6"/>
		<path class="st3" d="M242.6,275.1c0-6.2-5.1-11.3-11.3-11.3s-11.3,5.1-11.3,11.3s5.1,11.3,11.3,11.3l0,0
			C237.5,286.4,242.6,281.4,242.6,275.1z"/>
	</g>
</g>
</svg>
