<?xml version="1.0" encoding="utf-8"?>
<!-- Generator: Adobe Illustrator 26.0.0, SVG Export Plug-In . SVG Version: 6.00 Build 0)  -->
<svg version="1.1" id="レイヤー_1" xmlns="http://www.w3.org/2000/svg" xmlns:xlink="http://www.w3.org/1999/xlink" x="0px"
	 y="0px" viewBox="0 0 908.9 483.9" style="enable-background:new 0 0 908.9 483.9;" xml:space="preserve">
<style type="text/css">
	.st0{fill:#FFFFFF;}
	.st1{fill:#141F42;}
	.st2{fill:none;stroke:#141F42;stroke-width:4.61;stroke-miterlimit:10;}
	.st3{fill:none;stroke:#141F42;stroke-width:1.15;stroke-miterlimit:10;}
	.st4{fill:#4B4B4B;}
	.st5{fill:#FFF03C;}
	.st6{fill:#FFFF64;}
	.st7{fill:#FF8C00;}
	.st8{fill:#00D7FF;}
	.st9{fill:#FFAA1E;}
	.st10{fill:#787878;}
	.st11{fill:#786478;}
	.st12{fill:#A5E1EF;}
	.st13{fill:#FFF300;}
	.st14{fill:#0096FF;}
</style>
<g id="Layer_2">
	<g id="レイヤー_7">
		<ellipse class="st0" cx="413.6" cy="241.9" rx="413.6" ry="241.9"/>
		<path class="st1" d="M349.5,229.8c-7.8,0-11.3,5.3-11.3,12.2s3.5,12.2,11.3,12.2s11.3-5.3,11.3-12.2S357.2,229.8,349.5,229.8z
			 M349.5,250c-4,0-6.2-2.6-6.2-8s2.2-8,6.2-8s6.2,2.6,6.2,8S353.5,250,349.5,250L349.5,250z"/>
		<path class="st1" d="M413.7,245l2.6-8.7l2.7,8.7l1.2,3.9l1.5,4.8c0.9,0.2,1.8,0.2,2.6,0.2c0.8,0.1,1.7,0,2.5-0.2l-8.3-23.5
			c-0.7-0.2-1.4-0.2-2.2-0.2c-0.7-0.1-1.5,0-2.2,0.2l-8.3,23.5c0.8,0.2,1.6,0.3,2.5,0.2c0.9,0,1.8,0,2.7-0.2l1.5-4.8L413.7,245z"/>
		<path class="st1" d="M406.3,230c-0.9,0-1.8,0-2.7,0.2l-3.2,16.9l-4.1-16.9c-0.7-0.2-1.4-0.2-2.1-0.2c-0.7-0.1-1.4,0-2.1,0.2
			l-4.1,16.9l-3.1-16.9c-0.9-0.2-1.8-0.2-2.7-0.2c-0.9-0.1-1.7,0-2.5,0.2l5.7,23.5c0.7,0.2,1.4,0.3,2.1,0.2c1.1,0,2.1,0,3.1-0.2
			l3.6-15l3.6,15c1,0.2,2.1,0.2,3.1,0.2c0.7,0.1,1.4,0,2.1-0.2l5.7-23.5C408,230,407.2,229.9,406.3,230z"/>
		<path class="st1" d="M440.7,230c-0.9,0-1.8,0-2.7,0.2l-5.2,18.6l-5.2-18.6c-0.9-0.2-1.7-0.2-2.6-0.2c-0.9-0.1-1.7,0-2.6,0.2
			l7.6,23.5c1.9,0.3,3.8,0.3,5.7,0l7.6-23.5C442.4,230,441.6,229.9,440.7,230z"/>
		<path class="st1" d="M372.8,241.6l7.2-11.4c-0.8-0.2-1.7-0.3-2.6-0.2c-1,0-1.9,0-2.9,0.2l-7,11.4l7.4,12.2
			c0.9,0.2,1.9,0.2,2.9,0.2c0.9,0.1,1.7,0,2.5-0.2L372.8,241.6z"/>
		<path class="st1" d="M362,230.2v23.5c1.6,0.3,3.3,0.3,4.9,0v-23.5C365.3,229.9,363.6,229.9,362,230.2z"/>
		<path class="st1" d="M449.4,249.6v-6h8.9c0.2-0.7,0.3-1.4,0.2-2.1c0.1-0.7,0-1.4-0.2-2.1h-8.9v-5.2h10.4c0.2-0.7,0.2-1.4,0.2-2.1
			c0.1-0.7,0-1.4-0.2-2.1h-15.3v23.5h15.3c0.3-1.4,0.3-2.8,0-4.1L449.4,249.6z"/>
		<path class="st1" d="M313.4,224.3c-14.8,0-17.6,2.9-17.6,17.6c0,14.8,2.9,17.7,17.6,17.7S331,256.7,331,242
			C331,227.3,328.2,224.3,313.4,224.3z M313.4,257.8c-13.7,0-15.9-2.2-15.9-15.9s2.2-15.9,15.9-15.9s15.9,2.1,15.9,15.9
			S327.1,257.8,313.4,257.8L313.4,257.8z"/>
		<path class="st1" d="M319,232.5c-2.5,0-4.8,1.6-5.6,4c-0.9-2.4-3.1-4-5.6-4c-2.6,0-6.1,1.6-6.1,6.6c0,6.7,8.8,12.7,11.8,15
			c2.9-2.2,11.8-8.2,11.8-15C325.1,234.1,321.6,232.5,319,232.5z"/>
		<path class="st1" d="M490.6,228.8c-0.8-0.2-1.6-0.3-2.5-0.2c-0.8-0.1-1.7,0-2.5,0.2l0,0v25c1.6,0.3,3.3,0.3,4.9,0v-25H490.6z"/>
		<path class="st1" d="M474.4,230c-3.9,0-7.3,0.2-7.3,0.2v23.5c0.8,0.2,1.6,0.3,2.5,0.2c0.8,0.1,1.6,0,2.5-0.2V245
			c0,0,1.6,0.1,2.4,0.1c8,0,9.8-3.3,9.8-7.6C484.2,230.8,479.9,230,474.4,230z M474.4,241.6c-0.8,0-2.4-0.1-2.4-0.1v-7.8
			c0.8-0.1,1.6-0.1,2.4-0.1c3.1,0,5.3,0.4,5.3,4C479.7,240.8,477.5,241.6,474.4,241.6L474.4,241.6z"/>
		<path class="st1" d="M510,249.4c1.5,0.7,3.2,1.1,4.8,1.2c1.2,0.1,2.5,0,2.7-1.4c0.1-0.9-1.3-1.3-3.2-2c-3.7-1.2-5.1-3.2-4.9-5.8
			s2.7-4.8,7.1-4.8c1.7,0,3.5,0.3,5.1,1l-1.1,3.6c-1.2-0.5-2.5-0.8-3.8-1c-0.8-0.1-2,0-2.3,1.1c-0.3,1.3,2.1,1.8,4,2.7
			c3.1,1.4,4.3,2.8,3.9,5.7c-0.4,3.1-2.3,4.6-7.6,4.6c-2,0.1-4-0.2-5.9-1L510,249.4z"/>
		<path class="st1" d="M492.6,248.6c0,0.1,0,0.2,0,0.3c-0.1,2.8,2,5.1,4.8,5.2c0.2,0,0.4,0,0.6,0c1.7,0,3.3-0.7,4.4-2v1.6
			c0.8,0.2,1.6,0.3,2.5,0.2c0.8,0.1,1.7,0,2.5-0.2l0,0v-17.2c-1.6-0.3-3.3-0.3-4.9,0v10c0.1,1.3-0.8,2.5-2.1,2.6c-0.1,0-0.2,0-0.3,0
			c-1.2,0.2-2.4-0.7-2.5-2c0-0.2,0-0.3,0-0.5v-10.1c-1.6-0.3-3.3-0.3-4.9,0L492.6,248.6z"/>
		<path class="st1" d="M531.5,231.3c0-0.4,0-0.7-0.1-1.1h-4.5v-4.5l0,0c-0.4-0.1-0.7-0.1-1.1-0.1c-0.4,0-0.7,0-1.1,0.1l0,0v4.5h-4.5
			c-0.1,0.4-0.1,0.7-0.1,1.1c0,0.4,0,0.7,0.1,1.1h4.5v4.5c0.4,0.1,0.7,0.1,1.1,0.1c0.4,0,0.7,0,1.1-0.1v-4.5h4.5
			C531.5,232.1,531.5,231.7,531.5,231.3z"/>
		<path class="st2" d="M556.3,162.6c-34.8-24.4-81.5-38.4-142.8-38.4c-63.7,0-111.5,15.1-146.8,41.3"/>
		<polygon class="st1" points="554.1,138.6 549.6,139.7 554.8,161.8 532.3,165.4 533.1,169.9 560.4,165.6 		"/>
		<path class="st3" d="M561.2,319.5l-1.7-2.3c-36.7,27.2-85.8,41.1-146,41.1c-57.8,0-105.3-12.7-141.5-37.8l11.9-1.7l-0.4-2.8
			l-16.8,2.4l3.6,16.6l2.8-0.6l-2.5-11.5c36.6,25.4,84.6,38.2,142.9,38.2C474.4,361.1,524.1,347.1,561.2,319.5z"/>
		<path class="st1" d="M394.8,37.3h37.5c6.6,0,12,5.4,12,12v37.5c0,6.6-5.4,12-12,12h-37.5c-6.6,0-12-5.4-12-12V49.3
			C382.8,42.6,388.2,37.3,394.8,37.3z"/>
		<polygon class="st1" points="402,93.7 413.9,108.1 425.3,93.7 		"/>
		<path class="st0" d="M423.9,83.9c-1.2,0.5-2.6,0.7-3.9,0.7c-4.1,0.1-7.9-2.2-9.6-6c-5-0.9-8.2-5.3-8.2-11.9
			c0-7.5,4.2-11.9,10.4-11.9S423,59.2,423,66.7c0,6.3-3,10.6-7.6,11.8c1.2,1.7,3.2,2.6,5.3,2.5c0.9,0,1.7-0.1,2.5-0.4L423.9,83.9z
			 M412.5,74.9c3.5,0,5.6-3.1,5.6-8.3c0-5-2.2-8-5.6-8s-5.6,3-5.6,8C406.9,71.8,409.1,74.9,412.5,74.9L412.5,74.9z"/>
		<path class="st3" d="M435.9,385.4h-14.8l-7.7-9.3l-7.4,9.3h-14.7c-4.7,0-8.5,3.8-8.5,8.5v44.6c0,4.7,3.8,8.5,8.5,8.5h44.6
			c4.7,0,8.5-3.8,8.5-8.5v-44.6C444.3,389.1,440.6,385.4,435.9,385.4z"/>
		<path class="st1" d="M416.2,419.6h-7.5l-1.6,6h-4.7l7.4-23.2h5.5l7.5,23.2h-4.9L416.2,419.6z M415.2,416l-0.7-2.5
			c-0.7-2.4-1.3-5.1-2-7.6h-0.1c-0.6,2.5-1.3,5.2-2,7.6l-0.7,2.5H415.2z"/>
		<path class="st4" d="M235,204c-5.7-1.7-7.4-4.3-6.5-10.4s4.7-16,2.1-30s-15.5-21.6-28-21.6s-25.3,7.5-27.9,21.6s1.2,23.9,2.1,30
			s-0.8,8.8-6.5,10.4c0,0,4,3.2,8.5,1c0,0-1.2,1.4-1.2,5.8l25.2,3.5l25.2-3.5c0-4.4-1.2-5.8-1.2-5.8C231,207.2,235,204,235,204z"/>
		<path d="M202.6,215.2h-0.1l-25.2-3.5c-0.5-0.1-0.8-0.5-0.8-0.9c0-1.4,0.1-2.9,0.5-4.3c-2.6,0.4-5.3-0.2-7.4-1.8
			c-0.4-0.3-0.5-0.9-0.2-1.3c0.1-0.2,0.3-0.3,0.5-0.3c5.3-1.5,6.6-3.7,5.9-9.4c-0.2-1.4-0.5-2.9-0.9-4.8c-1.4-6.1-3.2-14.6-1.1-25.6
			c2.9-15.3,17-22.3,28.9-22.3s26,7,28.9,22.3c2.1,11,0.2,19.4-1.1,25.6c-0.4,1.8-0.8,3.4-0.9,4.8c-0.8,5.7,0.6,7.9,5.9,9.4
			c0.3,0.1,0.6,0.4,0.7,0.7c0.1,0.3-0.1,0.7-0.3,0.9c-2.1,1.6-4.8,2.2-7.4,1.8c0.3,1.4,0.5,2.8,0.5,4.3c0,0.5-0.3,0.9-0.8,0.9
			l-25.2,3.5L202.6,215.2z M178.4,210l24.2,3.4l24.2-3.4c-0.1-3.3-1-4.4-1-4.4c-0.3-0.4-0.3-0.8,0-1.2c0.3-0.3,0.8-0.5,1.1-0.3
			c1.8,0.9,4,0.9,5.8,0.1c-4.6-1.9-6-5-5.2-10.8c0.2-1.4,0.6-3,1-4.9c1.3-6,3.1-14.2,1.1-24.8c-2.7-14.3-15.9-20.8-27-20.8
			s-24.3,6.5-27,20.8c-2,10.6-0.2,18.8,1.1,24.8c0.4,1.9,0.8,3.5,1,4.9c0.8,5.8-0.6,8.9-5.2,10.8c1.8,0.8,4,0.8,5.8-0.1
			c0.5-0.2,1,0,1.3,0.4c0.2,0.3,0.1,0.8-0.1,1.1l0,0C179.6,205.6,178.5,206.7,178.4,210z"/>
		<path class="st0" d="M181.4,181.9c-2.3-2-4,0.6-3.8,4.3s2.6,8.3,5.5,7.6C181.9,190,181.3,185.9,181.4,181.9z"/>
		<path d="M182.5,194.7c-0.8,0-1.5-0.3-2.1-0.7c-2.1-1.5-3.3-5-3.5-7.6s0.6-4.9,2-5.6c1.1-0.5,2.3-0.2,3.1,0.6
			c0.2,0.2,0.3,0.4,0.3,0.6c-0.1,4,0.5,7.9,1.7,11.7c0.1,0.2,0.1,0.4-0.1,0.6c-0.1,0.2-0.3,0.3-0.5,0.4
			C183.1,194.6,182.8,194.7,182.5,194.7z M179.8,182c-0.1,0-0.2,0-0.3,0.1c-0.7,0.4-1.3,1.9-1.1,4.1c0.2,2.7,1.5,5.5,2.9,6.5
			c0.2,0.2,0.5,0.3,0.8,0.4c-1-3.5-1.5-7.1-1.5-10.8C180.4,182.1,180.1,182,179.8,182z"/>
		<path class="st0" d="M233.5,335.9c0.3-10.6-0.1-21.2-1.2-31.7l-11.5-64.9l-4.8-25.6c-1,5.5-5.6,9.9-13.3,9.9s-12.2-4.4-13.3-9.9
			l-4.8,25.6L173,304.2c-1.2,10.5-1.6,21.1-1.2,31.7"/>
		<path d="M233.5,336.9L233.5,336.9c-0.5,0-0.9-0.4-0.9-1l0,0c0.3-10.5-0.1-21.1-1.2-31.6l-11.5-64.9l-4.1-22.1
			c-2.2,4.5-7,7.2-13,7.2s-10.8-2.7-13-7.2l-4.1,22.1l-11.7,65c-1.1,10.5-1.5,21-1.2,31.5c0,0.5-0.4,1-0.9,1s-1-0.3-1-0.9
			c0,0,0,0,0-0.1c-0.3-10.6,0.1-21.3,1.2-31.9l11.6-65l4.8-25.7c0.1-0.4,0.5-0.7,0.9-0.8l0,0c0.4,0,0.8,0.3,0.9,0.8
			c1.1,5.7,5.8,9.2,12.3,9.2s11.3-3.5,12.4-9.2c0.1-0.4,0.5-0.8,0.9-0.8l0,0c0.5,0,0.8,0.3,0.9,0.8l4.8,25.7l11.6,64.9
			c1.2,10.6,1.6,21.3,1.3,31.9C234.4,336.5,234,336.9,233.5,336.9L233.5,336.9z"/>
		<path class="st0" d="M202.6,223.6c7.6,0,12.2-4.4,13.3-9.9l-1.7-9.2l-0.2-0.1c-7.4-1.6-15.1-1.6-22.6,0l-0.3,0.1l-1.7,9.2
			C190.4,219.2,195,223.6,202.6,223.6z"/>
		<path d="M202.6,224.5c-7.5,0-12.9-4.1-14.2-10.7c0-0.1,0-0.2,0-0.4l1.7-9.2c0.1-0.4,0.3-0.6,0.7-0.7l0.3-0.1
			c3.8-0.9,7.6-1.3,11.5-1.3c3.9-0.1,7.7,0.4,11.5,1.3l0.2,0.1c0.4,0.1,0.6,0.4,0.7,0.7l1.7,9.2c0,0.1,0,0.2,0,0.4
			C215.6,220.4,210.1,224.5,202.6,224.5z M190.3,213.6c1.1,5.6,5.9,9,12.3,9s11.2-3.4,12.3-9l-1.6-8.5c-3.5-0.8-7.1-1.2-10.7-1.2
			c-3.6-0.1-7.2,0.3-10.7,1.1L190.3,213.6z"/>
		<path class="st0" d="M223.9,183.6c-0.2,6.5-1.9,13.9-7.3,18.8c-6,5.4-10.6,7-14,7s-7.9-1.6-14-7s-7.4-14.1-7.3-21.1
			s3.4-16.4,10.7-19.7c0.1,10.6,9,19.6,19.1,15.4C214.4,180.7,219,183,223.9,183.6z"/>
		<path d="M202.6,210.3c-4.3,0-9.2-2.4-14.6-7.2c-6.5-5.8-7.7-15.1-7.6-21.8c0-7.6,3.9-17.2,11.3-20.6c0.5-0.2,1,0,1.2,0.4
			c0.1,0.1,0.1,0.3,0.1,0.4c0.1,5.6,2.7,10.9,6.9,13.6c3.2,2.2,7.4,2.5,10.9,0.9c0.4-0.1,0.8,0,1.1,0.3c3.2,3.4,7.4,5.6,12.1,6.2
			c0.5,0.1,0.8,0.5,0.8,1c-0.3,8.5-2.9,15.2-7.6,19.4C211.9,207.9,207,210.3,202.6,210.3z M191.2,163.1c-5.9,3.5-8.9,11.6-8.9,18.2
			c-0.1,6.4,1,15,7,20.4c5,4.5,9.5,6.7,13.3,6.7s8.4-2.3,13.4-6.7c5.1-4.6,6.6-11.8,6.9-17.3c-4.6-0.7-8.8-2.9-12-6.2
			c-4,1.5-8.5,1-12.1-1.4C194.4,173.6,191.6,168.6,191.2,163.1z"/>
		<ellipse cx="212.1" cy="186.1" rx="1.7" ry="1.9"/>
		<path d="M202.6,197.9c-0.9,0.1-1.7-0.3-2.4-0.9c-0.2-0.3-0.2-0.7,0.1-0.9s0.7-0.2,0.9,0.1l0,0c0.4,0.3,0.9,0.5,1.4,0.4
			c0.5,0,1-0.1,1.4-0.4c0.2-0.2,0.6-0.2,0.9,0c0.3,0.2,0.3,0.6,0.1,0.9l0,0C204.4,197.6,203.5,197.9,202.6,197.9z"/>
		<path d="M202.6,202.7c-3.2,0-5.8-1.5-5.9-3.5c0-0.3,0.3-0.6,0.6-0.6s0.5,0.2,0.6,0.5c0.1,1.1,1.9,2.3,4.7,2.3s4.6-1.2,4.7-2.3
			c0-0.3,0.3-0.6,0.7-0.6l0,0c0.3,0,0.6,0.3,0.6,0.7l0,0C208.4,201.2,205.9,202.7,202.6,202.7z"/>
		<path d="M202.6,205.8c-1.4,0-2.7-0.5-3.7-1.4c-0.3-0.2-0.3-0.6-0.1-0.9c0.2-0.3,0.6-0.3,0.9-0.1l0.1,0.1c1.6,1.4,4,1.4,5.6,0
			c0.2-0.2,0.6-0.2,0.9,0l0,0c0.2,0.2,0.2,0.6,0,0.9C205.3,205.3,204,205.8,202.6,205.8z"/>
		<path d="M189.2,181c-0.1,0-0.2,0-0.3-0.1c-0.3-0.1-0.4-0.5-0.3-0.8c1.1-2.2,3.8-3.7,5.7-3c0.3,0.1,0.5,0.5,0.4,0.8l0,0
			c-0.1,0.3-0.5,0.5-0.8,0.4l0,0c-1.2-0.4-3.3,0.6-4.1,2.4C189.6,180.9,189.4,181,189.2,181z"/>
		<path class="st5" d="M191.1,204.4c0,0-11.2,3.8-16.9,5.8s-9.8,3.6-12.5,11.9s-8.9,29.9-9.5,41.8c-0.6,11.9,7.7,17.7,15.5,13.5
			c1.7-1,3.4-2.1,4.9-3.4c0,0-1.5,17.4-1.7,33c3.1,1.7,6.4,2.8,9.9,3.3c5.3,0.7,10.9-2.4,12.5-13.9s2.4-51,2.4-51
			C192.2,232,190.6,218.2,191.1,204.4z"/>
		<path d="M182.3,311.2c-0.5,0-1.1,0-1.6-0.1c-3.6-0.5-7-1.7-10.2-3.5c-0.3-0.2-0.5-0.5-0.5-0.8c0.1-12.2,1.1-25.7,1.5-30.9
			c-1.1,0.8-2.2,1.6-3.4,2.2c-3.4,2-7.6,2-10.9,0c-4.1-2.6-6.3-7.9-6-14.3c0.6-11.8,6.7-33.4,9.5-42.1c2.8-8.4,6.8-10.3,13.1-12.5
			c5.7-2,16.9-5.8,16.9-5.8c0.5-0.2,1,0.1,1.2,0.6c0,0.1,0.1,0.2,0,0.4c-0.4,13.7,1.1,27.3,4.6,40.5c0,0.1,0,0.2,0,0.3
			c0,1.6-0.7,39.7-2.4,51.2C193.6,301,191.1,311.2,182.3,311.2z M171.9,306.3c2.8,1.5,5.9,2.5,9,3c6,0.8,10.1-3.9,11.5-13.1
			c1.6-11,2.3-48.2,2.4-50.8c-3.4-12.9-4.9-26.3-4.6-39.7l-15.6,5.4c-5.7,2-9.4,3.6-11.9,11.3c-2.8,8.6-8.8,30-9.4,41.6
			c-0.3,5.7,1.6,10.4,5.1,12.6c2.8,1.7,6.3,1.7,9.1,0c1.7-1,3.3-2.1,4.8-3.4c0.3-0.2,0.7-0.3,1-0.1c0.3,0.2,0.5,0.5,0.5,0.9
			C173.5,274.2,172,291.1,171.9,306.3z"/>
		<path class="st5" d="M214.2,204.4c0,0,11.2,3.8,16.9,5.8s9.8,3.6,12.5,11.9s8.9,29.9,9.5,41.8c0.6,11.9-6.3,18.2-15.2,15.7
			c-3.2-1.1-5-2-5-2s1.3,13.6,1.4,29.2c-3.1,1.7-6.4,2.8-9.9,3.3c-5.3,0.7-10.8-2.4-12.5-13.9s-2.4-51-2.4-51
			C213.1,232,214.6,218.2,214.2,204.4z"/>
		<path d="M223.1,311.2c-3.8,0-10.3-2-12.1-14.8c-1.7-11.5-2.4-49.5-2.4-51.2c0-0.1,0-0.2,0-0.3c3.5-13.2,5-26.9,4.6-40.6
			c0-0.3,0.1-0.6,0.4-0.8c0.2-0.2,0.6-0.2,0.9-0.1c0,0,11.2,3.8,16.9,5.8c6.3,2.2,10.3,4.1,13.1,12.5c2.8,8.6,8.9,30.3,9.5,42.1
			c0.4,6.6-1.5,11.9-5.2,14.8c-3,2.4-6.9,3-11.1,1.9c-1.6-0.5-2.8-1-3.7-1.4c0.3,4,1.1,15.3,1.3,27.7c0,0.3-0.2,0.7-0.5,0.8
			c-3.2,1.7-6.6,2.9-10.2,3.5C224.1,311.2,223.6,311.2,223.1,311.2z M210.5,245.4c0,2.6,0.8,39.8,2.4,50.8
			c1.3,9.2,5.4,13.9,11.5,13.1c3.1-0.5,6.2-1.5,9-3c-0.2-15.1-1.4-28.4-1.4-28.5c0-0.3,0.1-0.7,0.4-0.9c0.3-0.2,0.6-0.2,0.9-0.1
			c0,0,1.8,0.8,4.9,1.9c3.6,1,6.9,0.5,9.4-1.5c3.2-2.6,4.8-7.3,4.5-13.2c-0.6-11.6-6.6-33-9.4-41.6c-2.5-7.7-6.2-9.3-11.9-11.3
			c-4.5-1.6-12.5-4.3-15.6-5.4C215.4,219.1,213.9,232.4,210.5,245.4L210.5,245.4z"/>
		<path class="st0" d="M179,171h-0.1c-0.3-0.1-0.6-0.4-0.5-0.7c2-10.3,7.8-15.1,8-15.2c0.3-0.2,0.7-0.2,0.9,0.1s0.2,0.7-0.1,0.9l0,0
			c-0.1,0-5.7,4.7-7.6,14.5C179.5,170.8,179.3,171,179,171z"/>
		<path class="st0" d="M221.5,173c-0.3,0-0.6-0.2-0.6-0.5c-1.7-12.9-9.2-18.1-9.3-18.2c-0.2-0.3-0.2-0.7,0.1-0.9
			c0.2-0.1,0.4-0.2,0.6-0.1c0.3,0.2,8,5.6,9.9,19.1C222.2,172.7,222,173,221.5,173L221.5,173z"/>
		<path class="st0" d="M223.9,181.8c0,0.5,0,1.1,0,1.8l0,0c-0.1,3.5-0.7,6.9-1.8,10.2c3,0.7,5.2-3.9,5.5-7.6
			S226.2,179.9,223.9,181.8z"/>
		<path d="M222.8,194.7c-0.3,0-0.6,0-0.8-0.1s-0.4-0.2-0.5-0.4s-0.1-0.4,0-0.6c1.1-3.2,1.7-6.6,1.7-10c0-0.6,0-1.2,0-1.7
			c0-0.2,0.1-0.5,0.3-0.6c0.8-0.8,2-1.1,3.1-0.6c1.4,0.7,2.2,2.9,2,5.6s-1.4,6.1-3.5,7.6C224.3,194.4,223.5,194.6,222.8,194.7z
			 M224.7,182.2c0,0.5,0,0.9,0,1.4c-0.1,3.2-0.6,6.3-1.5,9.4c0.3-0.1,0.6-0.2,0.8-0.4c1.4-1,2.7-3.8,2.9-6.5
			c0.2-2.2-0.4-3.7-1.1-4.1C225.4,181.9,225,182,224.7,182.2z"/>
		<path d="M172.6,274.9c-0.3,0-0.6-0.1-0.8-0.4c-0.3-0.4-0.2-1,0.2-1.3l0,0c3.1-2.4,5.9-5,8.6-7.8c-1.6-0.2-3-1-3.9-2.3
			c-2.9-3.4-4.1-10.4-2.3-16.5L158,260.5c-0.4,0.4-1,0.4-1.3,0s-0.4-1,0-1.3l0.1-0.1l19.3-16.4c0.4-0.3,1-0.3,1.3,0.1
			c0.3,0.3,0.3,0.7,0.1,1.1c-3.3,5.9-2.4,14.5,0.6,18.1c1,1.5,3,2,4.6,1.3c0.5-0.2,1,0.1,1.2,0.6c0.1,0.3,0,0.6-0.2,0.9
			c-3.2,3.6-6.8,7-10.6,9.9C173,274.8,172.8,274.9,172.6,274.9z"/>
		<path class="st0" d="M203.6,227.6c-0.1-0.7-0.2-2.2-0.9-2.5s-3.6-1.1-5-1.6c-1.5-0.5-3.2-0.4-4.6,0.3c-1.6,0.7-8.2,4.8-9.3,5.9
			s-4,10.6-4,10.6c-1,1.1-2,2-3.1,2.9c-2.7,5.3-3,11.5-0.6,17l8.4-10.1l1.8-2.1c2.8,0.2,5.6-0.9,7.5-2.9l10-14.1
			C203.7,231.1,203.7,228.3,203.6,227.6z"/>
		<path d="M176,261.3h-0.1c-0.3,0-0.6-0.2-0.7-0.5c-2.1-4.4-2.6-12.2,0.7-17.9c0.1-0.1,0.1-0.2,0.2-0.3c1-0.8,2-1.7,2.9-2.7
			c0.8-2.5,3-9.6,4.1-10.8s8-5.4,9.6-6.2s3.5-0.9,5.3-0.4l1.4,0.4c1.8,0.6,3.2,0.9,3.7,1.2c1.1,0.5,1.3,2,1.5,3v0.2
			c0.1,0.8,0.2,3.4,0.2,3.6c0,0.2,0,0.4-0.2,0.6l-10,14.1l-0.1,0.1c-2,2.1-4.8,3.3-7.8,3.3l0,0l-10,11.9
			C176.5,261.2,176.3,261.3,176,261.3z M177.4,244c-2.3,4.5-2.7,9.8-1.1,14.6l9.2-11c0.2-0.2,0.5-0.3,0.8-0.3c2.5,0.2,5-0.8,6.7-2.6
			l9.8-13.8c0-0.9-0.1-2.6-0.2-3.1l0,0v-0.3c0-0.5-0.2-1-0.4-1.5c-0.4-0.2-2.2-0.7-3.5-1.1l-1.4-0.4c-1.3-0.4-2.7-0.3-3.9,0.3
			c-1.7,0.8-8.1,4.8-9,5.7c-0.6,0.6-2.4,5.8-3.8,10.3c0,0.1-0.1,0.2-0.1,0.3C179.6,242.1,178.5,243.1,177.4,244z"/>
		<path class="st6" d="M183,264.1c2.8-2.7,2.6-9.4,1.4-13.8l-8.4,10.1l0,0C177.5,263.5,179.9,265.3,183,264.1z"/>
		<path d="M181.2,265.4c-2.4,0-4.6-1.6-6-4.6c-0.2-0.3-0.1-0.7,0.1-1l8.4-10.1c0.2-0.3,0.6-0.4,0.9-0.3c0.3,0.1,0.6,0.3,0.7,0.7
			c1.1,4.2,1.6,11.5-1.7,14.7c-0.1,0.1-0.2,0.2-0.3,0.2C182.7,265.3,181.9,265.4,181.2,265.4z M177.1,260.5c0.9,1.6,2.6,3.7,5.4,2.8
			c1.9-2,2.2-6.8,1.4-10.9L177.1,260.5z"/>
		<path d="M232.9,278.5c-0.1,0-0.2,0-0.3-0.1c-3.6-1.5-12.2-5-12.3-5.1c-0.3-0.1-0.5-0.5-0.5-0.8c0-0.4,0.3-0.6,0.7-0.7
			c2.6-0.4,4.2-2.5,5-4.1c2.2-4.3,2.3-9.4,0.4-13.9c-0.1-0.3-0.1-0.7,0.1-0.9c0.2-0.2,0.6-0.3,0.9-0.2l16.9,7.5
			c0.4,0.2,0.6,0.6,0.4,1c-0.2,0.4-0.6,0.6-1,0.4l-15.2-6.7c1.3,4.5,0.9,9.3-1.1,13.5c-0.9,1.8-2.3,3.3-4.1,4.3
			c2.8,1.1,7.9,3.2,10.4,4.3c0.4,0.2,0.6,0.6,0.4,1C233.5,278.3,233.2,278.5,232.9,278.5L232.9,278.5z"/>
		<path class="st6" d="M226.8,266.8l-5-2.2c-0.6,0-1.7,0-2.9,0c-0.2,2.4-0.5,7.2,1.8,8C223.4,272.2,225.6,269.9,226.8,266.8z"/>
		<path d="M220.6,273.5c-0.1,0-0.2,0-0.3-0.1c-2.6-1-2.8-5.4-2.4-9c0-0.5,0.4-0.8,0.9-0.8h0.4c1.1,0,2,0,2.6,0c0.1,0,0.2,0,0.3,0.1
			l5,2.2c0.5,0.2,0.7,0.8,0.5,1.2C226.1,270.8,223.7,273.1,220.6,273.5L220.6,273.5z M219.7,265.5c-0.2,3.2,0.1,5.5,1,6.1
			c2.5-0.5,4-2.7,4.8-4.3l-4-1.8C221.1,265.5,220.4,265.5,219.7,265.5L219.7,265.5z"/>
		<path d="M172.4,247.9L172.4,247.9c-0.5,0-0.9-0.4-0.9-1l0,0c0-0.6,0.4-13.8,3.2-21.9c0.2-0.5,0.7-0.8,1.2-0.6s0.8,0.7,0.6,1.2
			c-2.8,7.8-3.1,21.2-3.1,21.3C173.4,247.4,173,247.9,172.4,247.9C172.5,247.9,172.5,247.9,172.4,247.9z"/>
		<path d="M232.8,257L232.8,257c-0.5,0-0.9-0.4-0.9-1l0,0c0-0.1,0.2-6,0-9c0-0.4-0.1-0.9-0.1-1.6c-0.2-4.2-0.6-12.9-3.1-19.8
			c-0.2-0.5,0-1,0.5-1.2s1,0,1.2,0.5v0.1c2.5,7.1,3,16,3.2,20.3c0,0.6,0.1,1.2,0.1,1.6c0.2,3.1,0,9,0,9.2
			C233.7,256.6,233.3,257,232.8,257z"/>
		<ellipse cx="193.1" cy="186.1" rx="1.7" ry="1.9"/>
		<path d="M189.3,238.7c-0.2,0-0.3-0.1-0.4-0.2l-5.3-5.2c-0.2-0.2-0.2-0.6,0-0.9c0.2-0.2,0.6-0.2,0.9,0l5.3,5.2
			c0.2,0.2,0.3,0.6,0,0.9l0,0C189.6,238.7,189.5,238.7,189.3,238.7z"/>
		<path d="M191.3,234.3c-0.2,0-0.3-0.1-0.4-0.2L187,230c-0.2-0.2-0.2-0.6,0-0.9l0,0c0.2-0.2,0.6-0.2,0.9,0l3.9,4.1
			c0.2,0.2,0.3,0.6,0,0.9l0,0C191.6,234.2,191.5,234.3,191.3,234.3z"/>
		<path d="M194,231c-0.2,0-0.4-0.1-0.5-0.2l-3-3.6c-0.2-0.3-0.2-0.7,0.1-0.9l0,0c0.3-0.2,0.7-0.2,0.9,0.1l0,0l3,3.6
			c0.2,0.3,0.2,0.7-0.1,0.9C194.3,230.9,194.1,231,194,231z"/>
		<path d="M199,230.2c-0.2,0-0.3-0.1-0.5-0.2l-4-4.5c-0.2-0.3-0.2-0.7,0.1-0.9l0,0c0.3-0.2,0.6-0.2,0.9,0l0,0l4,4.5
			c0.2,0.2,0.2,0.6,0,0.9C199.3,230.2,199.2,230.2,199,230.2z"/>
		<path class="st7" d="M211.8,228.7h-18.4c-1.6,0-3.1,1.2-2.9,4.2l2.3,27.2c0,1.3,1.1,2.4,2.5,2.4h14.6c1.3,0,2.4-1.1,2.5-2.4
			l2.3-27.2C214.9,229.9,213.4,228.7,211.8,228.7z"/>
		<path d="M209.9,263.5h-14.5c-1.8,0-3.3-1.4-3.4-3.2l-2.3-27.2c-0.2-1.4,0.2-2.9,1.1-4.1c0.7-0.7,1.7-1.2,2.7-1.1h18.4
			c1,0,2,0.4,2.7,1.1c0.9,1.1,1.3,2.6,1.1,4.1l-2.3,27.2C213.2,262.1,211.7,263.5,209.9,263.5z M193.4,229.6c-0.5,0-1,0.2-1.3,0.6
			c-0.6,0.8-0.8,1.7-0.6,2.6l2.3,27.2c0,0.9,0.7,1.5,1.5,1.5l0,0h14.5c0.9,0,1.6-0.7,1.6-1.5l0,0l2.3-27.2c0.2-0.9,0-1.9-0.6-2.6
			c-0.3-0.4-0.8-0.6-1.3-0.6L193.4,229.6L193.4,229.6z"/>
		<path d="M211.8,231.9h-18.4c-0.3,0-0.6-0.3-0.6-0.6s0.3-0.6,0.6-0.6h18.4c0.3,0,0.6,0.3,0.6,0.6
			C212.4,231.6,212.1,231.9,211.8,231.9z"/>
		<path d="M194.2,237c-1.2,0-2.1-0.9-2.1-2.1c0-1.2,0.9-2.1,2.1-2.1c1.2,0,2.1,0.9,2.1,2.1l0,0C196.3,236.1,195.4,237,194.2,237z
			 M194.2,234.1c-0.5,0-0.8,0.4-0.8,0.8c0,0.5,0.4,0.8,0.8,0.8c0.5,0,0.8-0.4,0.8-0.8l0,0C195.1,234.4,194.7,234,194.2,234.1
			C194.3,234,194.2,234,194.2,234.1L194.2,234.1z"/>
		<path class="st0" d="M226.6,253.4l-3.1-1.4c0,0-2.5-7.6-3.6-9.1s-3.9-4.7-4.8-6s-3.2,1.1-1.9,4.2s2.8,4.8,3,7.1
			c-2.3-0.4-4.6-1.1-6.7-2c-4.4-1.7-7.4-3.1-9.2-3.9s-3.3,1.3-2.4,3.1c-2.8-0.6-3.8,1.9-1.8,3.8c-1.3,0.9-1.5,3.1,1.7,4.8
			c-1.5-0.1-1.9,2-0.1,3.6c1.8,1.6,8,4.9,11.5,6.2s10.4,0.6,12.5,0.8l5,2.2C228.5,262.5,228.5,257.7,226.6,253.4z"/>
		<path d="M226.8,267.8c-0.1,0-0.3,0-0.4-0.1l-4.9-2.2c-0.5,0-1.3,0-2.3,0c-3,0.1-7.6,0.2-10.4-0.8c-3.5-1.3-9.9-4.7-11.8-6.3
			c-1.2-0.9-1.7-2.4-1.3-3.9c0.1-0.2,0.1-0.3,0.3-0.5c-0.9-0.7-1.6-1.7-1.7-2.8c-0.1-0.7,0.1-1.4,0.5-1.9c-0.7-1-0.9-2.3-0.4-3.4
			c0.5-0.8,1.3-1.3,2.2-1.4c-0.1-0.9,0.3-1.8,0.9-2.4c0.8-0.9,2.1-1.1,3.1-0.6c2.7,1.3,5.8,2.6,9.1,3.9c1.7,0.6,3.4,1.2,5.2,1.6
			c-0.3-0.9-0.7-1.8-1.2-2.6c-0.4-0.8-0.9-1.8-1.4-2.9c-1.1-2.4-0.2-4.8,1.1-5.6c0.8-0.5,1.8-0.3,2.4,0.4c0.4,0.5,1.1,1.4,1.9,2.4
			c1.1,1.3,2.3,2.7,2.9,3.6c1,1.4,3,7.3,3.6,9l2.7,1.2c0.2,0.1,0.4,0.3,0.4,0.4c1.9,4.5,2,9.6,0.2,14.1c-0.1,0.2-0.3,0.4-0.5,0.5
			C227,267.8,226.9,267.8,226.8,267.8z M221,263.6h0.8c0.1,0,0.2,0,0.3,0.1l4.1,1.8c1.2-3.7,1.1-7.8-0.3-11.4l-2.7-1.3
			c-0.2-0.1-0.4-0.3-0.5-0.6c-1-3-2.8-7.8-3.5-8.9c-0.6-0.8-1.8-2.3-2.8-3.5c-0.8-0.9-1.5-1.8-1.9-2.4c-0.2,0.1-0.3,0.3-0.4,0.5
			c-0.4,0.9-0.4,1.8,0.1,2.7c0.4,1,0.9,1.9,1.4,2.7c0.9,1.4,1.5,3,1.7,4.6c0,0.3-0.1,0.6-0.3,0.8s-0.5,0.3-0.8,0.2
			c-2.4-0.4-4.7-1.1-7-2c-3.4-1.3-6.5-2.6-9.2-3.9c-0.3-0.2-0.7-0.1-0.9,0.2c-0.4,0.5-0.5,1.1-0.2,1.7c0.2,0.3,0.1,0.7-0.1,1
			c-0.2,0.3-0.6,0.4-0.9,0.4c-0.8-0.2-1.4,0-1.6,0.4s-0.1,1.1,0.6,1.8c0.2,0.2,0.3,0.5,0.3,0.7c0,0.3-0.2,0.5-0.4,0.7
			c-0.3,0.2-0.5,0.6-0.5,1c0.1,0.7,0.8,1.5,2.1,2.2c0.5,0.2,0.6,0.8,0.4,1.3c-0.2,0.3-0.5,0.5-0.9,0.5c-0.2,0-0.2,0.1-0.3,0.2
			c-0.1,0.3,0,1.1,0.8,1.8c3.5,2.4,7.3,4.4,11.2,6c2.4,0.9,6.8,0.8,9.7,0.7H221z"/>
		<path d="M210.3,251.6c-0.1,0-0.1,0-0.2,0l-0.5-0.2c-3.6-1.4-9.6-3.7-12-5.4c-0.3-0.2-0.3-0.6-0.2-0.9c0.2-0.3,0.6-0.4,0.9-0.2l0,0
			c2.3,1.6,8.4,4,11.7,5.2l0.5,0.2c0.3,0.1,0.5,0.5,0.3,0.8C210.8,251.4,210.5,251.6,210.3,251.6L210.3,251.6z"/>
		<path d="M209.4,255.8c-0.1,0-0.1,0-0.2,0c-4.6-1.6-9.1-3.6-13.4-5.9c-0.3-0.2-0.4-0.5-0.3-0.8c0.2-0.3,0.5-0.4,0.8-0.3
			c0,0,0.1,0,0.1,0.1c4.2,2.3,8.6,4.2,13.2,5.8c0.3,0.1,0.5,0.5,0.4,0.8C209.9,255.7,209.7,255.8,209.4,255.8L209.4,255.8z"/>
		<path d="M208.9,259.9c-0.1,0-0.1,0-0.2,0c-3.9-1.4-7.6-3.2-11.2-5.3c-0.3-0.2-0.4-0.6-0.2-0.9c0.2-0.3,0.6-0.4,0.9-0.2
			c3.5,2,7.2,3.8,11,5.2c0.3,0.1,0.5,0.5,0.4,0.8C209.4,259.8,209.2,260,208.9,259.9L208.9,259.9z"/>
		<polyline class="st5" points="677.5,321.6 676.8,290.2 629,289.1 624.5,321.6 		"/>
		<path class="st0" d="M658.2,198.4l-19.2,0.1c0.2,2.7,0.3,5.4,0.1,8.1c2.4,3.7,5.8,6.6,9.7,8.6c3.7-2.3,6.9-5.2,9.4-8.7V198.4z"/>
		<path d="M648.8,216c-0.1,0-0.2,0-0.3-0.1c-4-2.1-7.5-5.1-10-8.9c-0.1-0.1-0.1-0.3-0.1-0.5c0.2-2.7,0.1-5.3-0.1-8
			c0-0.2,0-0.4,0.2-0.6c0.1-0.1,0.3-0.2,0.5-0.2l19.2-0.1l0,0c0.2,0,0.4,0.1,0.5,0.2c0.1,0.1,0.2,0.3,0.2,0.5v8.1
			c0,0.1,0,0.3-0.1,0.4c-2.6,3.6-5.9,6.6-9.6,8.9C649.1,215.9,649,216,648.8,216z M639.8,206.4c2.3,3.3,5.4,6.1,8.9,8
			c3.4-2.2,6.3-4.9,8.7-8.1v-7.2l-17.7,0.1C640,201.6,640,204.1,639.8,206.4L639.8,206.4z"/>
		<polyline class="st8" points="750.6,321.6 751.9,305.3 726.8,275 718.1,275.3 701.2,304.9 701,321.6 		"/>
		<path d="M725.2,322.3c-0.4,0-0.7-0.3-0.7-0.7v-10.2l-6.9-4.1c-0.3-0.2-0.5-0.7-0.2-1c0.2-0.3,0.6-0.5,1-0.3l0,0l7.3,4.3
			c0.2,0.1,0.4,0.4,0.4,0.6v10.6C725.9,322,725.6,322.3,725.2,322.3L725.2,322.3z"/>
		<path class="st0" d="M654,177.8c2.3-1.2,4.1-3.3,4.9-5.8c-4.2,5.3-13.2,5.6-18.1,6.4s-7,5.9-7,5.9c0.1,4,0.6,7.9,1.3,11.8
			c1,4.1,6.2,9.3,13.8,9.3s12.8-5.2,13.8-9.3c0.7-3.9,1.1-7.9,1.3-11.8c-1.5-2.5-2.7-5.2-3.5-8C658.4,177.5,656.2,178,654,177.8z"/>
		<path d="M648.8,206.2c-3.5,0-7-1.1-9.8-3.3c-2.2-1.6-3.9-3.9-4.7-6.6c-0.7-4-1.2-8-1.3-12c0-0.1,0-0.2,0-0.3
			c0.1-0.2,2.3-5.6,7.5-6.4c0.7-0.1,1.5-0.2,2.4-0.3c5-0.6,11.8-1.5,15.2-5.8c0.2-0.3,0.6-0.4,0.9-0.2c0.3,0.2,0.5,0.5,0.4,0.8
			c-0.6,1.8-1.6,3.5-3,4.8c1.2-0.1,2.4-0.6,3.4-1.2c0.2-0.1,0.4-0.2,0.7-0.1c0.2,0.1,0.4,0.3,0.5,0.5c0.8,2.7,2,5.3,3.4,7.8
			c0.1,0.1,0.1,0.3,0.1,0.4c-0.1,4-0.6,8-1.3,12C662.2,201.1,656.3,206.2,648.8,206.2z M634.5,184.5c0.1,3.9,0.6,7.7,1.2,11.5
			c0.8,3.5,5.6,8.7,13.1,8.7s12.2-5.2,13.1-8.7c0.7-3.8,1.1-7.6,1.2-11.5c-1.3-2.2-2.4-4.6-3.2-7.1c-1.9,0.9-3.9,1.2-6,1.1
			c-0.3,0-0.6-0.3-0.6-0.6c-0.1-0.3,0.1-0.6,0.4-0.8c0.9-0.5,1.8-1.1,2.5-1.9c-3.9,2.4-9,3-13,3.5c-0.8,0.1-1.6,0.2-2.3,0.3
			C636.9,179.8,634.9,183.7,634.5,184.5z"/>
		<path class="st0" d="M631.2,191c0.3,2.7,2,5.4,3.8,4.5c-0.5-2.6-0.8-5.3-0.9-7.9C632.4,186.6,630.9,188.3,631.2,191z"/>
		<path d="M634.2,196.4c-0.4,0-0.8-0.1-1.1-0.3c-1.3-0.7-2.4-2.8-2.7-5l0,0c-0.2-1.9,0.4-3.5,1.5-4.2c0.8-0.5,1.7-0.4,2.4,0.1
			c0.2,0.1,0.3,0.3,0.3,0.5c0.2,2.6,0.5,5.2,0.9,7.8c0.1,0.3-0.1,0.6-0.4,0.8C634.9,196.4,634.6,196.5,634.2,196.4z M631.9,190.9
			c0.2,1.8,1,3.4,1.9,3.9c0.1,0,0.2,0.1,0.3,0.1c-0.4-2.2-0.6-4.8-0.8-6.9c-0.2-0.1-0.4-0.1-0.6,0.1
			C632.2,188.4,631.7,189.5,631.9,190.9z"/>
		<path class="st0" d="M663.7,187.6c-0.2,2.7-0.5,5.3-1,7.9c1.8,0.9,3.5-1.8,3.8-4.5S665.2,186.6,663.7,187.6z"/>
		<path d="M663.4,196.4c-0.3,0-0.7-0.1-1-0.2c-0.3-0.1-0.5-0.5-0.4-0.8c0.5-2.6,0.8-5.2,0.9-7.8c0-0.2,0.1-0.4,0.3-0.5
			c0.7-0.5,1.7-0.6,2.4-0.1c1.1,0.7,1.7,2.3,1.5,4.2s-1.1,4.2-2.7,5C664.2,196.3,663.8,196.4,663.4,196.4z M664.4,188.1
			c-0.2,2.1-0.4,4.7-0.8,6.9c0.1,0,0.2-0.1,0.3-0.1c0.9-0.5,1.7-2.2,1.9-3.9c0.2-1.5-0.3-2.5-0.8-2.8
			C664.8,188,664.6,188,664.4,188.1L664.4,188.1z"/>
		<path class="st4" d="M661.4,166.2c-2.8-6.6-8.6-7.5-16.9-5.2s-14.6,10.5-12.9,15.3c1,2.6,1.7,5.3,2.2,8.1c0,0,2.1-5.2,7-5.9
			s13.9-1.1,18.1-6.4c-0.8,2.5-2.5,4.6-4.9,5.8c2.2,0.2,4.4-0.3,6.3-1.4c0.8,2.8,2,5.5,3.5,8c0,0,1.5-4.4,2.6-7.7
			S666.3,166.1,661.4,166.2z"/>
		<path d="M663.9,185.1c-0.2,0-0.5-0.1-0.6-0.3c-1.4-2.3-2.5-4.7-3.3-7.3c-1.9,0.9-3.9,1.2-6,1.1c-0.3,0-0.6-0.3-0.6-0.6
			c-0.1-0.3,0.1-0.6,0.4-0.8c0.9-0.5,1.8-1.1,2.5-1.9c-3.9,2.4-9,3-13,3.5c-0.8,0.1-1.6,0.2-2.3,0.3c-4.4,0.7-6.4,5.4-6.4,5.5
			c-0.1,0.3-0.4,0.5-0.8,0.4c-0.3,0-0.6-0.3-0.6-0.6c-0.5-2.7-1.3-5.3-2.2-7.9c-0.6-1.8-0.3-3.9,0.9-6.3c2.7-4.8,7.2-8.4,12.5-9.9
			c9.1-2.6,14.7-1,17.6,5.2c1.5,0.1,3,0.9,3.8,2.2c1.8,2.7,2.3,6.1,1.4,9.2c-1.1,3.3-2.5,7.6-2.6,7.7
			C664.4,184.9,664.2,185,663.9,185.1L663.9,185.1z M660.3,175.7c0.1,0,0.2,0,0.2,0c0.2,0.1,0.4,0.3,0.5,0.5
			c0.7,2.2,1.6,4.4,2.7,6.4c0.5-1.6,1.4-4.1,2-6.2c0.7-2.7,0.3-5.6-1.2-7.9c-0.7-1-1.9-1.6-3.1-1.6c-0.3,0-0.6-0.2-0.7-0.4
			c-2.5-5.8-7.4-7.2-16-4.8c-4.9,1.5-9.1,4.8-11.6,9.2c-0.9,1.5-1.2,3.4-0.8,5.1c0.7,2,1.4,4.1,1.9,6.2c1.4-2.4,3.8-4,6.6-4.6
			c0.7-0.1,1.5-0.2,2.4-0.3c5-0.6,11.8-1.5,15.2-5.8c0.2-0.3,0.6-0.4,0.9-0.2c0.3,0.2,0.5,0.5,0.4,0.8c-0.6,1.8-1.6,3.5-3,4.8
			c1.2-0.1,2.4-0.6,3.4-1.2C660.1,175.7,660.2,175.7,660.3,175.7z"/>
		<path class="st9" d="M639.1,206.7c0,0-9.4,4.1-13.1,5.6s-6.4,3.8-7.4,9.5s-4.4,67.7-4.4,67.7l20.9,3.8l8.5-64.5
			C641,221.7,639.4,214.2,639.1,206.7z"/>
		<path d="M635.2,293.9H635l-20.9-3.8c-0.4-0.1-0.6-0.4-0.6-0.8c0.1-2.5,3.4-62.1,4.4-67.7c1.1-6.6,4.6-8.8,7.8-10.1
			c3.7-1.5,13-5.5,13.1-5.5c0.2-0.1,0.5-0.1,0.7,0.1c0.2,0.1,0.3,0.4,0.3,0.6c0.3,7.5,1.9,14.8,4.5,21.8c0,0.1,0,0.2,0,0.3
			l-8.5,64.4c0,0.2-0.1,0.4-0.3,0.5C635.4,293.9,635.3,293.9,635.2,293.9z M615,288.8l19.5,3.6l8.5-63.5c-2.5-6.8-4.1-13.9-4.5-21.1
			c-2.5,1.1-9.2,3.9-12.2,5.1s-5.9,3.1-6.9,9C618.5,227.1,615.4,282.2,615,288.8z"/>
		<path class="st9" d="M676,220.4c0-3.1-1.6-5.9-5.2-7.8s-12.6-6.1-12.6-6.1c-0.8,7.5-2.5,14.9-5,22l6.1,65.9l0.7,7.1
			c6.8,0.6,17.6-0.6,17.6-0.6S676,223.5,676,220.4z"/>
		<path d="M664.4,302.4c-1.6,0-3.2,0-4.5-0.2c-0.3,0-0.6-0.3-0.7-0.6l-6.7-73c0-0.1,0-0.2,0-0.3c2.5-7,4.2-14.4,5-21.8
			c0-0.2,0.2-0.4,0.4-0.6c0.2-0.1,0.5-0.1,0.7,0c0.1,0,9,4.2,12.6,6.1s5.6,4.9,5.6,8.4c0,3.1,1.5,79.6,1.5,80.4
			c0,0.4-0.3,0.7-0.6,0.7C673.2,302.1,668.8,302.4,664.4,302.4z M660.6,300.9c5.4,0.2,10.8,0,16.2-0.6c-0.2-7.5-1.5-76.9-1.5-79.8
			s-1.7-5.5-4.8-7.1c-2.9-1.5-9.3-4.5-11.7-5.6c-0.9,7.2-2.5,14.2-4.9,21L660.6,300.9z"/>
		<path class="st0" d="M653.2,228.5c2.5-7.1,4.2-14.5,5-22c-2.5,3.5-5.7,6.4-9.4,8.7c-3.9-2-7.3-5-9.7-8.6c0.3,7.6,1.9,15,4.6,22.1
			l-8.5,64.4c4.5,2.4,16.3,3.1,24.1,1.2L653.2,228.5z"/>
		<path d="M649,296.2c-5.7,0-11.3-0.8-14.2-2.4c-0.3-0.1-0.4-0.4-0.4-0.7l8.6-64.3c-2.7-7.1-4.3-14.6-4.6-22.2
			c0-0.4,0.3-0.7,0.8-0.7c0.2,0,0.5,0.1,0.6,0.3c2.3,3.4,5.4,6.2,9.1,8.2c3.4-2.2,6.4-5,8.8-8.3c0.2-0.3,0.7-0.4,1-0.2
			c0.2,0.1,0.3,0.4,0.3,0.7c-0.8,7.5-2.5,14.9-5,22l6,65.7c0,0.4-0.2,0.7-0.5,0.8C656,295.9,652.5,296.2,649,296.2z M636,292.8
			c4.6,2.1,15.3,2.6,22.5,1.1l-6-65.3c0-0.1,0-0.2,0-0.3c2.2-6.2,3.8-12.6,4.7-19.2c-2.3,2.7-5,5-8,6.8c-0.2,0.1-0.5,0.1-0.7,0
			c-3.3-1.7-6.2-4-8.5-6.9c0.6,6.7,2.1,13.2,4.4,19.5c0,0.1,0,0.2,0,0.3L636,292.8z"/>
		<path d="M643.1,220.7c-0.1,0-0.2,0-0.3-0.1c-0.2-0.2-0.2-0.5,0-0.7l3.5-3.7c0.2-0.2,0.5-0.2,0.7,0s0.2,0.5,0,0.7l0,0l-3.5,3.7
			C643.3,220.6,643.2,220.7,643.1,220.7z"/>
		<path d="M654,220.7c-0.1,0-0.3-0.1-0.4-0.2l-3.2-3.6c-0.2-0.2-0.1-0.5,0-0.7c0.2-0.2,0.5-0.2,0.7,0l0,0l3.2,3.6
			c0.2,0.2,0.2,0.5,0,0.7C654.3,220.7,654.1,220.7,654,220.7z"/>
		<circle class="st10" cx="648.8" cy="219.1" r="1"/>
		<circle class="st10" cx="648.8" cy="240.2" r="1"/>
		<circle class="st10" cx="648.8" cy="261.2" r="1"/>
		<circle class="st10" cx="648.8" cy="282.2" r="1"/>
		<path d="M641.4,228.2c-0.1,0-0.2,0-0.2-0.1l-6.3-3.7c-0.1-0.1-0.2-0.2-0.2-0.3s0-0.3,0.1-0.4l2.2-3.6l-6.3-0.4
			c-0.2,0-0.3-0.1-0.4-0.2c-0.1-0.1-0.1-0.3,0-0.5l4.7-8c0.1-0.2,0.4-0.3,0.6-0.2c0.2,0.1,0.3,0.4,0.2,0.6l0,0l-4.3,7.3l6.4,0.4
			c0.3,0,0.5,0.2,0.4,0.5c0,0.1,0,0.2-0.1,0.2l-2.4,3.9l5.9,3.5c0.2,0.1,0.3,0.4,0.2,0.7C641.7,228.1,641.5,228.2,641.4,228.2
			L641.4,228.2z"/>
		<path d="M656.1,228.7c-0.2,0-0.3-0.1-0.4-0.3c-0.1-0.2,0-0.5,0.2-0.6l0,0l7.2-3.8l-3.5-3.5c-0.1-0.1-0.2-0.3-0.1-0.5
			c0.1-0.2,0.2-0.3,0.4-0.3l6.8-1.4l-4.9-7.3c-0.1-0.2-0.1-0.5,0.1-0.7c0.2-0.1,0.5-0.1,0.7,0.1l0,0l5.3,7.9c0.1,0.1,0.1,0.3,0,0.4
			c-0.1,0.1-0.2,0.3-0.3,0.3l-6.6,1.3l3.3,3.3c0.2,0.2,0.2,0.5,0,0.7l-0.1,0.1l-7.8,4C656.2,228.6,656.2,228.7,656.1,228.7z"/>
		<path d="M646.7,317.3c-0.3,0-0.5-0.2-0.5-0.5v-17.1c0-0.3,0.2-0.5,0.5-0.5s0.5,0.2,0.5,0.5l0,0v17.1
			C647.2,317,647,317.3,646.7,317.3L646.7,317.3z"/>
		<path d="M650.8,317.3c-0.3,0-0.5-0.2-0.5-0.5v-17.1c0-0.3,0.2-0.5,0.5-0.5s0.5,0.2,0.5,0.5l0,0v17.1
			C651.3,317,651.1,317.3,650.8,317.3C650.9,317.3,650.9,317.3,650.8,317.3z"/>
		<path class="st4" d="M731,170.5l-1.7,4.8l4.6,3c0,1.8-0.3,3.6-0.8,5.3l1.8,0.3c0,0,1.3-2.1,2.6-1.9c0.5,0.1,1,0.2,1.4,0.6
			c3.9-6.6,4.2-14.6,0-17.5c-3.2-8.9-12.9-6.9-18.3-7.8c-3-0.4-5.9-1.5-8.3-3.2c-0.2,1.9,0.3,3.8,1.4,5.3c-2.6-1-4.8-2.6-6.5-4.8
			c-3.4,3.9-4.4,8.2-0.1,11.9c-1.5,0.6-3.2,0.6-4.8,0.1c0.3,3,2.3,5.5,5.1,6.6c0.1-1.1,0.2-1.9,0.2-1.9
			C712.4,167.6,724.3,166.8,731,170.5z"/>
		<path d="M734.8,184.6L734.8,184.6l-1.9-0.3c-0.4-0.1-0.7-0.4-0.6-0.8c0-0.1,0-0.1,0.1-0.2c0.5-1.5,0.8-3.1,0.8-4.7l-4.3-2.8
			c-0.3-0.2-0.4-0.5-0.3-0.9l1.5-4.2c-6.6-3.2-17.3-2.3-22.1,0.9c0,0.3-0.1,0.8-0.1,1.5c0,0.2-0.1,0.4-0.3,0.6
			c-0.2,0.1-0.4,0.1-0.7,0.1c-3-1.2-5.1-3.9-5.5-7.1c0-0.3,0.1-0.5,0.3-0.7s0.5-0.2,0.7-0.1c1,0.3,2.1,0.4,3.1,0.2
			c-3.2-3.5-2.8-7.7,1-12c0.1-0.2,0.4-0.2,0.6-0.2c0.2,0,0.4,0.1,0.5,0.3c1.2,1.5,2.6,2.7,4.3,3.7c-0.5-1.2-0.6-2.6-0.5-3.9
			c0-0.4,0.4-0.7,0.8-0.6c0.1,0,0.3,0.1,0.4,0.2c2.4,1.6,5.1,2.7,8,3c1.3,0.2,2.5,0.2,3.8,0.3c5.2,0.2,12.3,0.5,15.1,7.8
			c4.2,3.1,4.2,11.1,0,18.3c-0.1,0.2-0.3,0.3-0.5,0.3s-0.4,0-0.6-0.1c-0.3-0.2-0.6-0.4-1-0.4c-0.5-0.1-1.4,0.9-1.8,1.6
			C735.4,184.4,735.1,184.6,734.8,184.6z M734,183l0.5,0.1c0.5-0.7,1.7-2.1,3-1.9c0.3,0,0.7,0.1,1,0.3c3.5-6.4,3.5-13.4-0.1-15.9
			c-0.1-0.1-0.2-0.2-0.3-0.4c-2.4-6.6-8.5-6.8-13.8-7c-1.3,0-2.6-0.1-3.9-0.3c-2.7-0.4-5.2-1.2-7.5-2.6c0.1,1.3,0.5,2.5,1.3,3.5
			c0.2,0.3,0.2,0.8-0.1,1c-0.2,0.2-0.5,0.2-0.7,0.1c-2.4-0.9-4.6-2.4-6.3-4.3c-3.1,3.9-3,7.3,0.4,10.3c0.2,0.2,0.3,0.4,0.2,0.7
			c0,0.3-0.2,0.5-0.5,0.5c-1.3,0.5-2.7,0.6-4.1,0.4c0.5,1.9,1.8,3.5,3.5,4.5c0-0.5,0.1-0.8,0.1-0.8c0-0.2,0.1-0.4,0.3-0.5
			c5.1-3.7,17.1-4.9,24.5-0.9c0.3,0.2,0.4,0.5,0.3,0.9l-1.5,4.2l4.1,2.6c0.2,0.1,0.3,0.3,0.3,0.6C734.6,179.8,734.4,181.5,734,183z"
			/>
		<path class="st0" d="M737.4,181.9c-1.3-0.2-2.6,1.9-2.6,1.9l-1.8-0.3c0.6-1.7,0.9-3.5,0.8-5.3l-4.6-3l1.7-4.8
			c-6.7-3.7-18.6-2.9-23.7,0.8c0,0-1.3,13.2,0.6,19.4s5.3,9.3,7.6,10.7v3.1c1.3,1.9,3.1,3.3,5.2,4.1c0,0,6.8-1.4,13.5-9
			c-0.1-2.7,0-5.5,0.4-8.2c2.2,0.7,4.7-1.7,5-5.2S738.7,182.1,737.4,181.9z"/>
		<path d="M720.8,209.3c-0.1,0-0.2,0-0.2,0c-2.3-0.9-4.2-2.4-5.6-4.4c-0.1-0.1-0.1-0.3-0.1-0.4v-2.7c-2.5-1.7-5.7-4.9-7.5-10.9
			c-1.9-6.3-0.7-19.1-0.7-19.7c0-0.2,0.1-0.4,0.3-0.5c5.1-3.7,17.1-4.9,24.5-0.9c0.3,0.2,0.4,0.5,0.3,0.9l-1.5,4.2l4.1,2.6
			c0.2,0.1,0.3,0.3,0.3,0.6c0.1,1.6-0.1,3.2-0.6,4.8l0.5,0.1c0.5-0.7,1.7-2.1,3-1.9c2.2,0.4,3.1,1.9,2.8,5.1c-0.1,2.1-1.2,4-2.8,5.3
			c-0.7,0.5-1.5,0.7-2.3,0.7c-0.3,2.4-0.4,4.9-0.3,7.3c0,0.2-0.1,0.4-0.2,0.5C728,207.7,721.2,209.2,720.8,209.3L720.8,209.3z
			 M716.2,204.3c1.2,1.6,2.7,2.8,4.5,3.6c1.1-0.3,6.9-2.1,12.7-8.5c-0.1-2.7,0-5.4,0.4-8c0-0.2,0.1-0.4,0.3-0.5s0.4-0.1,0.6-0.1
			c0.6,0.2,1.3,0.1,1.9-0.3c1.3-1,2.1-2.6,2.2-4.2c0.3-3.2-0.8-3.4-1.6-3.5l0,0c-0.5-0.1-1.4,0.9-1.8,1.6c-0.2,0.3-0.4,0.4-0.7,0.3
			l-1.8-0.3c-0.4-0.1-0.7-0.4-0.6-0.8c0-0.1,0-0.1,0.1-0.2c0.5-1.5,0.8-3.1,0.8-4.7l-4.3-2.8c-0.3-0.2-0.4-0.5-0.3-0.9l1.5-4.2
			c-6.6-3.2-17.3-2.3-22.1,0.9c-0.2,2.1-1,13.3,0.6,18.8c1.8,5.9,5,8.8,7.3,10.3c0.2,0.1,0.3,0.4,0.3,0.6L716.2,204.3z"/>
		<path class="st8" d="M734.3,200.8c-4.6,26-18.5,54.4-18.5,54.4c-9.6-29.8-0.3-50.9-0.3-50.9l-20,6.5l-5.8,59l7,37.5
			c0,0,15.6,3,18.1-3.9s5.6-26.3,5.6-26.3s2.6,18.9,5.4,25s7.6,7.8,15.2,6.6s10.8-3.3,10.8-3.3l6.9-91.9
			C758.8,213.4,743,205.7,734.3,200.8z"/>
		<path d="M737.1,309.6c-5.7,0-9.3-2.3-11.7-7.4c-2-4.3-3.9-14.6-4.8-20.6c-1,6.2-3,17-4.8,21.9c-2.7,7.4-18.3,4.5-19,4.4
			c-0.3-0.1-0.5-0.3-0.6-0.6l-7-37.5c0-0.1,0-0.1,0-0.2l5.8-59c0-0.3,0.2-0.5,0.5-0.6l20-6.5c0.4-0.1,0.8,0.1,0.9,0.4
			c0.1,0.2,0.1,0.4,0,0.6c-1.7,4.5-2.9,9.3-3.4,14.1c-1.3,11.6-0.2,23.3,3.2,34.5c3-6.4,13.7-30.5,17.6-52.6
			c0.1-0.4,0.4-0.7,0.8-0.6c0.1,0,0.2,0,0.2,0.1c8.6,4.8,24.3,12.5,24.5,12.6c0.3,0.1,0.4,0.4,0.4,0.7l-6.9,91.9
			c0,0.2-0.1,0.4-0.3,0.5c-0.1,0.1-3.4,2.3-11.1,3.4C739.9,309.5,738.5,309.6,737.1,309.6z M720.5,276.3L720.5,276.3
			c0.4,0,0.7,0.3,0.7,0.6c0,0.2,2.6,18.9,5.4,24.8c2.6,5.6,6.8,7.4,14.4,6.2c6-0.9,9.3-2.5,10.2-3l6.9-91
			c-2.5-1.2-15.3-7.5-23.2-11.9c-4.7,25.6-18.2,53.3-18.3,53.6c-0.2,0.4-0.6,0.5-1,0.3c-0.2-0.1-0.3-0.2-0.4-0.4
			c-3.9-11.9-5.2-24.5-3.8-36.9c0.5-4.4,1.5-8.8,2.9-13l-18.1,5.9l-5.7,58.4l6.9,36.9c2.5,0.4,5,0.6,7.5,0.5
			c3.6-0.1,8.2-0.9,9.4-4.1c2.5-6.8,5.5-26,5.5-26.2C719.8,276.6,720.1,276.3,720.5,276.3L720.5,276.3z"/>
		<path class="st0" d="M734.2,199.2c-6.7,7.9-13.5,9.4-13.5,9.4c-2.1-0.9-4-2.3-5.2-4.3c0,0-9.3,21.1,0.3,50.9
			c0,0,13.9-28.4,18.5-54.4C734.3,200.8,734.2,200.2,734.2,199.2z"/>
		<path d="M715.8,255.9L715.8,255.9c-0.3,0-0.6-0.2-0.7-0.5c-3.9-11.9-5.2-24.5-3.8-36.9c0.5-5,1.7-9.8,3.5-14.5
			c0.2-0.4,0.6-0.5,0.9-0.4c0.1,0.1,0.3,0.2,0.3,0.3c1.2,1.7,2.8,3.1,4.7,3.9c1.2-0.3,7.1-2.2,12.9-9.1c0.2-0.2,0.5-0.3,0.8-0.2
			s0.5,0.4,0.5,0.7c0,1,0.1,1.6,0.1,1.6c0,0.1,0,0.1,0,0.2c-4.6,25.8-18.4,54.3-18.5,54.6C716.4,255.8,716.1,255.9,715.8,255.9z
			 M715.7,205.8c-1.7,4.7-7.1,23.1,0.3,47.4c3-6.4,13.6-30.2,17.5-52.2c-6.3,6.8-12.3,8.2-12.6,8.2c-0.1,0-0.3,0-0.4,0
			C718.6,208.5,717,207.3,715.7,205.8L715.7,205.8z"/>
		<path d="M714.3,215.3c-0.2,0-0.3-0.1-0.4-0.1c-0.3-0.2-0.4-0.7-0.1-1c1.9-2.4,4.1-4.5,6.6-6.2c0.3-0.2,0.8-0.1,1,0.2l0,0
			c0.2,0.3,0.1,0.8-0.2,1l0,0c-2.4,1.6-4.5,3.6-6.3,5.9C714.7,215.2,714.5,215.3,714.3,215.3z"/>
		<path d="M728.4,216.2c-0.2,0-0.4-0.1-0.6-0.3c-2.2-2.6-4.7-4.8-7.5-6.8c-0.3-0.2-0.5-0.6-0.3-1s0.6-0.5,1-0.3c0,0,0.1,0,0.1,0.1
			c2.9,2,5.5,4.3,7.8,7c0.2,0.3,0.2,0.7-0.1,1C728.7,216.1,728.6,216.2,728.4,216.2z"/>
		<path class="st5" d="M716.8,211.8c0,1.9,0.6,3.8,1.7,5.3h2.7c1.3-1.8,2.4-3.7,3.4-5.6c-1.2-1.1-2.4-2-3.7-2.9
			C719.3,209.6,718,210.6,716.8,211.8z"/>
		<path d="M721.1,217.9h-2.7c-0.2,0-0.4-0.1-0.5-0.2c-1.2-1.7-1.9-3.7-1.8-5.8c0-0.2,0.1-0.4,0.2-0.5c1.3-1.2,2.6-2.3,4.1-3.3
			c0.2-0.2,0.6-0.2,0.8,0c1.3,0.9,2.6,1.9,3.8,3c0.2,0.2,0.3,0.6,0.2,0.9c-1,2-2.1,3.9-3.5,5.8C721.6,217.8,721.4,217.9,721.1,217.9
			z M718.8,216.4h1.9c1.1-1.5,2-3.1,2.9-4.7c-1.3-1.1-2.3-1.9-2.8-2.2c-1.1,0.8-2.2,1.7-3.2,2.7C717.5,213.7,718,215.2,718.8,216.4z
			"/>
		<path class="st5" d="M724,236l-2.9-18.8h-2.7c-3.3,8.1-5.2,16.6-5.8,25.3c0.7,4.3,1.8,8.6,3.1,12.8
			C715.8,255.2,719.7,247.3,724,236z"/>
		<path d="M715.8,255.9L715.8,255.9c-0.3,0-0.6-0.2-0.7-0.5c-1.4-4.2-2.4-8.5-3.2-12.9c0-0.1,0-0.1,0-0.2c0.5-8.8,2.5-17.4,5.8-25.5
			c0.1-0.3,0.4-0.4,0.7-0.4h2.7c0.4,0,0.7,0.3,0.7,0.6l2.9,18.8c0,0.1,0,0.2,0,0.4c-4.3,11.2-8.2,19.2-8.2,19.3
			C716.4,255.8,716.1,256,715.8,255.9z M713.4,242.4c0.6,3.7,1.5,7.3,2.6,10.8c1.3-2.9,4.2-9.2,7.3-17.3l-2.8-18h-1.6
			C715.8,225.7,714,234,713.4,242.4L713.4,242.4z"/>
		<path d="M713.8,256c-0.2,0-0.3-0.1-0.4-0.2c-6.4-11.5-10.3-24.4-11.2-37.6c0-0.2,0.1-0.4,0.3-0.5l5.1-2.1l-2.9-2
			c-0.2-0.1-0.3-0.4-0.1-0.7c0,0,0-0.1,0.1-0.1l5.7-5.6c0.2-0.2,0.5-0.2,0.7,0s0.2,0.5,0,0.7l-5.3,5.2l3.2,2.1
			c0.1,0.1,0.2,0.3,0.2,0.4c0,0.2-0.1,0.3-0.3,0.4l-5.6,2.4c1,12.9,4.7,25.5,11,36.8c0.1,0.2,0,0.5-0.2,0.7
			C714,256,713.9,256,713.8,256z"/>
		<path d="M720.1,253.2c-0.3,0-0.5-0.2-0.5-0.5c0-0.1,0-0.2,0.1-0.3c8.2-10.2,15.2-21.3,20.7-33.2l-5.1-4.1
			c-0.1-0.1-0.2-0.3-0.2-0.5s0.2-0.3,0.3-0.4l5.4-1.5L738,205c-0.1-0.2,0-0.5,0.3-0.6l0,0c0.3-0.1,0.5,0,0.6,0.3l3,8.2
			c0.1,0.1,0.1,0.3,0,0.4c-0.1,0.1-0.2,0.2-0.3,0.2l-5,1.4l4.6,3.7c0.2,0.1,0.2,0.4,0.1,0.6c-5.5,12.1-12.6,23.5-21,33.8
			C720.4,253.2,720.3,253.2,720.1,253.2z"/>
		<ellipse cx="711.4" cy="181.8" rx="1.2" ry="1.4"/>
		<ellipse cx="724.5" cy="181.1" rx="1.2" ry="1.4"/>
		<path d="M717.7,189.5c-0.9,0-1.7-0.2-2.5-0.5c-0.2-0.1-0.4-0.4-0.2-0.6s0.4-0.4,0.6-0.2c0.7,0.3,1.4,0.4,2.2,0.4
			c0.3,0,0.5,0.2,0.5,0.5S717.9,189.5,717.7,189.5L717.7,189.5z"/>
		<path d="M718,193.7h-0.5c-0.8,0-2.7-0.2-3.3-1.1c-0.2-0.2-0.1-0.5,0.1-0.7l0,0c0.2-0.2,0.5-0.1,0.7,0.1l0,0
			c0.8,0.5,1.7,0.8,2.6,0.7c1.9,0.1,4.2-0.3,5.3-1.4c0.2-0.2,0.5-0.2,0.7,0s0.2,0.5,0,0.7C722.3,193.2,719.9,193.7,718,193.7z"/>
		<path d="M718.8,196.4c-0.9,0-1.9-0.2-2.7-0.7c-0.2-0.2-0.3-0.5-0.1-0.7s0.5-0.2,0.7-0.1l0,0c1,0.8,3.7,0.6,4.5-0.1
			c0.2-0.2,0.5-0.1,0.7,0.1c0.2,0.2,0.1,0.5-0.1,0.7l0,0C720.9,196.2,719.9,196.5,718.8,196.4z"/>
		<path d="M713.2,178.7c-0.1,0-0.2,0-0.3-0.1l0,0c-1.1-0.6-2.4-0.9-3.7-0.9H709c-0.3,0-0.5-0.2-0.5-0.5s0.2-0.5,0.5-0.5
			c1.5,0,3,0.3,4.4,1.1c0.2,0.1,0.3,0.4,0.2,0.7C713.6,178.6,713.4,178.7,713.2,178.7L713.2,178.7z"/>
		<path d="M720.2,176.8c-0.1,0-0.3-0.1-0.4-0.2c-0.2-0.2-0.2-0.5,0-0.7l0,0c1.5-1.3,3.5-2,5.5-1.9c0.3,0,0.5,0.2,0.4,0.5l0,0
			c0,0.3-0.3,0.5-0.5,0.4c-2.5-0.2-4.7,1.7-4.8,1.7C720.4,176.7,720.3,176.8,720.2,176.8z"/>
		<path d="M721.9,182.8c-0.2,0-0.3-0.1-0.4-0.3c-0.4-0.9-0.4-1.9-0.1-2.8c0.1-0.2,0.3-0.3,0.5-0.2s0.3,0.3,0.2,0.5l0,0
			c-0.2,0.7-0.2,1.5,0.1,2.2c0.1,0.2,0,0.5-0.2,0.5L721.9,182.8z"/>
		<path d="M719.2,203.1c-1.4,0-2.9-0.3-4.1-1.1c-0.3-0.2-0.4-0.7-0.2-1s0.7-0.4,1-0.2c1.7,1.1,4.8,1.1,7.2,0
			c2.5-1.2,4.7-2.9,6.6-4.9c0.3-0.2,0.8-0.1,1,0.3c0.1,0.2,0.1,0.5,0,0.7c-2,2.1-4.4,3.9-7,5.2C722.3,202.8,720.8,203.1,719.2,203.1
			z"/>
		<path class="st0" d="M716.7,235.4l24-3c2.1-0.3,4.1,1.3,4.4,3.4l4.5,35.6c0.3,2.1-1.3,4.1-3.4,4.4l-24,3c-2.1,0.3-4.1-1.3-4.4-3.4
			l-4.5-35.6C713,237.6,714.5,235.6,716.7,235.4z"/>
		<path d="M719.9,279.7c-1.3,0-2.4-1-2.6-2.3l-5-39.6c-0.2-1.4,0.8-2.7,2.3-2.9l28-3.5c1.4-0.2,2.7,0.8,2.9,2.2l0,0l5,39.6
			c0.2,1.4-0.8,2.7-2.2,2.9l0,0l-28,3.5L719.9,279.7z M742.9,232.7h-0.2l-28,3.5c-0.3,0-0.6,0.2-0.8,0.4s-0.3,0.6-0.2,0.9l5,39.6
			c0.1,0.6,0.7,1.1,1.3,1l28-3.5l0,0c0.6-0.1,1.1-0.7,1-1.3l-5-39.6C744,233.2,743.5,232.7,742.9,232.7L742.9,232.7z"/>
		<path class="st0" d="M727.6,257.7c0,0-3.5-5.8-4-6.3c-0.7-0.6-1.5-1-2.5-1.1c-1.1-0.1-4.6-1-6.5-1.3s-2.6,3,0.2,3.7
			c1.8,0.5,3.6,1.1,5.3,1.9l-10.1,0.2l1.1,15.5c0,0,9.8,2.1,16.4,0.1L727.6,257.7z"/>
		<path d="M720.4,272c-3.2,0-6.4-0.4-9.6-1c-0.3-0.1-0.5-0.3-0.6-0.6l-1.1-15.5c0-0.2,0.1-0.4,0.2-0.5c0.1-0.1,0.3-0.2,0.5-0.2
			l6.5-0.1c-0.6-0.2-1.2-0.4-1.8-0.6c-1.6-0.3-2.6-1.8-2.3-3.4c0.2-1.2,1.3-1.9,2.5-1.8c0.9,0.2,2.2,0.4,3.5,0.7s2.5,0.6,3,0.6
			c1.1,0.1,2.1,0.5,2.9,1.3c0.5,0.6,3.3,5.1,4.2,6.4c0.1,0.1,0.1,0.3,0.1,0.4l-0.2,12.7c0,0.3-0.2,0.6-0.5,0.7
			C725.2,271.7,722.8,272,720.4,272z M711.6,269.7c2,0.4,9.6,1.6,15,0.2l0.2-12c-1.7-2.7-3.5-5.7-3.8-6c-0.6-0.5-1.3-0.8-2-0.9
			c-0.6-0.1-1.8-0.3-3.2-0.6c-1.2-0.3-2.5-0.6-3.4-0.7c-0.6-0.1-0.8,0.5-0.8,0.6c-0.1,0.6,0.2,1.4,1.3,1.7c1.8,0.5,3.6,1.2,5.4,1.9
			c0.3,0.1,0.5,0.5,0.4,0.8s-0.4,0.6-0.7,0.6l-9.4,0.2L711.6,269.7z"/>
		<ellipse cx="642.2" cy="185.2" rx="1.2" ry="1.4"/>
		<ellipse cx="655.5" cy="185.2" rx="1.2" ry="1.4"/>
		<path d="M640.3,196.8c-0.3,0-0.5-0.2-0.5-0.5c0-1.2,0.3-2.4,0.8-3.4c0.1-0.2,0.4-0.3,0.6-0.2l0,0c0.2,0.1,0.3,0.4,0.2,0.6l0,0
			c-0.5,0.9-0.7,2-0.7,3C640.8,196.6,640.6,196.9,640.3,196.8C640.3,196.9,640.3,196.9,640.3,196.8L640.3,196.8z"/>
		<path d="M648.8,193.7c-1,0-2-0.5-2.5-1.5c-0.1-0.2,0-0.5,0.2-0.6s0.5,0,0.6,0.2l0,0c0.3,0.6,0.9,0.9,1.6,0.9
			c0.7,0,1.3-0.3,1.6-0.9c0.1-0.2,0.4-0.3,0.6-0.2l0,0c0.2,0.1,0.3,0.4,0.2,0.6C650.8,193.2,649.9,193.7,648.8,193.7z"/>
		<path d="M648.8,198.3c-2.5,0-4.5-1-5.2-2c-0.2-0.2-0.1-0.5,0.1-0.7l0,0c0.2-0.1,0.5-0.1,0.7,0.1c2.6,2.1,6.2,2.1,8.8,0
			c0.2-0.2,0.5-0.3,0.7-0.1s0.3,0.4,0.1,0.7l0,0C653.4,197.3,651.3,198.3,648.8,198.3z"/>
		<path d="M648.8,201.1c-1.2,0-2.4-0.4-3.3-1.1c-0.2-0.2-0.2-0.5,0-0.7s0.5-0.2,0.7,0l0,0c1.6,1.2,3.8,1.2,5.3,0
			c0.2-0.2,0.5-0.2,0.7,0s0.2,0.5,0,0.7C651.2,200.7,650,201.1,648.8,201.1z"/>
		<path d="M657.4,196.8L657.4,196.8c-0.3,0-0.5-0.2-0.5-0.5l0,0c0-1-0.2-2.1-0.7-3c-0.1-0.2,0-0.5,0.2-0.6s0.5,0,0.6,0.2l0,0
			c0.5,1.1,0.8,2.2,0.8,3.4C657.9,196.6,657.6,196.8,657.4,196.8L657.4,196.8z"/>
		<path class="st0" d="M637.1,171.5c-0.1,0-0.2,0-0.3-0.1c-0.2-0.2-0.3-0.5-0.1-0.7c1.9-2.4,4.3-4.4,7.1-5.6c0.2-0.1,0.5,0,0.6,0.2
			l0,0c0.1,0.2,0,0.5-0.2,0.6l0,0c-2.6,1.2-4.9,3.1-6.7,5.3C637.4,171.4,637.2,171.5,637.1,171.5z"/>
		<path class="st0" d="M648.8,172.4c-0.3,0-0.5-0.2-0.5-0.5c0-0.2,0.1-0.4,0.3-0.5c2.2-0.9,4.1-2.4,5.3-4.5c0.1-0.2,0.4-0.3,0.7-0.2
			c0.2,0.1,0.3,0.4,0.2,0.6c-1.3,2.3-3.4,4-5.8,4.9L648.8,172.4z"/>
		<path class="st0" d="M734.1,165.4c-0.2,0-0.3-0.1-0.4-0.2c-2.7-3.7-8.6-3.6-8.7-3.6c-0.3,0-0.5-0.2-0.5-0.5s0.2-0.5,0.5-0.5
			s6.5-0.2,9.5,4c0.2,0.2,0.1,0.5-0.1,0.7C734.3,165.3,734.2,165.4,734.1,165.4z"/>
		<path class="st11" d="M787.6,321.6c-0.5-5.9-1.6-11.8-3.4-17.4L752.6,289L740,307.1c-1.2,4.7-1.8,9.6-1.8,14.5"/>
		<path class="st11" d="M723.6,259.9c-1.6,3-3,8.4-0.6,12.9s13.5,22.6,13.5,22.6l7.5-11.8l-8.9-16.9l1.6-2.4l-1-5.2l-8.9-3.7
			L723.6,259.9z"/>
		<path d="M736.4,296.1L736.4,296.1c-0.2,0-0.5-0.1-0.6-0.4c-0.5-0.7-11.2-18.2-13.5-22.7c-2.6-5-0.8-10.9,0.7-13.6v-0.1l3.2-4.4
			c0.2-0.3,0.6-0.4,0.9-0.2l8.9,3.7c0.2,0.1,0.4,0.3,0.4,0.5l1,5.2c0,0.2,0,0.4-0.1,0.5l-1.4,2l8.7,16.5c0.1,0.2,0.1,0.5,0,0.7
			l-7.6,11.8C736.9,296,736.6,296.1,736.4,296.1z M724.2,260.3c-1.3,2.5-2.9,7.7-0.6,12.2c2,3.8,10.5,17.8,12.8,21.6l6.7-10.4
			l-8.7-16.5c-0.1-0.2-0.1-0.5,0-0.7l1.4-2.2l-0.8-4.6l-8-3.3L724.2,260.3z"/>
		<path class="st0" d="M743.6,284.7c-3.7-0.1-6.6,5.1-7.1,7.8s0.6,6.6,0.6,6.6c-1.4,0.7-1.5,3.9,1.2,5.2l5.3-12.1V284.7z"/>
		<path d="M738.2,305c-0.1,0-0.2,0-0.3-0.1c-1.5-0.7-2.5-2.1-2.6-3.8c0-0.9,0.3-1.7,0.9-2.4c-0.6-2.1-0.7-4.3-0.5-6.5
			c0.6-3,3.8-8.3,7.8-8.3h0.1c0.4,0,0.7,0.3,0.7,0.7l-0.1,7.5c0,0.1,0,0.2-0.1,0.3l-5.3,12.1c-0.1,0.2-0.2,0.3-0.4,0.4
			C738.4,305,738.3,305,738.2,305z M742.8,285.5c-2.8,0.6-5.2,4.8-5.7,7.1c-0.5,2.4,0.5,6.3,0.5,6.3c0.1,0.3-0.1,0.7-0.3,0.8
			c-0.4,0.3-0.6,0.9-0.6,1.4c0,0.8,0.4,1.6,1.1,2.1l4.9-11.2L742.8,285.5z"/>
		<path class="st4" d="M770.8,187.5c-1.6-7-12.5-8.3-19.5-2.4s-13.1,16.4-13.9,23.5s1.8,10.3,6.2,10.9c0,0-1.7,4.7-5.4,6.1
			c0,0,4.6,2.2,7.8-0.2c-1.5,2.6-1.3,5.9,0.6,8.2l33.8,0.2c0,0,1-5.4-1.7-8c3,1.1,6.4-0.3,7.8-3.3c-3.4,1.4-8.4-0.4-7.7-5.9
			s4-9.9,3.8-16.4S778.1,185.9,770.8,187.5z"/>
		<path d="M780.2,234.5L780.2,234.5l-33.8-0.2c-0.2,0-0.4-0.1-0.6-0.3c-1.6-2-2.1-4.7-1.4-7.2c-2.2,0.6-4.6,0.3-6.7-0.6
			c-0.4-0.2-0.5-0.6-0.3-1c0.1-0.2,0.2-0.3,0.4-0.4c2.5-0.9,4-3.5,4.7-4.9c-3.4-0.8-6.8-3.4-5.9-11.5c0.8-7.5,7.1-18,14.2-24
			c4.2-3.5,10.2-4.8,14.8-3.3c2.7,0.8,4.8,2.8,5.7,5.4c2.4-0.4,4.8,0.3,6.6,1.8c3.1,2.4,5.1,7,5.2,11.8c0.1,3.9-1,7.1-2.1,10.2
			c-0.8,2-1.4,4.1-1.7,6.3c-0.4,1.7,0.2,3.4,1.5,4.5c1.5,1.1,3.5,1.3,5.2,0.6c0.3-0.1,0.6,0,0.8,0.2s0.3,0.5,0.2,0.8
			c-1.2,2.6-3.9,4.2-6.8,4.1c1.5,3,0.8,6.9,0.7,7.1C780.9,234.3,780.6,234.5,780.2,234.5z M746.8,232.9l32.9,0.2
			c0.2-1.4,0.3-4.9-1.6-6.8c-0.2-0.2-0.3-0.6-0.1-0.9c0.2-0.3,0.5-0.4,0.9-0.3c2.1,0.8,4.4,0.2,5.9-1.5c-1.7,0.2-3.4-0.3-4.7-1.3
			c-1.7-1.4-2.5-3.6-2.1-5.8s1-4.5,1.8-6.6c1-3,2.1-6,2-9.7c-0.1-4.3-2-8.6-4.7-10.7c-1.7-1.4-4-1.9-6.1-1.4
			c-0.4,0.1-0.8-0.2-0.9-0.5l0,0c-0.6-2.4-2.5-4.3-4.9-5c-4.2-1.4-9.6-0.2-13.5,3c-6.8,5.7-12.9,16-13.7,23.1
			c-0.7,6.2,1.1,9.5,5.5,10.1c0.2,0,0.4,0.2,0.5,0.3c0.1,0.2,0.1,0.4,0.1,0.6c-0.9,2.3-2.3,4.2-4.3,5.7c1.5,0.4,3.8,0.6,5.5-0.7
			c0.3-0.2,0.7-0.2,0.9,0c0.3,0.2,0.3,0.6,0.1,0.9C745.1,228,745.3,230.8,746.8,232.9L746.8,232.9z"/>
		<path class="st11" d="M736.6,264.4c1.1,8.3,4.9,13.5,5.9,16.6c0.5,3.8-1.8,10.9-3.1,15.5s-2.7,10.3-2.7,10.3
			c1.8,1.7,3.9,3,6.2,3.8c1.7,0.7,4.5,0.1,5.8-3.3s4.2-17.1,4.2-17.1l4.4,16.7c0.8,2.9,3.8,5.4,8.2,4.8s13.3-2.9,22.4-7l-13-25.7
			l5.7-17.5l11-10.6c0,0-1.4-9.2-2.2-12.4s-3-6.5-5.8-7.4s-15.3-3-15.3-3l-14.2,0.7c0,0-8.5,2.2-11,2.9c-2.8,0.8-5.2,2.8-6.6,5.4
			c-1.8,2.9-12.8,22.7-12.8,22.7"/>
		<path d="M764.2,312.6c-3.5,0.2-6.6-2.1-7.7-5.4l-3.6-13.8c-0.9,4.3-2.6,11.8-3.6,14.3c-0.5,1.6-1.7,2.9-3.2,3.6
			c-1.1,0.5-2.3,0.5-3.5,0.1c-2.4-0.9-4.6-2.2-6.5-4c-0.2-0.2-0.2-0.4-0.2-0.7c0-0.1,1.5-5.7,2.7-10.3c0.2-0.7,0.4-1.5,0.7-2.3
			c1.3-4.4,2.8-9.9,2.5-12.9c-0.4-1.1-0.9-2.1-1.4-3.1c-2.3-4.2-3.8-8.8-4.5-13.6c-0.1-0.4,0.2-0.8,0.6-0.8l0,0
			c0.4-0.1,0.7,0.2,0.8,0.6l0,0c0.7,4.6,2.2,9.1,4.4,13.2c0.6,1.1,1.1,2.2,1.5,3.4v0.1c0.4,3.3-1.2,9-2.5,13.5
			c-0.2,0.8-0.5,1.6-0.7,2.3c-1.1,3.9-2.2,8.5-2.6,9.9c1.7,1.5,3.6,2.6,5.7,3.4l0,0c0.8,0.3,1.6,0.3,2.4-0.1
			c1.2-0.5,2.1-1.6,2.5-2.8c1.2-3.3,4.1-16.9,4.1-17c0.1-0.3,0.4-0.6,0.7-0.6s0.6,0.2,0.7,0.5l4.4,16.7c0.7,2.4,3.3,4.8,7.5,4.3
			c4.5-0.6,13-2.9,21.5-6.7l-12.6-25c-0.1-0.2-0.1-0.4,0-0.5l5.7-17.6c0-0.1,0.1-0.2,0.2-0.3l10.7-10.3c-0.3-1.8-1.4-9.2-2.1-12
			s-2.6-6-5.4-6.9s-14-2.8-15.1-3l-14.1,0.7c-0.8,0.2-8.6,2.3-11,2.9c-2.6,0.8-4.9,2.6-6.2,5c-1.7,2.8-12.7,22.5-12.8,22.7
			c-0.2,0.3-0.6,0.5-1,0.3c-0.3-0.2-0.5-0.6-0.3-1l0,0c0.5-0.8,11.1-19.9,12.8-22.8c1.5-2.8,4.1-4.8,7.1-5.7c2.5-0.6,11-2.9,11-2.9
			h0.2l14.2-0.7h0.2c0.5,0.1,12.5,2.2,15.4,3.1c3.3,1,5.5,4.7,6.3,7.9s2.1,12.1,2.2,12.5c0,0.2,0,0.5-0.2,0.6L781.3,262l-5.5,17
			l12.8,25.4c0.1,0.2,0.1,0.4,0,0.6s-0.2,0.3-0.4,0.4c-8.9,4-17.8,6.5-22.6,7.1C765.1,312.6,764.7,312.6,764.2,312.6z"/>
		<path class="st4" d="M676.6,221.6c0,0-8.6,6.1-4.8,13.9l29.7,2.2c1.5-3.3,1.2-11.1-3.7-15.4L676.6,221.6z"/>
		<path d="M701.5,238.5L701.5,238.5l-29.7-2.2c-0.3,0-0.5-0.2-0.6-0.4c-4.1-8.3,4.9-14.8,5-14.8c0.1-0.1,0.3-0.1,0.4-0.1l21.2,0.7
			c0.2,0,0.3,0.1,0.5,0.2c5.1,4.5,5.7,12.5,3.9,16.3C702.1,238.3,701.8,238.5,701.5,238.5z M672.3,234.8L701,237
			c1.1-3.1,0.8-9.9-3.5-13.9l-20.7-0.7c-1.4,1.1-2.5,2.3-3.5,3.7C671.4,229,671.1,232,672.3,234.8L672.3,234.8z"/>
		<path class="st8" d="M633.6,232.1c-1-5.3-3.6-9.2-6.2-10.6s-9.5-5-9.5-5c-0.7-2.6-1.2-5.5-1.2-5.5l-3.7-1.1
			c0.2,3.4,0.5,5.7,0.5,5.7c-1,2.7-2.3,5.2-3.9,7.6l-6-10.5c-2.5-0.8-4.9-1.9-7.2-3.1c-0.8-0.4-1.6-0.8-2.3-1.3l-4.4,7
			c-3.3,0.6-6.6,1.5-9.8,2.7c-3.7,1.6-6.1,5.4-9.3,9.5s-15.7,22.4-15.7,22.4l13.8,7.8l13-15.6l-0.3,38.7l0.3,5.1
			c21.8,2.9,44.7,0.8,44.7,0.8l-0.2,4.5c1.3,4.8,1.6,11.8,1.5,17.9c4.1,0.1,8.2-0.3,12.3-1.1l0.6-0.1
			C639.4,280.6,634.5,236.9,633.6,232.1z"/>
		<path d="M629.1,309.9c-0.5,0-1,0-1.5,0c-0.4,0-0.7-0.3-0.7-0.7c0-7.7-0.5-13.9-1.5-17.8c0-0.1,0-0.1,0-0.2l0.2-3.7
			c-4.3,0.3-24.8,1.7-44-0.8c-0.3,0-0.6-0.3-0.6-0.7l-0.3-5.1l0,0l0.3-36.7l-11.7,14c-0.2,0.3-0.6,0.3-0.9,0.2l-13.8-7.8
			c-0.2-0.1-0.3-0.3-0.3-0.5s0-0.4,0.1-0.6c0.5-0.8,12.5-18.4,15.7-22.4c0.6-0.7,1.1-1.5,1.7-2.2c2.5-3.3,4.7-6.1,7.9-7.5
			c3.1-1.2,6.4-2.1,9.7-2.7l4.2-6.8c0.1-0.2,0.3-0.3,0.5-0.3s0.4,0,0.5,0.1c0.7,0.5,1.5,0.9,2.2,1.3c2.3,1.2,4.7,2.2,7.1,3
			c0.2,0.1,0.3,0.2,0.4,0.3l5.4,9.5c1.3-2,2.3-4.1,3.2-6.3c-0.1-0.6-0.3-2.7-0.5-5.6c0-0.4,0.3-0.7,0.7-0.8c0.1,0,0.2,0,0.3,0
			l3.8,1.1c0.3,0.1,0.5,0.3,0.5,0.6c0,0,0.4,2.7,1.1,5.1c1.3,0.7,6.9,3.6,9.2,4.8c3.1,1.7,5.6,5.9,6.6,11.1
			c0.9,4.9,5.8,48.9,6.9,75.8c0,0.3-0.2,0.6-0.5,0.7l-0.6,0.1C636.5,309.4,632.8,309.9,629.1,309.9z M628.4,308.5
			c3.8,0,7.6-0.4,11.4-1.2c-1.1-26.9-5.9-70.2-6.8-75l0,0c-0.9-4.7-3.2-8.7-5.9-10.1s-9.4-4.9-9.4-4.9c-0.2-0.1-0.3-0.3-0.4-0.4
			c-0.6-2-1-4.2-1.1-5.2l-2.4-0.7c0.2,2.8,0.4,4.6,0.4,4.6c0,0.1,0,0.2,0,0.3c-1,2.7-2.4,5.4-4,7.8c-0.2,0.3-0.7,0.4-1,0.2
			c-0.1-0.1-0.2-0.1-0.2-0.2l-5.9-10.3c-2.4-0.8-4.8-1.8-7.1-3c-0.8-0.4-1.3-0.7-1.7-1l-4,6.4c-0.1,0.2-0.3,0.3-0.5,0.3
			c-3.3,0.6-6.5,1.5-9.7,2.6c-2.9,1.2-4.9,3.9-7.3,7.1c-0.5,0.7-1.1,1.5-1.7,2.2c-2.8,3.6-13,18.4-15.2,21.7l12.5,7.1l12.6-15.1
			c0.2-0.2,0.5-0.3,0.8-0.2s0.5,0.4,0.5,0.7l-0.3,38.7l0.3,4.5c21.3,2.7,43.7,0.7,44,0.7c0.4,0,0.7,0.3,0.8,0.6v0.1l-0.2,4.4
			C627.9,295.1,628.4,300.9,628.4,308.5z"/>
		<path class="st0" d="M581.6,285.9l0.4,4.8c8.6,1.1,17.3,1.6,26,1.7h0.5c2.6,0,4.9,0,6.9-0.1c3.6-0.1,7.2-0.5,10.7-1.1l0.2-4.5
			C626.4,286.7,603.4,288.8,581.6,285.9z"/>
		<path d="M609.8,293.2H608c-8.7-0.1-17.4-0.6-26-1.7c-0.3,0-0.6-0.3-0.6-0.6l-0.4-4.8c0-0.2,0.1-0.4,0.2-0.6
			c0.2-0.2,0.4-0.2,0.6-0.2c21.4,2.8,44.3,0.8,44.5,0.7c0.4,0,0.7,0.3,0.8,0.6v0.1l-0.2,4.5c0,0.3-0.3,0.6-0.6,0.7
			c-3.6,0.7-7.2,1-10.9,1.1C613.6,293.1,611.8,293.2,609.8,293.2z M582.7,290.1c8.4,1,16.8,1.6,25.3,1.6h0.5c2.4,0,4.7,0,6.8-0.1
			c3.4-0.1,6.7-0.4,10.1-1l0.1-3.2c-4.2,0.3-24.1,1.7-43.2-0.7L582.7,290.1z"/>
		<path class="st8" d="M554.8,249.9c-2.6,3.9-3.4,10.1,0.6,14.8s14.2,15.7,19.4,20.8l0.5-0.4c3.2-2.6,6-5.5,8.5-8.8
			c0,0-9.4-11.3-15.3-18.7l13-15.6"/>
		<path d="M574.9,286.2c-0.2,0-0.4-0.1-0.5-0.2c-5.4-5.3-15.5-16.3-19.5-20.9c-4.3-5-3.4-11.5-0.7-15.7c0.2-0.3,0.7-0.4,1-0.2
			s0.4,0.7,0.2,1l0,0c-2.5,3.8-3.2,9.6,0.6,14s13.5,14.9,18.9,20.3c3-2.4,5.7-5.1,8-8.2c-1.8-2.1-9.8-11.8-14.9-18.3
			c-0.2-0.3-0.2-0.7,0-0.9l13-15.6c0.3-0.3,0.7-0.3,1-0.1c0.3,0.3,0.3,0.7,0.1,1l-12.6,15.1c5.8,7.3,14.8,18.1,14.9,18.2
			c0.2,0.3,0.2,0.6,0,0.9c-2.5,3.4-5.4,6.4-8.6,9c-0.3,0.2-0.5,0.4-0.5,0.4C575.1,286.2,575,286.2,574.9,286.2z"/>
		<path d="M597.6,223.7c-0.1,0-0.3-0.1-0.4-0.2c-3-3.4-6.3-6.5-6.3-6.5c-0.2-0.2-0.2-0.5,0-0.7s0.5-0.2,0.7,0c0,0,3,2.9,6,6.1
			c1.7-2.6,3.2-5.3,4.6-8.1c0.1-0.2,0.4-0.3,0.6-0.2c0.2,0.1,0.3,0.4,0.2,0.6l0,0c-1.5,3-3.2,5.9-5,8.7
			C598,223.6,597.8,223.7,597.6,223.7L597.6,223.7z"/>
		<path class="st0" d="M613,209.8c-0.1-2-0.2-4.3-0.2-6.7l-8.5,1.7l-7.7-0.9c0,1.9-0.1,3.8-0.3,5.6c2.3,1.2,4.7,2.2,7.2,3.1l6,10.5
			c1.6-2.4,2.9-4.9,3.9-7.6C613.5,215.5,613.2,213.2,613,209.8z"/>
		<path d="M609.5,223.9L609.5,223.9c-0.2,0-0.5-0.1-0.6-0.4l-5.9-10.2c-2.4-0.8-4.8-1.8-7.1-3c-0.3-0.1-0.4-0.4-0.4-0.7
			c0.2-1.8,0.3-3.7,0.3-5.6c0-0.2,0.1-0.4,0.2-0.6c0.2-0.1,0.4-0.2,0.6-0.2l7.6,0.9l8.4-1.7c0.2,0,0.4,0,0.6,0.1
			c0.2,0.1,0.3,0.3,0.3,0.6c0,2.1,0,4.3,0.2,6.6c0.2,3.3,0.5,5.6,0.5,5.7c0,0.1,0,0.2,0,0.3c-1,2.7-2.4,5.4-4,7.8
			C610,223.8,609.8,223.9,609.5,223.9z M597.1,209.2c2.2,1.1,4.4,2,6.7,2.8c0.2,0.1,0.3,0.2,0.4,0.3l5.4,9.5c1.3-2,2.3-4.1,3.2-6.3
			c-0.1-0.6-0.3-2.7-0.5-5.6l0,0c-0.1-2-0.2-4-0.2-5.9l-7.6,1.5c-0.1,0-0.1,0-0.2,0l-6.9-0.8C597.3,205.7,597.3,207.4,597.1,209.2z"
			/>
		<path d="M613.5,216.3c-0.1,0-0.2,0-0.3-0.1c-0.4-0.1-0.6-0.6-0.4-0.9c0,0,0,0,0-0.1c0.6-1.3,1.1-3.1,1.2-3.1
			c0.1-0.4,0.5-0.6,0.9-0.5s0.6,0.5,0.5,0.9l0,0c0,0.1-0.6,1.9-1.2,3.2C614,216.1,613.8,216.3,613.5,216.3z"/>
		<path d="M618.8,221.1c-0.1,0-0.2,0-0.3-0.1l-4.2-3c-0.2-0.2-0.3-0.5-0.1-0.7s0.4-0.3,0.7-0.1l0,0l3.1,2.2l-0.7-2.7
			c-0.1-0.3,0.1-0.5,0.3-0.6c0.3-0.1,0.5,0.1,0.6,0.3l1.1,4c0.1,0.3-0.1,0.5-0.4,0.6C618.9,221.1,618.8,221.1,618.8,221.1
			L618.8,221.1z"/>
		<path d="M626.3,287.4c-0.2,0-0.4-0.1-0.5-0.2c-0.3-0.3-0.3-0.7,0-1c2.3-2.1,3.5-5,3.5-8c0.1-3.8-0.6-28.1-3.9-46
			c-0.1-0.4,0.2-0.8,0.6-0.8l0,0c0.4-0.1,0.8,0.2,0.8,0.6l0,0c3.3,18,4,42.4,4,46.2c0,3.4-1.4,6.7-3.9,9
			C626.8,287.4,626.5,287.4,626.3,287.4z"/>
		<path d="M611.5,281.6L611.5,281.6c-0.3,0-0.5-0.2-0.5-0.5l0,0c0.3-16.4-0.5-32.8-2.4-49.1c0-0.3,0.2-0.5,0.4-0.5
			c0.3,0,0.5,0.1,0.5,0.4l0,0c1.9,16.4,2.7,32.8,2.4,49.3C612,281.4,611.8,281.6,611.5,281.6L611.5,281.6z"/>
		<ellipse class="st12" cx="611.2" cy="229.4" rx="1" ry="1.2"/>
		<ellipse class="st12" cx="613.8" cy="249.1" rx="1" ry="1.2"/>
		<ellipse class="st12" cx="614.5" cy="271.8" rx="1" ry="1.2"/>
		<path class="st0" d="M622.8,287c-0.7,0-1.5,0.1-2.4,0.1c0,0.8,0.1,2.9,0,4.9c0.9-0.1,1.7-0.2,2.4-0.3
			C622.9,290.8,622.9,288.8,622.8,287z"/>
		<path d="M620.4,292.7c-0.2,0-0.4-0.1-0.5-0.2c-0.2-0.1-0.2-0.3-0.2-0.5c0-2.1,0-4.1,0-4.9c0-0.4,0.3-0.7,0.7-0.7l2.4-0.1
			c0.4,0,0.7,0.3,0.8,0.7l0,0c0.1,1.9,0.1,3.9,0,4.9c0,0.4-0.3,0.6-0.6,0.7C622.1,292.6,621.3,292.7,620.4,292.7L620.4,292.7z
			 M621.1,287.7c0,0.8,0,2.1,0,3.4l1-0.1c0-0.9,0-2.1,0-3.4L621.1,287.7z"/>
		<path class="st0" d="M640,321.6c0.9-4.5,0.9-9.1,0-13.6c-4,0.9-8.2,1.3-12.3,1.2c0,6.8-0.5,12.4-0.5,12.4"/>
		<path d="M640,322.3h-0.2c-0.4-0.1-0.6-0.5-0.6-0.9c0.9-4.2,0.9-8.4,0.1-12.6c-3.6,0.8-7.3,1.1-11,1.1c-0.1,6.4-0.5,11.7-0.5,11.7
			c0,0.4-0.4,0.7-0.8,0.7c-0.4,0-0.7-0.4-0.7-0.8c0,0,0.5-5.7,0.5-12.4c0-0.4,0.3-0.7,0.7-0.7l0,0c4.1,0.1,8.1-0.3,12.1-1.2
			c0.2,0,0.4,0,0.5,0.1c0.2,0.1,0.3,0.3,0.3,0.5c1,4.6,1,9.3,0,13.9C640.6,322.1,640.3,322.3,640,322.3z"/>
		<path class="st0" d="M627.2,321.6c0,0,0.5-5.6,0.5-12.4c0-6.1-0.3-13.1-1.5-17.9c-1.3,0.3-7,1.3-17.6,1.2
			c-8.9,0-17.7-0.6-26.5-1.7c0,0-2.3,12.5-1.4,30.8"/>
		<path d="M627.2,322.3L627.2,322.3c-0.5,0-0.8-0.4-0.7-0.8c0,0,0.5-5.7,0.5-12.4c0-7.3-0.4-13.2-1.3-17.1
			c-5.7,0.9-11.4,1.2-17.1,1.1c-8.6,0-17.3-0.6-25.9-1.6c-1.4,9.9-1.8,20-1.3,30c0,0.4-0.3,0.7-0.7,0.8c-0.4,0-0.7-0.3-0.8-0.7
			c-1-18.2,1.4-30.9,1.4-31c0.1-0.4,0.4-0.6,0.8-0.6c8.8,1.1,17.6,1.7,26.4,1.7c10.5,0.1,16-0.9,17.5-1.2c0.4-0.1,0.7,0.2,0.8,0.5
			c1.1,4.1,1.6,10.2,1.6,18.1c0,6.8-0.5,12.4-0.5,12.5C627.8,322,627.5,322.3,627.2,322.3z"/>
		<path d="M632.8,322.1c-0.1,0-0.2,0-0.2,0c-0.2-0.1-0.3-0.4-0.2-0.7c0.3-0.5,0.5-1.1,0.7-1.7c-3.2-3.3-0.7-7.4-0.7-7.5
			c0.1-0.2,0.4-0.3,0.7-0.1c0.2,0.1,0.3,0.4,0.2,0.6l0,0c-0.1,0.1-2.2,3.7,0.7,6.5c0.1,0.1,0.2,0.3,0.1,0.5
			c-0.2,0.7-0.5,1.4-0.8,2.1C633.1,322,632.9,322.1,632.8,322.1z"/>
		<path d="M636.9,322.1c-0.3,0-0.5-0.2-0.5-0.5c0-0.1,0-0.2,0.1-0.3c0.5-0.9,1-1.9,1.3-2.9c0.1-0.2,0.4-0.4,0.6-0.3l0,0
			c0.2,0.1,0.4,0.4,0.3,0.6c-0.4,1-0.9,2.1-1.4,3.1C637.2,322,637,322.1,636.9,322.1z"/>
		<path d="M608.5,318.2L608.5,318.2c-0.3,0-0.5-0.2-0.5-0.5c0.4-6.3,0.4-12.5,0.2-18.8c0-0.3,0.2-0.5,0.5-0.5l0,0
			c0.3,0,0.5,0.2,0.5,0.4l0,0c0.3,6.3,0.2,12.6-0.2,18.9C609,318,608.8,318.2,608.5,318.2C608.6,318.2,608.5,318.2,608.5,318.2z"/>
		<path d="M613.7,318.2L613.7,318.2c-0.3,0-0.5-0.2-0.4-0.5l0,0c0.4-6.3,0.4-12.5,0.2-18.8c0-0.3,0.2-0.5,0.4-0.5l0,0
			c0.3,0,0.5,0.2,0.5,0.5c0.3,6.3,0.2,12.6-0.2,18.9C614.2,318,613.9,318.2,613.7,318.2L613.7,318.2z"/>
		<path d="M569.5,280.3c-0.3,0-0.5-0.2-0.5-0.5c0-0.2,0.1-0.3,0.2-0.4c3.1-2,5.9-4.4,8.2-7.2c0.2-0.2,0.5-0.2,0.7-0.1l0,0
			c0.2,0.2,0.2,0.5,0.1,0.7c-2.4,2.9-5.2,5.5-8.5,7.5C569.7,280.3,569.6,280.3,569.5,280.3z"/>
		<path d="M561.5,257.8c-1.4,0-2.7-0.2-4-0.6c-0.3-0.1-0.4-0.4-0.3-0.6c0.1-0.3,0.4-0.4,0.6-0.3l0,0c2.4,0.6,4.9,0.7,7.4,0.1
			c0.3-0.1,0.5,0,0.6,0.3s0,0.5-0.3,0.6h-0.1C564.2,257.6,562.9,257.8,561.5,257.8z"/>
		<path d="M581.6,242.8c-0.2,0-0.3-0.1-0.5-0.2c-0.3-0.2-0.4-0.7-0.1-1c1-1.3,1.6-2.1,1.6-2.1c0.2-0.3,0.7-0.4,1-0.2s0.4,0.7,0.2,1
			c0,0-0.6,0.8-1.7,2.2C582,242.7,581.8,242.8,581.6,242.8z"/>
		<path d="M582.9,236c-0.2,0-0.4-0.2-0.5-0.4c-0.5-3-1.6-5.9-3.3-8.4c-0.2-0.2-0.1-0.5,0.1-0.7l0,0c0.2-0.2,0.5-0.1,0.7,0.1l0,0
			c1.8,2.6,3,5.7,3.5,8.8C583.4,235.7,583.2,236,582.9,236L582.9,236z"/>
		<path d="M629.6,301.5h-0.2c-0.3,0-0.5-0.2-0.5-0.5s0.2-0.5,0.5-0.5h0.2c3,0,6-0.2,8.9-0.7c0.3-0.1,0.5,0.1,0.6,0.4
			s-0.1,0.5-0.4,0.6C635.6,301.3,632.6,301.5,629.6,301.5z"/>
		<path class="st0" d="M613.6,181.9c-2.8,3.2-8,3-8,3c2-1.4,3.6-3.3,4.7-5.5c-6.4,6.4-16.7,4.8-16.7,4.8c-1.5,1.4-3.2,2.5-5.1,3.5
			c0,0-0.1,10.9,3.8,15.1s8.4,7,12,7s8-2.8,12-7s3.8-15.1,3.8-15.1C617.1,186.1,613.6,181.9,613.6,181.9z"/>
		<path d="M604.3,210.6c-3.6,0-8.3-2.7-12.5-7.3s-4-15.2-4-15.6c0-0.3,0.2-0.5,0.4-0.6c1.8-0.9,3.4-2.1,4.9-3.4
			c0.2-0.1,0.4-0.2,0.6-0.2c0.1,0,10,1.5,16.1-4.6c0.2-0.2,0.6-0.3,0.9-0.1c0.3,0.2,0.4,0.6,0.2,0.9c-0.8,1.6-1.8,3-3.1,4.3
			c2-0.2,3.8-1.1,5.2-2.6c0.1-0.1,0.3-0.2,0.5-0.2s0.4,0.1,0.5,0.3c0,0,3.4,4.1,6.3,5.6c0.2,0.1,0.4,0.4,0.4,0.6
			c0,0.5,0.1,11.2-4,15.6S607.9,210.6,604.3,210.6z M589.3,188.1c0,2,0.4,10.7,3.7,14.2c3.9,4.3,8.2,6.8,11.4,6.8s7.5-2.6,11.4-6.8
			c3.3-3.6,3.6-12.2,3.7-14.2c-2.2-1.4-4.1-3.1-5.8-5.1c-3,2.8-7.8,2.6-8,2.6c-0.3,0-0.6-0.2-0.7-0.5c-0.1-0.3,0-0.6,0.3-0.8
			c0.7-0.5,1.4-1.1,2-1.7c-5.5,3-11.8,2.5-13.3,2.3C592.4,186.1,590.9,187.2,589.3,188.1z"/>
		<path class="st0" d="M585.3,193.2c0.5,3.4,2.6,6.5,4.8,5.5c-0.9-3-1.4-6-1.6-9.1C587.1,188.2,584.8,189.9,585.3,193.2z"/>
		<path d="M589.3,199.7c-0.5,0-1-0.1-1.4-0.4c-1.6-0.9-2.9-3.3-3.3-6l0,0c-0.3-2.1,0.3-3.9,1.7-4.7c0.9-0.5,2-0.3,2.8,0.4
			c0.1,0.1,0.2,0.3,0.2,0.5c0.1,3,0.6,6,1.5,8.9c0.1,0.4-0.1,0.7-0.4,0.9C590.1,199.6,589.7,199.6,589.3,199.7z M587.4,189.8
			c-0.1,0-0.3,0-0.4,0.1c-0.7,0.3-1.2,1.5-1,3.2l0,0c0.3,2.2,1.4,4.3,2.6,4.9c0.2,0.1,0.4,0.2,0.6,0.2c-0.7-2.7-1.2-5.4-1.3-8.2
			C587.7,189.9,587.6,189.8,587.4,189.8L587.4,189.8z"/>
		<path class="st0" d="M620.1,189.6c-0.1,3.1-0.6,6.2-1.6,9.1c2.2,1,4.3-2.1,4.8-5.5S621.6,188.2,620.1,189.6z"/>
		<path d="M619.3,199.7c-0.4,0-0.8-0.1-1.1-0.2c-0.3-0.2-0.5-0.5-0.4-0.9c0.9-2.9,1.4-5.9,1.5-8.9c0-0.2,0.1-0.4,0.2-0.5
			c0.7-0.7,1.8-0.9,2.8-0.4c1.4,0.7,2,2.5,1.7,4.7c-0.4,2.7-1.8,5.1-3.3,6C620.3,199.5,619.8,199.7,619.3,199.7z M620.8,190
			c-0.1,2.8-0.6,5.5-1.3,8.2c0.2,0,0.4-0.1,0.6-0.2c1.2-0.6,2.2-2.7,2.6-4.9c0.3-1.7-0.3-2.8-1-3.2C621.3,189.8,621,189.8,620.8,190
			L620.8,190z"/>
		<path class="st4" d="M623.6,175.4c-1.1-5.3-5.2-8.3-8.6-7.7c-0.5-1.6-1.8-4.4-7.8-5.2s-14.8,2.8-19.4,9.9
			c-3.7,5.6-3.4,13,0.8,18.3h0.1c-0.2-1.9-0.1-3.2-0.1-3.2c1.8-1,3.5-2.2,5.1-3.5c0,0,10.3,1.6,16.7-4.8c-1.1,2.2-2.7,4.1-4.7,5.5
			c0,0,5.3,0.2,8-3c0,0,3.5,4.2,6.5,5.8c0,0,0,1.3-0.1,3.1l0,0C623,186.3,624.8,180.8,623.6,175.4z"/>
		<path d="M588.7,191.6L588.7,191.6h-0.2c-0.2,0-0.3-0.1-0.4-0.2c-4.4-5.5-4.7-13.3-0.8-19.2c4.7-7.4,13.9-11,20.1-10.3
			c5.5,0.7,7.4,3.1,8.2,5.1c3.5-0.3,7.7,2.6,8.9,8.3c1,5-0.3,10.6-3.7,15.9v0.1c-0.2,0.3-0.5,0.4-0.8,0.2c-0.3-0.1-0.5-0.4-0.5-0.7
			c0.1-1.2,0.1-2.1,0.1-2.6c-2.2-1.4-4.1-3.1-5.8-5.1c-3,2.8-7.8,2.6-8,2.6c-0.3,0-0.6-0.2-0.7-0.5c-0.1-0.3,0-0.6,0.3-0.8
			c0.7-0.5,1.4-1.1,2-1.7c-5.5,3-11.8,2.5-13.3,2.3c-1.4,1.2-3,2.3-4.6,3.2c0,0.5,0,1.5,0.1,2.7c0,0.2-0.1,0.4-0.2,0.6
			C589.1,191.5,588.9,191.6,588.7,191.6z M605.5,163.2c-6.9,0.3-13.3,3.9-17.1,9.7c-3,4.7-3.3,10.7-0.6,15.6c0-0.3,0-0.6,0-0.8
			c0-0.3,0.2-0.5,0.4-0.6c1.8-0.9,3.4-2.1,4.9-3.4c0.2-0.1,0.4-0.2,0.6-0.2c0.1,0,10,1.5,16.1-4.6c0.2-0.2,0.6-0.3,0.9-0.1
			c0.3,0.2,0.4,0.6,0.2,0.9c-0.8,1.6-1.8,3-3.1,4.3c2-0.2,3.8-1.1,5.2-2.6c0.1-0.1,0.3-0.2,0.5-0.2s0.4,0.1,0.5,0.3
			c0,0,3.4,4.1,6.3,5.6c0.2,0.1,0.4,0.4,0.4,0.6v0.2c2.1-3.7,2.8-8.1,2.1-12.3l0,0c-0.8-4-4-7.8-7.8-7.1c-0.4,0.1-0.7-0.1-0.8-0.5
			c-0.4-1.2-1.4-4-7.2-4.7C606.6,163.2,606,163.2,605.5,163.2L605.5,163.2z"/>
		<path class="st0" d="M591.5,178.1c-0.1,0-0.1,0-0.2,0c-0.2-0.1-0.4-0.4-0.3-0.6c1.6-3.6,4.3-6.7,7.7-8.7c0.2-0.1,0.5,0,0.7,0.2
			c0.1,0.2,0,0.5-0.2,0.6l0,0c-3.2,2-5.7,4.8-7.2,8.2C591.9,178,591.7,178.1,591.5,178.1z"/>
		<ellipse cx="597.5" cy="189.3" rx="1.2" ry="1.4"/>
		<ellipse cx="611.2" cy="189.3" rx="1.2" ry="1.4"/>
		<path d="M605.3,197.4h-1.9c-0.3,0-0.5-0.2-0.5-0.5s0.2-0.5,0.5-0.5h1.9c0.3,0,0.5,0.2,0.5,0.5S605.5,197.4,605.3,197.4z"/>
		<path d="M604.3,202.1c-1.9,0-4.1-0.6-4.7-1.9c-0.1-0.2,0-0.5,0.3-0.6s0.5,0,0.6,0.3l0,0c0.3,0.6,1.8,1.3,3.8,1.3s3.5-0.7,3.8-1.3
			c0.1-0.2,0.4-0.4,0.6-0.3s0.4,0.4,0.3,0.6l0,0C608.5,201.5,606.2,202.1,604.3,202.1z"/>
		<path d="M604.3,204.8c-1,0-2-0.3-2.8-0.9c-0.2-0.2-0.2-0.5,0-0.7s0.5-0.2,0.7-0.1c1.3,0.8,3,0.8,4.3,0c0.2-0.2,0.5-0.2,0.7,0.1
			c0.2,0.2,0.2,0.5,0,0.7C606.3,204.5,605.3,204.8,604.3,204.8z"/>
		<path class="st0" d="M602.7,284.9c-3.1-2.3-6.3-4.3-9.7-6c-2.3-1.1-9.1-2.6-9.1-2.6c-2.4,3.3-5.3,6.2-8.5,8.8
			c-0.1,3.3,2.4,6.1,5.7,6.4c0,0,1.1,6,1.5,8.4s3.3,1.8,3-0.8s-1.1-9.5-1.1-9.5s4,5.1,5.9,8.3s4.6,1.2,2.9-1.9s-5.3-9.8-5.3-9.8
			s7.2,5.6,9.1,7.7s4.2-0.6,2.2-2.6s-6.3-6.7-8.5-8.6c0,0,6.8,2.3,9.7,4.3S604.5,286.5,602.7,284.9z"/>
		<path d="M584.1,302.1c-1.1,0-2.1-0.9-2.2-2.1c-0.3-1.9-1.2-6.3-1.4-7.9c-3.4-0.6-5.9-3.6-5.8-7.1c0-0.2,0.1-0.4,0.3-0.5
			c3.1-2.5,5.9-5.4,8.3-8.6c0.2-0.2,0.5-0.4,0.8-0.3s6.9,1.5,9.3,2.6c3.5,1.7,6.8,3.8,9.9,6.1l0,0c1.1,0.8,1.5,2.3,0.8,3.5
			c-0.6,0.8-1.9,1.2-3.8-0.1c-2-1.2-4.1-2.2-6.3-3c1.2,1.2,2.5,2.5,3.6,3.7l2.5,2.5c0.8,0.7,1.2,1.9,0.9,2.9
			c-0.2,0.8-0.8,1.4-1.6,1.6c-0.9,0.2-1.9-0.2-2.5-0.9c-1.1-1.2-4.1-3.6-6.3-5.5c1.2,2.2,2.7,5,3.6,6.6c1.1,2,0.6,3.7-0.5,4.3
			s-2.5,0.3-3.7-1.7c-1.1-1.8-2.9-4.3-4.2-6.1c0.3,2.3,0.6,5.4,0.8,6.9c0.3,1.4-0.6,2.7-1.9,3h-0.1
			C584.2,302.1,584.2,302.1,584.1,302.1z M576.1,285.5c0.1,2.8,2.2,5.1,5,5.4c0.3,0,0.6,0.3,0.7,0.6c0,0,1.1,6,1.5,8.4
			c0.1,0.6,0.4,1,0.8,0.9s0.8-0.5,0.7-1.4c-0.3-2.5-1.1-9.4-1.1-9.5c0-0.3,0.1-0.6,0.4-0.8c0.3-0.1,0.6,0,0.8,0.2s4,5.1,5.9,8.4
			c0.7,1.1,1.4,1.4,1.8,1.2s0.6-1.1-0.1-2.4c-1.7-3.1-5.2-9.7-5.3-9.8c-0.2-0.3-0.1-0.7,0.2-0.9c0.3-0.2,0.6-0.2,0.9,0
			c0.3,0.2,7.3,5.7,9.2,7.8c0.2,0.4,0.7,0.6,1.1,0.5c0.3-0.1,0.5-0.3,0.6-0.6c0.1-0.6-0.1-1.1-0.5-1.5c-0.6-0.6-1.5-1.5-2.5-2.5
			c-2-2.1-4.5-4.7-6-6c-0.3-0.3-0.4-0.7-0.1-1c0.2-0.2,0.5-0.3,0.8-0.2c0.3,0.1,7,2.4,9.9,4.4c1,0.7,1.7,0.7,1.9,0.4
			s0.1-0.9-0.5-1.5c-3-2.2-6.2-4.2-9.5-5.9c-2.8-1-5.6-1.8-8.5-2.4C581.8,280.2,579.1,283,576.1,285.5L576.1,285.5z"/>
		<path class="st0" d="M615.4,292.4c-2,0.1-4.3,0.1-6.9,0.1H608v-5h-2.4c0,1.2-0.1,3.8-0.1,5v0.2c0,1.3,1.1,1.8,2.5,1.8
			c1.8,0,5.7-0.3,6.7-0.5S615.4,292.4,615.4,292.4z"/>
		<path d="M608,294.9c-1.8,0-2.9-0.9-2.9-2.3v-0.2c0-1.2,0.1-3.9,0.1-5c0-0.3,0.2-0.5,0.5-0.5l0,0h2.4c0.1,0,0.2,0.1,0.3,0.1
			c0.1,0.1,0.1,0.2,0.1,0.3v4.6l0,0c2.4,0,4.7,0,6.9-0.1c0.2,0,0.4,0.1,0.5,0.4c0.1,0.5,0.1,1.1-0.2,1.6c-0.2,0.3-0.5,0.5-0.9,0.6
			C613.7,294.6,609.8,294.9,608,294.9z M606.1,287.9c0,1.3-0.1,3.5-0.1,4.5v0.2c0,0.9,0.7,1.3,2,1.3c1.8,0,5.6-0.3,6.7-0.5
			c0.1,0,0.2-0.1,0.2-0.1c0.1-0.1,0.1-0.3,0.1-0.5c-2.1,0.1-4.2,0.1-6.5,0.1H608c-0.3,0-0.5-0.2-0.5-0.5v-4.5H606.1z"/>
		<ellipse class="st0" cx="608.4" cy="289.8" rx="1.1" ry="0.8"/>
		<path d="M608.4,291c-0.9,0-1.6-0.5-1.6-1.2s0.7-1.2,1.6-1.2s1.6,0.5,1.6,1.2S609.3,291,608.4,291z M608.4,289.5
			c-0.4,0-0.6,0.2-0.6,0.3s0.2,0.3,0.6,0.3s0.6-0.2,0.6-0.3S608.8,289.5,608.4,289.5L608.4,289.5z"/>
		<path d="M554.8,250.6c-0.1,0-0.3,0-0.4-0.1c-0.3-0.2-0.4-0.7-0.2-1c0.5-0.8,12.5-18.4,15.7-22.4c0.2-0.3,0.7-0.4,1-0.1
			c0.3,0.2,0.4,0.7,0.1,1c-3.2,4-15.5,22.2-15.7,22.4C555.3,250.5,555.1,250.6,554.8,250.6z"/>
		<path class="st0" d="M719.2,321.6c0-1.9-0.2-3.9-0.6-5.8c-2.8,0.8-5.7,1.3-8.7,1.3c0.1,1.5,0.1,3-0.1,4.5"/>
		<path d="M709.9,322.3L709.9,322.3c-0.5,0-0.8-0.4-0.7-0.8l0,0c0.1-1.5,0.1-2.9,0.1-4.4c0-0.2,0.1-0.4,0.2-0.5
			c0.1-0.1,0.3-0.2,0.5-0.2c2.9,0,5.7-0.4,8.5-1.2c0.2-0.1,0.4,0,0.6,0.1c0.2,0.1,0.3,0.3,0.3,0.5c0.5,2,0.7,4,0.7,6
			c0,0.4-0.4,0.7-0.8,0.7s-0.7-0.4-0.7-0.8l0,0c0-1.6-0.1-3.2-0.5-4.8c-2.4,0.6-4.9,1-7.4,1.1c0,1.3,0,2.6-0.1,3.8
			C710.5,322,710.2,322.3,709.9,322.3z"/>
		<path class="st0" d="M709.9,321.6c0.1-1.5,0.1-3,0.1-4.5c-0.4-9.2-4-18.9-6.6-23.8l-0.1-4.6c0,0-5,1.8-15.5,1.8
			s-16.5-1.7-16.5-1.7v4.7c0,0-8.5,10-8.5,28.1"/>
		<path d="M709.9,322.3L709.9,322.3c-0.5,0-0.8-0.4-0.7-0.8l0,0c0.1-1.5,0.1-2.9,0.1-4.4c-0.4-9.5-4.3-19.2-6.5-23.5
			c-0.1-0.1-0.1-0.2-0.1-0.3l-0.1-3.6c-4.9,1.2-9.8,1.7-14.8,1.6c-5.3,0.1-10.6-0.4-15.8-1.5v3.8c0,0.2-0.1,0.3-0.2,0.5
			c-1.7,2.2-3.1,4.6-4.2,7.1c-2.8,6.4-4.2,13.4-4.2,20.4c0,0.4-0.3,0.7-0.7,0.7s-0.7-0.3-0.7-0.7c0-16.9,7.3-26.7,8.5-28.3v-4.4
			c0-0.4,0.3-0.7,0.7-0.7c0.1,0,0.1,0,0.2,0c0.1,0,6,1.7,16.3,1.7s15.3-1.7,15.3-1.8c0.2-0.1,0.5-0.1,0.7,0.1
			c0.2,0.1,0.3,0.3,0.3,0.6l0.1,4.4c2.3,4.4,6.1,14.3,6.6,24c0.1,1.5,0,3-0.1,4.6C710.6,322,710.2,322.3,709.9,322.3z"/>
		<path class="st13" d="M721.3,294.6c-1.5-7.1-5-18-6.6-25.7s-2.7-19.7-3.2-22.9c-0.6-3.3-2.8-6.1-5.9-7.5l-11.4-5.3
			c-0.4,3.7-1.5,7.2-3.2,10.5c-3.4-3.7-7-7.3-10.8-10.6c0,0-10.1,2.1-12.9,3.1c-3.6,1.2-6.4,4.1-7.5,7.8l-3.5,11.6l9.2,21.2l5.8,12
			c0,0,6,1.7,16.5,1.7s15.5-1.8,15.5-1.8l0.1,4.6c2.6,4.9,6.2,14.6,6.6,23.8c2.9,0,5.9-0.4,8.7-1.3l-1.1-8.4
			C717.6,307.4,722.8,301.7,721.3,294.6z"/>
		<path d="M709.9,317.8c-0.4,0-0.7-0.3-0.7-0.7c-0.4-9.5-4.3-19.2-6.5-23.5c-0.1-0.1-0.1-0.2-0.1-0.3l-0.1-3.6
			c-4.9,1.2-9.8,1.7-14.8,1.6c-10.5,0-16.4-1.7-16.7-1.7c-0.2-0.1-0.4-0.2-0.5-0.4l-5.8-12.1l-9.2-21.2c-0.1-0.2-0.1-0.3,0-0.5
			l3.5-11.6c1.1-3.9,4.1-7,7.9-8.3c2.8-1,12.6-3,13-3.1c0.2,0,0.5,0,0.6,0.2c3.6,3.1,6.9,6.4,10.1,9.8c1.4-2.9,2.3-6,2.7-9.2
			c0-0.2,0.1-0.4,0.3-0.6c0.2-0.1,0.5-0.1,0.7,0l11.4,5.3c3.3,1.5,5.6,4.5,6.3,8c0.2,1.1,0.4,3,0.7,5.6c0.6,5.1,1.4,12.1,2.5,17.2
			c0.8,3.9,2.1,8.7,3.4,13.3s2.5,8.9,3.2,12.4l0,0c1.4,6.6-2.7,12-3.7,13.2l1,8.1c0,0.3-0.2,0.7-0.5,0.8
			C715.9,317.4,712.9,317.8,709.9,317.8L709.9,317.8z M704.1,293.1c3.6,7.3,5.8,15.2,6.5,23.2c2.4-0.1,4.9-0.4,7.2-1.1l-1-7.8
			c0-0.2,0-0.4,0.2-0.6c0,0,5-5.5,3.6-12.2c-0.7-3.5-1.9-7.8-3.2-12.3s-2.6-9.4-3.4-13.4c-1.1-5.2-1.9-12.2-2.5-17.4
			c-0.3-2.5-0.5-4.5-0.7-5.5c-0.6-3.1-2.6-5.7-5.5-6.9l-10.5-4.9c-0.5,3.4-1.6,6.7-3.2,9.7c-0.1,0.2-0.3,0.3-0.5,0.4
			c-0.2,0-0.5-0.1-0.6-0.2c-3.3-3.6-6.8-7-10.4-10.2c-1.8,0.4-10.1,2.2-12.5,3c-3.4,1.1-6,3.9-7,7.3l-3.4,11.3l9.1,20.9l5.6,11.7
			c5.3,1.1,10.6,1.7,16,1.6c10.2,0,15.2-1.8,15.2-1.8c0.2-0.1,0.5-0.1,0.7,0.1c0.2,0.1,0.3,0.3,0.3,0.6L704.1,293.1z"/>
		<path class="st0" d="M691,243.7c1.7-3.2,2.8-6.8,3.2-10.5c0,0-0.1-4.7,0.1-8.5l-13.4-0.3c0,2.9-0.2,5.9-0.6,8.8
			C684,236.4,687.6,240,691,243.7z"/>
		<path d="M691,244.4c-0.2,0-0.4-0.1-0.5-0.2c-3.4-3.7-6.9-7.2-10.7-10.5c-0.2-0.2-0.3-0.4-0.2-0.7c0.4-2.9,0.6-5.7,0.6-8.6
			c0-0.2,0.1-0.4,0.2-0.5c0.1-0.1,0.3-0.2,0.5-0.2l13.5,0.3c0.2,0,0.4,0.1,0.5,0.2c0.1,0.1,0.2,0.3,0.2,0.5
			c-0.2,3.8-0.1,8.4-0.1,8.5v0.1c-0.4,3.8-1.5,7.4-3.3,10.7C691.5,244.2,691.3,244.3,691,244.4L691,244.4z M681,232.8
			c3.4,3,6.7,6.2,9.8,9.6c1.4-2.9,2.3-6,2.6-9.2c0-0.4-0.1-4.3,0.1-7.8l-12-0.3C681.5,227.7,681.3,230.3,681,232.8z"/>
		<path d="M680,248.1c-1.1,0-2.1-0.3-2.9-0.9c-0.9-0.8-1.3-2-1.2-3.2c0.2-3.3,0.5-7.5,0.5-7.6c0-0.3,0.2-0.5,0.5-0.5l0,0
			c0.3,0,0.5,0.3,0.4,0.5c0,0-0.3,4.3-0.5,7.6c-0.1,0.9,0.2,1.8,0.8,2.4c1,0.7,2.4,0.9,3.6,0.6c2.2-0.7,4.3-1.7,6.2-2.8
			c0.2-0.1,0.5-0.1,0.7,0.2l0,0c0.1,0.2,0,0.5-0.2,0.7c-2,1.2-4.2,2.2-6.5,2.9C681,248,680.5,248.1,680,248.1z"/>
		<path d="M700.9,248.5c-0.5,0-1.1-0.2-1.5-0.4c-2.3-1.3-5.2-3-5.2-3c-0.2-0.1-0.3-0.4-0.2-0.7c0.1-0.2,0.4-0.3,0.7-0.2
			c0,0,2.9,1.7,5.2,3c0.5,0.4,1.2,0.4,1.8,0.1c0.7-0.8,0.8-1.9,0.4-2.8c-0.7-2.4-3.7-6.9-3.7-6.9c-0.1-0.2-0.1-0.5,0.1-0.7
			c0.2-0.1,0.5-0.1,0.7,0.1c0.1,0.2,3,4.7,3.8,7.2c0.5,1.3,0.3,2.8-0.7,3.9C701.9,248.4,701.4,248.5,700.9,248.5z"/>
		<path d="M703.2,289.4c-0.2,0-0.3-0.1-0.5-0.2c-0.3-0.2-0.4-0.7-0.1-1c2.3-2.9,6.6-12.8,6-20.4c-0.5-7.5-4.2-17.8-4.2-17.9
			c-0.1-0.4,0.1-0.8,0.4-0.9c0.4-0.1,0.8,0.1,0.9,0.4c0.2,0.4,3.8,10.6,4.3,18.3c0.6,8.1-3.8,18.3-6.3,21.4
			C703.6,289.3,703.5,289.4,703.2,289.4z"/>
		
			<rect x="673.4" y="259.3" transform="matrix(9.045880e-02 -0.9959 0.9959 9.045880e-02 356.6147 933.5117)" class="st0" width="31.9" height="24.4"/>
		<path d="M700.1,289.2L700.1,289.2l-24.4-2.2c-0.2,0-0.4-0.1-0.5-0.3c-0.1-0.1-0.2-0.3-0.2-0.5l2.9-31.8c0-0.4,0.4-0.7,0.8-0.6
			L703,256c0.4,0,0.7,0.4,0.7,0.8l-2.9,31.8C700.8,288.9,700.5,289.2,700.1,289.2L700.1,289.2z M676.6,285.6l22.9,2.1l2.8-30.3
			l-22.9-2.1L676.6,285.6z"/>
		<path d="M677.7,286.9L677.7,286.9c-0.3,0-0.5-0.3-0.4-0.5l0,0l2.9-31.8c0-0.3,0.3-0.5,0.5-0.4l0,0c0.3,0,0.5,0.3,0.4,0.5l0,0
			l-2.9,31.8C678.2,286.8,677.9,287,677.7,286.9L677.7,286.9z"/>
		<path class="st5" d="M659.8,244c-2.3,5.3-7.6,22.6-8.2,26.8c-0.6,5.4,2.3,10.6,7.3,13c5.7,2.6,12.8,5.6,16,6.4s7.4-2.5,7.4-2.5
			l8.5,1.1c1-4.3,1.5-8.8,1.5-13.2l-6.5-1c0,0-2.2-4.4-6.8-4.2s-9.2,0.5-12.6-0.4l3.9-16.2"/>
		<path d="M675.9,291c-0.4,0-0.8,0-1.2-0.1c-2.6-0.6-8-2.8-16.1-6.4c-5.2-2.5-8.3-8-7.7-13.8c0.6-4.1,5.8-21.5,8.3-27
			c0.1-0.4,0.6-0.5,0.9-0.4h0.1c0.4,0.1,0.5,0.6,0.4,0.9c0,0,0,0,0,0.1c-2.4,5.4-7.5,22.6-8.2,26.6c-0.5,5.1,2.2,10,6.8,12.2
			c7.9,3.6,13.4,5.8,15.9,6.4c2.8,0.7,6.7-2.3,6.8-2.3c0.2-0.1,0.3-0.2,0.5-0.1l7.9,1c0.8-3.9,1.3-7.8,1.3-11.8l-5.9-0.9
			c-0.2,0-0.4-0.2-0.5-0.4c-0.2-0.2-2.2-4-6.2-3.8h-1.1c-4.3,0.2-8.5,0.4-11.7-0.5c-0.4-0.1-0.6-0.5-0.5-0.9l4-16.2
			c0.2-0.3,0.7-0.4,1-0.2c0.2,0.1,0.3,0.3,0.3,0.5l-3.8,15.5c2.9,0.6,6.7,0.5,10.6,0.3h1.1c4.3-0.2,6.7,3.1,7.3,4.2l6.2,0.9
			c0.3,0.1,0.6,0.3,0.6,0.7c0,4.5-0.5,9-1.5,13.4c-0.1,0.4-0.4,0.6-0.8,0.5l-8.2-1C681.6,289.1,678.7,291,675.9,291z"/>
		<path class="st0" d="M703.8,275.2c-1.7,0-3.7,0.1-3.7,0.1c3.2-2.2,2-3.6,0.6-3.2c-1.8,0.5-3.6,1-5.4,1.3c-1.3,0.3-2.4,1-3.1,2.1
			c0,4-0.4,8.1-1.2,12.1c2.3,0.5,4.8,0.6,7.1,0.5c1.6,0,3-1,3.4-2.5c0.5-1.5,1.5-6.6,1.5-6.6C705.5,278,705.6,275.2,703.8,275.2z"/>
		<path d="M695.9,288.9c-1.7,0-3.4-0.2-5.1-0.5c-0.4-0.1-0.6-0.5-0.5-0.9c0.8-3.9,1.2-7.9,1.2-11.9c0-0.1,0-0.3,0.1-0.4
			c0.8-1.3,2.1-2.1,3.6-2.4s3.1-0.6,4.6-1.1l0.7-0.2c0.8-0.3,1.8,0,2.3,0.8c0.2,0.4,0.3,1.2-0.6,2.2h1.7c0.9,0,1.7,0.6,1.8,1.5
			c0.2,1.5-0.6,2.9-2,3.4c-0.2,1.2-1,5-1.4,6.3c-0.5,1.8-2.2,3-4,3C697.4,288.9,696.7,288.9,695.9,288.9z M691.9,287.1
			c2.1,0.4,4.2,0.5,6.2,0.3c1.3,0,2.4-0.8,2.8-2c0.5-1.4,1.5-6.5,1.5-6.5c0-0.2,0.2-0.4,0.4-0.5c0.9-0.2,1.5-1.1,1.5-2
			c0-0.2-0.2-0.4-0.4-0.3l0,0c-1.7,0-3.6,0.1-3.6,0.1c-0.4,0-0.7-0.3-0.8-0.7c0-0.3,0.1-0.5,0.3-0.7c1.5-1.1,1.8-1.8,1.7-1.9
			c-0.2-0.1-0.4-0.1-0.6,0l-0.7,0.2c-1.6,0.5-3.1,0.8-4.8,1.1c-1,0.2-1.9,0.8-2.5,1.6C693,279.6,692.6,283.4,691.9,287.1
			L691.9,287.1z"/>
		<path class="st0" d="M700.2,275.4c-1.5,0.1-3.5,0-3.5,0"/>
		<path d="M697.9,276.1h-1.2c-0.4,0-0.7-0.3-0.7-0.7c0-0.4,0.3-0.7,0.7-0.7c0,0,2,0,3.4,0c0.4,0,0.7,0.3,0.8,0.7
			c0,0.4-0.3,0.7-0.7,0.8C699.4,276.1,698.6,276.1,697.9,276.1z"/>
		<path d="M658.8,277.7c-0.3,0-0.5-0.2-0.5-0.5c0-0.1,0-0.2,0.1-0.3c1.5-2.2,3.3-4.3,5.3-6c0.2-0.2,0.5-0.1,0.7,0.1s0.1,0.5-0.1,0.7
			l0,0c-2,1.7-3.7,3.6-5.1,5.8C659.1,277.6,658.9,277.7,658.8,277.7z"/>
		<path d="M682.7,285.8L682.7,285.8c-0.3,0-0.5-0.3-0.5-0.5l1-7.2c0-0.3,0.3-0.4,0.5-0.4c0.3,0,0.5,0.3,0.4,0.5l0,0l-1,7.2
			C683.1,285.6,682.9,285.8,682.7,285.8z"/>
		<path d="M687.7,295.4c-4.7,0-9.4-0.4-14.1-1.2c-0.3,0-0.4-0.3-0.4-0.6l0,0c0.1-0.3,0.3-0.4,0.6-0.4c4.6,0.8,9.3,1.2,13.9,1.1
			c4.4,0.1,8.8-0.3,13.2-1.2c0.3-0.1,0.5,0.1,0.6,0.4s-0.1,0.5-0.4,0.6l0,0C696.7,295,692.2,295.5,687.7,295.4z"/>
		<path d="M710.6,308.5c-0.3,0-0.5-0.2-0.5-0.5l0,0c0-0.3,0.2-0.5,0.5-0.5c1.6,0,3.2-0.2,4.8-0.6c0.3-0.1,0.5,0,0.6,0.3
			s0,0.5-0.3,0.6l0,0C714,308.3,712.3,308.5,710.6,308.5z"/>
		<path class="st4" d="M703.9,213.8c1.3-4.4,3.2-10.9,0.5-17.1c-4-9.3-14.7-13.5-23.9-9.6c-4.3,1.8-7.7,5.3-9.6,9.6
			c-2.7,6.2-0.8,12.7,0.5,17.1s1.2,10.9-2.5,13.7c2.9-0.8,5.2-3.1,5.8-6.1c-2.1-4.4-2-12.9-2-12.9c2.6-1.5,8.5-3.1,15-3.1
			s12.4,1.6,15,3.1c0,0,0.1,8.5-2,12.9c0.6,3,2.8,5.4,5.8,6.1C702.7,224.7,702.6,218.2,703.9,213.8z"/>
		<path d="M706.5,228.2L706.5,228.2c-3.3-0.8-5.8-3.4-6.4-6.7c-0.1-0.2-0.1-0.3,0-0.5c1.7-3.7,1.9-10.4,1.9-12.2
			c-2.7-1.4-8.3-2.8-14.2-2.8s-11.5,1.4-14.2,2.8c0,1.7,0.2,8.5,1.9,12.2c0.1,0.1,0.1,0.3,0,0.5c-0.6,3.3-3.1,5.9-6.3,6.7
			c-0.3,0.1-0.7-0.1-0.8-0.4c-0.1-0.3,0-0.7,0.2-0.9c3.3-2.5,3.6-8.4,2.2-12.9c-1.2-4.1-3.3-11-0.5-17.6c4.2-9.6,15.4-14,25-9.8
			c4.4,1.9,7.9,5.4,9.8,9.8c2.8,6.6,0.7,13.5-0.5,17.6c-1.4,4.5-1,10.4,2.2,12.9c0.3,0.2,0.4,0.7,0.1,1
			C706.8,228.1,706.6,228.2,706.5,228.2L706.5,228.2z M673,218.4c0.2,2.4-0.3,4.8-1.4,6.9c1.2-1,2-2.4,2.4-3.9
			C673.6,220.5,673.2,219.5,673,218.4z M701.4,221.4c0.4,1.5,1.2,2.9,2.4,3.9c-1.1-2.1-1.5-4.5-1.4-6.9
			C702.2,219.5,701.8,220.5,701.4,221.4L701.4,221.4z M687.7,204.6c6.5,0,12.6,1.6,15.3,3.2c0.2,0.1,0.4,0.4,0.4,0.6
			c0,0.2,0,2.6-0.3,5.6c0-0.1,0.1-0.3,0.1-0.5c1.3-4.2,3.2-10.5,0.6-16.6c-3.8-8.9-14.1-13-23-9.2c-4.1,1.8-7.4,5.1-9.2,9.2
			c-2.6,6.1-0.7,12.4,0.6,16.6c0,0.1,0.1,0.3,0.1,0.5c-0.3-2.9-0.3-5.4-0.3-5.6c0-0.3,0.1-0.5,0.4-0.6
			C675.1,206.3,681.2,204.7,687.7,204.6L687.7,204.6z"/>
		<path class="st0" d="M671.5,213.8c-0.2-0.6-0.4-1.3-0.6-2c-1.9,0.4-1.4,6.6,1.3,8C672.3,217.8,672.1,215.8,671.5,213.8z"/>
		<path d="M672.3,220.6c-0.1,0-0.2,0-0.3-0.1c-2.3-1.2-3.1-4.9-2.8-7c0.2-1.8,1.1-2.2,1.7-2.4c0.4-0.1,0.7,0.1,0.8,0.5
			c0.2,0.7,0.4,1.3,0.6,1.9l0,0c0.6,2,0.9,4.2,0.8,6.3c0,0.2-0.1,0.5-0.4,0.6C672.5,220.6,672.4,220.6,672.3,220.6z M670.6,213.4
			c0,0.1-0.1,0.2-0.1,0.3c-0.2,1.6,0.2,3.1,1,4.5c-0.1-1.4-0.3-2.8-0.7-4.1l0,0L670.6,213.4z"/>
		<path class="st0" d="M703.9,213.8c0.2-0.6,0.4-1.3,0.6-2c1.9,0.4,1.4,6.6-1.3,8C703.1,217.8,703.4,215.8,703.9,213.8z"/>
		<path d="M703.2,220.6c-0.1,0-0.3,0-0.4-0.1c-0.2-0.1-0.4-0.3-0.4-0.6c-0.1-2.1,0.2-4.3,0.8-6.3l0,0c0.2-0.6,0.4-1.3,0.6-1.9
			c0.1-0.4,0.5-0.6,0.8-0.5c0.5,0.1,1.4,0.6,1.7,2.4c0.3,2.2-0.5,5.8-2.8,7C703.4,220.6,703.3,220.6,703.2,220.6z M704.6,214
			L704.6,214c-0.4,1.4-0.6,2.7-0.7,4.1c0.8-1.3,1.2-2.9,1-4.5c0-0.1,0-0.2-0.1-0.3L704.6,214z"/>
		<path class="st0" d="M702.7,208.5c-2.6-1.5-8.5-3.1-15-3.1c-4,0-7.9,0.6-11.7,1.8c0-7.3,2.5-11.5,2.5-11.5
			c-3.6,3.3-5.7,7.9-5.7,12.8c0,0-0.1,8.5,2,12.9c0,0,0,0.1,0.1,0.1c2.2,4.4,8.2,8.9,12.9,8.9s10.7-4.4,12.9-8.9l0.1-0.1
			C702.8,217,702.7,208.5,702.7,208.5z"/>
		<path d="M687.7,231.1c-5.3,0-11.4-4.9-13.5-9.3l-0.1-0.1c-2.1-4.5-2.1-12.9-2.1-13.2c0.1-5.1,2.2-9.9,6-13.4
			c0.3-0.2,0.7-0.2,0.9,0c0.3,0.2,0.3,0.6,0.2,0.9c0,0-2.2,3.7-2.4,10.1c3.6-1,7.3-1.5,11-1.5c6.5,0,12.6,1.6,15.3,3.2
			c0.2,0.1,0.4,0.4,0.4,0.6c0,0.4,0,8.7-2.1,13.2l-0.1,0.1C699.1,226.2,693,231.1,687.7,231.1z M676.2,199.5c-1.8,2.7-2.7,5.8-2.8,9
			c0,0.1,0,8.4,1.9,12.6l0.1,0.1c2.2,4.4,8,8.4,12.2,8.4s10.1-4,12.2-8.4l0.1-0.1c1.7-3.7,1.9-10.4,1.9-12.2
			c-2.7-1.4-8.3-2.8-14.2-2.8c-3.9,0-7.8,0.6-11.5,1.7c-0.2,0.1-0.5,0-0.7-0.1s-0.3-0.3-0.3-0.6
			C675.2,204.5,675.6,201.9,676.2,199.5L676.2,199.5z"/>
		<path class="st0" d="M694.9,203.1c-0.3,0-0.5-0.2-0.5-0.5c0-1.8-0.4-3.6-1.1-5.3c-0.2-0.2-0.1-0.5,0.1-0.7s0.5-0.1,0.7,0.1
			c0,0,0,0.1,0.1,0.1c0.9,1.8,1.3,3.8,1.2,5.8C695.4,202.8,695.2,203,694.9,203.1L694.9,203.1L694.9,203.1z"/>
		<path class="st0" d="M700.3,203.7c-0.3,0-0.5-0.2-0.5-0.5c-0.3-6.8-4.2-10-4.2-10c-0.2-0.2-0.2-0.5-0.1-0.7
			c0.2-0.2,0.5-0.2,0.7-0.1l0,0c0.2,0.1,4.2,3.5,4.6,10.7C700.8,203.5,700.6,203.7,700.3,203.7L700.3,203.7z"/>
		<ellipse cx="680.8" cy="211.3" rx="1.2" ry="1.4"/>
		<ellipse cx="694.6" cy="211.3" rx="1.2" ry="1.4"/>
		<path d="M688.6,218.5h-1.8c-0.3,0-0.5-0.2-0.5-0.5l0,0c0-0.3,0.2-0.5,0.5-0.5h1.8c0.3,0,0.5,0.2,0.5,0.5S688.9,218.5,688.6,218.5
			L688.6,218.5z"/>
		<path d="M687.7,222.3c-3.2,0-4.2-1-4.5-1.9c-0.1-0.2,0-0.5,0.3-0.6l0,0c0.3-0.1,0.5,0,0.6,0.3l0,0c0.3,0.8,1.5,1.3,3.6,1.3
			s3.3-0.4,3.6-1.3c0.1-0.2,0.3-0.4,0.6-0.3l0,0c0.2,0.1,0.4,0.3,0.3,0.6l0,0C691.9,221.2,690.9,222.3,687.7,222.3z"/>
		<path d="M687.7,224.6c-1.1,0.1-2.2-0.2-3.1-0.9c-0.2-0.2-0.2-0.5-0.1-0.7l0,0c0.2-0.2,0.5-0.2,0.7-0.1c1.5,0.9,3.4,0.9,4.9,0
			c0.2-0.2,0.5-0.1,0.7,0.1l0,0c0.2,0.2,0.1,0.5-0.1,0.7C689.9,224.3,688.8,224.6,687.7,224.6z"/>
		<path class="st0" d="M744.7,201.1c-0.1,0-0.1,0-0.2-0.1c-0.2-0.1-0.3-0.4-0.2-0.6l0,0c2.2-4.7,5.5-8.8,9.6-12.1
			c0.2-0.2,0.5-0.1,0.7,0.1c0.2,0.2,0.1,0.5-0.1,0.7l0,0c-3.9,3.2-7.1,7.2-9.3,11.8C745.1,201,744.9,201.1,744.7,201.1z"/>
		<path class="st0" d="M778.8,205.3L778.8,205.3c-0.3,0-0.5-0.3-0.5-0.6c0.8-5,0-10-2-12c-0.2-0.2-0.2-0.5,0-0.7s0.5-0.2,0.7,0
			c2.6,2.6,3,8.4,2.2,12.8C779.2,205.1,779,205.3,778.8,205.3z"/>
		<path d="M736.6,265.1c-0.4,0-0.7-0.3-0.7-0.6c-0.8-5.4,0.5-12,2.3-16.2c0.2-0.4,0.6-0.5,0.9-0.4c0.4,0.2,0.5,0.6,0.4,0.9l0,0
			c-1.7,4-3,10.4-2.2,15.5c0.1,0.4-0.2,0.8-0.6,0.8L736.6,265.1L736.6,265.1z"/>
		<path d="M732.5,267.3L732.5,267.3l-6.6-1c-0.3,0-0.4-0.3-0.4-0.5l0,0c0-0.3,0.3-0.4,0.5-0.4l0,0l6.5,1c0.3,0.1,0.4,0.3,0.4,0.6
			C732.9,267.2,732.8,267.3,732.5,267.3L732.5,267.3z"/>
		<path class="st11" d="M777.6,249.2c0,0,2.7,29.2,4.6,62.9c5,0.5,10,0.1,14.8-1.1c0,0-2.2-37.9-5.4-59.9"/>
		<path d="M786.5,313c-1.5,0-3-0.1-4.4-0.2c-0.3-0.1-0.6-0.3-0.6-0.7c-1.8-33.3-4.5-62.6-4.6-62.9c0-0.4,0.3-0.7,0.7-0.8
			c0.4,0,0.7,0.2,0.8,0.6l0,0c0,0.3,2.7,29.3,4.5,62.3c4.5,0.4,9,0.1,13.4-1c-0.3-4.9-2.5-39-5.4-59.3c0-0.4,0.2-0.8,0.6-0.8
			c0.4-0.1,0.8,0.2,0.8,0.6l0,0c3.2,21.8,5.4,59.6,5.5,60c0,0.3-0.2,0.6-0.5,0.7C793.7,312.6,790.1,313,786.5,313z"/>
		<path class="st0" d="M797.5,321.6c-0.4-3.5-1.1-6.9-1.9-10.3c-3.8,0.8-7.8,1.1-11.7,0.9c-0.4,3.1-0.6,6.2-0.5,9.4"/>
		<path d="M783.4,322.3c-0.4,0-0.7-0.3-0.7-0.7c-0.1-3.2,0.1-6.4,0.5-9.5c0-0.4,0.4-0.7,0.8-0.6c3.8,0.2,7.7-0.1,11.5-0.9
			c0.4-0.1,0.8,0.2,0.9,0.5c0.9,3.4,1.5,6.9,2,10.4c0,0.4-0.2,0.8-0.6,0.8c-0.4,0-0.8-0.2-0.8-0.6c-0.4-3.2-1-6.4-1.7-9.5
			c-3.5,0.7-7,1-10.5,0.8c-0.4,2.8-0.5,5.7-0.4,8.6c0,0.4-0.3,0.7-0.7,0.8L783.4,322.3z"/>
		<path class="st0" d="M764.2,237.2l4.1-9.1l-0.2-6.8l-15.3,1.3c0,0,1.2,6.2-0.3,9.9c-0.9,2.2-1.6,4.5-2.1,6.8
			c0.8,2.7,2,5.2,3.5,7.5C754,246.9,759,242.6,764.2,237.2z"/>
		<path d="M754,247.6L754,247.6c-0.3,0-0.5-0.1-0.6-0.3c-1.6-2.4-2.8-5-3.6-7.7c0-0.1,0-0.2,0-0.4c0.5-2.4,1.2-4.7,2.1-6.9
			c1.4-3.4,0.3-9.4,0.3-9.5c0-0.2,0-0.4,0.1-0.6c0.1-0.2,0.3-0.3,0.5-0.3l15.3-1.3c0.2,0,0.4,0,0.5,0.2c0.2,0.1,0.2,0.3,0.2,0.5
			l0.2,6.8c0,0.1,0,0.2-0.1,0.3l-4.1,9c0,0.1-0.1,0.1-0.1,0.2c-5.1,5.3-10.2,9.7-10.2,9.7C754.4,247.6,754.2,247.6,754,247.6z
			 M751.2,239.4c0.7,2.3,1.7,4.4,2.9,6.4c1.5-1.3,5.4-4.8,9.4-9l4-8.8l-0.1-5.9l-13.8,1.1c0.3,1.8,0.8,6.5-0.5,9.6
			C752.4,235,751.7,237.2,751.2,239.4L751.2,239.4z"/>
		<path class="st0" d="M751.7,264.4l12.4-27.2c-5.2,5.4-10.2,9.7-10.2,9.7c-1.5-2.3-2.7-4.9-3.5-7.5
			C749,245.8,748.2,255.3,751.7,264.4z"/>
		<path d="M751.7,265.2L751.7,265.2c-0.3,0-0.5-0.2-0.7-0.5c-3.7-9.4-2.7-19-1.3-25.5c0.1-0.3,0.4-0.5,0.7-0.6
			c0.3,0,0.6,0.2,0.7,0.5c0.7,2.3,1.7,4.6,3,6.6c1.5-1.3,5.5-4.9,9.5-9.1c0.3-0.3,0.7-0.3,1,0c0.2,0.2,0.3,0.6,0.2,0.8l-12.4,27.2
			C752.3,265,752,265.2,751.7,265.2z M750.7,242.2c-1.3,6.8-0.9,13.8,1.2,20.4l10-21.9c-4,3.9-7.3,6.8-7.4,6.8
			c-0.2,0.1-0.4,0.2-0.6,0.2c-0.2,0-0.4-0.1-0.5-0.3C752.3,245.7,751.4,244,750.7,242.2L750.7,242.2z"/>
		<path d="M748.1,263.2c-0.2,0-0.3-0.1-0.4-0.2c-4.1-6.1-6.8-13.2-7.7-20.5c0-0.2,0.1-0.4,0.3-0.5l4.7-1.4l-2.8-2.6
			c-0.2-0.2-0.2-0.5,0-0.7l0,0l5.8-4.7c0.2-0.2,0.5-0.1,0.7,0.1l0,0c0.2,0.2,0.1,0.5-0.1,0.7l-5.3,4.4l3,2.8
			c0.1,0.1,0.2,0.3,0.1,0.5c0,0.2-0.2,0.3-0.3,0.3l-5.1,1.5c1,7,3.5,13.7,7.5,19.6c0.2,0.2,0.1,0.5-0.1,0.7l0,0
			C748.3,263.2,748.2,263.2,748.1,263.2z"/>
		<path d="M755.7,263.2c-0.1,0-0.2,0-0.3-0.1c-0.2-0.2-0.2-0.5,0-0.7l0,0c5.9-6.1,11.3-12.6,16.2-19.5L767,240
			c-0.2-0.1-0.3-0.4-0.2-0.7c0.1-0.1,0.1-0.2,0.3-0.2l5.3-1.8l-1.6-6c-0.1-0.2,0.1-0.5,0.3-0.6l0,0c0.3-0.1,0.5,0.1,0.6,0.3l1.8,6.5
			c0.1,0.2-0.1,0.5-0.3,0.6l-4.7,1.6l4.2,2.7c0.1,0.1,0.2,0.2,0.2,0.3s0,0.3-0.1,0.4c-5,7.1-10.5,13.8-16.5,20
			C756,263.2,755.9,263.2,755.7,263.2z"/>
		<path d="M779.8,246c-0.1,0-0.1,0-0.2,0c-0.2-0.1-0.3-0.4-0.2-0.6l0,0c1.2-2.4,2.9-4.6,4.8-6.5c0.2-0.2,0.5-0.2,0.7,0
			s0.2,0.5,0,0.7c-1.9,1.8-3.4,3.9-4.6,6.3C780.2,245.9,780,246,779.8,246z"/>
		<path d="M752.4,279.2c-1.5,0.3-3.1-0.6-3.4-2.2c-0.3-1.5,0.6-3.1,2.2-3.4s3.1,0.6,3.4,2.2c0,0.2,0.1,0.4,0.1,0.6
			C754.8,277.8,753.8,279.1,752.4,279.2z M752.4,274.6c-0.7,0-1.3,0.8-1.3,1.8s0.6,1.8,1.3,1.8s1.3-0.9,1.3-1.8
			S753.1,274.6,752.4,274.6z"/>
		<path class="st0" d="M774.1,208.8c1.8-1.7,4.2,1.5,3,5.5s-3.5,4.9-4.7,4.1L774.1,208.8z"/>
		<path d="M773.3,219.4c-0.5,0-0.9-0.2-1.3-0.4c-0.2-0.2-0.4-0.4-0.3-0.7l1.7-9.6c0-0.2,0.1-0.3,0.2-0.4c0.7-0.7,1.8-0.9,2.6-0.3
			c1.4,0.9,2.5,3.5,1.6,6.6c-0.9,3.3-2.6,4.4-3.5,4.7C774,219.3,773.7,219.4,773.3,219.4z M773.2,218c0.2,0,0.4,0,0.7-0.1
			c1.1-0.4,2-1.8,2.6-3.7c0.7-2.4-0.1-4.4-1-5c-0.2-0.2-0.5-0.2-0.7,0L773.2,218z"/>
		<path class="st0" d="M745.7,208.2c0,0,0.1,7.9,2.2,11.4s7.4,8.4,12.7,8.4s10.6-5.7,12.5-9.9s3-17.8-4.8-24.8
			c0,0-4.9,8.2-13.5,10.5c0,0,4.1-4,5-8.6C759.8,195.1,751.4,203.9,745.7,208.2z"/>
		<path d="M760.5,228.7c-2.9-0.1-5.7-1.2-8-3c-2.1-1.6-3.9-3.5-5.3-5.7c-2.2-3.6-2.3-11.4-2.3-11.7c0-0.2,0.1-0.5,0.3-0.6
			c5.7-4.2,13.9-12.9,14-13c0.2-0.2,0.6-0.3,0.9-0.1c0.3,0.1,0.4,0.5,0.4,0.8c-0.6,2.5-1.8,4.8-3.4,6.9c6.7-2.9,10.6-9.2,10.6-9.3
			c0.1-0.2,0.3-0.3,0.5-0.4c0.2,0,0.4,0,0.6,0.2c8.2,7.3,6.9,21.5,5,25.6S766.3,228.7,760.5,228.7z M746.4,208.5
			c0,1.6,0.3,7.8,2,10.6c2,3.4,7.1,8.1,12,8.1s10.1-5.5,11.9-9.5c1.7-3.8,3-16.5-4-23.4c-1.5,2.1-6.1,8.2-13.5,10.1
			c-0.3,0.1-0.6-0.1-0.8-0.3c-0.2-0.3-0.1-0.6,0.1-0.9c1.5-1.5,2.8-3.3,3.7-5.2C754.3,201.7,750.4,205.3,746.4,208.5L746.4,208.5z"
			/>
		<ellipse cx="753.3" cy="208.1" rx="1.2" ry="1.4"/>
		<ellipse cx="766.5" cy="208.1" rx="1.2" ry="1.4"/>
		<path d="M760.8,216.8H759c-0.3,0-0.5-0.2-0.5-0.5s0.2-0.5,0.5-0.5h1.8c0.3,0,0.5,0.2,0.5,0.5S761.1,216.8,760.8,216.8L760.8,216.8
			z"/>
		<path d="M759.9,220.5c-2.3,0-3.8-0.6-4.8-2c-0.2-0.2-0.1-0.5,0.1-0.7l0,0c0.2-0.1,0.5-0.1,0.7,0.1c0.8,1.1,2,1.6,4,1.6
			s3.2-0.5,4-1.6c0.2-0.2,0.5-0.3,0.7-0.1s0.3,0.4,0.1,0.7l0,0C763.7,219.9,762.2,220.5,759.9,220.5z"/>
		<path d="M759.9,223.2c-1,0.1-2-0.3-2.9-0.9c-0.2-0.2-0.2-0.5,0-0.7s0.5-0.2,0.7,0l0,0c0.7,0.4,1.4,0.7,2.2,0.6
			c0.8,0.1,1.6-0.2,2.2-0.6c0.2-0.1,0.5-0.1,0.7,0.1c0.1,0.2,0.1,0.4,0,0.6C762,223,760.9,223.3,759.9,223.2z"/>
		<path d="M768.2,218.9c-0.3,0-0.5-0.2-0.5-0.5c0-0.7-0.1-1.4-0.4-2c-0.1-0.2,0-0.5,0.2-0.6s0.5,0,0.7,0.2c0.4,0.8,0.5,1.6,0.5,2.5
			C768.7,218.7,768.5,218.9,768.2,218.9z"/>
		<path d="M768.3,203.1c-0.2,0-0.3-0.1-0.4-0.2c-0.6-0.9-1.5-1.5-2.6-1.6c-0.3,0-0.5-0.2-0.5-0.5s0.2-0.5,0.5-0.5l0,0
			c1.4,0.1,2.6,0.8,3.3,2c0.2,0.2,0.1,0.5-0.1,0.7l0,0C768.5,203.1,768.4,203.2,768.3,203.1z"/>
		<path class="st1" d="M621.9,412.4c-16.9,0.3-30.9-13.2-31.2-30.1s13.2-30.9,30.1-31.2c0.4,0,0.7,0,1.1,0h129.3
			c16.9,0.3,30.4,14.3,30.1,31.2c-0.3,16.5-13.6,29.8-30.1,30.1H621.9z"/>
		<path class="st0" d="M652.3,368c0-4,2.2-6.3,5.5-6.3s5.5,2.3,5.5,6.3s-2.2,6.4-5.5,6.4S652.3,371.9,652.3,368z M660.8,368
			c0-2.6-1.2-4.2-3-4.2s-3,1.6-3,4.2s1.2,4.3,3,4.3S660.8,370.6,660.8,368z"/>
		<path class="st0" d="M665.7,361.9h2.4v5.3l0,0l4.1-5.3h2.7l-3.7,4.8l4.4,7.4h-2.7l-3.2-5.5l-1.6,2.1v3.4h-2.4V361.9z"/>
		<path class="st0" d="M675.8,361.9h2.5l1,6c0.2,1.3,0.4,2.6,0.6,3.9h0.1c0.2-1.3,0.5-2.6,0.8-3.9l1.4-6h2.1l1.4,6
			c0.3,1.3,0.5,2.6,0.8,3.9h0.1c0.2-1.3,0.4-2.6,0.5-3.9l1-6h2.3l-2.3,12.2h-3l-1.4-6c-0.2-1-0.4-1.9-0.5-2.9H683
			c-0.2,1-0.3,1.9-0.5,2.9l-1.3,6h-3L675.8,361.9z"/>
		<path class="st0" d="M694.5,361.9h2.9l3.9,12.2h-2.6l-0.9-3.1h-4l-0.9,3.1h-2.5L694.5,361.9z M694.5,369.1h2.9l-0.4-1.3
			c-0.4-1.3-0.7-2.7-1.1-4h-0.1c-0.3,1.3-0.7,2.7-1,4L694.5,369.1z"/>
		<path class="st0" d="M701.2,361.9h2.6l1.6,6c0.4,1.4,0.7,2.6,1,4h0.1c0.4-1.4,0.7-2.6,1-4l1.6-6h2.5l-3.7,12.2h-2.8L701.2,361.9z"
			/>
		<path class="st0" d="M713,361.9h7.5v2h-5.1v2.8h4.3v2.1h-4.3v3.3h5.2v2H713V361.9z"/>
		<path class="st0" d="M622.3,397c-2.6-0.5-4.3-2.8-4.3-6.3c0-4,2.2-6.3,5.5-6.3s5.5,2.3,5.5,6.3c0,3.3-1.6,5.6-4,6.2
			c0.6,0.9,1.7,1.4,2.8,1.3c0.5,0,0.9-0.1,1.3-0.2l0.4,1.8c-0.7,0.3-1.4,0.4-2.1,0.4C625.2,400.2,623.2,399,622.3,397z M626.4,390.7
			c0-2.6-1.2-4.2-3-4.2s-3,1.6-3,4.2s1.2,4.4,3,4.4S626.4,393.5,626.4,390.7L626.4,390.7z"/>
		<path class="st0" d="M630.3,393.6c0.1-1.5,1-2.8,2.3-3.5c-0.5-0.8-0.7-1.7-0.8-2.6c0-1.7,1.3-3.1,3-3.1c0.1,0,0.1,0,0.2,0
			c1.4-0.1,2.7,0.9,2.8,2.3c0,0.1,0,0.2,0,0.4c0,1.6-1.3,2.6-2.6,3.5c0.8,1,1.7,1.8,2.7,2.5c0.7-0.9,1.2-2,1.5-3.1h2.2
			c-0.4,1.5-1.1,2.9-2.1,4.2c0.7,0.4,1.4,0.7,2.2,0.9l-0.6,2c-1.1-0.2-2.1-0.7-3-1.3c-1.1,0.8-2.4,1.3-3.8,1.3
			C631.7,397.1,630.3,395.5,630.3,393.6z M634.6,395.2c0.6,0,1.3-0.2,1.8-0.6c-1-0.8-2-1.8-2.8-2.9c-0.6,0.4-0.9,1-1,1.7
			c0,1,0.8,1.8,1.8,1.8C634.5,395.2,634.5,395.2,634.6,395.2L634.6,395.2z M634.3,389.2c1-0.6,1.7-1.2,1.7-2.1
			c0-0.6-0.3-1.1-0.9-1.1s-1.2,0.6-1.2,1.5C633.8,388.1,634,388.6,634.3,389.2L634.3,389.2z"/>
		<path class="st0" d="M645.9,384.6h2.9l3.9,12.3h-2.6l-0.9-3.1h-4l-0.9,3.1h-2.5L645.9,384.6z M645.8,391.8h2.9l-0.4-1.3
			c-0.4-1.3-0.7-2.7-1.1-4h-0.1c-0.3,1.3-0.7,2.7-1,4L645.8,391.8z"/>
		<path class="st0" d="M661.4,385.2h8.3c0.5,0,1.2,0,1.5,0c0,0.4,0,1,0,1.5v8.6c0,0.6,0,1.5,0.1,2h-2.4c0-0.3,0-0.5,0-0.9h-7.5
			c-0.6,0-1.6,0-2.1,0.1v-2.4c0.6,0,1.3,0.1,2.1,0.1h7.6v-6.9h-7.4c-0.7,0-1.6,0-2,0.1v-2.3C660,385.2,660.8,385.2,661.4,385.2z"/>
		<path class="st0" d="M686.6,395.6l-0.9,2.1c-3.3-1.1-6.7-1.9-10.1-2.5l0.8-2.1C679.9,393.7,683.3,394.5,686.6,395.6z M685.9,390.4
			l-0.8,2.1c-2.8-0.9-5.7-1.6-8.6-2.1l0.8-2C680.2,388.9,683.1,389.5,685.9,390.4z M687,385.9l-0.8,2.1c-2.9-0.9-5.9-1.6-9-2.1
			l0.8-2C681,384.3,684.1,385,687,385.9L687,385.9z"/>
		<path class="st0" d="M702.2,389.7c-0.1,1-0.6,3.8-0.8,5.4h1.1c0.4,0,1.2,0,1.6-0.1v2.1c-0.3,0-1.1,0-1.6,0h-8.7c-0.6,0-1,0-1.6,0
			V395c0.5,0.1,1.1,0.1,1.6,0.1h5.4c0.2-1.4,0.6-3.8,0.7-4.7h-4.5c-0.5,0-1.2,0-1.7,0.1v-2.2c0.4,0,1.2,0.1,1.6,0.1h4.2
			c0.4,0,0.8-0.1,1.2-0.2l1.6,0.8C702.3,389.2,702.3,389.5,702.2,389.7z"/>
		<path class="st0" d="M709.9,393.8h9.5c0.6,0,1.3,0,1.8-0.1v2.5c-0.6-0.1-1.2-0.1-1.8-0.1h-9.5c-0.7,0-1.5,0-2.1,0.1v-2.5
			C708.5,393.8,709.2,393.8,709.9,393.8z M711.1,385.8h6.9c0.6,0,1.2,0,1.8-0.1v2.4c-0.5,0-1.3-0.1-1.8-0.1h-6.8c-0.6,0-1.4,0-2,0.1
			v-2.4C709.8,385.7,710.6,385.8,711.1,385.8z"/>
		<path class="st0" d="M725.9,388.5h10.8c0.5,0,1,0,1.5-0.1v2.1c-0.4,0-1,0-1.5,0h-4c0,1.5-0.4,2.9-1,4.2c-0.8,1.4-1.9,2.5-3.3,3.2
			l-1.9-1.4c1.2-0.5,2.2-1.3,3-2.4c0.7-1.1,1-2.4,1-3.6H726c-0.5,0-1.1,0-1.6,0.1v-2.2C724.8,388.5,725.4,388.5,725.9,388.5z
			 M728,384.3h6.7c0.6,0,1.2,0,1.8-0.1v2.1c-0.6,0-1.2-0.1-1.8-0.1H728c-0.6,0-1.3,0-1.8,0.1v-2.1
			C726.8,384.3,727.4,384.3,728,384.3L728,384.3z"/>
		<path class="st0" d="M747.2,389.8c1.5-1,2.9-2.2,4.1-3.5l1.6,1.6c-1.1,1.1-2.4,2.1-3.7,3v5.7c0,0.6,0,1.2,0.1,1.8h-2.5
			c0-0.3,0.1-1.2,0.1-1.8v-4.4c-1.5,0.8-3.1,1.4-4.8,1.9l-1-2C743.3,391.7,745.3,390.9,747.2,389.8z"/>
		<path class="st14" d="M719.5,38.4h183.4c3.3,0,6,2.7,6,6v62.4c0,3.3-2.7,6-6,6H719.5c-3.3,0-6-2.7-6-6V44.4
			C713.5,41.1,716.2,38.4,719.5,38.4z"/>
		<polygon class="st14" points="713.5,102.1 713.5,133.6 744.5,102.6 		"/>
		<path class="st0" d="M791.8,53v16.7h-2.4v-1h-11.2v1h-2.3V53H791.8z M789.3,66.7V55.2h-11.2v11.4L789.3,66.7z M787.5,57.5v7h-7.6
			v-7.1L787.5,57.5z M785.3,59.4H782v3.2h3.3V59.4z"/>
		<path class="st0" d="M804.5,55.7c-0.3,0.4-0.6,0.9-1,1.2c2.1,2.2,4.8,3.9,7.7,4.8c-0.5,0.6-0.9,1.2-1.3,1.8
			c-1.3-0.5-2.6-1.2-3.8-2v0.8h-7.4v-0.9c-1.2,0.8-2.6,1.5-3.9,2.1c-0.3-0.6-0.7-1.2-1.2-1.7c2.9-1.1,5.6-2.9,7.6-5.2h1.1
			c-0.3-0.2-0.7-0.4-1-0.6c0.2-0.1,0.3-0.2,0.4-0.4h-2.3c0.3,0.5,0.6,1,0.8,1.5l-2,0.7c-0.2-0.8-0.6-1.5-1-2.2H797
			c-0.5,0.8-1,1.6-1.7,2.3c-0.6-0.4-1.2-0.8-1.8-1.2c1.3-1.3,2.3-2.9,2.9-4.6l2.1,0.5c-0.2,0.4-0.3,0.8-0.5,1.1h4v1.5
			c0.8-0.9,1.4-2,1.8-3.2l2.2,0.5c-0.2,0.4-0.3,0.8-0.5,1.2h5.2v1.9h-3c0.3,0.5,0.6,1,0.9,1.5l-2,0.7c-0.4-0.8-0.8-1.5-1.3-2.2
			L804.5,55.7z M796.9,63.7H808v6h-2.2v-0.4H799v0.5h-2.1V63.7z M799,65.6v1.8h6.8v-1.8H799z M804.7,60.6c-0.9-0.6-1.7-1.3-2.4-2.1
			c-0.7,0.8-1.5,1.5-2.3,2.1H804.7z"/>
		<path class="st0" d="M828.7,56.2c0,0,0,0.8-0.1,1.1c-0.4,7.4-0.7,10.2-1.6,11.2c-0.4,0.6-1.1,1-1.9,1c-1,0.1-2,0.1-3,0
			c-0.1-0.8-0.3-1.6-0.8-2.3c1.2,0.1,2.3,0.1,2.8,0.1c0.3,0,0.6-0.1,0.9-0.3c0.6-0.6,0.9-3,1.2-8.5H821c-0.3,3.9-1.6,8.4-6.8,11.3
			c-0.5-0.7-1.1-1.2-1.7-1.7c3.6-1.8,6-5.5,6.2-9.5h-5.6v-2.3h5.7v-3.8h2.4v3.8L828.7,56.2L828.7,56.2z"/>
		<path class="st0" d="M835.2,55.4c-0.5,2.4-0.8,4.8-0.9,7.2c0,0.4,0,0.8,0.1,1.2c0.2-0.7,0.5-1.3,0.8-1.9l1.1,0.9
			c-0.5,1.5-1.1,3.4-1.3,4.4c-0.1,0.3-0.1,0.6-0.1,0.9c0,0.2,0,0.5,0,0.8l-2.1,0.2c-0.5-2-0.8-4-0.7-6c0.1-2.6,0.3-5.2,0.8-7.8
			c0.1-0.6,0.2-1.2,0.2-1.8l2.6,0.2C835.4,54.3,835.2,54.8,835.2,55.4z M844.6,54.7c0,0.4,0,1.1-0.1,1.9c1-0.1,1.9-0.2,2.9-0.4v2.3
			c-0.9,0.1-1.9,0.2-2.9,0.3c0,1.8,0.1,3.3,0.2,4.6c1.3,0.6,2.6,1.4,3.6,2.4l-1.3,2c-0.7-0.7-1.5-1.3-2.3-1.9c-0.1,1.8-1.1,3-3.6,3
			s-4.2-1.1-4.2-3s1.6-3.2,4.1-3.2c0.4,0,0.8,0,1.2,0.1c0-1.2-0.1-2.5-0.1-3.8c-0.4,0-0.9,0-1.3,0c-1.1,0-2.2,0-3.3-0.1v-2.2
			c1.1,0.1,2.2,0.2,3.3,0.2h1.3c0-0.9,0-1.7,0-2.1c0-0.4-0.1-0.8-0.1-1.2h2.7C844.6,53.9,844.6,54.3,844.6,54.7z M840.9,66.7
			c1.1,0,1.5-0.6,1.5-1.7v-0.3c-0.5-0.1-1-0.2-1.5-0.2c-1.1,0-1.8,0.4-1.8,1.2S839.9,66.8,840.9,66.7L840.9,66.7z"/>
		<path class="st0" d="M743,88c0-4.5,2.5-7.1,6.2-7.1s6.2,2.6,6.2,7.1s-2.5,7.2-6.2,7.2S743,92.5,743,88z M752.5,88
			c0-3-1.3-4.7-3.4-4.7s-3.3,1.8-3.3,4.7s1.3,4.8,3.3,4.8S752.5,91,752.5,88L752.5,88z"/>
		<path class="st0" d="M758,81.2h2.8v6l0,0l4.6-6h3l-4.2,5.4l5,8.4h-3l-3.6-6.2l-1.8,2.3V95H758V81.2z"/>
		<path class="st0" d="M769.4,81.2h2.8l1.1,6.7c0.2,1.5,0.4,2.9,0.6,4.4h0.1c0.3-1.5,0.6-3,0.9-4.4l1.6-6.7h2.4l1.6,6.7
			c0.3,1.4,0.6,2.9,0.9,4.4h0.1c0.2-1.5,0.4-3,0.6-4.4l1.1-6.7h2.6L783.2,95h-3.4l-1.5-6.8c-0.2-1.1-0.4-2.1-0.6-3.2h-0.1
			c-0.2,1.1-0.4,2.1-0.6,3.2l-1.5,6.8H772L769.4,81.2z"/>
		<path class="st0" d="M790.4,81.2h3.2L798,95h-2.9l-1-3.5h-4.5l-1,3.5H786L790.4,81.2z M790.4,89.3h3.3l-0.4-1.5
			c-0.4-1.4-0.8-3-1.2-4.5H792c-0.3,1.5-0.8,3.1-1.2,4.5L790.4,89.3z"/>
		<path class="st0" d="M797.9,81.2h2.9l1.8,6.7c0.4,1.5,0.7,2.9,1.2,4.4h0.1c0.5-1.5,0.7-2.9,1.2-4.4l1.8-6.7h2.8L805.4,95h-3.3
			L797.9,81.2z"/>
		<path class="st0" d="M811.2,81.2h8.5v2.3H814v3.2h4.8V89H814v3.7h5.9V95h-8.7V81.2z"/>
		<path class="st0" d="M833.8,82c-0.1,0.6-0.3,1.2-0.4,1.9c0.6,0,1.2-0.1,1.6-0.1c2,0,3.4,0.9,3.4,3.6c0,2.2-0.3,5.2-1.1,6.8
			c-0.5,1.2-1.8,1.9-3,1.7c-0.7,0-1.5-0.1-2.2-0.3l-0.4-2.5c0.7,0.2,1.5,0.3,2.3,0.4c0.6,0.1,1.2-0.3,1.4-0.8
			c0.6-1.7,0.8-3.4,0.8-5.2c0-1.5-0.7-1.7-1.8-1.7c-0.3,0-0.8,0-1.3,0.1c-0.8,3.5-2.1,6.9-3.8,10l-2.4-1c1.7-2.7,3-5.6,3.8-8.8
			l-1.6,0.2l-2.1,0.3l-0.2-2.5c0.7,0,1.3,0,2,0c0.6,0,1.5-0.1,2.4-0.2c0.3-1.3,0.4-2.6,0.4-3.9l2.8,0.3
			C834,80.9,833.8,81.5,833.8,82z M841.7,82.3l-0.9,0.4c1.2,2.1,2.2,4.2,3,6.5l-2.4,1.1c-0.6-2.5-1.7-4.9-3.1-7l1.7-0.7
			c-0.4-0.8-0.8-1.5-1.3-2.2l1.5-0.6C840.6,80.4,841.3,81.6,841.7,82.3L841.7,82.3z M843.9,81.4l-1.5,0.6c-0.4-0.9-0.9-1.7-1.5-2.6
			l1.5-0.6C842.9,79.7,843.4,80.5,843.9,81.4L843.9,81.4z"/>
		<path class="st0" d="M848.9,89.7V94c0,1-0.2,1.6-0.7,1.9c-0.8,0.4-1.7,0.5-2.6,0.4c-0.1-0.7-0.3-1.4-0.6-2c0.7,0,1.3,0,1.5,0
			s0.3-0.1,0.3-0.3v-3.7l-1.7,0.5l-0.5-2.1c0.6-0.1,1.4-0.3,2.2-0.5v-3.3h-2v-2.1h2v-3.5h2v3.5h1.9v2.1h-1.9v2.8l1.7-0.4l0.3,2
			L848.9,89.7z M857.4,94.4c0.4,0,0.8,0.1,1.3,0.1c0.6,0,2.9,0,3.7,0c-0.3,0.6-0.5,1.3-0.6,1.9h-3.2c-2.4,0-4.3-0.4-5.6-2.7
			c-0.4,1.1-1.1,2.1-1.9,2.9c-0.5-0.5-1.1-0.9-1.6-1.3c1.6-1.3,2.3-3.3,2.6-5.9l2,0.2c-0.1,0.6-0.2,1.3-0.3,1.9
			c0.3,0.9,0.8,1.7,1.6,2.2v-4.8H851v-1.8h11v1.8h-4.5v1.6h3.6v1.7h-3.6L857.4,94.4z M861,86.2h-9.2v-6.4h9.2V86.2z M858.9,81.4h-5
			v0.9h5V81.4z M858.9,83.7h-5v1h5V83.7z"/>
		<path class="st0" d="M869.5,79.9c-0.5,1.3-1.1,2.6-1.8,3.9v12.8h-2.2v-9.4c-0.4,0.5-0.8,0.9-1.2,1.4c-0.3-0.8-0.7-1.6-1.2-2.3
			c1.9-2,3.3-4.4,4.2-7L869.5,79.9z M873.8,92.2c-1,1.6-2.2,3.1-3.7,4.3c-0.5-0.5-1.1-1-1.7-1.4c1.4-0.9,2.5-2.2,3.4-3.6L873.8,92.2
			z M880.8,88.7v2.2h-12.1v-2.2h2.5V85h-2v-2.2h2v-3.5h2.2v3.5h2.7v-3.5h2.2v3.5h2.4V85h-2.4v3.7H880.8z M873.4,88.7h2.7V85h-2.7
			V88.7z M877.5,91.6c1.2,1.2,2.3,2.5,3.2,3.8l-1.9,1.2c-0.9-1.4-1.9-2.8-3.1-4L877.5,91.6z"/>
	</g>
</g>
</svg>
