<?xml version="1.0" encoding="utf-8"?>
<!-- Generator: Adobe Illustrator 26.0.0, SVG Export Plug-In . SVG Version: 6.00 Build 0)  -->
<svg version="1.1" id="レイヤー_1" xmlns="http://www.w3.org/2000/svg" xmlns:xlink="http://www.w3.org/1999/xlink" x="0px"
	 y="0px" viewBox="0 0 1008.3 569.8" style="enable-background:new 0 0 1008.3 569.8;" xml:space="preserve">
<style type="text/css">
	.st0{fill:#FFFFFF;}
	.st1{fill:#141F42;}
	.st2{fill:none;stroke:#141F42;stroke-width:4.61;stroke-miterlimit:10;}
	.st3{fill:none;stroke:#141F42;stroke-width:1.15;stroke-miterlimit:10;}
	.st4{fill:#4B4B4B;}
	.st5{fill:#FFF03C;}
	.st6{fill:#FFFF64;}
	.st7{fill:#FF8C00;}
	.st8{fill:#00D7FF;}
	.st9{fill:#FFAA1E;}
	.st10{fill:#787878;}
	.st11{fill:#786478;}
	.st12{fill:#A5E1EF;}
	.st13{fill:#0096FF;}
</style>
<g id="Layer_2">
	<g id="レイヤー_8">
		<ellipse class="st0" cx="487" cy="284.9" rx="487" ry="284.9"/>
		<path class="st1" d="M408.3,270c-9.5,0-13.9,6.5-13.9,14.9s4.3,14.9,13.9,14.9s13.9-6.5,13.9-14.9S417.8,270,408.3,270z
			 M408.3,294.8c-4.9,0-7.6-3.1-7.6-9.9s2.7-9.9,7.6-9.9s7.6,3.1,7.6,9.9S413.3,294.7,408.3,294.8L408.3,294.8z"/>
		<path class="st1" d="M487.1,288.6l3.2-10.6l3.2,10.6l1.5,4.8l1.8,5.9c1.1,0.2,2.2,0.3,3.3,0.2c1,0.1,2,0,3-0.2L493,270.5
			c-1.8-0.3-3.5-0.3-5.3,0l-10.1,28.9c1,0.2,2,0.3,3,0.2c1.1,0,2.2,0,3.3-0.2l1.8-5.9L487.1,288.6z"/>
		<path class="st1" d="M478,270.2c-1.1,0-2.2,0-3.3,0.2l-3.9,20.7l-5-20.7c-0.8-0.2-1.7-0.3-2.5-0.2c-0.9-0.1-1.7,0-2.5,0.2l-5,20.7
			l-3.9-20.7c-1.1-0.2-2.2-0.3-3.2-0.2c-1.1-0.1-2.1,0-3.1,0.2l7,28.9c0.8,0.2,1.7,0.3,2.5,0.2c1.3,0.1,2.6,0,3.9-0.2l4.5-18.4
			l4.5,18.4c1.3,0.2,2.6,0.3,3.9,0.2c0.9,0.1,1.7,0,2.5-0.2l7-28.9C480.1,270.2,479.1,270.1,478,270.2z"/>
		<path class="st1" d="M520.2,270.2c-1.1,0-2.2,0-3.3,0.2l-6.4,22.8l-6.4-22.8c-1.1-0.2-2.2-0.3-3.3-0.2c-1.1-0.1-2.1,0-3.1,0.2
			l9.3,28.9c0,0,0.5,0.2,3.5,0.2c1.2,0.1,2.4,0,3.5-0.2l9.3-28.9C522.3,270.2,521.3,270.1,520.2,270.2z"/>
		<path class="st1" d="M436.9,284.4l8.9-14c-1-0.2-2.1-0.3-3.1-0.2c-1.2,0-2.3,0-3.5,0.2l-8.6,14l9,14.9c1.2,0.2,2.3,0.3,3.5,0.2
			c1.1,0.1,2.1,0,3.1-0.2L436.9,284.4z"/>
		<path class="st1" d="M423.6,270.5v28.9c2,0.3,4,0.3,6,0v-28.9C427.6,270.1,425.6,270.1,423.6,270.5z"/>
		<path class="st1" d="M530.8,294.3v-7.3h10.9c0.3-1.7,0.3-3.4,0-5h-10.9v-6.4h12.8c0.3-1.7,0.3-3.4,0-5h-18.8v28.9h18.8
			c0.3-1.7,0.3-3.4,0-5H530.8z"/>
		<path class="st1" d="M364,263.2c-18.1,0-21.6,3.5-21.6,21.6s3.5,21.6,21.6,21.6s21.6-3.5,21.6-21.6S382.2,263.2,364,263.2z
			 M364,304.4c-16.8,0-19.5-2.6-19.5-19.5s2.7-19.5,19.5-19.5s19.5,2.6,19.5,19.5S380.9,304.4,364,304.4L364,304.4z"/>
		<path class="st1" d="M371,273.3c-3.1,0-5.9,2-7,4.9c-1.1-2.9-3.8-4.8-6.9-4.9c-3.2,0-7.5,1.9-7.5,8.1c0,8.3,10.8,15.6,14.4,18.4
			c3.6-2.8,14.4-10.1,14.4-18.4C378.5,275.2,374.1,273.3,371,273.3z"/>
		<path class="st1" d="M581.4,268.7c-2-0.3-4-0.3-6,0l0,0v30.6c2,0.3,4,0.3,6,0V268.7z"/>
		<path class="st1" d="M561.5,270.2c-4.8,0-8.9,0.2-8.9,0.2v28.9c2,0.3,4,0.3,6,0v-10.7c0,0,1.9,0.1,2.9,0.1c9.9,0,12-4.1,12-9.3
			C573.6,271.2,568.3,270.2,561.5,270.2z M561.5,284.4c-1,0-2.9-0.1-2.9-0.1v-9.6c1-0.1,1.9-0.2,2.9-0.1c3.8,0,6.5,0.5,6.5,4.9
			C568,283.5,565.4,284.4,561.5,284.4z"/>
		<path class="st1" d="M605.2,294c1.9,0.8,3.9,1.3,5.9,1.4c1.5,0.1,3.1,0,3.3-1.8c0.1-1.1-1.6-1.6-3.9-2.4c-4.5-1.4-6.3-4-6-7.1
			s3.3-5.9,8.7-5.9c2.1,0,4.3,0.4,6.2,1.2l-1.4,4.4c-1.5-0.6-3.1-1-4.7-1.2c-1-0.1-2.5,0-2.8,1.4c-0.3,1.6,2.6,2.2,4.9,3.3
			c3.8,1.7,5.2,3.5,4.8,7c-0.5,3.9-2.9,5.7-9.4,5.7c-2.5,0.1-4.9-0.3-7.2-1.2L605.2,294z"/>
		<path class="st1" d="M583.9,293c0,0.1,0,0.2,0,0.4c0,3.7,2.6,6.4,6.7,6.4c2.1,0,4-0.9,5.3-2.5v2c2,0.3,4,0.3,6,0l0,0v-21
			c-1-0.2-2-0.3-3-0.2c-1-0.1-2,0-3,0.2v12.2c0,0,0.2,3.2-2.9,3.2c-1.5,0.2-2.9-0.9-3.1-2.4c0-0.2,0-0.4,0-0.6v-12.4
			c-1-0.2-2-0.3-3-0.2c-1-0.1-2,0-3,0.2L583.9,293z"/>
		<path class="st1" d="M631.5,271.9c0-0.5,0-0.9-0.1-1.4H626V265l0,0c-0.9-0.1-1.8-0.1-2.7,0l0,0v5.5h-5.5c-0.1,0.9-0.1,1.8,0,2.7
			h5.5v5.5c0.9,0.1,1.8,0.1,2.7,0v-5.5h5.5C631.6,272.8,631.6,272.3,631.5,271.9z"/>
		<path class="st2" d="M663,188.3c-42.8-30.3-100.3-47.8-176-47.8c-78.1,0-136.8,18.6-180.1,50.7"/>
		<polygon class="st1" points="660.9,164.2 656.4,165.2 661.5,187.4 639,190.8 639.7,195.4 667,191.2 		"/>
		<path class="st3" d="M668.1,380l-2.1-2.8c-45,33.4-105.2,50.4-179,50.4c-70.9,0-129.2-15.6-173.5-46.4L328,379l-0.5-3.4l-20.6,3
			l4.4,20.3l3.4-0.7l-3.1-14.1C356.5,415.2,415.5,431,487,431C561.6,431,622.5,413.8,668.1,380z"/>
		<path class="st1" d="M461.2,33.8h51.5c6.6,0,12,5.4,12,12v51.5c0,6.6-5.4,12-12,12h-51.5c-6.6,0-12-5.4-12-12V45.8
			C449.2,39.2,454.6,33.8,461.2,33.8z"/>
		<polygon class="st1" points="472.7,103.1 487.3,120.7 501.4,103.1 		"/>
		<path class="st0" d="M499.6,91c-1.5,0.6-3.1,0.9-4.8,0.8c-5.1,0.2-9.8-2.8-11.8-7.4C477,83.3,473,77.9,473,69.8
			c0-9.3,5.2-14.7,12.7-14.7s12.7,5.4,12.7,14.7c0,7.8-3.7,13-9.4,14.5c1.3,2.2,3.9,3,6.5,3c1.1,0,2.1-0.2,3.1-0.5L499.6,91z
			 M485.6,80c4.2,0,6.9-3.8,6.9-10.2c0-6.1-2.7-9.8-6.9-9.8s-6.9,3.7-6.9,9.8C478.8,76.2,481.5,80,485.6,80L485.6,80z"/>
		<path class="st3" d="M514.3,460.8h-18.2l-9.5-11.4l-9.1,11.4h-18c-5.7,0-10.4,4.7-10.4,10.4v54.7c0,5.7,4.7,10.4,10.4,10.4h54.7
			c5.7,0,10.4-4.7,10.4-10.4v-54.7C524.7,465.4,520.1,460.8,514.3,460.8z"/>
		<path class="st1" d="M490.2,502.8H481l-2,7.3h-5.8l9.1-28.5h6.7l9.1,28.5h-6L490.2,502.8z M489,498.3l-0.9-3.1
			c-0.9-3-1.6-6.2-2.5-9.3h-0.1c-0.7,3.1-1.6,6.3-2.4,9.3l-0.9,3.1H489z"/>
		<path class="st4" d="M267.9,238.3c-7-2-9-5.3-8-12.8s5.8-19.6,2.6-36.8s-18.9-26.4-34.3-26.4s-31,9.2-34.3,26.4s1.5,29.3,2.6,36.8
			s-1,10.8-8,12.8c0,0,4.9,3.9,10.4,1.2c0,0-1.5,1.7-1.5,7.2l30.9,4.3l30.9-4.3c0-5.5-1.5-7.2-1.5-7.2
			C263,242.2,267.9,238.3,267.9,238.3z"/>
		<path d="M228.2,252.1H228l-30.9-4.3c-0.6-0.1-1-0.6-1-1.1c0-1.8,0.2-3.5,0.6-5.2c-3.2,0.5-6.4-0.3-9-2.2c-0.3-0.3-0.5-0.7-0.4-1.1
			c0.1-0.4,0.4-0.8,0.8-0.9c6.5-1.9,8.1-4.6,7.2-11.5c-0.2-1.7-0.6-3.6-1.1-5.8c-1.7-7.6-3.9-17.9-1.4-31.4
			c3.5-18.8,20.8-27.4,35.4-27.4s31.9,8.6,35.4,27.4c2.5,13.5,0.2,23.8-1.4,31.4c-0.5,2.2-0.9,4.1-1.1,5.8c-1,6.9,0.7,9.6,7.2,11.5
			c0.4,0.1,0.7,0.5,0.8,0.9c0.1,0.4-0.1,0.9-0.4,1.1c-2.6,1.9-5.8,2.7-9,2.2c0.4,1.7,0.6,3.5,0.6,5.2c0,0.6-0.4,1.1-1,1.1l-30.9,4.3
			H228.2z M198.5,245.7l29.7,4.1l29.7-4.1c-0.2-4-1.2-5.4-1.2-5.4c-0.3-0.4-0.3-1,0-1.5c0.3-0.4,0.9-0.6,1.4-0.3
			c2.2,1.1,4.8,1.1,7.1,0.1c-5.6-2.3-7.4-6.1-6.4-13.2c0.2-1.8,0.7-3.7,1.2-6c1.6-7.4,3.8-17.4,1.4-30.5
			c-3.3-17.5-19.5-25.5-33.1-25.5s-29.9,8-33.1,25.5c-2.4,13-0.2,23.1,1.4,30.5c0.5,2.3,0.9,4.2,1.2,6c1,7.1-0.8,10.9-6.4,13.2
			c2.3,1,4.9,1,7.1-0.1c0.6-0.3,1.3,0,1.5,0.6c0.2,0.4,0.1,0.9-0.2,1.3l0,0C199.7,240.3,198.7,241.6,198.5,245.7z"/>
		<path class="st0" d="M202.1,211.2c-2.9-2.4-5,0.8-4.6,5.3s3.1,10.2,6.8,9.3C202.7,221.1,202,216.1,202.1,211.2z"/>
		<path d="M203.5,226.9c-1,0-1.9-0.3-2.6-0.9c-2.6-1.9-4.1-6.2-4.3-9.4s0.7-6,2.4-6.9c0.7-0.3,2.1-0.7,3.8,0.8
			c0.2,0.2,0.3,0.5,0.3,0.7c-0.1,4.9,0.6,9.7,2.1,14.3c0.1,0.3,0.1,0.5-0.1,0.8c-0.1,0.2-0.4,0.4-0.6,0.5
			C204.2,226.8,203.9,226.9,203.5,226.9z M200.2,211.3c-0.1,0-0.3,0-0.4,0.1c-0.8,0.4-1.6,2.3-1.4,5c0.3,3.3,1.8,6.7,3.6,8
			c0.3,0.2,0.6,0.4,1,0.5c-1.2-4.3-1.9-8.8-1.8-13.2C200.9,211.4,200.6,211.3,200.2,211.3L200.2,211.3z"/>
		<path class="st0" d="M266.1,400.2c0.4-13-0.1-26-1.5-38.9l-14.2-79.6l-5.9-31.5c-1.3,6.8-6.9,12.2-16.3,12.2s-15-5.4-16.3-12.2
			l-5.9,31.5l-14.2,79.6c-1.4,12.9-1.9,25.9-1.5,38.9"/>
		<path d="M266.1,401.3L266.1,401.3c-0.6,0-1.1-0.5-1.1-1.2c0,0,0,0,0,0c0.4-12.9-0.1-25.9-1.5-38.7l-14.1-79.6l-5.1-27.1
			c-2.8,5.5-8.6,8.8-16,8.8s-13.2-3.3-16-8.8l-5.1,27.1L193,361.5c-1.4,12.8-1.9,25.7-1.5,38.6c0,0.6-0.6,1.1-1.2,1.1
			c-0.6,0-1-0.5-1.1-1c-0.4-13,0.1-26.1,1.6-39.1l14.2-79.7l5.9-31.5c0.1-0.5,0.6-0.9,1.1-0.9l0,0c0.6,0,1,0.4,1.1,0.9
			c1.3,7,7.1,11.3,15.1,11.3s13.8-4.3,15.1-11.3c0.1-0.5,0.6-0.9,1.1-0.9l0,0c0.6,0,1,0.4,1.1,0.9l5.9,31.5l14.1,79.7
			c1.4,13,2,26.1,1.6,39.1C267.2,400.8,266.7,401.3,266.1,401.3z"/>
		<path class="st0" d="M228.2,262.4c9.4,0,15-5.4,16.3-12.2l-2.1-11.3l-0.3-0.1c-9.1-2-18.6-2-27.7,0l-0.3,0.1l-2.1,11.3
			C213.2,256.9,218.9,262.4,228.2,262.4z"/>
		<path d="M228.2,263.5c-9.2,0-15.9-5-17.4-13.1c0-0.1,0-0.3,0-0.4l2.1-11.3c0.1-0.4,0.4-0.8,0.9-0.9l0.3-0.1
			c9.3-2.1,18.9-2.1,28.2,0l0.3,0.1c0.4,0.1,0.8,0.5,0.9,0.9l2.1,11.3c0,0.1,0,0.3,0,0.4C244.1,258.5,237.4,263.5,228.2,263.5z
			 M213.1,250.1c1.4,6.8,7.2,11.1,15.1,11.1s13.7-4.2,15.1-11.1l-1.9-10.4c-8.7-1.8-17.6-1.8-26.3,0L213.1,250.1z"/>
		<path class="st0" d="M254.3,213.3c-0.3,8-2.3,17.1-8.9,23c-7.4,6.6-13.1,8.6-17.1,8.6s-9.7-1.9-17.1-8.6s-9.1-17.3-8.9-25.8
			s4.2-20.1,13.2-24.2c0.1,13,11,24,23.4,18.9C242.7,209.7,248.3,212.6,254.3,213.3z"/>
		<path d="M228.2,246.1c-5.3,0-11.4-3-17.9-8.9c-7.9-7.1-9.5-18.5-9.3-26.7c0-9.4,4.8-21.1,13.9-25.2c0.6-0.3,1.2,0,1.5,0.5
			c0.1,0.1,0.1,0.3,0.1,0.5c0.1,6.9,3.3,13.3,8.4,16.7c4,2.7,9,3.1,13.4,1.2c0.5-0.2,1-0.1,1.4,0.4c3.9,4.2,9.1,6.9,14.8,7.6
			c0.6,0.1,1,0.6,1,1.2c-0.4,10.5-3.6,18.7-9.3,23.9C239.6,243.1,233.5,246.1,228.2,246.1z M214.2,188.2c-7.2,4.3-11,14.2-11,22.3
			c-0.1,7.8,1.3,18.4,8.6,25c6.1,5.5,11.6,8.3,16.4,8.3s10.2-2.8,16.4-8.3c6.3-5.7,8.1-14.4,8.5-21.2c-5.6-0.9-10.8-3.6-14.7-7.7
			c-4.9,1.9-10.4,1.3-14.7-1.6C218.3,201.5,214.8,195.1,214.2,188.2L214.2,188.2z"/>
		<ellipse cx="239.8" cy="216.4" rx="2" ry="2.4"/>
		<path d="M228.2,230.8c-1.1,0.1-2.1-0.3-2.9-1.1c-0.3-0.3-0.2-0.8,0.1-1.1c0,0,0,0,0,0c0.3-0.3,0.8-0.2,1.1,0.1
			c1,0.7,2.4,0.7,3.4,0c0.3-0.3,0.8-0.3,1.1,0c0.3,0.3,0.3,0.7,0.1,1C230.3,230.5,229.3,230.9,228.2,230.8z"/>
		<path d="M228.2,236.7c-4,0-7.1-1.9-7.3-4.3c0-0.4,0.3-0.8,0.7-0.8c0,0,0,0,0,0c0.4,0,0.8,0.3,0.8,0.7c0,0,0,0,0,0
			c0.1,1.4,2.3,2.9,5.8,2.9s5.7-1.5,5.8-2.9c0-0.4,0.4-0.7,0.8-0.7c0,0,0,0,0,0c0.4,0,0.7,0.4,0.7,0.8c0,0,0,0,0,0
			C235.3,234.9,232.2,236.7,228.2,236.7z"/>
		<path d="M228.2,240.6c-1.7,0-3.3-0.6-4.5-1.8c-0.3-0.3-0.4-0.7-0.2-1.1c0.3-0.3,0.7-0.4,1.1-0.2c0.1,0.1,0.2,0.1,0.2,0.2
			c1.9,1.7,4.9,1.7,6.8,0c0.3-0.3,0.8-0.3,1.1,0c0,0,0,0,0,0c0.3,0.3,0.3,0.8,0,1.1c0,0,0,0,0,0C231.5,240,229.9,240.6,228.2,240.6z
			"/>
		<path d="M211.7,210.1c-0.4,0-0.8-0.3-0.8-0.8c0-0.1,0-0.2,0.1-0.3c1.3-2.7,4.6-4.5,6.9-3.7c0.4,0.1,0.6,0.6,0.5,1s-0.6,0.6-1,0.5
			l0,0c-1.4-0.5-4,0.7-5.1,2.9C212.3,210,212,210.1,211.7,210.1z"/>
		<path class="st5" d="M214,238.8c0,0-13.7,4.7-20.8,7.1s-12,4.5-15.4,14.6s-10.9,36.7-11.6,51.3s9.5,21.8,19.1,16.5
			c2.1-1.2,4.1-2.6,6-4.2c0,0-1.9,21.3-2.1,40.4c3.8,2.1,7.9,3.4,12.1,4.1c6.5,0.9,13.3-2.9,15.4-17s2.9-62.6,2.9-62.6
			C215.3,272.6,213.4,255.7,214,238.8z"/>
		<path d="M203.3,369.9c-0.7,0-1.3,0-2-0.1c-4.4-0.7-8.6-2.1-12.5-4.2c-0.4-0.2-0.6-0.6-0.6-1c0.1-15,1.3-31.5,1.8-37.9
			c-1.3,1-2.7,1.9-4.1,2.7c-4.5,2.5-9.4,2.5-13.4-0.1c-5-3.1-7.7-9.7-7.3-17.5c0.8-14.4,8.2-41,11.7-51.6
			c3.4-10.3,8.3-12.6,16.1-15.3c7-2.4,20.8-7.1,20.8-7.1c0.4-0.1,0.8-0.1,1.1,0.2c0.3,0.2,0.5,0.6,0.5,1c-1.2,26,5.5,49.5,5.6,49.8
			c0,0.1,0,0.2,0.1,0.3c0,2-0.9,48.7-2.9,62.7C217.1,357.4,214.1,369.9,203.3,369.9z M190.5,363.8c3.5,1.8,7.2,3,11.1,3.6
			c7.4,1,12.4-4.7,14.1-16.1c2-13.5,2.8-59.1,2.9-62.3c-4.1-15.9-6-32.3-5.7-48.7c-3.8,1.3-13.6,4.6-19.2,6.6
			c-7,2.4-11.5,4.4-14.6,13.9c-3.5,10.5-10.8,36.8-11.6,51c-0.4,7,2,12.8,6.2,15.5c3.3,2.1,7.3,2,11.1,0c2.1-1.2,4-2.6,5.8-4.1
			c0.4-0.3,0.9-0.4,1.3-0.1c0.4,0.2,0.7,0.7,0.6,1.1C192.5,324.4,190.7,345.2,190.5,363.8L190.5,363.8z"/>
		<path class="st5" d="M242.4,238.8c0,0,13.7,4.7,20.8,7.1s12,4.5,15.4,14.6s10.9,36.7,11.6,51.3s-7.7,22.3-18.6,19.3
			c-3.9-1.4-6.1-2.4-6.1-2.4s1.5,16.7,1.7,35.8c-3.8,2.1-7.9,3.4-12.1,4.1c-6.5,0.9-13.3-2.9-15.4-17s-2.9-62.6-2.9-62.6
			C241,272.6,242.9,255.7,242.4,238.8z"/>
		<path d="M253.4,369.9c-4.7,0-12.6-2.5-14.9-18.1c-2-14.1-2.9-60.8-2.9-62.7c0-0.1,0-0.2,0.1-0.3c0.1-0.2,6.8-23.8,5.6-49.8
			c0-0.4,0.2-0.8,0.5-1c0.3-0.2,0.7-0.3,1.1-0.2c0,0,13.7,4.7,20.8,7.1c7.7,2.7,12.7,5,16.1,15.3c3.5,10.6,10.9,37.1,11.7,51.6
			c0.4,8.1-1.9,14.5-6.4,18.2c-3.6,2.9-8.5,3.7-13.6,2.3c-1.9-0.7-3.5-1.2-4.5-1.7c0.4,4.9,1.4,18.8,1.5,34c0,0.4-0.2,0.8-0.6,1
			c-3.9,2.1-8.1,3.6-12.5,4.2C254.5,369.8,253.9,369.9,253.4,369.9z M237.9,289.1c0.1,3.1,0.9,48.8,2.9,62.3
			c1.6,11.4,6.6,17.1,14.1,16.1c3.9-0.6,7.6-1.8,11.1-3.6c-0.2-18.6-1.7-34.9-1.7-35c-0.1-0.6,0.4-1.2,1-1.3c0.2,0,0.4,0,0.6,0.1
			c0,0,2.2,1,6,2.3c4.4,1.2,8.4,0.6,11.5-1.9c4-3.2,5.9-8.9,5.5-16.2c-0.8-14.2-8.1-40.5-11.6-51c-3.1-9.5-7.6-11.4-14.6-13.9
			c-5.6-1.9-15.4-5.3-19.2-6.6C243.9,256.9,242,273.2,237.9,289.1z"/>
		<path class="st0" d="M199.2,197.8h-0.1c-0.4-0.1-0.7-0.5-0.6-0.9c2.4-12.6,9.5-18.4,9.8-18.7c0.3-0.3,0.8-0.2,1.1,0.1
			c0.3,0.3,0.2,0.8-0.1,1.1c-0.1,0.1-7,5.8-9.3,17.8C199.9,197.6,199.6,197.8,199.2,197.8z"/>
		<path class="st0" d="M251.4,200.4c-0.4,0-0.7-0.3-0.8-0.7c-2.1-15.8-11.3-22.3-11.4-22.3c-0.3-0.2-0.4-0.7-0.2-1.1
			c0.2-0.3,0.7-0.4,1-0.2c0.4,0.3,9.9,6.9,12.1,23.4c0.1,0.4-0.2,0.8-0.7,0.9L251.4,200.4z"/>
		<path class="st0" d="M254.3,211.2c0,0.6,0,1.4,0,2.1l0,0c-0.1,4.3-0.8,8.5-2.2,12.5c3.6,0.9,6.4-4.7,6.8-9.3
			S257.2,208.8,254.3,211.2z"/>
		<path d="M252.9,226.9c-0.3,0-0.7,0-1-0.1c-0.5-0.2-0.8-0.7-0.7-1.2c0,0,0,0,0,0c1.3-3.9,2-8.1,2.1-12.2c0-0.7,0.1-1.4,0.1-2.1
			c0-0.3,0.1-0.6,0.3-0.7c1.7-1.4,3.1-1.1,3.8-0.7c1.7,0.9,2.7,3.6,2.4,6.9s-1.7,7.5-4.3,9.4C254.8,226.6,253.8,226.9,252.9,226.9z
			 M255.3,211.6c0,0.6,0,1.1-0.1,1.7c-0.1,3.9-0.7,7.8-1.8,11.5c0.4-0.1,0.7-0.3,1-0.5c1.8-1.3,3.3-4.7,3.6-8c0.2-2.7-0.5-4.6-1.4-5
			C256.2,211.2,255.6,211.3,255.3,211.6z"/>
		<path d="M191.4,325.2c-0.6,0-1.2-0.5-1.2-1.1c0-0.4,0.2-0.7,0.5-0.9c3.7-2.9,7.3-6.1,10.5-9.6c-1.9-0.3-3.6-1.3-4.8-2.8
			c-3.5-4.1-5-12.8-2.9-20.3l-20,17c-0.5,0.4-1.2,0.4-1.6-0.1c0,0,0,0,0,0c-0.4-0.5-0.4-1.2,0.1-1.6c0,0,0,0,0,0l23.7-20.1
			c0.4-0.4,1.1-0.4,1.5,0c0.4,0.4,0.5,1,0.3,1.5c-4.1,7.2-2.9,17.8,0.7,22.2c1.3,1.8,3.6,2.5,5.7,1.6c0.5-0.2,1,0,1.4,0.4
			c0.3,0.4,0.3,1-0.1,1.4c-3.9,4.5-8.3,8.5-13,12.2C191.9,325.2,191.6,325.2,191.4,325.2z"/>
		<path class="st0" d="M229.4,267.3c-0.1-0.9-0.2-2.7-1.1-3.1s-4.5-1.4-6.1-1.9c-1.9-0.6-3.9-0.4-5.6,0.4
			c-1.9,0.9-10.1,5.9-11.4,7.3s-4.9,13-4.9,13c-1.2,1.3-2.5,2.5-3.8,3.6c-3.6,6.3-3.4,15.3-0.8,20.9l10.4-12.4l2.2-2.6
			c3.4,0.2,6.8-1.1,9.2-3.6l12.3-17.3C229.6,271.6,229.5,268.2,229.4,267.3z"/>
		<path d="M195.6,308.6h-0.1c-0.4-0.1-0.7-0.3-0.9-0.6c-2.6-5.4-3.1-14.9,0.8-21.9c0.1-0.1,0.2-0.2,0.3-0.3c1.3-1,2.4-2.1,3.5-3.2
			c0.9-3,3.7-11.8,5-13.3c1.5-1.6,9.8-6.6,11.8-7.6c2-0.9,4.3-1.1,6.5-0.5l1.7,0.5c2.3,0.7,3.9,1.2,4.6,1.5c1.4,0.6,1.6,2.5,1.8,3.7
			v0.3c0.1,0.9,0.3,4.1,0.3,4.5c0,0.3-0.1,0.5-0.2,0.7l-12.3,17.3l-0.1,0.1c-2.5,2.6-5.9,4.1-9.5,4l0,0l-12.2,14.6
			C196.2,308.5,195.9,308.6,195.6,308.6z M197.2,287.4c-3.1,5.6-3,13-1.3,17.9l11.3-13.5c0.2-0.3,0.6-0.4,0.9-0.4
			c3.1,0.2,6.1-0.9,8.2-3.1l12-16.9c-0.1-1.1-0.1-3.2-0.2-3.8l0,0l-0.1-0.3c0-0.6-0.2-1.3-0.5-1.9c-0.5-0.2-2.7-0.9-4.2-1.3
			l-1.7-0.5c-1.6-0.5-3.3-0.4-4.8,0.3c-2.1,1-10,5.9-11,7c-0.7,0.8-2.9,7.2-4.6,12.6c0,0.1-0.1,0.2-0.2,0.4
			C199.9,285,198.7,286.3,197.2,287.4L197.2,287.4z"/>
		<path class="st6" d="M204.1,312.1c3.4-3.3,3.2-11.6,1.8-17l-10.4,12.4l0,0C197.4,311.3,200.4,313.5,204.1,312.1z"/>
		<path d="M201.9,313.6c-3,0-5.6-2-7.4-5.7c-0.2-0.4-0.1-0.9,0.2-1.2l10.3-12.4c0.3-0.3,0.7-0.5,1.1-0.4c0.4,0.1,0.8,0.4,0.9,0.8
			c1.4,5.1,2,14.1-2.1,18.1c-0.1,0.1-0.3,0.2-0.4,0.3C203.7,313.5,202.8,313.6,201.9,313.6z M204.1,312.1L204.1,312.1z M196.9,307.6
			c1.1,2,3.2,4.5,6.6,3.4c2.3-2.5,2.7-8.3,1.8-13.4L196.9,307.6z"/>
		<path d="M265.4,329.7c-0.1,0-0.3,0-0.4-0.1c-4.4-1.9-15-6.2-15.1-6.2c-0.4-0.2-0.6-0.6-0.6-1c0.1-0.4,0.4-0.8,0.8-0.8
			c3.1-0.5,5.1-3,6.2-5.1c2.6-5,2.8-12.2,0.5-17c-0.2-0.4-0.1-0.8,0.2-1.1c0.3-0.3,0.7-0.4,1.1-0.2l20.8,9.2c0.4,0.4,0.5,1,0.1,1.4
			c-0.2,0.3-0.6,0.4-0.9,0.4l-18.6-8.3c1.6,5.5,1.1,11.4-1.4,16.5c-1.1,2.2-2.8,4-5,5.2c3.4,1.4,9.6,3.9,12.7,5.2
			c0.5,0.3,0.6,0.9,0.3,1.4C265.9,329.4,265.6,329.6,265.4,329.7L265.4,329.7z"/>
		<path class="st6" d="M257.9,315.4l-6.2-2.8c-0.8,0-2,0-3.6,0c-0.3,2.9-0.6,8.8,2.2,9.8C253.7,321.9,256.3,319.1,257.9,315.4z"/>
		<path d="M250.3,323.6c-0.1,0-0.3,0-0.4-0.1c-3.2-1.2-3.4-6.6-2.9-11c0.1-0.6,0.5-1,1.1-1h0.4c1.4,0,2.5-0.1,3.2,0
			c0.1,0,0.3,0,0.4,0.1l6.2,2.8c0.6,0.3,0.8,0.9,0.6,1.5c-1.8,4.5-4.8,7.2-8.5,7.8L250.3,323.6z M249.1,313.8
			c-0.3,3.9,0.2,6.8,1.3,7.5c3-0.6,4.9-3.2,5.9-5.3l-4.9-2.2C250.9,313.8,250.1,313.8,249.1,313.8z"/>
		<path d="M191.2,292.2L191.2,292.2c-0.6,0-1.2-0.5-1.2-1.1c0,0,0,0,0-0.1c0-0.7,0.5-16.9,4-26.9c0.2-0.6,0.9-0.9,1.5-0.7
			c0.6,0.2,0.9,0.9,0.7,1.5c-3.4,9.6-3.9,26-3.9,26.2C192.3,291.7,191.8,292.1,191.2,292.2z"/>
		<path d="M265.2,303.3L265.2,303.3c-0.6,0-1.1-0.6-1.1-1.2c0,0,0,0,0,0c0-0.1,0.2-7.4,0-11c0-0.5-0.1-1.2-0.1-2
			c-0.2-5.1-0.8-15.8-3.8-24.2c-0.3-0.6,0-1.3,0.6-1.5c0.6-0.3,1.3,0,1.5,0.6c0,0.1,0,0.1,0.1,0.2c3.1,8.7,3.6,19.6,3.9,24.9
			c0,0.8,0.1,1.4,0.1,1.9c0.3,3.8,0,11,0,11.3C266.4,302.8,265.9,303.3,265.2,303.3C265.2,303.3,265.2,303.3,265.2,303.3z"/>
		<ellipse cx="216.6" cy="216.4" rx="2" ry="2.4"/>
		<path d="M211.9,280.9c-0.2,0-0.4-0.1-0.5-0.2l-6.5-6.4c-0.3-0.3-0.4-0.8-0.1-1.1s0.8-0.4,1.1-0.1c0,0,0.1,0.1,0.1,0.1l6.5,6.4
			c0.3,0.3,0.3,0.8,0,1.1c0,0,0,0,0,0C212.3,280.9,212.1,280.9,211.9,280.9z"/>
		<path d="M214.4,275.5c-0.2,0-0.4-0.1-0.6-0.2l-4.8-5.1c-0.3-0.3-0.2-0.8,0.1-1.1c0.3-0.2,0.7-0.2,1,0l4.8,5.1
			c0.3,0.3,0.3,0.8-0.1,1.1C214.7,275.4,214.5,275.5,214.4,275.5L214.4,275.5z"/>
		<path d="M217.6,271.4c-0.2,0-0.4-0.1-0.6-0.3l-3.7-4.4c-0.3-0.3-0.2-0.8,0.1-1.1c0.3-0.3,0.8-0.2,1.1,0.1c0,0,0,0,0,0l3.7,4.4
			c0.3,0.3,0.2,0.8-0.1,1.1C218,271.4,217.8,271.4,217.6,271.4z"/>
		<path d="M223.8,270.5c-0.2,0-0.4-0.1-0.6-0.3l-4.9-5.5c-0.3-0.3-0.3-0.8,0-1.1c0,0,0,0,0,0c0.3-0.3,0.8-0.3,1.1,0.1l4.9,5.5
			c0.3,0.3,0.3,0.8-0.1,1.1c0,0,0,0,0,0C224.2,270.4,224,270.5,223.8,270.5z"/>
		<path class="st7" d="M239.5,268.6h-22.5c-1.9,0-3.8,1.5-3.5,5.1l2.8,33.4c0,1.7,1.3,3,3,3h17.8c1.7,0,3-1.3,3-3l2.8-33.4
			C243.3,270.1,241.4,268.6,239.5,268.6z"/>
		<path d="M237.1,311.3h-17.8c-2.3,0-4.1-1.7-4.2-4l-2.8-33.4c-0.3-1.8,0.2-3.6,1.3-5c0.9-0.9,2.1-1.4,3.3-1.4h22.5
			c1.3,0,2.5,0.5,3.3,1.4c1.2,1.4,1.6,3.2,1.3,5l-2.8,33.4C241.3,309.5,239.4,311.3,237.1,311.3z M216.9,269.8
			c-0.6,0-1.2,0.2-1.6,0.7c-0.7,0.9-0.9,2.1-0.7,3.2l2.8,33.4c0,1,0.8,1.9,1.9,1.9c0,0,0,0,0,0h17.8c1.1,0,1.9-0.9,1.9-1.9
			c0,0,0,0,0,0l2.8-33.4c0.2-1.1-0.1-2.3-0.7-3.2c-0.4-0.4-1-0.7-1.6-0.7H216.9z"/>
		<path d="M239.5,272.5h-22.5c-0.4,0-0.8-0.3-0.9-0.7c0-0.4,0.3-0.8,0.7-0.9c0.1,0,0.1,0,0.2,0h22.5c0.4,0,0.8,0.3,0.9,0.7
			c0,0.4-0.3,0.8-0.7,0.9C239.6,272.5,239.5,272.5,239.5,272.5z"/>
		<path d="M217.9,278.8c-1.4,0-2.6-1.1-2.6-2.6c0-1.4,1.1-2.6,2.6-2.6s2.6,1.1,2.6,2.6c0,0,0,0,0,0
			C220.4,277.6,219.3,278.8,217.9,278.8z M217.9,275.2c-0.6,0-1,0.4-1,1s0.4,1,1,1s1-0.4,1-1S218.4,275.2,217.9,275.2z"/>
		<path class="st0" d="M257.7,299l-3.8-1.7c0,0-3.1-9.3-4.4-11.2s-4.8-5.8-5.9-7.3s-4,1.4-2.3,5.1s3.4,5.9,3.7,8.7
			c-2.8-0.5-5.6-1.3-8.3-2.4c-5.4-2-9.1-3.7-11.2-4.8s-4.1,1.6-2.9,3.8c-3.4-0.7-4.6,2.3-2.3,4.7c-1.6,1.2-1.8,3.7,2.1,5.9
			c-1.9-0.1-2.3,2.5-0.1,4.4s9.8,6,14.1,7.6s12.8,0.8,15.4,0.9l6.2,2.8C259.9,310.4,260,303.8,257.7,299z"/>
		<path d="M257.9,316.5c-0.2,0-0.3,0-0.5-0.1l-6-2.7c-0.6,0-1.6,0-2.8,0c-3.7,0.1-9.3,0.2-12.7-1c-4.3-1.6-12.1-5.8-14.5-7.8
			c-1.5-1.1-2.1-3-1.6-4.8c0.1-0.2,0.2-0.4,0.3-0.6c-1.2-0.8-1.9-2.1-2.1-3.5c-0.1-0.8,0.2-1.7,0.6-2.4c-0.9-1.2-1.1-2.8-0.4-4.1
			c0.6-1,1.6-1.7,2.8-1.7c-0.1-1.1,0.3-2.2,1.1-3c1-1,2.5-1.3,3.8-0.7c3.3,1.6,7,3.2,11.1,4.7c2.1,0.8,4.2,1.5,6.4,2
			c-0.4-1.1-0.9-2.2-1.5-3.2c-0.5-1-1.1-2.2-1.7-3.5c-1.3-3-0.3-5.9,1.4-6.9c1-0.6,2.2-0.4,2.9,0.5c0.5,0.6,1.4,1.7,2.4,2.9
			c1.4,1.6,2.8,3.4,3.6,4.5c1.3,1.8,3.7,8.9,4.4,11l3.3,1.5c0.2,0.1,0.4,0.3,0.6,0.5c2.4,4.9,2.4,11.9,0.2,17.4
			c-0.1,0.3-0.3,0.5-0.6,0.6C258.2,316.5,258,316.5,257.9,316.5z M250.7,311.5c0.4,0,0.7,0,1,0c0.1,0,0.3,0,0.4,0.1l5,2.3
			c1.5-4.6,1.4-9.5-0.4-14l-3.4-1.5c-0.3-0.1-0.5-0.4-0.6-0.7c-1.2-3.7-3.4-9.6-4.3-10.9c-0.7-1-2.2-2.8-3.5-4.3
			c-0.9-1.1-1.9-2.2-2.4-2.9c-0.2,0.2-0.4,0.4-0.5,0.6c-0.5,1.1-0.4,2.3,0.1,3.3c0.6,1.3,1.1,2.4,1.6,3.3c1.1,1.7,1.8,3.7,2.1,5.7
			c0.1,0.6-0.4,1.2-1,1.2c-0.1,0-0.2,0-0.3,0c-2.9-0.5-5.8-1.4-8.5-2.5c-4.1-1.6-8-3.2-11.3-4.8c-0.4-0.2-0.9-0.1-1.1,0.2
			c-0.5,0.6-0.6,1.4-0.2,2c0.3,0.6,0.1,1.3-0.5,1.6c-0.2,0.1-0.5,0.2-0.7,0.1c-1-0.2-1.7,0-2,0.5s-0.1,1.4,0.8,2.3
			c0.5,0.4,0.5,1.2,0,1.6c0,0-0.1,0.1-0.1,0.1c-0.4,0.3-0.6,0.7-0.6,1.2c0.1,0.9,1,1.9,2.6,2.7c0.5,0.3,0.7,0.8,0.6,1.3
			c-0.1,0.5-0.6,0.9-1.2,0.8c-0.3,0-0.3,0.1-0.4,0.2c-0.1,0.4,0,1.3,1,2.1c2,1.7,9.4,5.8,13.8,7.4c3,1.1,8.3,1,11.9,0.9
			C249.4,311.5,250.1,311.5,250.7,311.5L250.7,311.5z"/>
		<path d="M237.6,296.7c-0.1,0-0.2,0-0.3,0l-0.6-0.2c-4.4-1.7-11.8-4.5-14.7-6.6c-0.4-0.2-0.4-0.7-0.2-1.1c0.2-0.4,0.7-0.4,1.1-0.2
			c2.8,2,10.4,4.9,14.4,6.4l0.6,0.2c0.4,0.2,0.6,0.6,0.4,1C238.2,296.6,237.9,296.8,237.6,296.7L237.6,296.7z"/>
		<path d="M236.5,301.9c-0.1,0-0.2,0-0.3,0c-5.2-1.8-13.3-5.3-16.5-7.2c-0.4-0.2-0.5-0.7-0.3-1.1c0,0,0,0,0,0c0.2-0.4,0.7-0.5,1-0.2
			c0,0,0,0,0,0c3,1.9,11.1,5.4,16.2,7.1c0.4,0.1,0.6,0.6,0.5,1c0,0,0,0,0,0C237.1,301.7,236.9,301.9,236.5,301.9z"/>
		<path d="M235.9,306.9c-0.1,0-0.2,0-0.3,0c-4.7-1.8-9.3-3.9-13.7-6.5c-0.4-0.2-0.5-0.7-0.3-1c0.2-0.4,0.7-0.5,1-0.3c0,0,0,0,0.1,0
			c4.3,2.5,8.8,4.6,13.4,6.3c0.4,0.2,0.6,0.6,0.4,1C236.5,306.7,236.2,306.9,235.9,306.9L235.9,306.9z"/>
		<polyline class="st5" points="810.7,382.6 809.9,344.1 751.2,342.8 745.7,382.6 		"/>
		<path class="st0" d="M787,231.5l-23.6,0.1c0.3,3.3,0.3,6.6,0.1,9.9c3,4.5,7.1,8.1,11.9,10.6c4.5-2.8,8.4-6.4,11.5-10.7L787,231.5z
			"/>
		<path d="M775.5,253.1c-0.1,0-0.3,0-0.4-0.1c-5-2.5-9.2-6.3-12.3-10.9c-0.1-0.2-0.2-0.4-0.1-0.6c0.2-3.3,0.1-6.5-0.1-9.8
			c-0.1-0.5,0.3-0.9,0.8-1c0,0,0.1,0,0.1,0l23.6-0.1l0,0c0.5,0,0.9,0.4,0.9,0.9v10c0,0.2-0.1,0.4-0.2,0.5c-3.2,4.4-7.2,8.1-11.8,11
			C775.9,253.1,775.7,253.1,775.5,253.1z M764.5,241.4c2.8,4.1,6.6,7.5,11,9.8c4.1-2.7,7.8-6,10.7-10v-8.8l-21.7,0.1
			C764.7,235.4,764.7,238.4,764.5,241.4z"/>
		<polyline class="st8" points="900.4,382.6 902,362.5 871.2,325.4 860.5,325.8 839.7,362 839.5,382.6 		"/>
		<path d="M869.2,383.4c-0.5,0-0.9-0.4-0.9-0.9c0,0,0,0,0,0V370l-8.5-5c-0.4-0.3-0.5-0.8-0.2-1.2c0.3-0.3,0.7-0.5,1.1-0.3l8.9,5.3
			c0.3,0.2,0.4,0.4,0.4,0.8v13.1C870.1,383,869.7,383.4,869.2,383.4C869.2,383.4,869.2,383.4,869.2,383.4z"/>
		<path class="st0" d="M781.9,206.2c2.9-1.4,5-4,6-7.1c-5.2,6.5-16.2,6.9-22.2,7.8s-8.6,7.3-8.6,7.3s0.4,9.6,1.6,14.5
			s7.6,11.4,16.9,11.4s15.7-6.4,16.9-11.4s1.5-14.5,1.5-14.5c-1.8-3.1-3.3-6.3-4.3-9.8C786.4,206.7,781.9,206.2,781.9,206.2z"/>
		<path d="M775.5,241c-4.3,0-8.6-1.4-12-4c-2.7-2-4.8-4.8-5.7-8.1c-1.2-5-1.6-14.3-1.6-14.7c0-0.1,0-0.3,0.1-0.4
			c0.1-0.3,2.9-6.8,9.2-7.8c0.9-0.1,1.9-0.3,2.9-0.4c6.1-0.8,14.5-1.8,18.7-7.1c0.3-0.3,0.7-0.4,1.1-0.2c0.4,0.2,0.6,0.6,0.5,1
			c-0.7,2.2-2,4.3-3.7,5.9c1.5-0.2,2.9-0.7,4.2-1.5c0.4-0.3,0.9-0.2,1.2,0.2c0.1,0.1,0.1,0.2,0.1,0.3c1,3.3,2.4,6.5,4.2,9.5
			c0.1,0.2,0.2,0.3,0.2,0.5c0,0.4-0.4,9.7-1.6,14.7C791.9,234.8,784.7,241,775.5,241z M758,214.4c0.1,1.4,0.5,9.7,1.5,14.1
			s6.8,10.7,16,10.7s15-6.4,16-10.7s1.5-12.5,1.5-14.1c-1.6-2.7-2.9-5.6-3.9-8.7c-2.3,1.1-4.8,1.5-7.4,1.3c-0.5-0.1-0.8-0.5-0.8-1
			c0-0.3,0.2-0.6,0.5-0.7c1.1-0.6,2.2-1.3,3-2.3c-4.8,2.9-11,3.7-15.9,4.3c-1,0.1-2,0.2-2.9,0.4C760.9,208.6,758.4,213.4,758,214.4z
			"/>
		<path class="st0" d="M753.9,222.4c0.4,3.3,2.5,6.6,4.6,5.6c-0.6-3.2-1-6.4-1.2-9.7C755.4,217,753.5,219.1,753.9,222.4z"/>
		<path d="M757.6,229.1c-0.5,0-1-0.1-1.4-0.4c-1.6-0.9-3-3.4-3.3-6.2l0,0c-0.3-2.3,0.5-4.3,1.9-5.2c0.9-0.6,2.1-0.5,3,0.2
			c0.2,0.1,0.4,0.4,0.4,0.7c0.2,3.2,0.6,6.4,1.1,9.6c0.1,0.4-0.1,0.8-0.5,1C758.5,229,758.1,229.1,757.6,229.1z M754.7,222.3
			c0.2,2.1,1.2,4.2,2.3,4.8c0.1,0.1,0.2,0.1,0.3,0.1c-0.5-2.6-0.8-5.9-1-8.4c-0.2-0.1-0.5-0.1-0.7,0.1
			C755.1,219.3,754.5,220.5,754.7,222.3L754.7,222.3z"/>
		<path class="st0" d="M793.7,218.3c-0.2,3.3-0.6,6.5-1.2,9.7c2.1,1.1,4.2-2.2,4.6-5.6S795.6,217,793.7,218.3z"/>
		<path d="M793.4,229.1c-0.4,0-0.8-0.1-1.2-0.3c-0.4-0.2-0.6-0.6-0.5-1c0.6-3.2,0.9-6.4,1.1-9.6c0-0.3,0.2-0.5,0.4-0.7
			c0.9-0.7,2.1-0.8,3-0.2c1.4,0.8,2.1,2.9,1.9,5.2s-1.4,5.1-3.3,6.2C794.4,228.9,793.9,229.1,793.4,229.1z M794.6,218.8
			c-0.2,2.5-0.5,5.8-1,8.4c0.1,0,0.2-0.1,0.3-0.1c1.1-0.6,2.1-2.7,2.3-4.8c0.2-1.8-0.4-3.1-1-3.4
			C795.1,218.8,794.8,218.7,794.6,218.8L794.6,218.8z"/>
		<path class="st4" d="M790.9,192c-3.5-8.1-10.6-9.2-20.8-6.4s-17.9,12.9-15.8,18.7c1.2,3.2,2.1,6.5,2.8,9.9c0,0,2.6-6.4,8.6-7.3
			s17-1.3,22.2-7.8c-1,3.1-3.1,5.6-6,7.1c0,0,4.5,0.5,7.8-1.8c1,3.4,2.5,6.7,4.3,9.8c0,0,1.8-5.4,3.1-9.4S797,191.9,790.9,192z"/>
		<path d="M794,215.1c-0.3,0-0.6-0.1-0.7-0.4c-1.7-2.8-3.1-5.8-4.1-8.9c-2.3,1.1-4.8,1.5-7.4,1.3c-0.5-0.1-0.8-0.5-0.8-1
			c0-0.3,0.2-0.6,0.5-0.7c1.1-0.6,2.2-1.3,3-2.3c-4.8,2.9-11,3.7-15.9,4.3c-1,0.1-2,0.2-2.9,0.4c-5.4,0.8-7.9,6.7-7.9,6.7
			c-0.2,0.5-0.7,0.7-1.1,0.5c-0.3-0.1-0.5-0.4-0.5-0.7c-0.6-3.3-1.5-6.6-2.7-9.7c-0.8-2.2-0.4-4.8,1.1-7.7c2.8-5.5,9-10.4,15.4-12.2
			c11.2-3.2,18.1-1.2,21.6,6.3c1.9,0.1,3.6,1.1,4.7,2.7c2.3,3.1,2.7,8.3,1.8,11.3c-1.3,4-3.1,9.4-3.2,9.4
			C794.7,214.8,794.4,215.1,794,215.1L794,215.1z M789.7,203.6c0.1,0,0.2,0,0.3,0.1c0.3,0.1,0.5,0.3,0.5,0.6
			c0.9,2.7,1.9,5.4,3.2,7.9c0.7-1.9,1.7-5,2.5-7.6c0.9-3.3,0.3-6.8-1.5-9.7c-0.9-1.3-2.3-2-3.8-2c-0.4,0-0.7-0.2-0.8-0.5
			c-3-7.1-9.1-8.9-19.7-5.9c-6,1.8-11.2,5.8-14.3,11.3c-1.2,2.4-1.6,4.6-1,6.3c0.9,2.5,1.7,5.1,2.3,7.7c1.8-2.9,4.7-5,8-5.6
			c0.9-0.1,1.9-0.3,2.9-0.4c6.1-0.8,14.5-1.8,18.7-7.1c0.3-0.3,0.7-0.4,1.1-0.2c0.4,0.2,0.6,0.6,0.5,1c-0.7,2.2-2,4.3-3.7,5.9
			c1.5-0.2,2.9-0.7,4.2-1.5C789.3,203.6,789.5,203.6,789.7,203.6L789.7,203.6z"/>
		<path class="st9" d="M763.6,241.6c0,0-11.5,5-16.1,6.8s-7.8,4.7-9,11.7s-5.4,83-5.4,83l25.7,4.7l10.5-79.1
			C763.6,253.5,763.6,241.6,763.6,241.6z"/>
		<path d="M758.8,348.6h-0.2l-25.6-4.7c-0.4-0.1-0.8-0.5-0.7-0.9c0.2-3.1,4.2-76.2,5.4-83.1c1.4-8,5.6-10.7,9.6-12.3
			c4.5-1.8,16-6.8,16.1-6.8c0.3-0.1,0.6-0.1,0.8,0.1c0.2,0.2,0.4,0.4,0.4,0.7c0.4,9.2,2.3,18.2,5.6,26.8c0,0.1,0,0.3,0,0.4
			l-10.5,79.1c0,0.2-0.2,0.5-0.3,0.6C759.1,348.6,759,348.6,758.8,348.6z M734,342.3l24,4.4l10.3-77.9c-3.1-8.3-5-17-5.6-25.9
			c-3.1,1.3-11.2,4.8-14.9,6.3s-7.3,3.8-8.5,11C738.3,266.6,734.5,334.2,734,342.3z"/>
		<path class="st9" d="M808.9,258.5c0-3.8-2-7.2-6.4-9.6s-15.5-7.5-15.5-7.5c-1,9.2-3.1,18.2-6.2,26.9l7.4,80.8l0.8,8.7
			c8.4,0.8,21.6-0.8,21.6-0.8S808.9,262.3,808.9,258.5z"/>
		<path d="M794.6,359.1c-2,0-3.9-0.1-5.6-0.2c-0.4,0-0.8-0.4-0.8-0.8l-8.2-89.5c0-0.1,0-0.3,0.1-0.4c3-8.6,5.1-17.6,6.1-26.7
			c0-0.5,0.5-0.8,1-0.8c0.1,0,0.2,0,0.3,0.1c0.1,0.1,11.1,5.1,15.5,7.5s6.9,6,6.9,10.3c0,3.7,1.8,97.7,1.8,98.6
			c0,0.5-0.3,0.8-0.8,0.9C805.5,358.7,800.1,359,794.6,359.1z M790,357.1c7,0.5,17-0.5,19.9-0.8c-0.2-9.3-1.8-94.3-1.8-97.9
			c0-3.6-2-6.7-5.9-8.8c-3.5-1.9-11.4-5.6-14.3-6.9c-1.1,8.8-3.1,17.4-6,25.7L790,357.1z"/>
		<path class="st0" d="M780.9,268.4c3.1-8.7,5.1-17.8,6.2-26.9c-3.1,4.3-7,7.9-11.5,10.7c-4.8-2.5-8.9-6.1-11.9-10.6
			c0,0,0,11.9,5.6,27.1l-10.5,79c5.5,2.9,20,3.8,29.6,1.5L780.9,268.4z"/>
		<path d="M775.8,351.4c-7,0-13.9-1-17.4-2.9c-0.3-0.2-0.5-0.5-0.5-0.9l10.4-78.8c-5.5-15.1-5.6-26.7-5.6-27.2
			c0-0.4,0.3-0.7,0.7-0.9c0.4-0.1,0.8,0,1,0.4c2.8,4.2,6.7,7.6,11.1,10.1c4.2-2.7,7.9-6.1,10.8-10.2c0.3-0.4,0.8-0.5,1.2-0.3
			c0.3,0.2,0.4,0.5,0.4,0.9c-1,9.2-3.1,18.3-6.2,27l7.4,80.6c0.1,0.5-0.2,0.9-0.7,1C784.3,351.1,780.1,351.5,775.8,351.4z
			 M759.8,347.2c5.7,2.6,18.8,3.2,27.7,1.3l-7.4-80c0-0.1,0-0.3,0.1-0.4c2.7-7.6,4.6-15.5,5.7-23.5c-2.8,3.3-6.2,6.1-9.8,8.4
			c-0.3,0.1-0.6,0.1-0.8,0c-4.1-2.1-7.6-4.9-10.5-8.5c0.7,8.2,2.6,16.2,5.4,23.9c0,0.1,0,0.3,0,0.4L759.8,347.2z"/>
		<path d="M768.5,258.8c-0.2,0-0.3-0.1-0.4-0.2c-0.2-0.2-0.2-0.6,0-0.8c0,0,0,0,0,0l4.3-4.6c0.2-0.2,0.6-0.2,0.8,0
			c0.2,0.2,0.2,0.6,0,0.8l-4.3,4.6C768.8,258.8,768.6,258.8,768.5,258.8z"/>
		<path d="M781.8,258.8c-0.2,0-0.3-0.1-0.4-0.2l-3.9-4.4c-0.2-0.2-0.2-0.6,0-0.8c0,0,0,0,0,0c0.2-0.2,0.6-0.2,0.8,0.1l3.9,4.4
			c0.2,0.2,0.2,0.6-0.1,0.8C782,258.8,781.9,258.8,781.8,258.8z"/>
		<circle class="st10" cx="775.5" cy="256.9" r="1.2"/>
		<circle class="st10" cx="775.5" cy="282.7" r="1.2"/>
		<circle class="st10" cx="775.5" cy="308.5" r="1.2"/>
		<circle class="st10" cx="775.5" cy="334.3" r="1.2"/>
		<path d="M766.4,268c-0.1,0-0.2,0-0.3-0.1l-7.7-4.6c-0.1-0.1-0.2-0.2-0.3-0.4c0-0.2,0-0.3,0.1-0.5l2.7-4.4l-7.8-0.5
			c-0.2,0-0.4-0.1-0.5-0.3c-0.1-0.2-0.1-0.4,0-0.6l5.8-9.8c0.1-0.3,0.5-0.4,0.8-0.3c0.3,0.1,0.4,0.5,0.3,0.8c0,0.1-0.1,0.1-0.1,0.2
			l-5.3,9l7.8,0.5c0.2,0,0.4,0.1,0.5,0.3c0.1,0.2,0.1,0.4,0,0.6l-3,4.7l7.2,4.3c0.3,0.2,0.4,0.5,0.2,0.8
			C766.8,267.9,766.6,268,766.4,268z"/>
		<path d="M784.4,268.6c-0.2,0-0.4-0.1-0.5-0.3c-0.2-0.3,0-0.6,0.2-0.8c0,0,0,0,0,0l8.8-4.6l-4.3-4.3c-0.2-0.2-0.2-0.6,0-0.8
			c0.1-0.1,0.2-0.1,0.3-0.2l8.3-1.7l-6-8.9c-0.2-0.3-0.1-0.6,0.2-0.8c0.3-0.2,0.6-0.1,0.8,0.2l6.5,9.7c0.2,0.3,0.1,0.6-0.2,0.8
			c-0.1,0-0.1,0.1-0.2,0.1l-8.1,1.6l4.1,4.1c0.1,0.1,0.2,0.3,0.2,0.5c0,0.2-0.1,0.3-0.3,0.4l-9.6,5
			C784.7,268.6,784.5,268.6,784.4,268.6z"/>
		<path d="M772.9,377.3c-0.3,0-0.6-0.3-0.6-0.6v0v-20.9c0-0.3,0.3-0.6,0.6-0.6l0,0c0.3,0,0.6,0.2,0.6,0.6c0,0,0,0,0,0v20.9
			C773.5,377,773.2,377.3,772.9,377.3C772.9,377.3,772.9,377.3,772.9,377.3z"/>
		<path d="M778,377.3c-0.3,0-0.6-0.2-0.6-0.6c0,0,0,0,0,0v-20.9c0-0.3,0.2-0.6,0.6-0.6c0,0,0,0,0,0c0.3,0,0.6,0.3,0.6,0.6v0v20.9
			C778.6,377,778.3,377.3,778,377.3L778,377.3z"/>
		<path class="st4" d="M876.3,197.2l-2.1,5.9l5.6,3.6c0,2.2-0.3,4.4-1,6.5l2.2,0.4c0,0,1.6-2.6,3.1-2.4c0.6,0.1,1.2,0.3,1.7,0.7
			c4.8-8.1,5.2-17.9,0-21.5c-3.9-10.9-15.8-8.5-22.5-9.5s-10.2-3.9-10.2-3.9c-0.3,2.3,0.3,4.6,1.7,6.5c-3.2-1.2-5.9-3.2-8-5.9
			c-4.2,4.8-5.4,10-0.1,14.6c-1.9,0.7-4,0.7-5.9,0.1c0.4,3.6,2.8,6.7,6.2,8c0.1-1.4,0.2-2.3,0.2-2.3
			C853.5,193.7,868.1,192.7,876.3,197.2z"/>
		<path d="M881,214.5h-0.1l-2.2-0.4c-0.3,0-0.5-0.2-0.6-0.4c-0.1-0.2-0.2-0.5-0.1-0.8c0.6-1.8,1-3.8,1-5.7l-5.2-3.4
			c-0.3-0.2-0.5-0.6-0.4-1l1.8-5.2c-8.1-4-21.3-2.8-27.1,1.1c0,0.4-0.1,1-0.1,1.9c0,0.3-0.2,0.5-0.4,0.7c-0.2,0.1-0.5,0.2-0.8,0.1
			c-3.7-1.4-6.3-4.8-6.8-8.7c-0.1-0.5,0.2-0.9,0.7-1c0.2,0,0.4,0,0.5,0c1.2,0.4,2.6,0.5,3.8,0.2c-3.9-4.3-3.5-9.5,1.2-14.8
			c0.2-0.2,0.4-0.3,0.7-0.3c0.3,0,0.5,0.1,0.7,0.4c1.5,1.8,3.2,3.4,5.2,4.5c-0.6-1.5-0.8-3.1-0.6-4.7c0-0.3,0.3-0.6,0.5-0.7
			c0.3-0.1,0.6-0.1,0.9,0.1c2.9,2,6.3,3.3,9.8,3.7c1.5,0.2,3.1,0.3,4.6,0.3c6.4,0.2,15.1,0.6,18.5,9.5c5.1,3.9,5.2,13.6,0,22.5
			c-0.1,0.2-0.4,0.4-0.6,0.4c-0.3,0.1-0.5,0-0.7-0.2c-0.4-0.3-0.8-0.4-1.3-0.5c-0.7-0.1-1.7,1.1-2.2,2
			C881.6,214.4,881.3,214.5,881,214.5z M879.9,212.5l0.7,0.1c0.6-0.9,2-2.5,3.7-2.3c0.4,0.1,0.8,0.2,1.2,0.3
			c4.3-7.8,4.2-16.4-0.2-19.5c-0.1-0.1-0.3-0.3-0.3-0.4c-2.9-8.1-10.4-8.3-17-8.6c-1.6,0-3.2-0.1-4.8-0.4c-3.3-0.4-6.4-1.5-9.2-3.1
			c0.1,1.6,0.6,3.1,1.6,4.3c0.2,0.3,0.2,0.8,0,1.1c-0.2,0.3-0.6,0.4-1,0.3c-3-1.1-5.6-2.9-7.7-5.3c-3.8,4.7-3.6,9,0.5,12.6
			c0.2,0.2,0.3,0.5,0.3,0.8c-0.1,0.3-0.3,0.6-0.6,0.7c-1.6,0.6-3.3,0.7-5,0.5c0.6,2.3,2.2,4.3,4.3,5.5c0-0.6,0.1-1,0.1-1
			c0-0.3,0.2-0.5,0.4-0.6c6.2-4.5,21-6,30-1.1c0.4,0.2,0.6,0.7,0.4,1.1l-1.9,5.2l5,3.2c0.2,0.2,0.4,0.4,0.4,0.7
			C880.7,208.6,880.5,210.6,879.9,212.5L879.9,212.5z"/>
		<path class="st0" d="M884.2,211.2c-1.6-0.2-3.1,2.4-3.1,2.4l-2.2-0.4c0.7-2.1,1.1-4.3,1-6.5l-5.6-3.6l2.1-5.9
			c-8.2-4.5-22.8-3.5-29,1c0,0-1.6,16.1,0.8,23.8s6.5,11.4,9.3,13.1v3.8c1.6,2.3,3.8,4,6.4,5c0,0,8.3-1.7,16.5-11
			c-0.2-3.3,0-6.7,0.5-10c2.8,0.9,5.8-2.1,6.2-6.4S885.7,211.5,884.2,211.2z"/>
		<path d="M863.7,244.8c-0.1,0-0.2,0-0.3-0.1c-2.8-1-5.2-2.9-6.9-5.4c-0.1-0.1-0.1-0.3-0.1-0.5v-3.3c-3-2.1-7-6-9.2-13.4
			c-2.4-7.7-0.9-23.5-0.8-24.1c0-0.3,0.2-0.5,0.4-0.6c6.2-4.5,21-6,30-1.1c0.4,0.2,0.6,0.7,0.4,1.1l-1.9,5.2l5,3.2
			c0.2,0.2,0.4,0.4,0.4,0.7c0,2-0.2,3.9-0.8,5.8l0.7,0.1c0.6-0.9,2-2.5,3.7-2.3c2.8,0.4,3.8,2.4,3.5,6.2c-0.2,2.6-1.4,5-3.5,6.5
			c-0.8,0.6-1.8,0.9-2.8,0.8c-0.4,3-0.5,6-0.4,9c0,0.2-0.1,0.4-0.2,0.6c-8.3,9.4-16.7,11.2-17,11.3L863.7,244.8z M858.2,238.7
			c1.4,1.9,3.4,3.4,5.6,4.4c1.4-0.4,8.5-2.6,15.6-10.4c-0.1-3.3,0-6.6,0.5-9.8c0-0.3,0.2-0.5,0.4-0.6c0.2-0.1,0.5-0.2,0.7-0.1
			c0.8,0.2,1.6,0.1,2.3-0.4c1.6-1.3,2.6-3.2,2.7-5.2c0.4-3.9-1-4.1-2-4.3l0,0c-0.6-0.1-1.7,1.1-2.2,2c-0.2,0.3-0.5,0.5-0.9,0.4
			l-2.2-0.4c-0.3,0-0.5-0.2-0.6-0.4c-0.1-0.2-0.2-0.5-0.1-0.8c0.6-1.8,1-3.8,1-5.7l-5.2-3.4c-0.3-0.2-0.5-0.6-0.4-1l1.8-5.2
			c-8.1-4-21.3-2.8-27.1,1.1c-0.2,2.6-1.3,16.3,0.8,23c2.2,7.2,6.1,10.8,8.9,12.7c0.3,0.2,0.4,0.4,0.4,0.7L858.2,238.7z"/>
		<path class="st8" d="M880.4,234.4c-5.6,31.9-22.6,66.8-22.6,66.8c-11.8-36.5-0.4-62.4-0.4-62.4l-24.5,8l-7.1,72.4l8.6,45.9
			c0,0,19.1,3.7,22.2-4.8s6.8-32.3,6.8-32.3s3.1,23.2,6.7,30.6s9.3,9.5,18.6,8.1s13.3-4,13.3-4l8.5-112.7
			C910.5,249.8,891.1,240.4,880.4,234.4z"/>
		<path d="M883.8,367.9c-7,0-11.5-2.9-14.4-9c-2.5-5.3-4.7-17.9-5.9-25.3c-1.3,7.6-3.7,20.9-5.9,26.9c-3.4,9.1-22.4,5.6-23.2,5.4
			c-0.4-0.1-0.6-0.4-0.7-0.7l-8.6-45.9c0-0.1,0-0.2,0-0.2l7.1-72.4c0-0.3,0.3-0.6,0.6-0.8l24.5-8c0.3-0.1,0.7,0,0.9,0.2
			c0.2,0.3,0.3,0.6,0.2,0.9c-2.1,5.6-3.5,11.4-4.2,17.4c-1.6,14.2-0.3,28.6,3.9,42.3c3.7-7.9,16.8-37.4,21.6-64.5
			c0.1-0.3,0.2-0.5,0.5-0.6c0.3-0.1,0.6-0.1,0.8,0c10.6,5.9,29.9,15.3,30.1,15.4c0.3,0.2,0.5,0.5,0.5,0.9l-8.5,112.7
			c0,0.3-0.2,0.5-0.4,0.7c-0.2,0.1-4.2,2.8-13.6,4.2C887.2,367.7,885.5,367.9,883.8,367.9z M863.5,327L863.5,327
			c0.4,0,0.8,0.3,0.9,0.8c0,0.2,3.2,23.1,6.6,30.4c3.2,6.8,8.3,9,17.7,7.6c7.4-1.1,11.4-3.1,12.5-3.7l8.4-111.6
			c-3.1-1.5-18.8-9.2-28.5-14.6c-5.8,31.4-22.3,65.4-22.5,65.8c-0.2,0.3-0.5,0.5-0.9,0.5c-0.4,0-0.7-0.3-0.8-0.6
			c-4.8-14.6-6.4-30-4.6-45.3c0.6-5.4,1.8-10.8,3.6-16l-22.2,7.2l-7,71.7l8.5,45.2c3,0.5,6.1,0.7,9.2,0.6c4.4-0.1,10-1.1,11.5-5
			c3.1-8.3,6.7-31.9,6.8-32.2C862.7,327.3,863,327,863.5,327z"/>
		<path class="st0" d="M880.3,232.4c-8.2,9.7-16.5,11.5-16.5,11.5c-2.6-1.1-4.9-2.9-6.4-5.2c0,0-11.4,25.9,0.4,62.4
			c0,0,17-34.8,22.6-66.8C880.4,234.4,880.3,233.6,880.3,232.4z"/>
		<path d="M857.7,302L857.7,302c-0.4,0-0.7-0.3-0.9-0.6c-4.8-14.6-6.4-30-4.6-45.3c1.4-11,4.2-17.5,4.3-17.8
			c0.1-0.3,0.4-0.5,0.8-0.5c0.3,0,0.6,0.1,0.8,0.4c1.4,2.1,3.4,3.8,5.7,4.8c1.4-0.4,8.7-2.8,15.8-11.2c0.3-0.4,0.9-0.4,1.2-0.1
			c0.2,0.2,0.3,0.4,0.3,0.7c0,1.2,0.1,2,0.1,2c0,0.1,0,0.1,0,0.2c-5.6,31.7-22.5,66.6-22.7,67C858.4,301.8,858,302,857.7,302z
			 M857.6,240.5c-2.1,5.8-8.7,28.3,0.3,58.2c3.7-7.9,16.7-37.1,21.5-64c-7.8,8.3-15.1,10-15.5,10.1c-0.2,0-0.3,0-0.5,0
			C861.2,243.9,859.1,242.4,857.6,240.5L857.6,240.5z"/>
		<path d="M855.8,252.2c-0.5,0-0.9-0.4-0.9-0.9c0-0.2,0.1-0.4,0.2-0.5c2.3-2.9,5.1-5.5,8.1-7.6c0.4-0.3,1-0.2,1.2,0.2
			c0.3,0.4,0.2,1-0.2,1.2c-2.9,2-5.5,4.4-7.7,7.2C856.4,252.1,856.1,252.2,855.8,252.2z"/>
		<path d="M873.1,253.3c-0.3,0-0.5-0.1-0.7-0.3c-2.7-3.1-5.8-5.9-9.2-8.3c-0.4-0.3-0.5-0.8-0.2-1.2c0.3-0.4,0.8-0.5,1.2-0.2
			c3.5,2.4,6.8,5.3,9.5,8.6c0.3,0.4,0.3,0.9-0.1,1.2C873.6,253.2,873.3,253.3,873.1,253.3L873.1,253.3z"/>
		<path class="st5" d="M858.9,247.9c0.1,1.8,0.4,4.7,2,6.6h3.3c1.6-2.2,2.9-4.5,4.1-6.9c-1.4-1.3-3-2.5-4.6-3.6
			C862,245.1,860.4,246.5,858.9,247.9z"/>
		<path d="M864.2,255.4h-3.3c-0.3,0-0.5-0.1-0.7-0.3c-1.7-2-2.2-5-2.3-7.1c0-0.2,0.1-0.5,0.3-0.7c1.5-1.5,3.2-2.9,5-4.1
			c0.3-0.2,0.7-0.2,1,0c1.6,1.1,3.2,2.4,4.7,3.7c0.3,0.3,0.4,0.7,0.2,1c-1.2,2.5-2.6,4.8-4.2,7.1
			C864.8,255.2,864.5,255.4,864.2,255.4z M861.4,253.6h2.4c1.3-1.9,2.5-3.8,3.5-5.8c-1.1-1-2.3-1.9-3.5-2.8c-1.4,1-2.7,2.1-4,3.3
			C859.8,250.2,860.3,252,861.4,253.6L861.4,253.6z"/>
		<path class="st5" d="M867.8,277.6l-3.6-23.1h-3.3c-4,9.9-6.4,20.4-7,31c0.9,5.3,2.2,10.5,3.8,15.7
			C857.8,301.2,862.5,291.4,867.8,277.6z"/>
		<path d="M857.7,302L857.7,302c-0.4,0-0.7-0.3-0.9-0.6c-1.7-5.2-3-10.4-3.9-15.8c0-0.1,0-0.1,0-0.2c0.7-10.8,3.1-21.3,7.1-31.3
			c0.1-0.3,0.5-0.5,0.8-0.5h3.3c0.4,0,0.8,0.3,0.9,0.8l3.6,23.1c0,0.1,0,0.3,0,0.5c-5.3,13.7-10,23.5-10.1,23.6
			C858.4,301.8,858.1,302,857.7,302z M854.7,285.4c0.8,4.5,1.8,8.9,3.1,13.3c1.6-3.5,5.2-11.3,9-21.2l-3.4-22.1h-1.9
			C857.7,265,855.4,275.1,854.7,285.4L854.7,285.4z"/>
		<path d="M855.2,302.2c-0.2,0-0.4-0.1-0.5-0.3c-7.9-14.2-12.6-29.9-13.7-46.1c0-0.2,0.1-0.5,0.4-0.6l6.2-2.6l-3.6-2.4
			c-0.1-0.1-0.2-0.3-0.2-0.4c0-0.2,0-0.4,0.2-0.5l7-6.9c0.2-0.2,0.6-0.2,0.8,0c0.2,0.2,0.2,0.6,0,0.8l0,0l-6.5,6.4l3.9,2.6
			c0.3,0.2,0.3,0.6,0.1,0.8c-0.1,0.1-0.1,0.1-0.2,0.2l-6.9,2.9c1.2,15.9,5.8,31.3,13.6,45.2c0.2,0.3,0.1,0.6-0.2,0.8
			C855.5,302.1,855.3,302.2,855.2,302.2z"/>
		<path d="M863,298.7c-0.1,0-0.3,0-0.4-0.1c-0.3-0.2-0.3-0.6-0.1-0.8c10.1-12.5,18.6-26.2,25.3-40.8l-6.2-5
			c-0.2-0.1-0.3-0.4-0.2-0.6c0-0.2,0.2-0.4,0.4-0.4l6.6-1.8l-3.4-9.4c-0.1-0.3,0-0.6,0.3-0.7c0,0,0,0,0,0c0.3-0.1,0.6,0,0.8,0.3
			c0,0,0,0,0,0l3.6,10c0.1,0.2,0.1,0.3,0,0.5c-0.1,0.1-0.2,0.3-0.4,0.3l-6.2,1.7l5.7,4.6c0.2,0.2,0.3,0.4,0.2,0.7
			c-6.8,14.9-15.4,28.8-25.7,41.5C863.4,298.7,863.2,298.7,863,298.7z"/>
		<ellipse cx="852.3" cy="211.1" rx="1.4" ry="1.7"/>
		<ellipse cx="868.3" cy="210.3" rx="1.4" ry="1.7"/>
		<path d="M859.9,220.5c-1.1,0-2.1-0.2-3.1-0.6c-0.3-0.1-0.4-0.5-0.3-0.8c0.1-0.3,0.5-0.4,0.8-0.3c0,0,0,0,0,0
			c0.8,0.3,1.7,0.5,2.6,0.5c0.3,0,0.6,0.3,0.6,0.6C860.5,220.2,860.3,220.5,859.9,220.5C859.9,220.5,859.9,220.5,859.9,220.5
			L859.9,220.5z"/>
		<path d="M860.4,225.7h-0.7c-1-0.1-3.2-0.3-4.1-1.3c-0.2-0.3-0.2-0.6,0.1-0.8c0.3-0.2,0.6-0.2,0.8,0.1c0,0,0,0,0,0
			c0.3,0.4,1.4,0.8,3.2,0.9c2.3,0.1,5.2-0.4,6.5-1.8c0.2-0.2,0.6-0.2,0.8,0c0.2,0.2,0.2,0.6,0,0.8
			C865.7,225.1,862.7,225.7,860.4,225.7z"/>
		<path d="M861.3,229c-1.1,0.1-2.3-0.2-3.2-0.9c-0.3-0.2-0.3-0.6-0.1-0.8c0.2-0.3,0.6-0.3,0.8-0.1c1.2,0.9,4.5,0.7,5.5-0.1
			c0.3-0.2,0.6-0.2,0.8,0.1c0,0,0,0,0,0c0.2,0.3,0.2,0.6-0.1,0.8C864,228.8,862.7,229.1,861.3,229z"/>
		<path d="M854.5,207.2c-0.1,0-0.2,0-0.3-0.1l0,0c-1.4-0.8-2.9-1.2-4.5-1.1h-0.2c-0.3,0-0.6-0.3-0.6-0.6c0-0.3,0.2-0.6,0.6-0.6
			c0,0,0,0,0,0c1.9-0.1,3.7,0.4,5.4,1.3c0.3,0.2,0.3,0.5,0.2,0.8C854.9,207.1,854.7,207.2,854.5,207.2z"/>
		<path d="M863,205c-0.2,0-0.3-0.1-0.5-0.2c-0.2-0.2-0.2-0.6,0.1-0.8c0.1-0.1,3.2-2.7,6.7-2.4c0.3,0,0.6,0.3,0.5,0.6
			c0,0.3-0.3,0.6-0.6,0.5c-3-0.3-5.8,2.1-5.8,2.1C863.3,204.9,863.1,205,863,205z"/>
		<path d="M865.2,212.3c-0.2,0-0.4-0.1-0.5-0.3c-0.4-1.1-0.5-2.3-0.1-3.4c0.1-0.3,0.4-0.4,0.6-0.3c0.3,0.1,0.4,0.4,0.3,0.6
			c-0.3,0.9-0.2,1.9,0.1,2.7c0.1,0.3,0,0.5-0.3,0.6c0,0,0,0,0,0C865.3,212.3,865.2,212.4,865.2,212.3z"/>
		<path d="M861.8,237.2c-1.8,0.1-3.5-0.4-5-1.4c-0.4-0.3-0.5-0.8-0.2-1.2c0.3-0.4,0.8-0.5,1.2-0.2c2.1,1.4,5.8,1.4,8.8,0
			c3-1.5,5.8-3.5,8.1-6c0.3-0.4,0.9-0.4,1.3-0.1s0.4,0.9,0.1,1.3c0,0-0.1,0.1-0.1,0.1c-2.5,2.6-5.4,4.8-8.6,6.3
			C865.7,236.8,863.8,237.2,861.8,237.2z"/>
		<path class="st0" d="M857.9,276.9l31.2-3.9c2.1-0.3,4.1,1.3,4.4,3.4l5.7,45.4c0.3,2.1-1.3,4.1-3.4,4.4l-31.2,3.9
			c-2.1,0.3-4.1-1.3-4.4-3.4l-5.7-45.4C854.2,279.1,855.7,277.2,857.9,276.9z"/>
		<path d="M862.7,331.1c-1.6,0-3-1.2-3.2-2.8l-6.1-48.6c-0.1-0.8,0.1-1.7,0.7-2.4c0.5-0.7,1.3-1.1,2.1-1.2l34.4-4.3
			c1.8-0.2,3.3,1,3.6,2.8l6.1,48.6c0.2,1.8-1,3.3-2.8,3.6l-34.4,4.3L862.7,331.1z M891,273.6h-0.2l-34.4,4.3c-0.4,0-0.7,0.2-1,0.5
			c-0.2,0.3-0.3,0.7-0.3,1.1l6.1,48.6c0.1,0.4,0.2,0.7,0.5,1c0.3,0.2,0.7,0.3,1.1,0.3l34.3-4.3l0,0c0.4,0,0.7-0.2,0.9-0.5
			c0.2-0.3,0.3-0.7,0.3-1l-6.1-48.6C892.3,274.1,891.7,273.6,891,273.6L891,273.6z"/>
		<path class="st0" d="M872.1,304.2c0,0-4.3-7.1-5-7.7c-0.8-0.8-1.9-1.2-3-1.3c-1.3-0.1-5.6-1.3-8-1.7s-3.2,3.6,0.2,4.6
			c2.2,0.6,4.4,1.4,6.5,2.3l-12.4,0.3l1.3,19c0,0,12,2.6,20.2,0.1L872.1,304.2z"/>
		<path d="M863.3,321.7c-4,0-7.9-0.4-11.8-1.2c-0.4-0.1-0.7-0.4-0.7-0.8l-1.3-19c0-0.2,0.1-0.5,0.2-0.7c0.2-0.2,0.4-0.3,0.6-0.3
			l8-0.2c-0.7-0.2-1.5-0.5-2.2-0.7c-1.9-0.4-3.2-2.2-2.8-4.1c0.2-1.4,1.6-2.4,3-2.2c1.2,0.2,2.7,0.5,4.2,0.9s3,0.7,3.7,0.8
			c1.3,0.1,2.6,0.6,3.5,1.6c0.7,0.7,4.1,6.2,5.1,7.9c0.1,0.1,0.1,0.3,0.1,0.5l-0.3,15.6c0,0.4-0.3,0.7-0.6,0.8
			C869.2,321.4,866.3,321.7,863.3,321.7z M852.5,318.9c2.5,0.5,11.7,2,18.5,0.2l0.2-14.7c-2-3.3-4.3-6.9-4.7-7.3
			c-0.7-0.6-1.6-1-2.5-1.1c-0.7-0.1-2.2-0.4-3.9-0.8c-1.5-0.3-3-0.7-4.1-0.9c-0.8-0.1-1,0.6-1,0.8c-0.2,0.8,0.3,1.7,1.6,2
			c2.3,0.6,4.5,1.4,6.6,2.4c0.4,0.2,0.6,0.7,0.4,1.2c-0.1,0.3-0.4,0.5-0.8,0.5l-11.5,0.2L852.5,318.9z"/>
		<ellipse cx="767.3" cy="215.3" rx="1.4" ry="1.7"/>
		<ellipse cx="783.7" cy="215.3" rx="1.4" ry="1.7"/>
		<path d="M765,229.5c-0.3,0-0.6-0.3-0.6-0.6c0-1.5,0.4-2.9,1-4.2c0.1-0.3,0.4-0.5,0.7-0.5s0.5,0.4,0.5,0.7c0,0.1-0.1,0.2-0.2,0.3
			c-0.5,1.1-0.8,2.4-0.8,3.6C765.6,229.3,765.4,229.5,765,229.5C765,229.5,765,229.5,765,229.5L765,229.5z"/>
		<path d="M775.5,225.7c-1.3,0-2.4-0.7-3-1.8c-0.1-0.3,0-0.6,0.3-0.8c0.3-0.1,0.6,0,0.7,0.3c0.7,1.1,2.1,1.4,3.2,0.7
			c0.3-0.2,0.6-0.4,0.7-0.7c0.2-0.3,0.5-0.4,0.8-0.2c0.3,0.1,0.4,0.4,0.3,0.7C778,225,776.8,225.7,775.5,225.7z"/>
		<path d="M775.5,231.4c-3.1,0-5.6-1.2-6.4-2.4c-0.2-0.3-0.1-0.6,0.2-0.8c0.3-0.2,0.7-0.1,0.8,0.2c0.5,0.8,2.6,1.9,5.4,1.9
			s4.9-1.1,5.4-1.9c0.2-0.3,0.6-0.4,0.8-0.2c0.3,0.2,0.3,0.6,0.2,0.8C781.1,230.1,778.6,231.4,775.5,231.4z"/>
		<path d="M775.5,234.7c-1.5,0-2.9-0.5-4.1-1.4c-0.2-0.2-0.2-0.6,0-0.8c0.2-0.2,0.6-0.2,0.8,0c1.9,1.5,4.6,1.5,6.5,0
			c0.2-0.2,0.6-0.2,0.8,0c0.2,0.2,0.2,0.6,0,0.8C778.5,234.3,777,234.8,775.5,234.7z"/>
		<path d="M786,229.5L786,229.5c-0.3,0-0.6-0.3-0.6-0.6c0,0,0,0,0,0c0-1.3-0.3-2.5-0.8-3.6c-0.1-0.3,0-0.6,0.3-0.8
			c0.3-0.1,0.6,0,0.7,0.2c0.6,1.3,1,2.7,1,4.2C786.6,229.3,786.3,229.6,786,229.5C786,229.6,786,229.6,786,229.5z"/>
		<path class="st0" d="M761.1,198.5c-0.1,0-0.2,0-0.3-0.1c-0.3-0.2-0.3-0.6-0.1-0.8c2.3-3,5.3-5.4,8.7-6.9c0.3-0.1,0.6,0,0.8,0.3
			c0,0,0,0,0,0c0.1,0.3,0,0.6-0.3,0.8c0,0,0,0,0,0c-3.2,1.5-6,3.7-8.2,6.5C761.5,198.4,761.3,198.5,761.1,198.5z"/>
		<path class="st0" d="M775.5,199.6c-0.3,0-0.6-0.3-0.6-0.6c0-0.2,0.2-0.5,0.4-0.5c2.7-1,5-3,6.5-5.4c0.1-0.3,0.5-0.4,0.8-0.3
			c0,0,0,0,0,0c0.3,0.1,0.4,0.5,0.3,0.8c0,0,0,0,0,0c-1.6,2.8-4.1,4.9-7.1,6C775.7,199.6,775.6,199.6,775.5,199.6z"/>
		<path class="st0" d="M880.1,191c-0.2,0-0.4-0.1-0.5-0.2c-3.3-4.6-10.6-4.4-10.6-4.4c-0.3,0-0.6-0.2-0.6-0.6c0-0.3,0.2-0.6,0.6-0.6
			c0,0,0,0,0,0c0.3,0,8-0.2,11.6,4.9c0.2,0.3,0.1,0.6-0.1,0.8C880.4,191,880.2,191,880.1,191L880.1,191z"/>
		<path class="st11" d="M945.7,382.6c-0.6-7.3-2-14.5-4.2-21.4l-38.8-18.6l-15.4,22.3c0,0-2.5,9.6-2.3,17.8"/>
		<path class="st11" d="M867.2,306.9c-2,3.6-3.6,10.3-0.8,15.8s16.5,27.8,16.5,27.8l9.2-14.5l-10.9-20.7l2-3l-1.2-6.4l-10.9-4.5
			L867.2,306.9z"/>
		<path d="M882.9,351.4L882.9,351.4c-0.3,0-0.6-0.2-0.7-0.4c-0.6-0.9-13.7-22.4-16.5-27.8c-3.2-6.1-1-13.3,0.8-16.6l0.1-0.1l4-5.4
			c0.2-0.3,0.6-0.4,1-0.3l10.9,4.5c0.3,0.1,0.5,0.4,0.5,0.7l1.2,6.4c0,0.2,0,0.5-0.1,0.6l-1.7,2.5l10.7,20.2c0.2,0.3,0.2,0.6,0,0.9
			l-9.2,14.4C883.5,351.2,883.2,351.4,882.9,351.4z M868,307.4c-1.6,3-3.6,9.5-0.8,14.9c2.4,4.7,12.8,21.8,15.7,26.5l8.2-12.8
			l-10.7-20.3c-0.2-0.3-0.2-0.6,0-0.9l1.8-2.6l-1-5.6l-9.8-4L868,307.4z"/>
		<path class="st0" d="M891.8,337.3c-4.5-0.1-8,6.3-8.7,9.5s0.7,8.1,0.7,8.1c-1.7,0.9-1.9,4.8,1.5,6.4l6.5-14.8L891.8,337.3z"/>
		<path d="M885.2,362.2c-0.1,0-0.3,0-0.4-0.1c-1.9-0.8-3.1-2.6-3.2-4.6c-0.1-1.1,0.3-2.1,1-2.9c-0.3-1.5-1.1-5.2-0.5-8
			c0.8-3.7,4.6-10.2,9.5-10.2h0.1c0.5,0,0.9,0.4,0.9,0.9l-0.1,9.2c0,0.1,0,0.2-0.1,0.4l-6.5,14.8c-0.1,0.2-0.3,0.4-0.5,0.5
			C885.4,362.2,885.3,362.2,885.2,362.2z M890.8,338.2c-3.5,0.7-6.4,5.9-7,8.7c-0.6,3,0.7,7.7,0.7,7.7c0.1,0.4-0.1,0.8-0.4,1
			c-0.5,0.4-0.8,1.1-0.7,1.7c0,1,0.5,2,1.3,2.6l6-13.7L890.8,338.2z"/>
		<path class="st4" d="M925.1,218.1c-2-8.6-15.3-10.2-24-2.9S885,235.3,884,244s2.2,12.7,7.6,13.4c0,0-2.1,5.8-6.7,7.5
			c0,0,5.6,2.6,9.5-0.3c-1.8,3.2-1.5,7.2,0.7,10.1l41.5,0.2c0,0,1.3-6.6-2.1-9.8c3.7,1.4,7.9-0.4,9.5-4c-4.1,1.7-10.3-0.5-9.4-7.2
			c0.9-6.7,4.9-12.2,4.7-20.1S934.1,216.2,925.1,218.1z"/>
		<path d="M936.7,275.8L936.7,275.8l-41.5-0.2c-0.3,0-0.5-0.1-0.7-0.4c-1.9-2.5-2.6-5.8-1.7-8.8c-3.9,1.3-8-0.7-8.2-0.8
			c-0.3-0.1-0.5-0.5-0.5-0.8c0-0.4,0.2-0.7,0.6-0.8c3.1-1.1,4.9-4.3,5.7-6c-4.1-0.9-8.3-4.2-7.2-14.1c1-9.2,8.7-22.1,17.4-29.4
			c5.2-4.3,12.5-5.9,18.2-4c3.3,0.9,5.9,3.4,6.9,6.6c2.9-0.5,5.9,0.3,8.2,2.2c3.8,2.9,6.3,8.6,6.4,14.4c0.1,4.8-1.3,8.8-2.6,12.5
			c-1,2.5-1.7,5.1-2.1,7.7c-0.3,2.4,0.3,4.3,1.9,5.5c1.8,1.3,4.2,1.6,6.3,0.8c0.3-0.2,0.7-0.1,1,0.2c0.3,0.3,0.3,0.7,0.2,1
			c-1.5,3.2-4.8,5.2-8.3,5c1.8,3.6,0.9,8.4,0.9,8.6C937.5,275.5,937.1,275.8,936.7,275.8z M895.6,273.8l40.3,0.2
			c0.2-1.7,0.4-6-1.9-8.3c-0.3-0.3-0.4-0.8-0.1-1.1c0.2-0.4,0.7-0.5,1-0.4c2.6,1,5.5,0.2,7.3-1.8c-2.1,0.2-4.1-0.3-5.8-1.5
			c-2.1-1.7-3.1-4.5-2.5-7.1c0.5-2.8,1.2-5.5,2.2-8.1c1.3-3.6,2.6-7.4,2.5-11.9c-0.1-5.2-2.4-10.5-5.8-13.1
			c-2.1-1.7-4.9-2.3-7.5-1.7c-0.5,0.1-0.9-0.2-1-0.7c-0.7-3-3-5.3-6-6.1c-5.2-1.7-11.8-0.3-16.5,3.7c-8.3,7-15.8,19.6-16.8,28.3
			c-0.9,7.6,1.4,11.7,6.8,12.4c0.3,0,0.5,0.2,0.6,0.4c0.1,0.2,0.2,0.5,0.1,0.8c-1,2.8-2.9,5.2-5.2,7c1.8,0.5,4.6,0.8,6.7-0.8
			c0.4-0.3,1-0.2,1.2,0.2c0.2,0.3,0.2,0.7,0,1C893.7,267.8,893.9,271.2,895.6,273.8L895.6,273.8z"/>
		<path class="st11" d="M883.2,312.4c1.4,10.2,6,16.6,7.3,20.4c0.6,4.6-2.3,13.4-3.8,19s-3.3,12.7-3.3,12.7c2.2,2.1,4.8,3.7,7.7,4.7
			c2.1,0.9,5.5,0.1,7.1-4s5.1-21,5.1-21l5.4,20.5c1,3.5,4.7,6.6,10.1,5.9s16.3-3.5,27.5-8.6l-15.9-31.5l7-21.5l13.5-13
			c0,0-1.7-11.2-2.7-15.2s-3.6-8-7.2-9s-18.8-3.8-18.8-3.8l-17.5,0.9c0,0-10.4,2.8-13.5,3.5s-6,3-8.2,6.6s-15.7,27.9-15.7,27.9"/>
		<path d="M917.1,371.6c-4.3,0.2-8.2-2.5-9.4-6.6l-4.5-16.9c-1.1,5.2-3.2,14.5-4.4,17.5c-0.6,2-2.1,3.6-4,4.5
			c-1.3,0.6-2.9,0.6-4.2,0.1c-3-1-5.7-2.7-8-4.9c-0.2-0.2-0.3-0.5-0.2-0.8c0-0.1,1.8-7,3.3-12.7c0.2-0.9,0.5-1.8,0.8-2.8
			c1.5-5.4,3.5-12.1,3-15.8c-0.5-1.3-1.1-2.6-1.7-3.8c-2.8-5.2-4.7-10.8-5.6-16.7c0-0.5,0.3-0.9,0.8-1c0.4,0,0.8,0.3,0.9,0.7
			c0.9,5.7,2.7,11.1,5.4,16.1c0.7,1.3,1.3,2.7,1.8,4.1c0,0.1,0,0.1,0,0.2c0.5,4.1-1.5,11-3.1,16.6c-0.3,1-0.5,1.9-0.8,2.8
			c-1.3,4.7-2.8,10.4-3.2,12.1c2,1.8,4.4,3.3,7,4.2h0.1c0.9,0.4,2,0.3,2.9-0.1c1.4-0.7,2.5-1.9,3-3.5c1.5-4,5-20.7,5.1-20.9
			c0.1-0.4,0.4-0.7,0.8-0.7c0.4,0,0.8,0.3,0.9,0.7l5.4,20.5c0.8,3,4,5.9,9.1,5.2c5.5-0.7,16-3.5,26.4-8.2l-15.5-30.7
			c-0.1-0.2-0.1-0.4,0-0.7l7-21.5c0-0.1,0.1-0.3,0.2-0.4l13.1-12.6c-0.3-2.1-1.7-11.3-2.6-14.7s-3.2-7.4-6.6-8.4s-17.2-3.5-18.5-3.7
			l-17.3,0.9c-1,0.3-10.5,2.8-13.5,3.5s-5.6,2.9-7.6,6.2c-2.1,3.5-15.5,27.6-15.7,27.8c-0.2,0.4-0.8,0.6-1.2,0.4c0,0,0,0,0,0
			c-0.4-0.2-0.6-0.8-0.3-1.2c0.6-1,13.6-24.4,15.7-27.9c2.3-3.7,5.3-6.1,8.7-7c3.1-0.8,13.4-3.5,13.5-3.5h0.2l17.5-0.9
			c0.1,0,0.1,0,0.2,0c0.6,0.1,15.3,2.7,18.9,3.8c4,1.2,6.8,5.7,7.8,9.7s2.6,14.8,2.7,15.3c0,0.3-0.1,0.6-0.3,0.8L938,309.4
			l-6.8,20.9l15.7,31.2c0.2,0.4,0.1,1-0.4,1.2c0,0,0,0-0.1,0c-10.9,5-21.8,8-27.7,8.7C918.2,371.5,917.7,371.6,917.1,371.6z"/>
		<path class="st4" d="M809.6,259.9c0,0-10.6,7.5-5.8,17.1l36.4,2.8c1.9-4.1,1.4-13.6-4.6-18.9L809.6,259.9z"/>
		<path d="M840.2,280.6L840.2,280.6l-36.5-2.8c-0.3,0-0.6-0.2-0.7-0.5c-5.1-10.2,6-18.1,6.1-18.2c0.2-0.1,0.3-0.2,0.5-0.2l26,0.9
			c0.2,0,0.4,0.1,0.5,0.2c6.2,5.5,7,15.3,4.8,20C840.9,280.4,840.5,280.6,840.2,280.6z M804.4,276.1l35.2,2.7
			c1.4-3.8,1-12.1-4.4-17.1l-25.3-0.9c-1.7,1.3-3.1,2.8-4.3,4.6C803.2,269,802.8,272.6,804.4,276.1z"/>
		<path class="st8" d="M756.9,272.8c-1.2-6.5-4.4-11.3-7.7-13.1s-11.6-6.1-11.6-6.1c-0.6-2.2-1.1-4.5-1.5-6.8l-4.6-1.4
			c0.2,4.2,0.6,7,0.6,7c-1.2,3.3-2.9,6.4-4.8,9.3L720,249c-3-1-6-2.3-8.9-3.8c-1.9-1-2.8-1.6-2.8-1.6l-5.4,8.6
			c-4.1,0.7-8.1,1.8-12,3.3c-4.6,2-7.5,6.7-11.4,11.7s-19.2,27.5-19.2,27.5l16.9,9.6l16-19.1l-0.4,47.5l0.4,6.3
			c26.7,3.5,54.8,0.9,54.8,0.9l-0.2,5.6c1.6,5.9,1.9,14.5,1.9,22c5.1,0.1,10.1-0.4,15.1-1.5l0.7-0.2
			C764,332.3,758,278.6,756.9,272.8z"/>
		<path d="M751.4,368.3c-0.6,0-1.2,0-1.8,0c-0.5,0-0.9-0.4-0.8-0.9c0-9.5-0.6-17-1.9-21.8c0-0.1,0-0.2,0-0.3l0.2-4.6
			c-5.3,0.4-30.4,2.1-54-1c-0.4-0.1-0.7-0.4-0.8-0.8l-0.4-6.3v-0.1l0.4-45l-14.4,17.2c-0.3,0.3-0.7,0.4-1.1,0.2l-16.9-9.6
			c-0.2-0.1-0.4-0.3-0.4-0.6c-0.1-0.2,0-0.5,0.1-0.7c0.6-0.9,15.4-22.6,19.3-27.5c0.7-0.9,1.4-1.8,2.1-2.7c3.1-4,5.7-7.5,9.7-9.2
			c3.8-1.4,7.8-2.5,11.8-3.3l5.2-8.3c0.1-0.2,0.3-0.4,0.6-0.4c0.2-0.1,0.5,0,0.7,0.1c0.9,0.6,1.8,1.1,2.7,1.6
			c2.8,1.5,5.7,2.7,8.7,3.7c0.2,0.1,0.4,0.2,0.5,0.4l6.6,11.6c1.5-2.4,2.8-5,3.9-7.7c-0.1-0.7-0.4-3.4-0.6-6.9
			c0-0.3,0.1-0.6,0.3-0.8c0.2-0.2,0.5-0.2,0.8-0.1l4.6,1.4c0.3,0.1,0.6,0.4,0.6,0.7c0,0,0.5,3.3,1.3,6.3c1.6,0.8,8.4,4.4,11.3,5.9
			c3.8,2.1,6.9,7.3,8.1,13.7c1.2,6,7.2,60,8.5,93c0,0.4-0.3,0.8-0.7,0.9l-0.7,0.2C760.4,367.8,755.9,368.2,751.4,368.3z
			 M750.4,366.5c4.7,0,9.4-0.5,14-1.5c-1.3-33-7.3-86.1-8.4-92l0,0c-1.1-5.8-3.9-10.7-7.2-12.5s-11.5-6-11.6-6.1
			c-0.2-0.1-0.4-0.3-0.4-0.5c-0.7-2.5-1.2-5.2-1.4-6.3l-2.9-0.9c0.2,3.4,0.5,5.6,0.5,5.7c0,0.1,0,0.3,0,0.4
			c-1.3,3.4-2.9,6.6-4.9,9.5c-0.2,0.3-0.5,0.4-0.8,0.4c-0.3,0-0.6-0.2-0.7-0.4l-7.2-12.6c-3-1-5.9-2.3-8.7-3.7
			c-0.9-0.5-1.7-0.9-2.1-1.2l-4.9,7.9c-0.1,0.2-0.4,0.4-0.6,0.4c-4,0.7-8,1.8-11.8,3.2c-3.5,1.5-6,4.8-9,8.7
			c-0.7,0.9-1.3,1.8-2.1,2.7c-3.4,4.4-15.9,22.6-18.7,26.6l15.4,8.7l15.5-18.5c0.3-0.4,0.9-0.4,1.3-0.1c0.2,0.2,0.3,0.4,0.3,0.7
			l-0.4,47.5l0.3,5.5c26.1,3.3,53.6,0.8,53.9,0.8c0.3,0,0.5,0.1,0.7,0.2c0.2,0.2,0.3,0.4,0.3,0.7l-0.2,5.4
			C749.8,350.1,750.5,357.2,750.4,366.5z"/>
		<path class="st0" d="M693.1,338.8l0.5,5.9c10.6,1.3,21.2,2,31.8,2.1h0.6c3.2,0,6,0,8.5-0.1c4.4-0.1,8.8-0.6,13.2-1.4l0.2-5.6
			C747.9,339.8,719.8,342.4,693.1,338.8z"/>
		<path d="M727.7,347.7h-2.3c-10.7-0.1-21.3-0.8-31.9-2.1c-0.4,0-0.7-0.4-0.8-0.8l-0.5-5.9c0-0.3,0.1-0.5,0.3-0.7
			c0.2-0.2,0.5-0.3,0.7-0.2c26.3,3.5,54.4,0.9,54.6,0.9c0.3,0,0.5,0.1,0.7,0.2c0.2,0.2,0.3,0.4,0.3,0.7l-0.2,5.6
			c0,0.4-0.3,0.7-0.7,0.8c-4.4,0.8-8.9,1.3-13.3,1.4C732.3,347.7,730,347.7,727.7,347.7z M694.4,343.9c10.3,1.3,20.6,1.9,31,2h0.7
			c2.9,0,5.8,0,8.4-0.1c4.1-0.1,8.3-0.5,12.4-1.2l0.2-3.9c-5.2,0.4-29.6,2.1-52.9-0.9L694.4,343.9z"/>
		<path class="st8" d="M660.2,294.6c-3.1,4.9-4.2,12.4,0.8,18.2s17.4,19.2,23.8,25.5l0.6-0.5c1.8-1.5,7.3-6.1,10.4-10.8
			c0,0-11.5-13.9-18.7-22.9l16-19.1"/>
		<path d="M684.8,339.2c-0.2,0-0.5-0.1-0.6-0.3c-6.6-6.5-19-20-23.9-25.6c-5.3-6.1-4.2-14.1-0.8-19.3c0.3-0.4,0.8-0.5,1.2-0.2
			s0.5,0.8,0.2,1.2c-3,4.6-4,11.7,0.7,17.1s16.5,18.3,23.2,24.9c3.7-2.9,7-6.3,9.8-10c-2.2-2.6-12-14.5-18.3-22.4
			c-0.3-0.3-0.3-0.8,0-1.1l16-19.1c0.3-0.4,0.9-0.4,1.3,0c0.3,0.3,0.4,0.8,0.1,1.2l-15.5,18.5c7.1,8.9,18.1,22.2,18.2,22.3
			c0.2,0.3,0.2,0.7,0,1.1c-3.2,4.8-8.9,9.6-10.6,11l-0.6,0.5C685.2,339.2,685,339.2,684.8,339.2z"/>
		<path d="M712.7,262.5c-0.2,0-0.3-0.1-0.4-0.2c-3.7-4.2-7.7-8-7.8-8c-0.2-0.2-0.2-0.6,0-0.8c0.2-0.2,0.6-0.2,0.8,0l0,0
			c0,0,3.8,3.5,7.3,7.5c2.1-3.2,3.9-6.5,5.6-9.9c0.2-0.3,0.5-0.4,0.8-0.2c0.2,0.1,0.3,0.4,0.2,0.7c-1.8,3.7-3.9,7.2-6.1,10.7
			C713.1,262.4,712.9,262.5,712.7,262.5L712.7,262.5z"/>
		<path class="st0" d="M731.5,245.5c-0.1-2.4-0.2-5.2-0.2-8.2l-10.4,2.1l-9.5-1.1c0,2.3-0.1,4.6-0.3,6.9c2.9,1.5,5.8,2.8,8.9,3.8
			l7.4,12.9c2-2.9,3.6-6,4.8-9.3C732.2,252.5,731.8,249.6,731.5,245.5z"/>
		<path d="M727.3,262.7L727.3,262.7c-0.3,0-0.6-0.2-0.7-0.4l-7.2-12.6c-3-1-5.9-2.3-8.7-3.7c-0.3-0.2-0.5-0.5-0.5-0.9
			c0.2-2.3,0.4-4.5,0.3-6.8c0-0.3,0.1-0.5,0.3-0.7c0.2-0.2,0.4-0.2,0.7-0.2l9.3,1.1l10.3-2.1c0.3-0.1,0.5,0,0.7,0.2
			c0.2,0.2,0.3,0.4,0.3,0.7c0,2.6,0,5.3,0.2,8.1c0.2,4.1,0.6,6.9,0.6,6.9c0,0.1,0,0.3,0,0.4c-1.3,3.4-2.9,6.6-4.9,9.5
			C727.9,262.6,727.6,262.7,727.3,262.7z M712,244.7c2.7,1.3,5.4,2.5,8.2,3.4c0.2,0.1,0.4,0.2,0.5,0.4l6.6,11.6
			c1.5-2.4,2.8-5,3.9-7.7c-0.1-0.7-0.4-3.4-0.6-6.9l0,0c-0.1-2.5-0.2-4.9-0.2-7.2l-9.3,1.9c-0.1,0-0.2,0-0.3,0l-8.5-1
			C712.3,240.4,712.3,242.5,712,244.7L712,244.7z"/>
		<path d="M732.1,253.4c-0.1,0-0.2,0-0.3-0.1c-0.4-0.2-0.7-0.7-0.5-1.1c0,0,0,0,0,0c0.7-1.6,1.4-3.8,1.4-3.8
			c0.2-0.5,0.7-0.7,1.1-0.6c0.5,0.2,0.7,0.7,0.6,1.1c0,0.1-0.7,2.3-1.5,4C732.8,253.2,732.5,253.4,732.1,253.4z"/>
		<path d="M738.7,259.3c-0.1,0-0.2,0-0.3-0.1l-5.2-3.7c-0.3-0.2-0.3-0.6-0.2-0.8c0.2-0.3,0.6-0.3,0.8-0.2l3.8,2.8l-0.9-3.3
			c-0.1-0.3,0.1-0.6,0.4-0.7c0.3-0.1,0.6,0.1,0.7,0.4c0,0,0,0,0,0l1.3,4.9c0.1,0.2,0,0.5-0.2,0.6
			C738.9,259.2,738.8,259.3,738.7,259.3z"/>
		<path d="M747.9,340.6c-0.2,0-0.4-0.1-0.6-0.2c-0.3-0.3-0.3-0.9,0-1.2c0,0,0,0,0,0c2.2-2.4,4.2-4.9,4.3-9.9
			c0.1-4.7-0.8-34.4-4.8-56.4c-0.1-0.5,0.1-1,0.6-1.1c0.5-0.1,1,0.1,1.1,0.6c0,0.1,0,0.1,0,0.2c4.1,22.1,5,52,4.9,56.7
			c-0.1,5.6-2.5,8.5-4.8,11.1C748.4,340.6,748.2,340.7,747.9,340.6z"/>
		<path d="M729.7,333.5L729.7,333.5c-0.3,0-0.6-0.3-0.6-0.6c0,0,0,0,0,0c0.4-20.1-0.6-40.3-2.9-60.2c0-0.3,0.2-0.6,0.5-0.7
			c0.3,0,0.6,0.2,0.7,0.5c2.3,20.1,3.3,40.3,2.9,60.5C730.3,333.3,730,333.5,729.7,333.5z"/>
		<ellipse class="st12" cx="729.4" cy="269.5" rx="1.2" ry="1.5"/>
		<ellipse class="st12" cx="732.5" cy="293.6" rx="1.2" ry="1.5"/>
		<ellipse class="st12" cx="733.4" cy="321.4" rx="1.2" ry="1.5"/>
		<path class="st0" d="M743.6,340.1c-0.9,0.1-1.9,0.1-3,0.2c0,1,0.1,3.5,0,6c1.1-0.1,2.1-0.2,3-0.3
			C743.7,344.7,743.7,342.4,743.6,340.1z"/>
		<path d="M740.7,347.2c-0.5,0-0.9-0.4-0.9-0.9c0,0,0,0,0,0c0.1-2.5,0-5,0-6c0-0.5,0.4-0.9,0.8-0.9l2.9-0.2c0.5,0,0.9,0.3,0.9,0.8
			c0.1,2.3,0.1,4.7,0,6c0,0.4-0.3,0.8-0.8,0.9C742.8,347,741.8,347.1,740.7,347.2L740.7,347.2z M741.6,341.1c0,1,0,2.6,0,4.2
			l1.2-0.1c0-1.1,0-2.6,0-4.2L741.6,341.1z"/>
		<path class="st0" d="M764.7,382.6c1.1-5.5,1.1-11.2,0-16.7c-4.9,1.1-10,1.6-15.1,1.5c0,8.3-0.6,15.2-0.6,15.2"/>
		<path d="M764.7,383.4c-0.1,0-0.1,0-0.2,0c-0.5-0.1-0.8-0.6-0.7-1c0,0,0,0,0,0c1-5.1,1.1-10.4,0.1-15.5c-4.4,0.9-9,1.4-13.5,1.4
			c-0.1,7.9-0.6,14.3-0.6,14.4c0,0.5-0.5,0.8-1,0.8s-0.8-0.5-0.8-1l0,0c0-0.1,0.5-7,0.6-15.2c0-0.5,0.4-0.9,0.9-0.9c0,0,0,0,0.1,0
			c5,0.1,10-0.4,14.8-1.5c0.2-0.1,0.5,0,0.7,0.1c0.2,0.1,0.3,0.3,0.4,0.6c1.2,5.6,1.2,11.5,0,17.1
			C765.4,383.2,765,383.4,764.7,383.4z"/>
		<path class="st0" d="M749,382.6c0,0,0.6-6.9,0.6-15.2c0-7.5-0.3-16.1-1.9-22c-1.6,0.3-8.6,1.6-21.6,1.5
			c-10.9-0.1-21.7-0.8-32.5-2.1c0,0-2.9,15.3-1.7,37.8"/>
		<path d="M749,383.4L749,383.4c-0.6,0-0.9-0.5-0.9-0.9c0,0,0,0,0,0c0-0.1,0.5-7,0.6-15.2c0-9-0.5-16.2-1.7-21
			c-2.7,0.5-9.5,1.4-21,1.3c-10.6,0-21.2-0.7-31.7-2c-1.8,12.2-2.3,24.5-1.5,36.8c0,0.5-0.4,0.9-0.9,0.9c-0.4,0-0.8-0.3-0.9-0.8
			c-1.2-22.4,1.7-37.9,1.7-38c0.1-0.5,0.5-0.8,1-0.7c10.7,1.3,21.5,2,32.4,2.1c12.8,0.1,19.7-1.1,21.4-1.5c0.4-0.1,0.9,0.2,1,0.6
			c1.3,5,2,12.5,1.9,22.2c0,8.3-0.6,15.2-0.6,15.3C749.8,383.1,749.4,383.4,749,383.4z"/>
		<path d="M755.8,383.1c-0.1,0-0.2,0-0.3-0.1c-0.3-0.2-0.4-0.5-0.2-0.8c0,0,0,0,0,0c0.3-0.6,0.6-1.3,0.8-2c-4-4-0.8-9.1-0.8-9.2
			c0.2-0.3,0.6-0.3,0.8-0.1c0.2,0.2,0.3,0.5,0.2,0.7c-0.1,0.2-2.8,4.5,0.9,8c0.2,0.2,0.2,0.4,0.2,0.6c-0.3,0.9-0.6,1.7-1,2.6
			C756.2,383.1,756,383.2,755.8,383.1z"/>
		<path d="M760.9,383.1c-0.1,0-0.2,0-0.3-0.1c-0.3-0.2-0.4-0.5-0.2-0.8c0.6-1.2,1.2-2.4,1.7-3.6c0.1-0.3,0.5-0.5,0.8-0.3
			c0.3,0.1,0.5,0.5,0.3,0.8c-0.5,1.3-1.1,2.5-1.7,3.8C761.3,383,761.1,383.2,760.9,383.1z"/>
		<path d="M726.1,378.4L726.1,378.4c-0.3,0-0.6-0.3-0.5-0.6c0.5-7.7,0.5-15.3,0.2-23c0-0.3,0.2-0.6,0.5-0.6c0,0,0,0,0,0
			c0.3,0,0.6,0.2,0.6,0.6c0,0,0,0,0,0c0.3,7.7,0.3,15.5-0.2,23.2C726.7,378.2,726.4,378.5,726.1,378.4z"/>
		<path d="M732.4,378.4L732.4,378.4c-0.3,0-0.6-0.3-0.5-0.6c0.5-7.7,0.5-15.3,0.2-23c0-0.3,0.2-0.6,0.6-0.6s0.6,0.2,0.6,0.6
			c0.3,7.7,0.3,15.5-0.2,23.2C733,378.2,732.7,378.5,732.4,378.4z"/>
		<path d="M678.2,331.9c-0.2,0-0.4-0.1-0.5-0.3c-0.2-0.3-0.1-0.6,0.2-0.8c3.8-2.4,7.2-5.4,10-8.9c0.2-0.3,0.6-0.3,0.8-0.1
			c0.3,0.2,0.3,0.6,0.1,0.8c0,0,0,0,0,0c-2.9,3.6-6.4,6.7-10.4,9.2C678.4,331.9,678.3,331.9,678.2,331.9z"/>
		<path d="M668.5,304.3c-1.7,0-3.3-0.2-4.9-0.7c-0.3-0.1-0.5-0.4-0.4-0.8c0.1-0.3,0.4-0.5,0.7-0.4c0,0,0,0,0,0c4,1.4,9,0.2,9,0.2
			c0.3-0.1,0.6,0.1,0.7,0.4c0.1,0.3-0.1,0.6-0.4,0.7c0,0,0,0,0,0C671.6,304.1,670.1,304.3,668.5,304.3z"/>
		<path d="M693.1,285.9c-0.5,0-0.9-0.4-0.9-0.9c0-0.2,0.1-0.4,0.2-0.6c1.3-1.6,2-2.6,2-2.6c0.3-0.3,0.9-0.4,1.2,0
			c0.3,0.3,0.3,0.7,0.2,1c0,0-0.7,1-2,2.6C693.6,285.8,693.3,285.9,693.1,285.9z"/>
		<path d="M694.6,277.5c-0.3,0-0.5-0.2-0.6-0.5c-0.6-3.7-1.9-7.2-4-10.3c-0.2-0.3-0.1-0.6,0.1-0.8c0.3-0.2,0.6-0.1,0.8,0.1
			c2.2,3.2,3.7,6.9,4.2,10.8C695.3,277.2,695.1,277.5,694.6,277.5C694.7,277.5,694.7,277.5,694.6,277.5L694.6,277.5z"/>
		<path d="M751.9,358h-0.3c-0.3,0-0.6-0.3-0.6-0.6v0c0-0.3,0.3-0.6,0.6-0.6h0.2c3.7,0,7.3-0.3,10.9-0.9c0.3,0,0.5,0.3,0.5,0.7
			c0,0.2-0.1,0.3-0.3,0.4C759.3,357.7,755.6,358,751.9,358z"/>
		<path class="st0" d="M732.3,211.2c-3.4,3.9-9.9,3.7-9.9,3.7c2.5-1.7,4.5-4,5.8-6.7c-7.8,7.8-20.5,5.8-20.5,5.8
			c-1.9,1.7-4,3.1-6.2,4.3c0,0-0.1,13.4,4.7,18.6s10.3,8.6,14.7,8.6s9.8-3.4,14.7-8.6s4.7-18.6,4.7-18.6
			C736.6,216.4,732.3,211.2,732.3,211.2z"/>
		<path d="M720.9,246.4c-4.4,0-10.1-3.3-15.3-8.9c-5-5.4-5-18.6-5-19.2c0-0.3,0.2-0.6,0.5-0.8c2.2-1.2,4.2-2.6,6-4.2
			c0.2-0.2,0.5-0.3,0.7-0.2c0.1,0,12.3,1.8,19.7-5.6c0.3-0.3,0.9-0.4,1.2,0c0.3,0.3,0.3,0.7,0.2,1c-1,2-2.3,3.7-3.8,5.3
			c2.4-0.3,4.7-1.4,6.4-3.1c0.2-0.2,0.4-0.3,0.7-0.3c0.3,0,0.5,0.1,0.7,0.3c0,0.1,4.2,5.1,7.7,6.8c0.3,0.1,0.5,0.4,0.5,0.8
			c0,0.6,0.1,13.8-5,19.2C731.1,243.1,725.4,246.4,720.9,246.4z M702.5,218.8c0,2.5,0.5,13.1,4.5,17.5c4.8,5.2,10.1,8.4,14,8.4
			s9.2-3.1,14-8.4c4-4.4,4.4-15,4.5-17.5c-2.7-1.7-5.1-3.9-7.1-6.3c-3.7,3.4-9.6,3.2-9.9,3.2c-0.5,0-0.9-0.4-0.9-0.9
			c0-0.3,0.2-0.6,0.4-0.7c0.9-0.6,1.7-1.3,2.5-2.1c-6.8,3.7-14.5,3.1-16.4,2.8C706.3,216.4,704.5,217.7,702.5,218.8z"/>
		<path class="st0" d="M697.6,225.1c0.6,4.2,3.2,8,5.9,6.8c-1.1-3.6-1.8-7.4-1.9-11.2C699.8,218.9,697,221,697.6,225.1z"/>
		<path d="M702.5,233c-0.6,0-1.2-0.2-1.7-0.4c-1.9-1.1-3.6-4-4.1-7.3l0,0c-0.4-2.6,0.4-4.8,2.1-5.7c1.1-0.6,2.5-0.4,3.4,0.5
			c0.2,0.2,0.3,0.4,0.3,0.6c0.1,3.7,0.8,7.4,1.9,11c0.1,0.4-0.1,0.9-0.5,1.1C703.5,232.9,703,233,702.5,233z M700.2,221
			c-0.2,0-0.3,0-0.5,0.1c-0.8,0.4-1.5,1.8-1.2,3.9l0,0c0.4,2.8,1.7,5.2,3.2,6c0.2,0.1,0.5,0.2,0.7,0.2c-0.9-3.3-1.5-6.7-1.6-10.1
			C700.6,221.1,700.4,221,700.2,221z"/>
		<path class="st0" d="M740.2,220.7c-0.1,3.8-0.8,7.6-1.9,11.2c2.7,1.2,5.3-2.6,5.9-6.8S742.1,218.9,740.2,220.7z"/>
		<path d="M739.3,233c-0.5,0-0.9-0.1-1.4-0.3c-0.4-0.2-0.6-0.7-0.5-1.1c1.1-3.6,1.7-7.3,1.9-11c0-0.2,0.1-0.4,0.3-0.6
			c0.9-0.9,2.3-1.1,3.4-0.5c1.7,0.9,2.5,3.1,2.1,5.7c-0.5,3.3-2.1,6.3-4.1,7.3C740.5,232.8,739.9,233,739.3,233z M741.1,221.1
			c-0.2,3.4-0.7,6.8-1.6,10.1c0.3,0,0.5-0.1,0.7-0.2c1.4-0.8,2.7-3.3,3.2-6c0.3-2.1-0.4-3.5-1.2-3.9
			C741.9,220.9,741.4,220.9,741.1,221.1z"/>
		<path class="st4" d="M744.6,203.3c-1.4-6.5-6.3-10.2-10.6-9.4c-0.7-1.9-2.2-5.4-9.6-6.4s-18.2,3.5-23.8,12.2s-2.8,18.1,0.9,22.4
			h0.2c-0.2-2.3-0.2-3.9-0.2-3.9c2.2-1.2,4.3-2.6,6.2-4.3c0,0,12.6,2,20.5-5.8c-1.3,2.7-3.3,5-5.8,6.7c0,0,6.5,0.3,9.9-3.7
			c0,0,4.2,5.2,8,7.1c0,0,0,1.6-0.2,3.8l0,0C743.8,216.6,746,209.8,744.6,203.3z"/>
		<path d="M701.7,223.1h-0.1h-0.2c-0.2,0-0.4-0.1-0.5-0.3c-5.4-6.8-5.8-16.3-1-23.5c5.8-9.1,17.1-13.5,24.6-12.6
			c6.8,0.8,9.1,3.8,10.1,6.3c4.3-0.3,9.4,3.2,10.9,10.2c1.3,6.1-0.3,13-4.6,19.4l-0.1,0.1c-0.3,0.4-0.9,0.5-1.2,0.2
			c-0.2-0.2-0.4-0.5-0.3-0.8c0.1-1.4,0.1-2.6,0.2-3.2c-2.7-1.7-5.1-3.9-7.1-6.3c-3.7,3.4-9.6,3.2-9.9,3.2c-0.5,0-0.9-0.4-0.9-0.9
			c0-0.3,0.2-0.6,0.4-0.7c0.9-0.6,1.7-1.3,2.5-2.1c-6.8,3.7-14.5,3.1-16.4,2.8c-1.7,1.5-3.6,2.8-5.6,3.9c0,0.6,0,1.8,0.2,3.3
			c0,0.3-0.1,0.5-0.3,0.7C702.2,223,701.9,223.1,701.7,223.1z M722.4,188.3c-6.9,0-16.1,4.1-21,11.9c-3.7,5.8-4,13.1-0.7,19.1
			c0-0.6,0-1,0-1c0-0.3,0.2-0.6,0.5-0.8c2.2-1.2,4.2-2.6,6-4.2c0.2-0.2,0.5-0.3,0.7-0.2c0.1,0,12.3,1.8,19.7-5.6
			c0.3-0.3,0.9-0.4,1.2,0c0.3,0.3,0.3,0.7,0.2,1c-1,2-2.3,3.7-3.8,5.3c2.4-0.3,4.7-1.4,6.4-3.1c0.2-0.2,0.4-0.3,0.7-0.3
			c0.3,0,0.5,0.1,0.7,0.3c0,0.1,4.2,5.1,7.7,6.8c0.3,0.1,0.5,0.4,0.5,0.8v0.3c2.6-5.1,3.5-10.4,2.6-15.1l0,0c-1-4.9-5-9.6-9.6-8.7
			c-0.4,0.1-0.9-0.2-1-0.6c-0.5-1.4-1.7-4.9-8.9-5.8C723.7,188.4,723,188.3,722.4,188.3z"/>
		<path class="st0" d="M705.2,206.5c-0.1,0-0.2,0-0.2-0.1c-0.3-0.1-0.4-0.5-0.3-0.8c0,0,0,0,0,0c2-4.5,5.2-8.2,9.4-10.7
			c0.3-0.1,0.6,0.1,0.7,0.4c0.1,0.2,0,0.5-0.2,0.6c-3.9,2.4-7,5.9-8.9,10.1C705.7,206.4,705.5,206.5,705.2,206.5z"/>
		<ellipse cx="712.6" cy="220.3" rx="1.5" ry="1.8"/>
		<ellipse cx="729.3" cy="220.3" rx="1.5" ry="1.8"/>
		<path d="M722.1,230.3h-2.3c-0.3,0-0.6-0.3-0.6-0.6c0,0,0,0,0,0c0-0.3,0.3-0.6,0.6-0.6h2.3c0.3,0,0.6,0.3,0.6,0.6
			C722.7,230,722.4,230.3,722.1,230.3L722.1,230.3z"/>
		<path d="M720.9,236c-2.4,0-5.1-0.8-5.7-2.3c-0.2-0.3-0.1-0.6,0.2-0.8c0.3-0.2,0.6-0.1,0.8,0.2c0,0,0,0.1,0,0.1
			c0.3,0.8,2.3,1.6,4.6,1.6s4.3-0.8,4.6-1.6c0.1-0.3,0.4-0.5,0.7-0.4c0.3,0.1,0.5,0.4,0.4,0.7c0,0,0,0.1,0,0.1
			C726,235.2,723.3,236,720.9,236z"/>
		<path d="M720.9,239.3c-1.2,0-2.4-0.3-3.4-1.1c-0.2-0.2-0.3-0.6-0.1-0.8c0.2-0.2,0.6-0.3,0.8-0.1l0,0c0.8,0.5,1.7,0.8,2.6,0.8
			c0.9,0,1.9-0.2,2.6-0.8c0.3-0.2,0.6-0.1,0.8,0.1c0.2,0.2,0.2,0.6-0.1,0.8C723.4,239,722.2,239.3,720.9,239.3z"/>
		<path class="st0" d="M718.9,337.5c-3.7-2.8-7.7-5.2-11.9-7.3c-2.8-1.3-11.2-3.1-11.2-3.1c-3.2,4.7-8.7,9.4-10.4,10.8
			c-0.1,4.1,3,7.5,7,7.9c0,0,1.4,7.4,1.9,10.3s4,2.2,3.7-0.9s-1.4-11.6-1.4-11.6s4.8,6.2,7.2,10.1s5.7,1.5,3.6-2.3s-6.5-12-6.5-12
			s8.8,6.9,11.2,9.5s5.2-0.7,2.7-3.2s-7.8-8.2-10.5-10.5c0,0,8.4,2.8,11.9,5.2S721.2,339.5,718.9,337.5z"/>
		<path d="M696.1,358.7c-1.4,0-2.6-1.1-2.7-2.5c-0.4-2.4-1.4-7.8-1.8-9.6c-4.2-0.7-7.3-4.4-7.2-8.7c0-0.3,0.1-0.5,0.3-0.7
			c1.6-1.3,7.1-6,10.2-10.6c0.2-0.3,0.6-0.4,0.9-0.4c0.3,0.1,8.5,1.9,11.4,3.2c4.3,2.1,8.3,4.6,12.1,7.5l0,0
			c1.5,1.2,1.8,3.1,0.9,4.3c-0.7,0.9-2.4,1.5-4.7-0.1c-2.5-1.5-5.1-2.7-7.8-3.7c1.5,1.5,3,3.1,4.4,4.5c1.2,1.2,2.2,2.3,3,3.1
			c1,0.9,1.4,2.3,1.1,3.6c-0.3,1-1,1.7-2,2c-1.2,0.2-2.3-0.2-3.1-1.1c-1.3-1.5-5-4.5-7.7-6.7c1.4,2.6,3.3,6.1,4.4,8.1
			c1.4,2.5,0.8,4.5-0.6,5.3s-3.1,0.3-4.6-2.1c-1.3-2.2-3.6-5.3-5.2-7.5c0.3,2.8,0.8,6.6,1,8.4c0.2,2.2-1,3.5-2.4,3.7L696.1,358.7z
			 M686.3,338.3c0.1,3.4,2.8,6.3,6.2,6.6c0.4,0,0.7,0.3,0.8,0.7c0,0,1.4,7.4,1.9,10.3c0.1,0.7,0.5,1.2,1,1.1s1-0.6,0.9-1.7
			c-0.3-3-1.4-11.5-1.4-11.6c-0.1-0.5,0.3-0.9,0.8-1c0.3,0,0.6,0.1,0.8,0.3c0.2,0.3,4.9,6.3,7.3,10.2c0.8,1.3,1.7,1.8,2.2,1.5
			s0.7-1.4-0.1-2.9c-2.1-3.8-6.4-11.9-6.5-12c-0.2-0.4-0.1-1,0.4-1.2c0.3-0.2,0.7-0.1,1,0.1c0.4,0.3,8.9,7,11.3,9.6
			c0.3,0.4,0.8,0.7,1.3,0.6c0.4-0.1,0.6-0.4,0.7-0.8c0.1-0.7-0.1-1.4-0.7-1.9c-0.8-0.8-1.9-1.9-3-3.1c-2.5-2.6-5.6-5.8-7.4-7.4
			c-0.3-0.3-0.4-0.7-0.2-1.1c0.2-0.4,0.6-0.5,1-0.4c0.3,0.1,8.5,2.9,12.1,5.3c1.2,0.8,2,0.9,2.3,0.5s0.2-1.1-0.7-1.9
			c-3.7-2.7-7.6-5.1-11.7-7.2c-2.3-1.1-8.5-2.5-10.4-3C693.3,331.8,690,335.3,686.3,338.3L686.3,338.3z"/>
		<path class="st0" d="M734.5,346.7c-2.5,0.1-5.3,0.1-8.5,0.1h-0.7v-6.1h-2.9c0,1.4-0.1,4.7-0.1,6.1v0.2c0,1.6,1.4,2.2,3,2.2
			c2.2,0,6.9-0.4,8.2-0.6S734.5,346.7,734.5,346.7z"/>
		<path d="M725.4,349.8c-2.2,0-3.6-1-3.6-2.8v-0.2c0-1.5,0.1-4.8,0.1-6.1c0-0.3,0.3-0.6,0.6-0.6h2.9c0.3,0,0.6,0.2,0.6,0.6
			c0,0,0,0,0,0v5.5h0.1c2.9,0,5.8,0,8.4-0.1c0.3,0,0.5,0.2,0.6,0.4c0.2,0.7,0.1,1.4-0.2,2c-0.3,0.4-0.7,0.6-1.1,0.7
			C732.5,349.4,727.7,349.8,725.4,349.8z M723.1,341.3c0,1.5-0.1,4.2-0.1,5.5v0.2c0,1.1,0.8,1.6,2.4,1.6c2.2,0,6.9-0.4,8.2-0.6
			c0.1,0,0.2-0.1,0.3-0.2c0.1-0.2,0.1-0.4,0.1-0.6c-2.5,0.1-5.2,0.1-7.9,0.1h-0.7c-0.3,0-0.6-0.3-0.6-0.6v-5.5L723.1,341.3z"/>
		<ellipse class="st0" cx="726" cy="343.6" rx="1.4" ry="0.9"/>
		<path d="M726,345.1c-1.1,0-2-0.7-2-1.5s0.9-1.5,2-1.5s2,0.7,2,1.5S727.1,345.1,726,345.1z M726,343.2c-0.5,0-0.8,0.2-0.8,0.3
			s0.3,0.3,0.8,0.3s0.8-0.2,0.8-0.3S726.5,343.2,726,343.2z"/>
		<path d="M660.2,295.5c-0.2,0-0.4-0.1-0.5-0.1c-0.4-0.3-0.5-0.8-0.2-1.2c0.6-0.9,15.4-22.6,19.3-27.5c0.3-0.4,0.9-0.4,1.2-0.1
			c0.4,0.3,0.4,0.9,0.1,1.2c-3.9,4.9-19,27.2-19.2,27.4C660.8,295.3,660.5,295.5,660.2,295.5z"/>
		<path class="st0" d="M861.9,382.6c0-2.4-0.2-4.8-0.8-7.1c-3.5,1-7,1.6-10.7,1.6c0.1,1.8,0.1,3.7-0.1,5.5"/>
		<path d="M850.4,383.4L850.4,383.4c-0.6,0-0.9-0.5-0.9-1c0.1-1.8,0.2-3.6,0.1-5.4c0-0.2,0.1-0.5,0.2-0.6c0.2-0.2,0.4-0.3,0.6-0.3
			c3.5,0,7-0.5,10.4-1.5c0.2-0.1,0.5-0.1,0.7,0.1c0.2,0.1,0.4,0.3,0.4,0.6c0.6,2.4,0.8,4.8,0.8,7.3c-0.1,0.5-0.5,0.8-1,0.8
			c-0.4-0.1-0.7-0.4-0.8-0.8c0-2-0.2-4-0.6-5.9c-3,0.8-6,1.2-9.1,1.3c0.1,1.6,0,3.1-0.1,4.7C851.2,383.1,850.8,383.4,850.4,383.4z"
			/>
		<path class="st0" d="M850.4,382.6c0.1-1.8,0.2-3.7,0.1-5.5c-0.5-11.3-4.9-23.1-8.1-29.2l-0.1-5.6c0,0-6.2,2.2-19,2.2
			s-20.3-2.1-20.3-2.1v5.8c0,0-10.5,12.3-10.5,34.4"/>
		<path d="M850.4,383.4L850.4,383.4c-0.6,0-0.9-0.5-0.9-1c0.1-1.8,0.2-3.6,0.1-5.4c-0.5-11.7-5.3-23.6-8-28.8
			c-0.1-0.1-0.1-0.3-0.1-0.4l-0.1-4.5c-2.3,0.6-8.3,1.9-18.2,1.9c-6.5,0.1-13-0.5-19.3-1.9v4.6c0,0.2-0.1,0.4-0.2,0.6
			c-2.1,2.7-3.8,5.6-5.1,8.8c-3.4,7.9-5.2,16.4-5.1,25.1c-0.1,0.5-0.5,0.8-1,0.8c-0.4,0-0.7-0.4-0.8-0.8c0-20.7,8.9-32.8,10.5-34.7
			v-5.4c0-0.3,0.1-0.5,0.3-0.7c0.2-0.2,0.5-0.2,0.8-0.1c0.1,0,7.4,2.1,20,2.1s18.7-2.1,18.7-2.2c0.3-0.1,0.6,0,0.8,0.1
			c0.2,0.2,0.4,0.4,0.4,0.7l0.1,5.4c2.8,5.4,7.5,17.5,8.1,29.4c0.1,1.9,0.1,3.7-0.1,5.6C851.2,383.1,850.8,383.4,850.4,383.4z"/>
		<path class="st5" d="M864.4,349.5c-1.8-8.8-6.2-22.1-8.1-31.5s-3.3-24.2-3.9-28c-0.8-4-3.5-7.5-7.2-9.2l-14-6.5
			c-0.5,4.5-1.8,8.8-3.9,12.8c-4.1-4.6-8.6-8.9-13.2-13c0,0-12.4,2.6-15.8,3.8c-4.5,1.5-7.9,5.1-9.2,9.6l-4.3,14.2l11.3,26l7.1,14.8
			c0,0,7.3,2.1,20.2,2.1s19-2.2,19-2.2l0.1,5.6c3.2,6.1,7.5,17.9,8.1,29.2c3.6,0,7.2-0.5,10.7-1.6l-1.3-10.3
			C859.8,365.1,866.2,358.2,864.4,349.5z"/>
		<path d="M850.5,378c-0.5,0-0.9-0.4-0.9-0.9c-0.5-11.7-5.3-23.6-8-28.8c-0.1-0.1-0.1-0.3-0.1-0.4l-0.1-4.5
			c-2.3,0.6-8.3,1.9-18.2,1.9c-12.9,0-20.2-2-20.5-2.1c-0.2-0.1-0.4-0.2-0.5-0.5l-7-14.8l-11.3-26c-0.1-0.2-0.1-0.4,0-0.6l4.3-14.2
			c1.4-4.8,5-8.6,9.7-10.2c3.4-1.2,15.4-3.7,16-3.8c0.3-0.1,0.6,0,0.8,0.2c4.3,3.8,8.5,7.8,12.4,12.1c1.7-3.6,2.8-7.4,3.2-11.3
			c0-0.3,0.2-0.5,0.4-0.7c0.3-0.1,0.6-0.1,0.8,0l14,6.5c4,1.8,6.9,5.5,7.7,9.8c0.2,1.3,0.5,3.7,0.9,6.8c0.7,6.3,1.8,14.9,3,21.1
			c1,4.8,2.6,10.6,4.2,16.3s3,10.9,3.9,15.2l0,0c1.7,8.1-3.2,14.7-4.5,16.2l1.3,10c0.1,0.4-0.2,0.9-0.6,1
			C857.8,377.5,854.1,378,850.5,378L850.5,378z M843.3,347.7c2.7,5.3,7.3,17,8,28.5c3-0.1,6-0.5,8.8-1.3l-1.2-9.6
			c0-0.3,0.1-0.5,0.2-0.7c0.1-0.1,6.1-6.7,4.4-14.9c-0.9-4.3-2.4-9.5-3.9-15.1s-3.2-11.6-4.2-16.4c-1.3-6.3-2.3-15-3.1-21.3
			c-0.4-3.1-0.7-5.5-0.9-6.7c-0.7-3.8-3.2-6.9-6.7-8.5l-12.9-6c-0.6,4.2-1.9,8.2-3.9,11.9c-0.1,0.2-0.4,0.4-0.7,0.4
			c-0.3,0-0.6-0.1-0.8-0.3c-4-4.4-8.3-8.7-12.8-12.6c-2.2,0.5-12.3,2.6-15.3,3.7c-4.2,1.4-7.4,4.8-8.6,9l-4.2,13.9l11.1,25.7
			l6.9,14.4c6.4,1.4,13,2.1,19.6,2c12.5,0,18.7-2.1,18.7-2.2c0.3-0.1,0.6,0,0.8,0.1c0.2,0.2,0.4,0.4,0.4,0.7L843.3,347.7z"/>
		<path class="st0" d="M827.2,287c2.1-4,3.5-8.3,3.9-12.8c0,0-0.1-5.8,0.1-10.5l-16.5-0.4c0,3.6-0.3,7.2-0.8,10.7
			C818.7,278.1,823.1,282.4,827.2,287z"/>
		<path d="M827.2,287.9c-0.3,0-0.5-0.1-0.7-0.3c-4.1-4.6-8.5-8.8-13.1-12.9c-0.2-0.2-0.3-0.5-0.3-0.8c0.5-3.5,0.8-7,0.8-10.6
			c0-0.2,0.1-0.5,0.3-0.6c0.2-0.2,0.4-0.3,0.6-0.2l16.5,0.4c0.5,0,0.9,0.4,0.9,0.9c0,0,0,0,0,0.1c-0.2,4.6-0.1,10.4-0.1,10.4v0.1
			c-0.5,4.6-1.8,9.1-4,13.2c-0.1,0.2-0.4,0.4-0.7,0.4L827.2,287.9z M815,273.7c4.2,3.7,8.2,7.6,12,11.8c1.7-3.5,2.8-7.4,3.2-11.3
			c0-0.5-0.1-5.3,0.1-9.6l-14.7-0.4C815.6,267.4,815.4,270.6,815,273.7z"/>
		<path d="M813.8,292.4c-1.3,0-2.6-0.4-3.6-1.2c-1.1-1-1.7-2.5-1.5-4c0.3-4,0.7-9.2,0.7-9.3c0-0.3,0.2-0.6,0.6-0.6s0.6,0.2,0.6,0.6
			c0,0,0,0.1,0,0.1c0,0.1-0.4,5.3-0.7,9.3c-0.2,1.1,0.2,2.2,1,3c1.3,0.9,2.9,1.1,4.4,0.7c2.8-0.6,7.6-3.4,7.6-3.5
			c0.3-0.2,0.6-0.1,0.8,0.2c0,0,0,0,0,0c0.2,0.3,0.1,0.6-0.2,0.8c-0.2,0.1-5,2.9-8,3.6C814.9,292.3,814.3,292.4,813.8,292.4z"/>
		<path d="M839.4,292.9c-0.7,0-1.3-0.2-1.9-0.5c-2.9-1.5-6.4-3.6-6.4-3.7c-0.3-0.2-0.4-0.5-0.2-0.8c0,0,0,0,0,0
			c0.2-0.3,0.5-0.4,0.8-0.2c0,0,3.6,2.1,6.4,3.7c0.6,0.5,1.5,0.5,2.2,0.1c0.7-0.6,0.9-2,0.5-3.5c-0.9-2.9-4.5-8.4-4.5-8.5
			c-0.2-0.3-0.1-0.6,0.2-0.8s0.6-0.1,0.8,0.2c0.2,0.2,3.7,5.7,4.7,8.8c0.6,2,0.2,3.8-0.9,4.7C840.6,292.7,840,292.9,839.4,292.9z"/>
		<path d="M842.3,343.1c-0.2,0-0.4-0.1-0.5-0.2c-0.4-0.3-0.4-0.9-0.1-1.2c2.8-3.6,8-15.6,7.4-25c-0.6-9.2-5.1-21.9-5.2-22
			c-0.1-0.5,0.2-1,0.6-1.1c0.4-0.1,0.9,0.1,1,0.5c0.2,0.5,4.6,13,5.3,22.5c0.7,10-4.7,22.4-7.8,26.3
			C842.8,343,842.5,343.1,842.3,343.1z"/>
		
			<rect x="805.7" y="306.2" transform="matrix(9.045877e-02 -0.9959 0.9959 9.045877e-02 430.7935 1113.9482)" class="st0" width="39.1" height="30"/>
		<path d="M838.4,342.8L838.4,342.8l-29.9-2.7c-0.2,0-0.5-0.1-0.6-0.3c-0.2-0.2-0.2-0.4-0.2-0.6l3.5-39c0.1-0.5,0.5-0.9,1-0.8
			c0,0,0,0,0,0l29.8,2.7c0.5,0,0.8,0.5,0.8,0.9c0,0,0,0,0,0.1l-3.5,39c0,0.2-0.1,0.5-0.3,0.6C838.8,342.8,838.6,342.8,838.4,342.8z
			 M809.5,338.4l28.1,2.6l3.4-37.2l-28.1-2.5L809.5,338.4z"/>
		<path d="M810.9,340.1L810.9,340.1c-0.3,0-0.6-0.3-0.5-0.6l3.5-39c0-0.3,0.3-0.6,0.6-0.5c0.3,0,0.6,0.3,0.5,0.6l0,0l-3.5,39
			C811.5,339.9,811.2,340.1,810.9,340.1z"/>
		<path class="st5" d="M789,287.4c-2.9,6.5-9.3,27.8-10.1,32.9c-0.7,6.7,2.8,13.1,8.9,16c6.9,3.1,15.7,6.9,19.6,7.9s9-3,9-3
			l10.5,1.3c1.2-5.3,1.8-10.8,1.8-16.2l-8-1.2c0,0-2.8-5.4-8.4-5.1s-11.3,0.7-15.4-0.5l4.8-19.9"/>
		<path d="M808.7,345.1c-0.5,0-1-0.1-1.5-0.2c-3.2-0.7-9.9-3.4-19.8-7.9c-6.4-3.1-10.2-9.8-9.4-16.9c0.8-5,7.2-26.3,10.1-33.1
			c0.2-0.4,0.7-0.6,1.2-0.5c0.4,0.2,0.6,0.7,0.5,1.2c0,0,0,0,0,0c-2.9,6.7-9.2,27.7-10,32.6c-0.7,6.3,2.7,12.3,8.4,15
			c9.7,4.4,16.4,7.1,19.5,7.8c3.5,0.8,8.2-2.8,8.3-2.9c0.2-0.1,0.4-0.2,0.7-0.2l9.7,1.2c1-4.8,1.6-9.6,1.6-14.5l-7.2-1.1
			c-0.3,0-0.5-0.2-0.7-0.5c-0.1-0.2-2.5-4.8-7.5-4.6l-1.3,0.1c-5.3,0.3-10.4,0.5-14.4-0.6c-0.5-0.1-0.7-0.6-0.6-1.1l4.9-19.9
			c0.1-0.5,0.6-0.8,1-0.7c0,0,0,0,0,0c0.5,0.1,0.8,0.6,0.7,1.1l-4.6,19c3.6,0.8,8.2,0.6,13,0.3l1.4-0.1c5.2-0.3,8.2,3.8,9,5.2
			l7.6,1.1c0.4,0.1,0.8,0.4,0.8,0.9c0,5.5-0.6,11.1-1.9,16.5c-0.1,0.4-0.5,0.7-1,0.7l-10.2-1.2C815.7,342.7,812.1,345.1,808.7,345.1
			z"/>
		<path class="st0" d="M843,325.7c-2.1,0-4.5,0.1-4.5,0.1c3.9-2.7,2.5-4.4,0.7-3.9c-2.2,0.7-4.4,1.2-6.6,1.6
			c-1.5,0.3-2.9,1.3-3.8,2.6c0,5-0.5,9.9-1.5,14.8c2.9,0.6,5.8,0.8,8.8,0.6c1.9,0,3.6-1.2,4.2-3.1c0.6-1.8,1.8-8.1,1.8-8.1
			C845,329.1,845.1,325.7,843,325.7z"/>
		<path d="M833.3,342.5c-2.1,0-4.2-0.2-6.2-0.7c-0.4-0.1-0.7-0.5-0.7-1c1-4.8,1.5-9.7,1.5-14.6c0-0.2,0-0.3,0.1-0.5
			c1-1.5,2.6-2.6,4.4-3c1.9-0.3,3.8-0.8,5.6-1.3l0.9-0.2c1-0.4,2.2,0,2.8,1c0.2,0.5,0.4,1.5-0.7,2.8c0.7,0,1.3,0,2,0
			c1.1,0,2.1,0.7,2.3,1.9c0.2,1.8-0.8,3.5-2.5,4.2c-0.3,1.5-1.2,6.2-1.8,7.8c-0.7,2.2-2.7,3.7-5,3.7
			C835.1,342.4,834.2,342.5,833.3,342.5z M828.3,340.2c2.5,0.5,5.1,0.6,7.7,0.4c1.6,0,3-1,3.4-2.5c0.6-1.7,1.8-7.9,1.8-8
			c0.1-0.3,0.3-0.5,0.5-0.6c1.1-0.3,1.9-1.3,1.9-2.4c0-0.3-0.3-0.4-0.5-0.4c0,0,0,0,0,0c-2.1,0-4.4,0.1-4.5,0.1
			c-0.5,0-0.9-0.3-1-0.8c0-0.3,0.1-0.6,0.4-0.8c1.9-1.3,2.2-2.1,2.1-2.3c-0.2-0.1-0.5-0.1-0.7,0l-0.9,0.2c-1.9,0.6-3.9,1-5.8,1.4
			c-1.2,0.3-2.3,1-3,2C829.7,331.1,829.2,335.7,828.3,340.2z"/>
		<path class="st0" d="M838.5,325.9c-1.8,0.1-4.3,0-4.3,0"/>
		<path d="M835.7,326.8c-0.8,0-1.4,0-1.5,0c-0.5,0-0.9-0.4-0.9-0.9c0,0,0,0,0,0c0-0.5,0.4-0.9,0.9-0.9c0,0,2.4,0,4.2,0
			c0.5,0,0.9,0.4,0.9,0.8c0,0.5-0.3,0.9-0.8,0.9c0,0,0,0,0,0C837.6,326.8,836.5,326.8,835.7,326.8z"/>
		<path d="M787.7,328.7c-0.1,0-0.2,0-0.3-0.1c-0.3-0.2-0.3-0.5-0.2-0.8c1.8-2.7,4-5.2,6.5-7.3c0.2-0.2,0.6-0.2,0.8,0.1
			c0.2,0.3,0.2,0.6-0.1,0.8c-2.4,2.1-4.5,4.4-6.3,7.1C788.1,328.6,787.9,328.7,787.7,328.7z"/>
		<path d="M817,338.6L817,338.6c-0.3,0-0.6-0.3-0.5-0.7l1.2-8.9c0-0.3,0.3-0.6,0.7-0.5c0.3,0,0.6,0.3,0.5,0.7l-1.2,8.9
			C817.6,338.4,817.3,338.7,817,338.6z"/>
		<path d="M823.2,350.4c-5.8,0.1-11.6-0.4-17.3-1.4c-0.3-0.1-0.5-0.4-0.5-0.7c0.1-0.3,0.4-0.5,0.7-0.5c5.6,1,11.4,1.5,17.1,1.4
			c5.4,0.1,10.8-0.4,16.2-1.5c0.3-0.1,0.6,0.1,0.7,0.4c0.1,0.3-0.1,0.6-0.4,0.7c0,0-0.1,0-0.1,0C834.2,350,828.7,350.5,823.2,350.4z
			"/>
		<path d="M851.3,366.5c-0.3,0-0.6-0.3-0.6-0.6c0-0.3,0.3-0.6,0.6-0.6l0,0c2,0,3.9-0.3,5.9-0.8c0.3-0.1,0.6,0.1,0.7,0.4
			c0.1,0.3-0.1,0.6-0.4,0.7C855.5,366.2,853.4,366.5,851.3,366.5z"/>
		<path class="st4" d="M843.1,250.4c1.6-5.4,3.9-13.4,0.7-21c-4.9-11.3-18-16.6-29.4-11.7c-5.3,2.3-9.5,6.5-11.7,11.7
			c-3.3,7.6-1,15.6,0.7,21s1.5,13.4-3.1,16.8c3.6-0.9,6.4-3.8,7.1-7.5c-2.6-5.4-2.5-15.8-2.5-15.8c3.1-1.8,10.4-3.8,18.4-3.8
			s15.2,2,18.4,3.8c0,0,0.1,10.4-2.5,15.8c0.7,3.7,3.5,6.6,7.1,7.5C841.6,263.7,841.5,255.8,843.1,250.4z"/>
		<path d="M846.2,268.1H846c-4-1-7-4.2-7.8-8.2c0-0.2,0-0.4,0.1-0.6c2.1-4.5,2.4-12.8,2.4-14.9c-3.3-1.8-10.2-3.5-17.5-3.5
			s-14.2,1.7-17.5,3.5c0,2.1,0.2,10.4,2.4,14.9c0.1,0.2,0.1,0.4,0.1,0.6c-0.8,4-3.8,7.2-7.8,8.2c-0.5,0.1-0.9-0.2-1-0.7
			c-0.1-0.3,0.1-0.7,0.3-0.9c4-3.1,4.4-10.3,2.8-15.9c-1.5-5.1-4.1-13.5-0.6-21.6c5.1-11.8,18.7-17.3,30.5-12.2
			c5.5,2.4,9.9,6.7,12.2,12.2c3.5,8.1,0.9,16.6-0.6,21.6c-1.7,5.6-1.3,12.8,2.8,15.9c0.3,0.2,0.4,0.7,0.3,1.1
			C846.9,267.9,846.5,268.1,846.2,268.1z M805.2,256.1c0.2,2.9-0.4,5.9-1.7,8.5c1.4-1.3,2.5-2.9,2.9-4.8
			C805.9,258.6,805.5,257.3,805.2,256.1L805.2,256.1z M840,259.8c0.4,1.9,1.5,3.5,2.9,4.8c-1.3-2.6-1.9-5.6-1.7-8.5
			C841,257.3,840.6,258.6,840,259.8L840,259.8z M823.2,239.2c8,0,15.5,2,18.8,4c0.3,0.2,0.4,0.4,0.4,0.8c0,2.3-0.1,4.6-0.4,6.8
			l0.2-0.6c1.5-5.1,3.9-12.9,0.7-20.4c-4.7-10.9-17.3-15.9-28.2-11.3c-5.1,2.2-9.1,6.2-11.3,11.3c-3.2,7.5-0.9,15.3,0.7,20.4
			c0.1,0.2,0.1,0.4,0.2,0.6c-0.2-2.3-0.4-4.5-0.3-6.8c0-0.3,0.2-0.6,0.4-0.8C807.7,241.1,815.2,239.1,823.2,239.2L823.2,239.2z"/>
		<path class="st0" d="M803.3,250.4c-0.2-0.8-0.5-1.6-0.7-2.4c-2.3,0.5-1.7,8.1,1.6,9.9C804.4,255.3,804,252.8,803.3,250.4z"/>
		<path d="M804.3,258.7c-0.1,0-0.3,0-0.4-0.1c-2.8-1.5-3.8-5.9-3.4-8.6c0.3-2.2,1.4-2.8,2-2.9c0.4-0.1,0.9,0.2,1,0.6
			c0.2,0.8,0.5,1.6,0.7,2.4l0,0c0.7,2.5,1.1,5.1,1,7.7c0,0.3-0.2,0.6-0.5,0.7C804.5,258.6,804.4,258.7,804.3,258.7z M802.3,249.8
			c0,0.1-0.1,0.3-0.1,0.4c-0.2,1.9,0.2,3.8,1.2,5.5c-0.1-1.7-0.4-3.4-0.9-5.1l0,0L802.3,249.8z"/>
		<path class="st0" d="M843.1,250.4c0.2-0.8,0.5-1.6,0.7-2.4c2.3,0.5,1.7,8.1-1.6,9.9C842.1,255.3,842.4,252.8,843.1,250.4z"/>
		<path d="M842.2,258.7c-0.2,0-0.3,0-0.4-0.1c-0.3-0.2-0.4-0.4-0.4-0.7c-0.1-2.6,0.2-5.2,1-7.7l0,0c0.2-0.8,0.5-1.6,0.7-2.4
			c0.1-0.4,0.6-0.7,1-0.6c0.6,0.1,1.7,0.7,2,2.9c0.4,2.6-0.6,7.1-3.4,8.6C842.5,258.7,842.3,258.7,842.2,258.7z M844,250.6
			L844,250.6c-0.5,1.7-0.8,3.4-0.9,5.1c1-1.7,1.4-3.6,1.2-5.5c0-0.1,0-0.3-0.1-0.4L844,250.6z"/>
		<path class="st0" d="M841.6,243.8c-3.2-1.9-10.4-3.9-18.4-3.9c-4.9,0-9.7,0.7-14.4,2.1c0-9,3.1-14.1,3.1-14.1
			c-4.4,4.1-6.9,9.8-7,15.7c0,0-0.1,10.4,2.5,15.8c0,0.1,0,0.1,0.1,0.2c2.7,5.4,10,10.9,15.8,10.9s13.2-5.5,15.8-10.9
			c0-0.1,0.1-0.1,0.1-0.2C841.7,254.2,841.6,243.8,841.6,243.8z"/>
		<path d="M823.2,271.6c-6.5,0-14-6-16.6-11.4l-0.1-0.2c-2.6-5.6-2.6-15.8-2.5-16.2c0.1-6.2,2.7-12.2,7.3-16.4
			c0.3-0.3,0.9-0.3,1.2,0c0.3,0.3,0.3,0.8,0.1,1.1c0,0-2.7,4.5-2.9,12.4c4.4-1.2,8.9-1.8,13.5-1.8c8,0,15.5,2,18.8,4
			c0.3,0.2,0.4,0.4,0.4,0.8c0,0.4,0.1,10.6-2.6,16.2l-0.1,0.2C837.2,265.6,829.7,271.6,823.2,271.6z M809.1,232.8
			c-2.2,3.3-3.3,7.1-3.4,11.1c0,0.1-0.1,10.3,2.4,15.5l0.1,0.1c2.7,5.4,9.8,10.4,15,10.4s12.3-4.9,15-10.4l0.1-0.2
			c2.1-4.5,2.4-12.8,2.4-14.9c-3.3-1.8-10.2-3.5-17.5-3.5c-4.8,0-9.5,0.7-14.1,2.1c-0.5,0.1-1-0.1-1.1-0.6c0-0.1,0-0.2,0-0.3
			C807.9,239,808.3,235.8,809.1,232.8L809.1,232.8z"/>
		<path class="st0" d="M832,237.2c-0.3,0-0.6-0.3-0.6-0.6c0-2.2-0.4-4.5-1.4-6.5c-0.1-0.3,0.1-0.6,0.4-0.7c0.2-0.1,0.5,0,0.6,0.2
			c1.1,2.2,1.6,4.6,1.5,7.1C832.6,236.9,832.3,237.2,832,237.2C832,237.2,832,237.2,832,237.2L832,237.2z"/>
		<path class="st0" d="M838.7,238c-0.3,0-0.6-0.2-0.6-0.6c-0.4-8.3-5.1-12.3-5.2-12.3c-0.3-0.2-0.3-0.6-0.1-0.8c0,0,0,0,0,0
			c0.2-0.2,0.6-0.3,0.8-0.1c0.2,0.2,5.2,4.3,5.6,13.2C839.3,237.7,839,238,838.7,238L838.7,238z"/>
		<ellipse cx="814.8" cy="247.3" rx="1.5" ry="1.8"/>
		<ellipse cx="831.7" cy="247.3" rx="1.5" ry="1.8"/>
		<path d="M824.3,256.1h-2.2c-0.3,0-0.6-0.2-0.6-0.6c0,0,0,0,0,0c0-0.3,0.3-0.6,0.6-0.6l0,0h2.2c0.3,0,0.6,0.3,0.6,0.6
			C824.9,255.9,824.7,256.1,824.3,256.1L824.3,256.1z"/>
		<path d="M823.2,260.8c-3.9,0-5.2-1.3-5.5-2.4c-0.1-0.3,0.1-0.6,0.4-0.7c0.3-0.1,0.6,0,0.7,0.3c0,0,0,0,0,0c0.3,1,1.9,1.6,4.4,1.6
			s4.1-0.5,4.4-1.6c0.1-0.3,0.4-0.5,0.7-0.4c0,0,0,0,0,0c0.3,0.1,0.5,0.4,0.4,0.7c0,0,0,0,0,0C828.4,259.5,827.2,260.8,823.2,260.8z
			"/>
		<path d="M823.2,263.6c-1.3,0.1-2.7-0.3-3.8-1c-0.2-0.2-0.3-0.6-0.1-0.8c0.2-0.2,0.6-0.3,0.8-0.1c1.9,1,4.2,1,6.1,0
			c0.3-0.2,0.6-0.2,0.8,0.1c0.2,0.2,0.2,0.6-0.1,0.8c0,0,0,0,0,0C825.9,263.3,824.6,263.7,823.2,263.6z"/>
		<path class="st0" d="M893.1,234.7c-0.1,0-0.2,0-0.3-0.1c-0.3-0.1-0.4-0.5-0.3-0.8c0,0,0,0,0,0c2.8-5.8,6.8-10.9,11.8-14.9
			c0.3-0.2,0.6-0.1,0.8,0.1c0.2,0.3,0.1,0.6-0.1,0.8c0,0,0,0,0,0c-4.8,3.9-8.7,8.8-11.4,14.4C893.6,234.6,893.4,234.7,893.1,234.7z"
			/>
		<path class="st0" d="M934.9,239.9L934.9,239.9c-0.4-0.1-0.6-0.4-0.6-0.7c1-6.1,0-12.3-2.4-14.7c-0.2-0.2-0.2-0.6,0-0.8
			c0.2-0.2,0.6-0.2,0.8,0c3.1,3.1,3.6,10.4,2.7,15.7C935.5,239.7,935.2,239.9,934.9,239.9z"/>
		<path d="M883.2,313.3c-0.4,0-0.8-0.3-0.9-0.8c-1-6.6,0.7-14.8,2.8-19.9c0.2-0.4,0.7-0.7,1.2-0.5c0,0,0,0,0,0
			c0.4,0.2,0.7,0.7,0.5,1.1c0,0,0,0,0,0c-2,4.9-3.7,12.7-2.7,19c0.1,0.5-0.3,0.9-0.7,1L883.2,313.3z"/>
		<path d="M878.2,316L878.2,316l-8.1-1.2c-0.3,0-0.5-0.4-0.5-0.7c0-0.3,0.4-0.5,0.7-0.5l8,1.2c0.3,0.1,0.5,0.4,0.5,0.7
			C878.7,315.8,878.4,316,878.2,316L878.2,316z"/>
		<path class="st11" d="M933.5,293.7c0,0,3.3,35.8,5.6,77.2c6.1,0.6,12.3,0.2,18.3-1.4c0,0-2.8-46.5-6.7-73.5"/>
		<path d="M944.4,372c-1.8,0-3.6-0.1-5.4-0.3c-0.4-0.1-0.7-0.4-0.8-0.8c-2.2-40.8-5.6-76.8-5.6-77.1c0-0.5,0.3-0.9,0.8-1
			c0.5,0,0.9,0.3,1,0.8c0,0.4,3.3,35.9,5.6,76.4c5.5,0.5,11.1,0.1,16.5-1.2c-0.4-6-3-47.9-6.6-72.7c-0.1-0.5,0.3-0.9,0.7-1
			s0.9,0.3,1,0.7c3.9,26.7,6.7,73.1,6.7,73.6c0,0.4-0.2,0.8-0.7,0.9C953.3,371.5,948.8,372,944.4,372z"/>
		<path class="st0" d="M957.9,382.6c-0.5-4.2-1.3-8.5-2.4-12.6c-4.7,1-9.5,1.4-14.3,1.1c-0.5,3.8-0.7,7.7-0.6,11.5"/>
		<path d="M940.6,383.4c-0.5,0-0.8-0.4-0.9-0.8c-0.1-3.9,0.1-7.8,0.6-11.7c0.1-0.5,0.5-0.8,0.9-0.8c4.7,0.3,9.4-0.1,14.1-1.1
			c0.5-0.1,0.9,0.2,1.1,0.6c1.1,4.2,1.9,8.4,2.4,12.7c0,0.5-0.3,0.9-0.8,1c-0.5,0-0.9-0.3-1-0.8c-0.5-3.9-1.2-7.8-2.1-11.7
			c-4.2,0.8-8.6,1.2-12.9,1c-0.5,3.5-0.6,7-0.5,10.5C941.5,383,941.2,383.4,940.6,383.4L940.6,383.4z"/>
		<path class="st0" d="M917,279.1l5.1-11.1l-0.2-8.3l-18.7,1.6c0,0,1.5,7.6-0.4,12.2c-1.1,2.7-1.9,5.5-2.5,8.4
			c1,3.3,2.4,6.4,4.3,9.2C904.5,291,910.7,285.7,917,279.1z"/>
		<path d="M904.5,291.9h-0.1c-0.2,0-0.5-0.2-0.6-0.4c-1.9-2.9-3.4-6.1-4.4-9.5c0-0.2,0-0.3,0-0.5c0.6-2.9,1.5-5.7,2.6-8.5
			c1.7-4.2,0.4-11.6,0.3-11.7c0-0.2,0-0.5,0.2-0.7c0.2-0.2,0.4-0.3,0.6-0.4l18.8-1.6c0.5-0.1,0.9,0.3,1,0.8c0,0,0,0.1,0,0.1l0.2,8.4
			c0,0.1,0,0.3-0.1,0.4l-5.1,11.1c0,0.1-0.1,0.2-0.2,0.2c-6.3,6.6-12.5,11.9-12.6,11.9C904.9,291.8,904.7,291.9,904.5,291.9z
			 M901.1,281.7c0.8,2.8,2,5.4,3.6,7.9c1.8-1.6,6.7-5.9,11.6-11l4.9-10.8l-0.2-7.2l-16.9,1.4c0.3,2.3,1,7.9-0.6,11.7
			C902.5,276.3,901.7,279,901.1,281.7L901.1,281.7z M917,279.1L917,279.1z"/>
		<path class="st0" d="M901.8,312.5l15.2-33.4c-6.3,6.6-12.5,11.9-12.5,11.9c-1.9-2.8-3.3-5.9-4.3-9.2
			C898.5,289.6,897.4,301.2,901.8,312.5z"/>
		<path d="M901.8,313.4L901.8,313.4c-0.4,0-0.7-0.2-0.8-0.6c-4.5-11.5-3.4-23.3-1.6-31.2c0.1-0.4,0.4-0.7,0.8-0.7
			c0.4,0,0.8,0.2,0.9,0.6c0.9,2.9,2.1,5.6,3.6,8.1c1.8-1.6,6.7-6,11.7-11.1c0.3-0.4,0.9-0.4,1.3,0c0.3,0.3,0.4,0.7,0.2,1l-15.2,33.4
			C902.4,313.2,902.1,313.4,901.8,313.4z M900.5,285.1c-1.2,6.9-1.6,16,1.4,25l12.3-26.9c-4.9,4.8-9,8.3-9,8.4
			c-0.4,0.3-0.9,0.3-1.3-0.1c0,0,0,0,0-0.1C902.5,289.5,901.3,287.3,900.5,285.1z"/>
		<path d="M897.3,311c-0.2,0-0.4-0.1-0.5-0.3c-5.1-7.5-8.3-16.1-9.4-25.1c0-0.3,0.2-0.5,0.4-0.6l5.7-1.7l-3.4-3.2
			c-0.2-0.2-0.3-0.6-0.1-0.8c0,0,0,0,0.1-0.1l7.1-5.8c0.3-0.2,0.6-0.2,0.8,0.1c0.2,0.3,0.2,0.6-0.1,0.8l-6.5,5.4l3.6,3.5
			c0.2,0.1,0.2,0.4,0.2,0.6c-0.1,0.2-0.2,0.4-0.4,0.4l-6.2,1.8c1.2,8.6,4.3,16.9,9.2,24.1c0.2,0.3,0.1,0.6-0.2,0.8
			C897.6,311,897.4,311,897.3,311z"/>
		<path d="M906.7,310.9c-0.3,0-0.6-0.3-0.6-0.6c0-0.1,0.1-0.3,0.2-0.4c7.2-7.5,13.8-15.5,19.8-23.9l-5.7-3.6
			c-0.2-0.1-0.3-0.3-0.3-0.6c0-0.2,0.2-0.4,0.4-0.5l6.5-2.1l-2-7.4c-0.1-0.3,0.1-0.6,0.4-0.7c0,0,0,0,0,0c0.3-0.1,0.6,0.1,0.7,0.4
			l2.2,8c0.1,0.3-0.1,0.6-0.4,0.7l-5.8,2l5.1,3.3c0.1,0.1,0.2,0.2,0.3,0.4c0,0.2,0,0.3-0.1,0.5c-6.1,8.7-12.9,16.9-20.3,24.5
			C907,310.9,906.8,310.9,906.7,310.9z"/>
		<path d="M936.2,289.9c-0.1,0-0.2,0-0.3-0.1c-0.3-0.1-0.4-0.5-0.3-0.8c0,0,0,0,0,0c1.5-3,3.5-5.7,5.9-8c0.2-0.2,0.6-0.2,0.8,0
			c0.2,0.2,0.2,0.6,0,0.8c-2.3,2.2-4.2,4.8-5.7,7.7C936.6,289.8,936.4,289.9,936.2,289.9z"/>
		<path d="M902.5,330.6c-1.5,0-2.8-1.5-2.8-3.4s1.2-3.4,2.8-3.4s2.8,1.5,2.8,3.4S904.1,330.6,902.5,330.6z M902.5,324.9
			c-0.8,0-1.6,1-1.6,2.2s0.7,2.3,1.6,2.3s1.6-1,1.6-2.3S903.4,324.9,902.5,324.9z"/>
		<path class="st0" d="M929.2,244.2c2.2-2.1,5.1,1.9,3.7,6.8s-4.3,6-5.8,5L929.2,244.2z"/>
		<path d="M928.2,257.2c-0.6,0-1.1-0.2-1.6-0.5c-0.3-0.2-0.5-0.5-0.4-0.9l2.1-11.8c0-0.2,0.1-0.4,0.3-0.5c0.8-0.9,2.2-1.1,3.2-0.4
			c1.8,1.1,3,4.2,2,8.1c-1.1,4.1-3.1,5.3-4.2,5.7C929.1,257.2,928.7,257.2,928.2,257.2z M928.1,255.5c0.3,0,0.5,0,0.8-0.1
			c1.3-0.5,2.5-2.2,3.2-4.6c0.8-3-0.1-5.4-1.2-6.1c-0.3-0.2-0.6-0.2-0.9,0L928.1,255.5z"/>
		<path class="st0" d="M894.3,243.5c0,0,0.1,9.7,2.7,13.9s9,10.3,15.5,10.3s13.1-7,15.4-12.2c2.3-5.2,3.7-21.9-5.9-30.4
			c0,0-6,10.1-16.6,12.9c0,0,5-4.9,6.2-10.5C911.6,227.5,901.4,238.2,894.3,243.5z"/>
		<path d="M912.5,268.6c-3.9,0-7.5-2-9.8-3.7c-2.6-1.9-4.8-4.3-6.5-7c-2.6-4.4-2.8-14-2.8-14.4c0-0.3,0.1-0.6,0.4-0.7
			c6.9-5.2,17.1-15.8,17.2-15.9c0.3-0.4,0.9-0.4,1.2,0c0.2,0.2,0.3,0.5,0.3,0.8c-0.8,3.1-2.2,6-4.2,8.4c8.2-3.5,13-11.3,13-11.4
			c0.3-0.4,0.8-0.6,1.2-0.3c0,0,0.1,0.1,0.1,0.1c10,8.9,8.4,26.3,6.1,31.5C926.4,261,919.6,268.6,912.5,268.6z M895.2,243.9
			c0,1.9,0.4,9.6,2.5,13.1c2.5,4.1,8.7,9.9,14.8,9.9s12.4-6.8,14.6-11.7c2.1-4.7,3.6-20.2-4.9-28.7c-1.8,2.6-7.5,10-16.5,12.4
			c-0.5,0.1-1-0.2-1.1-0.7c-0.1-0.3,0-0.6,0.2-0.8c1.8-1.9,3.4-4,4.6-6.3C904.9,235.6,900.2,239.9,895.2,243.9z"/>
		<ellipse cx="903.7" cy="243.3" rx="1.5" ry="1.8"/>
		<ellipse cx="919.9" cy="243.3" rx="1.5" ry="1.8"/>
		<path d="M912.9,254h-2.2c-0.3,0-0.6-0.2-0.6-0.6c0,0,0,0,0,0c0-0.3,0.3-0.6,0.6-0.6l0,0h2.2c0.3,0,0.6,0.3,0.6,0.6c0,0,0,0,0,0
			C913.5,253.7,913.2,254,912.9,254C912.9,254,912.9,254,912.9,254z"/>
		<path d="M911.8,258.6c-2.8,0-4.7-0.8-5.8-2.4c-0.2-0.3-0.1-0.6,0.1-0.8c0.3-0.2,0.6-0.1,0.8,0.1c0.9,1.3,2.4,1.9,4.8,1.9
			s3.9-0.6,4.9-1.9c0.2-0.3,0.6-0.3,0.8-0.1c0.3,0.2,0.3,0.6,0.2,0.8C916.5,257.8,914.6,258.6,911.8,258.6z"/>
		<path d="M911.8,261.9c-1.3,0.1-2.5-0.3-3.5-1.1c-0.3-0.1-0.4-0.5-0.3-0.8c0.1-0.3,0.5-0.4,0.8-0.3c0.1,0,0.2,0.1,0.2,0.2
			c0.8,0.5,1.8,0.8,2.7,0.8c1,0.1,1.9-0.2,2.8-0.8c0.2-0.2,0.6-0.2,0.8,0.1c0.2,0.2,0.2,0.6,0,0.8C914.3,261.6,913,262,911.8,261.9z
			"/>
		<path d="M922,256.6c-0.3,0-0.6-0.3-0.6-0.6v0c0-0.8-0.1-1.7-0.5-2.5c-0.1-0.3,0-0.6,0.2-0.8c0.3-0.2,0.6-0.1,0.8,0.2
			c0.4,0.9,0.6,2,0.6,3C922.6,256.3,922.4,256.6,922,256.6C922,256.6,922,256.6,922,256.6z"/>
		<path d="M922.1,237.3c-0.2,0-0.4-0.1-0.5-0.2c-0.7-1.1-1.9-1.8-3.2-1.9c-0.3,0-0.6-0.3-0.6-0.6c0-0.3,0.3-0.6,0.6-0.6c0,0,0,0,0,0
			c1.7,0.1,3.2,1,4.1,2.4c0.2,0.3,0.1,0.6-0.2,0.8C922.3,237.2,922.2,237.3,922.1,237.3L922.1,237.3z"/>
		<path class="st1" d="M756.3,490c-18.5,0.6-34-13.8-34.7-32.3c-0.6-18.5,13.8-34,32.3-34.7c0.8,0,1.5,0,2.3,0h141.3
			c18.5-0.6,34,13.8,34.7,32.3c0.6,18.5-13.8,34-32.3,34.7c-0.8,0-1.5,0-2.3,0H756.3z"/>
		<path class="st0" d="M789.7,442.5c0-4.3,2.4-6.9,6-6.9s6,2.5,6,6.9s-2.4,7-6,7S789.7,446.8,789.7,442.5z M798.9,442.5
			c0-2.9-1.3-4.6-3.2-4.6s-3.2,1.7-3.2,4.6s1.3,4.7,3.2,4.7S798.9,445.4,798.9,442.5z"/>
		<path class="st0" d="M804.2,435.9h2.7v5.8l0,0l4.4-5.8h2.9l-4.1,5.2l4.8,8.1H812l-3.5-6l-1.8,2.2v3.8h-2.7L804.2,435.9z"/>
		<path class="st0" d="M815.3,435.9h2.7l1.1,6.5c0.2,1.4,0.4,2.8,0.6,4.2h0.1c0.3-1.4,0.6-2.9,0.8-4.2l1.5-6.5h2.3l1.5,6.5
			c0.3,1.4,0.5,2.8,0.8,4.2h0.1c0.2-1.4,0.4-2.9,0.6-4.2l1.1-6.5h2.5l-2.5,13.3h-3.3l-1.5-6.6c-0.2-1-0.4-2.1-0.6-3.1h-0.1
			c-0.2,1-0.4,2-0.6,3.1l-1.5,6.6h-3.3L815.3,435.9z"/>
		<path class="st0" d="M835.6,435.9h3.1l4.3,13.3h-2.8l-0.9-3.4H835l-0.9,3.4h-2.7L835.6,435.9z M835.5,443.8h3.2l-0.4-1.5
			c-0.4-1.4-0.8-2.9-1.2-4.4h-0.1c-0.3,1.5-0.7,3-1.1,4.4L835.5,443.8z"/>
		<path class="st0" d="M842.8,435.9h2.8l1.8,6.5c0.4,1.5,0.7,2.8,1.1,4.3h0.1c0.4-1.5,0.7-2.8,1.1-4.3l1.7-6.5h2.7l-4.1,13.3h-3.2
			L842.8,435.9z"/>
		<path class="st0" d="M855.7,435.9h8.2v2.2h-5.5v3.1h4.7v2.2h-4.7v3.6h5.7v2.2h-8.4L855.7,435.9z"/>
		<path class="st0" d="M757,473.4c-2.8-0.5-4.7-3.1-4.7-6.9c0-4.3,2.4-6.9,6-6.9s6,2.5,6,6.9c0,3.6-1.7,6.1-4.4,6.8
			c0.7,1,1.8,1.5,3,1.4c0.5,0,1-0.1,1.5-0.2l0.5,2c-0.7,0.3-1.5,0.4-2.2,0.4C760.2,477,758,475.6,757,473.4z M761.5,466.5
			c0-2.9-1.2-4.6-3.2-4.6s-3.2,1.7-3.2,4.6s1.3,4.8,3.2,4.8S761.5,469.5,761.5,466.5L761.5,466.5z"/>
		<path class="st0" d="M765.7,469.7c0-1.9,1.2-2.9,2.5-3.8c-0.5-0.9-0.8-1.9-0.8-2.9c0-1.8,1.4-3.4,3.3-3.4c0.1,0,0.1,0,0.2,0
			c1.5-0.2,2.9,1,3.1,2.5c0,0.1,0,0.3,0,0.4c0,1.8-1.4,2.9-2.9,3.9c0.8,1,1.8,2,2.9,2.8c0.8-1,1.3-2.2,1.6-3.4h2.4
			c-0.5,1.6-1.2,3.2-2.2,4.6c0.7,0.4,1.5,0.8,2.4,1l-0.7,2.2c-1.2-0.3-2.3-0.7-3.3-1.4c-1.2,0.9-2.6,1.4-4.1,1.4
			C767.3,473.5,765.7,471.8,765.7,469.7z M770.4,471.5c0.7,0,1.4-0.3,2-0.7c-1.1-0.9-2.1-2-3-3.1c-0.6,0.4-1,1.1-1.1,1.9
			C768.3,470.7,769.3,471.5,770.4,471.5C770.4,471.5,770.4,471.5,770.4,471.5z M770,464.8c1-0.6,1.9-1.3,1.9-2.2
			c0-0.7-0.3-1.1-1-1.1s-1.4,0.6-1.4,1.6C769.6,463.7,769.7,464.3,770,464.8z"/>
		<path class="st0" d="M782.7,459.9h3.1l4.3,13.3h-2.8l-0.9-3.4H782l-0.9,3.4h-2.7L782.7,459.9z M782.6,467.8h3.2l-0.4-1.5
			c-0.4-1.4-0.8-2.9-1.2-4.4h-0.1c-0.3,1.5-0.7,3-1.1,4.4L782.6,467.8z"/>
		<path class="st0" d="M799.5,460.6h9.1h1.6c0,0.4,0,1.1,0,1.6v9.3c0,0.6,0,1.6,0.1,2.1h-2.6c0-0.3,0-0.6,0-0.9h-8.2
			c-0.7,0-1.7,0-2.3,0.1v-2.6c0.6,0.1,1.4,0.1,2.2,0.1h8.3v-7.5h-8.1c-0.8,0-1.7,0-2.2,0.1v-2.5C798,460.5,798.9,460.6,799.5,460.6z
			"/>
		<path class="st0" d="M827,471.8l-1,2.2c-3.6-1.2-7.3-2.1-11-2.7l0.9-2.3C819.7,469.8,823.4,470.7,827,471.8z M826.2,466.2
			l-0.9,2.2c-3.1-1-6.2-1.8-9.4-2.3l0.8-2.2C820,464.5,823.1,465.2,826.2,466.2L826.2,466.2z M827.5,461.3l-0.9,2.2
			c-3.2-1-6.4-1.8-9.7-2.2l0.8-2.1C821,459.6,824.2,460.3,827.5,461.3L827.5,461.3z"/>
		<path class="st0" d="M844,465.4c-0.2,1.1-0.6,4.2-0.9,5.9h1.2c0.6,0,1.2,0,1.8-0.1v2.3c-0.4,0-1.2-0.1-1.7-0.1h-9.5
			c-0.7,0-1.1,0-1.8,0.1v-2.3c0.5,0,1.2,0.1,1.8,0.1h5.8c0.2-1.5,0.6-4.1,0.7-5.1h-4.9c-0.6,0-1.3,0-1.8,0.1v-2.4
			c0.6,0.1,1.2,0.1,1.8,0.1h4.6c0.5,0,0.9-0.1,1.3-0.2l1.8,0.9C844.1,464.9,844,465.2,844,465.4z"/>
		<path class="st0" d="M852.3,469.9h10.3c0.7,0,1.3,0,2-0.1v2.8c-0.6-0.1-1.4-0.1-2-0.1h-10.3c-0.7,0-1.6,0.1-2.2,0.1v-2.8
			C850.8,469.9,851.6,469.9,852.3,469.9z M853.7,461.1h7.5c0.7,0,1.3,0,2-0.1v2.6c-0.5,0-1.4-0.1-2-0.1h-7.4c-0.7,0-1.5,0-2.1,0.1
			V461C852.3,461.1,853,461.1,853.7,461.1z"/>
		<path class="st0" d="M869.8,464.1h11.8c0.5,0,1.1,0,1.6-0.1v2.3c-0.5,0-1.1-0.1-1.6-0.1h-4.3c0,1.6-0.4,3.2-1.2,4.6
			c-0.8,1.5-2.1,2.7-3.6,3.5l-2.1-1.5c1.3-0.5,2.4-1.4,3.2-2.6c0.7-1.2,1.1-2.6,1.1-4h-5c-0.5,0-1.2,0-1.7,0.1V464
			C868.6,464.1,869.2,464.1,869.8,464.1z M872.1,459.5h7.2c0.6,0,1.3,0,1.9-0.1v2.3c-0.6,0-1.3-0.1-1.9-0.1h-7.2
			c-0.6,0-1.4,0-1.9,0.1v-2.3C870.8,459.5,871.4,459.6,872.1,459.5z"/>
		<path class="st0" d="M892.9,465.5c1.7-1,3.2-2.3,4.5-3.9l1.8,1.8c-1.2,1.2-2.6,2.3-4,3.3v6.2c0,0.6,0,1.3,0.1,1.9h-2.7
			c0-0.4,0.1-1.3,0.1-1.9v-4.8c-1.7,0.8-3.4,1.5-5.2,2.1l-1.1-2.1C888.7,467.6,890.9,466.7,892.9,465.5z"/>
		<path class="st13" d="M828.9,65.3h173.4c3.3,0,6,2.7,6,6v62.4c0,3.3-2.7,6-6,6H828.9c-3.3,0-6-2.7-6-6V71.3
			C822.9,68,825.5,65.3,828.9,65.3z"/>
		<polygon class="st13" points="822.9,129.1 822.9,160.5 853.9,129.5 		"/>
		<path class="st0" d="M894.7,78.7v18h-2.6v-1.1H880v1.1h-2.5v-18L894.7,78.7z M892.1,93.5V81.2H880v12.3L892.1,93.5z M890.1,83.5
			v7.6H882v-7.6L890.1,83.5z M887.7,85.6h-3.5v3.5h3.5V85.6z"/>
		<path class="st0" d="M908.4,81.7c-0.3,0.5-0.6,0.9-1,1.3c2.3,2.4,5.1,4.2,8.3,5.2c-0.5,0.6-1,1.3-1.4,2c-1.5-0.6-2.8-1.3-4.2-2.2
			v0.9h-8V88c-1.3,0.9-2.7,1.6-4.2,2.2c-0.4-0.7-0.8-1.3-1.3-1.8c3.2-1.2,6-3.1,8.2-5.7h1.2c-0.3-0.2-0.7-0.4-1-0.6
			c0.2-0.1,0.3-0.3,0.5-0.4H903c0.3,0.5,0.6,1.1,0.8,1.7l-2.1,0.7c-0.3-0.8-0.6-1.6-1.1-2.4h-0.2c-0.5,0.9-1.1,1.7-1.8,2.4
			c-0.6-0.5-1.3-0.9-2-1.3c1.4-1.4,2.4-3.1,3.1-4.9l2.3,0.6c-0.2,0.4-0.3,0.8-0.5,1.2h4.3v1.6c0.9-1,1.6-2.2,2-3.4l2.3,0.5
			c-0.2,0.4-0.3,0.8-0.5,1.3h5.6v2H912c0.4,0.5,0.7,1,1,1.6l-2.2,0.8c-0.4-0.8-0.8-1.6-1.4-2.4L908.4,81.7z M900.2,90.3h11.9v6.5
			h-2.4v-0.5h-7.3v0.5h-2.3L900.2,90.3z M902.4,92.3v1.9h7.3v-1.8L902.4,92.3z M908.6,87c-0.9-0.7-1.8-1.4-2.6-2.2
			c-0.7,0.9-1.6,1.6-2.5,2.3L908.6,87z"/>
		<path class="st0" d="M934.4,82.2c0,0,0,0.8-0.1,1.1c-0.4,8-0.8,11-1.7,12c-0.5,0.7-1.2,1.1-2,1.1c-1.1,0.1-2.1,0.1-3.2,0
			c-0.1-0.9-0.4-1.7-0.8-2.5c1.3,0.1,2.4,0.1,3,0.1c0.3,0,0.7-0.1,0.9-0.3c0.6-0.6,1-3.2,1.3-9.2h-5.6c-0.3,4.2-1.7,9-7.3,12.2
			c-0.6-0.7-1.2-1.4-2-1.9c3.9-2,6.4-5.9,6.6-10.2h-6v-2.4h6.1v-4.1h2.5v4.1H934.4z"/>
		<path class="st0" d="M941.3,81.4c-0.5,2.6-0.9,5.1-1,7.8c0,0.4,0,0.9,0.1,1.3c0.3-0.7,0.6-1.4,0.9-2.1l1.2,1
			c-0.6,1.6-1.2,3.7-1.4,4.8c-0.1,0.3-0.1,0.6-0.1,0.9c0,0.2,0,0.5,0,0.8l-2.3,0.2c-0.6-2.1-0.8-4.2-0.8-6.4
			c0.1-2.8,0.4-5.6,0.8-8.3c0.1-0.7,0.2-1.3,0.2-2l2.8,0.2C941.5,80.1,941.4,80.8,941.3,81.4z M951.4,80.7c0,0.4,0,1.2-0.1,2.1
			c1-0.1,2.1-0.2,3.1-0.5v2.5c-1,0.2-2,0.3-3.1,0.3c0,2,0.1,3.6,0.2,4.9c1.4,0.6,2.8,1.5,3.9,2.6l-1.4,2.1c-0.8-0.7-1.6-1.4-2.4-2
			c-0.1,1.9-1.2,3.3-3.9,3.3s-4.5-1.2-4.5-3.3s1.7-3.4,4.4-3.4c0.4,0,0.9,0,1.3,0.1c0-1.2-0.1-2.7-0.1-4.1c-0.5,0-1,0-1.4,0
			c-1.2,0-2.3,0-3.5-0.1v-2.4c1.2,0.1,2.3,0.2,3.5,0.2c0.5,0,0.9,0,1.4,0c0-1,0-1.8,0-2.2c0-0.4-0.1-0.9-0.1-1.3h2.9
			C951.5,79.8,951.4,80.2,951.4,80.7L951.4,80.7z M947.4,93.6c1.2,0,1.6-0.6,1.6-1.8v-0.4c-0.5-0.1-1.1-0.2-1.6-0.2
			c-1.1,0-1.9,0.5-1.9,1.2S946.4,93.6,947.4,93.6L947.4,93.6z"/>
		<path class="st0" d="M842.2,113.6c0-4.8,2.7-7.6,6.6-7.6s6.6,2.8,6.6,7.6s-2.7,7.7-6.6,7.7S842.2,118.4,842.2,113.6z M852.4,113.6
			c0-3.2-1.4-5.1-3.6-5.1s-3.6,1.9-3.6,5.1s1.4,5.2,3.6,5.2S852.4,116.7,852.4,113.6L852.4,113.6z"/>
		<path class="st0" d="M858.4,106.2h3v6.4h0.1l4.9-6.4h3.3l-4.6,5.8l5.3,9h-3.2l-3.8-6.7l-1.9,2.5v4.1h-3L858.4,106.2z"/>
		<path class="st0" d="M870.6,106.2h3l1.2,7.2c0.2,1.6,0.5,3.1,0.7,4.7h0.1c0.3-1.6,0.6-3.2,0.9-4.7l1.7-7.2h2.5l1.7,7.2
			c0.3,1.5,0.6,3.1,0.9,4.7h0.1c0.2-1.6,0.4-3.2,0.7-4.7l1.2-7.2h2.8l-2.7,14.8h-3.7l-1.7-7.3c-0.2-1.2-0.5-2.3-0.6-3.4h-0.1
			c-0.2,1.2-0.4,2.3-0.6,3.4l-1.6,7.3h-3.6L870.6,106.2z"/>
		<path class="st0" d="M893.2,106.2h3.5l4.8,14.8h-3.1l-1-3.8h-4.8l-1,3.8h-3L893.2,106.2z M893.2,114.9h3.5l-0.4-1.6
			c-0.5-1.6-0.9-3.2-1.3-4.8h-0.1c-0.4,1.6-0.8,3.3-1.3,4.8L893.2,114.9z"/>
		<path class="st0" d="M901.3,106.2h3.1l2,7.2c0.5,1.6,0.8,3.1,1.2,4.8h0.1c0.5-1.7,0.8-3.1,1.3-4.8l1.9-7.2h3l-4.6,14.8h-3.5
			L901.3,106.2z"/>
		<path class="st0" d="M915.6,106.2h9.1v2.5h-6.1v3.4h5.2v2.5h-5.2v4h6.3v2.4h-9.3L915.6,106.2z"/>
		<path class="st0" d="M939.8,107c-0.1,0.6-0.3,1.3-0.4,2.1c0.7,0,1.3-0.1,1.7-0.1c2.1,0,3.6,0.9,3.6,3.8c0,2.4-0.3,5.6-1.1,7.3
			c-0.6,1.3-1.9,2-3.3,1.8c-0.8,0-1.6-0.1-2.4-0.3l-0.4-2.6c0.8,0.2,1.6,0.4,2.4,0.4c0.6,0.1,1.2-0.3,1.5-0.9
			c0.6-1.8,0.9-3.7,0.8-5.5c0-1.6-0.7-1.8-1.9-1.8c-0.3,0-0.8,0-1.4,0.1c-0.8,3-2.2,7.8-4.1,10.7l-2.6-1c1.9-2.6,3.3-6.7,4.1-9.4
			l-1.7,0.2c-0.6,0.1-1.6,0.2-2.2,0.3l-0.2-2.7c0.7,0,1.4,0,2.1,0c0.6,0,1.6-0.1,2.6-0.2c0.3-1.4,0.4-2.8,0.4-4.2l3,0.3
			C940,105.9,939.9,106.5,939.8,107z M948.3,107.3l-1,0.4c1.3,2.2,2.4,4.6,3.3,7l-2.5,1.2c-0.6-2.7-1.8-5.2-3.4-7.5l1.8-0.8
			c-0.4-0.8-0.9-1.6-1.4-2.4l1.6-0.7C947.2,105.3,947.9,106.6,948.3,107.3L948.3,107.3z M950.6,106.4l-1.6,0.7c-0.5-1-1-1.9-1.6-2.8
			l1.6-0.6C949.6,104.6,950.2,105.5,950.6,106.4L950.6,106.4z"/>
		<path class="st0" d="M956.1,115.3v4.7c0,1.1-0.2,1.7-0.8,2c-0.9,0.4-1.8,0.6-2.8,0.5c-0.1-0.8-0.3-1.5-0.6-2.2c0.7,0,1.4,0,1.7,0
			s0.3-0.1,0.3-0.3v-4l-1.8,0.5l-0.5-2.3c0.7-0.1,1.5-0.4,2.4-0.6V110h-2.2v-2.2h2.2V104h2.2v3.8h2v2.2h-2v3l1.8-0.5l0.3,2.1
			L956.1,115.3z M965.2,120.3c0.5,0,0.9,0.1,1.4,0.1c0.7,0,3.2,0,4,0c-0.3,0.7-0.5,1.4-0.6,2.1h-3.5c-2.6,0-4.6-0.5-6-2.9
			c-0.5,1.2-1.2,2.3-2.1,3.1c-0.5-0.5-1.1-1-1.8-1.4c1.7-1.3,2.5-3.5,2.8-6.3l2.2,0.3c-0.1,0.7-0.2,1.3-0.4,2c0.3,1,0.9,1.8,1.7,2.3
			v-5.2h-4.7v-1.9H970v1.9h-4.9v1.8h3.8v1.9h-3.8V120.3z M969.1,111.6h-9.9v-6.9h9.9V111.6z M966.8,106.3h-5.4v1h5.4V106.3z
			 M966.8,108.9h-5.4v1h5.4V108.9z"/>
		<path class="st0" d="M978.2,104.8c-0.5,1.4-1.2,2.8-1.9,4.2v13.8h-2.3v-10.1c-0.4,0.5-0.8,1-1.3,1.5c-0.3-0.9-0.8-1.7-1.3-2.5
			c2-2.1,3.6-4.7,4.6-7.5L978.2,104.8z M982.8,118.1c-1.1,1.8-2.4,3.3-4,4.6c-0.6-0.6-1.2-1.1-1.9-1.5c1.5-1,2.7-2.3,3.6-3.8
			L982.8,118.1z M990.4,114.3v2.3h-13v-2.3h2.7v-4h-2.2V108h2.2v-3.7h2.3v3.7h2.9v-3.8h2.3v3.8h2.6v2.3h-2.6v4L990.4,114.3z
			 M982.4,114.3h2.9v-4h-2.9V114.3z M986.8,117.4c1.3,1.2,2.4,2.6,3.4,4.1l-2,1.3c-0.9-1.6-2-3-3.3-4.3L986.8,117.4z"/>
	</g>
</g>
</svg>
