<svg xmlns="http://www.w3.org/2000/svg" viewBox="0 0 835.26 495.52"><defs><style>.cls-1{fill:#3c3c3c;}.cls-2{fill:#141f42;}.cls-3{fill:#fff;}.cls-4,.cls-5{fill:none;stroke-miterlimit:10;stroke-width:2px;}.cls-4{stroke:#fff;}.cls-5{stroke:#141f42;}.cls-6{fill:#00be96;}</style></defs><g id="レイヤー_2" data-name="レイヤー 2"><g id="レイヤー_12" data-name="レイヤー 12"><path class="cls-1" d="M231.07,475.82l.69.69-7.92,7.92,7.92,7.92-.69.7-7.92-7.92-8,7.94-.69-.69,7.94-7.95-7.92-7.92.7-.69,7.92,7.92Zm-14.76,10.41a1.8,1.8,0,1,1,1.8-1.8A1.81,1.81,0,0,1,216.31,486.23Zm5-8.64a1.8,1.8,0,1,1,1.8,1.8A1.81,1.81,0,0,1,221.35,477.59Zm3.6,13.68a1.8,1.8,0,1,1-1.8-1.8A1.81,1.81,0,0,1,225,491.27Zm5-8.64a1.8,1.8,0,1,1-1.8,1.8A1.82,1.82,0,0,1,230,482.63Z"/><path class="cls-1" d="M244.46,489c-.53-.74-1.75-2.23-2.71-3.33v9.72H240V486.5a23.59,23.59,0,0,1-3.14,2.95,7.37,7.37,0,0,0-1-1.54,23.88,23.88,0,0,0,7-8.42h-6.36v-1.63H240v-4.37h1.76v4.37h2l.31-.1,1,.7A25.86,25.86,0,0,1,242,484l.89.89a20.36,20.36,0,0,0,1.8-2.57l1.17,1c-.74.84-1.51,1.78-2.16,2.45.77.79,1.54,1.58,1.83,1.92Zm13.15-12.33c-.29,12.17-.53,16.2-1.44,17.4a2.21,2.21,0,0,1-1.82,1.05,25.54,25.54,0,0,1-3.41,0,4.35,4.35,0,0,0-.58-1.82c1.42.12,2.72.12,3.24.12a1,1,0,0,0,.94-.41c.72-.84,1-4.82,1.27-15.65H251c-.19,6.77-.76,14.16-6.26,18a6.46,6.46,0,0,0-1.37-1.34c5.31-3.51,5.69-10.44,5.81-16.71h-4.06v-1.68h12.53Z"/><path class="cls-1" d="M271.87,489.59H260.15V488h2.33v-9.75h-2v-1.61h2v-2.88h1.64v2.88h4.34v-2.88h1.66v2.88h1.75v1.61h-1.75V488h1.75Zm-6.7,1a15.71,15.71,0,0,1-3.55,4.85,11.25,11.25,0,0,0-1.44-1,12.56,12.56,0,0,0,3.29-4.27Zm-1.05-12.31v2.11h4.34v-2.11Zm0,5.91h4.34v-2.36h-4.34Zm0,3.84h4.34v-2.4h-4.34Zm4.15,2.11a18.05,18.05,0,0,1,2.52,3.55l-1.44.84a19.36,19.36,0,0,0-2.48-3.65Zm13.08,3c0,1-.27,1.58-.91,1.87a10.58,10.58,0,0,1-3.58.34,7.27,7.27,0,0,0-.55-1.73c1.27,0,2.47,0,2.81,0s.5-.12.5-.51v-5.76h-5.06a18.77,18.77,0,0,1-2.28,8.21,4.62,4.62,0,0,0-1.42-1c2-3.17,2.18-7.73,2.18-11.16v-8.67h8.31Zm-1.73-7.39v-4h-4.9v1.61c0,.74,0,1.56,0,2.38Zm-4.9-9.41v3.81h4.9V476.3Z"/><path class="cls-1" d="M293.2,492.79a33.29,33.29,0,0,1-7.39,2.66,10.75,10.75,0,0,0-1.3-1.32,31.63,31.63,0,0,0,7.09-2.06Zm-5.64-8.55c-.65.17-1.34.34-2.13.51a5.37,5.37,0,0,0-.84-1.37c3.16-.6,4.94-1.4,5.92-2.38h-3.26l-.12.31-1.66-.09a35.56,35.56,0,0,0,1.42-3.87h4.78V476h-5.86v-1.17h5.86v-1.32h1.63v1.32H297v-1.32h1.68v1.32H304v3.72h-5.32v1.29h6.86s0,.36-.05.58c-.17,1.47-.31,2.16-.69,2.55a1.75,1.75,0,0,1-1.16.43h-.57v8.45H287.56Zm.15-4.42h3.6a3.35,3.35,0,0,0,.31-1.29h-3.46ZM301.29,484h-12v1.49h12Zm0,2.59h-12v1.47h12Zm0,2.6h-12v1.48h12ZM298.68,481v1.8H297V481h-4.4a5,5,0,0,1-1.8,1.85h10.66a5.69,5.69,0,0,0-.26-.7c.74.05,1.41.08,1.65.08a1,1,0,0,0,.58-.12,2.75,2.75,0,0,0,.31-1.11ZM297,478.53h-3.72a7.4,7.4,0,0,1-.2,1.29H297Zm-3.7-1.18H297V476h-3.7Zm5.21,14.72c2.64.72,5.52,1.7,7.29,2.4l-1.89.93a60.39,60.39,0,0,0-6.84-2.4Zm.17-16.09v1.37h3.72V476Z"/><path class="cls-1" d="M328.36,493c0,1.15-.31,1.68-1.08,2a15.64,15.64,0,0,1-4.46.29,7,7,0,0,0-.6-1.73c1.68.07,3.31.05,3.74.05s.65-.17.65-.63v-4.87h-6.45v7.08h-1.78v-7.08h-6a13.79,13.79,0,0,1-3,7.44,5.87,5.87,0,0,0-1.37-1.17c2.64-3,2.88-7.2,2.88-10.54v-8.64h17.47Zm-10-6.6v-4h-5.74v1.42c0,.79,0,1.68-.09,2.57Zm-5.74-9.51v3.84h5.74v-3.84Zm14,0h-6.45v3.84h6.45Zm0,9.51v-4h-6.45v4Z"/><path class="cls-1" d="M339.26,491.73h3.91V479.1h-3.12v-1.41a10.18,10.18,0,0,0,3.65-1.25h1.68v15.29h3.53v1.82h-9.65Z"/><path class="cls-1" d="M351.14,491.54l1.08-1.44a5.78,5.78,0,0,0,4.32,1.94,3.68,3.68,0,0,0,3.74-3.89,3.46,3.46,0,0,0-3.64-3.79,4.81,4.81,0,0,0-2.93,1.06l-1.18-.75.55-8.23h8.57v1.87H355l-.43,5.12a5,5,0,0,1,2.62-.72c2.93,0,5.3,1.68,5.3,5.37a5.59,5.59,0,0,1-5.76,5.79A7.49,7.49,0,0,1,351.14,491.54Z"/><path class="cls-1" d="M365,484.94c0-5.74,2.09-8.81,5.5-8.81s5.47,3.09,5.47,8.81-2.06,8.93-5.47,8.93S365,490.67,365,484.94Zm8.84,0c0-5-1.35-7.06-3.34-7.06s-3.36,2-3.36,7.06,1.34,7.17,3.36,7.17S373.8,490,373.8,484.94Z"/><path class="cls-1" d="M393,477c-.05,1.58-.12,3.24-.29,4.89h10.66s0,.63,0,.87c-.43,7.73-.81,10.58-1.75,11.59a2.71,2.71,0,0,1-2,.86,31.89,31.89,0,0,1-4.23-.09,3.53,3.53,0,0,0-.62-1.75,40.62,40.62,0,0,0,4.18.19,1.44,1.44,0,0,0,1.12-.31c.72-.65,1.13-3.29,1.47-9.63h-9c-.69,4.71-2.47,9.17-7.2,11.81a4.9,4.9,0,0,0-1.3-1.39c6.65-3.53,7-10.92,7.13-17h-6.45v-1.73h20.88V477Z"/><path class="cls-1" d="M417.43,476.37c-.07.62-.19,1.46-.34,2.47a33.13,33.13,0,0,0,4.87-.31l0,1.8c-1.54.14-2.93.22-4.88.22h-.16c-.17,1.41-.36,2.92-.53,4.34h.45a35.33,35.33,0,0,0,5-.31l-.05,1.82a43.05,43.05,0,0,1-4.71.24h-.86c-.1,1-.14,1.8-.14,2.38,0,2.33,1.29,3.77,4,3.77,3.65,0,6-1.61,6-4.08a6.66,6.66,0,0,0-2.61-4.9l2.11-.43a7.85,7.85,0,0,1,2.45,5.54c0,3.58-3.17,5.74-7.92,5.74-3.27,0-5.88-1.42-5.88-5.35,0-.68.07-1.64.19-2.76a23.94,23.94,0,0,1-5-.87l.1-1.85a21.31,21.31,0,0,0,5.11,1c.15-1.42.34-2.93.53-4.35a32,32,0,0,1-5.16-.84l.1-1.75a23.78,23.78,0,0,0,5.25.89c.12-1,.22-1.83.27-2.52a8.23,8.23,0,0,0,0-1.71l2.16.15A12.68,12.68,0,0,0,417.43,476.37Z"/><path class="cls-1" d="M445.75,476.94c-.53.89-1.11,1.76-1.71,2.64v15.75h-1.89V482a30.62,30.62,0,0,1-8.69,7,11.78,11.78,0,0,0-1.2-1.56,27.86,27.86,0,0,0,11.21-10.47H432.86v-1.77h20.5v1.77Zm.09,4a54.06,54.06,0,0,1,8.19,6.32l-1.42,1.36a53.09,53.09,0,0,0-8.09-6.52Z"/><path class="cls-1" d="M473.2,488a9.77,9.77,0,0,1-3,3.81,72.18,72.18,0,0,1,7,2.19l-1.08,1.44a63.1,63.1,0,0,0-7.75-2.5c-2.69,1.37-6.34,2.09-11.09,2.42a4.6,4.6,0,0,0-.67-1.53,33.45,33.45,0,0,0,9.22-1.51c-1.42-.34-2.86-.65-4.32-.94L461,492l-1.68-.58c.75-.93,1.63-2.18,2.55-3.45h-5.6V486.5h6.63c.5-.77,1-1.51,1.44-2.21H458v-6.17h5.3v-2h-6.48v-1.58h20.5v1.58h-6.75v2h5.74v6.17H465.64l.65.17c-.41.65-.86,1.34-1.34,2h13V488Zm-13.48-5.16h3.62v-3.25h-3.62Zm4.22,5.16c-.5.72-1,1.44-1.49,2.08,1.9.36,3.79.77,5.59,1.2a8.6,8.6,0,0,0,3.2-3.28Zm1.1-9.87h3.87v-2H465Zm3.87,4.71v-3.25H465v3.25Zm1.7-3.25v3.25h4v-3.25Z"/><path class="cls-1" d="M483.14,477.64c1.56-.17,6.1-.62,10.51-1,2.62-.22,4.88-.36,6.48-.44v1.92a20,20,0,0,0-4.7.39,8.44,8.44,0,0,0-5.5,7.61c0,4.68,4.37,6.17,8.28,6.31l-.69,2c-4.44-.17-9.51-2.54-9.51-7.89a9.75,9.75,0,0,1,4.49-8.12c-2.57.29-8.69.87-11.28,1.42l-.22-2.09C481.92,477.74,482.68,477.69,483.14,477.64Zm15.51,6.79-1.23.58a22,22,0,0,0-2-3.38l1.23-.53A29.9,29.9,0,0,1,498.65,484.43Zm2.73-1-1.25.6a22.45,22.45,0,0,0-2-3.36l1.17-.55A31.1,31.1,0,0,1,501.38,483.4Z"/><path class="cls-1" d="M518,476.06c0,.36,0,.91,0,1.56h.36l7,0,0,1.78c-1.34-.08-3.53-.12-7-.12H518c0,1.36,0,2.85,0,4a5.85,5.85,0,0,1,.77,3.07c0,3.24-1.59,6.84-7.18,8.52L510,493.27c3.2-.72,5.4-2.07,6.36-4.25a3.37,3.37,0,0,1-2.08.65,3.83,3.83,0,0,1-3.94-4,4.19,4.19,0,0,1,4.22-4.18,5,5,0,0,1,1.61.26c0-.71,0-1.58,0-2.42-3.65,0-7.73.19-10.73.41l0-1.85c2.67-.05,7.18-.19,10.75-.24,0-.67,0-1.25,0-1.58,0-.63-.12-1.32-.15-1.52h2.19C518.11,474.81,518.06,475.74,518,476.06ZM514.63,488c1.41,0,2.33-1.13,2.11-3.41a2.16,2.16,0,0,0-2.14-1.51,2.44,2.44,0,0,0-2.42,2.54A2.31,2.31,0,0,0,514.63,488Z"/><path class="cls-2" d="M1,71.37h6.6l2.6,15.93c.48,3.43,1,6.86,1.5,10.38h.17c.66-3.52,1.37-7,2.07-10.38l3.79-15.93h5.58L27,87.3c.71,3.34,1.37,6.86,2.07,10.38h.22c.49-3.52,1-7,1.45-10.38l2.6-15.93h6.16l-6,32.61H25.39L21.73,87.87c-.53-2.55-1-5.06-1.4-7.57h-.18c-.44,2.51-.88,5-1.41,7.57L15.18,104h-8Z"/><path class="cls-2" d="M43.33,71.81a3.47,3.47,0,0,1,3.79-3.52,3.55,3.55,0,1,1,0,7.08A3.48,3.48,0,0,1,43.33,71.81Zm.53,7.52h6.47V104H43.86Z"/><path class="cls-2" d="M58.16,95.35V84.44H54.69v-4.8l3.82-.31.75-6.64h5.37v6.64H70.7v5.11H64.63V95.35c0,2.82,1.15,4.14,3.34,4.14A7.31,7.31,0,0,0,70.4,99l1,4.71a15.9,15.9,0,0,1-5.19.92C60.41,104.59,58.16,100.85,58.16,95.35Z"/><path class="cls-2" d="M75.72,68.86h6.47V77.7l-.31,4.63c2-1.85,4.4-3.61,7.74-3.61,5.33,0,7.62,3.69,7.62,9.9V104H90.77V89.41c0-3.83-1.06-5.15-3.48-5.15-2,0-3.3,1-5.1,2.77v17H75.72Z"/><path class="cls-2" d="M123.72,73H145.9c1.28,0,3.13,0,3.87-.09,0,1-.13,2.77-.13,4V99.75c0,1.54.09,3.87.18,5.19h-6.38c0-.7,0-1.45,0-2.28H123.41c-1.71,0-4.22.13-5.67.26V96.63c1.54.13,3.52.26,5.5.26h20.29V78.67H123.77c-1.85,0-4.23.09-5.46.18V72.73C119.94,72.91,122.23,73,123.72,73Z"/><path class="cls-2" d="M165.61,72.86h24.2c1.1,0,2.78,0,4.36-.08-.09,1.32-.09,2.94-.09,4.26V98.61c0,1.71.09,5.94.09,6.11H188.1c0-.08,0-1.1,0-2.37H166.93c0,1.23,0,2.24,0,2.37H160.9c0-.22.13-4,.13-6.16V77c0-1.23,0-3-.08-4.26C162.75,72.82,164.42,72.86,165.61,72.86Zm1.32,23.86h21.26V78.45H166.93Z"/><path class="cls-2" d="M219,69.17h7a34.37,34.37,0,0,0-.35,5.19v4.8h9.9c2,0,3.87-.18,4.8-.27v6c-.93,0-3.08-.18-4.84-.18h-9.91c-.26,8.85-3,16.06-12.54,21.74l-5.45-4c8.62-3.91,11.57-10.25,11.92-17.69H208.29c-1.94,0-3.7.13-5.06.22V78.85c1.32.13,3.12.31,4.88.31h11.45V74.32A21.74,21.74,0,0,0,219,69.17Z"/><path class="cls-2" d="M260,99.31H251.1v3.87h-4.84V69.39H260ZM251.1,74.05V81.8h4.05V74.05Zm4.05,20.6V86.37H251.1v8.28Zm26.23-10.3v3.78h4.22v4.54h-4.22v9.59c0,2.51-.49,3.83-2.2,4.62s-4.09.88-7.35.88a18,18,0,0,0-1.67-4.93c2.11.09,4.57.09,5.23.09s.93-.18.93-.79V92.67H260.87V88.13h15.45V84.35H260.78V79.77h10V75.9h-8.45V71.32h8.45V66.7h5.15v4.62h8.8V75.9h-8.8v3.87h10v4.58ZM266.81,93.2a30.37,30.37,0,0,1,5.33,7.21l-4.49,2.6a30.72,30.72,0,0,0-5-7.39Z"/><path class="cls-2" d="M305,68.68a70.73,70.73,0,0,1-4.09,8.1v30.94h-5.46V84.61a41.34,41.34,0,0,1-4.58,4.93,33.37,33.37,0,0,0-2.9-5.32,46.06,46.06,0,0,0,12-17.16ZM317,84.61c1.23,9.77,3.56,16.29,7.08,16.73,1,.08,1.54-2.12,1.89-7a18.18,18.18,0,0,0,4.27,3c-1.1,8.49-3.47,10.52-5.94,10.39-7.44-.71-10.91-9-12.5-22.4l-8.67,1.19-.74-5.06,8.89-1.19c-.31-4-.58-8.28-.71-12.9h5.33c.09,4.32.26,8.45.57,12.19L329,77.92l.75,4.93Zm7.87-7.79a38.06,38.06,0,0,0-6-7.39L322.78,67a39.51,39.51,0,0,1,6.34,7.09Z"/><path class="cls-2" d="M355.43,106.05l-3.3-5.24a33.44,33.44,0,0,0,4.09-.71c5.63-1.32,10-5.36,10-11.79,0-6.07-3.3-10.61-9.24-11.62a87.66,87.66,0,0,1-2.64,11.93C351.73,97.51,348,103,343.15,103s-8.93-5.36-8.93-12.8c0-10.17,8.8-18.84,20.2-18.84,10.91,0,17.78,7.57,17.78,17.17C372.2,97.77,366.52,104.33,355.43,106.05Zm-12.1-9.86c1.85,0,3.56-2.77,5.37-8.72A66.6,66.6,0,0,0,351,76.82c-7.26,1.5-11.18,7.93-11.18,12.77C339.85,94,341.61,96.19,343.33,96.19Z"/><path class="cls-2" d="M38.32,132.38v35.34H32.73v-2.16H11.83v2.2H6.51V132.38H17.77A48.45,48.45,0,0,0,19,126.62l6.34.7c-.66,1.76-1.37,3.48-2.07,5.06Zm-26.49,5v4.53h20.9V137.4Zm0,9.37v4.53h20.9v-4.53Zm20.9,13.95v-4.58H11.83v4.58Z"/><path class="cls-2" d="M53.81,147.3a34.79,34.79,0,0,0-8.32-4.62l2.86-4a36,36,0,0,1,8.54,4.18Zm-6.87,16.46a123.55,123.55,0,0,0,8.19-13.87L59,153.37c-2.24,4.58-5,9.59-7.57,13.86Zm9.38-28.17a33.13,33.13,0,0,0-8.19-4.79l2.86-4a35.22,35.22,0,0,1,8.45,4.45Zm1,5.68c1.28,0,2.73-.09,4.27-.18a90.47,90.47,0,0,0,5.19-14.43l6,1.28c-1.67,4.31-3.69,9-5.63,12.89,3.26-.18,6.73-.4,10.21-.62-1.19-1.71-2.47-3.43-3.7-4.93L78.32,133A60.55,60.55,0,0,1,87,145.8l-4.84,2.73a36.65,36.65,0,0,0-1.76-3.61c-8.1.62-16.46,1.19-22.44,1.63ZM61,149.45H83v18.18H77.7V166H66v1.81H61ZM66,154.3v6.9H77.7v-6.9Z"/><path class="cls-2" d="M102.91,128.38a75.16,75.16,0,0,1-3.52,8.49v30.85h-5V145.36c-.88,1.19-1.8,2.38-2.69,3.43a31.1,31.1,0,0,0-2.9-5.45,46.38,46.38,0,0,0,9.11-16.46Zm17.82,11.13c2.43,6.78,6.47,13.64,10.74,17.65a21.47,21.47,0,0,0-3.91,4,35.45,35.45,0,0,1-3.52-4.66v3.87h-5.9v7.09H113v-7.09h-5.76v-4a30.17,30.17,0,0,1-3.92,5,21,21,0,0,0-3.74-4c4.45-4,8.54-10.92,11-17.87H101.9v-5H113v-7.62h5.11v7.62h12.15v5ZM113,155.75V144.57a57.6,57.6,0,0,1-5.36,11.18Zm10.52,0a63.8,63.8,0,0,1-5.41-11.49v11.49Z"/><path class="cls-2" d="M152.41,133.08a111.75,111.75,0,0,0,12.46-1.27l-.05,5.1a129.56,129.56,0,0,1-14.34,1.1A30.52,30.52,0,0,1,148,142.5a14.84,14.84,0,0,1,5-.88c2.68,0,4.89,1.15,5.85,3.39,2.29-1.06,4.14-1.8,5.94-2.6s3.26-1.45,4.89-2.28l2.2,5.1c-1.41.4-3.74,1.28-5.24,1.85-2,.79-4.48,1.76-7.17,3,0,2.47.13,5.72.18,7.75H154.3c.14-1.32.18-3.44.23-5.37-3.31,1.89-5.07,3.61-5.07,5.81,0,2.42,2.07,3.08,6.39,3.08a71.72,71.72,0,0,0,12.49-1.24l-.17,5.68a109.28,109.28,0,0,1-12.46.75c-6.91,0-12-1.67-12-7.35S149,150,154,147.43a3.39,3.39,0,0,0-3.08-1.5,10.71,10.71,0,0,0-6.87,3,49.33,49.33,0,0,0-4.09,4.84l-4.71-3.52c4.62-4.27,7.75-8.18,9.73-12.15h-.58c-1.8,0-5-.08-7.43-.26v-5.15a57.52,57.52,0,0,0,7.74.53h2.11a23.61,23.61,0,0,0,.88-5.06l5.81.48A39.7,39.7,0,0,1,152.41,133.08Z"/><path class="cls-2" d="M186.34,142.9c0,7.08-.66,17.95-4.63,24.82a24,24,0,0,0-4.53-2.95c3.61-6.29,3.92-15.54,3.92-21.87V131.81h15.67v-5.06h5.45v5.06h15.89v5H186.34Zm-.8,19c1.85-3.35,2.78-8.45,3.22-13.34l4.7,1c-.48,5.06-1.27,10.87-3.25,14.39Zm19.63.39c1.32,0,1.58-1,1.76-7.08a13.84,13.84,0,0,0,4.62,2.11c-.48,7.53-1.8,9.64-5.9,9.64h-4.88c-4.66,0-5.76-1.54-5.76-6.43V145.19h5.19V160.5c0,1.58.17,1.8,1.41,1.8Zm.48-15.09a50.24,50.24,0,0,0-10.34-6.86l3.48-3.44c3.52,1.68,8.27,4.32,10.65,6.38Zm7.71.22c2.59,4.58,5.14,10.39,5.85,14.39l-5.15,2.11c-.57-3.91-2.86-10-5.37-14.7Z"/><path class="cls-2" d="M235.66,151.3c-1.45.44-2.9.88-4.36,1.28v9.68c0,2.42-.44,3.74-1.76,4.58s-3.21,1-6.07,1a19.25,19.25,0,0,0-1.32-4.85,35.86,35.86,0,0,0,3.61,0c.53,0,.75-.18.75-.75v-8.32l-4.4,1.32-.8-5.15c1.5-.3,3.26-.74,5.2-1.23v-9h-4.62V135h4.62v-8.27h4.79V135h4v4.84h-4v7.75l3.7-1Zm24.12.53a21.76,21.76,0,0,1-5.07,9.37,33.81,33.81,0,0,0,8.45,2.38,17.27,17.27,0,0,0-3.08,4.27,33.49,33.49,0,0,1-9.28-3.39,30.39,30.39,0,0,1-8.32,3.43,17.9,17.9,0,0,0-2.81-3.87,27.13,27.13,0,0,0,7.17-2.42,18.26,18.26,0,0,1-3.35-3.56,22.48,22.48,0,0,1-8.14,9.68,14.35,14.35,0,0,0-3.39-3.79c5.81-3.56,8.06-9.19,9.07-14.83h-5.28v-4.22h5.85c.05-.71.09-1.41.18-2.07h-5.2v-4.09h2.73a46.48,46.48,0,0,0-1.58-4.76l4-1.1c.66,1.63,1.58,3.74,2,5.06l-2.47.8h5.07a44.89,44.89,0,0,0-1-5.55l4.09-.7a45.68,45.68,0,0,1,1.19,5.32l-4.09.93H252a47.58,47.58,0,0,0,3.43-7.09,171.23,171.23,0,0,1-18.53,1.23,13.34,13.34,0,0,0-1.1-3.87c7.7-.26,16.73-.92,22.14-2.11l2.95,3.92c-1.68.3-3.48.57-5.46.83l4.84,1.41c-1.19,1.94-2.47,4-3.61,5.68h4.18v4.09H246.75c0,.7-.09,1.36-.18,2.07h15.54v4.22H246.05c-.14.57-.22,1.15-.36,1.72h10.43l.84-.13Zm-13.47,2.77a15.88,15.88,0,0,0,4.4,4.4,14.06,14.06,0,0,0,3.26-4.4Z"/><path class="cls-2" d="M282.26,160.5a3.87,3.87,0,1,1,3.87,3.87A3.71,3.71,0,0,1,282.26,160.5Zm.44-22.88-.22-6.56h7.3l-.22,6.56-1.19,15h-4.49Z"/><path class="cls-2" d="M19,259.89c1.33,2.29,3.68,3.24,7.16,3.38,4.06.17,12.14.07,16.81-.31a17.12,17.12,0,0,0-1.26,4c-4.19.2-11.42.27-15.58.1s-6.79-1.16-8.84-3.79c-1.57,1.33-3.17,2.66-5.08,4.1l-1.87-4.06a49.74,49.74,0,0,0,4.77-3.1v-7.44H10.73V249H19Zm-2-15.24a27.75,27.75,0,0,0-5.7-5.56L14,236.5A29.08,29.08,0,0,1,20,241.75Zm8.73,17.22H21.85V244.31h7.64c-1.54-.72-3.17-1.4-4.57-1.95l2.62-2.18c1.2.44,2.63,1,4,1.6a31.24,31.24,0,0,0,2.72-1.8H22.15v-3.07H37.81l.78-.21,2.42,2a38.33,38.33,0,0,1-6.07,4.6c.75.38,1.47.72,2.05,1.06h4.13v14.05c0,1.63-.31,2.49-1.4,3s-2.56.58-4.61.58a10.65,10.65,0,0,0-1-3.17c1.06,0,2.26,0,2.6,0s.51-.18.51-.52v-1.56h-4v5H29.59v-5H25.67Zm0-14.63v1.84h3.92v-1.84Zm3.92,6.58v-1.91H25.67v1.91Zm7.64-6.58h-4v1.84h4Zm0,6.58v-1.91h-4v1.91Z"/><path class="cls-2" d="M75.43,240.42v8.22H71.37v-4.71H50v4.71H46.14v-8.22h4.6a19.53,19.53,0,0,0-1.91-3l3.68-1.5A16.58,16.58,0,0,1,55,239.6l-1.84.82h5.42v-4.67h4.2v4.67h5.35l-1.91-.68A23,23,0,0,0,68.68,236l4.36,1.3c-1,1.19-1.94,2.25-2.79,3.1Zm-2,22c0,1.88-.37,2.86-1.74,3.48s-3.2.58-5.62.58a14.28,14.28,0,0,0-1.3-3.68c1.54.06,3.34.06,3.82.06s.68-.13.68-.51v-3.31H63.15v8.6H59v-8.6H52.55v7.06H48.42V255.46H59v-2.05h-7.3v-7.84H69.8v7.84H63.15v2.05h10.3Zm-17.9-11.9H65.68v-2.12H55.55Z"/><path class="cls-2" d="M87.17,261.63l2.36-3.17a8,8,0,0,0,5.62,2.59c2.56,0,4.3-1.23,4.3-3.34,0-2.39-1.47-3.85-7-3.85v-3.62c4.64,0,6.14-1.53,6.14-3.65,0-1.91-1.23-3-3.38-3a6.9,6.9,0,0,0-4.77,2.25l-2.56-3.07a11.26,11.26,0,0,1,7.57-3.14c4.88,0,8.19,2.39,8.19,6.62,0,2.66-1.57,4.5-4.2,5.56V252c2.83.75,5,2.83,5,6.07,0,4.5-4.06,7.12-8.87,7.12A10.75,10.75,0,0,1,87.17,261.63Z"/><path class="cls-2" d="M107.88,252.25c0-8.32,3.37-12.65,8.56-12.65S125,244,125,252.25s-3.34,12.89-8.52,12.89S107.88,260.61,107.88,252.25Zm12.34,0c0-6.82-1.6-8.73-3.78-8.73s-3.82,1.91-3.82,8.73,1.63,9,3.82,9S120.22,259.11,120.22,252.25Z"/><path class="cls-2" d="M149.32,242.09c-.07,1.81-.14,3.68-.31,5.53h15.31s0,1.29-.1,1.8c-.51,10.47-1.09,14.6-2.42,16.1a4.94,4.94,0,0,1-3.65,1.7,40.46,40.46,0,0,1-5.93,0,9.68,9.68,0,0,0-1.43-4c2.35.2,4.67.2,5.69.2a2.15,2.15,0,0,0,1.6-.44c.89-.85,1.44-4.19,1.81-11.49H148.53c-1.05,6.31-3.51,12.21-9.85,16a12.2,12.2,0,0,0-2.94-3.28c8.77-4.91,9-14,9.28-22.2h-7.94v-4h30v4Z"/><path class="cls-2" d="M200.69,262.86c0,2.22-.48,3.34-1.91,4s-3.41.75-6.45.75a16.34,16.34,0,0,0-1.46-4.06c1.94.14,4.16.1,4.84.1s.88-.23.88-.81v-8.26H176v13h-4.1V237.93h28.79ZM176,250.55h8V242h-8Zm20.59,0V242h-8.52v8.6Z"/><path class="cls-2" d="M221.84,266.27l-2.56-4.06a25.79,25.79,0,0,0,3.17-.54c4.37-1,7.78-4.16,7.78-9.14,0-4.71-2.56-8.22-7.16-9a69,69,0,0,1-2,9.24c-2.05,6.89-5,11.12-8.7,11.12s-6.92-4.16-6.92-9.92c0-7.88,6.82-14.6,15.65-14.6,8.46,0,13.78,5.87,13.78,13.3C234.83,259.86,230.43,264.94,221.84,266.27Zm-9.38-7.64c1.43,0,2.76-2.15,4.16-6.75a51.23,51.23,0,0,0,1.81-8.25,10.71,10.71,0,0,0-8.66,9.89C209.77,257,211.13,258.63,212.46,258.63Z"/><path class="cls-2" d="M252.85,246.93c2.79-1.63,5.76-3.1,7.36-4a20.74,20.74,0,0,0,3.17-2.08l2.36,3.95c-1,.62-2.12,1.2-3.38,1.85a99.61,99.61,0,0,0-9.51,5c-2.83,1.88-4.74,3.82-4.74,6.21s2.35,3.75,7.09,3.75a52.63,52.63,0,0,0,11.15-1.26l-.07,4.91a63.47,63.47,0,0,1-10.94.85c-6.79,0-11.94-1.87-11.94-7.74,0-3.75,2.39-6.58,5.66-9-1.57-2.9-3.2-6.55-4.74-10.16l4.26-1.74A80.59,80.59,0,0,0,252.85,246.93Z"/><path class="cls-2" d="M281.16,257.78c0,2.18,2.08,3.75,7,3.75a46.92,46.92,0,0,0,12-1.36l0,4.8a52.37,52.37,0,0,1-11.84,1.16c-7.81,0-11.73-2.62-11.73-7.29a22.39,22.39,0,0,1,.68-4.92l4.47.41A12.66,12.66,0,0,0,281.16,257.78Zm7-17.5c3.38,0,7.27-.2,9.89-.47v4.53c-2.38.21-6.61.41-9.85.41-3.58,0-6.55-.14-9.31-.37v-4.51A87.32,87.32,0,0,0,288.15,240.28Z"/><path class="cls-2" d="M315.72,239.06c1.84,0,9.44-.11,11.66-.24a17,17,0,0,0,2.45-.38l2.29,3c-.61.34-1.4.86-1.88,1.16-2,1.47-5.25,4.09-8.22,6.35a11.57,11.57,0,0,1,3.24-.45c6,0,10.1,3.55,10.1,8.32,0,6.76-5.9,10.71-18.52,9.69l-1.19-4.43c9.44,1.22,15-.79,15-5.29,0-2.7-2.49-4.71-6.38-4.71-5.29,0-9,3.38-12.65,7.1l-3.21-3.38c4.54-3.48,13-10.33,15.66-13.13-1.88.07-6.62.31-8.26.41-.85.07-2.08.17-2.83.31l-.07-4.47A25.24,25.24,0,0,0,315.72,239.06Z"/><path class="cls-2" d="M350.08,354.7a57.78,57.78,0,0,1-57.6,57.61H57.6A57.78,57.78,0,0,1,0,354.7H0a57.77,57.77,0,0,1,57.6-57.6H292.48a57.77,57.77,0,0,1,57.6,57.6Z"/><path class="cls-3" d="M74.88,349.37c3.51,2.65,10.59,8.73,12.53,10.24l-4.94,7.3c-1.72-2.22-4.73-5.44-7.59-8.38v24.7H66.64V357.6c-3.22,6.52-7,12.67-11,16.83a48,48,0,0,0-4.3-8.31c5.16-5,10.39-13.17,13.61-20.62H53v-7.8h13.6v-8.88c-4.08.79-8.16,1.43-12,1.93a26.94,26.94,0,0,0-2.44-6.66c10.31-1.5,21.84-4.22,28.78-7.37l6,6.59A93.14,93.14,0,0,1,74.88,327V337.7H87.19v7.8H74.88Zm24,15.82h-8.3v-40h8.3Zm17-47.32V373c0,4.94-1,7.31-3.94,8.67s-7.73,1.71-14.24,1.64a32.68,32.68,0,0,0-2.94-8.8c4.65.21,9.24.21,10.74.21s1.93-.5,1.93-1.79V317.87Z"/><path class="cls-3" d="M185.63,373.28c0,4.58-1,6.87-3.86,8.16s-7.31,1.58-13.75,1.5a32.1,32.1,0,0,0-2.72-8.16c4,.22,8.74.15,10,.15s1.87-.43,1.87-1.72V362.47H162.08v20h-8.59v-20H138.88c-1.29,7.8-3.86,15.68-9,21.26a31.34,31.34,0,0,0-6.73-5.51c7.81-8.59,8.45-21.34,8.45-31.36V321.3h54Zm-32.14-18.83v-8.81H140v1.29c0,2.29-.07,4.87-.22,7.52ZM140,329.39v8.31h13.46v-8.31Zm37.16,0H162.08v8.31h15.11Zm0,25.06v-8.81H162.08v8.81Z"/><path class="cls-3" d="M219.57,367.34a96.05,96.05,0,0,0-5.16-9.31v25.13h-7.87V357.89c-2.29,6.66-5.16,13.31-8.23,17.61a51,51,0,0,0-3.87-8.81c3.58-4.36,7.23-12,9.45-18.54h-8.16V340.2h10.81V316.79h7.87V340.2H225v7.95h-10.6v.5c2.08,2.08,8.88,10.1,10.38,12.1Zm-20.69-28.43a70.94,70.94,0,0,0-3.22-16.53l5.94-1.58a72,72,0,0,1,3.65,16.4ZM226.3,322c-1.86,5.73-3.94,12.53-5.73,16.68l-5.37-1.5a134.1,134.1,0,0,0,3.94-16.76Zm27.78,42V383.3h-8V365.4l-20,3.58L224.79,361l21.27-3.8V316.43h8v39.38l7.3-1.36,1.29,7.95Zm-24.49-26c4.15,2.22,9.45,5.66,12,8.24l-4.3,6.8c-2.36-2.65-7.58-6.44-11.74-8.95ZM240,335.41c-2.22-2.8-7.16-6.66-11.09-9.31l4.08-5.73c4,2.36,9.09,6,11.38,8.66Z"/><path class="cls-2" d="M389.45,321c0-60.76,27.73-91.38,69.45-91.38s69.44,30.62,69.44,91.38c0,61.25-27.73,93.56-69.44,93.56S389.45,382.2,389.45,321Zm105.13,0c0-49.91-16.15-63.65-35.68-63.65S423.21,271,423.21,321s16.16,65.83,35.69,65.83S494.58,370.87,494.58,321Z"/><path class="cls-2" d="M738.27,387.26c0,13.33-2.88,20.1-11.49,24-8.2,4.1-20.51,4.51-38.76,4.51a100.38,100.38,0,0,0-8.82-24.41c11.69.82,25,.62,29.12.62,3.9-.21,5.33-1.44,5.33-4.93V337.42H589.77v78.35H565.16V237.32H738.27Zm-148.5-74.05h48.4V261.53h-48.4Zm123.88,0V261.53H662.38v51.68Z"/><polyline class="cls-4" points="287.53 336.49 305.74 354.7 287.53 372.92"/><line class="cls-4" x1="5.21" y1="252.78" x2="344.87" y2="252.78"/><line class="cls-5" x1="5.21" y1="250.7" x2="344.87" y2="250.7"/><ellipse class="cls-6" cx="680.03" cy="100.44" rx="155.23" ry="100.44"/><path class="cls-6" d="M566.81,132.13c-7.74,32.8-26,45.84-42.44,49.36,29.22,1.57,72.89-8.68,93.06-43.67Z"/><path class="cls-3" d="M623.11,49.88V85.07h-5.57V82.93H596.73v2.19h-5.31V49.88h11.22a47.66,47.66,0,0,0,1.18-5.74l6.31.7c-.65,1.76-1.35,3.47-2,5Zm-26.38,5v4.51h20.81V54.88Zm0,9.33v4.52h20.81V64.21Zm20.81,13.9V73.55H596.73v4.56Z"/><path class="cls-3" d="M638.54,64.74a35,35,0,0,0-8.28-4.6l2.84-4a35.88,35.88,0,0,1,8.51,4.16ZM631.7,81.13a124.11,124.11,0,0,0,8.15-13.8l3.9,3.46c-2.23,4.55-5,9.55-7.53,13.8Zm9.34-28a33.31,33.31,0,0,0-8.15-4.77l2.84-4a35.15,35.15,0,0,1,8.42,4.42Zm1.05,5.66c1.27-.05,2.72-.09,4.25-.18a90.71,90.71,0,0,0,5.17-14.37l6,1.27c-1.66,4.29-3.68,9-5.61,12.84,3.25-.18,6.71-.4,10.17-.62-1.18-1.71-2.45-3.41-3.68-4.9L663,50.45a60.28,60.28,0,0,1,8.67,12.8L666.8,66a35.28,35.28,0,0,0-1.75-3.6C657,63,648.66,63.56,642.7,64Zm3.59,8.15h22V85h-5.31V83.36H650.72v1.8h-5Zm5,4.82v6.88h11.61V71.71Z"/><path class="cls-3" d="M687.45,45.9a77.44,77.44,0,0,1-3.5,8.45V85.07h-5V62.81c-.87,1.18-1.79,2.37-2.67,3.42a31.19,31.19,0,0,0-2.89-5.43,46.23,46.23,0,0,0,9.07-16.39ZM705.2,57c2.41,6.75,6.44,13.59,10.69,17.58a21.36,21.36,0,0,0-3.9,4,37.1,37.1,0,0,1-3.5-4.65V77.8h-5.88v7h-5.08v-7h-5.74v-4a30.79,30.79,0,0,1-3.9,5,20.85,20.85,0,0,0-3.73-3.94c4.43-4,8.51-10.87,10.92-17.8h-8.64V52h11.09V44.45h5.08V52h12.1V57Zm-7.67,16.17V62a57.11,57.11,0,0,1-5.35,11.13Zm10.47,0a63.83,63.83,0,0,1-5.39-11.43V73.15Z"/><path class="cls-3" d="M730.44,57.91l3.94-.46A33.57,33.57,0,0,0,735.61,62a44.68,44.68,0,0,0,6-1.34l.47,3.68a38.31,38.31,0,0,1-5.21,1,32.82,32.82,0,0,0,2.6,4.77,19.09,19.09,0,0,0,1.58,2l-1.81,2.63c-1.64-.32-5.32-.7-7.77-.9l.29-3.1c1.43.12,3.36.29,4.27.35a38,38,0,0,1-2.75-5.29,78.54,78.54,0,0,1-12.48-.11L720.73,62a61.15,61.15,0,0,0,11.22.4c-.23-.67-.4-1.28-.58-1.78C731.14,59.93,730.82,58.88,730.44,57.91Zm-5.29,18c0,2.46,2.19,3.51,6.19,3.51a40.21,40.21,0,0,0,7.83-.7l-.2,3.68a41.45,41.45,0,0,1-7.86.7c-6,0-9.73-2.34-9.73-6.54a11.89,11.89,0,0,1,1.55-5.44l3.65.85A7,7,0,0,0,725.15,75.88Z"/><path class="cls-3" d="M763,59.78c0,.3,0,.73,0,1.2a61.6,61.6,0,0,0,7.39-.79l0,3.36c-1.93.24-4.59.5-7.42.65v3c2.95-.15,5.43-.38,7.8-.71l0,3.45c-2.63.29-4.91.5-7.71.59.05,1.11.11,2.31.2,3.47a22.85,22.85,0,0,1,8.18,4.42l-2.1,3.27a22.52,22.52,0,0,0-5.9-4.06c0,.41,0,.76,0,1.08,0,2.48-1.89,4.41-5.75,4.41-4.68,0-7.13-1.78-7.13-4.88s2.72-5,7.22-5a18,18,0,0,1,1.81.08c-.06-.9-.09-1.84-.12-2.71h-1.52c-1.69,0-5-.15-6.95-.38l0-3.45a51.65,51.65,0,0,0,7,.55h1.4c0-1,0-2,0-3h-1.08a68,68,0,0,1-7.16-.52l-.09-3.33a54.8,54.8,0,0,0,7.22.64h1.14V59.73a12.42,12.42,0,0,0-.17-2h3.94A19,19,0,0,0,763,59.78Zm-5.9,20c1.55,0,2.57-.44,2.57-2.13,0-.33,0-.73,0-1.26a15.62,15.62,0,0,0-2.39-.21c-2.08,0-3.22.82-3.22,1.82S755.13,79.83,757.14,79.83Z"/><path class="cls-3" d="M588.43,108.22c-1.23,3.81-2.72,8.63-4.08,12a13.06,13.06,0,0,1,3.38,8.94c0,2.89-.62,4.73-2,5.7a5.66,5.66,0,0,1-2.59,1,22.32,22.32,0,0,1-3,.08,11.38,11.38,0,0,0-1.18-4.64c.83,0,1.49,0,2.06,0a2.21,2.21,0,0,0,1.27-.39,3,3,0,0,0,.79-2.46,11.51,11.51,0,0,0-3.25-7.71c.92-2.8,1.93-6.75,2.72-9.81h-3.86v34.4h-4.86V106.38h10.34l.75-.22ZM612.09,130a75.48,75.48,0,0,1-5.92,5.13,16.66,16.66,0,0,0,6.88,5.74,18.54,18.54,0,0,0-3.37,4.43c-6.44-3.42-9.86-10-11.83-18.5h-3.16v11.31c2.06-.35,4.21-.75,6.31-1.14l.4,4.56c-5,1.18-10.43,2.28-14.55,3.2l-1.71-5c1.31-.18,2.85-.44,4.56-.71V106.42H610V126.8h-7.62a29.73,29.73,0,0,0,1.66,4.65,39.33,39.33,0,0,0,3.95-4.34Zm-17.4-19.06v3.46h10.17v-3.46Zm0,11.39h10.17v-3.68H594.69Z"/><path class="cls-3" d="M638.87,139.51a44.32,44.32,0,0,0,5,.26c2.37,0,9.6,0,12.53-.13a19.57,19.57,0,0,0-1.84,5.3H643.61c-8.07,0-14.07-1.31-18.1-7.53a22,22,0,0,1-5.83,8.28,32.12,32.12,0,0,0-4.3-3.55c4.74-3.51,6.88-9.55,7.67-17l5.44.53c-.27,2-.57,3.81-1,5.56a11.82,11.82,0,0,0,6,6.88V122.59h-9.33v-5h24.1v5h-9.38v5.48h12V133h-12Zm-16.26-19.63h-5.12v-11h15.9v-4.38h5.53v4.38h16v11h-5.39v-6h-27Z"/><path class="cls-3" d="M695.89,104.23a5.24,5.24,0,0,1,0,10.48,2.24,2.24,0,0,1-.57,0c-.13.48-.22.92-.35,1.32-1,4.29-2.89,11.08-6.57,16a35.22,35.22,0,0,1-17.62,12.14L666,138.81c8.67-2,13.62-5.83,17.17-10.3a27.48,27.48,0,0,0,5.13-12.36H667.93c-2,0-4.12.09-5.21.18v-6.18a50.22,50.22,0,0,0,5.21.35h20.29a17.6,17.6,0,0,0,2.5-.18,5.14,5.14,0,0,1-.09-.83A5.28,5.28,0,0,1,695.89,104.23Zm0,7.76a2.52,2.52,0,1,0-2.54-2.5A2.53,2.53,0,0,0,695.89,112Z"/><path class="cls-3" d="M740.73,122.55a31.56,31.56,0,0,1-6.49,12.14,32.78,32.78,0,0,1-15.64,9.47l-4.34-5c6.57-1.35,11.83-4.25,15.16-7.67a19,19,0,0,0,4.52-7.58H712.77c-1,0-3.24,0-5.08.22v-5.69c1.84.13,3.72.26,5.08.26h21.69a9.27,9.27,0,0,0,3.2-.44l3.9,2.41A18.73,18.73,0,0,0,740.73,122.55Zm-24.45-14.33h16.87a40.23,40.23,0,0,0,4.73-.22v5.65c-1.18-.08-3.24-.13-4.82-.13H716.28c-1.41,0-3.29,0-4.56.13V108A36.1,36.1,0,0,0,716.28,108.22Z"/><path class="cls-3" d="M767.64,131.75a41.2,41.2,0,0,0,16-17l3.42,6.18A46.66,46.66,0,0,1,770.8,137.1a47.52,47.52,0,0,1-16.26,6.18l-3.68-5.79A44.9,44.9,0,0,0,767.64,131.75Zm0-14.15-4.47,4.56a91,91,0,0,0-10.95-9.47l4.12-4.38A89.15,89.15,0,0,1,767.64,117.6Z"/></g></g></svg>