<svg xmlns="http://www.w3.org/2000/svg" viewBox="0 0 558.13 276.8"><defs><style>.cls-1{fill:#3c3c3c;}.cls-2{fill:#141f42;}.cls-3{fill:#fff;}.cls-4,.cls-5,.cls-6{fill:none;stroke-miterlimit:10;}.cls-4,.cls-5{stroke:#fff;}.cls-4{stroke-width:2px;}.cls-6{stroke:#141f42;}.cls-7{fill:#00be96;}</style></defs><g id="レイヤー_2" data-name="レイヤー 2"><g id="レイヤー_7" data-name="レイヤー 7"><path class="cls-1" d="M127.34,266.13l.38.37-4.29,4.29,4.29,4.29-.38.38-4.29-4.29-4.3,4.31-.38-.38,4.31-4.31-4.29-4.29.37-.37,4.29,4.29Zm-8,5.64a1,1,0,1,1,1-1A1,1,0,0,1,119.35,271.77Zm2.73-4.68a1,1,0,1,1,1,1A1,1,0,0,1,122.08,267.09Zm2,7.41a1,1,0,1,1-2,0,1,1,0,0,1,2,0Zm2.73-4.68a1,1,0,0,1,0,1.95,1,1,0,1,1,0-1.95Z"/><path class="cls-1" d="M134.6,273.27c-.29-.41-.95-1.21-1.47-1.81v5.26h-.95v-4.81a12.48,12.48,0,0,1-1.7,1.6,4.09,4.09,0,0,0-.54-.83,12.91,12.91,0,0,0,3.81-4.56h-3.44v-.89h1.87v-2.36h.95v2.36h1.1l.17-.05.55.38a14.1,14.1,0,0,1-1.68,3l.48.48a11.8,11.8,0,0,0,1-1.39l.63.52c-.4.46-.81,1-1.17,1.33.42.43.84.85,1,1Zm7.12-6.69c-.15,6.59-.28,8.78-.78,9.43a1.21,1.21,0,0,1-1,.57,14,14,0,0,1-1.84,0,2.71,2.71,0,0,0-.31-1c.76.07,1.46.07,1.75.07a.54.54,0,0,0,.51-.22c.39-.46.56-2.62.69-8.48h-2.63c-.1,3.67-.42,7.67-3.39,9.78A3.66,3.66,0,0,0,134,276c2.87-1.9,3.08-5.66,3.14-9.05h-2.19v-.91h6.78Z"/><path class="cls-1" d="M149.44,273.59H143.1v-.87h1.26v-5.28h-1.09v-.87h1.09V265h.88v1.56h2.36V265h.89v1.56h.95v.87h-.95v5.28h.95Zm-3.62.52a8.63,8.63,0,0,1-1.93,2.63,5.19,5.19,0,0,0-.78-.56,6.77,6.77,0,0,0,1.78-2.32Zm-.58-6.67v1.14h2.36v-1.14Zm0,3.2h2.36v-1.27h-2.36Zm0,2.08h2.36v-1.3h-2.36Zm2.25,1.14a9.76,9.76,0,0,1,1.37,1.93l-.78.45a10.44,10.44,0,0,0-1.34-2Zm7.09,1.63c0,.57-.14.86-.5,1a5.61,5.61,0,0,1-1.93.18,3.88,3.88,0,0,0-.3-.93h1.52c.19,0,.27-.07.27-.27v-3.13H150.9a10.2,10.2,0,0,1-1.24,4.45,2.46,2.46,0,0,0-.76-.56c1.08-1.71,1.18-4.18,1.18-6v-4.7h4.5Zm-.94-4v-2.15H151v.87c0,.4,0,.84,0,1.28ZM151,266.39v2.07h2.65v-2.07Z"/><path class="cls-1" d="M161,275.32a18.2,18.2,0,0,1-4,1.44,6,6,0,0,0-.71-.71,17.53,17.53,0,0,0,3.84-1.12ZM158,270.69c-.36.09-.73.18-1.16.27a3,3,0,0,0-.46-.74,6.08,6.08,0,0,0,3.21-1.28h-1.76l-.07.16-.9-.05a17.54,17.54,0,0,0,.77-2.09h2.59v-.74H157v-.64h3.17v-.71h.88v.71h2v-.71H164v.71h2.89v2H164v.7h3.72s0,.19,0,.31c-.09.79-.17,1.17-.38,1.38a.86.86,0,0,1-.62.23h-.32v4.58H158Zm.07-2.39H160a1.72,1.72,0,0,0,.17-.7h-1.87Zm7.36,2.26h-6.5v.81h6.5Zm0,1.4h-6.5v.8h6.5Zm0,1.41h-6.5v.81h6.5ZM164,268.94v1h-.91v-1h-2.37a2.81,2.81,0,0,1-1,1h5.77a2.77,2.77,0,0,0-.14-.38c.4,0,.77,0,.9,0a.46.46,0,0,0,.31-.07,1.42,1.42,0,0,0,.17-.59Zm-.91-1.34h-2a3.94,3.94,0,0,1-.1.7h2.11Zm-2-.64h2v-.74h-2Zm2.82,8c1.43.39,3,.92,4,1.3l-1,.51a31.56,31.56,0,0,0-3.71-1.3Zm.09-8.71V267h2v-.74Z"/><path class="cls-1" d="M180.05,275.42c0,.63-.17.91-.59,1.08a8.42,8.42,0,0,1-2.42.16,3.87,3.87,0,0,0-.32-.94c.91,0,1.79,0,2,0s.35-.09.35-.34v-2.64h-3.5v3.84h-1v-3.84h-3.25a7.49,7.49,0,0,1-1.63,4,3.25,3.25,0,0,0-.74-.64c1.43-1.61,1.56-3.9,1.56-5.7v-4.68h9.47Zm-5.41-3.57v-2.16h-3.11v.77c0,.43,0,.91-.05,1.39Zm-3.11-5.15v2.08h3.11V266.7Zm7.57,0h-3.5v2.08h3.5Zm0,5.15v-2.16h-3.5v2.16Z"/><path class="cls-1" d="M186,274.75h2.12v-6.84h-1.69v-.77a5.47,5.47,0,0,0,2-.67h.91v8.28h1.91v1H186Z"/><path class="cls-1" d="M192.38,274.64l.59-.78a3.11,3.11,0,0,0,2.34,1.06,2,2,0,0,0,2-2.11,1.87,1.87,0,0,0-2-2.05,2.58,2.58,0,0,0-1.59.57l-.63-.41.3-4.45h4.64v1h-3.6l-.24,2.77a2.84,2.84,0,0,1,1.42-.39,2.67,2.67,0,0,1,2.87,2.91,3,3,0,0,1-3.12,3.13A4,4,0,0,1,192.38,274.64Z"/><path class="cls-1" d="M199.87,271.07c0-3.11,1.13-4.77,3-4.77s3,1.67,3,4.77-1.12,4.83-3,4.83S199.87,274.18,199.87,271.07Zm4.78,0c0-2.72-.72-3.82-1.8-3.82s-1.82,1.1-1.82,3.82.73,3.89,1.82,3.89S204.65,273.79,204.65,271.07Z"/><path class="cls-1" d="M215.05,266.78c0,.86-.06,1.75-.15,2.65h5.77s0,.34,0,.47c-.24,4.18-.44,5.73-.95,6.28a1.5,1.5,0,0,1-1.11.47,19.26,19.26,0,0,1-2.29-.06,2,2,0,0,0-.33-.95,20.5,20.5,0,0,0,2.26.11.8.8,0,0,0,.61-.17c.39-.35.61-1.78.79-5.21h-4.86c-.38,2.54-1.34,5-3.9,6.39a2.62,2.62,0,0,0-.7-.75c3.6-1.91,3.78-5.92,3.86-9.23h-3.5v-.94h11.31v.94Z"/><path class="cls-1" d="M228.29,266.43c0,.33-.11.79-.18,1.34a18.33,18.33,0,0,0,2.63-.17l0,1a25.81,25.81,0,0,1-2.64.12H228c-.09.77-.2,1.58-.29,2.35H228a19.1,19.1,0,0,0,2.7-.17l0,1a23.92,23.92,0,0,1-2.55.13h-.47c-.05.52-.08,1-.08,1.29a1.91,1.91,0,0,0,2.19,2c2,0,3.24-.87,3.24-2.21a3.6,3.6,0,0,0-1.42-2.65l1.14-.24a4.27,4.27,0,0,1,1.33,3c0,1.93-1.72,3.1-4.29,3.1-1.77,0-3.19-.76-3.19-2.9a14.25,14.25,0,0,1,.11-1.49,12.72,12.72,0,0,1-2.72-.47l.05-1a11.7,11.7,0,0,0,2.77.53c.08-.76.18-1.58.29-2.35a18,18,0,0,1-2.8-.46l.05-.94a13.25,13.25,0,0,0,2.85.48c.07-.52.12-1,.14-1.37a4.94,4.94,0,0,0,0-.92l1.17.08A7.48,7.48,0,0,0,228.29,266.43Z"/><path class="cls-1" d="M243.63,266.74c-.29.48-.6.95-.93,1.43v8.53h-1v-7.23a16.84,16.84,0,0,1-4.71,3.78,5.73,5.73,0,0,0-.65-.84,15.09,15.09,0,0,0,6.07-5.67h-5.74v-1h11.1v1Zm.05,2.17a29.13,29.13,0,0,1,4.43,3.42l-.76.74a29.82,29.82,0,0,0-4.38-3.54Z"/><path class="cls-1" d="M258.5,272.72a5.38,5.38,0,0,1-1.64,2.07,39.76,39.76,0,0,1,3.81,1.18l-.58.78a36.23,36.23,0,0,0-4.2-1.35,16,16,0,0,1-6,1.31,2.58,2.58,0,0,0-.36-.83,18,18,0,0,0,5-.82q-1.15-.27-2.34-.51l-.27.35-.91-.31c.4-.51.88-1.18,1.37-1.87h-3v-.81h3.59c.28-.41.55-.82.78-1.19h-3.42v-3.34h2.88v-1.1h-3.51v-.85h11.1v.85H257.1v1.1h3.1v3.34h-5.8l.36.09c-.23.35-.47.73-.73,1.1h7v.81Zm-7.31-2.8h2v-1.75h-2Zm2.29,2.8c-.27.39-.54.78-.8,1.13,1,.19,2,.42,3,.65a4.61,4.61,0,0,0,1.73-1.78Zm.6-5.34h2.09v-1.1h-2.09Zm2.09,2.54v-1.75h-2.09v1.75Zm.93-1.75v1.75h2.15v-1.75Z"/><path class="cls-1" d="M263.88,267.12c.85-.1,3.3-.34,5.7-.54,1.41-.11,2.64-.19,3.51-.23v1a10.63,10.63,0,0,0-2.55.21,4.56,4.56,0,0,0-3,4.12c0,2.53,2.37,3.34,4.49,3.42l-.38,1.08c-2.41-.1-5.15-1.38-5.15-4.28a5.31,5.31,0,0,1,2.43-4.4c-1.39.16-4.7.47-6.11.77l-.11-1.13C263.22,267.17,263.64,267.14,263.88,267.12Zm8.4,3.67-.66.32a12.29,12.29,0,0,0-1.07-1.84l.66-.28A15,15,0,0,1,272.28,270.79Zm1.48-.55-.67.32a12.22,12.22,0,0,0-1.1-1.82l.64-.3A17.05,17.05,0,0,1,273.76,270.24Z"/><path class="cls-1" d="M282.78,266.26c0,.19,0,.49,0,.84h.2l3.8,0v1c-.73,0-1.91-.07-3.81-.07h-.18c0,.74,0,1.55,0,2.15a3.17,3.17,0,0,1,.41,1.66c0,1.76-.85,3.71-3.88,4.62l-.88-.86c1.73-.39,2.93-1.12,3.45-2.3a1.85,1.85,0,0,1-1.13.35,2.07,2.07,0,0,1-2.13-2.17,2.26,2.26,0,0,1,2.29-2.26,2.65,2.65,0,0,1,.87.14c0-.39,0-.86,0-1.31-2,0-4.18.1-5.81.22l0-1c1.44,0,3.88-.11,5.82-.13,0-.37,0-.68,0-.86,0-.34-.06-.72-.07-.82h1.18C282.82,265.58,282.8,266.09,282.78,266.26Zm-1.84,6.47c.76,0,1.26-.61,1.14-1.84a1.16,1.16,0,0,0-1.15-.82,1.33,1.33,0,0,0-1.32,1.38A1.25,1.25,0,0,0,280.94,272.73Z"/><path class="cls-2" d="M17.23,88.43h3.6l1.42,8.69c.26,1.87.55,3.75.81,5.67h.1c.36-1.92.75-3.82,1.13-5.67l2.06-8.69h3l2,8.69c.39,1.83.75,3.75,1.13,5.67h.12c.27-1.92.53-3.82.79-5.67l1.42-8.69h3.36L35,106.22H30.56l-2-8.79c-.29-1.39-.55-2.76-.77-4.13H27.7c-.24,1.37-.48,2.74-.77,4.13L25,106.22H20.64Z"/><path class="cls-2" d="M40.35,88.67a2.05,2.05,0,1,1,2.06,2A1.89,1.89,0,0,1,40.35,88.67Zm.28,4.11h3.53v13.44H40.63Z"/><path class="cls-2" d="M48.43,101.51v-6H46.54V92.94l2.09-.16.4-3.63H52v3.63h3.31v2.78H52v6c0,1.54.63,2.26,1.83,2.26a3.8,3.8,0,0,0,1.32-.29l.57,2.57a8.66,8.66,0,0,1-2.83.5C49.66,106.55,48.43,104.51,48.43,101.51Z"/><path class="cls-2" d="M58,87.06h3.53v4.83l-.17,2.52a6.11,6.11,0,0,1,4.22-2c2.91,0,4.16,2,4.16,5.4v8.38H66.22v-8c0-2.08-.58-2.81-1.9-2.81-1.1,0-1.8.53-2.78,1.52v9.24H58Z"/><path class="cls-2" d="M84.19,89.32h12.1c.7,0,1.7,0,2.11,0,0,.55-.07,1.51-.07,2.21v12.43c0,.84,0,2.12.1,2.84H95c0-.39,0-.8,0-1.25H84c-.94,0-2.31.07-3.1.14v-3.43c.84.07,1.92.14,3,.14H95V92.42H84.22c-1,0-2.31,0-3,.09V89.18C82.13,89.27,83.38,89.32,84.19,89.32Z"/><path class="cls-2" d="M107,89.25h13.2c.6,0,1.52,0,2.38,0-.05.72-.05,1.61-.05,2.33v11.76c0,.94.05,3.24.05,3.34h-3.31s0-.6,0-1.3H107.76c0,.67,0,1.22,0,1.3h-3.32c0-.12.08-2.21.08-3.36V91.53c0-.67,0-1.66,0-2.33C105.48,89.22,106.4,89.25,107,89.25Zm.72,13h11.6v-10h-11.6Z"/><path class="cls-2" d="M136.15,87.23H140a19.13,19.13,0,0,0-.19,2.83v2.62h5.4c1.1,0,2.11-.1,2.62-.14V95.8c-.51,0-1.68-.09-2.65-.09h-5.4c-.14,4.82-1.65,8.76-6.84,11.85l-3-2.21a10.24,10.24,0,0,0,6.5-9.64h-6.12c-1,0-2,.07-2.76.11V92.51c.72.07,1.71.17,2.67.17h6.24V90A11.81,11.81,0,0,0,136.15,87.23Z"/><path class="cls-2" d="M158.55,103.67h-4.88v2.12H151V87.35h7.52ZM153.67,89.9v4.22h2.21V89.9Zm2.21,11.23V96.62h-2.21v4.51Zm14.31-5.62v2.07h2.3v2.47h-2.3v5.23c0,1.37-.27,2.09-1.2,2.52a10.63,10.63,0,0,1-4,.48,9.94,9.94,0,0,0-.91-2.69c1.15,0,2.49,0,2.85,0s.51-.09.51-.43v-5.16H159V97.58h8.43V95.51H159V93h5.43V90.9h-4.61V88.41h4.61V85.89h2.81v2.52H172V90.9h-4.8V93h5.47v2.49Zm-7.95,4.83a16.57,16.57,0,0,1,2.91,3.93l-2.45,1.42a16.84,16.84,0,0,0-2.74-4Z"/><path class="cls-2" d="M183.05,87a38,38,0,0,1-2.23,4.41v16.88h-3V95.66a22.44,22.44,0,0,1-2.49,2.69,18.26,18.26,0,0,0-1.59-2.91,25.15,25.15,0,0,0,6.55-9.36Zm6.58,8.69c.67,5.33,1.94,8.88,3.86,9.12.55,0,.84-1.15,1-3.82a9.43,9.43,0,0,0,2.33,1.63c-.6,4.64-1.89,5.74-3.24,5.67-4.05-.39-6-4.9-6.81-12.22l-4.73.65-.41-2.76,4.85-.65c-.17-2.16-.32-4.51-.39-7H189c0,2.35.14,4.61.31,6.65l6.84-.89.41,2.69Zm4.29-4.25a20.46,20.46,0,0,0-3.28-4l2.13-1.32a21.79,21.79,0,0,1,3.46,3.86Z"/><path class="cls-2" d="M210.58,107.35l-1.8-2.86a20.4,20.4,0,0,0,2.23-.38c3.07-.72,5.47-2.93,5.47-6.44,0-3.31-1.8-5.78-5-6.33a47.11,47.11,0,0,1-1.44,6.5c-1.44,4.85-3.5,7.83-6.12,7.83s-4.87-2.93-4.87-7c0-5.54,4.8-10.27,11-10.27,5.95,0,9.69,4.13,9.69,9.36C219.72,102.83,216.63,106.41,210.58,107.35ZM204,102c1,0,1.94-1.51,2.93-4.75a37.08,37.08,0,0,0,1.27-5.81,7.55,7.55,0,0,0-6.1,7C202.08,100.79,203,102,204,102Z"/><path class="cls-2" d="M242.31,89v19.28h-3.05v-1.18h-11.4v1.2H225V89h6.15a27.9,27.9,0,0,0,.65-3.14l3.45.38c-.36,1-.74,1.9-1.13,2.76Zm-14.45,2.74v2.47h11.4V91.72Zm0,5.11v2.48h11.4V96.83Zm11.4,7.61V102h-11.4v2.49Z"/><path class="cls-2" d="M250.75,97.12a18.63,18.63,0,0,0-4.53-2.52l1.56-2.18a19,19,0,0,1,4.65,2.28Zm-3.74,9a69.2,69.2,0,0,0,4.47-7.56l2.13,1.89c-1.22,2.5-2.71,5.24-4.13,7.56Zm5.11-15.36a18.1,18.1,0,0,0-4.46-2.62l1.56-2.18a19.17,19.17,0,0,1,4.61,2.42Zm.58,3.09,2.33-.09a51.34,51.34,0,0,0,2.83-7.88l3.29.7c-.92,2.35-2,4.92-3.08,7,1.78-.09,3.68-.21,5.57-.33-.65-.94-1.34-1.88-2-2.69l2.49-1.27a33,33,0,0,1,4.76,7l-2.65,1.49c-.24-.57-.57-1.27-1-2-4.42.34-9,.65-12.25.89Zm2,4.47h12v9.91h-2.9v-.89h-6.36v1h-2.76Zm2.76,2.64v3.77h6.36v-3.77Z"/><path class="cls-2" d="M277.54,86.8a42.37,42.37,0,0,1-1.92,4.63v16.83h-2.71V96.06c-.48.65-1,1.3-1.47,1.88a16.57,16.57,0,0,0-1.58-3,25.3,25.3,0,0,0,5-9Zm9.72,6.07a26,26,0,0,0,5.86,9.63,11.25,11.25,0,0,0-2.14,2.21,20.44,20.44,0,0,1-1.92-2.55v2.11h-3.22v3.87h-2.78v-3.87h-3.15v-2.2a16.58,16.58,0,0,1-2.13,2.71,11.63,11.63,0,0,0-2-2.16,24.56,24.56,0,0,0,6-9.75H277V90.16h6.07V86h2.78v4.15h6.63v2.71Zm-4.2,8.86v-6.1a31.06,31.06,0,0,1-2.93,6.1Zm5.74,0a35.25,35.25,0,0,1-3-6.27v6.27Z"/><path class="cls-2" d="M304.54,89.37a60.66,60.66,0,0,0,6.79-.7l0,2.79a75.3,75.3,0,0,1-7.83.6,17,17,0,0,1-1.37,2.44,8.38,8.38,0,0,1,2.72-.48A3.26,3.26,0,0,1,308,95.87c1.25-.57,2.26-1,3.24-1.41s1.78-.8,2.66-1.25l1.2,2.78c-.76.22-2,.7-2.85,1-1.08.43-2.45,1-3.92,1.63,0,1.35.08,3.12.1,4.23h-2.88c.07-.72.1-1.87.12-2.93-1.8,1-2.76,2-2.76,3.17s1.13,1.68,3.48,1.68a40.08,40.08,0,0,0,6.82-.67l-.1,3.09a59.07,59.07,0,0,1-6.79.41c-3.77,0-6.55-.91-6.55-4s2.88-5,5.61-6.41a1.83,1.83,0,0,0-1.68-.81A5.87,5.87,0,0,0,300,98a27.51,27.51,0,0,0-2.23,2.64l-2.57-1.92a23.55,23.55,0,0,0,5.3-6.62h-.31c-1,0-2.74,0-4.06-.15v-2.8a31.63,31.63,0,0,0,4.23.28h1.15A13.68,13.68,0,0,0,302,86.7l3.17.27A23.61,23.61,0,0,1,304.54,89.37Z"/><path class="cls-2" d="M323,94.72c0,3.86-.36,9.79-2.52,13.54a13.28,13.28,0,0,0-2.47-1.61c2-3.43,2.14-8.47,2.14-11.93v-6h8.54V85.91h3v2.76h8.66v2.71H323Zm-.43,10.37a19.82,19.82,0,0,0,1.75-7.27l2.57.55c-.26,2.76-.7,5.93-1.78,7.85Zm10.7.22c.73,0,.87-.56,1-3.87a7.3,7.3,0,0,0,2.52,1.15c-.27,4.11-1,5.26-3.22,5.26h-2.67c-2.54,0-3.14-.84-3.14-3.5V96h2.83v8.35c0,.87.1,1,.77,1Zm.27-8.24a27.57,27.57,0,0,0-5.64-3.74l1.89-1.87a29.86,29.86,0,0,1,5.81,3.48Zm4.2.12A28.44,28.44,0,0,1,341,105l-2.81,1.15a28.41,28.41,0,0,0-2.93-8Z"/><path class="cls-2" d="M350,99.31c-.8.24-1.59.48-2.38.69v5.28c0,1.32-.24,2-1,2.5a6.21,6.21,0,0,1-3.31.53,10.65,10.65,0,0,0-.72-2.64c.86,0,1.68,0,2,0s.4-.1.4-.41v-4.53l-2.4.72-.43-2.81c.82-.17,1.78-.41,2.83-.68V93.06h-2.52V90.42H345V85.91h2.62v4.51h2.16v2.64h-2.16v4.23l2-.53Zm13.15.28a11.88,11.88,0,0,1-2.76,5.12A18.28,18.28,0,0,0,365,106a9.41,9.41,0,0,0-1.68,2.33,18.31,18.31,0,0,1-5.07-1.85,16.54,16.54,0,0,1-4.53,1.87,9.68,9.68,0,0,0-1.54-2.11,14.75,14.75,0,0,0,3.91-1.32,10.17,10.17,0,0,1-1.82-1.94,12.35,12.35,0,0,1-4.44,5.28,7.9,7.9,0,0,0-1.85-2.07c3.17-1.94,4.39-5,4.95-8.09H350V95.8h3.2c0-.38,0-.77.09-1.13h-2.83V92.44h1.49a23.19,23.19,0,0,0-.87-2.59l2.16-.6c.36.89.87,2,1.08,2.76l-1.34.43h2.76a23.24,23.24,0,0,0-.53-3l2.23-.39a22,22,0,0,1,.65,2.91l-2.23.5h3a26.31,26.31,0,0,0,1.87-3.86,97.49,97.49,0,0,1-10.1.67,7.39,7.39,0,0,0-.6-2.11A79.08,79.08,0,0,0,362.09,86l1.61,2.14c-.91.17-1.9.31-3,.46l2.64.76c-.64,1.06-1.34,2.16-2,3.1h2.28v2.23H356c0,.39,0,.75-.09,1.13h8.47v2.3h-8.76c-.07.32-.12.63-.19.94h5.69l.45-.07Zm-7.35,1.52a9,9,0,0,0,2.4,2.4,7.71,7.71,0,0,0,1.78-2.4Z"/><path class="cls-2" d="M375.36,104.32a2.12,2.12,0,1,1,2.12,2.11A2,2,0,0,1,375.36,104.32Zm.24-12.48-.12-3.58h4l-.12,3.58-.65,8.21h-2.45Z"/><path class="cls-2" d="M10.38,147.79c.73,1.25,2,1.77,3.92,1.85,2.22.09,6.65,0,9.21-.17a9.09,9.09,0,0,0-.69,2.16c-2.3.12-6.26.15-8.54.06s-3.72-.63-4.84-2.07c-.86.73-1.73,1.45-2.78,2.24l-1-2.22a26.26,26.26,0,0,0,2.62-1.7v-4.07H5.88v-2h4.5Zm-1.11-8.35a14.81,14.81,0,0,0-3.11-3.05L7.69,135a16,16,0,0,1,3.25,2.88Zm4.79,9.43H12v-9.62h4.19c-.84-.39-1.74-.76-2.5-1.06l1.43-1.2c.66.24,1.44.54,2.21.88a17.5,17.5,0,0,0,1.49-1H12.13V135.2h8.58l.43-.11,1.32,1.06a20.66,20.66,0,0,1-3.32,2.52c.41.21.8.39,1.12.58h2.26V147c0,.89-.17,1.36-.77,1.66a5.58,5.58,0,0,1-2.52.32,6.3,6.3,0,0,0-.54-1.74c.58,0,1.23,0,1.42,0s.28-.1.28-.28v-.86H18.18v2.73h-2v-2.73H14.06Zm0-8v1H16.2v-1Zm2.14,3.6v-1H14.06v1Zm4.19-3.6H18.18v1h2.21Zm0,3.6v-1H18.18v1Z"/><path class="cls-2" d="M41.31,137.12v4.5H39.09v-2.57H27.39v2.57H25.26v-4.5h2.53a10.46,10.46,0,0,0-1.05-1.62l2-.82a8.83,8.83,0,0,1,1.36,2l-1,.45h3v-2.56h2.3v2.56h2.93l-1-.37a13.27,13.27,0,0,0,1.34-2l2.39.71a21.25,21.25,0,0,1-1.53,1.7Zm-1.09,12.07c0,1-.2,1.57-.95,1.9a8.32,8.32,0,0,1-3.08.32,7.71,7.71,0,0,0-.71-2c.84,0,1.83,0,2.09,0s.38-.07.38-.28v-1.81H34.58v4.71H32.29v-4.71H28.78v3.87H26.52v-5.85h5.77v-1.12h-4v-4.3h9.94v4.3H34.58v1.12h5.64Zm-9.8-6.52H36v-1.16H30.42Z"/><path class="cls-2" d="M47.73,148.74,49,147a4.38,4.38,0,0,0,3.09,1.42c1.4,0,2.35-.67,2.35-1.83,0-1.31-.8-2.11-3.81-2.11v-2c2.54,0,3.36-.84,3.36-2s-.67-1.66-1.85-1.66a3.79,3.79,0,0,0-2.61,1.23l-1.4-1.68a6.16,6.16,0,0,1,4.14-1.72c2.67,0,4.48,1.31,4.48,3.63a3.2,3.2,0,0,1-2.29,3v.1a3.38,3.38,0,0,1,2.74,3.32c0,2.47-2.22,3.9-4.85,3.9A5.9,5.9,0,0,1,47.73,148.74Z"/><path class="cls-2" d="M59.07,143.6c0-4.55,1.85-6.93,4.69-6.93s4.67,2.39,4.67,6.93-1.83,7.06-4.67,7.06S59.07,148.18,59.07,143.6Zm6.76,0c0-3.73-.87-4.78-2.07-4.78s-2.09,1.05-2.09,4.78.89,4.92,2.09,4.92S65.83,147.36,65.83,143.6Z"/><path class="cls-2" d="M81.77,138c0,1-.08,2-.17,3H90s0,.71,0,1c-.28,5.74-.6,8-1.33,8.82a2.71,2.71,0,0,1-2,.93,21.32,21.32,0,0,1-3.25,0,5.23,5.23,0,0,0-.78-2.18c1.29.11,2.56.11,3.12.11a1.24,1.24,0,0,0,.88-.24c.48-.47.78-2.3,1-6.3H81.34c-.58,3.46-1.93,6.69-5.4,8.78a6.67,6.67,0,0,0-1.61-1.79c4.8-2.69,5-7.66,5.08-12.16H75.06v-2.19H91.48V138Z"/><path class="cls-2" d="M109.89,149.41c0,1.22-.26,1.83-1,2.19a8.71,8.71,0,0,1-3.53.41,9.09,9.09,0,0,0-.8-2.22c1.06.07,2.27.05,2.65.05s.48-.13.48-.45v-4.52H96.37V152H94.13V135.76h15.76Zm-13.52-6.74h4.41V138H96.37Zm11.28,0V138H103v4.71Z"/><path class="cls-2" d="M121.48,151.28l-1.41-2.22a15.82,15.82,0,0,0,1.74-.3,5.07,5.07,0,0,0,4.26-5,4.62,4.62,0,0,0-3.92-4.93,37.5,37.5,0,0,1-1.12,5.06c-1.12,3.78-2.73,6.09-4.77,6.09s-3.79-2.28-3.79-5.43a8.3,8.3,0,0,1,8.58-8c4.63,0,7.54,3.22,7.54,7.29S126.18,150.55,121.48,151.28Zm-5.14-4.18c.78,0,1.51-1.18,2.28-3.7a28.44,28.44,0,0,0,1-4.52,5.88,5.88,0,0,0-4.75,5.41C114.86,146.18,115.61,147.1,116.34,147.1Z"/><path class="cls-2" d="M138.45,140.69c1.54-.9,3.16-1.7,4-2.2a11.93,11.93,0,0,0,1.74-1.14l1.28,2.16c-.56.34-1.15.66-1.84,1a53.71,53.71,0,0,0-5.22,2.77c-1.55,1-2.59,2.09-2.59,3.4s1.29,2.05,3.88,2.05a28.85,28.85,0,0,0,6.11-.69l0,2.69a34.51,34.51,0,0,1-6,.47c-3.72,0-6.54-1-6.54-4.24,0-2.06,1.31-3.61,3.1-4.94-.86-1.58-1.75-3.58-2.59-5.56l2.33-.95A45.93,45.93,0,0,0,138.45,140.69Z"/><path class="cls-2" d="M154,146.63c0,1.19,1.14,2.05,3.83,2.05a25.93,25.93,0,0,0,6.55-.74l0,2.63a28.86,28.86,0,0,1-6.48.64c-4.28,0-6.42-1.44-6.42-4a12,12,0,0,1,.37-2.69l2.45.22A6.81,6.81,0,0,0,154,146.63Zm3.83-9.58c1.85,0,4-.11,5.41-.26v2.48c-1.3.11-3.62.22-5.39.22-2,0-3.59-.07-5.1-.2v-2.47A48.64,48.64,0,0,0,157.79,137.05Z"/><path class="cls-2" d="M172.88,136.38c1,0,5.17-.06,6.39-.13a9.92,9.92,0,0,0,1.34-.21l1.25,1.64c-.33.19-.76.47-1,.64-1.09.8-2.88,2.24-4.51,3.47a6.39,6.39,0,0,1,1.78-.24c3.29,0,5.53,1.94,5.53,4.56,0,3.69-3.23,5.86-10.14,5.3l-.66-2.43c5.18.67,8.24-.43,8.24-2.89,0-1.48-1.36-2.58-3.49-2.58-2.9,0-4.93,1.85-6.93,3.89l-1.76-1.85c2.49-1.91,7.1-5.66,8.57-7.19-1,0-3.62.16-4.52.22-.46,0-1.14.09-1.55.17l0-2.45A13.08,13.08,0,0,0,172.88,136.38Z"/><path class="cls-2" d="M191.7,199.7a31.65,31.65,0,0,1-31.55,31.55H31.54A31.64,31.64,0,0,1,0,199.7H0a31.63,31.63,0,0,1,31.54-31.54H160.15A31.64,31.64,0,0,1,191.7,199.7Z"/><path class="cls-3" d="M41,196.78c1.92,1.45,5.8,4.79,6.86,5.61l-2.7,4c-.94-1.22-2.59-3-4.16-4.59v13.53H36.49v-14a38.9,38.9,0,0,1-6,9.21A26.36,26.36,0,0,0,28.14,206a37.92,37.92,0,0,0,7.45-11.29H29.05v-4.28h7.44v-4.86c-2.23.43-4.47.79-6.58,1.06A14.71,14.71,0,0,0,28.57,183c5.65-.83,12-2.32,15.76-4l3.3,3.6a49,49,0,0,1-6.63,2v5.84h6.74v4.28H41Zm13.13,8.67H49.59V183.53h4.54Zm9.33-25.91v30.18c0,2.7-.55,4-2.15,4.74s-4.24.94-7.8.9a18.35,18.35,0,0,0-1.61-4.82c2.55.12,5.06.12,5.88.12s1.06-.27,1.06-1V179.54Z"/><path class="cls-3" d="M101.65,209.88c0,2.51-.55,3.76-2.12,4.47s-4,.86-7.53.82a17.16,17.16,0,0,0-1.49-4.47c2.2.12,4.79.08,5.49.08s1-.24,1-.94V204H88.75v10.93h-4.7V204h-8c-.71,4.27-2.12,8.58-4.94,11.64a17.65,17.65,0,0,0-3.68-3c4.27-4.7,4.62-11.68,4.62-17.17v-14h29.6Zm-17.6-10.31v-4.82H76.68v.7c0,1.26,0,2.67-.12,4.12Zm-7.37-13.72v4.54h7.37v-4.54Zm20.34,0H88.75v4.54H97Zm0,13.72v-4.82H88.75v4.82Z"/><path class="cls-3" d="M120.23,206.62a54.38,54.38,0,0,0-2.82-5.09v13.76H113.1V201.45a40.7,40.7,0,0,1-4.51,9.64,27.15,27.15,0,0,0-2.12-4.82,36.49,36.49,0,0,0,5.18-10.15h-4.47v-4.35h5.92V179h4.31v12.82h5.8v4.35h-5.8v.27c1.13,1.14,4.86,5.53,5.68,6.63ZM108.9,191.06a38.85,38.85,0,0,0-1.76-9.05l3.25-.87a39.6,39.6,0,0,1,2,9Zm15-9.25c-1,3.14-2.16,6.86-3.14,9.13l-2.94-.82A75.37,75.37,0,0,0,120,181Zm15.2,23v10.58h-4.39v-9.8l-10.93,2-.71-4.35,11.64-2.07V178.75h4.39v21.56l4-.74.71,4.35Zm-13.4-14.23a33,33,0,0,1,6.58,4.51L130,198.78a32.8,32.8,0,0,0-6.43-4.9Zm5.68-1.41a31.46,31.46,0,0,0-6.07-5.1l2.23-3.13a29.09,29.09,0,0,1,6.23,4.74Z"/><path class="cls-2" d="M213.25,181.22c0-33.27,15.19-50,38-50s38,16.77,38,50c0,33.54-15.18,51.23-38,51.23S213.25,214.76,213.25,181.22Zm57.57,0c0-27.33-8.84-34.85-19.54-34.85s-19.54,7.52-19.54,34.85,8.85,36.05,19.54,36.05S270.82,208.56,270.82,181.22Z"/><path class="cls-2" d="M404.26,217.53c0,7.3-1.58,11-6.29,13.14-4.49,2.25-11.23,2.47-21.23,2.47a54.44,54.44,0,0,0-4.83-13.36c6.4.45,13.71.33,15.95.33s2.92-.78,2.92-2.69V190.24H323v42.9H309.47V135.43h94.79ZM323,177h26.5V148.68H323Zm67.83,0V148.68H362.7V177Z"/><polyline class="cls-4" points="157.44 189.73 167.42 199.7 157.44 209.68"/><line class="cls-5" x1="2.85" y1="143.89" x2="188.84" y2="143.89"/><line class="cls-6" x1="2.85" y1="142.75" x2="188.84" y2="142.75"/><ellipse class="cls-7" cx="473.13" cy="55" rx="85" ry="55"/><path class="cls-3" d="M442,27.31V46.58h-3V45.41h-11.4v1.2h-2.9V27.31h6.14a27.9,27.9,0,0,0,.65-3.14l3.46.38c-.37,1-.75,1.9-1.13,2.76Zm-14.45,2.74v2.47h11.4V30.05Zm0,5.11v2.47h11.4V35.16Zm11.4,7.61v-2.5h-11.4v2.5Z"/><path class="cls-3" d="M450.41,35.45a18.9,18.9,0,0,0-4.54-2.52l1.56-2.19A19.83,19.83,0,0,1,452.09,33Zm-3.75,9a68.25,68.25,0,0,0,4.47-7.56l2.13,1.9c-1.22,2.5-2.71,5.23-4.13,7.56Zm5.11-15.36a18.09,18.09,0,0,0-4.46-2.61l1.56-2.19a19.34,19.34,0,0,1,4.61,2.43Zm.58,3.1c.7,0,1.49,0,2.33-.1a49.84,49.84,0,0,0,2.83-7.87l3.29.7c-.91,2.35-2,4.92-3.07,7l5.57-.34c-.65-.93-1.35-1.87-2-2.68l2.49-1.28a32.84,32.84,0,0,1,4.76,7l-2.64,1.49a21.78,21.78,0,0,0-1-2c-4.42.34-9,.65-12.24.89Zm2,4.46h12v9.92h-2.9v-.89h-6.36v1h-2.76Zm2.76,2.64V43h6.36V39.26Z"/><path class="cls-3" d="M477.19,25.13a44.07,44.07,0,0,1-1.92,4.63V46.58h-2.71V34.39c-.48.65-1,1.3-1.47,1.87a16.84,16.84,0,0,0-1.58-3,25.24,25.24,0,0,0,5-9Zm9.72,6.07a25.83,25.83,0,0,0,5.86,9.62A12.15,12.15,0,0,0,490.63,43a20.54,20.54,0,0,1-1.92-2.54V42.6h-3.22v3.86h-2.78V42.6h-3.14V40.39a16.73,16.73,0,0,1-2.14,2.71,11.63,11.63,0,0,0-2-2.16,24.59,24.59,0,0,0,6-9.74h-4.73V28.49h6.07V24.33h2.78v4.16h6.63V31.2Zm-4.2,8.86V34a31.06,31.06,0,0,1-2.93,6.1Zm5.74,0a35.25,35.25,0,0,1-3-6.27v6.27Z"/><path class="cls-3" d="M500.73,31.71l2.16-.26a18.9,18.9,0,0,0,.67,2.51,23.94,23.94,0,0,0,3.28-.73l.26,2a20.8,20.8,0,0,1-2.85.57,17.43,17.43,0,0,0,1.42,2.61,10.89,10.89,0,0,0,.87,1.07l-1,1.44c-.9-.17-2.92-.38-4.26-.49l.16-1.7c.78.06,1.84.16,2.34.19a21.37,21.37,0,0,1-1.51-2.89,42.73,42.73,0,0,1-6.83-.07l0-2a33.61,33.61,0,0,0,6.15.23c-.13-.37-.22-.71-.32-1S500.94,32.24,500.73,31.71Zm-2.9,9.84c0,1.35,1.2,1.92,3.4,1.92a22.35,22.35,0,0,0,4.28-.38l-.11,2a22.09,22.09,0,0,1-4.3.39c-3.27,0-5.33-1.28-5.33-3.59a6.59,6.59,0,0,1,.84-3l2,.46A3.81,3.81,0,0,0,497.83,41.55Z"/><path class="cls-3" d="M518.59,32.73a6.24,6.24,0,0,0,0,.66,34.9,34.9,0,0,0,4-.43l0,1.84c-1.05.12-2.51.27-4.06.35V36.8c1.61-.08,3-.21,4.27-.39V38.3c-1.45.16-2.69.27-4.23.32,0,.61.06,1.27.11,1.91a12.54,12.54,0,0,1,4.48,2.41L522,44.74a12.29,12.29,0,0,0-3.23-2.23c0,.23,0,.42,0,.59,0,1.36-1,2.42-3.15,2.42-2.56,0-3.91-1-3.91-2.67s1.49-2.75,4-2.75c.33,0,.67,0,1,0,0-.49,0-1-.06-1.49h-.84c-.92,0-2.75-.08-3.8-.2l0-1.89a28.59,28.59,0,0,0,3.86.3h.76c0-.53,0-1.1,0-1.65H516a35.15,35.15,0,0,1-3.92-.29L512,33.1a30.22,30.22,0,0,0,4,.35h.63V32.7a6.82,6.82,0,0,0-.1-1.1h2.16A9.09,9.09,0,0,0,518.59,32.73Zm-3.24,11c.85,0,1.41-.24,1.41-1.17,0-.17,0-.4,0-.68a8.08,8.08,0,0,0-1.31-.12c-1.13,0-1.76.45-1.76,1S514.25,43.71,515.35,43.71Z"/><path class="cls-3" d="M423,59.26c-.68,2.08-1.49,4.72-2.24,6.6a7.13,7.13,0,0,1,1.85,4.89c0,1.59-.33,2.59-1.1,3.12a3.07,3.07,0,0,1-1.42.55,10.85,10.85,0,0,1-1.65,0,6.29,6.29,0,0,0-.65-2.54c.45,0,.81,0,1.13,0a1.2,1.2,0,0,0,.69-.21,1.65,1.65,0,0,0,.43-1.35,6.32,6.32,0,0,0-1.77-4.22c.5-1.54,1.05-3.7,1.49-5.38h-2.12V79.63H415V58.25h5.66l.41-.12Zm13,11.92A40.59,40.59,0,0,1,432.69,74a9.12,9.12,0,0,0,3.77,3.15,9.72,9.72,0,0,0-1.85,2.42c-3.53-1.87-5.4-5.45-6.48-10.13H426.4v6.19c1.13-.19,2.3-.4,3.46-.62l.21,2.5c-2.76.65-5.71,1.25-8,1.75l-.93-2.76c.72-.1,1.56-.24,2.49-.39V58.27H434.8V69.43h-4.18a18.28,18.28,0,0,0,.91,2.55,20.86,20.86,0,0,0,2.16-2.38ZM426.4,60.74v1.9H432v-1.9Zm0,6.24H432V65H426.4Z"/><path class="cls-3" d="M450.59,76.39a23.84,23.84,0,0,0,2.74.15c1.29,0,5.25,0,6.86-.08a10.9,10.9,0,0,0-1,2.91h-6c-4.41,0-7.7-.72-9.91-4.13a12.1,12.1,0,0,1-3.19,4.54,17.76,17.76,0,0,0-2.35-2c2.59-1.92,3.76-5.23,4.2-9.33l3,.28c-.14,1.08-.31,2.09-.53,3a6.47,6.47,0,0,0,3.27,3.77V67.13h-5.11V64.42h13.2v2.71h-5.14v3h6.6v2.69h-6.6Zm-8.9-10.75h-2.81v-6h8.71v-2.4h3v2.4h8.79v6h-2.95V62.35H441.69Z"/><path class="cls-3" d="M481.81,57.07a2.87,2.87,0,0,1,0,5.74,1.12,1.12,0,0,1-.31,0c-.07.27-.12.51-.19.72-.55,2.36-1.58,6.08-3.6,8.74a19.28,19.28,0,0,1-9.65,6.65L465.45,76a15.78,15.78,0,0,0,9.41-5.64,15.1,15.1,0,0,0,2.8-6.77H466.5c-1.1,0-2.25,0-2.85.1V60.31a25.56,25.56,0,0,0,2.85.19h11.11a10.51,10.51,0,0,0,1.37-.09,3.28,3.28,0,0,1,0-.46A2.89,2.89,0,0,1,481.81,57.07Zm0,4.25a1.38,1.38,0,0,0,0-2.76,1.38,1.38,0,1,0,0,2.76Z"/><path class="cls-3" d="M506.37,67.1a17.25,17.25,0,0,1-3.56,6.65,18,18,0,0,1-8.56,5.19l-2.38-2.72a16.07,16.07,0,0,0,8.3-4.2,10.32,10.32,0,0,0,2.48-4.15h-11.6c-.57,0-1.77,0-2.78.12V64.87c1,.07,2,.15,2.78.15h11.89a5.2,5.2,0,0,0,1.75-.24l2.13,1.32A9.24,9.24,0,0,0,506.37,67.1ZM493,59.26h9.25a24.07,24.07,0,0,0,2.59-.12v3.09c-.65,0-1.78-.07-2.64-.07H493c-.76,0-1.8,0-2.49.07V59.14A21.42,21.42,0,0,0,493,59.26Z"/><path class="cls-3" d="M521.1,72.14a22.52,22.52,0,0,0,8.74-9.33l1.87,3.38a25.54,25.54,0,0,1-8.88,8.88,25.93,25.93,0,0,1-8.9,3.39l-2-3.17A24.66,24.66,0,0,0,521.1,72.14Zm0-7.75-2.45,2.5a48.72,48.72,0,0,0-6-5.19l2.26-2.4A48.84,48.84,0,0,1,521.1,64.39Z"/><path class="cls-7" d="M425.37,86c-4.24,18-14.24,25.1-23.24,27,16,.86,39.91-4.75,50.95-23.91Z"/></g></g></svg>