<svg xmlns="http://www.w3.org/2000/svg" xmlns:xlink="http://www.w3.org/1999/xlink" viewBox="0 0 1074.5 632.8"><defs><style>.cls-1{fill:#00be96;}.cls-2{fill:#3c3c3c;}.cls-3{fill:#141f42;}.cls-4{fill:#fff;}.cls-5{fill:none;stroke:#141f42;stroke-miterlimit:10;}</style></defs><g id="レイヤー_2" data-name="レイヤー 2"><g id="レイヤー_7" data-name="レイヤー 7"><path class="cls-1" d="M79.42,406.67l.14,0a13,13,0,0,0,4.8-.25l.15,0,1.42-1.26,1.26-.72.88-1.39c.56-.23,1.85-.86,2-2.07a53.28,53.28,0,0,1,1.48-5.15l.12-.1a4.39,4.39,0,0,0,2.52-1.13,9.13,9.13,0,0,0,1.34-2.51l6.1-2.71.11-.18c.39-.68,1.3-2.32,1.21-3.13a3,3,0,0,1,.25-1.13l2-1.17.08-.13a2.91,2.91,0,0,0,.4-2.08,2.72,2.72,0,0,0-1.3-1.72c-1.82-1.16-3.84.39-4.62,1.1L97.25,380l-2,1.09-.14.11c-1.66,1.61-1.49,2.24-1.44,2.44s.28,1.53.43,2.46l-2.8,3.1-1.68.33-.14.27c-.39.69-1.57,3-.64,4.1.2.23.43.47.65.69a43.25,43.25,0,0,1-5.89.16l-.52-.11-1.34,2.94-.86.37-1.4,3.47-1.11.63-.09.19c-.09.22-.94,2.17-.24,3.46A1.94,1.94,0,0,0,79.42,406.67Z"/><path class="cls-1" d="M102.65,422.54a3.36,3.36,0,0,0-2.66.57A6.4,6.4,0,0,0,98,427c0,.16-.58,4,1.92,5.22l.12,0,.32.07a3.64,3.64,0,0,0,3-.51,4.82,4.82,0,0,0,1.59-3.39l.33-1.79a3.14,3.14,0,0,0,0-2.53A3.4,3.4,0,0,0,102.65,422.54Z"/><path class="cls-1" d="M52.69,459.58l2.91,1.23,2.77-5.13-2.68-1.47h-.2a4,4,0,0,0-2.76,1.55c-1,1.42-.18,3.47-.15,3.56Z"/><path class="cls-1" d="M41.92,465.73l0-.18a20.12,20.12,0,0,0-.26-2,1.09,1.09,0,0,0-.65-.84,1.43,1.43,0,0,0-1.09.07l-.58-.12-1-.65a4.45,4.45,0,0,0-2.47-.56,1.62,1.62,0,0,0-1.23.57,2.79,2.79,0,0,0-.53,1.84l-1.36.82-.07.26a7.11,7.11,0,0,1-.82,1.84,1.18,1.18,0,0,0-.21,1c.18.81,1.14,1.42,1.56,1.65a10.17,10.17,0,0,0,1.2,1.07.93.93,0,0,0,.37.16c.79.17,1.66-.65,2-1.06l.45-1a6.76,6.76,0,0,0,3.43.65,1.61,1.61,0,0,0,1.47-.87,2.22,2.22,0,0,0-.39-1.95Z"/><path class="cls-1" d="M166.85,484.73l2.08.23,2.71.88,1.33-.65.5-1.35,2.26.75.27-.19a7.31,7.31,0,0,0,2-1.78,15.53,15.53,0,0,1,1.75-1.94c.25-.19,2.37-1.89,2.3-3.72a19.87,19.87,0,0,0-.19-2.41l.09-2.41-.15-.19c-1.15-1.44-5-6.19-6.51-6.56l-.07,0c-1.63-.35-4.68.95-5.07,1.95-.2.5-1.22,1.58-1.54,1.59a9.57,9.57,0,0,1-1.79-1.42l-3.89-3.1-2.74-1.79-1.58-.42c-1.86-.53-3.41-1.41-3.45-1.78a9.44,9.44,0,0,1,.48-2.7l0-.15-.62-4.88-.39-1.64.94-1.13-.32-2.36c1.38-.74,2.87-1.71,3-2.53a2.34,2.34,0,0,1,.09-.33,2.07,2.07,0,0,0,0-1.8,2.29,2.29,0,0,0-1.73-.87l-3.07.78L151.64,441l-1.36-.29-.26-2.39-4.67-1.81a1.27,1.27,0,0,0-1-.09c-.64.22-1.16.89-1.57,2.05-.4-.09-1-.21-1.83-.37l-4.4-.94h-.28a10.77,10.77,0,0,0-3.1,1,34.58,34.58,0,0,0-2.22,2.72l-.65,1.28-2.52,1.19-.92,1.4-.2.74-.93.78-.33,1.58-3.22-1.15-1,.17-1.41-5.08-.31-.12c-.23-.09-2.28-.85-3.26.28a3.54,3.54,0,0,1-1.11,0c-1.1-.13-2.95-.34-3.26,1.57a5.29,5.29,0,0,0,.47,3l-1.55.19-1.08,1.71-3.42-.73-.44,0,.67-1.63-.06-.21a4.13,4.13,0,0,0-2.86-2.63c-2.37-.82-3.27,0-3.43.15l-.39.64-1.4-.92-.23-.1a2.36,2.36,0,0,0-1.77.35,2.1,2.1,0,0,0-.78,1.64,4.77,4.77,0,0,0,1.31,2.86l.26,1.28-1,.93-1.25.64-.17-.36a2.72,2.72,0,0,1-.08-.44c-.14-.85-.38-2.43-1.76-2.82a4.4,4.4,0,0,0-1.84,0,3.83,3.83,0,0,0-2.24-2.81,4.36,4.36,0,0,0-4.41.91l0,.1a38.69,38.69,0,0,0-4.87-2l-.34-.1-.27.23s-2,1.66-2.41,2a4.91,4.91,0,0,0-1.15,2.82,1.68,1.68,0,0,0,.46,1.29,3.44,3.44,0,0,0,3.55.65,14.77,14.77,0,0,0,1.31-1c1.46-.71,2.45-1.2,3.11-1.56l0,.64.61.93-.76.7c-1.15.7-2.54,1.69-2.71,2.49a4.45,4.45,0,0,0,.36,2.2l.1.26,2,.78a18.38,18.38,0,0,0,.52,2.88c.32.89,2.13,1.7,3.27,2.13a4.85,4.85,0,0,1,1.19,1.64c-.22.79-.62,2.41-.62,2.41l0,.12V465c0,.15.27,1.54,2.72,2.43a1.41,1.41,0,0,1,.79,1.22h0l-.33,1.83-1.25,4.22.94,2.51,0,.23-3.34-2.06-1.35-1.39.39-1.48c.68-.26,2-.94,2.16-2.13a7.5,7.5,0,0,0-.8-3.3l-.74-.82v-2c-.07-.34-.73-3.35-2.57-3.63a2.51,2.51,0,0,0-2.58.87l-.61,1.65-.6.18-1.16,2.36-.85.22-1.13,3.18L77.6,471c.11.69.66,4.19,1.56,5.28a8,8,0,0,0,1.75,1.49l-1.06,2.18v.17c0,.64.26,2.67,1.41,3.13l-2.79,1.93-.08.18a3.86,3.86,0,0,0-.09,2.93,1.89,1.89,0,0,0,1.44.94c2.21.35,5-2.1,5.32-2.4a16,16,0,0,1,2.48-2.17c.64.11,2,.27,2.11.28l1-.19,2,.8,1.5-.14,1.18,1,1.69.87-4,2.29-1.17,1.57.32,1.62-.33,1.6A1.81,1.81,0,0,0,92,496a2.83,2.83,0,0,0,2.57.89,13.3,13.3,0,0,0,3.09-.31l1.8.49,1.37-.27c.51,0,2.5.11,3.48-1.37a12.33,12.33,0,0,0,1.25-2.53,3.47,3.47,0,0,0,1.9-2.56,13.13,13.13,0,0,0,.37-3.53,2.23,2.23,0,0,0-1.78-2.49l-2-.6-.74-1.42-3.71-1.16c2.81-1,2.92-1.52,3-1.79a18.94,18.94,0,0,0,.22-2.1,14.69,14.69,0,0,0,1.84-2,3.7,3.7,0,0,0,.19-2.25l-.36-.86.39-1.84.22-.2c1.92-.86,4.07-1.76,4.84-2,.41.58,1.33,2.19,2,3.5l1.4,4.4-1,3.94-1.24,1.64-.53,2.2,4.31,9.63-1.53,2.82-5.21,1.86c-1.42.67-4.52,2.31-4.9,3.92a2.16,2.16,0,0,0-.49-.11,6.82,6.82,0,0,0-2,.43l-.15-.86L99,500.42l-1.54.19-1,.53-1.34.24a10.83,10.83,0,0,0-1.39.29l.15-.37.29-.82.56-2.42-2.24-.95c-.74-.27-4.47-1.64-5.55-1.58-1.91,0-2.26.38-2.35.82a7.57,7.57,0,0,0-.09,1.26l.08.6-1,.74-1.37,1.66-.6.68-1.53,1.28a5.12,5.12,0,0,0-1.19,1.73,5.31,5.31,0,0,0,.19,1.74,1,1,0,0,0,0,.48v0L76.49,510l1.13-.09.22.31h-.57l-.78,2.52h1.27l.45,1.17,1.54-.09,0-.13.59-.23,1.14.5,4.59-2.77h0a1.15,1.15,0,0,0,1-.24,1.26,1.26,0,0,0,.55-.74l.43-.31.62.6,1.24.41.78-1.06.93-.64L93,510.22l1-1.51a4,4,0,0,0,.74,1.75,4.61,4.61,0,0,0,1.93.65l.26,0,.39-.28.4.7L97.17,514l1.93-2.12.43-.3.46,0,1.24-.53,1.31-1.86.37-1.46,1.71-1.82.32-2.62a47.53,47.53,0,0,0,5.8.4l-3.16,1.93-2.45,6.13-6.23,3.26-7.07,4.42-3.89,2-2.53-2.31-.29,0c-2.92.25-3.23.83-3.35,1-.28.5-1.58,3.56-1.73,3.9l-.08.21.27,1.08-1.12,3.48.48,1.84c-4.07,3.14-4.23,3.64-4.33,3.92-.33.81-.45,1.87,1.56,6.44a21.93,21.93,0,0,1,.37,4.93l-.13,3-6,6.21-3.74-1a1.51,1.51,0,0,0-1.43.07c-.68.43-1,1.41-.85,3l.08.26a4,4,0,0,1,.64,1.89h0l0,1.9-.71,2.09a2.88,2.88,0,0,0,2.06,3.26c1.79.71,6.44,2.3,7.76,2.76a42.22,42.22,0,0,0,1.42,5.14,5,5,0,0,0,5.36,1.67,6.89,6.89,0,0,0,2.73-1.37,2.56,2.56,0,0,0,1.3-1.83l0-.26c.13-1.07.45-3.84-2.11-4.84-.11-.17-.27-.37-.48-.63l.93-2.68-.3-1.46.74-3,.22-1.73,4.77-4.38,1.95-.88,1.13-2.59a3.21,3.21,0,0,1,3.17-.84c.87.47,3,4.62,3.29,5.89-.59.39-2.11,1.32-3.59,2.21l-.95-.77L91,558.63l-1.59,4.59,2.25,8-1.39,2.2-1.13.58-1.41,1.53-1.31,2.14-1,1.45c-2.6.49-4.09.89-4.44,1.19s-2.15,3-1.66,4.68a1.73,1.73,0,0,0,1.37,1.21l.16,0c2.42.35,16.1-1.71,17-2.38a9.22,9.22,0,0,0,1.43-2l1.32.37.22-.09c.8-.35,4.84-2.16,5.6-3.72a3.42,3.42,0,0,0-.37-2.88,6.35,6.35,0,0,0-1.56-2,3.94,3.94,0,0,1,.27-.55,5.73,5.73,0,0,1,3-1,8.3,8.3,0,0,1,1.9.66l4.15,7a4,4,0,0,0,2.57,1.34,2.85,2.85,0,0,0,2.18-1l.09-.12c1.28-2.17,2.58-4.23,2.61-4.28l1.75-3.32,4.57-2.45,2.42-2.67,3.46-8.9,1.6-1,2.49-7,1.66-1.89,4.24-4,.87-2,.83-.33,2.06-3.4,6.52-3.92,1.2-2-.48-1.07,2.29-1.17,1.7-3.93,10.32-4.28c.07,0,1.56-.7.82-3.12a3.61,3.61,0,0,1-.15-.38l1.68.19,1.19-.32,2,1.48,1.44-2.61,2.85-1.57,1.55-4.9-2.42-1.86-.58-1,1.44-1.66-1.28-5.12-.68-2-.66-.18,3.87-2.63c.15-.13,1.44-1.35,1.23-2.61a1.92,1.92,0,0,0-1.26-1.46c-2.1-.94-7.28-2.73-7.5-2.81l-.18-.06-.18,0a4.57,4.57,0,0,1-5.42-2.27l.38-2.26ZM92,507.32l-.41-.64.17-.16.25.78Z"/><path class="cls-1" d="M64.15,611.85l0,0c-.1-.11-2.49-2.84-3-3.4l-.16-.16-.23,0c-.55-.07-5.46-.64-7.24.91l-.1.12a14.2,14.2,0,0,0-1.79,4l0,.09.08,4,2.19,4.27,3.86,1.69,3.06-1.08,4.81-1.54.13-.21c.68-1.11,1.78-3.11,1.47-4.08A33.25,33.25,0,0,0,64.15,611.85Z"/><path class="cls-1" d="M90.86,601.39a2.44,2.44,0,0,0-2.44.44,1.68,1.68,0,0,0-.36,1.19l-3,1.57-2,1.12-1.57,2.91-1.9,5.5-4.22,1.4-1.75,4.82,0,.16c0,.36.52,3.52,2.45,3.92l.12,0A4.69,4.69,0,0,0,79.73,623l1.68-3.54,3-2.58,2.64-2.86,2.17-1.32.46-2.18,1.55-.4,2.27-5.72a2.15,2.15,0,0,0-.26-1.6A3.5,3.5,0,0,0,90.86,601.39Z"/><path class="cls-1" d="M103.11,238.44a2.1,2.1,0,0,0-1.72-1.87c-1.73-.5-2.21.51-2.27.66l-.82,2.43-2.75,1.77-2.66,1.41-1.69.06-.89,1.57-1.83.39-1.84.83-1.36,1.68-1.22.1a11.38,11.38,0,0,0-.52-2.86,7.72,7.72,0,0,0-1.78-2.39,13,13,0,0,0-1.34-1.12c-.25-.13-1.25-.45-1.82-.63l-.08,0h-.08c-.58,0-1.31-.1-1.42-.12a6.36,6.36,0,0,1-.86-.78l-.14-.14-.2,0s-.7-.15-.85-.2c-.67-.33-1,.26-2,2l-.08.14,0,1.44-1,1.37v.2c0,.6-.11,1.64-.17,1.94a7.24,7.24,0,0,0,1.12,3.5c.13.1.34.27,1.9.38l.8.39c.14.2.28.41.38.58-.28.17-.74.41-1.2.63l-2.35.42H71l-1.79-.39-2.43.64-.69,1.23-.47.11-2.41,1-1-.35-.18,0c-.43.09-1,.19-1.24.22a11.4,11.4,0,0,1-.65-1l-.14-.23-1.61-.4L56.62,255l-.06,2.32.17,1.76.09,1.55-.3,1.8c0,.42,0,.92,0,1.18a2.83,2.83,0,0,1-.41.14l-2.37.33-2.77,1-1,1.32A4.29,4.29,0,0,0,47.79,268a8.26,8.26,0,0,0-1.14,3.92l-.16,2.5L45.58,276l-.08,1.78.23.21a18.29,18.29,0,0,0,1.71,1.4,1.15,1.15,0,0,0,.38.14,4.41,4.41,0,0,0,2-.22l1.52.05,1.32-.73,1.88-.73.77.16,2.52-.71,2.58-1.63.08-.17a5.12,5.12,0,0,0,.44-1.29,4.63,4.63,0,0,0-.46-1.85l-.11-.28L59,271.67l.52-1.1L62,268.36l.46-1.22,1.41.09.6-.36.82,1.42a4.65,4.65,0,0,0,1.66,1.51,5.25,5.25,0,0,0,2-.12l.35-.06.94-2.27-.58-1.41-1.13-1.47-.53-.56.69-1.79-1.22-2.56c0-.17-.11-.55-.17-.91a2.46,2.46,0,0,1,1-.22,3,3,0,0,1,1.14.82l.85,1.1.15.06s1.39.59,1.84.76a.86.86,0,0,0,.78-.06,1.75,1.75,0,0,0,.66-1.16l.4-.46.25.06h.17c.76,0,1.68-.08,1.81-.07s.56.12,1.7-1l.14-.14.1-.5.34.13,1.56.16,1.6-.6,0-.23,2.8.6a11.14,11.14,0,0,0,2.64-.29l.23,0,.16-.18a9.36,9.36,0,0,0,1.17-1.57,1.28,1.28,0,0,0,.08-.87l.63-1.12L93,255l.22-.08,2.94-1.1a27.06,27.06,0,0,0,4-2.76l1.2-1.44a4.19,4.19,0,0,0,2.22-2.06,7.18,7.18,0,0,0,.73-3.33l.23-2.11.12-2.27-1.5-.76Z"/><path class="cls-1" d="M73.89,262.41l-2.72,1.06-1.19.75-.07.24a2,2,0,0,0,.41,1.68l.1.12.9.42c.33.1.59.16.78.21a1.62,1.62,0,0,0,.69.05,7.37,7.37,0,0,0,1.67-.69l.81-.8.89-2.72-1.34-.59Z"/><path class="cls-1" d="M67.81,239.35l1.69,1,.14.06c.79.25,1.76.55,1.9.58a2.38,2.38,0,0,0,2.08-1.21,2.12,2.12,0,0,0-.17-1.81l-.07-.16c-.11-.5-.82-1-2.1-1.61a4.27,4.27,0,0,0-1.67-.37,2.56,2.56,0,0,0-2.06,1.48,2.47,2.47,0,0,0,.18,1.85Z"/><path class="cls-1" d="M81.67,229.12a2.25,2.25,0,0,0,1.3,1.07,1.21,1.21,0,0,0,.43,0,2.87,2.87,0,0,0,1.77-1c1.28-1.64,1.27-1.89,1.26-2.1,0-.43-.1-1.88-.68-2.18a.72.72,0,0,0-.43-.07,5.59,5.59,0,0,1-.54-.18c-1.06-.37-1.79-.58-2.24-.33-.14.06-1.43.6-1.6,1.74a4.75,4.75,0,0,0,.64,2.91A.77.77,0,0,0,81.67,229.12Z"/><polygon class="cls-1" points="86.15 223.05 87.13 222.14 88.67 222.81 90.28 221 92.2 220.58 93.58 218.84 95.02 216.52 91.49 216.81 86.02 219.14 83.56 220.65 84.35 224.32 86.15 223.05"/><polygon class="cls-1" points="112.87 224.24 111.52 222.08 109.22 221.07 107.99 221.19 106.47 221.92 105.29 223.13 106.34 224.66 108.05 226.19 110.29 226.66 113.08 226.59 112.64 225.32 112.87 224.24"/><path class="cls-1" d="M315.88,493.38l.17-.83c.21-1-1.44-2-1.63-2.13a3,3,0,0,0-2.31-.07l-2.79-1.1-.27.15a1.74,1.74,0,0,1-.4.14c-.23-1-2.75-3.55-4.43-5.13l.64-3c.37-1.76-1.57-3.52-2.51-3.72a4,4,0,0,0-1.67.21l.16-.74-.35-.25a12.48,12.48,0,0,0-1.86-1.09,3.94,3.94,0,0,0-2.47.05c-.25.06-.59.14-.64.14a14.64,14.64,0,0,1-2.27-1.79l-3.59-2-4,1.15-3.21,1-1.69.34-4.35,1.55a9.27,9.27,0,0,0-1.62-.62c-.95-.2-1.65,1-2.08,2.1l-1.42,1.7-2.58,3.39-.5,2.08-3.37,1-1.31-1.09-2-1-1.08-1.37-5-1.29-1.21.07-1.5-.44-1.73.45-1.74.07a9.36,9.36,0,0,1-2,0,7.46,7.46,0,0,1,.18-1.91l-.2-1.51-.64-2.11-1.16-1.36.3-1.44a8.72,8.72,0,0,0-.58-3.62,4.26,4.26,0,0,0-2.85-1.9l-.43-.13a.88.88,0,0,0-.86.12c-.46.36-.63,1.27-.51,2.72l-.21,1-2.81-.6h-.2a16,16,0,0,1-2.55.09c-.6-.13-1.77.43-3.56,1.74l-1.41,1.45-1.59,2.54L227,478.65,222.47,484l-1.74,1.26-2.92.45-2.25.63-2.75.13-3.4.5L205.05,488a2.89,2.89,0,0,0-2.85.45,3.15,3.15,0,0,0-.85,3.89l.11.25,2.08.74,1.07.64a8.92,8.92,0,0,0-1.45,1.87l-.19.28a1.91,1.91,0,0,0,.13,1.87,2.85,2.85,0,0,1,.19.49,8.3,8.3,0,0,0-.44,2.1l0,.46,4.3,2.11-.22,1.95.06.15c.2.52.43,1.16.53,1.46-.6.36-2.1,1.14-3.06,1.64a12.63,12.63,0,0,0-2.36,1.32c-.13.13-.38.4-.26,1.84l-.92.56-1.46,4.58,1.12,3.83-.47,2.18,1.86,1.09a2.32,2.32,0,0,0,1.32,2,5.9,5.9,0,0,0,2.89.1l.43,1.37a2.16,2.16,0,0,1-.66-.1c-1.32-.47-3.43,2.25-4,3.09a1.68,1.68,0,0,0-.19,1.43,4.13,4.13,0,0,0,1.51,2.24,3.59,3.59,0,0,0,2.08-.09l.11,0a17,17,0,0,1,1.14,1.93,6,6,0,0,0,2.44,2.4,3.31,3.31,0,0,0,1,.41,3.24,3.24,0,0,0,2.41-.46,11.49,11.49,0,0,0,2.66,1.06h.08c1.71.37,2.66-1.23,2.93-2.13l0-.08v-.43l.31-.33,2.69-1.32,2.29-5.88,2.31.49.17-.06a11.32,11.32,0,0,1,1.56-.43c.2,0,.84-.12,4-3.37l2.21-1.52c.63.1,2.13.33,2.6.33,1.05,0,1.15-1.28,1.2-1.91a.17.17,0,0,0,0-.07,13,13,0,0,1,1.83-.86l.29-.12,1.58-5.16-.13-.92,1.58-.81a2.57,2.57,0,0,0,1.19,1.08c1,.37,1.74-.81,2.12-1.64l2.81-.07,1.53-.15,1.4-.32,2,.12a11,11,0,0,0,2.83.11,1.64,1.64,0,0,0,1.1-.88,3.73,3.73,0,0,0,.85.77c.71.42,1.92-.14,2.74-.63l2.76,1.33,1.32-.33.85.73,1.07,1.64c.15.18,1.52,1.78,2,2.22.29.28,2,2.36,3.08,3.69,2.55,8.78,4.31,13.42,5.23,13.8,1.36.55,3.37-1.49,4.25-2.5l.95-.52,1-2.27,1.2-1.65,1.67-1.44,1.47-2.24,1.48-.38.65-1.94,2.76-1.54,1.15-.68,4.5-1.73,4.23-.61c.06,0,5.58-.68,8.67-1a2.21,2.21,0,0,0,2-1.21c.63-1.4-.72-3.31-.87-3.52l-.82-.52a12.38,12.38,0,0,0,2.7-1.29,2.12,2.12,0,0,0,.94-1.41,3.46,3.46,0,0,0-.61-2.28L312.52,502l1.87-2.22a26.68,26.68,0,0,0,3-2.57,1.54,1.54,0,0,0,.44-1.27A4.65,4.65,0,0,0,315.88,493.38Z"/><path class="cls-1" d="M305.21,476.5h0a3.44,3.44,0,0,0,1.41.24,2.11,2.11,0,0,0,1.28,1.84l.33.09a2.74,2.74,0,0,0,2.1-.46l.15-.11.9-2.35a4.31,4.31,0,0,0,1.27-1.73,3.06,3.06,0,0,0,.08-2.54l-.11-.21-3.62-1.6a9.22,9.22,0,0,0-3.15,0c-2.11.51-2.65,2.73-2.64,3.83v.16l.07.14A7.49,7.49,0,0,0,305.21,476.5Z"/><path class="cls-1" d="M283.2,364.14c0,2.09,0,3.74.9,4.3h0a24.85,24.85,0,0,0,3.26,1.46l.42.15,1.92-2.14,2.21,0,.2-.23c.42-.5,1.79-2.21,1.91-3.17s-1-6.3-3.52-6.84c-2.27-.48-5.52,1.48-5.83,2.33a5.91,5.91,0,0,1-.41.73c-.7,1.21-1.16,2.05-1.07,2.64C283.21,363.46,283.2,363.76,283.2,364.14Z"/><polygon class="cls-1" points="270.36 376.18 271.11 374.9 272.68 376.93 277.67 377.76 275.7 380.74 282.98 378.66 284.87 374.4 284.39 371.59 278.52 368.92 278.94 373.47 279.32 375.26 278.35 376.73 276.76 370.51 280.85 364.18 275.88 367.36 268.63 370.31 264.75 374.69 267.46 378.52 270.36 376.18"/><polygon class="cls-1" points="274.38 380.41 270.09 377.29 267.13 379.33 270.32 385.5 270.69 383.73 272.89 385.6 276.47 386.37 276.9 384.33 280.59 380.49 275.46 381.92 274.38 380.41"/><path class="cls-1" d="M223.74,465.3a4,4,0,0,0,1,.07,4.27,4.27,0,0,0,4-3.21l0-.18-.05-.17c-1.19-3.63-2-3.79-2.24-3.85-1-.21-3.07.29-3.42,1.93l-.45,2.1a2.76,2.76,0,0,0-.12,2.52A1.78,1.78,0,0,0,223.74,465.3Z"/><path class="cls-1" d="M246.35,466.37c.12,0,.3.1.51.17a10.56,10.56,0,0,0,1.45.44,2.73,2.73,0,0,0,3-.81h0c1.11-1.49,1.53-2.64,1.24-3.41a1.25,1.25,0,0,0-1-.79c-1.52-.32-3.65-.6-4.48.65-1.69,2.34-1.44,3-1.35,3.22A.82.82,0,0,0,246.35,466.37Z"/><path class="cls-1" d="M331.4,497.61a5.12,5.12,0,0,0,1.45-1.76,5.68,5.68,0,0,0,0-2.34l.6-2.26-.44-.53.15-2.06,2.69-1,.61-1.31,4.13-2.22.09-.14a4.86,4.86,0,0,0,.81-2,1.83,1.83,0,0,0-.66-1.27,2.7,2.7,0,0,0-2.06-.71l-17.94,7.75-.11.14a14,14,0,0,0-1.71,2.87c-.16.47-.9,2.81.24,3.24l.22.11a4.76,4.76,0,0,0,.71.34l-.43.79-.07.12v.14c-.1,1.16.18,2.57,1.28,2.81h0a12,12,0,0,0,2.71,0l7.58-.61Z"/><path class="cls-1" d="M538,366a3.46,3.46,0,0,0,.49.06c1.26.08,2.15.19,2.8.26a4.56,4.56,0,0,0,1.89,0l9-2.92.9-2.75,1.62-1.87a8.4,8.4,0,0,0,1.52-2.34c.23-1.08-2.21-3.36-4.21-3.93a.61.61,0,0,1-.28-.14c-.06-.18.38-.89,1-1.41a7.06,7.06,0,0,0,1.9-2.14,14.32,14.32,0,0,1,.62-1.4,7.69,7.69,0,0,0,2.52-4.44,1.3,1.3,0,0,0-.64-1.29,3.46,3.46,0,0,0-3.41,0c-.91.53-8.91,5.18-10,6.13-1.27,1.12-2.93,5.64-3.05,6.18s.47,1.31,1.65,2.5l.79.8a1.92,1.92,0,0,1-.33.75l-4.87,3-.18.18c-.29.39-1.67,2.42-1,3.78A1.76,1.76,0,0,0,538,366Z"/><path class="cls-1" d="M913.94,165.15l-3.85-2.94,2.42-2.25-1.64-2.08-1.81-14.51L906.77,138l3.66-9.29,2.79-2.51c1.2-1.17,11.78-11.45,12.56-13.34a5,5,0,0,0-.2-4.28,1.91,1.91,0,0,0-1.5-.95,4.64,4.64,0,0,0-3.1,1.62l-24.24,14.08-13.21-6.23c-1.82-.86-1.78-3.43-1.76-5.31a7.57,7.57,0,0,0-.11-2,3.68,3.68,0,0,0-2.31-2.3l-.38-.12-.28.28a24.12,24.12,0,0,1-4.4,3.64,24.57,24.57,0,0,1,2.55-5l.44-.7-6.83-2.41-2.13,3.26-6.83-3.55-2.29-7.81L840.41,70.49l-8.75-20.06L828,34.77,817.4,12.16c.15-.86.47-3.55-1.3-3.93-1.35-.28-5.75,2.74-8.31,4.61a4.28,4.28,0,0,0-3.46-2.74c-3.67-.78-8.88,9.73-9.88,11.84l-.08.16,1.27,16.13L793.7,54.06,791,55.8,789.71,62l-5.49,4-5.56,15.06,0,.11L778.49,87a64.48,64.48,0,0,1-9.73,3.76c-4,1.33-6.48,3.07-7.37,5.18a4,4,0,0,0-.18,2.78l-2.3,18.82-11,5.82-5.57-7.14-8.52-.65-4.31-8.78-.16-.21c-.22-.19-5.22-4.47-8.87-3.66s-4.92,8.62-5,9.5l0,.16L719.11,123l-12.42,8.74-2.93-4.14-.55.41c-.06.05-6.43,4.84-10.63,4.22-4.9-.73-8.57,5.05-8.72,5.29l-.11.17.21,5.79a40.89,40.89,0,0,0-5.34,6.34c-2.13,3.28,1.36,6.86,2.46,7.87l-.9,4.23,4.86,3.43.88,6.24-1.06,7.57c-1.31,1-7.83,6.23-10.76,12.37-3.38,7.09,6.13,12.57,6.23,12.62l.39.22,3.38-2.71,8.42-1.51,2.1-7.1,7.22-.73,3.34-3.05,4.19,3.77,6.32,6.25L727.1,195l-1.33-5.11L718.55,184,715,173.2l-8.3-4.13-7.15-8.52.62-2.91,4.93-7.17,5.81-4,7.5,1.59,5.44,11.21-.77,3.6,6.43,3.66,17.8-7.42,9.14-.59,9.72,6.32,16.39,20.41,17.17,14.66c1.24,2.67,6.76,14.13,10,14.83l.14,0c3.45.41,6.39-11.06,7.21-14.59l0-.11-.39-3.39L826.67,186l24-14.86,14.21-1.78c1.28,1.29,7.36,7.06,15.62,8.2l.35.05,4.8-5.48.72,2.77,6.38,3.63,8.76-7.88,15.2,3.24,3.7-6.12c1.65-.46,7.13-2.1,8.07-4a1.5,1.5,0,0,0,.06-1.24C927.62,160.34,920.18,162.71,913.94,165.15Z"/><path class="cls-1" d="M666.93,157.67l.17-.1,3.43-6.45-7.09-1.5-2.12,10,1-.19A19.52,19.52,0,0,0,666.93,157.67Z"/><path class="cls-1" d="M776.45,12.19h0a.8.8,0,0,0,.32.13,1.1,1.1,0,0,0,.51,0c1.34-.38,3.29-4,4-5.54l1.82-2.9-.1-.29c-.1-.31-1.06-3-2.91-3.5a3.77,3.77,0,0,0-3,.78c-.22.16-1.31,1-1.36,1.61C775.34,8.34,775.54,11.61,776.45,12.19Z"/><path class="cls-1" d="M780.48,13.71l-2,5.32.06.21c.24.89,1.12,3.74,2.64,4.07l.15,0c1.44.14,5.47-1.58,6.13-2.83.58-1.09-.55-3.92-.69-4.24-.49-1.2-1.3-2.7-2.32-3a6.12,6.12,0,0,0-3.71.36Z"/><path class="cls-1" d="M968.64,119.38l.25,0,.21-.15c2.66-1.88,3.86-3.49,3.67-4.91a2.35,2.35,0,0,0-1.48-1.8l-.13,0-6.42.32-3-4c-.07-.12-.7-1.23-3.15-2.22-4.48-1.18-9.44,6.29-10.26,7.55l-8.87,7.07-4.27,5.28-14.58,6.79c-1.55.72-1.51,4.21-1.45,5.46-.42,1.33-.62,3.85,1.41,4.7a4.33,4.33,0,0,0,1,.34c2.46.52,4.68-1.55,4.78-1.65l2.86-5.9,2.2.07.81-.65H934l3.49-1.64,1.39-2.48,3.92-1.16,2-4.54,8.75-4.76,6.09,1.23,6.78-3.81A8.94,8.94,0,0,0,968.64,119.38Z"/><path class="cls-1" d="M977.19,147a9.92,9.92,0,0,0-3.68-.77h-.16l-2.93,1.53-2.09.49-3.39-.55-.65,3.06L965,155l2.29.48,10.83-3.64.11-.29C978.73,150.23,979.09,147.78,977.19,147Z"/><path class="cls-1" d="M1073,76.23a41.11,41.11,0,0,0-5.12-2.2c-2.37-.77-5.75,1.4-5.9,1.5l-13.63,9.32-3.63-.3a20.84,20.84,0,0,0-4.47-1c-.2-.49-.51-1.42-.79-2.26-1.6-4.78-2.56-7-3.71-7.14-1.81-.3-3.82,2.66-4.21,3.26l-.1.16,0,2.61-1.69,4.06-1.52-.32-3.84,1.36-2.64,3.58a14.26,14.26,0,0,0-2.8-1.37,3.84,3.84,0,0,0-4,1.94,7.92,7.92,0,0,0-.79,3.26L1004,97.53l-1.48,2.62-3.45-1.27-.25.12a11,11,0,0,0-2.26,1.41,1.05,1.05,0,0,0-.34.83c0,1,1.53,2.19,2.24,2.73a2.85,2.85,0,0,1,.63,1.78c-.09.41-1.53,1.44-3.11,2.23l-3.3-1.41-1.78,2.71-2.37-.51-.64,3a11.86,11.86,0,0,0-4.39,5.9,1.14,1.14,0,0,0,.36.9,7.25,7.25,0,0,0,3.17,1.55,4,4,0,0,0,.85.09c1.2,0,4.6-3.34,6.7-5.49l2.87.62,7.64-6.07,13.16-6.12,2.17-4.06c.35-.66.76-1.39,1.07-1.94a15.92,15.92,0,0,0,4.34,3.73c1.12.31,3.86-.58,4.75-.89,5-2.57,18.2-9.32,19.63-9.77,1.68-.53,9.88-2.63,10.72-2.85l3.85-.15c.43.14,2,.66,3.6,1.12l.14,0,.14,0a4,4,0,0,0,2.93-1.57,3.46,3.46,0,0,0,.51-2.56l-.69-2.88c1-.54,2.73-1.61,3-2.63A2.36,2.36,0,0,0,1073,76.23Z"/><path class="cls-1" d="M722.22,240.83l.24-.12,4.28-11.89,1.36-.88,2.72-7.42v-.12a3,3,0,0,0-1.85-2.58c-1.61-.74-5.42,0-5.84.11l-.81.16L715.38,209l-1.83-2.36-2.46-1.73a2,2,0,0,0-1.45-.27,1.76,1.76,0,0,0-1.14.84l-10.23,16.15.76,4.78,7.75-.78,3,3.07,7.15-3.73.66,4.55-6.39,9.82c-.54,1-2,2.89-3.13,2.65-1-.2-1.35-2.74-1.31-4.39v-.3l-6.43-6.06L696.7,238l-3.6.62-1-4.74,2.34-11,0-.15c0-1-.25-5.75-2.64-6.26h-.06a9.49,9.49,0,0,0-4,.27l-2.37-2.51-3.77-.62-1.77,4.26-2.5,1.83,2.19,5.71-2.23.05-3.12,5.7-2.08,3-5.55,1.88-5.12-1.76-.27.17c-1.19.77-7.12,4.67-7.88,6.05l0,.15c-.37,1.36.46,3.87.74,4.66l-1.51,5,1.34,3,.37,3.08-.22,1-1.63,5.19-4.76,5.05-1,2-6.1,3.58c-1.69-1.91-2-2-2.15-2s-.52-.11-2.47.95l-.26.15-.5,2.32.16,1.3-.65,2.37,0,.16a2.52,2.52,0,0,0,1.72,1.78,4.76,4.76,0,0,0,2.29,0l1.36.45,1.16-.56h1.48l2.46,7.61-1.32,3.09-1.6,1.91-4,11.91a30.39,30.39,0,0,0-3.58,2.36c-.27.3-3,2.89-4.73,4.56l-1.54,3.24-.69.32-1.52,4.81-1.65,1.21-2.91,7.56a11.52,11.52,0,0,0-3.55,2.74,25.89,25.89,0,0,1-4.52,3.67l-2.81,3.52L603.82,344l-14,18-2,2.58-5.89,3.37-2.91-.61-17.65,4.38-1.85,3-2.18,1.47-3.54,4.66-1.35,2.08-9.57,7.28-17.44,6.53-6.71-2.37-8.17,3-12-.06-1.22.85-5.65-1.2-5.6.86-1.82,2.87-1.2,2.26-6.47,1L469.76,396l2.1-3.35,1.44-1.05,2.28-5.86-.16-.27c-.35-.63-1.05-1.7-1.79-1.85a3.21,3.21,0,0,0-1.93.55,13.31,13.31,0,0,1-2.44-2.18,46,46,0,0,1,2.62-5.31l.92-.2.82.69,1.31,2.45,8.09-3,1.8.52.15,0c.14,0,3.35-.64,4.23-3.22.46-1.32.75-2.37.92-3l2.3.9.19,0c.62-.12,3.75-.8,4-2.69a5.9,5.9,0,0,0-.92-3.45l-.12-.18-4.92-1.83-17.09.83-2.31-.42H471c-.16,0-4.14.78-5.62,2.8l-.07.13a5.92,5.92,0,0,1-1.46,2l-2.32,3.14-1.13.86-1.06,3.22,1.76,1-1.3,4.19.82,3.28-.47,1.13-1.53,1.36-2.17,5.78-7.25,5.41-1.42.85-.74,1.48-3.44,1.58-.88,1.36-16.82,8.86-5.93-.8L418,415.57l-9.53,7-1.33.93-.45,2.14,2,11.57-1.15,1.14-.66,1.25,0-2-3.24-1.16-1.74,1.13L400.76,441l-3-1.32h-.14a2.65,2.65,0,0,0-2.63,1.66l0,.16v0a10.71,10.71,0,0,1-1.84,1.81l-.18.15-.09.42-.87-.19-3.9,1.45L387,444l-5.43-2.6L380.33,440c.62-1.06,1.48-2.88.79-3.85s-2.77-1.12-3.16-1.12l-4.86,1.57-.63,1-2.12-2.8-1.42-.81,4.64-2.27c.62-.36,2.07-1.31,2.09-2.33,0-.25.1-6-2.84-7.06-1.26-.38-12.87.58-16.42.91L352.94,421l-12-4.47-7,.33-4.8,0-3.89,1.28-11.81-4.33-2.08.33L307,412.55l-.55-1.34-3.63-1.43-.55-1.1-4.5-1.32-6.44,1.06-.89-1.21-1.5-.38c-.16-.76-.59-1.51-1.37-1.55a10.67,10.67,0,0,0-2,.2l-.28.06-1,1.56-3.4-2,.67-1.46,2-2.21,0-.28c0-.19-.35-4.61-3.06-5.4-2.23-.62-5.48,1.14-6.49,1.75l-2.52-.87-3.91-.09-4.17-.35-.8.53-2.45-1.2H260a2.26,2.26,0,0,0-2.34,2.09,9.58,9.58,0,0,0,.38,2.94l-1,.74-1.56,2L246,404.42l-7,2.86-.11.14a4.79,4.79,0,0,1-2.54,1.81c-1.57.18-8.31,1.42-8.6,1.47l-17.67,7.86-6.43-1.37-.24.18a8.08,8.08,0,0,0-1.72,1.63,19.22,19.22,0,0,1-3.85-1.07l-.25-.09-9.45,4L185,423.74l-.39,1.81-3.71.2-5.24-1.92-1.05-3.65-3.55-1.34c-.3-.65-1.05-2-2.17-2.26a4.58,4.58,0,0,0-4.82,3.08l-.15.45-.41-.08-.18.06c-4.34,1.63-4.44,2.52-4.48,2.82a37.74,37.74,0,0,0,.63,5.08c-1.06.69-3.8,2.6-4.35,4.2-.25,1.17.56,3.38.89,4.21l-1.13,3,0,.19c.17.7.57,1.89,1.41,2.07.4.09,1-.1,2.79-.68.95-.31,2.52-.83,2.79-.84a17.39,17.39,0,0,1,2.59,3.61l-.31,3.36,3.29,1.24a2.34,2.34,0,0,0,2,1.64,26.71,26.71,0,0,0,3.42-.4l.16,0L175,448l.12-.13,0,.12,3.51,1.65,1.11-.32a4.63,4.63,0,0,0,2.12,2.63c1.29.55,7.59.4,9.7.34l1.81,3.93,1.45.75,2.73,5.69,2.72,1.24,1.36,3.1,1.92,1.13,1.65-1.25.76-2.33,1.74-.25a5.73,5.73,0,0,0-1.2.86l-.11.15c-.3.54-1.75,3.32-1,4.78a1.58,1.58,0,0,0,1.11.83l.21,0a9.29,9.29,0,0,0,3.9-.36h0a1.65,1.65,0,0,0,1.12-.13,1.73,1.73,0,0,0,.87-1.28c.34-1.58-.8-4.69-2.61-5.22l.59-.09,2.35-5.42-.06-1,2.48-1,1.06-2.93-.57-1.67.21-.09,0,0,8.16-3.7,3.94,1.72-.09,0-.24,2.4c0,.53-.16,5.23,2.24,6.49a1.85,1.85,0,0,1,1.13,1.25,1.59,1.59,0,0,0,1.46,1.29,48.19,48.19,0,0,0,5.47.2h.23l.17-.15a24.88,24.88,0,0,1,3.63-2.54l6.22,2.22,1.76-.72,2,.72,4.18-2.12,2.05.64,3.75.43-.59,1.72.11.24c.12.27,1.27,2.62,3,3.25a4.66,4.66,0,0,0,3.63-.43l.15-.09,1.42-2.46,1.59.59.22-.08a3.5,3.5,0,0,0,1.92-2.27l1.18.43c.49,1.1,1.55,3.08,2.71,3.17a13,13,0,0,0,3.27-.66l1.16-.33a4.69,4.69,0,0,1,.44.8l.1.24,1.57.67c.26,1.76.78,3.74,1.78,4a4.63,4.63,0,0,0,2.48-.25l1.13.91c.28.38,1.35,1.68,2.63,1.5,1.08-.14,2.47-1.72,3.1-2.51a5.14,5.14,0,0,0,3.95-1.73l.19-.26,0-.21a1.22,1.22,0,0,1,0-.17,5.3,5.3,0,0,0,.15-.86l2.39,1.76.21.11a4.17,4.17,0,0,0,3.11-.59c1.09-.64,5.17-2.59,5.22-2.61l.14-.07.09-.12a3.64,3.64,0,0,0,.45-.77l1.3.55c1.94.67,2.39.2,2.54,0a3.65,3.65,0,0,0,.53-.89c.63.75,1.49,1.56,2.23,1.59a7.52,7.52,0,0,0,3.44-1,2.09,2.09,0,0,0,1.21,2.05c1.4.48,3.17,1.27,3.23,1.29.74.27,3.21,1.12,4.16.92a3.94,3.94,0,0,1,1.82-.09c.3.27,2.06,2.61,3.62,4.67,5.45,7.22,6.38,8.28,6.95,8.42a25.5,25.5,0,0,0,4,.1l2.84.49.15,0c2.2-.64,4.91-1.16,5.45-.91,1.34.61,3.32,2.06,3.48,3a17.45,17.45,0,0,1-.3,3.57l-.49,1.06L354,489.31l-2,2.92-7.47,3.86-4.35-1.19-1.06.77a3.38,3.38,0,0,0-2.45.21,2.71,2.71,0,0,0-1.29,2.1c0,.95,1.92,5.68,2.85,7.87l-4.25,1.7-.22.14a3.68,3.68,0,0,0-.88,1.37c-.14.48.14,1.23.84,2.23a2.74,2.74,0,0,0-2.68,3.08,2.76,2.76,0,0,0-1.88,1.88c-.25,1.14.34,2.36,1.66,3.47.13.49.49,2.19.79,3.72l2.48,4.75,3,3.28c-1.8,1.93-1.85,2.25-1.88,2.42a6.26,6.26,0,0,0,.55,2.25c.11.31.19.57.2.6,0,.24-.08,1.66-.08,1.66l0,.28c.06.14,1.34,3.53,3.12,4.78.66.47,1.34,1,2,1.52a26.42,26.42,0,0,0,2.79,2c1.19.7,4.47,3.14,5.13,3.64a3,3,0,0,0,1.94,1.43,3.46,3.46,0,0,0,2-.19,22.21,22.21,0,0,1,5.18-1.53l3.61-1.43,1.26-3.33-.18-.29,3.31-1.6.88-1.53,2.43-2.26,3.41-2.68a24.43,24.43,0,0,1,3.9-1.63s3.52.31,4.26-1.1a10.36,10.36,0,0,0,.72-2.4c.72-.44,1.5-1,1.66-1.58a8.24,8.24,0,0,0-.16-2.57c0-.16-.05-.31-.06-.44a29.24,29.24,0,0,1,4.4-3.06,21.35,21.35,0,0,1,3.53-.6c.69-.08,1.3-.15,1.68-.23l2-.37,4.09,1.36,2.27-.3,5.59-2.18-.87,1,0,.28c0,.24.31,2.31,1.71,2.61a6.66,6.66,0,0,0,2.23-.16,6.44,6.44,0,0,1,2-.15c.22.09.48.62.68,1,.34.68.72,1.44,1.52,1.49a3.78,3.78,0,0,0,3.19-2.38,4.16,4.16,0,0,0,0-2.54l.72.26.27.09.25-.12a2.52,2.52,0,0,0,1.33-1.72,3.43,3.43,0,0,0-.83-2.72,2.2,2.2,0,0,0-1.32-.68c0-.48-.05-1.28-.1-2.63v-.18l-2-3.08-4.54-4.19-4.24-4.6,2.19-5.15,2.64-.83,1.4-2.31a21.75,21.75,0,0,0,4.46-3.47,9.68,9.68,0,0,0,1.84-4l2,.87,1.34-.87,2.87.61-.78.91-2.28,6.59.75,1.65-.83.86-1.36,3.29,0,.17c.13,1.11.71,4.76,2.5,5.14s3.45-.2,3.71-1.42a8.2,8.2,0,0,0-.81-3.4l.8-1a3.39,3.39,0,0,0,1.63,2.88,6.28,6.28,0,0,1,2.45,2.37l.14.28,5,1.31,2.46-1.94c.38.32,1,.88,1.75,1.62a4.37,4.37,0,0,1,1.13,2.46h0l-.11.85-.53.05-1.62-2.5-5.11,1.61a6.93,6.93,0,0,1-2.49.66,8,8,0,0,1-2.13-1.36l-.21-.17-.27,0c-.52.05-2.23.29-2.61,1.31,0,.11-.13.28-.23.48-.44.86-1.11,2.16-.7,3.18a1.7,1.7,0,0,0,1.09,1,3.06,3.06,0,0,0,2.71-.15l2.5.84,1.41-.46,2.69.9,1.19-.51,2.05.76,1.17-.21,2.29.61.85-.46,2.39.78a2.1,2.1,0,0,0,1.78,0c1.07-.48,1.91-1.76,2.49-3.8a15,15,0,0,1,2.44-.1h.16l.14-.06a3.65,3.65,0,0,1,1.17-.33l.12,1.38a2.55,2.55,0,0,0-1.76,1.7,3.78,3.78,0,0,1-.21.62,2,2,0,0,0,1.16,3.09c1.81.8,12.26,4.47,13.71,5l1,1.11,1.4.76.32,1.23,2.51.75.48,1.29,3.05,1.05.21-.07a4.57,4.57,0,0,0,2.08-1.21,5.14,5.14,0,0,0,.5-1.93l6.2-3.26,1.36-1.19,1-3.12,1.19-.07.15-.4c.3-.79,1-2,1.67-2.07a6.13,6.13,0,0,1,1.93,0l4,0,.18,0a3.33,3.33,0,0,0,1.77-1.2,5.39,5.39,0,0,0,0-3l4-2,1.34.29,3.07-.22.68.22.69,1.07,2.45,1.59.6,1.28.37.44-.4-.12-3.33,1.21-1.11,2.78.46,2.18,0,.88-.67.43L505,527.15l-1.39.37-1,3-1.23.52-.89,3.59,0,.16c.34,1.46,1.6,6.27,3.43,6.91a14.14,14.14,0,0,0,4.42.48l5.06-2.61,1.66-4.28,3.72-1.16.61-1.24,3.42-1.68,2.26-5-1.95-5.3,1.31-1.21,1.46-2a3.21,3.21,0,0,0,2.21-1.11,8.66,8.66,0,0,0,1.28-2.61l.06-.2-.2-.55,3-1.16,2.5.85,1.28-.28,1.18.36,2-.12,1.2.47,1.3,0,.51.46,1.84,1.27,2.29,1.42,1.43,2.32-.29.53-1.17,1.39-.11.19a4.3,4.3,0,0,0,0,3.07,1.88,1.88,0,0,0,1.29.92,6.7,6.7,0,0,0,3.6-.22l.49-.19-.24-1.5,1.84-.84.16-.1c.33-.28,1.93-1.77,1.45-3.08-.34-1-2.13-2.48-2.8-3l-.31-1.32,1.2-3.37,1.76-.55.13-.17a3.46,3.46,0,0,0,.65-1.67l1,.7.31.23.35-.16s2.16-1,2.87-1.23a2.11,2.11,0,0,0,1.24-1.19,4.29,4.29,0,0,0-.23-3l.81.17.23-.15c.59-.4,1.31-1,1.43-1.55a3.88,3.88,0,0,0,0-.92l1,.45.91-.15a2.27,2.27,0,0,0,1.64,1.79c1.14.25,3.66-.67,4.61-1l1.2.56c.7,1.83,1.73,4.71,1.81,5.28a6.92,6.92,0,0,1-2.92,1.45l-1.76.89-4.77,1c-.44,0-1.7.21-2.36,2.32-.37-.12-.88-.31-1.3-.49l-.26-.11-2.7,1.15c-1,.5-1.56,1-1.67,1.48a9.74,9.74,0,0,0,.29,2.52l0,.13a9.8,9.8,0,0,1,.78,2.39,5.29,5.29,0,0,1-1.42,1.33l-.15.11-1.85,4.35-.45,1.52-.38,0-1,3.37.61,1.24-3.22,1-.66,2.4.17.26c.44.65,2.72,3.94,4.37,4.29s5.59-1.78,6.37-2.2l9.17-5.07,1.6-.12,2.47,1,1.56-.91,1.7.36L578,534l1.44.78a1.24,1.24,0,0,0,1.1,0c.68-.32,1.17-1.16,1.5-2.56l.63-.16L583,532l3.18-8.77,1.66-.53,1.94-6,4.79-2.69,7.16-2.82,6.56,2.47h.12a2.77,2.77,0,0,0,2.85-2.68,25.15,25.15,0,0,0,0-3.56l-.29-2.52c-1.57-5.34-3.87-14.49-3.33-16.35,0-.19.12-.55-.75-1.82l1.38-3-.43-1.23.81-2.78-.38-1.17,3.58-2.83,2.43-5.85-.54-1.2,2.17-2.45.78-2,1.38-.54,1.1-2,1.56-1.9,1-.73.79-1.64,1.07-1.56,1.14-1,.61-1,1.37-1,.42-1.6.19.21,9.59-4.15,2.26-2.47,1.72-4.79,1.63-1.06,6.75-15.58,3.7-12.66L652,408l-.39-9.07-.29-1.28,3.27-7.48-1.11-1.31.61-1.12,1.76-1.15,1.82-2.16,4.19-2.07.71-2.81h.82l-.91-2.85a7.65,7.65,0,0,1,1.5-.77l7.7,1.64,1.68-.49,3.18,1.33,4.59-.8c2.46.65,2.75.05,2.9-.25a6,6,0,0,0,.82-3.24l.47.11.26.07.24-.14a2.37,2.37,0,0,0,1.21-2c-.08-.89-.84-1.67-2.32-2.35l.41-.31,3.26-2.53-1.12-3.21,1.91-1,.91-2.22v-.85l4.31-1.73.49-2.3c0,.06.07.12.09.17l.16.29.33,0a3,3,0,0,0,2.12-.52,2.38,2.38,0,0,0,.87-1.7,20.66,20.66,0,0,0,.11-2.42,4.27,4.27,0,0,0,3.11-.11,4.69,4.69,0,0,0,1.3-1.21,4,4,0,0,0,1.07.53c1.64.46,3,.06,3.38-1,.32-.86,1.81-4.19,1.81-4.19h0l1.15-2,3.36-1.49.94-4.43-.07-.18s-.35-1,.19-1.3a18.51,18.51,0,0,1,2.52-1.28l.31-.14.64-3,1.64-1.18-.08-2.28,5.06-2.57-.09-2.64a4.28,4.28,0,0,0,.15-2.77,1.63,1.63,0,0,0-.9-.87,3.69,3.69,0,0,0-1.12-.25l.3-.69,1.47-1,2.39-6.54-.26-1.15.89-2.49-.34-1.85,1-3.8-3-7.08c.09-.32.3-.79.61-.88l.64-.16-.09-.34,0,0a2,2,0,0,0,.62-.92,4.34,4.34,0,0,0-.71-2.74,2.18,2.18,0,0,0-1.46-.95.86.86,0,0,1-.06-.42.77.77,0,0,1,.33-.56h0c.57-.33,2.11-1.45,2.12-2.2,0-.29-.56-2.82-1.68-7.58l-1.25-3.51a2.22,2.22,0,0,0-1-1c.15-.4.31-.92.53-1.61l.07-.24-2.43-5.46-3.3-1.31.4-2.9-.39-2,.22-3.35.86-4.34v-.2a4.28,4.28,0,0,0-.57-1.79H719l1.88-4.37-.16-.29a3.38,3.38,0,0,1-.32-2.56A4.38,4.38,0,0,1,722.22,240.83Z"/><path class="cls-2" d="M736.53,536.05h3.32V537h-3.32v3.24h-1V537h-3.84c-.17,1.2-.88,2.42-3.34,3.24a3.31,3.31,0,0,0-.65-.82c2.06-.64,2.73-1.54,2.94-2.42h-3.28v-.92h3.37v-1.11h1v1.11h3.78v-1.13h1Zm2.68-6.27a7.14,7.14,0,0,1-1.58,2.92,6.78,6.78,0,0,0,2.45,1.26,3.5,3.5,0,0,0-.58.75,7.22,7.22,0,0,1-2.5-1.41,9,9,0,0,1-2.43,1.4,3.62,3.62,0,0,0-.49-.78,8,8,0,0,0,2.29-1.25,8.17,8.17,0,0,1-1.22-1.89,13.58,13.58,0,0,1-.77,1.12c-.12-.15-.38-.51-.56-.72v2.46c0,.42-.06.64-.35.78a3.47,3.47,0,0,1-1.36.14,3.26,3.26,0,0,0-.24-.77h1c.12,0,.15,0,.15-.17V530.5h-1.78v4h-.74v-4h-1.78v4.19h-.8v-5h2.51v-2.31h.88v2.31h2.54v1.35a10.68,10.68,0,0,0,1.85-3.66l.85.24c-.14.42-.28.85-.46,1.26h3.86v.85Zm-10.28-.16a7.18,7.18,0,0,0-.83-1.63l.72-.27a6.41,6.41,0,0,1,.86,1.59Zm1.23,1.68a10.35,10.35,0,0,1-.71,2.24,2.93,2.93,0,0,0-.56-.28,8.2,8.2,0,0,0,.65-2.1Zm1.93,1.71a8.7,8.7,0,0,0-.56-1.71l.55-.14a8.12,8.12,0,0,1,.56,1.66Zm1.6-5.07a11.24,11.24,0,0,1-1,1.65l-.67-.25a17.13,17.13,0,0,0,.88-1.7Zm1.95,1.94a6.18,6.18,0,0,0,1.33,2.2,6,6,0,0,0,1.27-2.3h-2.56Z"/><path class="cls-2" d="M746.73,536.2c-.37-.41-1.14-1.19-1.77-1.78v5.8h-1v-5.44a13.36,13.36,0,0,1-2.14,1.76,4.74,4.74,0,0,0-.55-.94,12.06,12.06,0,0,0,4.38-4.6h-3.89v-1h2.2v-2.61h1v2.61h1.22l.18,0,.59.39a12.32,12.32,0,0,1-1.82,3.05c.66.52,1.89,1.6,2.24,1.91Zm7.71,2.6v1H746.6v-1h3.54V533h-3v-1h3v-4.44h1V532h3v1h-3v5.81Z"/><path class="cls-2" d="M757.58,529.87c.91-.1,3.55-.37,6.13-.58,1.53-.12,2.85-.21,3.78-.25v1.12a11.71,11.71,0,0,0-2.74.23,4.92,4.92,0,0,0-3.21,4.44c0,2.73,2.55,3.6,4.83,3.68l-.4,1.16c-2.59-.09-5.55-1.48-5.55-4.61a5.69,5.69,0,0,1,2.62-4.73c-1.5.17-5.07.5-6.58.83l-.13-1.22C756.86,529.92,757.31,529.9,757.58,529.87Zm9,4-.72.34a13.3,13.3,0,0,0-1.15-2l.72-.3A18.08,18.08,0,0,1,766.63,533.83Zm1.59-.6-.73.35a12.69,12.69,0,0,0-1.17-2l.68-.32A17,17,0,0,1,768.22,533.23Z"/><path class="cls-2" d="M772.87,529.41a34.63,34.63,0,0,0-.7,5.64,13,13,0,0,0,.14,2c.22-.63.56-1.49.8-2.06l.57.45c-.34,1-.85,2.41-1,3.09a2.35,2.35,0,0,0-.06.63,4.15,4.15,0,0,0,0,.49l-1,.07a16.87,16.87,0,0,1-.53-4.42,42.07,42.07,0,0,1,.64-5.9,8.78,8.78,0,0,0,.08-1l1.24.09A6.13,6.13,0,0,0,772.87,529.41Zm7.07-.2c0,.38,0,1,0,1.69a23.69,23.69,0,0,0,2.42-.32v1.08c-.77.13-1.58.21-2.42.27,0,1.41.11,2.81.17,4a9.3,9.3,0,0,1,2.77,1.81l-.62.94a11.64,11.64,0,0,0-2.11-1.63v.29c0,1.15-.53,2.26-2.42,2.26s-2.92-.74-2.92-2,1.05-2.12,2.89-2.12a6,6,0,0,1,1.3.13c0-1.08-.13-2.45-.14-3.6l-1.34,0c-.8,0-1.53,0-2.36-.1v-1c.8.07,1.54.11,2.38.11l1.32,0v-1.74c0-.23,0-.61-.05-.85H780A8,8,0,0,0,779.94,529.21Zm-2.45,9.37c1.18,0,1.53-.6,1.53-1.53a4.44,4.44,0,0,0,0-.49,4.76,4.76,0,0,0-1.43-.22c-1.05,0-1.79.45-1.79,1.13S776.48,538.58,777.49,538.58Z"/><path class="cls-2" d="M784.26,536.82l.91-.8a25.59,25.59,0,0,1,3.14,3.11l-.95.81A22.87,22.87,0,0,0,784.26,536.82Z"/><path class="cls-2" d="M798,537.71l.93-.66a1.93,1.93,0,0,0,1.78,1.15c1.1,0,1.65-.63,1.65-2.18v-7.15h1.29v7.27c0,1.77-.81,3.2-2.82,3.2A3,3,0,0,1,798,537.71Z"/><path class="cls-2" d="M805.85,534c0-3.3,1.81-5.3,4.39-5.3s4.38,2,4.38,5.3-1.81,5.35-4.38,5.35S805.85,537.28,805.85,534Zm7.44,0c0-2.58-1.22-4.16-3-4.16s-3.06,1.58-3.06,4.16,1.21,4.21,3.06,4.21S813.29,536.55,813.29,534Z"/><path class="cls-2" d="M816.83,528.87h1.3v10.29h-1.3Z"/><path class="cls-2" d="M820.93,528.87h1.34l3.74,6.49,1.1,2.11h.07c-.07-1-.17-2.18-.17-3.25v-5.35h1.23v10.29h-1.33l-3.74-6.49-1.11-2.12h0c0,1,.15,2.13.15,3.21v5.4h-1.23Z"/><path class="cls-2" d="M842.16,527.16l.84.44a8.75,8.75,0,0,0,0,12.47l-.84.43a9.37,9.37,0,0,1,0-13.34Z"/><path class="cls-2" d="M848.93,535.93a16,16,0,0,0-1.27-1.73v6h-1V534a15,15,0,0,1-2,3.67,5.46,5.46,0,0,0-.52-.95,14.5,14.5,0,0,0,2.41-4.39h-2.15v-1h2.29v-2.13c-.69.14-1.4.26-2,.35a4.12,4.12,0,0,0-.32-.81,20.66,20.66,0,0,0,4.43-1.12l.72.79a12.35,12.35,0,0,1-1.77.56v2.36h1.75v1h-1.75v.86c.43.36,1.62,1.59,1.9,1.92Zm8.12-1.69c-1.19,3.51-4.14,5.22-7.5,6a3.21,3.21,0,0,0-.54-.88,11.1,11.1,0,0,0,4.26-1.68,11.49,11.49,0,0,0-2-1.51c-.42.28-.88.54-1.37.8a2.83,2.83,0,0,0-.66-.72,9.08,9.08,0,0,0,4.12-3.57,11.57,11.57,0,0,1-3.51,1.62,3.75,3.75,0,0,0-.54-.84A10.18,10.18,0,0,0,852.7,532a11.42,11.42,0,0,0-1.75-1.4,13.22,13.22,0,0,1-1.22.75,3.16,3.16,0,0,0-.67-.7,8.27,8.27,0,0,0,3.55-3.18l1,.19a8.06,8.06,0,0,1-.7,1h2.55l.2,0,.64.31a8.08,8.08,0,0,1-3,3.75l1,.18a12.69,12.69,0,0,1-.77,1.14h2.56l.2,0Zm-4.87-4.72a7,7,0,0,1-.56.52,10.9,10.9,0,0,1,1.81,1.38,6.45,6.45,0,0,0,1.55-1.9Zm.66,5.35c-.25.25-.52.49-.81.73a9.87,9.87,0,0,1,2,1.48,6.66,6.66,0,0,0,1.67-2.21Z"/><path class="cls-2" d="M862.82,527.77a19.79,19.79,0,0,1-1.43,2.88v9.53h-1v-8a14.7,14.7,0,0,1-1.55,1.85,7.73,7.73,0,0,0-.59-1,15.61,15.61,0,0,0,3.58-5.52Zm8.56,11v1h-9v-1h4v-3.5h-3.23v-1h3.23v-3.07h-3.69v-1h4.78a19.43,19.43,0,0,0-2.9-2.05l.69-.75a20.13,20.13,0,0,1,3.08,2.12l-.61.68h3.41v1h-3.73v3.07h3.32v1h-3.32v3.5Z"/><path class="cls-2" d="M880.43,533.83a1.49,1.49,0,1,1-1.48-1.48A1.47,1.47,0,0,1,880.43,533.83Z"/><path class="cls-2" d="M896,533.4a9.62,9.62,0,0,1-2.28,3.54,12.06,12.06,0,0,0,5.65,2.3,4.14,4.14,0,0,0-.69,1,12.32,12.32,0,0,1-5.77-2.55,15.11,15.11,0,0,1-5.74,2.61,4.27,4.27,0,0,0-.66-1,13.46,13.46,0,0,0,5.63-2.35,10.93,10.93,0,0,1-2.19-3.47l1-.31a8.89,8.89,0,0,0,2,3.08,8.66,8.66,0,0,0,2-3.15Zm-4.56-2.3a15,15,0,0,1-3.88,3.49,5.64,5.64,0,0,0-.86-.83,11.44,11.44,0,0,0,3.69-3.07Zm7.58-.84h-12.2v-1h5.54v-1.83h1v1.83h5.62Zm-3.63.38a21.76,21.76,0,0,1,3.75,3.09l-.91.72a20.72,20.72,0,0,0-3.67-3.18Z"/><path class="cls-2" d="M903.38,533.57a10.85,10.85,0,0,0-2.55-1.49l.57-.78a11.23,11.23,0,0,1,2.57,1.4Zm1.13,1.92c-.68,1.48-1.61,3.23-2.38,4.53l-.88-.65a47.24,47.24,0,0,0,2.48-4.53Zm-.46-5.61a10.82,10.82,0,0,0-2.48-1.57l.56-.75a9.71,9.71,0,0,1,2.52,1.5Zm1.89,4.13h1v1.48a5.25,5.25,0,0,1-2.11,4.7,4.43,4.43,0,0,0-.74-.68,4.43,4.43,0,0,0,1.89-4Zm-1.09-1.52,1.61,0a15.33,15.33,0,0,0,1.12-2.26h-2.9v-.94h3.7v-1.81h1v1.81h4.11v.94h-4.77c-.38.73-.82,1.54-1.24,2.21l3.81-.14a15.22,15.22,0,0,0-1.15-1.13l.81-.46a14.57,14.57,0,0,1,2.61,2.91l-.86.5a9.07,9.07,0,0,0-.67-1l-7.12.35Zm3.53,1.61h.92v5.52h-.92Zm4.13,5.07a.48.48,0,0,0,.31-.07c.06,0,.11-.16.14-.38s0-.73.06-1.39a2.28,2.28,0,0,0,.73.38,9.09,9.09,0,0,1-.14,1.6.84.84,0,0,1-.38.55,1.4,1.4,0,0,1-.66.15h-.69a1.24,1.24,0,0,1-.77-.24c-.19-.19-.26-.4-.26-1.25V534h1v4.61c0,.28,0,.42.07.49a.36.36,0,0,0,.24.06Z"/><path class="cls-2" d="M919.6,534.5l-1.48.47v4c0,.59-.12.88-.47,1.06a4.7,4.7,0,0,1-1.85.19,4.09,4.09,0,0,0-.31-1c.63,0,1.21,0,1.39,0s.24-.06.24-.27v-3.69l-1.88.58-.24-1c.58-.14,1.32-.35,2.12-.59v-3h-1.88v-1h1.88v-2.81h1v2.81h1.36v1h-1.36V534l1.35-.39Zm8.37,5h-6.33v.72h-1v-8.09a11.16,11.16,0,0,1-1,1.33,7.55,7.55,0,0,0-.7-.86,12.39,12.39,0,0,0,2.77-5.17l1,.25a19,19,0,0,1-.9,2.39h2.14a18.23,18.23,0,0,0,1-2.59l1.09.25c-.31.78-.69,1.63-1,2.34h2.78V531h-2.85v1.88h2.52v.9h-2.52v1.9h2.52v.91h-2.52v1.95H928ZM923.92,531h-2.28v1.88h2.28Zm0,2.78h-2.28v1.9h2.28Zm-2.28,4.76h2.28v-1.95h-2.28Z"/><path class="cls-2" d="M932.34,537.42a4.08,4.08,0,0,0,3.53,1.57c1.54.07,4.76,0,6.44-.09a4.45,4.45,0,0,0-.34,1c-1.56.07-4.52.09-6.09,0a4.89,4.89,0,0,1-4-1.65c-.62.6-1.26,1.19-1.95,1.79l-.55-1a21.7,21.7,0,0,0,1.94-1.61V533.9h-1.78v-1h2.76Zm-.42-6.71a10.23,10.23,0,0,0-2.22-2.34l.8-.59a10.77,10.77,0,0,1,2.26,2.28Zm2.29.78a10.53,10.53,0,0,1-1.23,1.26,6.65,6.65,0,0,0-.8-.79,11,11,0,0,0,3.27-4.49l1,.28a12.58,12.58,0,0,1-.94,1.87h2.23a15.46,15.46,0,0,0,.78-2l1.11.24c-.27.59-.56,1.25-.86,1.81h3v.89h-3.1V532h2.76v.88h-2.76v1.47h2.73v.87h-2.73v1.51H942v.91h-7.79Zm3.45-1h-2.44V532h2.44Zm0,2.34h-2.44v1.47h2.44Zm0,2.34h-2.44v1.51h2.44Z"/><path class="cls-2" d="M955.61,536A7.77,7.77,0,0,1,954,538.2c.39.74.85,1.15,1.39,1.15s.56-.34.63-1.6a2.25,2.25,0,0,0,.71.47c-.17,1.57-.48,2-1.4,2a2.38,2.38,0,0,1-2-1.45,10.1,10.1,0,0,1-2.44,1.41,6.55,6.55,0,0,0-.56-.66,9,9,0,0,0,2.62-1.54,13.66,13.66,0,0,1-.71-2.62H950c0,.28-.06.54-.08.81a16.26,16.26,0,0,1,1.93,1.37l-.59.72a13.36,13.36,0,0,0-1.51-1.18,5,5,0,0,1-1.84,3.08,2.7,2.7,0,0,0-.63-.68c1.28-.89,1.66-2.46,1.8-4.12h-1v-.79l-.43.62c-.19-.45-.62-1.3-1-2v7h-.94v-6.48a15,15,0,0,1-1.54,3.81,5.73,5.73,0,0,0-.51-.86,16.63,16.63,0,0,0,2-5.27H944v-.95h1.76v-3h.94v3h1.51v.95h-1.51V532c.37.5,1.32,2,1.53,2.42l-.06.09h3.93a49.93,49.93,0,0,1-.45-7.11h.94a44.75,44.75,0,0,0,.42,7.11h1.9a7.52,7.52,0,0,0-1.18-.82l.49-.5a6.9,6.9,0,0,1,1.49,1l-.29.31h1.14v.84h-3.41a12.5,12.5,0,0,0,.5,1.93,6.52,6.52,0,0,0,1.11-1.71Zm-7.15-3.31c.29-.39.61-.87.93-1.36a10.1,10.1,0,0,0-1.48-1.43l.43-.57.34.25a16.27,16.27,0,0,0,.84-2l.81.32c-.36.69-.78,1.52-1.13,2.09a4.29,4.29,0,0,1,.6.62c.34-.58.64-1.15.87-1.64l.75.36a34.94,34.94,0,0,1-2.1,3.27l1.38-.09a8.75,8.75,0,0,0-.38-.87l.64-.24a7.42,7.42,0,0,1,.79,2l-.69.3c0-.14-.06-.31-.11-.48-1,.08-2,.18-2.83.27l-.16-.83Zm4.79-.14c.26-.35.56-.77.84-1.23a9.07,9.07,0,0,0-1.47-1.42l.43-.57c.1.08.21.15.32.25a16.48,16.48,0,0,0,.86-2l.81.32c-.35.7-.8,1.52-1.15,2.08.22.22.45.43.62.63.33-.58.64-1.15.87-1.64l.75.36c-.59,1-1.33,2.2-2,3.13l1.48-.1a7.46,7.46,0,0,0-.4-.8l.64-.27a7.69,7.69,0,0,1,.87,2l-.67.32a3.23,3.23,0,0,0-.17-.57c-1,.11-2,.18-2.93.26l-.15-.78Z"/><path class="cls-2" d="M962.28,535.61c-.2-.45-.69-1.3-1.1-2v6.59h-.95v-6.55a14.34,14.34,0,0,1-1.71,3.91,5.36,5.36,0,0,0-.53-.89,15.31,15.31,0,0,0,2.13-5.26h-1.85v-1h2v-3h.95v3h1.6v1h-1.6v1c.4.52,1.43,2.07,1.67,2.45Zm8.76,2.33h-.89v1.19c0,.49-.1.75-.48.91a6.3,6.3,0,0,1-1.89.14,4,4,0,0,0-.29-.84c.67,0,1.27,0,1.47,0s.22-.07.22-.24v-1.17H964.4v2.24h-.95v-2.24h-1v-.82h1v-3.51h2.8v-.83h-3.5V532h1.93V531h-1.33v-.77h1.33v-.91h-1.61v-.78h1.61v-1.15h1v1.15h2.25v-1.15h1v1.15h1.74v.78h-1.74v.91h1.53V531h-1.53V532h2v.8h-3.68v.83h2.94v3.51H971Zm-6.64-3.55v1h1.85v-1Zm0,2.73h1.85v-1H964.4Zm1.24-6.85h2.25v-.91h-2.25Zm0,1.71h2.25V531h-2.25Zm1.57,2.41v1h2v-1Zm2,2.73v-1h-2v1Z"/><path class="cls-2" d="M973,540.5l-.84-.43a8.75,8.75,0,0,0,0-12.47l.84-.44a9.37,9.37,0,0,1,0,13.34Z"/><path class="cls-2" d="M993,539.59l-.65-1a10.3,10.3,0,0,0,1.2-.18,4.24,4.24,0,0,0,3.56-4.16,3.9,3.9,0,0,0-3.74-4.06,27.51,27.51,0,0,1-.84,4c-.86,2.89-2,4.36-3.27,4.36s-2.49-1.43-2.49-3.74a6,6,0,0,1,6.12-5.7,5.08,5.08,0,0,1,5.37,5.15C998.22,537.19,996.29,539.16,993,539.59Zm-3.69-2.34c.66,0,1.4-.94,2.11-3.31a23.42,23.42,0,0,0,.79-3.78,4.9,4.9,0,0,0-4.35,4.54C987.82,536.47,988.64,537.25,989.27,537.25Z"/><path class="cls-2" d="M733.13,549.28v10.91h-1v-2.53l-4.89.78-.18-1.05,1.36-.17v-7.94h-1.09v-1h6.79v1Zm-1,0h-2.73v1.86h2.73Zm0,2.79h-2.73V554h2.73Zm-2.73,5c.85-.11,1.79-.25,2.73-.39V555h-2.73Zm10.24-7.58a17,17,0,0,1-2.27,7.11,7.74,7.74,0,0,0,2.89,2.6,4.41,4.41,0,0,0-.75.86,8.76,8.76,0,0,1-2.78-2.54,10,10,0,0,1-2.86,2.49,4.29,4.29,0,0,0-.69-.84,8.44,8.44,0,0,0,2.94-2.59,19.56,19.56,0,0,1-2.08-6l1-.18a18.45,18.45,0,0,0,1.72,5.18,15.17,15.17,0,0,0,1.74-5.24h-4.72v-1h5l.2,0Z"/><path class="cls-2" d="M745.12,552c.58-1.43,2-3.18,3.81-3.18s3.2,1.86,3.2,4.8c0,3.9-2.44,5.61-5.91,6.24l-.66-1c3-.45,5.42-1.7,5.42-5.21,0-2.22-.76-3.81-2.23-3.81-1.75,0-3.37,2.55-3.54,4.38a6.27,6.27,0,0,0,0,1.72l-1.08.09a16.92,16.92,0,0,1-.16-2.23,36.46,36.46,0,0,1,.44-4.52c0-.42.08-.83.11-1.21l1.23,0A27.64,27.64,0,0,0,745.12,552Z"/><path class="cls-2" d="M757.68,555.54a12.54,12.54,0,0,1-1,3.56,3.57,3.57,0,0,0-.81-.39,10,10,0,0,0,.91-3.34Zm1.64-1.12v5.83h-.94v-5.77l-2.29.11-.08-.94.92,0a11.8,11.8,0,0,0,.94-1.24,12.52,12.52,0,0,0-1.83-2l.53-.68q.21.16.42.36a20,20,0,0,0,1.25-2.61l.92.35a24.84,24.84,0,0,1-1.59,2.82,9.81,9.81,0,0,1,.85,1c.57-.89,1.11-1.8,1.5-2.55l.89.39a44.81,44.81,0,0,1-2.89,4.17c.7,0,1.47-.07,2.24-.09a12.3,12.3,0,0,0-.69-1.25l.77-.34a12.35,12.35,0,0,1,1.39,2.85l-.83.39a4,4,0,0,0-.27-.8Zm1.28.9a11.57,11.57,0,0,1,.94,2.69l-.82.28a14.14,14.14,0,0,0-.9-2.72Zm8.35,3.56v1H760.8v-1h1.49V548.23h5.59v10.65Zm-5.66-9.71v2.58h3.56v-2.58Zm3.56,3.51h-3.56v2.58h3.56Zm-3.56,6.2h3.56V556.2h-3.56Z"/><path class="cls-2" d="M774.07,548.93c.74,0,2.58-.1,3.17-.14a3.17,3.17,0,0,0,.7-.15l.7.57a4.14,4.14,0,0,0-.37.46c-.39.63-1,2.06-1.6,3.36a13.07,13.07,0,0,1,3.86,1.12c.05-.35.08-.7.11-1s0-.9,0-1.29l1.13.13a19.1,19.1,0,0,1-.29,2.7,18.18,18.18,0,0,1,1.69,1.08l-.51,1.2a15.84,15.84,0,0,0-1.46-1.11,6.62,6.62,0,0,1-3.68,4.17l-.93-.77a6,6,0,0,0,3.67-4,10.12,10.12,0,0,0-4-1.28,30.34,30.34,0,0,1-1.76,3.67,2,2,0,0,1-1.77,1,1.79,1.79,0,0,1-1.82-1.92c0-2.06,1.91-3.64,4.67-3.71.49-1.1,1-2.32,1.46-3.19l-2.92.14c-.31,0-.7,0-1,.08l-.06-1.13C773.38,548.92,773.79,548.93,774.07,548.93Zm-1.3,8.59a1,1,0,0,0,.84-.49,19.33,19.33,0,0,0,1.52-3.06c-2,.16-3.2,1.39-3.2,2.59A.86.86,0,0,0,772.77,557.52Z"/><path class="cls-2" d="M787.79,549.56a32.2,32.2,0,0,0-.7,5.36,16.28,16.28,0,0,0,.12,2c.24-.63.58-1.47.81-2l.59.45a27.67,27.67,0,0,0-1,3.14,2.47,2.47,0,0,0-.07.63c0,.15,0,.35,0,.49l-1,.07a17.7,17.7,0,0,1-.52-4.5,40.8,40.8,0,0,1,.63-5.62,5.63,5.63,0,0,0,.1-1l1.25.11C788,548.86,787.84,549.31,787.79,549.56Zm3.26,7.13c0,.64.46,1.26,2.37,1.26a15.52,15.52,0,0,0,3.47-.36l0,1.17a18.72,18.72,0,0,1-3.5.3c-2.36,0-3.41-.79-3.41-2.1a7.86,7.86,0,0,1,.24-1.66l1,.1A4.9,4.9,0,0,0,791.05,556.69Zm5.42-7v1.13a32.59,32.59,0,0,1-5.76,0V549.7A24.11,24.11,0,0,0,796.47,549.69Z"/><path class="cls-2" d="M804.64,552.54a20,20,0,0,0-2.06-1.2,5.05,5.05,0,0,1-2.59,1.89,3,3,0,0,0-.6-.7,3.65,3.65,0,0,0,2.55-2h-2.2v-.74h2.39a3.38,3.38,0,0,0,0-.54V549h-2v-.72h2v-.86h1v.86h2.2V549h-2.2v.28c0,.17,0,.35,0,.54h2.39v.74h-2.55l0,.08a19.21,19.21,0,0,1,2.33,1.28Zm0,6.24a20.2,20.2,0,0,1-4.3,1.51,5.52,5.52,0,0,0-.76-.77,18.75,18.75,0,0,0,4.12-1.16Zm4.72-8.21a5,5,0,0,0,2.82,1.62,3.88,3.88,0,0,0-.62.77,5.55,5.55,0,0,1-2.9-1.94,4.1,4.1,0,0,1-2.33,1.57h4v5.61h-9v-5.61h4.82a3.27,3.27,0,0,0-.53-.66,3.42,3.42,0,0,0,2.27-1.36h-2v-.74h2.24a1.84,1.84,0,0,0,0-.4V549h-2v-.72h2v-.86h1v.86h2.41V549h-2.41v.42c0,.13,0,.27,0,.4h2.69v.74Zm0,2.73h-7v.92h7Zm0,1.61h-7v1h7Zm0,1.64h-7v.94h7Zm-1.59,1.82a39.21,39.21,0,0,1,4.24,1.35l-1.18.51a33.76,33.76,0,0,0-3.94-1.34Z"/><path class="cls-2" d="M826,558.92c0,.64-.16,1-.57,1.13a7.46,7.46,0,0,1-2.34.2,3.33,3.33,0,0,0-.38-1c.88,0,1.69,0,1.93,0s.34-.1.34-.32v-9.77h-9.46v11.11h-1v-12.1H826Zm-2.2-7.4h-7.06v-.91h7.06Zm-5.39,5.88v1h-1V553H823v4.42Zm0-3.54v2.65H822v-2.65Z"/><path class="cls-2" d="M832.26,549.66c-.07,1.58-.17,4.89-.17,7,0,1.54,1,2.09,2.3,2.09a5.83,5.83,0,0,0,5-2.9l.8.95a7,7,0,0,1-5.86,3.1c-2,0-3.4-.84-3.4-3.12,0-2.08.14-5.62.14-7.09a7.77,7.77,0,0,0-.11-1.43h1.41A11.49,11.49,0,0,0,832.26,549.66Z"/><path class="cls-2" d="M842.35,556.82l.91-.8a25.59,25.59,0,0,1,3.14,3.11l-1,.81A22.82,22.82,0,0,0,842.35,556.82Z"/><path class="cls-2" d="M867.53,549.34v10.84h-1.08v-.72H859v.79h-1V549.34h3.51a17.93,17.93,0,0,0,.55-1.92l1.19.15c-.21.6-.46,1.23-.7,1.77Zm-8.55,1v2.09h7.47v-2.09Zm0,3.07v2h7.47v-2Zm7.47,5.08v-2.07H859v2.07Z"/><path class="cls-2" d="M873.34,553.5a11.68,11.68,0,0,0-2.7-1.4l.57-.8a11.44,11.44,0,0,1,2.74,1.3Zm-2.24,5.84a40.35,40.35,0,0,0,2.62-4.49l.77.68c-.73,1.47-1.69,3.2-2.51,4.51Zm2.93-9.49a10.31,10.31,0,0,0-2.63-1.54l.57-.78a10.41,10.41,0,0,1,2.68,1.47Zm6.58-.29a20.59,20.59,0,0,1,2.93,4l-.95.53a10.17,10.17,0,0,0-.65-1.13c-2.74.17-5.57.31-7.52.42l-.13-1,1.34-.06a31.13,31.13,0,0,0,1.91-4.87l1.2.29c-.58,1.46-1.32,3.21-2,4.54l4.58-.22c-.51-.71-1.08-1.42-1.61-2Zm-5.14,5.07h6.8v5.56h-1v-.57h-4.75v.61h-1Zm1,1v3.07h4.75V555.6Z"/><path class="cls-2" d="M889,547.78a23.84,23.84,0,0,1-1.25,3v9.47h-1v-7.75a13.71,13.71,0,0,1-1.19,1.61,7.74,7.74,0,0,0-.6-1,16.39,16.39,0,0,0,3.07-5.56Zm5.28,3.47a13.94,13.94,0,0,0,3.78,5.89,3.86,3.86,0,0,0-.79.82,15.77,15.77,0,0,1-3.67-6.13v4.86h2.26v.95h-2.26v2.51h-1v-2.51h-2.29v-.95h2.29v-4.76a16.17,16.17,0,0,1-3.72,6.06,4.62,4.62,0,0,0-.75-.78,14.46,14.46,0,0,0,3.84-6h-3.3v-1h3.93v-2.76h1v2.76h4.18v1Z"/><path class="cls-2" d="M903.7,555.56a21.16,21.16,0,0,0-1.1-2v6.67h-1v-6.55a14.66,14.66,0,0,1-1.7,3.91,6.21,6.21,0,0,0-.54-.89,15.11,15.11,0,0,0,2.13-5.26h-1.85v-1h2v-3h1v3h1.59v1H902.6v.89c.39.51,1.44,2.1,1.68,2.47Zm3.69,2c-1.12.66-2.31,1.35-3.27,1.88l-.49-.87c.89-.45,2.2-1.16,3.48-1.86Zm2.34-1.12a6.15,6.15,0,0,0,2.77,2.34,4.58,4.58,0,0,0-.67.84,7.29,7.29,0,0,1-3.11-3.28v2.71c0,.56-.11.84-.48,1a5.41,5.41,0,0,1-1.86.18,3.44,3.44,0,0,0-.3-1c.62,0,1.22,0,1.41,0s.22,0,.22-.23v-5.24h-3.53v-.88h3.53v-1.08h-2.83V551h2.83v-1h-3.24v-.85h1.75a9.14,9.14,0,0,0-.7-1.45l.82-.26a7.57,7.57,0,0,1,.84,1.61l-.25.1h2.43l-.12-.05a11.8,11.8,0,0,0,.81-1.73l1,.29c-.29.52-.6,1.07-.87,1.49h1.85v.85h-3.33v1h3v.82h-3v1.08h3.53v.88h-3.53v.56a8.4,8.4,0,0,0,.84,1.82,13.79,13.79,0,0,0,1.72-1.88l.8.56a18.11,18.11,0,0,1-1.91,1.91Zm-4.37-2.07a9.65,9.65,0,0,1,1.44,1.81l-.76.53a10.12,10.12,0,0,0-1.4-1.88Z"/><path class="cls-2" d="M920.81,559.59l-.66-1a10.5,10.5,0,0,0,1.21-.18,4.23,4.23,0,0,0,3.55-4.16,3.89,3.89,0,0,0-3.74-4.06,26.27,26.27,0,0,1-.84,4c-.85,2.89-2,4.36-3.26,4.36s-2.49-1.43-2.49-3.74a6,6,0,0,1,6.12-5.7,5.07,5.07,0,0,1,5.36,5.15C926.06,557.19,924.13,559.16,920.81,559.59Zm-3.7-2.34c.66,0,1.4-.94,2.12-3.31a22.39,22.39,0,0,0,.78-3.78,4.89,4.89,0,0,0-4.34,4.54C915.67,556.47,916.48,557.25,917.11,557.25Z"/><path class="cls-2" d="M933.07,555.93a16,16,0,0,0-1.27-1.73v6h-1V554a15,15,0,0,1-2,3.67,4.87,4.87,0,0,0-.52-.95,14.5,14.5,0,0,0,2.41-4.39H928.5v-1h2.29v-2.13c-.69.14-1.4.26-2,.35a3.58,3.58,0,0,0-.32-.81,20.66,20.66,0,0,0,4.43-1.12l.72.79a12.35,12.35,0,0,1-1.77.56v2.36h1.75v1H931.8v.86c.43.36,1.62,1.59,1.9,1.92Zm8.12-1.69c-1.19,3.51-4.14,5.22-7.5,6a3.21,3.21,0,0,0-.54-.88,11.1,11.1,0,0,0,4.26-1.68,11.49,11.49,0,0,0-2-1.51c-.42.28-.88.54-1.37.8a2.83,2.83,0,0,0-.66-.72,9.08,9.08,0,0,0,4.12-3.57,11.62,11.62,0,0,1-3.5,1.62,4.19,4.19,0,0,0-.55-.84,10.18,10.18,0,0,0,3.39-1.48,11.42,11.42,0,0,0-1.75-1.4,13.22,13.22,0,0,1-1.22.75,3.16,3.16,0,0,0-.67-.7,8.27,8.27,0,0,0,3.55-3.18l1,.19a8.06,8.06,0,0,1-.7,1h2.55l.2,0,.64.31a8.08,8.08,0,0,1-3,3.75l1,.18a12.69,12.69,0,0,1-.77,1.14h2.56l.2,0Zm-4.87-4.72a7,7,0,0,1-.56.52,10.9,10.9,0,0,1,1.81,1.38,6.45,6.45,0,0,0,1.55-1.9Zm.66,5.35c-.25.25-.52.49-.81.73a9.87,9.87,0,0,1,2,1.48,6.66,6.66,0,0,0,1.67-2.21Z"/><path class="cls-2" d="M947.08,547.77a19.79,19.79,0,0,1-1.43,2.88v9.53h-1v-8a14.7,14.7,0,0,1-1.55,1.85,7.73,7.73,0,0,0-.59-1,15.61,15.61,0,0,0,3.58-5.52Zm8.56,11v1h-9v-1h4v-3.5h-3.22v-1h3.22v-3.07H947v-1h4.78a19.43,19.43,0,0,0-2.9-2.05l.69-.75a19.64,19.64,0,0,1,3.08,2.12l-.6.68h3.4v1H951.7v3.07H955v1H951.7v3.5Z"/><path class="cls-2" d="M960.45,550c.25.47.53,1,.81,1.61a14.48,14.48,0,0,1,5-1.49c1.94,0,3.13,1.1,3.13,2.63s-1,2.83-3.22,2.83a6.62,6.62,0,0,1-2.11-.39l0-1.1a5,5,0,0,0,2,.45c1.53,0,2.18-.84,2.18-1.85,0-.82-.66-1.58-2-1.58a12.61,12.61,0,0,0-4.59,1.42c.19.39.37.78.54,1.16.77,1.74,1.65,4.34,2.13,5.88l-1.21.32a43.2,43.2,0,0,0-1.9-5.74c-.19-.41-.35-.8-.54-1.16-1.07.52-2.06,1-2.7,1.31l-.53-1.14a10.32,10.32,0,0,0,1.15-.38c.47-.18,1-.44,1.66-.72-.29-.61-.56-1.15-.79-1.54s-.47-.71-.69-1l1.15-.46A9.41,9.41,0,0,0,960.45,550Zm1.9-1.56.8-.58a23.36,23.36,0,0,1,2.06,1.78l-.8.63A22.27,22.27,0,0,0,962.35,548.43Z"/><path class="cls-2" d="M981.17,553.4a9.77,9.77,0,0,1-2.29,3.54,12.11,12.11,0,0,0,5.65,2.3,4.14,4.14,0,0,0-.69,1,12.41,12.41,0,0,1-5.77-2.55,15.11,15.11,0,0,1-5.74,2.61,4.27,4.27,0,0,0-.66-1,13.46,13.46,0,0,0,5.63-2.35,10.73,10.73,0,0,1-2.18-3.47l1-.31a9,9,0,0,0,2,3.08,8.4,8.4,0,0,0,2-3.15Zm-4.57-2.3a14.79,14.79,0,0,1-3.88,3.49,5.57,5.57,0,0,0-.85-.83,11.4,11.4,0,0,0,3.68-3.07Zm7.58-.84H972v-1h5.55v-1.83h1v1.83h5.62Zm-3.63.38a21.86,21.86,0,0,1,3.76,3.09l-.92.72a20.37,20.37,0,0,0-3.67-3.18Z"/><path class="cls-2" d="M988.62,553.57a10.65,10.65,0,0,0-2.55-1.49l.58-.78a11.36,11.36,0,0,1,2.56,1.4Zm1.14,1.92c-.69,1.48-1.61,3.23-2.38,4.53l-.89-.65a43.21,43.21,0,0,0,2.48-4.53Zm-.46-5.61a11,11,0,0,0-2.48-1.57l.56-.75a9.88,9.88,0,0,1,2.52,1.5Zm1.89,4.13h.95v1.48a5.27,5.27,0,0,1-2.1,4.7,5.38,5.38,0,0,0-.74-.68,4.45,4.45,0,0,0,1.89-4Zm-1.1-1.52,1.62,0a17.59,17.59,0,0,0,1.12-2.26h-2.9v-.94h3.69v-1.81h1v1.81h4.11v.94H994c-.38.73-.83,1.54-1.25,2.21l3.81-.14a13.56,13.56,0,0,0-1.15-1.13l.81-.46a14.57,14.57,0,0,1,2.61,2.91l-.85.5a9.31,9.31,0,0,0-.68-1l-7.11.35Zm3.53,1.61h.93v5.52h-.93Zm4.14,5.07a.45.45,0,0,0,.3-.07.56.56,0,0,0,.15-.38c0-.22,0-.73,0-1.39a2.52,2.52,0,0,0,.73.38,8.21,8.21,0,0,1-.14,1.6.81.81,0,0,1-.38.55,1.4,1.4,0,0,1-.66.15h-.68a1.2,1.2,0,0,1-.77-.24c-.2-.19-.27-.4-.27-1.25V554h1v4.61c0,.28,0,.42.07.49a.33.33,0,0,0,.23.06Z"/><path class="cls-2" d="M730.06,569.56a33.29,33.29,0,0,0-.7,5.36,14.48,14.48,0,0,0,.13,2c.24-.63.57-1.47.81-2l.59.45a28,28,0,0,0-1,3.14,3,3,0,0,0-.07.63c0,.15,0,.35,0,.49l-1,.07a17.7,17.7,0,0,1-.52-4.5,39.29,39.29,0,0,1,.63-5.62,5.63,5.63,0,0,0,.1-1l1.24.11C730.24,568.86,730.12,569.31,730.06,569.56Zm3.27,7.13c0,.64.46,1.26,2.36,1.26a15.67,15.67,0,0,0,3.48-.36l0,1.17a18.84,18.84,0,0,1-3.51.3c-2.35,0-3.4-.79-3.4-2.1a7.26,7.26,0,0,1,.24-1.66l1,.1A4.9,4.9,0,0,0,733.33,576.69Zm5.42-7v1.13a32.59,32.59,0,0,1-5.76,0V569.7A24.11,24.11,0,0,0,738.75,569.69Z"/><path class="cls-2" d="M748.08,569.55c0,.37,0,.88,0,1.42,1.11,0,2.89-.09,4.15-.25l0,1c-1.25.13-3,.21-4.19.23v.11c0,.92.07,2.28.14,3.5a11.09,11.09,0,0,1,4.36,2.38l-.67,1.07a10,10,0,0,0-3.65-2.33c0,.37,0,.69,0,.94,0,1.15-.7,2.13-2.56,2.13s-3.36-.62-3.36-2.21c0-1.26,1.1-2.3,3.53-2.3a9.39,9.39,0,0,1,1.19.08c-.06-1.13-.11-2.42-.11-3.26s0-2,0-2.56a7.06,7.06,0,0,0-.11-1.39h1.33C748.14,568.45,748.1,569.13,748.08,569.55Zm-2.46,9.2c1,0,1.52-.48,1.52-1.44,0-.23,0-.54,0-.9a6.31,6.31,0,0,0-1.37-.14c-1.45,0-2.27.5-2.27,1.27S744.27,578.75,745.62,578.75Z"/><path class="cls-2" d="M758.93,568.89c.73,0,4.06-.11,4.81-.18a2.8,2.8,0,0,0,.75-.12l.65.82c-.26.18-.54.36-.79.57-.7.53-2.6,2.16-3.7,3.07a5.82,5.82,0,0,1,2-.3c2.33,0,4,1.4,4,3.3,0,2.25-1.85,3.71-4.82,3.71-1.9,0-3.06-.83-3.06-2a2,2,0,0,1,2.15-1.82,2.71,2.71,0,0,1,2.86,2.48,2.47,2.47,0,0,0,1.75-2.4c0-1.37-1.31-2.41-3.14-2.41-2.33,0-3.58,1-5.36,2.8l-.8-.82c1.16-1,3-2.45,3.77-3.14s2.53-2.12,3.25-2.75l-4.29.2a9,9,0,0,0-.92.08l0-1.16A8.74,8.74,0,0,0,758.93,568.89Zm2.66,9.89a6.76,6.76,0,0,0,1.14-.09,1.91,1.91,0,0,0-1.88-1.9,1,1,0,0,0-1.12.89C759.73,578.36,760.5,578.78,761.59,578.78Z"/><path class="cls-2" d="M772,575.82c.51-.22,1-.46,1.59-.67l.21.92c-1.48.69-3.06,1.39-4.3,1.94l-.4-1c.51-.18,1.19-.45,1.92-.76v-4.44h-1.8v-1H771V567.6h1v3.18h1.64v1H772Zm8.07,3.15c.81,0,.95-.38,1-2a2.7,2.7,0,0,0,.94.41c-.16,1.9-.49,2.52-2,2.52h-3.43c-1.58,0-2.06-.38-2.06-1.88v-4.41l-1.11.46-.4-.91,1.51-.63v-3.81h1v3.38l1.87-.79v-3.89h1v3.47l1.85-.77.22-.19.2-.16.73.28-.06.2a50.36,50.36,0,0,1-.14,5.24.94.94,0,0,1-.74.92,5.92,5.92,0,0,1-1.32.1,3.07,3.07,0,0,0-.25-.89h.94c.21,0,.35-.06.42-.37s.09-1.89.09-4.11l-1.94.82v5.14h-1V572.4l-1.87.8v4.85c0,.74.18.92,1.09.92Z"/><path class="cls-2" d="M787.28,576.47c-1.27.65-2.65,1.34-3.73,1.87l-.4-1c.45-.18,1-.42,1.57-.69v-4.82h-1.46v-1h1.46V567.6h1v3.23H787v1H785.7v4.36c.42-.19.87-.42,1.3-.63Zm4.48.84c-1.66.49-3.41,1-4.75,1.37l-.28-1c1.27-.28,3.13-.8,4.94-1.28Zm3.83-5.35a18.3,18.3,0,0,1-2.05,4.83c.34,1.52.76,2.44,1.28,2.44.26,0,.39-.55.45-2a2.45,2.45,0,0,0,.74.55c-.16,1.86-.44,2.45-1.32,2.45s-1.46-.9-1.89-2.4a10.93,10.93,0,0,1-2.37,2.29,5.86,5.86,0,0,0-.77-.69,9.9,9.9,0,0,0,2.85-2.77,40.93,40.93,0,0,1-.59-6.19h-4.71v-1h4.68c0-.67,0-1.36,0-2h1c0,.71,0,1.39,0,2h2.2a11.58,11.58,0,0,0-1.67-1.5l.6-.52a8.49,8.49,0,0,1,1.71,1.45l-.61.57h.74v1H792.9a42.75,42.75,0,0,0,.39,4.91,16.16,16.16,0,0,0,1.34-3.6Zm-4.5-.19v4h-3.47v-4Zm-.85.84h-1.81V575h1.81Z"/><path class="cls-2" d="M802.12,570.61h-4.93v-.85h4.93Zm-.35,8.81h-3.09v.65h-.89v-4.7h4Zm0-6.95h-4v-.82h4Zm-4,1h4v.84h-4Zm3.9-4.74h-3.83v-.84h3.83Zm-3,7.47v2.35h2.2v-2.35Zm8.41-.69a10.44,10.44,0,0,0,3.06,3.17,4.09,4.09,0,0,0-.72.78,12,12,0,0,1-2.85-3.23v4h-1v-3.87a9.83,9.83,0,0,1-3,3.25,5.58,5.58,0,0,0-.68-.79,9.07,9.07,0,0,0,3.22-3.26H802.3v-.94h3.27v-1.16h-2.75V568h6.57v5.42h-2.81v1.16h3.23v.94Zm-3.33-5.24h1.85v-1.43h-1.85Zm0,2.29h1.85v-1.45h-1.85Zm4.66-3.72h-1.9v1.43h1.9Zm0,2.27h-1.9v1.45h1.9Z"/><path class="cls-2" d="M815,578.48a11.42,11.42,0,0,0,4.26.58c.61,0,4.06,0,4.87,0a3,3,0,0,0-.38.9h-4.49c-3,0-5.12-.34-6.38-2.22a5.64,5.64,0,0,1-1.06,2.55,3.21,3.21,0,0,0-.66-.67c.84-1,1.08-2.89,1.15-4.6h.87c0,.54-.06,1.08-.11,1.6a3.61,3.61,0,0,0,1,1.36v-3.73h-2.77v-.81h6.27v.81H815v1.5h2.37v.8H815Zm1.78-6.09h-4.62V568h4.62Zm-1-3.6h-2.74v1h2.74Zm0,1.76h-2.74v1.07h2.74Zm4.25,6.1a9.06,9.06,0,0,1-2.48,2.06,4.91,4.91,0,0,0-.7-.66,6.9,6.9,0,0,0,2.31-1.68Zm-.26-6.67c.11-.34.22-.71.31-1.06h-2.61v-.8h6.33v.8h-2.76c-.12.36-.26.74-.39,1.06h2.59v6.15H818V570Zm2.51.77H819v1h3.34Zm0,1.78H819v1h3.34Zm0,1.78H819v1.05h3.34Zm-.47,2a10.28,10.28,0,0,1,2.19,1.8l-.76.49a11.54,11.54,0,0,0-2.14-1.88Z"/><path class="cls-2" d="M832.07,579.59l-.66-1a10.5,10.5,0,0,0,1.21-.18,4.23,4.23,0,0,0,3.55-4.16,3.9,3.9,0,0,0-3.74-4.06,27.51,27.51,0,0,1-.84,4c-.85,2.89-2,4.36-3.26,4.36s-2.5-1.43-2.5-3.74a6,6,0,0,1,6.13-5.7,5.07,5.07,0,0,1,5.36,5.15C837.32,577.19,835.39,579.16,832.07,579.59Zm-3.7-2.34c.66,0,1.4-.94,2.12-3.31a22.39,22.39,0,0,0,.78-3.78,4.89,4.89,0,0,0-4.34,4.54C826.93,576.47,827.74,577.25,828.37,577.25Z"/><path class="cls-2" d="M848.45,569a4.61,4.61,0,0,1-2.69,3.78,2.66,2.66,0,0,0-.56-.7v7c0,.51-.11.8-.48,1a5.46,5.46,0,0,1-1.87.17,3.61,3.61,0,0,0-.34-.89c.73,0,1.36,0,1.54,0s.27-.07.27-.26v-2.52H841a8.42,8.42,0,0,1-1.08,3.69,3,3,0,0,0-.75-.48,9.81,9.81,0,0,0,1-5.11v-2.55a4.18,4.18,0,0,1-.29.38,5.08,5.08,0,0,0-.79-.63,10.26,10.26,0,0,0,2.19-4.43l1,.21c-.09.35-.21.7-.32,1h1.64l.15,0,.62.39a19.51,19.51,0,0,1-.88,1.93h1.75v1.14a3.87,3.87,0,0,0,2.3-3.07h-1.89v-.88h6a3.58,3.58,0,0,1,0,.39c-.11,2.31-.22,3.21-.53,3.54a.94.94,0,0,1-.76.35,11.66,11.66,0,0,1-1.44,0,2.62,2.62,0,0,0-.24-.87c.55.05,1.07.05,1.26.05a.39.39,0,0,0,.4-.12,6.07,6.07,0,0,0,.36-2.45Zm-6.84.47a13.18,13.18,0,0,1-.7,1.46h1.61a13.07,13.07,0,0,0,.62-1.46Zm-.57,5.16c0,.33,0,.71,0,1.09h1.29v-1.64H841Zm0-1.33h1.26v-1.54H841Zm2,0h1.26v-1.54h-1.26Zm1.26,2.42v-1.64h-1.26v1.64Zm7.72,1.78h-2.67v2.62h-1v-2.62h-2.94v-.9h2.94v-1.72h-1.55a7,7,0,0,1-.73,1.37,6.9,6.9,0,0,0-.82-.43,7.91,7.91,0,0,0,1.29-3.14l.89.18c-.09.38-.19.76-.3,1.12h1.22v-1.42h1V574h2.43v.9h-2.43v1.72H852Z"/><path class="cls-2" d="M855.73,573.57a10.85,10.85,0,0,0-2.55-1.49l.57-.78a11.36,11.36,0,0,1,2.56,1.4Zm1,1.92c-.67,1.48-1.55,3.22-2.29,4.53l-.9-.65a42.14,42.14,0,0,0,2.39-4.53Zm-.36-5.61a11,11,0,0,0-2.48-1.57l.56-.75a9.88,9.88,0,0,1,2.52,1.5Zm5.73,4.9a6.82,6.82,0,0,0,4,4.59,3.2,3.2,0,0,0-.71.88,7.64,7.64,0,0,1-4.19-5.07,7.18,7.18,0,0,1-4.12,5.07,4.78,4.78,0,0,0-.81-.74,6.57,6.57,0,0,0,3.93-4.73h-3.29v-1h3.45c0-.53.07-1.08.07-1.63v-1.55h-2.76v-1h2.76v-2.21h1v2.21h3.37v4.15H866v1Zm-.66-2.57c0,.53,0,1.08-.06,1.61h2.43v-3.18h-2.37Z"/><path class="cls-2" d="M872.64,569.7a35.88,35.88,0,0,0,4.27-.43v1a38.18,38.18,0,0,1-4.65.39,11.16,11.16,0,0,1-1.26,2.18,4,4,0,0,1,1.94-.52,1.81,1.81,0,0,1,1.88,1.26c1-.46,1.81-.8,2.54-1.14.42-.18.75-.33,1.15-.54L879,573a11.09,11.09,0,0,0-1.25.45c-.78.29-1.78.7-2.84,1.2,0,.81,0,2,0,2.69h-1.08c0-.53,0-1.44,0-2.19-1.3.69-2.21,1.43-2.21,2.36,0,1.09,1.09,1.26,2.53,1.26a25,25,0,0,0,3.83-.34l0,1.12a32.81,32.81,0,0,1-3.84.26c-2,0-3.61-.44-3.61-2.15s1.67-2.69,3.3-3.54a1.17,1.17,0,0,0-1.27-.87,3.68,3.68,0,0,0-2.41,1,17.06,17.06,0,0,0-1.27,1.46l-1-.7a14.62,14.62,0,0,0,3.24-4.29h-.62c-.6,0-1.52,0-2.29-.08v-1a19.94,19.94,0,0,0,2.36.15h.93a7.53,7.53,0,0,0,.35-1.75l1.15.1A16,16,0,0,1,872.64,569.7Z"/><path class="cls-2" d="M892.24,573.13a9.85,9.85,0,0,1-3.65,4.51,15.83,15.83,0,0,0,5.43,1.64,4,4,0,0,0-.66,1,15.29,15.29,0,0,1-5.78-2,18.78,18.78,0,0,1-5.81,2,3.83,3.83,0,0,0-.56-1,18.7,18.7,0,0,0,5.43-1.63,10.27,10.27,0,0,1-2.9-3.55l.84-.3h-2.21v-1h4.68v-2.16h-5.31v-1h5.31v-2.13h1.06v2.13h5.34v1h-5.34v2.16h3.22l.2,0Zm-7.53.63a8.68,8.68,0,0,0,2.91,3.29,8.3,8.3,0,0,0,3.12-3.29Z"/><path class="cls-2" d="M898,575.3V579c0,.58-.14.86-.49,1a3.88,3.88,0,0,1-1.73.19,4.1,4.1,0,0,0-.31-1h1.32c.16,0,.23,0,.23-.26v-3.38l-1.68.53-.17-1c.52-.14,1.15-.34,1.85-.55v-3.39h-1.73v-1H897v-2.81h1v2.81h1.49v1H898v3.08l1.46-.46.14.94Zm9-.09a7.07,7.07,0,0,1-1.92,3.1,10,10,0,0,0,3.11,1.07,4.16,4.16,0,0,0-.63.88,9.37,9.37,0,0,1-3.27-1.32,9.33,9.33,0,0,1-3.06,1.31,2.93,2.93,0,0,0-.59-.77,9.21,9.21,0,0,0,2.86-1.1,7.31,7.31,0,0,1-1.64-1.82,7.25,7.25,0,0,1-2.76,3.66,2.9,2.9,0,0,0-.71-.73,7.46,7.46,0,0,0,3.09-5.45h-1.9v-.88h2c.05-.38.09-.76.12-1.11h-1.84v-.85h5a18.8,18.8,0,0,0,1.29-2.35l1,.32c-.39.67-.85,1.43-1.29,2h1.7v.85h-4.81c0,.35-.06.73-.11,1.11h5.33V574h-5.47c0,.31-.11.63-.18.94h3.92l.18,0Zm.31-6.9a45.44,45.44,0,0,1-7.37.72,3.21,3.21,0,0,0-.25-.82,46.06,46.06,0,0,0,7-.68Zm-6.19.9a15.33,15.33,0,0,1,.7,1.69l-.85.3a12.76,12.76,0,0,0-.66-1.78Zm1.32,6.58a6.41,6.41,0,0,0,1.86,2,5.29,5.29,0,0,0,1.48-2Zm.74-4.76a13.41,13.41,0,0,0-.37-1.9l.83-.14c.18.6.35,1.38.44,1.84Z"/><path class="cls-2" d="M913.24,569.66c-.07,1.58-.17,4.89-.17,7,0,1.54,1,2.09,2.3,2.09a5.83,5.83,0,0,0,5-2.9l.8.95a7,7,0,0,1-5.85,3.1c-2,0-3.41-.84-3.41-3.12,0-2.08.14-5.62.14-7.09a7.77,7.77,0,0,0-.11-1.43h1.42A9.86,9.86,0,0,0,913.24,569.66Z"/><path class="cls-2" d="M925,569.78c.91-.09,3.56-.36,6.13-.57,1.53-.14,2.85-.21,3.79-.25v1.12a11.8,11.8,0,0,0-2.75.22,4.94,4.94,0,0,0-3.21,4.43c0,2.74,2.55,3.61,4.84,3.7l-.41,1.16c-2.59-.1-5.55-1.49-5.55-4.61a5.69,5.69,0,0,1,2.62-4.73c-1.5.16-5.07.5-6.58.82l-.13-1.22C924.33,569.84,924.77,569.81,925,569.78Z"/><path class="cls-2" d="M939.61,570.74c0,.88,0,2.15.1,3.32.23,2.34.91,3.89,1.91,3.89.71,0,1.37-1.46,1.73-2.86l.89,1c-.84,2.38-1.7,3.19-2.64,3.19-1.33,0-2.6-1.32-3-4.94-.13-1.22-.15-2.93-.15-3.74a6.65,6.65,0,0,0-.1-1.25l1.36,0A9.83,9.83,0,0,0,939.61,570.74Zm9.88,6-1.12.46a14.12,14.12,0,0,0-2.44-7l1.09-.38A15,15,0,0,1,949.49,576.73Z"/><path class="cls-2" d="M958.54,569c0,.18,0,.49,0,.86a37.61,37.61,0,0,0,3.8-.38l0,1c-1.1.13-2.43.25-3.78.32v2a35,35,0,0,0,3.91-.37l0,1c-1.31.16-2.54.28-3.88.32,0,.73.08,1.48.1,2.16a11,11,0,0,1,4.09,2.18l-.64,1A10.4,10.4,0,0,0,958.7,577c0,.35,0,.64,0,.87,0,1-.65,2-2.47,2-2,0-3.11-.72-3.11-2.06s1.22-2.14,3.24-2.14a8.84,8.84,0,0,1,1.17.08c0-.63,0-1.3,0-1.9h-.8c-1,0-2.49-.09-3.5-.2l0-1.05a25.71,25.71,0,0,0,3.53.27h.76v-2h-.62c-1,0-2.7-.14-3.58-.23l0-1a25.2,25.2,0,0,0,3.59.31h.64v-1a7.44,7.44,0,0,0,0-.84h1.19A8.84,8.84,0,0,0,958.54,569Zm-2.4,9.85c.79,0,1.48-.25,1.48-1.22,0-.24,0-.57,0-.94a6.16,6.16,0,0,0-1.36-.14c-1.33,0-2.06.52-2.06,1.16S954.75,578.82,956.14,578.82Z"/><path class="cls-2" d="M973.32,568.94c0,.21,0,.54,0,.91h.21l4.11,0,0,1c-.78,0-2.06-.07-4.1-.07h-.2c0,.8,0,1.67,0,2.32a3.42,3.42,0,0,1,.45,1.79c0,1.89-.93,4-4.19,5l-.94-.92c1.86-.42,3.15-1.21,3.71-2.48a2,2,0,0,1-1.22.38,2.23,2.23,0,0,1-2.29-2.34,2.44,2.44,0,0,1,2.46-2.44,3,3,0,0,1,.94.15c0-.42,0-.92,0-1.41-2.13,0-4.51.11-6.26.24l0-1.08c1.55,0,4.19-.11,6.27-.14,0-.39,0-.73,0-.93,0-.36-.07-.77-.08-.88h1.28C973.36,568.21,973.33,568.76,973.32,568.94Zm-2,7c.82,0,1.35-.66,1.23-2a1.25,1.25,0,0,0-1.25-.88,1.42,1.42,0,0,0-1.41,1.48A1.35,1.35,0,0,0,971.33,575.92Z"/><path class="cls-2" d="M983.46,577.87a2.14,2.14,0,1,1-2.14-2.13A2.13,2.13,0,0,1,983.46,577.87Zm-.71,0a1.42,1.42,0,1,0-2.84,0,1.42,1.42,0,1,0,2.84,0Z"/><path class="cls-2" d="M762.7,486.52l1.22-.88a1.94,1.94,0,0,0,1.78,1.19c1.11,0,1.67-.59,1.67-2.21V477.1h1.73v7.68c0,2-1,3.57-3.21,3.57A3.38,3.38,0,0,1,762.7,486.52Z"/><path class="cls-2" d="M771.35,482.59c0-3.55,2-5.68,4.8-5.68S781,479,781,482.59s-2,5.76-4.82,5.76S771.35,486.15,771.35,482.59Zm7.83,0c0-2.59-1.2-4.17-3-4.17s-3,1.58-3,4.17,1.19,4.24,3,4.24S779.18,485.17,779.18,482.59Z"/><path class="cls-2" d="M783.26,477.1H785v11.06h-1.74Z"/><path class="cls-2" d="M787.9,477.1h1.78l3.66,6.5,1.16,2.34h.07c-.09-1.14-.22-2.48-.22-3.68V477.1H796v11.06h-1.79l-3.66-6.51-1.15-2.31h-.08c.09,1.14.23,2.41.23,3.61v5.21H787.9Z"/><path class="cls-2" d="M810.64,475.29l1.14.54a9.33,9.33,0,0,0,0,13.25l-1.14.55a10.14,10.14,0,0,1,0-14.34Z"/><path class="cls-2" d="M818,484.87a18.3,18.3,0,0,0-1.17-1.74v6.18h-1.35v-6.06a14.39,14.39,0,0,1-1.92,3.5,7.16,7.16,0,0,0-.67-1.29,15.43,15.43,0,0,0,2.41-4.4H813.2v-1.32h2.31v-2c-.69.15-1.38.26-2,.35a4.07,4.07,0,0,0-.41-1.08,22.19,22.19,0,0,0,4.68-1.2l1,1.06a17.87,17.87,0,0,1-1.86.59v2.32h1.76v1.32h-1.76v.69a26.59,26.59,0,0,1,2,2Zm8.82-1.95c-1.23,3.8-4.29,5.61-8,6.43a4.56,4.56,0,0,0-.69-1.18,11.73,11.73,0,0,0,4.3-1.6,11,11,0,0,0-1.86-1.43,9.6,9.6,0,0,1-1.29.78,3.61,3.61,0,0,0-.87-1,9.09,9.09,0,0,0,4-3.39,13.16,13.16,0,0,1-3.3,1.44,4.87,4.87,0,0,0-.72-1.12,10.92,10.92,0,0,0,3.37-1.4,12.84,12.84,0,0,0-1.63-1.32c-.38.26-.77.5-1.2.74a4.28,4.28,0,0,0-.87-1,8.41,8.41,0,0,0,3.76-3.33l1.37.26a9.14,9.14,0,0,1-.68,1H825l.24-.06.88.42a8.56,8.56,0,0,1-3.22,4.07l1.15.19a9.54,9.54,0,0,1-.72,1.11h2.37l.26,0Zm-5.26-4.9-.45.42a12.18,12.18,0,0,1,1.71,1.3A7,7,0,0,0,824.3,478Zm.75,5.74-.69.63a12.12,12.12,0,0,1,1.89,1.38,7.17,7.17,0,0,0,1.51-2Z"/><path class="cls-2" d="M832.81,476a25.08,25.08,0,0,1-1.47,3v10.28H830V481a18.89,18.89,0,0,1-1.47,1.74,12.4,12.4,0,0,0-.77-1.41,16.12,16.12,0,0,0,3.72-5.75Zm9.07,11.49v1.34h-9.63v-1.34h4.17v-3.4h-3.31v-1.32h3.31v-3h-3.81v-1.34h4.74a22.36,22.36,0,0,0-2.83-2l.91-1a20.46,20.46,0,0,1,3.33,2.21l-.66.73h3.56v1.34h-3.83v3h3.39v1.32h-3.39v3.4Z"/><path class="cls-2" d="M851.69,482.46a1.74,1.74,0,1,1-1.74-1.74A1.74,1.74,0,0,1,851.69,482.46Z"/><path class="cls-2" d="M868.42,482.07a11.26,11.26,0,0,1-2.36,3.66A13,13,0,0,0,871.9,488a6.7,6.7,0,0,0-.93,1.34,13,13,0,0,1-6-2.64,16,16,0,0,1-6,2.69,7.58,7.58,0,0,0-.88-1.32,15,15,0,0,0,5.83-2.36,12,12,0,0,1-2.2-3.58l1.33-.41a9.21,9.21,0,0,0,2,3,8.66,8.66,0,0,0,1.95-3.12Zm-4.86-2.45a16,16,0,0,1-4.14,3.71,11.15,11.15,0,0,0-1.16-1.1,11.49,11.49,0,0,0,3.86-3.15Zm7.93-.84H858.41V477.4h5.79v-1.86h1.44v1.86h5.85Zm-3.79.21a22.34,22.34,0,0,1,4,3.24l-1.23,1a22.82,22.82,0,0,0-3.88-3.36Z"/><path class="cls-2" d="M875.74,482.31a11.34,11.34,0,0,0-2.72-1.59l.77-1.05a13,13,0,0,1,2.76,1.45Zm1.44,2c-.74,1.58-1.67,3.38-2.51,4.8l-1.2-.88a45.84,45.84,0,0,0,2.64-4.8Zm-.68-6a11.51,11.51,0,0,0-2.65-1.67l.76-1a11,11,0,0,1,2.7,1.54Zm2,4.3h1.26v1.52a5.73,5.73,0,0,1-2.23,5.12,4.93,4.93,0,0,0-1-.89,4.75,4.75,0,0,0,1.95-4.26Zm2.55-5.22v-1.86h1.43v1.86h4.18v1.28h-5c-.36.67-.76,1.42-1.14,2.05l3.53-.12c-.33-.37-.69-.73-1-1.05l1.06-.57a13.71,13.71,0,0,1,2.7,3.11l-1.17.66a6.63,6.63,0,0,0-.63-1l-7.48.37-.15-1.32,1.72,0a16.81,16.81,0,0,0,1-2.1H877.3v-1.28Zm0,5.34h1.23v5.93h-1.23Zm4.46,5.22a.45.45,0,0,0,.27-.06c.06,0,.1-.16.15-.39s0-.76,0-1.46a3.75,3.75,0,0,0,1,.52,9.72,9.72,0,0,1-.15,1.72,1,1,0,0,1-.45.62,1.44,1.44,0,0,1-.75.18h-.75a1.25,1.25,0,0,1-.89-.32c-.24-.22-.31-.48-.31-1.44v-4.71h1.27v4.8c0,.27,0,.41.08.48a.27.27,0,0,0,.21.06Z"/><path class="cls-2" d="M892.87,483.3l-1.46.45v4c0,.73-.15,1.12-.57,1.35a4.88,4.88,0,0,1-2.07.27,5.16,5.16,0,0,0-.4-1.35h1.44c.19,0,.27-.07.27-.28v-3.56l-1.88.54-.3-1.36c.6-.14,1.35-.33,2.18-.56v-3h-1.91v-1.29h1.91v-2.89h1.33v2.89h1.31v1.29h-1.31v2.64l1.29-.36Zm9,5.26h-6.57v.75H893.9V481a10.14,10.14,0,0,1-.9,1.13,9.73,9.73,0,0,0-.91-1.2,12.81,12.81,0,0,0,2.86-5.42l1.34.35a18.36,18.36,0,0,1-.9,2.44h2a20.29,20.29,0,0,0,1-2.73l1.47.32c-.33.81-.69,1.66-1.05,2.41h2.77v1.25h-2.88v1.74h2.52v1.2h-2.52v1.77h2.52v1.18h-2.52v1.83h3.15Zm-4.45-9h-2.12v1.74h2.12Zm0,2.94h-2.12v1.77h2.12Zm-2.12,4.78h2.12v-1.83h-2.12Z"/><path class="cls-2" d="M906.31,486.19c.64,1,1.83,1.5,3.49,1.58s5.18,0,7.08-.11a6.67,6.67,0,0,0-.45,1.37c-1.72.07-4.9.1-6.64,0a5,5,0,0,1-4.07-1.72c-.63.61-1.29,1.21-2,1.86l-.69-1.38a20.83,20.83,0,0,0,2-1.54v-3.61h-1.8v-1.29h3.14Zm-.72-7a10.81,10.81,0,0,0-2.31-2.5l1.06-.78a10.93,10.93,0,0,1,2.37,2.4Zm2.52,1.07a12.39,12.39,0,0,1-1.1,1.08,6.67,6.67,0,0,0-1-1.08,11.5,11.5,0,0,0,3.41-4.68l1.39.39a16.61,16.61,0,0,1-.88,1.8H912a13.42,13.42,0,0,0,.73-2.09l1.52.3c-.27.6-.57,1.23-.86,1.79h2.93V479h-3.15v1.31h2.77v1.15h-2.77v1.31h2.73v1.15h-2.73v1.35h3.4v1.19h-8.41Zm3.67-1.31h-2.31v1.31h2.31Zm0,2.46h-2.31v1.31h2.31Zm0,2.46h-2.31v1.35h2.31Z"/><path class="cls-2" d="M930.89,484.81a8.05,8.05,0,0,1-1.72,2.37c.37.65.81,1,1.29,1s.55-.33.63-1.59a3.36,3.36,0,0,0,.93.62c-.21,1.68-.6,2.15-1.65,2.15a2.51,2.51,0,0,1-2.12-1.39,11.32,11.32,0,0,1-2.44,1.37,5.69,5.69,0,0,0-.75-.9,9.17,9.17,0,0,0,2.68-1.5,14.31,14.31,0,0,1-.75-2.67h-2l-.09.73a14.33,14.33,0,0,1,1.92,1.41l-.73,1a13.7,13.7,0,0,0-1.43-1.17,5.25,5.25,0,0,1-2,3.12,3.27,3.27,0,0,0-.83-.91c1.34-.93,1.73-2.49,1.88-4.14h-1v-.75l-.51.72c-.18-.47-.55-1.28-.91-2v7.08H920V483a15.15,15.15,0,0,1-1.44,3.54,7.7,7.7,0,0,0-.65-1.17,17.5,17.5,0,0,0,2-5.37h-1.65v-1.27H920v-3.17h1.26v3.17h1.48V480h-1.48v.65c.37.54,1.24,2,1.54,2.49h4a58.9,58.9,0,0,1-.45-7.56h1.23c0,.87,0,1.72,0,2.55l.48-.66c.1.07.19.15.3.22a16.88,16.88,0,0,0,.84-2l1.08.41c-.42.73-.87,1.57-1.23,2.17a6.4,6.4,0,0,1,.52.56c.33-.57.63-1.13.86-1.61l1,.47c-.62,1-1.38,2.22-2.07,3.15l1.27-.09a7.18,7.18,0,0,0-.33-.74l.81-.33a8,8,0,0,1,.86,2.19l-.86.39a5.83,5.83,0,0,0-.15-.6l-1.51.17a6.86,6.86,0,0,1,1.39,1l-.31.3h1.2v1.11h-3.54a12.92,12.92,0,0,0,.46,1.77,7.08,7.08,0,0,0,1.05-1.65Zm-7.86-3.7c.32-.41.63-.89,1-1.4a10.34,10.34,0,0,0-1.54-1.47l.55-.76a2.25,2.25,0,0,1,.3.24,20.43,20.43,0,0,0,.84-2l1.07.42c-.41.74-.84,1.58-1.22,2.18a6.65,6.65,0,0,1,.53.54c.33-.57.63-1.13.85-1.61l1,.47c-.64,1.08-1.45,2.35-2.19,3.34l1.16-.07c-.09-.29-.21-.57-.32-.83l.81-.28a8,8,0,0,1,.77,2.19l-.87.36a3.82,3.82,0,0,0-.11-.5c-1,.12-2,.23-2.89.3l-.2-1.06Zm5.21-.2c.27-.34.55-.76.84-1.2a11,11,0,0,0-1.46-1.41,41.27,41.27,0,0,0,.39,4.85h1.7a7.91,7.91,0,0,0-1-.74l.63-.58L928,482l-.21-1Z"/><path class="cls-2" d="M937.52,484.59a21.31,21.31,0,0,0-1-2v6.75h-1.29V483a13.84,13.84,0,0,1-1.6,3.6,8.07,8.07,0,0,0-.66-1.2,16,16,0,0,0,2.14-5.35h-1.83v-1.29h2v-3.17h1.29v3.17h1.61V480H936.5v.88c.42.56,1.53,2.25,1.77,2.66Zm9.45,2.35h-.88v1c0,.63-.14.95-.57,1.15a6.47,6.47,0,0,1-2.07.19,5.37,5.37,0,0,0-.38-1.13c.63,0,1.28,0,1.47,0s.24-.06.24-.24v-1h-4.69v2.33h-1.28v-2.33h-1v-1.05h1v-3.75h2.94v-.73h-3.64v-1h2v-.84h-1.32v-1h1.32v-.83h-1.63v-1h1.63v-1.16h1.31v1.16h2v-1.16h1.31v1.16h1.78v1h-1.78v.83h1.56v1h-1.56v.84h2.08v1H943v.73h3.08v3.75H947Zm-6.88-3.79V484h1.66v-.85Zm0,2.74h1.66V485h-1.66Zm1.29-7.33h2v-.83h-2Zm0,1.81h2v-.84h-2Zm1.63,2.78V484h1.77v-.85Zm1.77,2.74V485H943v.93Z"/><path class="cls-2" d="M949.27,489.63l-1.14-.55a9.33,9.33,0,0,0,0-13.25l1.14-.54a10.14,10.14,0,0,1,0,14.34Z"/><path class="cls-2" d="M828,503.54v1.53H814.31v-1.53Z"/><path class="cls-2" d="M834.92,504.83V510c0,.59-.12.94-.5,1.13a4.3,4.3,0,0,1-1.75.21,4,4,0,0,0-.38-1.11,11.83,11.83,0,0,0,1.23,0c.18,0,.24-.06.24-.23v-5l-2.44.27c0,1.92-.18,4.47-1.23,6.09a4.31,4.31,0,0,0-1-.63,10.71,10.71,0,0,0,1.08-5.34l-.93.1-.14-1.14,1.07-.1v-4.61h1.32a16.84,16.84,0,0,0,.49-2.05l1.5.28c-.24.6-.49,1.25-.7,1.77h2.1v4.13l.66-.06v1.08Zm-1.16-1v-3.14h-2.44v3.39Zm-1.21-2.66a6.83,6.83,0,0,1,.81,1.92l-.92.39a6.39,6.39,0,0,0-.75-2Zm.34,7.76h-.84v-3.45h.84Zm9.45-4.73a10,10,0,0,1-2.26,4.47,8,8,0,0,0,3.12,1.49,5.1,5.1,0,0,0-.84,1.14,8.55,8.55,0,0,1-3.23-1.75,10,10,0,0,1-3.21,1.77,4.94,4.94,0,0,0-.76-1.16,9.09,9.09,0,0,0,3-1.56,10.74,10.74,0,0,1-1.76-3.18l1-.23h-1.5V504h5.33l.24-.06Zm-4.48-4.12a4.48,4.48,0,0,1-1.46,3.66,5.22,5.22,0,0,0-1-.81,3.32,3.32,0,0,0,1.21-2.88v-1.94h4.49v3.38c0,.25,0,.42.06.46a.27.27,0,0,0,.21.06h.33a.54.54,0,0,0,.25,0,.5.5,0,0,0,.15-.33c0-.2,0-.65.06-1.22a3.06,3.06,0,0,0,1,.54,8,8,0,0,1-.17,1.46.92.92,0,0,1-.48.54,1.81,1.81,0,0,1-.72.13H841a1.24,1.24,0,0,1-.89-.3c-.22-.21-.31-.48-.31-1.33v-2.13h-2Zm-.29,5.11a8,8,0,0,0,1.53,2.57,7.94,7.94,0,0,0,1.56-2.57Z"/><path class="cls-2" d="M847.08,504.25a11.61,11.61,0,0,0-2.89-1.49l.72-1.08a13.42,13.42,0,0,1,2.94,1.38Zm1.29,2.14a49.17,49.17,0,0,1-2.5,4.74l-1.2-.88a44,44,0,0,0,2.65-4.76Zm-.51-6.07a11.69,11.69,0,0,0-2.85-1.64l.77-1a11.21,11.21,0,0,1,2.89,1.53Zm9,11a12.46,12.46,0,0,0-.57-1.22c-2.81.22-5.75.41-7.79.57l-.19-1.41,1.2-.06a30.45,30.45,0,0,0,1.62-4.22h-2.84v-1.32h4V501.2H849v-1.32h3.27v-2.31h1.44v2.31h3.42v1.32h-3.42v2.49h4.13V505h-5.09c-.51,1.37-1.17,2.91-1.78,4.14l4.54-.25a18.29,18.29,0,0,0-1.39-1.95l1.2-.63a18,18,0,0,1,2.8,4.3Z"/><path class="cls-2" d="M866.7,498c0,.21,0,.46,0,.73.13,2,.91,8.73,6.52,11.31a4.57,4.57,0,0,0-1.06,1.17c-3.63-1.75-5.3-5.19-6.08-8.08a12.47,12.47,0,0,1-5.77,8.1,4.91,4.91,0,0,0-1.16-1.1c6-3.19,5.91-10.15,6-12.13Z"/><path class="cls-2" d="M877.58,502.33a19.77,19.77,0,0,1-2.61,1.56,5,5,0,0,0-.83-1.14,15.19,15.19,0,0,0,6.14-5.16h1.44a15.16,15.16,0,0,0,6.42,5,6.65,6.65,0,0,0-.89,1.26,19.27,19.27,0,0,1-2.65-1.56v1.17h-7ZM875,505h12.31v1.3h-6.87c-.49,1-1.05,2.13-1.59,3.09l5.36-.21a22.66,22.66,0,0,0-1.74-1.78l1.2-.65a19.39,19.39,0,0,1,3.48,3.86l-1.28.79a8,8,0,0,0-.66-1c-3.57.18-7.38.34-9.93.45l-.18-1.37,2.22-.07a24.59,24.59,0,0,0,1.4-3.14H875Zm9.43-2.85a15,15,0,0,1-3.37-3.18,14.6,14.6,0,0,1-3.2,3.18Z"/><path class="cls-2" d="M898.58,508.81a44,44,0,0,1,4.47,1.57l-1.23,1a41.94,41.94,0,0,0-4.73-1.72l1.11-.82h-4.38l1.08.72a19.08,19.08,0,0,1-4.65,1.81,8.46,8.46,0,0,0-1-1,17.57,17.57,0,0,0,4.2-1.52h-2.62v-6.48h10.71v6.48Zm2.32-7.2h-9.48V498.1h9.48Zm-8.74,2.58H900v-.86h-7.87Zm0,1.81H900v-.87h-7.87Zm0,1.82H900v-.89h-7.87Zm7.27-8.61h-6.61v1.29h6.61Z"/><path class="cls-3" d="M789,322.8a23.69,23.69,0,0,1,0-47.38H912a23.69,23.69,0,0,1,0,47.38Z"/><path class="cls-4" d="M799,303.91c-.4-.48-1.2-1.28-1.94-2v4.74h-1.8V302a15,15,0,0,1-3,3.36,7.66,7.66,0,0,0-1.2-1.34,13.67,13.67,0,0,0,3.82-4.2h-3.34v-1.58h3.7v-1.82h-3.76v-1.59h2.06a9.59,9.59,0,0,0-.7-2.58l1.36-.34h-2.46v-1.54h3.5v-1.9H797v1.9h3.51v1.54h-2.43l1.4.32c-.38.94-.76,1.92-1.1,2.6h2.34v1.59H797v1.82h3.54v1.58H797v.34c.72.5,2.56,2,3,2.38Zm-4.7-12a9.25,9.25,0,0,1,.8,2.62l-1.16.3h4.4l-1.38-.3a19.26,19.26,0,0,0,.9-2.62Zm15.39,4.79h-2.1v9.9h-1.8v-9.9h-2.58v.18c0,3-.37,7.12-3.13,9.9a4.48,4.48,0,0,0-1.32-1.28c2.42-2.46,2.66-5.88,2.66-8.64v-6.93l1.24.36a26.53,26.53,0,0,0,5.33-1.72l1.5,1.34a30.48,30.48,0,0,1-6.28,1.82V295h6.48Z"/><path class="cls-4" d="M814.71,297.23a14.46,14.46,0,0,0-3.48-2l1-1.41a15,15,0,0,1,3.54,1.89Zm14.77,1.42s0,.52,0,.74c-.26,4.36-.54,6.06-1.08,6.66a1.82,1.82,0,0,1-1.36.62,17.82,17.82,0,0,1-2.38,0,3.57,3.57,0,0,0-.47-1.56c.87.08,1.71.1,2,.1a.72.72,0,0,0,.66-.24c.34-.36.58-1.62.78-4.72h-8.07c-.36.44-.76.84-1.14,1.22l1.3.28a6.74,6.74,0,0,1-1.74,4.36l-1.24-.86a5.87,5.87,0,0,0,1.54-3.66,9.77,9.77,0,0,1-1.24,1,13,13,0,0,0-1.28-1.3c-.74,1.76-1.58,3.58-2.34,5.08l-1.7-1.06a65.87,65.87,0,0,0,3.2-6.66l1.48,1.06c-.2.5-.4,1-.62,1.52a12.43,12.43,0,0,0,3.76-4h-1.7v-7.67l1,.3a26.47,26.47,0,0,0,3.07-1.58l1.24,1.24a24.43,24.43,0,0,1-3.55,1.56v1.44h2.89v1.48h-2.89v1.69h7.37v-1.69h-3.14v-1.48h3.14V291h-3.24V289.5h5v7.79h-7.15a13.43,13.43,0,0,1-.8,1.36ZM815.79,292a14.49,14.49,0,0,0-3.46-2.18l1-1.36a14.36,14.36,0,0,1,3.52,2Zm5.78,9.71a13.81,13.81,0,0,1,.48,3.58l-1.34.2a14,14,0,0,0-.42-3.6Zm1.9-.42a13,13,0,0,1,1.34,2.86l-1.18.44a12.33,12.33,0,0,0-1.25-2.92Zm2.71,2.3a9.86,9.86,0,0,0-1.76-2.2l.89-.62a9.64,9.64,0,0,1,1.82,2.12Z"/><path class="cls-4" d="M837.77,302.57a19.29,19.29,0,0,1-4.82,3.92,12.49,12.49,0,0,0-1.5-1.22,14.58,14.58,0,0,0,4.38-3.42Zm3.7-1.42v5.54h-2v-5.54h-5.06v.48h-1.86V290.14h1.86v9.37h14.93v1.64Zm5.66-2.92H836.21v-9.15h10.92Zm-1.79-7.83H838v1.32h7.37Zm0,2.56H838v1.34h7.37Zm0,2.58H838v1.37h7.37Zm-.55,6.23a45.46,45.46,0,0,1,4.71,3.6l-1.68,1.14a41.1,41.1,0,0,0-4.61-3.74Z"/><path class="cls-4" d="M869.06,303.49v1.88H851.85v-1.88ZM868,290.24v1.9H853v-1.9Zm-1.56,6.43v1.9H854.29v-1.9Z"/><path class="cls-4" d="M882.89,301a17.35,17.35,0,0,0,6.83,3.76,7.86,7.86,0,0,0-1.24,1.58,18.19,18.19,0,0,1-7.1-4.64v5h-1.89v-5a18.5,18.5,0,0,1-7,4.7,8.84,8.84,0,0,0-1.22-1.52A17.44,17.44,0,0,0,878,301h-6.34v-1.64h7.8v-1.92h1.89v1.92h7.92V301Zm3.32-10.27a12.56,12.56,0,0,1-3.88,4.3,26.75,26.75,0,0,0,7.29,1.83,7.69,7.69,0,0,0-1.12,1.68,24.45,24.45,0,0,1-7.91-2.43,26.72,26.72,0,0,1-8.08,2.75,7,7,0,0,0-.88-1.66,25.59,25.59,0,0,0,7.22-2.15,13.68,13.68,0,0,1-2.54-2.24,18.44,18.44,0,0,1-3.06,2,5.59,5.59,0,0,0-1.3-1.36,13.47,13.47,0,0,0,5.94-5.16l2,.38q-.45.69-1,1.38h5.65l.32-.08Zm-8.66,1a11.13,11.13,0,0,0,3,2.45,12.23,12.23,0,0,0,2.84-2.47h-5.81Z"/><path class="cls-4" d="M901.38,292.78v2.45h6.34v6.88c0,1-.22,1.52-.94,1.82a10.69,10.69,0,0,1-3.5.32,6.73,6.73,0,0,0-.65-1.84c1.21.06,2.39.06,2.73,0s.43-.1.43-.38v-5h-4.41v9.7h-1.93v-9.7h-4.1v7.24h-1.86v-9.06h6v-2.45h-7.94V291h7.92v-2.74h2V291h8.07v1.8Z"/><polyline class="cls-5" points="765.1 298.92 665.1 298.92 586.99 391.69"/><path class="cls-3" d="M584.24,389.12a3.76,3.76,0,1,0,5.3-.45A3.76,3.76,0,0,0,584.24,389.12Z"/><image width="120" height="60" transform="translate(798.6 393.42)" xlink:href="../../../../../../../../Users/hirakawasaki/Downloads/%E3%80%90%E3%83%86%E3%83%AC%E3%82%B9%E3%82%B3%E3%83%BC%E3%83%95%E3%82%9A%E3%80%91P20211228-2%E8%87%AA%E6%B2%BB%E4%BD%93%E5%90%91%E3%81%91LP/Links/linkpolicy_bn04.jpeg"/><path class="cls-3" d="M343,276.8a23.69,23.69,0,1,1,0-47.38H466a23.69,23.69,0,0,1,0,47.38Z"/><path class="cls-4" d="M362.62,254.45a30,30,0,0,1-4.15,2.52,13.51,13.51,0,0,0,5.27,2.12,6.43,6.43,0,0,0-1.18,1.66,12.16,12.16,0,0,1-9.07-7.32h-2.6v4.78l4.82-.74.1,1.64c-3.14.54-6.5,1.08-8.88,1.46l-.44-1.7,2.5-.36v-5.08h-3.42v-1.66H349v-8.69h12.37v1.56H350.89V246h9.9v1.48h-9.9v1.38h9.9v1.49h-9.9v1.4h12.49v1.66h-2.26Zm-7.23-1a10.58,10.58,0,0,0,1.87,2.52,28.1,28.1,0,0,0,3.82-2.52Z"/><path class="cls-4" d="M371.13,257.53c1.28-.16,2.6-.32,3.91-.5l0,1.64c-3.42.52-7.06,1-9.58,1.36l-.2-1.82c1.1-.12,2.5-.28,4-.48v-2.58h-3.42v-1.68h3.42v-2h-3.42v-8.17h8.68v8.17h-3.46v2h3.46v1.68h-3.46Zm-3.68-10.85h2v-1.86h-2Zm0,3.31h2V248.1h-2Zm5.54-5.17h-2v1.86h2Zm0,3.28h-2V250h2ZM383.84,250a33.2,33.2,0,0,1-1.56,4.86l-1.5-.38a25.61,25.61,0,0,0,.9-3h-1.89v7.08c0,1-.17,1.5-.85,1.78a8.44,8.44,0,0,1-3.21.34,6.48,6.48,0,0,0-.56-1.84c1.06,0,2.09,0,2.38,0s.41-.08.41-.34v-7h-3v-1.76h4.77a23.41,23.41,0,0,0-3.95-2.59L377,246c.6.3,1.24.64,1.87,1a15.75,15.75,0,0,0,1.79-2h-5.4v-1.66h6.69l.38-.1,1.2.84a18.77,18.77,0,0,1-3.32,3.84,13.49,13.49,0,0,1,1.68,1.35l-.44.48h.86l.3-.06Z"/><path class="cls-4" d="M391.77,256.57a19.29,19.29,0,0,1-4.82,3.92,12.49,12.49,0,0,0-1.5-1.22,14.58,14.58,0,0,0,4.38-3.42Zm3.7-1.42v5.54h-2v-5.54h-5.06v.48h-1.86V244.14h1.86v9.37h14.93v1.64Zm5.66-2.92H390.21v-9.15h10.92Zm-1.79-7.83H392v1.32h7.37Zm0,2.56H392v1.34h7.37Zm0,2.58H392v1.37h7.37Zm-.55,6.23a45.46,45.46,0,0,1,4.71,3.6l-1.68,1.14a41.1,41.1,0,0,0-4.61-3.74Z"/><path class="cls-4" d="M423.38,248.76a19.94,19.94,0,0,1-2.78,7.67,10.46,10.46,0,0,0,3.32,2.7,6.16,6.16,0,0,0-1.22,1.46,11.37,11.37,0,0,1-3.18-2.7,11.72,11.72,0,0,1-3.24,2.7,6.29,6.29,0,0,0-1.21-1.4,11,11,0,0,0,3.39-2.78,19.42,19.42,0,0,1-2.17-4.84c-.09,3-.62,6.66-2.56,9.12a7.19,7.19,0,0,0-1.46-1.06,6.91,6.91,0,0,0,.44-.62l-.7.3a9.69,9.69,0,0,0-.38-1.16c-2,.66-4.08,1.34-5.72,1.86l-.64-1.72c.4-.1.84-.2,1.32-.34v-10l-.54.44a5.58,5.58,0,0,0-1.22-1.16,13.19,13.19,0,0,0,4-4.86h1.74a21.86,21.86,0,0,1,3.4,3.42l-1.16,1.32a20,20,0,0,0-2.84-3.2,17.86,17.86,0,0,1-3.1,3.76h2.36v-1.78h1.6v1.78h2.28v6.59h-4.86v3.28l2.76-.76c-.24-.54-.52-1.06-.78-1.52l1.52-.56a26.12,26.12,0,0,1,1.58,3.18,18.66,18.66,0,0,0,1.22-7.64V243.3h8.75V245h-7v3.42H422l.32-.06Zm-15.11.2v1.31h3.2V249Zm3.2,3.93v-1.34h-3.2v1.34Zm6-2.76a18.35,18.35,0,0,0,2,4.78,15.88,15.88,0,0,0,1.84-4.78Z"/><path class="cls-4" d="M427.61,254.05a18.12,18.12,0,0,1-1.28,5.06,7.33,7.33,0,0,0-1.32-.64,15.31,15.31,0,0,0,1.12-4.68Zm3.4-5.37a17,17,0,0,1,1.66,4.25l-1.38.58a9.52,9.52,0,0,0-.3-1.2l-1.26.08v8.3h-1.6v-8.18c-1,.06-2,.14-2.84.18l-.18-1.62,1.5-.08c.32-.44.68-.92,1-1.47a20.21,20.21,0,0,0-2.42-2.88l.92-1.2c.2.18.38.36.58.56a24,24,0,0,0,1.6-3.66l1.6.58c-.7,1.38-1.54,3-2.22,4.1a12.53,12.53,0,0,1,.86,1.06,38.2,38.2,0,0,0,1.88-3.44l1.5.68c-1.08,1.78-2.44,3.93-3.68,5.57l2.2-.12a16.36,16.36,0,0,0-.7-1.58Zm.36,5a15.32,15.32,0,0,1,1,3.6l-1.34.42a14.91,14.91,0,0,0-.94-3.62Zm11.89,5c0,.92-.2,1.4-.78,1.68a8.37,8.37,0,0,1-3,.3,6.26,6.26,0,0,0-.53-1.58c1,0,1.95,0,2.24,0s.43-.1.43-.42V244.9h-7.33v15.79h-1.6V243.22h10.55Zm-6.93-1.58v1.34h-1v-7.18h1v4.38h1.05v-5.5h-2.49v-1.45h1.16a10.59,10.59,0,0,0-.88-2.88l1.12-.34a10.39,10.39,0,0,1,1,3l-.74.26h2.56l-.66-.18a23.85,23.85,0,0,0,.9-3.16l1.37.34c-.37,1-.79,2.22-1.11,3H441v1.45h-2.56v5.5h1.12v-4.38h1V258h-1v-.82Z"/><path class="cls-4" d="M454.54,257h-7v1.52H446V243.3h8.55Zm-7-12.05v4.29h1.92v-4.29Zm0,10.41h1.92v-4.5h-1.92Zm5.34-10.41H451v4.29h1.94Zm0,10.41v-4.5H451v4.5Zm10.87-8.89h-2.7v12c0,1.08-.24,1.64-1,2a12.46,12.46,0,0,1-3.85.32,6.33,6.33,0,0,0-.64-1.86c1.32.06,2.69,0,3.09,0s.5-.12.5-.46v-12h-4.25v-1.82h8.85Z"/><polyline class="cls-5" points="404.47 273.13 404.47 342.84 485.84 424.21"/><path class="cls-3" d="M483.05,426.73a3.75,3.75,0,1,0,0-5.31A3.75,3.75,0,0,0,483.05,426.73Z"/><path class="cls-3" d="M469,614.8a23.69,23.69,0,0,1,0-47.38H592a23.69,23.69,0,0,1,0,47.38Z"/><path class="cls-4" d="M488.62,592.45a30,30,0,0,1-4.15,2.52,13.51,13.51,0,0,0,5.27,2.12,6.43,6.43,0,0,0-1.18,1.66,12.16,12.16,0,0,1-9.07-7.32h-2.6v4.78l4.82-.74.1,1.64c-3.14.54-6.5,1.08-8.88,1.46l-.44-1.7,2.5-.36v-5.08h-3.42v-1.66H475v-8.69h12.37v1.56H476.89V584h9.9v1.48h-9.9v1.38h9.9v1.49h-9.9v1.4h12.49v1.66h-2.26Zm-7.23-1a10.58,10.58,0,0,0,1.87,2.52,28.1,28.1,0,0,0,3.82-2.52Z"/><path class="cls-4" d="M497.13,595.53c1.28-.16,2.6-.32,3.91-.5l0,1.64c-3.42.52-7.06,1-9.58,1.36l-.2-1.82c1.1-.12,2.5-.28,4-.48v-2.58h-3.42v-1.68h3.42v-2h-3.42v-8.17h8.68v8.17h-3.46v2h3.46v1.68h-3.46Zm-3.68-10.85h2v-1.86h-2Zm0,3.31h2V586.1h-2Zm5.54-5.17h-2v1.86h2Zm0,3.28h-2V588h2ZM509.84,588a33.2,33.2,0,0,1-1.56,4.86l-1.5-.38a25.61,25.61,0,0,0,.9-3h-1.89v7.08c0,1-.17,1.5-.85,1.78a8.44,8.44,0,0,1-3.21.34,6.48,6.48,0,0,0-.56-1.84c1.06,0,2.09,0,2.38,0s.41-.08.41-.34v-7h-3v-1.76h4.77a23.41,23.41,0,0,0-3.95-2.59L503,584c.6.3,1.24.64,1.87,1a15.75,15.75,0,0,0,1.79-2h-5.4v-1.66h6.69l.38-.1,1.2.84a18.77,18.77,0,0,1-3.32,3.84,13.49,13.49,0,0,1,1.68,1.35l-.44.48h.86l.3-.06Z"/><path class="cls-4" d="M517.77,594.57a19.29,19.29,0,0,1-4.82,3.92,12.49,12.49,0,0,0-1.5-1.22,14.58,14.58,0,0,0,4.38-3.42Zm3.7-1.42v5.54h-2v-5.54h-5.06v.48h-1.86V582.14h1.86v9.37h14.93v1.64Zm5.66-2.92H516.21v-9.15h10.92Zm-1.79-7.83H518v1.32h7.37Zm0,2.56H518v1.34h7.37Zm0,2.58H518v1.37h7.37Zm-.55,6.23a45.46,45.46,0,0,1,4.71,3.6l-1.68,1.14a41.1,41.1,0,0,0-4.61-3.74Z"/><path class="cls-4" d="M536.45,585.58c-.66,2.93-1.78,6.55-3.52,8.77a8.66,8.66,0,0,0-1.78-1c1.68-2.08,2.74-5.52,3.2-8.17Zm5.1-5v15.63c0,1.24-.32,1.78-1.09,2.1a12.57,12.57,0,0,1-4,.34,9,9,0,0,0-.74-1.94c1.36.06,2.82.06,3.24,0s.56-.14.56-.54V580.62Zm4.57,4.42a32.58,32.58,0,0,1,3.84,8.85l-2,.8a33.82,33.82,0,0,0-3.63-9Z"/><path class="cls-4" d="M558.37,585.12h-7.1v-1.48h7.1Zm-.5,12.49h-4.18v.84h-1.56v-6.72h5.74Zm0-9.8h-5.7v-1.45h5.7Zm-5.7,1.22h5.7v1.46h-5.7Zm5.64-6.57h-5.56V581h5.56Zm-4.1,10.77v2.88h2.6v-2.88ZM565,588.1a22.14,22.14,0,0,1-2,1.87h5.65v8.7h-1.86V598h-4.42v.74h-1.79v-7c-.58.38-1.16.72-1.76,1a13.49,13.49,0,0,0-1.22-1.46,20.67,20.67,0,0,0,4.93-3.23h-4.17v-1.66h3.74v-2.28h-3v-1.62h3v-2.2h1.79v2.2h2.3v1.38a23.19,23.19,0,0,0,1.46-2.58l1.66.56a24.53,24.53,0,0,1-2.86,4.54h3.26v1.66Zm1.78,3.43h-4.42v1.7h4.42Zm0,4.92v-1.78h-4.42v1.78Zm-2.9-10h.33a23.52,23.52,0,0,0,1.81-2.28h-2.14Z"/><path class="cls-4" d="M581.38,584.78v2.45h6.34v6.88c0,1-.22,1.52-.94,1.82a10.69,10.69,0,0,1-3.5.32,6.73,6.73,0,0,0-.65-1.84c1.21.06,2.39.06,2.73,0s.43-.1.43-.38v-5h-4.41v9.7h-1.93v-9.7h-4.1v7.24h-1.86v-9.06h6v-2.45h-7.94V583h7.92v-2.74h2V583h8.07v1.8Z"/><polyline class="cls-5" points="530.47 573.63 530.47 458.42 512.34 440.29"/><path class="cls-3" d="M515.13,437.76a3.76,3.76,0,1,0,0,5.32A3.76,3.76,0,0,0,515.13,437.76Z"/><path class="cls-3" d="M185,355.8a23.69,23.69,0,0,1,0-47.38H308a23.69,23.69,0,0,1,0,47.38Z"/><path class="cls-4" d="M204.9,323.12v4.7H203v-3H189.93v3h-1.82v-4.7h7.28v-1.8h2v1.8Zm-7.43,8.43c-.14.52-.26,1.06-.38,1.54h6.2v6.5h-1.93v-.72h-9.55v.78H190v-6.56h5.3c.06-.5.13-1,.16-1.54h-4.1v-5.27h10.31v5.27Zm3.89,3.14h-9.55v2.56h9.55ZM193.07,330h6.69v-2.24h-6.69Z"/><path class="cls-4" d="M212.83,324.74h1.3v12.05h-1.3v-1.24h-3.6v1.84h-1.34V324.74h1.34v9.31h1V321.78h1.5v12.27h1.08Zm12.87,5.39h-1.32v7.58c0,.94-.2,1.42-.88,1.7a10.08,10.08,0,0,1-3.24.3,7,7,0,0,0-.64-1.68c1.17,0,2.26,0,2.59,0s.42-.08.42-.38v-7.54h-8.3v-1.57h1.14a4.71,4.71,0,0,0-.88-1.34c2.56-.5,3.7-1.3,4.22-2.74h-3.9V323h4.24c.06-.48.11-1,.13-1.62H221c0,.58-.06,1.12-.11,1.62h4.21v1.52h-4.48c-.05.16-.08.3-.12.46,1.58.74,3.56,1.76,4.66,2.44l-1.06,1.18h1.6Zm-1.86-1.57c-1-.62-2.61-1.54-4-2.28-.79,1.08-2.08,1.8-4.24,2.28Zm-6.77,7.63v1.1h-1.48v-5.84H221v4.74Zm0-3.42v2.08h2.42v-2.08Z"/><path class="cls-4" d="M233.77,335.57a19.29,19.29,0,0,1-4.82,3.92,12.49,12.49,0,0,0-1.5-1.22,14.58,14.58,0,0,0,4.38-3.42Zm3.7-1.42v5.54h-2v-5.54h-5.06v.48h-1.86V323.14h1.86v9.37h14.93v1.64Zm5.66-2.92H232.21v-9.15h10.92Zm-1.79-7.83H234v1.32h7.37Zm0,2.56H234v1.34h7.37Zm0,2.58H234v1.37h7.37Zm-.55,6.23a45.46,45.46,0,0,1,4.71,3.6l-1.68,1.14a41.1,41.1,0,0,0-4.61-3.74Z"/><path class="cls-4" d="M258,322.6a24.26,24.26,0,0,1-2.55,4.66h2.08v1.63h-3.34c-.52.6-1.08,1.18-1.64,1.72h4.18v8.74H255v-.82h-4v1.1h-1.68v-6.5c-.44.26-.88.54-1.36.8a8.46,8.46,0,0,0-1.08-1.52,19,19,0,0,0,5-3.52h-4.5v-1.63h3.74v-2.1h-2.86v-1.6h2.86V321.5h1.72v2.06h2.3v1a19.16,19.16,0,0,0,1.18-2.5Zm-3,9.51h-4v1.64h4Zm0,4.9v-1.8h-4V337Zm-1.64-9.75a19.6,19.6,0,0,0,1.46-2.1h-2v2.1Zm12.39-4c-.78,1.88-1.78,4.16-2.68,6a6.15,6.15,0,0,1,2.36,4.7,3.1,3.1,0,0,1-1,2.8,3.42,3.42,0,0,1-1.36.46,11,11,0,0,1-1.83,0,4.28,4.28,0,0,0-.5-1.8,9.94,9.94,0,0,0,1.5,0,2,2,0,0,0,.89-.22c.42-.24.56-.76.56-1.48,0-1.18-.56-2.66-2.45-4.3.75-1.57,1.57-3.65,2.13-5.23h-3.19v15.49h-1.82V322.46h5.79l.28-.08Z"/><path class="cls-4" d="M285.26,328.37a22.69,22.69,0,0,1-2.74,6.76c.42,1.66.9,2.64,1.44,2.64.32,0,.52-1,.58-3.14a4.27,4.27,0,0,0,1.34,1c-.24,3-.74,3.9-2.16,3.9-1.06,0-1.84-1-2.46-2.62a14.88,14.88,0,0,1-3.11,2.82,10.21,10.21,0,0,0-1.27-1.28,13,13,0,0,0,3.83-3.56,56.54,56.54,0,0,1-.93-8.89h-4.35v2.45h3.67s0,.46,0,.66c-.05,4.52-.13,6.22-.5,6.74a1.46,1.46,0,0,1-1.06.58,9.31,9.31,0,0,1-1.74,0,4.24,4.24,0,0,0-.44-1.54,10.62,10.62,0,0,0,1.38.08.5.5,0,0,0,.49-.24c.19-.28.27-1.48.31-4.8h-2.08v.68c0,2.86-.36,6.72-2.5,9.16a6.35,6.35,0,0,0-1.38-1.16,8.21,8.21,0,0,0,1.76-3.66c-1.88.78-3.84,1.56-5.42,2.2l-.6-1.84c.64-.2,1.4-.46,2.22-.76v-6.69h-1.94v-1.72h1.94v-4.56h1.72v4.56H273v1.72h-1.76v6.07l1.76-.64.34,1.62a20.49,20.49,0,0,0,.38-4.32v-6.31h6c0-1-.06-2-.06-3h1.77c0,1,0,2,0,3h2.18a15.87,15.87,0,0,0-2-2.14l1.28-.78a11.48,11.48,0,0,1,2.18,2.28l-1,.64h1.34V326h-4c.11,2.46.31,4.71.57,6.57a20.42,20.42,0,0,0,1.54-4.47Z"/><path class="cls-4" d="M297.38,325.78v2.45h6.34v6.88c0,1-.22,1.52-.94,1.82a10.69,10.69,0,0,1-3.5.32,6.73,6.73,0,0,0-.65-1.84c1.21.06,2.39.06,2.73,0s.43-.1.43-.38v-5h-4.41v9.7h-1.93v-9.7h-4.1v7.24h-1.86v-9.06h6v-2.45h-7.94V324h7.92v-2.74h2V324h8.07v1.8Z"/><polyline class="cls-5" points="245.47 355.8 122.94 477.34 122.94 542.09"/><circle class="cls-3" cx="122.94" cy="541.9" r="3.76"/><path class="cls-3" d="M217,632.8a23.69,23.69,0,1,1,0-47.38H380a23.69,23.69,0,0,1,0,47.38Z"/><path class="cls-4" d="M222.63,608.49a19.17,19.17,0,0,1-2,8.06,8.61,8.61,0,0,0-1.5-1c1.64-2.82,1.8-6.9,1.8-9.82V599.9h7.14v-1.56H230v1.56h7.26v1.66H222.71v1.8h2.8v-1.48h1.74v1.48h3v-1.48H232v1.48h4.76v5.13Zm3.22,6.14c1.22-.12,2.53-.24,3.8-.38l0,1.52c-2.61.3-5.31.62-7.29.82l-.18-1.64,1.84-.16V609h1.78v1.68h3.66v1.52h-3.66Zm-3.14-9.77v.85c0,.39,0,.82,0,1.26h2.82v-2.11Zm4.54,0V607h3v-2.11Zm8,10.19c.58,0,.72-.3.78-2a5.57,5.57,0,0,0,1.58.64c-.18,2.3-.68,2.94-2.18,2.94h-2.68c-1.9,0-2.38-.52-2.38-2.22V609h1.77v2.14a16.06,16.06,0,0,0,3.51-1.52l1.36,1.22a23.87,23.87,0,0,1-4.87,1.78v1.78c0,.58.14.68.85.68ZM232,604.86V607h3v-2.11Z"/><path class="cls-4" d="M246.69,609.89c-.42,3.48-1.5,5.72-6.42,6.92a5.76,5.76,0,0,0-1.06-1.64c4.36-.9,5.14-2.6,5.48-5.28Zm-3.56-11v10.73h-1.8V598.9Zm12.66.3v10.15h-9.88V599.2Zm-8.1,4.28h6.2v-2.66h-6.2Zm0,4.23h6.2V605h-6.2Zm4.15,2.16v4.32c0,.58.1.68.87.68H255c.7,0,.82-.36.9-2.76a5.44,5.44,0,0,0,1.74.74c-.22,3-.74,3.78-2.48,3.78h-2.72c-2,0-2.52-.58-2.52-2.42v-4.34Z"/><path class="cls-4" d="M263.93,608.85v1.24h12.79s0,.48-.06.7c-.28,3.34-.58,4.74-1.08,5.32a2,2,0,0,1-1.29.56,15.6,15.6,0,0,1-2.4,0,3.5,3.5,0,0,0-.45-1.6,16.84,16.84,0,0,0,1.95.1.83.83,0,0,0,.66-.2c.31-.32.53-1.24.73-3.48h-8V614h2.9v-2h1.7v3.46h-9.24v.94h-1.72v-4.36h1.72v2H265v-2.54h-2.92V599.88h4.56a14.07,14.07,0,0,0,.48-1.62l2.2.22c-.21.48-.48,1-.71,1.4h5.82v6.41H263.93v1.16h13.49v1.4Zm0-7.63v1.26h8.64v-1.26Zm8.64,3.74v-1.28h-8.64V605Z"/><path class="cls-4" d="M285.77,612.57a19.29,19.29,0,0,1-4.82,3.92,12.49,12.49,0,0,0-1.5-1.22,14.58,14.58,0,0,0,4.38-3.42Zm3.7-1.42v5.54h-2v-5.54h-5.06v.48h-1.86V600.14h1.86v9.37h14.93v1.64Zm5.66-2.92H284.21v-9.15h10.92Zm-1.79-7.83H286v1.32h7.37Zm0,2.56H286v1.34h7.37Zm0,2.58H286v1.37h7.37Zm-.55,6.23a45.46,45.46,0,0,1,4.71,3.6l-1.68,1.14a41.1,41.1,0,0,0-4.61-3.74Z"/><path class="cls-4" d="M311.39,601.34v2.56h5.15v12.67h-1.88v-1.12H302.31v1.16h-1.82V603.9h4.68v-2.56h-5.5v-1.8h17.57v1.8Zm3.27,12.37v-3.38a1.66,1.66,0,0,1-1.27.4h-1.84c-1.66,0-2-.48-2-2.14v-3H307v.64a5.83,5.83,0,0,1-3.44,5.58,5.78,5.78,0,0,0-1.24-1.16v3Zm-12.35-8.08v5c2.52-1.24,3-2.94,3-4.38v-.58Zm7.24-4.29H307v2.56h2.56Zm5.11,4.29h-3.35v3c0,.46.07.5.53.5h1.34c.4,0,.48-.16.53-1.3a3.5,3.5,0,0,0,1,.46Z"/><path class="cls-4" d="M336.64,602.94a38.83,38.83,0,0,1-10,10.59,13.58,13.58,0,0,0,6,1c.76,0,4.08,0,5.12,0a5.47,5.47,0,0,0-.68,1.86h-4.57c-4.24,0-7.32-.7-9.32-3.6a37.11,37.11,0,0,1-2.22,3.9l-1.82-1.1a24.32,24.32,0,0,0,3.66-6.72l1.86.72c-.16.4-.36.84-.58,1.32a5.62,5.62,0,0,0,1,1.52,35.88,35.88,0,0,0,8.51-8.43H320.47v-1.82h7v-3.8h1.92v3.8h5.45l.4-.12Z"/><path class="cls-4" d="M356.84,609.07a30.9,30.9,0,0,1-4.11,2.7,10.4,10.4,0,0,0,5.09,3.22,7,7,0,0,0-1.2,1.66c-4.2-1.46-6.63-4.56-8-9a18.66,18.66,0,0,1-2.8,2.2V614l4.66-1.08.21,1.66c-3.13.8-6.51,1.6-8.91,2.16l-.6-1.72c.8-.16,1.74-.38,2.78-.6v-3.48a22.52,22.52,0,0,1-3.72,1.58,9.68,9.68,0,0,0-1.2-1.54,22.23,22.23,0,0,0,7.26-3.5h-6.56v-1.6h7.74v-1.51h-6.1V602.8h6.1v-1.36h-7v-1.6h7v-1.5h1.87v1.5h7.16v1.6h-7.16v1.36h6.4v1.52h-6.4v1.51h7.8v1.6h-6.78a13.29,13.29,0,0,0,1.46,3.14,29.3,29.3,0,0,0,3.5-2.64Z"/><path class="cls-4" d="M369.38,602.78v2.45h6.34v6.88c0,1-.22,1.52-.94,1.82a10.69,10.69,0,0,1-3.5.32,6.73,6.73,0,0,0-.65-1.84c1.21.06,2.39.06,2.73,0s.43-.1.43-.38v-5h-4.41v9.7h-1.93v-9.7h-4.1v7.24h-1.86v-9.06h6v-2.45h-7.94V601h7.92v-2.74h2V601h8.07v1.8Z"/><line class="cls-5" x1="194.27" y1="609.11" x2="86.86" y2="609.11"/><path class="cls-3" d="M87.05,605.35a3.76,3.76,0,1,0,3.76,3.76A3.76,3.76,0,0,0,87.05,605.35Z"/><polyline class="cls-5" points="0 338.7 81.5 338.7 177.14 243.06 177.14 162.42"/></g></g></svg>