<svg xmlns="http://www.w3.org/2000/svg" xmlns:xlink="http://www.w3.org/1999/xlink" viewBox="0 0 1095.37 774.45"><defs><style>.cls-1{fill:#00be96;}.cls-2{fill:#141f42;}.cls-3{fill:#fff;}.cls-4,.cls-6{fill:none;stroke:#141f42;stroke-miterlimit:10;}.cls-4{stroke-width:2px;}.cls-5{fill:#3c3c3c;}</style></defs><g id="レイヤー_2" data-name="レイヤー 2"><g id="レイヤー_9" data-name="レイヤー 9"><path class="cls-1" d="M81,414.57l.13,0a13.22,13.22,0,0,0,4.9-.26l.15,0L87.6,413l1.28-.73.9-1.42c.57-.23,1.89-.88,2-2.11a54.22,54.22,0,0,1,1.51-5.25l.12-.11A4.4,4.4,0,0,0,96,402.24a9.24,9.24,0,0,0,1.37-2.56l6.21-2.76.11-.18c.4-.69,1.33-2.37,1.24-3.19a2.75,2.75,0,0,1,.26-1.15l2.06-1.19.09-.14a3,3,0,0,0,.4-2.12,2.73,2.73,0,0,0-1.32-1.75c-1.86-1.18-3.92.4-4.71,1.12l-2.57-1-2,1.11-.15.11c-1.68,1.65-1.52,2.29-1.46,2.5s.28,1.55.44,2.5l-2.85,3.16-1.71.34-.16.27c-.39.71-1.6,3.09-.64,4.18a8.69,8.69,0,0,0,.66.7,43.06,43.06,0,0,1-6,.16l-.53-.11-1.36,3-.88.38L81,409.18l-1.13.64-.09.2c-.1.23-1,2.21-.25,3.53A2,2,0,0,0,81,414.57Z"/><path class="cls-1" d="M104.64,430.75a3.41,3.41,0,0,0-2.71.58,6.52,6.52,0,0,0-2.08,4c0,.17-.59,4.11,2,5.32l.12,0,.33.08a3.67,3.67,0,0,0,3.11-.53,4.88,4.88,0,0,0,1.62-3.45l.34-1.82a3.26,3.26,0,0,0,0-2.58A3.48,3.48,0,0,0,104.64,430.75Z"/><path class="cls-1" d="M53.71,468.51l3,1.25,2.82-5.23L56.77,463h-.2a4.11,4.11,0,0,0-2.81,1.58c-1,1.45-.19,3.54-.15,3.63Z"/><path class="cls-1" d="M42.74,474.78v-.19a17.82,17.82,0,0,0-.26-2,1.14,1.14,0,0,0-.66-.87,1.5,1.5,0,0,0-1.12.08l-.58-.13L39.08,471a4.51,4.51,0,0,0-2.51-.57,1.64,1.64,0,0,0-1.26.58,2.92,2.92,0,0,0-.54,1.88l-1.39.84-.07.26a6.84,6.84,0,0,1-.83,1.88,1.18,1.18,0,0,0-.21,1c.18.82,1.16,1.44,1.58,1.68a10.48,10.48,0,0,0,1.22,1.08,1,1,0,0,0,.39.17c.81.17,1.69-.66,2.07-1.08l.45-1a6.9,6.9,0,0,0,3.51.66,1.61,1.61,0,0,0,1.49-.89,2.23,2.23,0,0,0-.4-2Z"/><path class="cls-1" d="M170.09,494.14l2.12.24,2.76.9,1.36-.67.5-1.38,2.32.77.27-.19a7.46,7.46,0,0,0,2-1.82,16.1,16.1,0,0,1,1.79-2c.24-.19,2.4-1.92,2.34-3.79a21.44,21.44,0,0,0-.2-2.45l.09-2.45-.15-.2c-1.17-1.47-5.1-6.31-6.63-6.69l-.08,0c-1.66-.36-4.77,1-5.17,2-.2.52-1.24,1.62-1.56,1.62a9.64,9.64,0,0,1-1.83-1.44l-4-3.16-2.79-1.82-1.61-.43c-1.89-.55-3.47-1.44-3.52-1.81a9.18,9.18,0,0,1,.5-2.76l.05-.15-.64-5-.39-1.67,1-1.16-.32-2.4c1.4-.75,2.92-1.74,3.1-2.58a3.09,3.09,0,0,1,.1-.34,2.14,2.14,0,0,0,0-1.83,2.3,2.3,0,0,0-1.77-.88l-3.13.79-2-1.88-1.39-.29-.27-2.44-4.75-1.85a1.35,1.35,0,0,0-1.07-.08c-.65.22-1.18.91-1.6,2.08l-1.86-.38-4.48-.95h-.29a10.84,10.84,0,0,0-3.17,1.07,33.89,33.89,0,0,0-2.26,2.76l-.66,1.31L130.22,452l-.93,1.43-.21.75-1,.8-.34,1.61-3.28-1.18-1,.18-1.44-5.18-.31-.12c-.23-.09-2.32-.87-3.32.28a3.67,3.67,0,0,1-1.13,0c-1.13-.13-3-.34-3.32,1.6a5.31,5.31,0,0,0,.47,3.11l-1.58.2-1.1,1.74-3.49-.74-.45,0,.68-1.66,0-.22a4.25,4.25,0,0,0-2.92-2.68c-2.42-.83-3.33,0-3.49.15l-.4.66-1.43-.95-.23-.09a2.31,2.31,0,0,0-1.8.36,2.13,2.13,0,0,0-.81,1.66,5,5,0,0,0,1.34,2.92l.27,1.3-1,.95-1.27.65-.17-.36a2.47,2.47,0,0,1-.09-.46c-.13-.86-.38-2.47-1.79-2.86a4.54,4.54,0,0,0-1.87,0A3.93,3.93,0,0,0,90.52,453c-2-.68-4,.23-4.5.93L86,454a37.87,37.87,0,0,0-5-2.06l-.34-.1-.28.23s-2,1.7-2.45,2.06A4.86,4.86,0,0,0,76.76,457a1.7,1.7,0,0,0,.46,1.32,3.51,3.51,0,0,0,3.62.67c.46-.31,1.12-.87,1.33-1.05,1.5-.73,2.5-1.23,3.18-1.6l.05.65.62,1-.78.71c-1.17.71-2.59,1.73-2.76,2.53a4.47,4.47,0,0,0,.37,2.25l.1.27,2,.79a20.69,20.69,0,0,0,.54,2.94c.32.9,2.17,1.73,3.33,2.17A5.05,5.05,0,0,1,90,471.27c-.23.8-.64,2.46-.64,2.46l0,.12,0,.13c0,.15.27,1.57,2.77,2.48a1.43,1.43,0,0,1,.8,1.25h0l-.34,1.87-1.26,4.3.94,2.56v.23l-3.41-2.1-1.37-1.42.4-1.5c.69-.27,2.06-1,2.2-2.18a7.73,7.73,0,0,0-.82-3.36l-.75-.83v-2c-.07-.35-.75-3.42-2.63-3.71a2.52,2.52,0,0,0-2.62.9l-.63,1.67-.61.18-1.18,2.42-.87.22-1.15,3.24.26,1.95c.1.7.67,4.27,1.59,5.38A8.25,8.25,0,0,0,82.48,487l-1.08,2.22v.18c0,.65.26,2.72,1.44,3.18l-2.85,2-.07.19a3.87,3.87,0,0,0-.1,3,1.92,1.92,0,0,0,1.47,1c2.25.36,5.08-2.14,5.42-2.45A16.45,16.45,0,0,1,89.25,494c.65.12,2.09.28,2.16.29l1.06-.19,2,.81L96,494.8l1.2,1,1.73.89L94.84,499l-1.18,1.6.32,1.65-.34,1.63a1.88,1.88,0,0,0,.18,1.7,2.91,2.91,0,0,0,2.63.91,13.68,13.68,0,0,0,3.14-.31l1.84.5,1.4-.28c.52,0,2.55.11,3.54-1.4a11.89,11.89,0,0,0,1.28-2.58,3.52,3.52,0,0,0,1.94-2.6,13.27,13.27,0,0,0,.37-3.61,2.26,2.26,0,0,0-1.81-2.53l-2-.62-.75-1.44-3.79-1.19c2.87-1,3-1.54,3-1.82a17.48,17.48,0,0,0,.23-2.14,15.22,15.22,0,0,0,1.87-2,3.87,3.87,0,0,0,.2-2.3l-.37-.86.4-1.88.22-.21c2-.87,4.15-1.79,4.94-2.05.42.58,1.36,2.23,2.07,3.57l1.44,4.47-1,4-1.27,1.66-.54,2.24,4.39,9.82-1.56,2.88-5.3,1.9c-1.46.68-4.62,2.35-5,4a2.33,2.33,0,0,0-.51-.11,6.78,6.78,0,0,0-2,.44l-.15-.88L101,510.14l-1.57.19-1,.54-1.37.25a10,10,0,0,0-1.41.3l.16-.39.29-.83.58-2.46-2.29-1c-.76-.27-4.56-1.66-5.66-1.6-2,0-2.31.38-2.4.83a7.87,7.87,0,0,0-.09,1.28l.08.61-1,.76-1.4,1.7-.62.68-1.55,1.31a2.83,2.83,0,0,0-1,3.54.91.91,0,0,0,0,.49.08.08,0,0,0,0,0L78,519.87l1.15-.09.22.3h-.58l-.8,2.57h1.3l.46,1.19,1.57-.09,0-.14.6-.23,1.17.52,4.67-2.83h0a1.16,1.16,0,0,0,1-.25,1.25,1.25,0,0,0,.56-.75l.44-.31.63.61,1.27.41.79-1.07,1-.66,1.3,1.07,1-1.54a4.05,4.05,0,0,0,.76,1.78,4.31,4.31,0,0,0,2,.66l.27,0,.4-.28.4.71L99.06,524l2-2.16.44-.3.47,0,1.27-.53,1.34-1.9.37-1.49,1.75-1.85.32-2.68a46.5,46.5,0,0,0,5.91.41l-3.22,2-2.5,6.24-6.34,3.32-7.22,4.51-4,2-2.58-2.36-.3,0c-3,.26-3.29.85-3.42,1.07-.28.51-1.6,3.63-1.75,4l-.09.21.28,1.09-1.14,3.55.49,1.88c-4.15,3.2-4.32,3.71-4.41,4-.35.83-.47,1.91,1.58,6.57a22.36,22.36,0,0,1,.38,5l-.14,3.06-6.06,6.34L68.67,565a1.52,1.52,0,0,0-1.46.07c-.7.44-1,1.44-.86,3l.08.27a4,4,0,0,1,.65,1.93h0l0,1.94-.72,2.12a2.94,2.94,0,0,0,2.1,3.33c1.83.72,6.57,2.35,7.92,2.81a43.47,43.47,0,0,0,1.44,5.24,5.11,5.11,0,0,0,5.47,1.71,7.18,7.18,0,0,0,2.78-1.4,2.62,2.62,0,0,0,1.32-1.87l0-.27c.13-1.08.46-3.91-2.15-4.93-.12-.17-.28-.38-.49-.64l.94-2.73-.31-1.49.76-3,.23-1.76,4.86-4.47,2-.9,1.15-2.63a3.25,3.25,0,0,1,3.23-.86c.89.48,3,4.71,3.36,6-.6.4-2.15,1.35-3.66,2.26l-1-.79-3.59,1.55-1.62,4.68,2.3,8.16L92,584.56l-1.14.59-1.44,1.56-1.34,2.18-1,1.47c-2.65.5-4.17.91-4.53,1.22s-2.19,3.06-1.69,4.77a1.74,1.74,0,0,0,1.4,1.23.45.45,0,0,0,.16,0c2.47.36,16.41-1.74,17.35-2.42a9.12,9.12,0,0,0,1.46-2.07l1.35.38.22-.1c.81-.35,4.93-2.19,5.7-3.78a3.48,3.48,0,0,0-.37-2.94,6.6,6.6,0,0,0-1.59-2,4,4,0,0,1,.27-.56,5.89,5.89,0,0,1,3-1,8.84,8.84,0,0,1,1.94.67L116,590.9a4.09,4.09,0,0,0,2.62,1.36,2.89,2.89,0,0,0,2.22-1l.09-.12c1.3-2.22,2.64-4.32,2.67-4.37l1.77-3.38,4.67-2.5,2.46-2.73,3.54-9.07,1.62-1.05,2.54-7.15,1.7-1.92,4.32-4,.88-2,.85-.34,2.1-3.46,6.65-4,1.21-2-.48-1.09,2.33-1.2,1.74-4L172,532.41c.06,0,1.58-.71.83-3.19-.07-.16-.11-.28-.15-.38l1.72.19,1.2-.33,2,1.51,1.46-2.65L182,526l1.58-5-2.47-1.9-.59-1,1.47-1.69-1.31-5.22L180,509l-.68-.19,4-2.68c.15-.13,1.47-1.37,1.26-2.66a2,2,0,0,0-1.29-1.48c-2.14-1-7.42-2.79-7.65-2.87l-.18-.06-.18,0a4.64,4.64,0,0,1-5.52-2.32l.38-2.3Zm-76.26,23-.42-.65.17-.16.26.79Z"/><path class="cls-1" d="M65.39,623.73l0,0c-.1-.11-2.53-2.89-3.08-3.46l-.17-.17-.23,0c-.56-.07-5.56-.65-7.38.93l-.11.12a14.36,14.36,0,0,0-1.82,4.1l0,.09.09,4.05,2.22,4.36,3.94,1.72,3.12-1.11,4.91-1.57.13-.21c.69-1.13,1.81-3.17,1.5-4.16A34.63,34.63,0,0,0,65.39,623.73Z"/><path class="cls-1" d="M92.63,613.08a2.49,2.49,0,0,0-2.49.44,1.69,1.69,0,0,0-.37,1.21l-3.08,1.6-2.07,1.14-1.6,3-1.93,5.61-4.31,1.42L75,632.39l0,.16c0,.37.53,3.59,2.49,4l.13,0a4.77,4.77,0,0,0,3.63-1.45l1.72-3.6,3.08-2.64L88.76,626,91,624.63l.47-2.22L93,622l2.32-5.83a2.2,2.2,0,0,0-.27-1.63A3.55,3.55,0,0,0,92.63,613.08Z"/><path class="cls-1" d="M105.11,243.07a2.14,2.14,0,0,0-1.75-1.91c-1.77-.5-2.25.52-2.31.68l-.84,2.48-2.8,1.8-2.72,1.44-1.71.05-.92,1.61-1.86.39-1.88.85-1.38,1.71-1.24.11a11.72,11.72,0,0,0-.54-2.92,8.08,8.08,0,0,0-1.81-2.44A11.86,11.86,0,0,0,82,245.79a18,18,0,0,0-1.85-.64l-.08,0H80c-.59,0-1.34-.1-1.44-.12a6.54,6.54,0,0,1-.88-.79l-.14-.15-.21,0s-.71-.15-.86-.2c-.69-.34-1.05.26-2,2l-.08.14,0,1.46-1.07,1.4v.21a19.62,19.62,0,0,1-.17,2,7.36,7.36,0,0,0,1.15,3.57c.13.11.34.28,1.93.39l.81.39c.15.21.29.43.4.6-.3.17-.76.42-1.23.64l-2.4.43-1.36,0-1.82-.39-2.48.65-.71,1.25-.48.12-2.45,1-1-.35-.18,0c-.44.09-1,.19-1.27.22a11.56,11.56,0,0,1-.66-1l-.15-.23L59.52,258l-1.8,2-.06,2.37.17,1.79.09,1.58-.3,1.84c0,.42,0,.93,0,1.2a3,3,0,0,1-.42.14l-2.41.34-2.83,1-1,1.36a4.34,4.34,0,0,0-2.23,1.64,8.49,8.49,0,0,0-1.17,4l-.16,2.56-.93,1.55-.08,1.81.24.22a19,19,0,0,0,1.74,1.42,1.13,1.13,0,0,0,.39.15,4.44,4.44,0,0,0,2-.23l1.55.06,1.34-.75,1.92-.74.79.16,2.57-.72L61.53,281l.09-.16a5,5,0,0,0,.44-1.32,4.78,4.78,0,0,0-.46-1.89l-.12-.28-1.35-.44.52-1.12,2.5-2.25.48-1.24,1.43.09.61-.36.84,1.44A4.83,4.83,0,0,0,68.2,275a5.46,5.46,0,0,0,2-.12l.35-.07,1-2.31L71,271.1l-1.15-1.49-.54-.57.7-1.83-1.24-2.61c0-.17-.12-.56-.17-.92a2.24,2.24,0,0,1,1-.23,3.08,3.08,0,0,1,1.16.83l.86,1.12.16.07,1.87.78a.94.94,0,0,0,.8-.07,1.77,1.77,0,0,0,.67-1.18l.41-.47.25.06H76c.77,0,1.71-.08,1.84-.07s.58.13,1.74-1.06l.13-.14.11-.51.34.13,1.6.17,1.62-.62,0-.23,2.87.6a10,10,0,0,0,2.68-.29l.24,0,.16-.19a9.73,9.73,0,0,0,1.19-1.6,1.32,1.32,0,0,0,.09-.88l.64-1.15L94.8,260l.23-.08,3-1.12a27.26,27.26,0,0,0,4-2.82l1.23-1.46a4.27,4.27,0,0,0,2.26-2.1,7.65,7.65,0,0,0,.75-3.4l.23-2.14.12-2.32-1.53-.77Z"/><path class="cls-1" d="M75.32,267.5l-2.76,1.08-1.22.77-.07.24a2,2,0,0,0,.42,1.72l.1.12.92.43a8.16,8.16,0,0,0,.8.21,1.79,1.79,0,0,0,.7.06,9.08,9.08,0,0,0,1.69-.71l.83-.82.91-2.77-1.36-.59Z"/><path class="cls-1" d="M69.13,244l1.72,1,.15.07c.8.25,1.78.56,1.93.59a2.41,2.41,0,0,0,2.12-1.24,2.12,2.12,0,0,0-.17-1.83,1.57,1.57,0,0,1-.07-.18c-.12-.5-.84-1.05-2.15-1.64a4.4,4.4,0,0,0-1.7-.37,2.59,2.59,0,0,0-2.09,1.51,2.51,2.51,0,0,0,.17,1.88Z"/><path class="cls-1" d="M83.25,233.57a2.35,2.35,0,0,0,1.33,1.09,1.58,1.58,0,0,0,.44,0,3,3,0,0,0,1.81-1c1.3-1.67,1.29-1.92,1.28-2.14,0-.44-.11-1.91-.7-2.22a.7.7,0,0,0-.43-.07c-.13,0-.33-.11-.55-.18-1.08-.38-1.83-.6-2.28-.34-.15.06-1.47.61-1.63,1.78a4.79,4.79,0,0,0,.64,3A.73.73,0,0,1,83.25,233.57Z"/><polygon class="cls-1" points="87.82 227.38 88.82 226.46 90.4 227.14 92.04 225.29 93.99 224.87 95.4 223.09 96.86 220.72 93.27 221.02 87.69 223.39 85.18 224.94 85.98 228.68 87.82 227.38"/><polygon class="cls-1" points="115.06 228.6 113.69 226.39 111.35 225.37 110.09 225.49 108.54 226.23 107.33 227.47 108.41 229.02 110.15 230.58 112.43 231.07 115.27 230.99 114.83 229.69 115.06 228.6"/><path class="cls-1" d="M322,503l.18-.85c.21-1-1.47-2.06-1.66-2.18a3.18,3.18,0,0,0-2.36-.07l-2.84-1.11-.28.14a1.36,1.36,0,0,1-.41.15c-.23-1.05-2.8-3.62-4.51-5.24l.65-3c.38-1.8-1.6-3.59-2.56-3.8a4,4,0,0,0-1.7.23l.16-.76-.35-.26a14.06,14.06,0,0,0-1.9-1.11,4,4,0,0,0-2.52.06c-.25.05-.6.14-.65.14a14.76,14.76,0,0,1-2.31-1.83l-3.66-2.06-4.09,1.17-3.27,1.06-1.73.35-4.43,1.57a8.86,8.86,0,0,0-1.65-.63c-1-.21-1.68,1-2.12,2.14l-1.45,1.73-2.63,3.46-.51,2.12-3.44,1-1.33-1.11-2-1-1.1-1.4-5.07-1.32-1.24.07-1.53-.44-1.77.46-1.77.06a9.22,9.22,0,0,1-2,0,7.32,7.32,0,0,1,.19-1.94l-.2-1.55-.66-2.15-1.18-1.38.3-1.48a8.84,8.84,0,0,0-.58-3.68,4.36,4.36,0,0,0-2.91-1.94l-.44-.13a.9.9,0,0,0-.88.12c-.47.36-.64,1.3-.52,2.77l-.21,1-2.86-.6-.21,0a14.44,14.44,0,0,1-2.6.09c-.61-.13-1.81.44-3.63,1.78l-1.43,1.48-1.63,2.59L231.36,488l-4.57,5.41L225,494.64l-3,.46-2.29.65-2.81.12-3.46.52L209,497.5a3,3,0,0,0-2.91.45,3.24,3.24,0,0,0-.86,4l.12.25,2.11.75,1.09.66a9.61,9.61,0,0,0-1.48,1.9l-.19.29a1.92,1.92,0,0,0,.14,1.9,3.27,3.27,0,0,1,.19.5,8.28,8.28,0,0,0-.45,2.14l0,.47,4.39,2.16-.23,2,.06.15c.21.54.43,1.19.54,1.49-.61.37-2.14,1.17-3.12,1.67a13.38,13.38,0,0,0-2.41,1.35c-.12.13-.38.41-.26,1.88l-.94.57-1.49,4.67,1.14,3.9-.47,2.22,1.89,1.11a2.39,2.39,0,0,0,1.34,2,5.91,5.91,0,0,0,2.95.1l.44,1.4a2.27,2.27,0,0,1-.67-.1c-1.35-.48-3.5,2.29-4.12,3.15a1.7,1.7,0,0,0-.19,1.46,4.18,4.18,0,0,0,1.53,2.28,3.76,3.76,0,0,0,2.13-.09l.1,0a16,16,0,0,1,1.17,2,6.14,6.14,0,0,0,2.49,2.45,3.49,3.49,0,0,0,1.05.42,3.39,3.39,0,0,0,2.47-.47,12,12,0,0,0,2.71,1.08l.08,0c1.74.37,2.71-1.26,3-2.18l0-.09v-.43l.31-.33,2.74-1.35,2.34-6,2.35.5.18-.07a11.56,11.56,0,0,1,1.58-.44c.22,0,.86-.12,4.06-3.43l2.26-1.55c.64.1,2.17.34,2.65.34,1.07,0,1.17-1.31,1.22-1.95a.22.22,0,0,0,0-.08,15.87,15.87,0,0,1,1.87-.87l.3-.12,1.61-5.27-.13-.93,1.6-.82a2.61,2.61,0,0,0,1.22,1.09c1,.38,1.77-.82,2.16-1.66l2.86-.08,1.56-.15,1.43-.32,2.05.12a11.37,11.37,0,0,0,2.88.11,1.69,1.69,0,0,0,1.13-.9,3.91,3.91,0,0,0,.86.79c.72.42,1.95-.14,2.79-.64l2.82,1.34,1.34-.33.86.74,1.1,1.68c.15.18,1.55,1.81,2,2.26.31.28,2.05,2.41,3.14,3.76,2.6,8.95,4.4,13.69,5.34,14.07,1.38.56,3.43-1.52,4.33-2.55l1-.52,1.06-2.33,1.22-1.67,1.71-1.47,1.49-2.28,1.52-.4.65-2,2.82-1.57,1.17-.69,4.59-1.77,4.31-.61c.06,0,5.69-.7,8.84-1a2.25,2.25,0,0,0,2-1.23c.64-1.43-.73-3.38-.89-3.59l-.83-.53a12.58,12.58,0,0,0,2.75-1.31,2.19,2.19,0,0,0,.95-1.45,3.41,3.41,0,0,0-.62-2.31l-2.36-5.34,1.91-2.27a29.6,29.6,0,0,0,3-2.62,1.59,1.59,0,0,0,.44-1.29A4.67,4.67,0,0,0,322,503Z"/><path class="cls-1" d="M311.14,485.75h0a3.41,3.41,0,0,0,1.43.25,2.16,2.16,0,0,0,1.31,1.87,2.56,2.56,0,0,0,.34.1,2.83,2.83,0,0,0,2.14-.47l.15-.12.92-2.39a4.31,4.31,0,0,0,1.29-1.76,3.13,3.13,0,0,0,.08-2.59l-.1-.22-3.7-1.63a9.56,9.56,0,0,0-3.21,0c-2.15.52-2.7,2.79-2.7,3.91v.16l.07.14A7.59,7.59,0,0,0,311.14,485.75Z"/><path class="cls-1" d="M288.7,371.21c0,2.14,0,3.81.91,4.38h0a24.39,24.39,0,0,0,3.32,1.49l.43.16,2-2.18,2.25-.05.2-.23c.43-.51,1.83-2.25,2-3.24s-1-6.41-3.6-7c-2.31-.49-5.62,1.51-5.94,2.38-.05.14-.22.41-.41.75-.73,1.23-1.19,2.08-1.1,2.68C288.71,370.52,288.7,370.83,288.7,371.21Z"/><polygon class="cls-1" points="275.61 383.48 276.38 382.19 277.97 384.25 283.06 385.1 281.06 388.13 288.48 386.02 290.4 381.67 289.91 378.81 283.93 376.08 284.36 380.73 284.74 382.55 283.76 384.05 282.14 377.71 286.31 371.25 281.24 374.49 273.84 377.51 269.89 381.97 272.66 385.88 275.61 383.48"/><polygon class="cls-1" points="279.71 387.8 275.34 384.62 272.31 386.7 275.57 392.99 275.95 391.19 278.19 393.09 281.84 393.87 282.28 391.8 286.04 387.88 280.81 389.34 279.71 387.8"/><path class="cls-1" d="M228.09,474.34a3.74,3.74,0,0,0,1,.06,4.33,4.33,0,0,0,4.1-3.27l0-.18-.06-.17c-1.21-3.7-2-3.87-2.28-3.92-1-.21-3.13.29-3.49,2L227,471a2.85,2.85,0,0,0-.12,2.58A1.86,1.86,0,0,0,228.09,474.34Z"/><path class="cls-1" d="M251.13,475.43a5.57,5.57,0,0,1,.53.18,12,12,0,0,0,1.47.44,2.78,2.78,0,0,0,3-.83h0c1.14-1.52,1.56-2.69,1.27-3.47a1.28,1.28,0,0,0-1-.8c-1.55-.33-3.71-.62-4.56.66-1.73,2.38-1.47,3.06-1.38,3.28A.86.86,0,0,0,251.13,475.43Z"/><path class="cls-1" d="M337.83,507.27a5.2,5.2,0,0,0,1.49-1.79,5.91,5.91,0,0,0-.05-2.39l.62-2.3-.45-.54.15-2.09,2.74-1.06.63-1.34,4.2-2.25.1-.15a5,5,0,0,0,.82-2,1.81,1.81,0,0,0-.67-1.3,2.76,2.76,0,0,0-2.1-.73L327,497.22l-.11.14a13.83,13.83,0,0,0-1.74,2.94c-.17.47-.92,2.85.24,3.29l.22.12a5.47,5.47,0,0,0,.72.34l-.43.81-.07.13v.14c-.1,1.17.19,2.62,1.31,2.85h0a12.5,12.5,0,0,0,2.76,0l7.72-.62Z"/><path class="cls-1" d="M548.45,373.15a3.46,3.46,0,0,0,.49.06c1.29.08,2.2.19,2.87.27a4.71,4.71,0,0,0,1.92,0l9.19-3,.92-2.8,1.65-1.91a8.66,8.66,0,0,0,1.56-2.38c.23-1.1-2.26-3.43-4.3-4a.65.65,0,0,1-.28-.14c-.06-.19.39-.91,1-1.44a7.48,7.48,0,0,0,1.94-2.18,13.23,13.23,0,0,1,.62-1.44,7.78,7.78,0,0,0,2.58-4.52,1.35,1.35,0,0,0-.66-1.31,3.51,3.51,0,0,0-3.48,0c-.92.54-9.07,5.29-10.19,6.26-1.29,1.13-3,5.75-3.11,6.29s.48,1.34,1.69,2.56l.8.81a1.86,1.86,0,0,1-.34.76l-5,3.11-.19.17c-.29.4-1.7,2.48-1,3.87A1.81,1.81,0,0,0,548.45,373.15Z"/><path class="cls-1" d="M931.69,168.36l-3.92-3,2.46-2.3-1.67-2.13-1.85-14.78-2.32-5.49,3.72-9.47,2.84-2.56c1.23-1.19,12-11.67,12.81-13.59a5.13,5.13,0,0,0-.2-4.37,1.94,1.94,0,0,0-1.54-1,4.74,4.74,0,0,0-3.15,1.65l-24.71,14.36-13.47-6.35c-1.85-.88-1.82-3.5-1.79-5.42a7.68,7.68,0,0,0-.12-2,3.72,3.72,0,0,0-2.35-2.35l-.38-.12-.29.29a24.84,24.84,0,0,1-4.49,3.7,24.49,24.49,0,0,1,2.6-5.14l.45-.72-7-2.46-2.16,3.33-7-3.62-2.33-8-19.16-25-8.92-20.45-3.74-16-10.8-23.06c.16-.87.48-3.61-1.31-4-1.38-.29-5.87,2.79-8.48,4.7A4.37,4.37,0,0,0,820,10.3c-3.74-.79-9.05,9.91-10.07,12.07l-.08.16L811.1,39l-2,16.14-2.73,1.77-1.34,6.28-5.6,4.13-5.67,15.35,0,.1-.12,5.91c-1.49.69-7,3.19-9.93,3.84-4.07,1.35-6.6,3.12-7.52,5.27a4,4,0,0,0-.17,2.83l-2.34,19.2-11.25,5.93-5.68-7.28-8.69-.67-4.39-9-.17-.21c-.22-.19-5.32-4.56-9-3.73s-5,8.78-5.14,9.69l0,.16,3.8,10.62-12.67,8.91-3-4.22-.55.42c-.06,0-6.56,4.93-10.84,4.29-5-.74-8.73,5.15-8.89,5.4l-.11.18.21,5.9a42.23,42.23,0,0,0-5.44,6.46c-2.17,3.34,1.39,7,2.51,8l-.92,4.31,5,3.5.89,6.36-1.08,7.72c-1.33,1-8,6.35-11,12.61-3.45,7.23,6.25,12.81,6.34,12.87l.4.22,3.45-2.76L706,204l2.13-7.24,7.37-.74,3.4-3.12,4.26,3.85,6.45,6.37,11.63-4.34-1.35-5.21-7.36-6-3.66-11-8.46-4.21-7.29-8.69.63-3,5-7.31,5.93-4.08,7.65,1.63,5.54,11.43-.78,3.67,6.55,3.73,18.15-7.57,9.31-.6L781,168l16.71,20.8,17.5,14.95c1.27,2.72,6.89,14.41,10.24,15.13l.15,0c3.51.42,6.52-11.27,7.35-14.87l0-.11-.39-3.46,10.13-10.88,24.45-15.15,14.49-1.81c1.3,1.31,7.5,7.2,15.92,8.36l.36,0,4.89-5.58.74,2.82,6.5,3.7,8.93-8,15.5,3.29,3.77-6.23c1.68-.47,7.26-2.14,8.23-4.1a1.51,1.51,0,0,0,0-1.26C945.64,163.46,938.05,165.88,931.69,168.36Z"/><path class="cls-1" d="M679.88,160.73l.18-.09,3.49-6.58-7.22-1.54-2.17,10.19,1-.19A19.27,19.27,0,0,0,679.88,160.73Z"/><path class="cls-1" d="M791.53,12.43h0a1,1,0,0,0,.33.13,1,1,0,0,0,.52,0c1.37-.38,3.35-4.11,4.11-5.63l1.86-3-.1-.3c-.11-.32-1.08-3.09-3-3.57a3.84,3.84,0,0,0-3,.8c-.22.16-1.33,1-1.38,1.64C790.39,8.51,790.61,11.84,791.53,12.43Z"/><path class="cls-1" d="M795.64,14l-2,5.42.06.21c.24.91,1.14,3.82,2.69,4.15l.16,0c1.46.15,5.57-1.61,6.25-2.88.59-1.11-.57-4-.7-4.32-.51-1.23-1.33-2.75-2.38-3.08a6.25,6.25,0,0,0-3.78.37Z"/><path class="cls-1" d="M987.46,121.7l.25,0,.21-.15c2.71-1.92,3.94-3.56,3.75-5a2.39,2.39,0,0,0-1.51-1.83l-.13,0-6.55.34-3-4c-.07-.12-.72-1.25-3.21-2.26-4.56-1.2-9.63,6.42-10.46,7.7l-9,7.21L953.4,129l-14.87,6.92c-1.58.74-1.54,4.29-1.47,5.57-.44,1.35-.64,3.92,1.43,4.78a3.56,3.56,0,0,0,1,.35c2.51.54,4.77-1.58,4.88-1.68l2.91-6,2.24.06.82-.65,1.77,0,3.56-1.66,1.41-2.54,4-1.17,2-4.63,8.92-4.85,6.21,1.24,6.91-3.88A9.2,9.2,0,0,0,987.46,121.7Z"/><path class="cls-1" d="M996.17,149.85a10.08,10.08,0,0,0-3.75-.79h-.16l-3,1.56-2.14.5-3.44-.56-.67,3.11.72,4.34,2.33.49,11-3.71.11-.29C997.74,153.15,998.11,150.65,996.17,149.85Z"/><path class="cls-1" d="M1093.86,77.71a40.48,40.48,0,0,0-5.22-2.25c-2.41-.77-5.85,1.43-6,1.54l-13.9,9.5-3.7-.3a20.8,20.8,0,0,0-4.56-1c-.2-.51-.52-1.45-.8-2.31-1.63-4.87-2.61-7.12-3.78-7.28-1.85-.3-3.9,2.71-4.29,3.32l-.1.16,0,2.66-1.72,4.15-1.56-.33-3.92,1.38-2.68,3.66a13.8,13.8,0,0,0-2.86-1.4,3.94,3.94,0,0,0-4.09,2,8,8,0,0,0-.8,3.32l-10.34,5-1.5,2.68-3.52-1.3-.26.12a11.85,11.85,0,0,0-2.3,1.44,1,1,0,0,0-.35.84c0,1,1.56,2.24,2.29,2.79a3,3,0,0,1,.64,1.82c-.09.41-1.57,1.46-3.17,2.27l-3.37-1.44-1.81,2.76-2.42-.51-.66,3.09a12.14,12.14,0,0,0-4.47,6,1.14,1.14,0,0,0,.37.91,7.24,7.24,0,0,0,3.24,1.58,3.4,3.4,0,0,0,.86.09c1.22,0,4.69-3.4,6.82-5.59l2.94.63,7.79-6.19L1038,105.2l2.21-4.14c.36-.68.77-1.43,1.09-2a16.17,16.17,0,0,0,4.43,3.8c1.14.32,3.93-.59,4.84-.91,5.07-2.61,18.55-9.49,20-10,1.72-.54,10.08-2.69,10.93-2.91l3.93-.16c.44.15,2,.67,3.68,1.15l.13,0,.14,0a4.16,4.16,0,0,0,3-1.6,3.61,3.61,0,0,0,.52-2.61l-.71-2.94c1-.55,2.79-1.64,3.08-2.68A2.4,2.4,0,0,0,1093.86,77.71Z"/><path class="cls-1" d="M736.25,245.51l.24-.12,4.37-12.12,1.38-.9L745,224.8v-.12a3.08,3.08,0,0,0-1.89-2.63c-1.64-.76-5.52,0-6,.11l-.82.17L729.27,213l-1.86-2.41-2.51-1.76a2.05,2.05,0,0,0-1.48-.28,1.82,1.82,0,0,0-1.16.86l-10.43,16.46.77,4.88,7.91-.79,3,3.12,7.3-3.8.67,4.64-6.51,10c-.55,1-2.06,2.95-3.19,2.7s-1.39-2.79-1.35-4.48v-.3l-6.55-6.18-3.71,6.89-3.67.63-1-4.83,2.39-11.24,0-.15c0-1-.26-5.87-2.69-6.38l-.07,0a9.79,9.79,0,0,0-4.08.28l-2.42-2.56-3.84-.63-1.8,4.34-2.56,1.87,2.24,5.82-2.27.05-3.19,5.81-2.12,3.05-5.66,1.91-5.22-1.79-.27.18c-1.21.78-7.26,4.75-8,6.16l-.06.15c-.37,1.39.47,3.95.76,4.75l-1.54,5.13,1.36,3.09.38,3.14-.22,1L665,267.66l-4.85,5.15-1,2-6.22,3.65c-1.73-2-2-2-2.19-2.05s-.53-.11-2.52,1l-.27.15-.5,2.36.16,1.33-.67,2.41,0,.17a2.55,2.55,0,0,0,1.75,1.81,4.72,4.72,0,0,0,2.34,0l1.39.46,1.17-.57h1.52l2.5,7.76-1.34,3.15-1.63,1.94-4,12.15a30,30,0,0,0-3.65,2.4c-.28.31-3,2.95-4.83,4.66l-1.56,3.3-.71.32-1.55,4.9-1.68,1.24-3,7.7a11.8,11.8,0,0,0-3.62,2.79,26.29,26.29,0,0,1-4.61,3.75l-2.86,3.59-7.07,5.5L601.31,369l-2.06,2.63-6,3.44-3-.63-18,4.47L570.4,382l-2.23,1.5-3.6,4.74-1.38,2.13-9.76,7.42-17.77,6.66L528.82,402l-8.34,3L508.21,405l-1.24.86-5.76-1.22-5.71.88-1.86,2.92-1.21,2.3-6.6,1-6.94-8.07,2.14-3.41,1.46-1.08,2.32-6-.15-.28c-.36-.63-1.07-1.72-1.83-1.88a3.32,3.32,0,0,0-2,.56,14,14,0,0,1-2.49-2.22A47.58,47.58,0,0,1,481,384l.94-.2.84.7,1.33,2.5,8.25-3,1.83.53.16,0c.14,0,3.41-.65,4.31-3.28.47-1.35.77-2.42.94-3.09L502,379l.2,0c.63-.12,3.82-.82,4.05-2.74a6.12,6.12,0,0,0-.94-3.52l-.12-.19-5-1.86-17.41.85-2.36-.43h-.24c-.17,0-4.22.79-5.73,2.85l-.08.14a5.94,5.94,0,0,1-1.49,2.06l-2.36,3.19-1.15.89-1.08,3.28L470,384.5l-1.32,4.28.83,3.34-.47,1.16-1.56,1.38-2.22,5.89-7.38,5.52-1.45.87-.75,1.5-3.51,1.61-.9,1.39-17.15,9-6-.82-2,4-9.71,7.09-1.36,1-.46,2.17,2,11.81-1.16,1.16-.68,1.27,0-2-3.31-1.18L409.67,446l-1.13,3.48-3.05-1.34h-.15a2.7,2.7,0,0,0-2.68,1.7l0,.15v0a10.84,10.84,0,0,1-1.88,1.84l-.18.15-.09.43-.88-.19-4,1.48-1.1-1.11L389,450l-1.26-1.44c.64-1.08,1.52-2.93.82-3.91s-2.83-1.15-3.23-1.15l-5,1.6-.64,1-2.15-2.85-1.46-.83,4.74-2.31c.63-.37,2.11-1.34,2.13-2.38,0-.25.1-6.13-2.9-7.2-1.29-.38-13.12.6-16.74.93l-3.53-2.33-12.21-4.56-7.16.33-4.9,0-4,1.31-12.05-4.41-2.12.34L313,420.56l-.55-1.36-3.7-1.46-.57-1.12-4.59-1.34L297,416.35l-.91-1.23-1.52-.39c-.17-.78-.61-1.54-1.41-1.57a9.47,9.47,0,0,0-2.07.2l-.29.06-1,1.59-3.46-2.07.68-1.49,2.06-2.25,0-.29c0-.19-.36-4.7-3.12-5.51-2.27-.63-5.59,1.17-6.62,1.79l-2.57-.89-4-.09-4.25-.35-.82.53-2.5-1.22H265a2.31,2.31,0,0,0-2.39,2.12,9.93,9.93,0,0,0,.39,3l-1,.76-1.59,2-9.64,1.2-7.11,2.91-.11.15a4.93,4.93,0,0,1-2.59,1.84c-1.6.18-8.47,1.44-8.76,1.5l-18,8-6.55-1.4-.25.18a8.93,8.93,0,0,0-1.76,1.66,18.94,18.94,0,0,1-3.92-1.08l-.25-.09-9.63,4-3.24,2-.39,1.84-3.79.21-5.34-2L178,428.34,174.37,427c-.3-.66-1.07-2.06-2.21-2.3a4.69,4.69,0,0,0-4.92,3.14l-.14.46-.42-.09-.19.07c-4.42,1.67-4.53,2.57-4.56,2.87a37.75,37.75,0,0,0,.63,5.18c-1.07.7-3.87,2.65-4.43,4.28-.26,1.2.57,3.45.91,4.3l-1.16,3,.05.2c.17.71.58,1.93,1.44,2.11.4.09,1-.1,2.85-.7a25.34,25.34,0,0,1,2.83-.85,17.62,17.62,0,0,1,2.65,3.68l-.32,3.43,3.35,1.26a2.41,2.41,0,0,0,2.06,1.67,24,24,0,0,0,3.49-.41l.16,0,2-1.57.12-.13v.12l3.57,1.68,1.13-.32a4.71,4.71,0,0,0,2.16,2.67c1.31.56,7.74.42,9.89.35l1.84,4,1.48.76,2.79,5.81,2.77,1.26,1.38,3.16,2,1.15L209.2,476l.78-2.37,1.77-.26a5.47,5.47,0,0,0-1.23.88l-.11.15c-.31.55-1.79,3.38-1,4.87a1.56,1.56,0,0,0,1.13.84l.21,0a9.43,9.43,0,0,0,4-.37h0a1.68,1.68,0,0,0,1.15-.13,1.76,1.76,0,0,0,.88-1.3c.35-1.61-.82-4.79-2.66-5.33l.6-.09,2.4-5.52-.06-1,2.52-1.07,1.08-3-.58-1.7.21-.1v0l8.31-3.77,4,1.75-.09,0-.25,2.45c0,.55-.16,5.33,2.29,6.62a1.9,1.9,0,0,1,1.15,1.27,1.61,1.61,0,0,0,1.49,1.32,50,50,0,0,0,5.57.2H243l.18-.15a24.07,24.07,0,0,1,3.7-2.59l6.34,2.26,1.79-.73,2,.73,4.26-2.15,2.09.64,3.82.44-.6,1.76.11.24c.13.28,1.3,2.67,3.1,3.31a4.75,4.75,0,0,0,3.71-.44l.14-.09,1.45-2.5,1.63.6.22-.08a3.61,3.61,0,0,0,1.95-2.32l1.2.43c.51,1.13,1.58,3.15,2.77,3.24a13.68,13.68,0,0,0,3.33-.67l1.18-.34a4.51,4.51,0,0,1,.45.81l.11.25,1.6.69c.26,1.79.79,3.81,1.82,4.12a4.89,4.89,0,0,0,2.52-.26l1.16.92c.28.39,1.37,1.72,2.67,1.54,1.11-.15,2.52-1.76,3.16-2.56a5.24,5.24,0,0,0,4-1.77l.19-.26,0-.22c0-.05,0-.1,0-.17a6.79,6.79,0,0,0,.15-.88l2.43,1.8.21.11a4.32,4.32,0,0,0,3.18-.6c1.1-.65,5.27-2.64,5.31-2.66l.15-.07.09-.13a3.35,3.35,0,0,0,.46-.78l1.32.56c2,.68,2.45.2,2.6,0a3.64,3.64,0,0,0,.53-.91c.65.76,1.52,1.6,2.28,1.62a7.73,7.73,0,0,0,3.51-1,2.15,2.15,0,0,0,1.23,2.09c1.43.48,3.23,1.29,3.29,1.31.75.27,3.28,1.14,4.24.94a4,4,0,0,1,1.86-.09c.3.27,2.1,2.65,3.69,4.75,5.56,7.37,6.51,8.45,7.09,8.59a26.43,26.43,0,0,0,4.1.1l2.9.51.15-.05c2.24-.65,5-1.18,5.56-.92,1.37.62,3.38,2.09,3.55,3.06a17.49,17.49,0,0,1-.32,3.64l-.49,1.07-3.32,1.69-2,3-7.61,3.93-4.43-1.2-1.09.78a3.39,3.39,0,0,0-2.49.21,2.8,2.8,0,0,0-1.32,2.14c0,1,2,5.79,2.91,8l-4.34,1.73-.22.14a3.69,3.69,0,0,0-.89,1.4c-.15.48.14,1.25.86,2.27a2.79,2.79,0,0,0-2.74,3.14,2.8,2.8,0,0,0-1.91,1.92c-.27,1.16.34,2.4,1.68,3.53.14.51.5,2.24.81,3.8l2.53,4.84,3,3.35c-1.83,2-1.88,2.29-1.91,2.46a6.33,6.33,0,0,0,.57,2.3l.2.6c0,.25-.08,1.7-.08,1.7l0,.28c0,.15,1.36,3.6,3.17,4.88.68.47,1.37,1,2.05,1.55a28.38,28.38,0,0,0,2.85,2c1.21.71,4.55,3.21,5.23,3.72a3,3,0,0,0,2,1.45,3.6,3.6,0,0,0,2-.19A22.5,22.5,0,0,1,365,561l3.69-1.46,1.28-3.4-.19-.29,3.37-1.63.91-1.56,2.48-2.3,3.47-2.74a24.19,24.19,0,0,1,4-1.66s3.58.32,4.33-1.12a10,10,0,0,0,.74-2.45c.74-.44,1.53-1,1.7-1.61a8.3,8.3,0,0,0-.17-2.61c0-.17-.05-.33-.06-.45a28.72,28.72,0,0,1,4.49-3.12,20.87,20.87,0,0,1,3.59-.61c.71-.08,1.33-.16,1.72-.24l2.06-.38,4.17,1.39,2.31-.31,5.7-2.22-.89,1.07,0,.29c0,.24.31,2.35,1.74,2.66a7.26,7.26,0,0,0,2.28-.16,6.7,6.7,0,0,1,2.06-.16c.23.09.5.63.7,1,.34.69.74,1.47,1.55,1.52a3.86,3.86,0,0,0,3.25-2.43,4.33,4.33,0,0,0,0-2.59l.73.27.27.1.25-.13a2.59,2.59,0,0,0,1.37-1.75,3.55,3.55,0,0,0-.85-2.78,2.29,2.29,0,0,0-1.34-.69c0-.49-.06-1.31-.11-2.68v-.19l-2.07-3.14-4.63-4.27-4.32-4.69,2.23-5.25,2.7-.84,1.42-2.35a22.84,22.84,0,0,0,4.55-3.54,10,10,0,0,0,1.87-4.11l2,.88,1.37-.88,2.92.62-.79.93-2.32,6.72.75,1.67-.83.88-1.4,3.36,0,.17c.13,1.13.72,4.85,2.54,5.24s3.52-.2,3.78-1.44a8.14,8.14,0,0,0-.82-3.47l.82-1a3.45,3.45,0,0,0,1.66,2.94,6.4,6.4,0,0,1,2.5,2.41l.13.28,5.07,1.34,2.51-2c.39.33,1,.9,1.78,1.65a4.49,4.49,0,0,1,1.16,2.51h0l-.11.87-.54,0-1.66-2.55-5.21,1.64a7.06,7.06,0,0,1-2.53.68,7.79,7.79,0,0,1-2.17-1.39l-.22-.18-.28,0c-.52.05-2.27.29-2.65,1.33a4.17,4.17,0,0,1-.24.49c-.45.88-1.13,2.2-.71,3.24a1.71,1.71,0,0,0,1.1,1,3.12,3.12,0,0,0,2.77-.15l2.55.86,1.44-.48,2.74.92,1.21-.51,2.09.76,1.2-.2,2.33.61.86-.47,2.44.8a2.08,2.08,0,0,0,1.81,0c1.1-.49,1.95-1.79,2.54-3.87a14.6,14.6,0,0,1,2.49-.1h.16l.15-.07a4.06,4.06,0,0,1,1.19-.33l.13,1.4a2.62,2.62,0,0,0-1.8,1.74,3.88,3.88,0,0,1-.21.63c-.32.78-.9,2.23,1.18,3.15,1.84.81,12.49,4.56,14,5.08l1.07,1.13,1.43.77.33,1.25,2.55.77.49,1.32,3.12,1.06.21-.07a4.66,4.66,0,0,0,2.12-1.22,5.22,5.22,0,0,0,.51-2l6.32-3.32,1.38-1.21,1-3.19,1.21-.06.15-.41c.31-.81,1.06-2,1.7-2.11a7.08,7.08,0,0,1,2,0l4.07,0,.19,0a3.46,3.46,0,0,0,1.8-1.23c.36-.6.17-2,0-3l4-2,1.37.29,3.13-.22.69.22.71,1.09,2.5,1.63.6,1.3.38.45-.41-.12-3.39,1.23-1.13,2.84.47,2.22,0,.89-.69.44-1.18,3.52-1.42.37-1,3.09-1.26.53-.9,3.66,0,.16c.35,1.49,1.64,6.39,3.5,7a14.53,14.53,0,0,0,4.51.49l5.15-2.66,1.7-4.36,3.79-1.18.62-1.27,3.49-1.71,2.3-5-2-5.4,1.34-1.24,1.49-2.06a3.28,3.28,0,0,0,2.25-1.13,8.91,8.91,0,0,0,1.31-2.66l.06-.21-.2-.56,3-1.18,2.55.86,1.3-.28,1.2.36,2-.12,1.22.48,1.33,0,.52.46,1.87,1.3,2.33,1.44,1.46,2.36-.29.54L557,530.86l-.12.2a4.39,4.39,0,0,0-.05,3.12,1.89,1.89,0,0,0,1.31,1,6.89,6.89,0,0,0,3.67-.23l.5-.2-.24-1.52,1.87-.85.17-.11c.33-.29,2-1.81,1.48-3.14-.36-1-2.18-2.53-2.86-3.09l-.31-1.34,1.22-3.44,1.79-.56.13-.17a3.49,3.49,0,0,0,.67-1.7l1,.71.31.23.36-.16s2.2-1,2.92-1.26a2.11,2.11,0,0,0,1.27-1.21,4.43,4.43,0,0,0-.23-3l.82.17.24-.16c.59-.41,1.33-1,1.45-1.58a3.94,3.94,0,0,0,0-.93l1,.45.93-.15A2.32,2.32,0,0,0,578,513.7c1.17.25,3.74-.69,4.71-1.07l1.21.58c.71,1.87,1.77,4.8,1.85,5.38a7,7,0,0,1-3,1.48L581,521l-4.86,1c-.45,0-1.74.22-2.4,2.37-.39-.12-.91-.32-1.34-.5l-.26-.11-2.76,1.17c-1,.51-1.59,1-1.69,1.51a10.14,10.14,0,0,0,.29,2.57l0,.13a10,10,0,0,1,.8,2.44,5.53,5.53,0,0,1-1.45,1.35l-.15.12-1.88,4.43-.47,1.55-.39,0-1,3.44.62,1.26-3.29,1-.67,2.45.17.26c.45.66,2.78,4,4.46,4.37s5.7-1.81,6.5-2.24l9.35-5.16,1.62-.13,2.52,1,1.59-.93,1.73.36,1.21-.36,1.46.8a1.31,1.31,0,0,0,1.13,0c.69-.33,1.19-1.19,1.52-2.61l.64-.17.37-.08,3.24-8.94,1.69-.54,2-6.13,4.88-2.74,7.3-2.87,6.69,2.51h.12a2.8,2.8,0,0,0,2.9-2.72,29.52,29.52,0,0,0,0-3.63l-.3-2.57c-1.6-5.45-4-14.78-3.39-16.68,0-.18.11-.55-.77-1.84l1.4-3-.43-1.26.83-2.83-.4-1.19,3.66-2.89,2.47-6-.55-1.22,2.21-2.49.8-2,1.4-.56,1.12-2,1.6-1.93,1-.74.81-1.68,1.08-1.58,1.17-1,.62-1.05,1.39-1,.43-1.64.2.22,9.77-4.23,2.3-2.52,1.76-4.88,1.66-1.08,6.89-15.88,3.76-12.91-1-2.89-.39-9.24-.3-1.31,3.34-7.63-1.14-1.33.62-1.14,1.8-1.17,1.86-2.2,4.26-2.11.73-2.87h.83l-.92-2.91a7.83,7.83,0,0,1,1.53-.78l7.84,1.67,1.72-.5,3.24,1.36,4.68-.81c2.5.65,2.8,0,2.95-.26a6.06,6.06,0,0,0,.84-3.31l.48.12.27.07.24-.14a2.45,2.45,0,0,0,1.24-2.07c-.09-.91-.86-1.7-2.37-2.4l.42-.31,3.32-2.58-1.15-3.28,2-1,.92-2.26,0-.86,4.39-1.77.5-2.34.09.17.17.29.33,0a3,3,0,0,0,2.16-.53,2.43,2.43,0,0,0,.89-1.74,21,21,0,0,0,.1-2.46,4.36,4.36,0,0,0,3.18-.12,4.59,4.59,0,0,0,1.33-1.23,3.7,3.7,0,0,0,1.09.54c1.67.47,3,.06,3.44-1,.33-.87,1.84-4.27,1.84-4.27h0l1.18-2,3.42-1.52,1-4.52-.07-.19s-.36-1,.19-1.32a21.77,21.77,0,0,1,2.57-1.31l.32-.14.66-3.07,1.66-1.21-.08-2.33L739,332l-.09-2.69a4.36,4.36,0,0,0,.15-2.82,1.61,1.61,0,0,0-.92-.89,3.81,3.81,0,0,0-1.13-.25l.3-.7,1.49-1,2.45-6.66-.27-1.17.91-2.55-.36-1.88,1-3.87-3.08-7.22c.09-.33.3-.81.62-.89l.65-.17-.09-.35,0,0a2,2,0,0,0,.64-.93,4.49,4.49,0,0,0-.73-2.8,2.25,2.25,0,0,0-1.48-1,.75.75,0,0,1-.07-.42.77.77,0,0,1,.34-.57h0c.58-.34,2.15-1.48,2.16-2.24q0-.45-1.72-7.72l-1.27-3.58a2.17,2.17,0,0,0-1-1.05c.15-.41.32-.94.54-1.65l.07-.24L735.62,271l-3.37-1.34.41-2.94-.4-2.09.23-3.41.87-4.43v-.2a4.67,4.67,0,0,0-.59-1.83h.16l1.92-4.45-.16-.29a3.42,3.42,0,0,1-.32-2.61A4.44,4.44,0,0,1,736.25,245.51Z"/><path class="cls-2" d="M779.29,329.07a24.15,24.15,0,1,1,0-48.3H954.7a24.15,24.15,0,0,1,0,48.3Z"/><path class="cls-3" d="M784.59,313.1c-.64-.77-1.92-2.05-3.1-3.17v7.59h-2.88V310a24.24,24.24,0,0,1-4.77,5.38,12,12,0,0,0-1.92-2.15,21.92,21.92,0,0,0,6.11-6.72h-5.34V304h5.92V301.1h-6v-2.53h3.3a15.61,15.61,0,0,0-1.12-4.12l2.17-.55H773v-2.46h5.6v-3h2.88v3h5.6v2.46h-3.88l2.24.52c-.6,1.5-1.21,3.07-1.76,4.15h3.75v2.53h-6V304h5.66v2.53h-5.66v.55c1.15.8,4.09,3.2,4.83,3.8Zm-7.52-19.2a14.93,14.93,0,0,1,1.28,4.19l-1.86.48h7l-2.2-.48a30.88,30.88,0,0,0,1.44-4.19Zm24.61,7.65h-3.36v15.84h-2.88V301.55h-4.13v.29c0,4.73-.58,11.39-5,15.84a7.12,7.12,0,0,0-2.11-2.05c3.87-3.94,4.25-9.41,4.25-13.82V290.74l2,.57a42.28,42.28,0,0,0,8.52-2.75l2.4,2.14a49.23,49.23,0,0,1-10.05,2.92v5.18h10.37Z"/><path class="cls-3" d="M809.77,302.41a23.71,23.71,0,0,0-5.56-3.26l1.63-2.24a25,25,0,0,1,5.66,3Zm23.62,2.28s0,.83-.07,1.18c-.41,7-.86,9.7-1.72,10.66a2.94,2.94,0,0,1-2.18,1,30.43,30.43,0,0,1-3.81,0,6,6,0,0,0-.73-2.5c1.37.13,2.72.16,3.23.16s.8-.06,1-.38c.55-.58.93-2.59,1.25-7.55H817.52c-.58.7-1.22,1.34-1.83,2l2.08.45c-.32,2.75-1,5.37-2.78,7l-2-1.37c1.44-1.28,2.17-3.52,2.46-5.86a15.81,15.81,0,0,1-2,1.67,20,20,0,0,0-2-2.08c-1.19,2.81-2.53,5.72-3.75,8.12L805,315.44a101.77,101.77,0,0,0,5.12-10.66l2.37,1.7c-.32.8-.64,1.6-1,2.43a20,20,0,0,0,6-6.4h-2.72V290.26l1.53.48a41.16,41.16,0,0,0,4.9-2.53l2,2a38.46,38.46,0,0,1-5.66,2.5V295h4.61v2.37h-4.61v2.69h11.77v-2.69h-5V295h5V292.5h-5.18v-2.44h8v12.45H820.72a23,23,0,0,1-1.28,2.18ZM811.5,294.06a23,23,0,0,0-5.53-3.48l1.66-2.18a23,23,0,0,1,5.63,3.2Zm9.25,15.52a22.26,22.26,0,0,1,.77,5.73l-2.15.32a22,22,0,0,0-.67-5.76Zm3-.67a21.62,21.62,0,0,1,2.14,4.58l-1.88.7a20,20,0,0,0-2-4.67Zm4.32,3.68a15.65,15.65,0,0,0-2.82-3.52l1.44-1a15.42,15.42,0,0,1,2.91,3.39Z"/><path class="cls-3" d="M846.67,311a30.9,30.9,0,0,1-7.71,6.27,20.25,20.25,0,0,0-2.4-2,23.7,23.7,0,0,0,7-5.47Zm5.92-2.27v8.86h-3.14v-8.86h-8.09v.76h-3V291.09h3v15h23.87v2.63Zm9-4.68H844.17V289.39h17.47Zm-2.87-12.51H847v2.12h11.78Zm0,4.1H847v2.14h11.78Zm0,4.13H847v2.17h11.78Zm-.87,9.95a74.35,74.35,0,0,1,7.52,5.76l-2.69,1.82a65.24,65.24,0,0,0-7.36-6Z"/><path class="cls-3" d="M896.72,312.43v3H869.2v-3ZM895,291.25v3H871v-3Zm-2.5,10.27v3H873.1v-3Z"/><path class="cls-3" d="M918.86,308.43a27.84,27.84,0,0,0,10.91,6,12.65,12.65,0,0,0-2,2.52,29.29,29.29,0,0,1-11.36-7.42v8h-3v-8a29.47,29.47,0,0,1-11.23,7.52,14.53,14.53,0,0,0-2-2.43,27.87,27.87,0,0,0,10.85-6.24H900.94v-2.62h12.48v-3.08h3v3.08H929.1v2.62ZM924.17,292a20.17,20.17,0,0,1-6.2,6.87,42.67,42.67,0,0,0,11.64,2.92,12.06,12.06,0,0,0-1.79,2.68,39.27,39.27,0,0,1-12.64-3.87A43.15,43.15,0,0,1,902.25,305a10.94,10.94,0,0,0-1.4-2.66,41.19,41.19,0,0,0,11.55-3.42,22,22,0,0,1-4.07-3.59,28.59,28.59,0,0,1-4.89,3.23,9.11,9.11,0,0,0-2.08-2.17,21.54,21.54,0,0,0,9.5-8.26l3.27.61c-.48.74-1,1.47-1.54,2.21h9l.52-.13Zm-13.85,1.53a17.76,17.76,0,0,0,4.77,3.91,19.21,19.21,0,0,0,4.54-3.94h-9.28Z"/><path class="cls-3" d="M948.43,295.31v3.9h10.14v11c0,1.57-.35,2.43-1.5,2.91s-3,.52-5.6.52a10.67,10.67,0,0,0-1-2.95c1.92.1,3.81.1,4.36.07s.7-.16.7-.61v-8h-7.07v15.52h-3.07V302.13H938.8v11.58h-3v-14.5h9.54v-3.9H932.65v-2.88h12.68v-4.38h3.16v4.38h12.9v2.88Z"/><polyline class="cls-4" points="780.26 304.42 678.02 304.42 600.65 396.31"/><path class="cls-2" d="M595.14,391.18a7.52,7.52,0,1,0,10.6-.91A7.53,7.53,0,0,0,595.14,391.18Z"/><path class="cls-5" d="M497.89,743h4.27v1.19h-4.27v4.16h-1.32V744.2h-4.93c-.22,1.55-1.13,3.12-4.3,4.16a4.22,4.22,0,0,0-.83-1c2.65-.83,3.51-2,3.78-3.12h-4.21V743h4.32v-1.42h1.31V743h4.86v-1.44h1.32Zm3.44-8a9.14,9.14,0,0,1-2,3.74,8.8,8.8,0,0,0,3.15,1.62,4.57,4.57,0,0,0-.73,1,9.36,9.36,0,0,1-3.23-1.81,11.44,11.44,0,0,1-3.11,1.8,5.65,5.65,0,0,0-.63-1,10.26,10.26,0,0,0,2.93-1.6,11.05,11.05,0,0,1-1.56-2.44,14.42,14.42,0,0,1-1,1.44c-.15-.19-.49-.64-.73-.91v3.15c0,.54-.07.83-.45,1a4.39,4.39,0,0,1-1.74.18,4.05,4.05,0,0,0-.31-1h1.25c.16,0,.19-.06.19-.22v-4h-2.28V741h-1v-5.1h-2.28v5.39h-1v-6.36H490v-3h1.14v3h3.25v1.73a13.34,13.34,0,0,0,2.38-4.7l1.1.31c-.18.54-.36,1.1-.59,1.62h5V735Zm-13.22-.22a9.15,9.15,0,0,0-1.06-2.09l.92-.34a8.21,8.21,0,0,1,1.11,2Zm1.59,2.16a12.83,12.83,0,0,1-.92,2.88,4,4,0,0,0-.72-.36,10.29,10.29,0,0,0,.84-2.7Zm2.48,2.2a11.68,11.68,0,0,0-.72-2.2l.7-.18a11,11,0,0,1,.72,2.14Zm2.05-6.52a15,15,0,0,1-1.26,2.12l-.86-.32a20.46,20.46,0,0,0,1.13-2.18Zm2.51,2.5a8,8,0,0,0,1.71,2.83,7.71,7.71,0,0,0,1.64-2.95h-3.3Z"/><path class="cls-5" d="M510.6,743.21c-.47-.52-1.46-1.53-2.27-2.28v7.45H507v-7a16.68,16.68,0,0,1-2.75,2.25,6.63,6.63,0,0,0-.7-1.2,15.56,15.56,0,0,0,5.63-5.91h-5v-1.22H507V732h1.32v3.35h1.56l.24-.06.75.51a16,16,0,0,1-2.34,3.92c.85.67,2.43,2.06,2.88,2.45Zm9.92,3.35v1.32H510.43v-1.32H515v-7.47h-3.85v-1.3H515v-5.71h1.33v5.71h3.84v1.3h-3.84v7.47Z"/><path class="cls-5" d="M524.15,735.07c1.17-.12,4.57-.46,7.88-.73,2-.17,3.66-.27,4.86-.33v1.44a15,15,0,0,0-3.52.29,6.35,6.35,0,0,0-4.13,5.71c0,3.51,3.28,4.63,6.21,4.73l-.52,1.5c-3.33-.13-7.13-1.91-7.13-5.93a7.31,7.31,0,0,1,3.37-6.08c-1.93.21-6.52.65-8.46,1.06l-.16-1.57C523.23,735.15,523.81,735.11,524.15,735.07Zm11.63,5.1-.92.43a16.71,16.71,0,0,0-1.48-2.54l.92-.39A20.63,20.63,0,0,1,535.78,740.17Zm2.05-.77-.94.45a16.26,16.26,0,0,0-1.51-2.53l.89-.41A22.39,22.39,0,0,1,537.83,739.4Z"/><path class="cls-5" d="M543.41,734.48a44.59,44.59,0,0,0-.9,7.26,16.35,16.35,0,0,0,.18,2.5c.29-.81.72-1.91,1-2.65l.74.58c-.43,1.26-1.1,3.09-1.28,4a3.29,3.29,0,0,0-.07.81c0,.18,0,.43,0,.63l-1.26.09a21.73,21.73,0,0,1-.69-5.69,54,54,0,0,1,.83-7.58,9.77,9.77,0,0,0,.11-1.28l1.58.13A9.88,9.88,0,0,0,543.41,734.48Zm9.09-.25c0,.48,0,1.33,0,2.18a30.41,30.41,0,0,0,3.11-.42v1.39c-1,.16-2,.27-3.11.34,0,1.82.14,3.62.21,5.13a12.11,12.11,0,0,1,3.57,2.32l-.8,1.21a14.4,14.4,0,0,0-2.71-2.09v.38c0,1.48-.69,2.9-3.12,2.9s-3.74-1-3.74-2.58,1.35-2.71,3.71-2.71a8.09,8.09,0,0,1,1.67.16c0-1.39-.16-3.15-.18-4.63-.58,0-1.15,0-1.73,0-1,0-2-.06-3-.13v-1.35c1,.09,2,.14,3.06.14.56,0,1.13,0,1.69,0v-2.23c0-.31,0-.8-.07-1.1h1.62A9.88,9.88,0,0,0,552.5,734.23Zm-3.15,12c1.51,0,2-.77,2-2,0-.18,0-.4,0-.63a6,6,0,0,0-1.83-.29c-1.35,0-2.31.58-2.31,1.46S548.05,746.27,549.35,746.27Z"/><path class="cls-5" d="M558.06,744l1.17-1a32.37,32.37,0,0,1,4,4L562,748A30.29,30.29,0,0,0,558.06,744Z"/><path class="cls-5" d="M575.75,745.16l1.19-.85a2.51,2.51,0,0,0,2.29,1.48c1.42,0,2.12-.81,2.12-2.81V733.8H583v9.34c0,2.27-1,4.11-3.62,4.11A3.91,3.91,0,0,1,575.75,745.16Z"/><path class="cls-5" d="M585.81,740.37c0-4.23,2.33-6.81,5.64-6.81s5.64,2.58,5.64,6.81-2.33,6.88-5.64,6.88S585.81,744.6,585.81,740.37Zm9.57,0c0-3.32-1.57-5.35-3.93-5.35s-3.93,2-3.93,5.35,1.55,5.42,3.93,5.42S595.38,743.66,595.38,740.37Z"/><path class="cls-5" d="M599.93,733.8h1.67V747h-1.67Z"/><path class="cls-5" d="M605.2,733.8h1.73l4.81,8.33,1.4,2.72h.09c-.09-1.33-.21-2.81-.21-4.18V733.8h1.58V747h-1.71l-4.81-8.33L606.66,736h-.07c.07,1.33.19,2.73.19,4.12V747H605.2Z"/><path class="cls-5" d="M632.49,731.6l1.08.56a11.25,11.25,0,0,0,0,16l-1.08.56a12,12,0,0,1,0-17.14Z"/><path class="cls-5" d="M641.2,742.87a20.45,20.45,0,0,0-1.64-2.23v7.7h-1.29v-8a19.6,19.6,0,0,1-2.61,4.71,6,6,0,0,0-.67-1.22,18.62,18.62,0,0,0,3.1-5.64h-2.76V737h2.94v-2.73c-.88.18-1.8.32-2.63.45a4.61,4.61,0,0,0-.42-1.05,25.69,25.69,0,0,0,5.69-1.44l.94,1a15.13,15.13,0,0,1-2.29.72v3h2.25v1.26h-2.25v1.1c.56.47,2.09,2,2.45,2.47Zm10.44-2.18c-1.53,4.52-5.32,6.72-9.65,7.71a4,4,0,0,0-.68-1.14,14.17,14.17,0,0,0,5.47-2.16,14.39,14.39,0,0,0-2.57-1.94,17.48,17.48,0,0,1-1.77,1,3.32,3.32,0,0,0-.84-.91,11.59,11.59,0,0,0,5.29-4.59,14.88,14.88,0,0,1-4.5,2.08,4.64,4.64,0,0,0-.7-1.08,12.81,12.81,0,0,0,4.36-1.91,15.14,15.14,0,0,0-2.26-1.8,14.81,14.81,0,0,1-1.56,1,3.53,3.53,0,0,0-.87-.9,10.86,10.86,0,0,0,4.58-4.09l1.33.23a10,10,0,0,1-.9,1.32h3.28l.25-.06.83.4a10.44,10.44,0,0,1-3.84,4.83l1.35.23a13.93,13.93,0,0,1-1,1.46h3.3l.25-.06Zm-6.26-6.07a9.2,9.2,0,0,1-.72.67,13.13,13.13,0,0,1,2.32,1.78,8.42,8.42,0,0,0,2-2.45Zm.85,6.88a13.73,13.73,0,0,1-1.05.94,12.25,12.25,0,0,1,2.59,1.91,8.8,8.8,0,0,0,2.15-2.85Z"/><path class="cls-5" d="M658.66,732.37a26.07,26.07,0,0,1-1.83,3.71v12.25h-1.27V738a19.41,19.41,0,0,1-2,2.38,9.92,9.92,0,0,0-.76-1.3,20.08,20.08,0,0,0,4.61-7.09Zm11,14.12v1.28H658.07v-1.28h5.2V742h-4.14v-1.28h4.14v-3.94h-4.73v-1.26h6.14a25.72,25.72,0,0,0-3.73-2.65l.88-1a24.35,24.35,0,0,1,4,2.71l-.77.89h4.37v1.26H664.6v3.94h4.27V742H664.6v4.5Z"/><path class="cls-5" d="M681.31,740.17a1.91,1.91,0,1,1-1.91-1.91A1.9,1.9,0,0,1,681.31,740.17Z"/><path class="cls-5" d="M701.38,739.61a12.65,12.65,0,0,1-2.94,4.56,15.63,15.63,0,0,0,7.26,3,5.4,5.4,0,0,0-.88,1.26,15.85,15.85,0,0,1-7.42-3.28,19.38,19.38,0,0,1-7.38,3.35,5.59,5.59,0,0,0-.85-1.26,17.42,17.42,0,0,0,7.24-3,14.11,14.11,0,0,1-2.81-4.47l1.28-.39a11.63,11.63,0,0,0,2.55,4,10.92,10.92,0,0,0,2.56-4Zm-5.87-3a19,19,0,0,1-5,4.48,7.38,7.38,0,0,0-1.1-1.06,14.77,14.77,0,0,0,4.74-3.94Zm9.74-1.08H689.57v-1.3h7.13v-2.36H698v2.36h7.22Zm-4.66.48a28,28,0,0,1,4.82,4l-1.17.92a26.9,26.9,0,0,0-4.72-4.09Z"/><path class="cls-5" d="M710.41,739.83a13.77,13.77,0,0,0-3.28-1.91l.74-1a14.54,14.54,0,0,1,3.3,1.8Zm1.46,2.46c-.88,1.91-2.07,4.16-3.06,5.84l-1.14-.85a58,58,0,0,0,3.19-5.81Zm-.59-7.2a14,14,0,0,0-3.19-2l.72-1a12.91,12.91,0,0,1,3.24,1.93Zm2.43,5.31h1.22v1.89c0,2-.31,4.33-2.7,6.05a7.33,7.33,0,0,0-1-.88,5.71,5.71,0,0,0,2.43-5.2Zm-1.41-2,2.07-.05a21.74,21.74,0,0,0,1.44-2.9h-3.72v-1.21h4.75V732h1.35v2.32h5.28v1.21h-6.13c-.48.93-1.06,2-1.6,2.84l4.9-.18a20.3,20.3,0,0,0-1.48-1.46l1.05-.59a18.55,18.55,0,0,1,3.35,3.75l-1.1.64a12.1,12.1,0,0,0-.87-1.24l-9.14.45Zm4.54,2.07H718v7.1h-1.19Zm5.31,6.52a.68.68,0,0,0,.4-.09c.07-.05.14-.2.18-.49s0-.93.07-1.78a3.41,3.41,0,0,0,.93.49,10.69,10.69,0,0,1-.17,2.05,1,1,0,0,1-.49.7,1.64,1.64,0,0,1-.85.2h-.88a1.56,1.56,0,0,1-1-.31c-.25-.25-.34-.52-.34-1.6v-5.8h1.24v5.93c0,.36,0,.54.09.63a.55.55,0,0,0,.31.07Z"/><path class="cls-5" d="M730.86,741l-1.89.6v5.13c0,.76-.16,1.13-.61,1.37a6.15,6.15,0,0,1-2.38.23,5.36,5.36,0,0,0-.4-1.28c.81,0,1.55,0,1.79,0s.3-.07.3-.34V742l-2.41.74-.31-1.29c.74-.18,1.7-.45,2.72-.76v-3.93h-2.41v-1.22h2.41V732H729v3.6h1.75v1.22H729v3.55l1.73-.5Zm10.77,6.41h-8.14v.92h-1.28V738a12.32,12.32,0,0,1-1.33,1.71,9.74,9.74,0,0,0-.9-1.11,16,16,0,0,0,3.56-6.65l1.28.33a24.66,24.66,0,0,1-1.15,3.08h2.75a25.19,25.19,0,0,0,1.23-3.33l1.4.32c-.39,1-.88,2.09-1.31,3h3.58v1.2h-3.67V739h3.24v1.15h-3.24v2.45h3.24v1.17h-3.24v2.5h4Zm-5.21-10.91h-2.93V739h2.93Zm0,3.57h-2.93v2.45h2.93Zm-2.93,6.12h2.93v-2.5h-2.93Z"/><path class="cls-5" d="M746.84,744.78c.85,1.33,2.43,1.94,4.54,2s6.12,0,8.28-.11a4.8,4.8,0,0,0-.43,1.31c-2,.09-5.81.13-7.83,0-2.36-.09-4-.72-5.1-2.13-.79.78-1.62,1.53-2.5,2.31l-.7-1.28a30.19,30.19,0,0,0,2.48-2.07v-4.61H743.3V739h3.54Zm-.54-8.63a13.13,13.13,0,0,0-2.84-3l1-.76a13.14,13.14,0,0,1,2.9,2.94Zm3,1a15.28,15.28,0,0,1-1.59,1.62,8.29,8.29,0,0,0-1-1,14.07,14.07,0,0,0,4.2-5.76l1.31.35a16.29,16.29,0,0,1-1.2,2.4h2.86a18.8,18.8,0,0,0,1-2.63l1.42.31c-.34.75-.72,1.6-1.1,2.32H759v1.15h-4v1.87h3.55v1.14H755v1.89h3.52v1.12H755v1.94h4.31V745h-10Zm4.42-1.26h-3.13v1.87h3.13Zm0,3h-3.13v1.89h3.13Zm0,3h-3.13v1.94h3.13Z"/><path class="cls-5" d="M776.37,742.89a10.26,10.26,0,0,1-2.09,2.9c.5,1,1.1,1.47,1.78,1.47.52,0,.72-.43.81-2a2.91,2.91,0,0,0,.92.6c-.22,2-.61,2.61-1.8,2.61a3.06,3.06,0,0,1-2.61-1.86,13,13,0,0,1-3.14,1.8,6.72,6.72,0,0,0-.72-.84,11.75,11.75,0,0,0,3.37-2,17.87,17.87,0,0,1-.92-3.37h-2.81c0,.36-.07.7-.1,1a19.1,19.1,0,0,1,2.48,1.77l-.76.92a16.09,16.09,0,0,0-1.94-1.52,6.4,6.4,0,0,1-2.36,4,3.74,3.74,0,0,0-.81-.88c1.64-1.13,2.13-3.15,2.31-5.29H766.7v-1l-.56.79c-.23-.57-.79-1.67-1.28-2.57v9h-1.21V740a19.73,19.73,0,0,1-2,4.9,7.47,7.47,0,0,0-.66-1.12,21,21,0,0,0,2.52-6.77h-2.14v-1.22h2.26v-3.89h1.21v3.89h1.95v1.22h-1.95v.81c.47.65,1.69,2.62,2,3.12l-.07.11h5a65.13,65.13,0,0,1-.57-9.13h1.2a60.53,60.53,0,0,0,.54,9.13h2.45A9.92,9.92,0,0,0,773.9,740l.63-.64a9.47,9.47,0,0,1,1.91,1.29l-.38.4h1.48v1.08h-4.4a16.67,16.67,0,0,0,.65,2.48,7.91,7.91,0,0,0,1.42-2.19Zm-9.2-4.25c.37-.51.79-1.12,1.2-1.75a13.39,13.39,0,0,0-1.91-1.83l.56-.74.43.32a19.89,19.89,0,0,0,1.08-2.52l1.05.42c-.47.88-1,1.94-1.46,2.68a5.62,5.62,0,0,1,.77.79A23.46,23.46,0,0,0,770,733.9l1,.47a46.14,46.14,0,0,1-2.7,4.2l1.77-.11a9.67,9.67,0,0,0-.49-1.12l.83-.3a9.57,9.57,0,0,1,1,2.59l-.88.38a6,6,0,0,0-.15-.61c-1.3.1-2.54.23-3.64.34l-.19-1.06Zm6.15-.18a16.17,16.17,0,0,0,1.08-1.59,11.31,11.31,0,0,0-1.89-1.81l.56-.74c.13.11.27.2.42.32a21.56,21.56,0,0,0,1.09-2.52l1,.42c-.45.9-1,1.94-1.48,2.66.29.29.58.56.79.81a23.46,23.46,0,0,0,1.12-2.11l1,.47c-.75,1.28-1.71,2.83-2.57,4l1.91-.13c-.17-.36-.35-.72-.53-1l.83-.34a9.71,9.71,0,0,1,1.12,2.6l-.86.41a3.75,3.75,0,0,0-.22-.74c-1.35.15-2.63.24-3.76.34l-.2-1Z"/><path class="cls-5" d="M784.54,742.46c-.26-.58-.89-1.68-1.41-2.56v8.46h-1.22V740a18.87,18.87,0,0,1-2.2,5,7.49,7.49,0,0,0-.68-1.16,19.57,19.57,0,0,0,2.73-6.75h-2.37v-1.24h2.52v-3.89h1.22v3.89h2v1.24h-2v1.24c.51.67,1.84,2.67,2.14,3.16Zm11.27,3h-1.16V747c0,.63-.12,1-.61,1.17a8.15,8.15,0,0,1-2.43.18,4.49,4.49,0,0,0-.38-1.08c.87,0,1.64,0,1.89,0s.29-.09.29-.3v-1.51h-6.14v2.88h-1.22v-2.88h-1.23V744.4h1.23v-4.52h3.6v-1.06h-4.5v-1h2.48v-1.2h-1.71v-1h1.71v-1.17h-2.07v-1h2.07v-1.48h1.23v1.48h2.9v-1.48H793v1.48h2.23v1H793v1.17h2v1h-2v1.2h2.59v1h-4.74v1.06h3.78v4.52h1.16Zm-8.54-4.56v1.24h2.38v-1.24Zm0,3.51h2.38v-1.31h-2.38Zm1.59-8.8h2.9v-1.17h-2.9Zm0,2.19h2.9v-1.2h-2.9Zm2,3.1v1.24h2.54v-1.24Zm2.54,3.51v-1.31h-2.54v1.31Z"/><path class="cls-5" d="M798.3,748.74l-1.08-.56a11.25,11.25,0,0,0,0-16l1.08-.56a12,12,0,0,1,0,17.14Z"/><path class="cls-5" d="M824,747.57l-.84-1.33a14.85,14.85,0,0,0,1.54-.24,5.43,5.43,0,0,0,4.58-5.34,5,5,0,0,0-4.81-5.23,34,34,0,0,1-1.08,5.19c-1.1,3.71-2.52,5.6-4.2,5.6s-3.2-1.84-3.2-4.81a7.68,7.68,0,0,1,7.87-7.33,6.52,6.52,0,0,1,6.89,6.63C830.74,744.49,828.26,747,824,747.57Zm-4.75-3c.85,0,1.8-1.2,2.72-4.25a29.44,29.44,0,0,0,1-4.86,6.28,6.28,0,0,0-5.58,5.84C817.39,743.55,818.43,744.56,819.24,744.56Z"/><path class="cls-5" d="M840.79,734.32v14h-1.3v-3.26c-2.27.38-4.57.73-6.28,1l-.24-1.35c.51,0,1.1-.12,1.75-.21V734.32h-1.41v-1.24h8.74v1.24Zm-1.3,0H836v2.39h3.51Zm0,3.58H836v2.5h3.51ZM836,744.35l3.51-.51v-2.21H836Zm13.16-9.74a21.87,21.87,0,0,1-2.92,9.12,10,10,0,0,0,3.71,3.35,5.87,5.87,0,0,0-.95,1.1,11.26,11.26,0,0,1-3.58-3.26,13,13,0,0,1-3.68,3.21,5.13,5.13,0,0,0-.88-1.08,11.08,11.08,0,0,0,3.78-3.33,25.12,25.12,0,0,1-2.68-7.69l1.28-.24a23.15,23.15,0,0,0,2.21,6.67,19.58,19.58,0,0,0,2.23-6.74H841.6v-1.31H848l.26-.06Z"/><path class="cls-5" d="M855.65,737.81c.74-1.84,2.61-4.09,4.9-4.09s4.11,2.4,4.11,6.18c0,5-3.14,7.2-7.6,8l-.85-1.29c3.91-.58,7-2.18,7-6.7,0-2.85-1-4.9-2.86-4.9-2.25,0-4.34,3.28-4.56,5.64a8.29,8.29,0,0,0,0,2.21l-1.39.11a21.91,21.91,0,0,1-.2-2.86,48.71,48.71,0,0,1,.56-5.82c.07-.54.11-1.06.15-1.55l1.58.06A33.3,33.3,0,0,0,855.65,737.81Z"/><path class="cls-5" d="M871.24,742.37a15.58,15.58,0,0,1-1.28,4.57,4.56,4.56,0,0,0-1-.5,13.16,13.16,0,0,0,1.17-4.29Zm2.11-1.44v7.49h-1.21V741l-2.93.14-.11-1.2c.36,0,.77,0,1.19,0a18.51,18.51,0,0,0,1.2-1.6,16.48,16.48,0,0,0-2.36-2.58l.69-.88c.18.14.36.31.54.47A25.42,25.42,0,0,0,872,732l1.19.45a32.2,32.2,0,0,1-2,3.62,11.38,11.38,0,0,1,1.09,1.24,36.85,36.85,0,0,0,1.93-3.28l1.15.51a58.17,58.17,0,0,1-3.72,5.36c.9,0,1.89-.09,2.88-.12-.27-.56-.58-1.12-.88-1.61l1-.43a15.64,15.64,0,0,1,1.78,3.66l-1.06.5a6.2,6.2,0,0,0-.35-1Zm1.65,1.15a15.12,15.12,0,0,1,1.21,3.46l-1.06.36a18.25,18.25,0,0,0-1.15-3.5Zm10.73,4.57v1.23H875.26v-1.23h1.9V733h7.19v13.68Zm-7.27-12.48v3.32H883v-3.32Zm4.57,4.52h-4.57V742H883Zm-4.57,8H883v-3.44h-4.57Z"/><path class="cls-5" d="M891.76,733.87c1,0,3.31-.13,4.07-.18a3.89,3.89,0,0,0,.9-.2l.9.74c-.16.2-.32.38-.47.59-.5.81-1.29,2.65-2,4.32a16.42,16.42,0,0,1,4.95,1.44c.07-.45.11-.9.15-1.33s0-1.15,0-1.66l1.45.17a24.63,24.63,0,0,1-.37,3.47,24.21,24.21,0,0,1,2.18,1.39l-.67,1.55a19,19,0,0,0-1.87-1.43,8.5,8.5,0,0,1-4.74,5.35l-1.19-1a7.71,7.71,0,0,0,4.72-5.08,13,13,0,0,0-5.15-1.65,37.36,37.36,0,0,1-2.27,4.71,2.54,2.54,0,0,1-2.27,1.25,2.3,2.3,0,0,1-2.34-2.47c0-2.65,2.45-4.68,6-4.77.63-1.42,1.31-3,1.87-4.11-.72,0-2.92.13-3.74.18-.4,0-.9.08-1.34.11l-.07-1.46C890.88,733.85,891.4,733.87,891.76,733.87Zm-1.67,11a1.3,1.3,0,0,0,1.08-.63,23.74,23.74,0,0,0,2-3.92c-2.63.2-4.12,1.78-4.12,3.33A1.1,1.1,0,0,0,890.09,744.9Z"/><path class="cls-5" d="M908.84,734.68a42,42,0,0,0-.9,6.89,21.18,21.18,0,0,0,.16,2.52c.31-.81.74-1.89,1-2.62l.76.57a35.89,35.89,0,0,0-1.28,4,3.08,3.08,0,0,0-.09.81c0,.19,0,.45.05.63l-1.3.09a22.74,22.74,0,0,1-.66-5.78,50,50,0,0,1,.81-7.22,8.24,8.24,0,0,0,.12-1.28l1.61.14C909.08,733.78,908.92,734.35,908.84,734.68Zm4.2,9.16c0,.83.59,1.62,3,1.62a19.58,19.58,0,0,0,4.47-.47l0,1.52a24.82,24.82,0,0,1-4.5.38c-3,0-4.37-1-4.37-2.71a9.47,9.47,0,0,1,.3-2.12l1.3.13A6.25,6.25,0,0,0,913,743.84Zm7-9v1.46a43.54,43.54,0,0,1-7.4,0v-1.44A31,31,0,0,0,920,734.84Z"/><path class="cls-5" d="M930,738.51a27.69,27.69,0,0,0-2.65-1.55A6.51,6.51,0,0,1,924,739.4a3.81,3.81,0,0,0-.77-.91c2-.64,2.89-1.58,3.27-2.52h-2.82v-1h3.07a4,4,0,0,0,0-.68V734h-2.63V733h2.63v-1.1H928V733h2.82V734H928v.36c0,.21,0,.45,0,.68H931v1h-3.28l0,.11a27.71,27.71,0,0,1,3,1.64Zm0,8a25.86,25.86,0,0,1-5.52,1.94,7.63,7.63,0,0,0-1-1,23.75,23.75,0,0,0,5.3-1.49ZM936.06,736a6.47,6.47,0,0,0,3.62,2.09,5.13,5.13,0,0,0-.79,1,7.17,7.17,0,0,1-3.73-2.5,5.24,5.24,0,0,1-3,2h5.17v7.22H925.71v-7.22h6.19a4.16,4.16,0,0,0-.68-.85,4.32,4.32,0,0,0,2.92-1.75h-2.58v-1h2.88a2.2,2.2,0,0,0,0-.5V734h-2.63V733h2.63v-1.1h1.22V733h3.1V734h-3.1v.54a4.18,4.18,0,0,1,0,.5h3.46v1Zm0,3.52h-9v1.18h9Zm0,2.07h-9v1.22h9Zm0,2.1h-9v1.21h9ZM934,746a55.77,55.77,0,0,1,5.44,1.73l-1.51.67a41.79,41.79,0,0,0-5.06-1.73Z"/><path class="cls-5" d="M956.8,746.71c0,.82-.2,1.22-.74,1.45a9.48,9.48,0,0,1-3,.26,4.21,4.21,0,0,0-.48-1.32c1.13,0,2.18,0,2.48,0s.43-.13.43-.41V734.16H943.33v14.27H942V732.88H956.8ZM954,737.2H944.9V736H954ZM947,744.76v1.3H945.8v-7H953v5.69Zm0-4.55v3.4h4.72v-3.4Z"/><path class="cls-5" d="M964.36,734.8c-.09,2-.22,6.29-.22,9,0,2,1.24,2.68,3,2.68a7.51,7.51,0,0,0,6.45-3.72l1,1.22a9,9,0,0,1-7.52,4c-2.59,0-4.38-1.08-4.38-4,0-2.66.18-7.22.18-9.11a9.32,9.32,0,0,0-.14-1.83l1.82,0A13.83,13.83,0,0,0,964.36,734.8Z"/><path class="cls-5" d="M977.33,744l1.17-1a33.15,33.15,0,0,1,4,4l-1.23,1A30.29,30.29,0,0,0,977.33,744Z"/><path class="cls-5" d="M494.06,760.39v13.94h-1.38v-.92h-9.6v1h-1.33v-14h4.52a21.27,21.27,0,0,0,.7-2.47l1.53.2c-.27.78-.59,1.59-.9,2.27Zm-11,1.28v2.68h9.6v-2.68Zm0,3.94v2.61h9.6v-2.61Zm9.6,6.54v-2.67h-9.6v2.67Z"/><path class="cls-5" d="M501,765.74a15.13,15.13,0,0,0-3.47-1.8l.73-1a15.79,15.79,0,0,1,3.52,1.67Zm-2.88,7.51a53.74,53.74,0,0,0,3.37-5.77l1,.87c-.94,1.89-2.18,4.12-3.23,5.8Zm3.76-12.19a12.83,12.83,0,0,0-3.38-2l.74-1a13.06,13.06,0,0,1,3.43,1.89Zm8.47-.38a26.63,26.63,0,0,1,3.76,5.13l-1.23.68a10.69,10.69,0,0,0-.82-1.45c-3.53.21-7.17.39-9.67.54l-.16-1.32,1.71-.07a39.59,39.59,0,0,0,2.46-6.27l1.53.38c-.74,1.87-1.69,4.12-2.55,5.83l5.88-.28c-.65-.9-1.38-1.82-2.07-2.6Zm-6.61,6.52h8.73v7.14h-1.33v-.73H505v.79h-1.29Zm1.29,1.24v3.94h6.11v-3.94Z"/><path class="cls-5" d="M520.57,758.39a30,30,0,0,1-1.6,3.8v12.17h-1.28v-10a18,18,0,0,1-1.53,2.08,10,10,0,0,0-.77-1.32,21,21,0,0,0,3.94-7.15Zm6.79,4.47a18.11,18.11,0,0,0,4.86,7.56,4.6,4.6,0,0,0-1,1.06,20.28,20.28,0,0,1-4.72-7.89v6.25h2.9v1.23h-2.9v3.22h-1.3v-3.22h-2.93v-1.23h2.93v-6.12a20.71,20.71,0,0,1-4.77,7.8,5.8,5.8,0,0,0-1-1,18.52,18.52,0,0,0,4.93-7.65h-4.23v-1.3h5V758h1.3v3.55h5.36v1.3Z"/><path class="cls-5" d="M538.92,768.38c-.26-.57-.89-1.69-1.43-2.59v8.57h-1.22V766a18.55,18.55,0,0,1-2.2,5,6.77,6.77,0,0,0-.68-1.16,19.57,19.57,0,0,0,2.74-6.75h-2.38v-1.24h2.52v-3.89h1.22v3.89h2.06v1.24h-2.06v1.14c.51.66,1.86,2.7,2.17,3.18Zm4.73,2.6c-1.44.84-3,1.73-4.19,2.41l-.63-1.12c1.13-.57,2.82-1.49,4.46-2.39Zm3-1.44a7.9,7.9,0,0,0,3.56,3,6.09,6.09,0,0,0-.86,1.08,9.51,9.51,0,0,1-4-4.21v3.48c0,.72-.14,1.08-.61,1.29a6.61,6.61,0,0,1-2.39.24,4.6,4.6,0,0,0-.38-1.23c.79,0,1.56,0,1.8,0s.29-.07.29-.3v-6.74h-4.54V765h4.54v-1.39h-3.64v-1h3.64v-1.28h-4.16v-1.1h2.25a14.34,14.34,0,0,0-.9-1.86l1-.34a9.84,9.84,0,0,1,1.08,2.07l-.32.13h3.13l-.16-.05a15.6,15.6,0,0,0,1-2.24l1.32.38c-.38.67-.78,1.37-1.12,1.91h2.38v1.1h-4.29v1.28h3.89v1h-3.89V765h4.54v1.13h-4.54v.72a11.12,11.12,0,0,0,1.08,2.34,18.54,18.54,0,0,0,2.22-2.41l1,.72a24.56,24.56,0,0,1-2.44,2.45ZM541,766.87a12.93,12.93,0,0,1,1.86,2.32l-1,.69a12.33,12.33,0,0,0-1.8-2.41Z"/><path class="cls-5" d="M560.36,773.57l-.85-1.33a15.08,15.08,0,0,0,1.55-.24,5.43,5.43,0,0,0,4.57-5.34,5,5,0,0,0-4.81-5.23,34,34,0,0,1-1.08,5.19c-1.09,3.71-2.52,5.6-4.19,5.6s-3.21-1.84-3.21-4.81a7.68,7.68,0,0,1,7.87-7.33,6.52,6.52,0,0,1,6.9,6.63C567.11,770.49,564.62,773,560.36,773.57Zm-4.76-3c.85,0,1.8-1.2,2.72-4.25a29.44,29.44,0,0,0,1-4.86,6.28,6.28,0,0,0-5.58,5.84C553.75,769.55,554.79,770.56,555.6,770.56Z"/><path class="cls-5" d="M575.56,768.87a20.18,20.18,0,0,0-1.63-2.23v7.7h-1.3v-8A19.26,19.26,0,0,1,570,771.1a6,6,0,0,0-.67-1.22,18.41,18.41,0,0,0,3.1-5.64H569.7V763h2.93v-2.73c-.88.18-1.8.32-2.63.45a5.07,5.07,0,0,0-.41-1.05,26,26,0,0,0,5.69-1.44l.93,1a15.36,15.36,0,0,1-2.28.72v3h2.25v1.26h-2.25v1.1c.55.47,2.09,2,2.45,2.47ZM586,766.69c-1.53,4.52-5.33,6.72-9.65,7.71a4,4,0,0,0-.69-1.14,14.28,14.28,0,0,0,5.48-2.16,14.85,14.85,0,0,0-2.58-1.94,17.31,17.31,0,0,1-1.76,1,3.35,3.35,0,0,0-.85-.91,11.68,11.68,0,0,0,5.3-4.59,15,15,0,0,1-4.51,2.08,4.64,4.64,0,0,0-.7-1.08,12.81,12.81,0,0,0,4.36-1.91,15.56,15.56,0,0,0-2.25-1.8,16.09,16.09,0,0,1-1.57,1,3.49,3.49,0,0,0-.86-.9A10.77,10.77,0,0,0,580.3,758l1.33.23a10,10,0,0,1-.9,1.32H584l.25-.06.83.4a10.42,10.42,0,0,1-3.83,4.83l1.34.23a12.54,12.54,0,0,1-1,1.46h3.3l.25-.06Zm-6.27-6.07a7.7,7.7,0,0,1-.72.67,13.6,13.6,0,0,1,2.33,1.78,8.38,8.38,0,0,0,2-2.45Zm.85,6.88a12.06,12.06,0,0,1-1.05.94,12.58,12.58,0,0,1,2.6,1.91,8.63,8.63,0,0,0,2.14-2.85Z"/><path class="cls-5" d="M593,758.37a26.07,26.07,0,0,1-1.83,3.71v12.25h-1.26V764a20.39,20.39,0,0,1-2,2.38,8.91,8.91,0,0,0-.76-1.3,20.08,20.08,0,0,0,4.61-7.09Zm11,14.12v1.28h-11.6v-1.28h5.2V768h-4.14v-1.28h4.14v-3.94H592.9v-1.26H599a25.18,25.18,0,0,0-3.73-2.65l.88-1a23.92,23.92,0,0,1,4,2.71l-.77.89h4.38v1.26H599v3.94h4.26V768H599v4.5Z"/><path class="cls-5" d="M609.66,761.24c.32.59.68,1.31,1,2.07,2.18-1,4.61-1.93,6.48-1.93,2.49,0,4,1.42,4,3.39s-1.33,3.63-4.14,3.63a8.23,8.23,0,0,1-2.7-.5l0-1.41a6.43,6.43,0,0,0,2.56.58c2,0,2.79-1.08,2.79-2.38,0-1.06-.85-2-2.61-2a16.07,16.07,0,0,0-5.89,1.82c.23.5.47,1,.68,1.49a79.18,79.18,0,0,1,2.74,7.56l-1.55.42a53.51,53.51,0,0,0-2.45-7.38c-.23-.53-.45-1-.68-1.5-1.39.67-2.65,1.32-3.48,1.69l-.68-1.47a13.48,13.48,0,0,0,1.48-.49c.61-.23,1.35-.56,2.14-.92-.38-.79-.72-1.47-1-2s-.59-.92-.88-1.28L609,760A11.81,11.81,0,0,0,609.66,761.24Zm2.45-2,1-.74a31.32,31.32,0,0,1,2.65,2.29l-1,.81A32.51,32.51,0,0,0,612.11,759.22Z"/><path class="cls-5" d="M635.74,765.61a12.63,12.63,0,0,1-2.93,4.56,15.54,15.54,0,0,0,7.25,3,5.71,5.71,0,0,0-.88,1.26,15.9,15.9,0,0,1-7.42-3.28,19.31,19.31,0,0,1-7.38,3.35,5.59,5.59,0,0,0-.85-1.26,17.42,17.42,0,0,0,7.24-3A14.11,14.11,0,0,1,628,765.7l1.28-.39a11.65,11.65,0,0,0,2.56,4,10.9,10.9,0,0,0,2.55-4Zm-5.87-3a19,19,0,0,1-5,4.48,7.3,7.3,0,0,0-1.09-1.06,14.84,14.84,0,0,0,4.73-3.94Zm9.74-1.08H623.93v-1.3h7.13v-2.36h1.33v2.36h7.22Zm-4.66.48a28,28,0,0,1,4.82,4l-1.17.92a26.8,26.8,0,0,0-4.71-4.09Z"/><path class="cls-5" d="M644.77,765.83a13.69,13.69,0,0,0-3.27-1.91l.74-1a14.68,14.68,0,0,1,3.29,1.8Zm1.46,2.46c-.88,1.91-2.07,4.16-3.06,5.84l-1.13-.85a60.1,60.1,0,0,0,3.19-5.81Zm-.59-7.2a13.79,13.79,0,0,0-3.19-2l.72-1a12.74,12.74,0,0,1,3.24,1.93Zm2.43,5.31h1.22v1.89c0,2-.3,4.33-2.7,6.05a6.73,6.73,0,0,0-1-.88,5.68,5.68,0,0,0,2.43-5.2Zm-1.41-2,2.08-.05a21.74,21.74,0,0,0,1.44-2.9h-3.73v-1.21h4.75V758h1.35v2.32h5.28v1.21h-6.12c-.49.93-1.07,2-1.61,2.84l4.9-.18a20.3,20.3,0,0,0-1.48-1.46l1.05-.59a18.55,18.55,0,0,1,3.35,3.75l-1.1.64a11.85,11.85,0,0,0-.86-1.24l-9.15.45Zm4.54,2.07h1.19v7.1H651.2Zm5.31,6.52a.66.66,0,0,0,.4-.09c.07-.05.14-.2.18-.49s0-.93.07-1.78a3.33,3.33,0,0,0,.94.49,10.52,10.52,0,0,1-.18,2.05,1,1,0,0,1-.49.7,1.63,1.63,0,0,1-.84.2h-.89a1.58,1.58,0,0,1-1-.31c-.25-.25-.34-.52-.34-1.6v-5.8h1.24v5.93c0,.36,0,.54.09.63a.57.57,0,0,0,.31.07Z"/><path class="cls-5" d="M663.21,760.68a40.91,40.91,0,0,0-.9,6.89,19.27,19.27,0,0,0,.16,2.52c.3-.81.74-1.89,1-2.62l.76.57a35.89,35.89,0,0,0-1.28,4,3.57,3.57,0,0,0-.09.81c0,.19,0,.45.05.63l-1.29.09a22.66,22.66,0,0,1-.67-5.78,51.41,51.41,0,0,1,.81-7.22,8.29,8.29,0,0,0,.13-1.28l1.6.14C663.44,759.78,663.28,760.35,663.21,760.68Zm4.19,9.16c0,.83.6,1.62,3,1.62a19.58,19.58,0,0,0,4.47-.47l0,1.52a25,25,0,0,1-4.51.38c-3,0-4.37-1-4.37-2.71a9.56,9.56,0,0,1,.31-2.12l1.29.13A6.25,6.25,0,0,0,667.4,769.84Zm7-9v1.46a43.54,43.54,0,0,1-7.4,0v-1.44A31,31,0,0,0,674.37,760.84Z"/><path class="cls-5" d="M686.37,760.66c0,.49,0,1.13,0,1.84,1.43,0,3.71-.13,5.33-.33l.06,1.35c-1.61.16-3.91.27-5.39.29V764c0,1.19.09,2.94.18,4.51a14.2,14.2,0,0,1,5.6,3.06l-.86,1.37a12.71,12.71,0,0,0-4.68-3c0,.46,0,.88,0,1.2,0,1.48-.9,2.74-3.29,2.74S679,773.05,679,771c0-1.62,1.42-3,4.53-3a11.17,11.17,0,0,1,1.54.11C685,766.69,685,765,685,764s0-2.52,0-3.29a9,9,0,0,0-.14-1.78h1.71C686.45,759.26,686.39,760.12,686.37,760.66Zm-3.16,11.83c1.31,0,2-.61,2-1.86,0-.28,0-.68,0-1.15a8.69,8.69,0,0,0-1.76-.18c-1.86,0-2.92.65-2.92,1.64S681.48,772.49,683.21,772.49Z"/><path class="cls-5" d="M700.32,759.81c.94,0,5.22-.14,6.18-.23a4.85,4.85,0,0,0,1-.14l.83,1c-.32.23-.69.47-1,.74-.9.68-3.35,2.77-4.75,3.94a7.56,7.56,0,0,1,2.5-.38c3,0,5.13,1.8,5.13,4.23,0,2.9-2.37,4.78-6.19,4.78-2.45,0-4-1.07-4-2.56a2.53,2.53,0,0,1,2.78-2.34,3.48,3.48,0,0,1,3.67,3.19,3.17,3.17,0,0,0,2.25-3.08c0-1.77-1.69-3.1-4-3.1-3,0-4.61,1.28-6.9,3.6l-1-1.06c1.49-1.23,3.79-3.15,4.84-4s3.26-2.71,4.18-3.52c-1,0-4.56.19-5.51.25a11.43,11.43,0,0,0-1.19.11l-.06-1.5A9.67,9.67,0,0,0,700.32,759.81Zm3.42,12.72a9.43,9.43,0,0,0,1.46-.11,2.45,2.45,0,0,0-2.41-2.45,1.31,1.31,0,0,0-1.44,1.15C701.35,772,702.34,772.53,703.74,772.53Z"/><path class="cls-5" d="M717.13,768.73c.67-.29,1.35-.6,2.06-.87l.27,1.19c-1.91.88-4,1.78-5.53,2.49l-.52-1.34c.66-.23,1.53-.57,2.46-1v-5.71h-2.3v-1.28h2.3v-4.08h1.26v4.08h2.11v1.28h-2.11Zm10.38,4c1,0,1.22-.49,1.35-2.56a3.37,3.37,0,0,0,1.2.52c-.21,2.45-.63,3.24-2.52,3.24h-4.41c-2,0-2.65-.48-2.65-2.41V765.9l-1.42.59-.52-1.17,1.94-.81v-4.89h1.28V764l2.41-1v-5h1.28v4.47l2.38-1,.29-.26.25-.19.94.36-.08.25a62.05,62.05,0,0,1-.18,6.73,1.22,1.22,0,0,1-.95,1.19,7.41,7.41,0,0,1-1.69.13,3.9,3.9,0,0,0-.33-1.16c.44,0,1,0,1.21,0s.45-.07.54-.47.13-2.43.13-5.29l-2.51,1.06v6.61h-1.28v-6.07l-2.41,1v6.23c0,.95.24,1.19,1.41,1.19Z"/><path class="cls-5" d="M736.77,769.55c-1.64.85-3.4,1.73-4.79,2.42l-.52-1.32c.58-.23,1.26-.54,2-.88v-6.19h-1.87v-1.26h1.87v-4.16h1.26v4.16h1.64v1.26h-1.64v5.6l1.67-.81Zm5.76,1.08-6.1,1.77-.36-1.26c1.62-.36,4-1,6.34-1.64Zm4.92-6.87a23.09,23.09,0,0,1-2.63,6.21c.43,2,1,3.13,1.64,3.13.34,0,.5-.7.58-2.57a3.52,3.52,0,0,0,1,.7c-.2,2.39-.56,3.15-1.69,3.15s-1.87-1.15-2.43-3.08a14.38,14.38,0,0,1-3,2.94,7.23,7.23,0,0,0-1-.89,12.66,12.66,0,0,0,3.66-3.56,54.07,54.07,0,0,1-.76-8h-6.05v-1.24h6c0-.87-.06-1.75-.06-2.63h1.3c0,.9,0,1.78,0,2.63h2.82a14.43,14.43,0,0,0-2.14-1.93l.78-.66a11,11,0,0,1,2.19,1.85l-.79.74h.95v1.24H744a58,58,0,0,0,.51,6.32,21.15,21.15,0,0,0,1.73-4.63Zm-5.78-.24v5.19h-4.46v-5.19Zm-1.1,1.08h-2.32v3h2.32Z"/><path class="cls-5" d="M755.85,762h-6.33v-1.1h6.33Zm-.45,11.32h-4v.83h-1.13v-6h5.11Zm0-8.93h-5.08v-1.06h5.08Zm-5.08,1.32h5.08v1.08h-5.08Zm5-6.09H750.4v-1.08h4.93Zm-3.91,9.6v3h2.83v-3Zm10.83-.88a13.3,13.3,0,0,0,3.92,4.07,5.44,5.44,0,0,0-.92,1,15.39,15.39,0,0,1-3.67-4.16v5.08h-1.3v-5a12.4,12.4,0,0,1-3.89,4.18,6.44,6.44,0,0,0-.88-1,11.63,11.63,0,0,0,4.14-4.19h-3.56v-1.21h4.19v-1.49h-3.53v-7h8.45v7h-3.62v1.49h4.16v1.21ZM758,761.63h2.38V759.8H758Zm0,2.94h2.38v-1.86H758Zm6-4.77h-2.45v1.83H764Zm0,2.91h-2.45v1.86H764Z"/><path class="cls-5" d="M772.36,772.15a14.7,14.7,0,0,0,5.47.74c.79,0,5.22,0,6.27,0a3.57,3.57,0,0,0-.49,1.15h-5.78c-3.89,0-6.57-.43-8.19-2.84a7.22,7.22,0,0,1-1.37,3.27,4,4,0,0,0-.84-.86c1.08-1.3,1.38-3.71,1.47-5.91H770c0,.69-.07,1.39-.15,2.06a4.87,4.87,0,0,0,1.34,1.74v-4.79h-3.57v-1h8.07v1h-3.35v1.93h3v1h-3Zm2.29-7.84H768.7V758.7h5.95Zm-1.23-4.62h-3.51V761h3.51Zm0,2.27h-3.51v1.36h3.51Zm5.47,7.83a11.71,11.71,0,0,1-3.18,2.65,6.63,6.63,0,0,0-.9-.85,8.91,8.91,0,0,0,3-2.16Zm-.34-8.57c.15-.43.29-.92.4-1.37H775.6v-1h8.14v1h-3.55c-.16.47-.34.95-.5,1.37H783v7.9h-6.74v-7.9Zm3.23,1h-4.29v1.35h4.29Zm0,2.28h-4.29v1.34h4.29Zm0,2.29h-4.29v1.35h4.29Zm-.6,2.63a13,13,0,0,1,2.81,2.31l-1,.63a15.25,15.25,0,0,0-2.76-2.42Z"/><path class="cls-5" d="M794.36,773.57l-.85-1.33a15.08,15.08,0,0,0,1.55-.24,5.43,5.43,0,0,0,4.57-5.34,5,5,0,0,0-4.81-5.23,34,34,0,0,1-1.08,5.19c-1.09,3.71-2.52,5.6-4.19,5.6s-3.21-1.84-3.21-4.81a7.68,7.68,0,0,1,7.87-7.33,6.52,6.52,0,0,1,6.9,6.63C801.11,770.49,798.62,773,794.36,773.57Zm-4.76-3c.85,0,1.8-1.2,2.72-4.25a29.44,29.44,0,0,0,1-4.86,6.28,6.28,0,0,0-5.58,5.84C787.75,769.55,788.79,770.56,789.6,770.56Z"/><path class="cls-5" d="M815.42,760a5.93,5.93,0,0,1-3.46,4.86,3.61,3.61,0,0,0-.72-.9v9c0,.65-.14,1-.61,1.23a7.19,7.19,0,0,1-2.41.21,4.4,4.4,0,0,0-.44-1.13c.94,0,1.75,0,2,0s.35-.09.35-.33v-3.24h-4.33a10.88,10.88,0,0,1-1.38,4.74,4.06,4.06,0,0,0-1-.62c1.21-1.89,1.34-4.55,1.34-6.57V764c-.13.18-.26.35-.38.49a6.4,6.4,0,0,0-1-.81,13.18,13.18,0,0,0,2.81-5.69l1.24.27c-.13.45-.27.9-.41,1.33h2.1l.2,0,.79.5a23,23,0,0,1-1.13,2.49h2.25v1.46a4.92,4.92,0,0,0,3-4h-2.43v-1.13h7.78s0,.34,0,.5c-.14,3-.29,4.13-.68,4.56a1.25,1.25,0,0,1-1,.45,17.09,17.09,0,0,1-1.86,0,3.39,3.39,0,0,0-.3-1.12,14.45,14.45,0,0,0,1.62.08c.23,0,.37,0,.5-.17s.36-1.06.47-3.15Zm-8.79.62c-.29.66-.58,1.29-.9,1.87h2.07a15.22,15.22,0,0,0,.79-1.87Zm-.74,6.62c0,.43,0,.92,0,1.41h1.65v-2.11h-1.62Zm0-1.71h1.62v-2h-1.62Zm2.59,0h1.63v-2h-1.63Zm1.63,3.12v-2.11h-1.63v2.11Zm9.92,2.28H816.6v3.37h-1.27v-3.37h-3.78v-1.15h3.78v-2.21h-2a9.37,9.37,0,0,1-.94,1.76,9,9,0,0,0-1-.56,10.15,10.15,0,0,0,1.65-4l1.14.23c-.11.49-.24,1-.38,1.44h1.57v-1.83h1.27v1.83h3.12v1.16H816.6v2.21H820Z"/><path class="cls-5" d="M824.77,765.83a13.69,13.69,0,0,0-3.27-1.91l.74-1a14.68,14.68,0,0,1,3.29,1.8Zm1.34,2.46c-.87,1.91-2,4.15-3,5.84l-1.15-.85a57.11,57.11,0,0,0,3.08-5.81Zm-.47-7.2a13.79,13.79,0,0,0-3.19-2l.72-1a12.74,12.74,0,0,1,3.24,1.93Zm7.36,6.3a8.81,8.81,0,0,0,5.13,5.89,4.4,4.4,0,0,0-.91,1.14c-2.69-1.16-4.41-3.44-5.39-6.52a9.21,9.21,0,0,1-5.29,6.52,6.48,6.48,0,0,0-1-1c3.3-1.64,4.58-3.76,5.06-6.07h-4.23v-1.24h4.43a20.49,20.49,0,0,0,.09-2.09v-2H827.3v-1.24h3.54V758h1.32v2.84h4.34v5.33H838v1.24Zm-.84-3.31c0,.69,0,1.39-.08,2.07h3.12v-4.09h-3Z"/><path class="cls-5" d="M846.52,760.86a43.4,43.4,0,0,0,5.49-.56l0,1.33a53.31,53.31,0,0,1-6,.51,14.35,14.35,0,0,1-1.63,2.79,5.1,5.1,0,0,1,2.51-.67,2.33,2.33,0,0,1,2.41,1.62c1.22-.59,2.32-1,3.26-1.46.54-.23,1-.43,1.48-.7l.59,1.35a15.48,15.48,0,0,0-1.6.58c-1,.38-2.29.9-3.66,1.55,0,1,0,2.57.06,3.45h-1.39c0-.68.05-1.85.05-2.81-1.67.89-2.84,1.84-2.84,3,0,1.4,1.4,1.62,3.26,1.62a32,32,0,0,0,4.91-.43l0,1.44a42.42,42.42,0,0,1-4.94.32c-2.57,0-4.64-.56-4.64-2.75s2.14-3.46,4.25-4.56a1.5,1.5,0,0,0-1.64-1.11,4.73,4.73,0,0,0-3.1,1.31c-.52.49-1,1.15-1.64,1.87l-1.22-.9a19,19,0,0,0,4.16-5.51h-.79c-.78,0-2,0-3-.11v-1.35a25.68,25.68,0,0,0,3,.2c.38,0,.79,0,1.18,0a8.54,8.54,0,0,0,.45-2.25l1.48.13A19,19,0,0,1,846.52,760.86Z"/><path class="cls-5" d="M871.72,765.27a12.81,12.81,0,0,1-4.7,5.8,20.45,20.45,0,0,0,7,2.1,5.08,5.08,0,0,0-.85,1.26,19.7,19.7,0,0,1-7.43-2.55,24.7,24.7,0,0,1-7.48,2.5,4.32,4.32,0,0,0-.72-1.26,24,24,0,0,0,7-2.09,13.21,13.21,0,0,1-3.73-4.57l1.08-.38H859v-1.31h6V762h-6.82V760.7H865V758h1.37v2.74h6.86V762h-6.86v2.78h4.14l.25-.06Zm-9.69.81a11.36,11.36,0,0,0,3.75,4.23,10.82,10.82,0,0,0,4-4.23Z"/><path class="cls-5" d="M879.08,768.06v4.77c0,.74-.18,1.1-.63,1.32a5.21,5.21,0,0,1-2.23.25,5.56,5.56,0,0,0-.4-1.24h1.69c.22,0,.31-.06.31-.33v-4.36q-1.16.39-2.16.69l-.22-1.3c.67-.18,1.48-.43,2.38-.7V762.8h-2.23v-1.24h2.23V758h1.26v3.6H881v1.24h-1.91v4l1.87-.59.18,1.21Zm11.54-.13a9,9,0,0,1-2.47,4,13,13,0,0,0,4,1.37,5,5,0,0,0-.81,1.13,12.44,12.44,0,0,1-4.21-1.69,12,12,0,0,1-3.93,1.68,3.81,3.81,0,0,0-.75-1,12.09,12.09,0,0,0,3.67-1.41,9.4,9.4,0,0,1-2.11-2.34,9.35,9.35,0,0,1-3.54,4.7,3.91,3.91,0,0,0-.92-.94c2.57-1.6,3.55-4.39,4-7h-2.45v-1.13h2.63c0-.49.11-1,.14-1.43h-2.36v-1.1h6.4a23.59,23.59,0,0,0,1.65-3l1.26.41c-.5.87-1.1,1.84-1.65,2.61h2.17v1.1h-6.17c0,.45-.09.94-.15,1.43h6.85v1.13h-7c-.05.4-.14.81-.23,1.21h5l.24,0Zm.4-8.85a58.54,58.54,0,0,1-9.47.91,4.81,4.81,0,0,0-.33-1,59.28,59.28,0,0,0,9-.88Zm-8,1.15a18.12,18.12,0,0,1,.9,2.18l-1.1.37a15,15,0,0,0-.84-2.28Zm1.69,8.46a8.27,8.27,0,0,0,2.4,2.61,7,7,0,0,0,1.91-2.61Zm1-6.12a20,20,0,0,0-.47-2.45l1.06-.18c.23.77.45,1.78.56,2.38Z"/><path class="cls-5" d="M898.72,760.8c-.09,2-.22,6.29-.22,9,0,2,1.25,2.68,3,2.68a7.5,7.5,0,0,0,6.44-3.72l1,1.22a9.06,9.06,0,0,1-7.53,4c-2.59,0-4.37-1.08-4.37-4,0-2.66.18-7.22.18-9.11a9.28,9.28,0,0,0-.15-1.83l1.82,0A15.8,15.8,0,0,0,898.72,760.8Z"/><path class="cls-5" d="M913.89,761c1.17-.13,4.58-.47,7.89-.74,2-.18,3.65-.27,4.86-.33v1.44a15.08,15.08,0,0,0-3.53.29,6.33,6.33,0,0,0-4.12,5.69c0,3.53,3.28,4.65,6.21,4.76l-.52,1.49c-3.33-.13-7.13-1.91-7.13-5.92a7.33,7.33,0,0,1,3.36-6.09c-1.92.22-6.51.65-8.46,1.06l-.16-1.56C913,761,913.55,761,913.89,761Z"/><path class="cls-5" d="M932.63,762.19c0,1.13,0,2.77.13,4.27.28,3,1.17,5,2.45,5,.91,0,1.76-1.87,2.23-3.67l1.13,1.28c-1.08,3.06-2.18,4.1-3.38,4.1-1.71,0-3.35-1.69-3.84-6.35-.16-1.57-.2-3.77-.2-4.81a8,8,0,0,0-.12-1.6l1.74,0A14.25,14.25,0,0,0,932.63,762.19Zm12.69,7.71-1.44.59c-.32-3.26-1.4-7-3.13-9.06l1.4-.48A19.25,19.25,0,0,1,945.32,769.9Z"/><path class="cls-5" d="M957,759.92c0,.24,0,.63,0,1.1a42.45,42.45,0,0,0,4.88-.49l0,1.32c-1.42.16-3.13.32-4.86.41v2.52a44.5,44.5,0,0,0,5-.48v1.35c-1.7.21-3.28.36-5,.41,0,.94.09,1.91.12,2.77a14.36,14.36,0,0,1,5.26,2.81l-.83,1.28a13.29,13.29,0,0,0-4.35-2.72c0,.45,0,.83,0,1.12,0,1.24-.83,2.52-3.17,2.52-2.59,0-4-.92-4-2.65s1.56-2.75,4.16-2.75a9.34,9.34,0,0,1,1.51.11c0-.81-.06-1.68-.07-2.45h-1c-1.22,0-3.21-.11-4.5-.25l0-1.36a32.8,32.8,0,0,0,4.54.35h1v-2.52h-.79c-1.26,0-3.48-.18-4.61-.31l0-1.33a33.6,33.6,0,0,0,4.61.39h.83V759.8c0-.31,0-.83-.07-1.08h1.53A8.22,8.22,0,0,0,957,759.92Zm-3.1,12.66c1,0,1.91-.32,1.91-1.57,0-.3,0-.74,0-1.2a7.73,7.73,0,0,0-1.74-.18c-1.71,0-2.65.66-2.65,1.49S952.09,772.58,953.87,772.58Z"/><path class="cls-5" d="M976,759.89c0,.27,0,.68,0,1.17h5.55l0,1.34c-1-.06-2.65-.09-5.28-.09h-.25c0,1,0,2.14,0,3a4.43,4.43,0,0,1,.57,2.3c0,2.43-1.19,5.13-5.38,6.39L970,772.8c2.4-.54,4-1.55,4.77-3.19a2.54,2.54,0,0,1-1.56.48,2.86,2.86,0,0,1-2.95-3,3.14,3.14,0,0,1,3.16-3.14,3.79,3.79,0,0,1,1.21.2c0-.54,0-1.19,0-1.82-2.73,0-5.8.15-8.05.31l0-1.39c2,0,5.38-.14,8.06-.18,0-.5,0-.93,0-1.18,0-.47-.09-1-.11-1.14h1.64C976,759,976,759.65,976,759.89Zm-2.56,9c1.06,0,1.75-.84,1.59-2.55a1.61,1.61,0,0,0-1.61-1.14,1.84,1.84,0,0,0-1.82,1.91A1.73,1.73,0,0,0,973.4,768.85Z"/><path class="cls-5" d="M989,771.35a2.75,2.75,0,1,1-2.76-2.73A2.75,2.75,0,0,1,989,771.35Zm-.92,0a1.83,1.83,0,1,0-1.84,1.84A1.82,1.82,0,0,0,988.09,771.35Z"/><path class="cls-5" d="M542.39,708.73l1.62-1.18a2.61,2.61,0,0,0,2.38,1.6c1.48,0,2.22-.8,2.22-3v-10h2.32v10.25c0,2.64-1.28,4.76-4.28,4.76A4.52,4.52,0,0,1,542.39,708.73Z"/><path class="cls-5" d="M553.93,703.48c0-4.74,2.62-7.58,6.4-7.58s6.42,2.84,6.42,7.58-2.64,7.69-6.42,7.69S553.93,708.23,553.93,703.48Zm10.44,0c0-3.46-1.6-5.56-4-5.56s-4,2.1-4,5.56,1.58,5.67,4,5.67S564.37,706.93,564.37,703.48Z"/><path class="cls-5" d="M569.81,696.16h2.32v14.75h-2.32Z"/><path class="cls-5" d="M576,696.16h2.38l4.88,8.67,1.54,3.12h.1c-.12-1.52-.3-3.3-.3-4.91v-6.88h2.2v14.75h-2.38l-4.88-8.69L578,699.14h-.1c.12,1.52.3,3.22.3,4.83v6.94H576Z"/><path class="cls-5" d="M606.31,693.74l1.52.72a12.47,12.47,0,0,0,0,17.69l-1.52.72a13.53,13.53,0,0,1,0-19.13Z"/><path class="cls-5" d="M616.17,706.53a24.84,24.84,0,0,0-1.56-2.32v8.24h-1.8v-8.08a19.72,19.72,0,0,1-2.56,4.66,10,10,0,0,0-.9-1.72,20.45,20.45,0,0,0,3.22-5.87h-2.84v-1.76h3.08V697c-.92.2-1.84.34-2.7.46a5.73,5.73,0,0,0-.54-1.44,29.4,29.4,0,0,0,6.24-1.6l1.28,1.42a24.41,24.41,0,0,1-2.48.78v3.1H617v1.76h-2.34v.92a36.77,36.77,0,0,1,2.64,2.71Zm11.76-2.6c-1.64,5.06-5.72,7.48-10.62,8.58a5.73,5.73,0,0,0-.92-1.58,15.68,15.68,0,0,0,5.74-2.14,15.29,15.29,0,0,0-2.48-1.9,14.54,14.54,0,0,1-1.72,1,4.92,4.92,0,0,0-1.16-1.32,12.14,12.14,0,0,0,5.38-4.53,18.09,18.09,0,0,1-4.4,1.93,6.06,6.06,0,0,0-1-1.51,14.66,14.66,0,0,0,4.5-1.86,16.1,16.1,0,0,0-2.18-1.76c-.5.34-1,.66-1.6,1a5.52,5.52,0,0,0-1.16-1.3,11.27,11.27,0,0,0,5-4.44l1.82.34a11.62,11.62,0,0,1-.9,1.38h3.18l.32-.08,1.18.56a11.4,11.4,0,0,1-4.3,5.42l1.54.26a13.31,13.31,0,0,1-1,1.48h3.16l.34-.05Zm-7-6.55c-.18.18-.4.38-.6.56a15.89,15.89,0,0,1,2.28,1.74,9.2,9.2,0,0,0,1.94-2.3Zm1,7.67c-.3.28-.6.56-.92.84a15.44,15.44,0,0,1,2.52,1.84,9.55,9.55,0,0,0,2-2.68Z"/><path class="cls-5" d="M635.87,694.72a31.9,31.9,0,0,1-2,4v13.73h-1.76v-11a24.78,24.78,0,0,1-2,2.33,17.75,17.75,0,0,0-1-1.89,21.52,21.52,0,0,0,5-7.66ZM648,710.05v1.78H635.13v-1.78h5.56v-4.54h-4.42v-1.76h4.42v-4h-5.08V698h6.32a29.9,29.9,0,0,0-3.78-2.6l1.22-1.32a27.57,27.57,0,0,1,4.44,2.94l-.88,1h4.74v1.78h-5.1v4h4.52v1.76h-4.52v4.54Z"/><path class="cls-5" d="M661.05,703.3a2.32,2.32,0,1,1-2.32-2.32A2.32,2.32,0,0,1,661.05,703.3Z"/><path class="cls-5" d="M683.35,702.78a14.8,14.8,0,0,1-3.14,4.89,17.41,17.41,0,0,0,7.78,3,8.89,8.89,0,0,0-1.24,1.78,17.32,17.32,0,0,1-8-3.52,21.29,21.29,0,0,1-8,3.58,10.41,10.41,0,0,0-1.18-1.76,19.68,19.68,0,0,0,7.78-3.14,15.85,15.85,0,0,1-2.94-4.79l1.78-.54a12,12,0,0,0,2.6,4.07,11.45,11.45,0,0,0,2.6-4.17Zm-6.48-3.26a21.37,21.37,0,0,1-5.52,5,16.77,16.77,0,0,0-1.54-1.47,15.37,15.37,0,0,0,5.14-4.2Zm10.58-1.12H670v-1.84h7.72v-2.48h1.92v2.48h7.8Zm-5.06.28a29.84,29.84,0,0,1,5.3,4.32l-1.64,1.29a29.54,29.54,0,0,0-5.18-4.49Z"/><path class="cls-5" d="M693.11,703.1a15.3,15.3,0,0,0-3.62-2.12l1-1.4a17.11,17.11,0,0,1,3.68,1.94Zm1.92,2.71c-1,2.1-2.22,4.5-3.34,6.4l-1.6-1.18a59.79,59.79,0,0,0,3.52-6.4Zm-.9-8a15.4,15.4,0,0,0-3.54-2.22l1-1.34a14.66,14.66,0,0,1,3.6,2.06Zm2.72,5.74h1.68v2c0,2.22-.3,4.88-3,6.84a6.22,6.22,0,0,0-1.3-1.2,6.34,6.34,0,0,0,2.6-5.68Zm3.4-7v-2.48h1.9v2.48h5.58v1.7h-6.64c-.48.9-1,1.9-1.52,2.74,1.48,0,3.1-.1,4.7-.16-.44-.5-.92-1-1.36-1.4l1.42-.76a18.57,18.57,0,0,1,3.6,4.14l-1.56.89a8.4,8.4,0,0,0-.84-1.33c-3.58.18-7.32.38-10,.5l-.2-1.76,2.3-.06a22.42,22.42,0,0,0,1.32-2.8h-3.78v-1.7Zm0,7.13h1.64v7.9h-1.64Zm5.94,7a.64.64,0,0,0,.36-.08c.08-.06.14-.22.2-.52s0-1,.06-1.94a5.38,5.38,0,0,0,1.26.68,12.32,12.32,0,0,1-.2,2.3,1.28,1.28,0,0,1-.6.82,1.9,1.9,0,0,1-1,.24h-1a1.68,1.68,0,0,1-1.18-.42c-.32-.3-.42-.64-.42-1.92v-6.29h1.7V710c0,.36,0,.54.1.64a.39.39,0,0,0,.28.08Z"/><path class="cls-5" d="M716,704.43,714,705v5.28c0,1-.2,1.5-.76,1.8a6.42,6.42,0,0,1-2.76.36,7.34,7.34,0,0,0-.54-1.8c.84,0,1.66,0,1.92,0s.36-.1.36-.38v-4.74l-2.5.72-.4-1.82c.8-.18,1.8-.44,2.9-.74v-4h-2.54V698h2.54v-3.86H714V698h1.74v1.72H714v3.53l1.72-.49Zm11.94,7h-8.76v1h-1.8V701.4a15.16,15.16,0,0,1-1.2,1.5,14.15,14.15,0,0,0-1.22-1.6,17.18,17.18,0,0,0,3.82-7.22l1.78.46a24.56,24.56,0,0,1-1.2,3.26H722a26.47,26.47,0,0,0,1.28-3.64l2,.42c-.44,1.08-.92,2.22-1.4,3.22h3.7v1.66h-3.84v2.32h3.36v1.61h-3.36v2.36h3.36v1.58h-3.36v2.44h4.2Zm-5.94-12h-2.82v2.32H722Zm0,3.93h-2.82v2.36H722Zm-2.82,6.38H722v-2.44h-2.82Z"/><path class="cls-5" d="M733.87,708.29c.86,1.38,2.44,2,4.66,2.1s6.9,0,9.44-.14a8.1,8.1,0,0,0-.6,1.82c-2.3.1-6.54.14-8.86.06-2.48-.1-4.2-.76-5.42-2.3-.84.82-1.72,1.62-2.7,2.48l-.92-1.84a27.58,27.58,0,0,0,2.62-2V703.6h-2.4v-1.72h4.18Zm-1-9.29a14.28,14.28,0,0,0-3.08-3.34l1.42-1a14.87,14.87,0,0,1,3.16,3.2Zm3.36,1.42a16.45,16.45,0,0,1-1.46,1.44,9.48,9.48,0,0,0-1.4-1.44,15.27,15.27,0,0,0,4.54-6.24l1.86.52a22.22,22.22,0,0,1-1.18,2.4h2.76a17.88,17.88,0,0,0,1-2.78l2,.4c-.36.8-.76,1.64-1.14,2.38h3.9v1.58H743v1.74h3.7V702H743v1.75h3.64v1.54H743v1.8h4.54v1.58H736.27Zm4.9-1.74h-3.08v1.74h3.08Zm0,3.28h-3.08v1.75h3.08Zm0,3.29h-3.08v1.8h3.08Z"/><path class="cls-5" d="M766.65,706.45a10.88,10.88,0,0,1-2.3,3.16c.5.86,1.08,1.32,1.72,1.32s.74-.44.84-2.12a4.31,4.31,0,0,0,1.24.82c-.28,2.24-.8,2.88-2.2,2.88a3.34,3.34,0,0,1-2.82-1.86,14.72,14.72,0,0,1-3.26,1.82,7.76,7.76,0,0,0-1-1.2,12.2,12.2,0,0,0,3.58-2,18.11,18.11,0,0,1-1-3.56h-2.72c0,.34-.08.66-.12,1a19,19,0,0,1,2.56,1.88l-1,1.28a18.1,18.1,0,0,0-1.9-1.56,7,7,0,0,1-2.62,4.16,4.27,4.27,0,0,0-1.1-1.22c1.78-1.24,2.3-3.32,2.5-5.52h-1.34v-1l-.68,1c-.24-.62-.74-1.7-1.22-2.65v9.45h-1.68v-8.42a20,20,0,0,1-1.92,4.72,10.5,10.5,0,0,0-.86-1.56A23.52,23.52,0,0,0,752,700h-2.2v-1.7h2.36v-4.22h1.68v4.22h2V700h-2v.86c.5.72,1.66,2.62,2.06,3.33h5.32a76.38,76.38,0,0,1-.6-10.09h1.64c0,1.16,0,2.3,0,3.4l.64-.88.4.3a21.28,21.28,0,0,0,1.12-2.68l1.44.54c-.56,1-1.16,2.1-1.64,2.9a7.78,7.78,0,0,1,.7.74c.44-.76.84-1.5,1.14-2.14l1.32.62c-.82,1.36-1.84,3-2.76,4.2l1.7-.12c-.14-.34-.28-.68-.44-1l1.08-.44a10.42,10.42,0,0,1,1.14,2.92L767,703a7.78,7.78,0,0,0-.2-.8c-.7.08-1.38.14-2,.22a9.54,9.54,0,0,1,1.86,1.37l-.42.4h1.6v1.48h-4.72a18.2,18.2,0,0,0,.62,2.36,9.52,9.52,0,0,0,1.4-2.2Zm-10.48-5c.42-.54.84-1.18,1.28-1.86a13.84,13.84,0,0,0-2.06-2l.74-1c.14.1.26.2.4.32a28.85,28.85,0,0,0,1.12-2.7l1.42.56c-.54,1-1.12,2.1-1.62,2.9.26.24.5.5.7.72.44-.76.84-1.5,1.14-2.14l1.32.62c-.86,1.44-1.94,3.14-2.92,4.46l1.54-.1c-.12-.38-.28-.76-.42-1.1l1.08-.38a10.43,10.43,0,0,1,1,2.92l-1.16.49a4.73,4.73,0,0,0-.14-.67c-1.38.16-2.68.3-3.86.4l-.26-1.42Zm6.94-.26c.36-.46.74-1,1.12-1.6a14.53,14.53,0,0,0-1.94-1.88,53.86,53.86,0,0,0,.52,6.47h2.26a9.56,9.56,0,0,0-1.34-1l.84-.79-1.8.2-.28-1.38Z"/><path class="cls-5" d="M775.49,706.15c-.26-.64-.84-1.74-1.36-2.68v9h-1.72V704a18.66,18.66,0,0,1-2.14,4.8,9.41,9.41,0,0,0-.88-1.6,21.39,21.39,0,0,0,2.86-7.15h-2.44v-1.72h2.6v-4.22h1.72v4.22h2.14v1.72h-2.14v1.18c.56.74,2,3,2.36,3.55Zm12.6,3.14h-1.18v1.32c0,.84-.18,1.26-.76,1.54a8.89,8.89,0,0,1-2.76.24,7,7,0,0,0-.5-1.5c.84,0,1.7,0,2,0s.32-.08.32-.32v-1.3h-6.26v3.1h-1.7v-3.1h-1.28v-1.4h1.28v-5h3.92v-1h-4.86v-1.38h2.62V699.4h-1.76v-1.3h1.76V697h-2.18v-1.34h2.18v-1.54h1.74v1.54h2.74v-1.54h1.74v1.54h2.38V697h-2.38v1.1h2.08v1.3h-2.08v1.12h2.78v1.38h-5.08v1h4.1v5h1.18Zm-9.18-5.06v1.14h2.22v-1.14Zm0,3.66h2.22v-1.24h-2.22Zm1.72-9.79h2.74V697h-2.74Zm0,2.42h2.74V699.4h-2.74Zm2.18,3.71v1.14h2.36v-1.14Zm2.36,3.66v-1.24h-2.36v1.24Z"/><path class="cls-5" d="M791.15,712.87l-1.52-.72a12.47,12.47,0,0,0,0-17.69l1.52-.72a13.53,13.53,0,0,1,0,19.13Z"/><path class="cls-5" d="M827.87,702.08v2h-18.2v-2Z"/><path class="cls-5" d="M837.15,703.81v6.9c0,.78-.16,1.24-.66,1.5a5.79,5.79,0,0,1-2.34.28,5.18,5.18,0,0,0-.5-1.48c.74,0,1.44,0,1.64,0s.32-.08.32-.3V704l-3.26.36c0,2.56-.24,6-1.64,8.12a5.91,5.91,0,0,0-1.28-.84c1.24-2,1.42-4.8,1.44-7.12l-1.24.14-.18-1.52,1.42-.15v-6.14h1.76a21.7,21.7,0,0,0,.66-2.74l2,.38-.94,2.36h2.8v5.5l.88-.08,0,1.45Zm-1.54-1.31v-4.18h-3.26v4.52ZM834,699a8.59,8.59,0,0,1,1.08,2.56l-1.22.52a8.55,8.55,0,0,0-1-2.62Zm.46,10.35h-1.12v-4.6h1.12Zm12.6-6.31a13.34,13.34,0,0,1-3,6,10.87,10.87,0,0,0,4.16,2,7.11,7.11,0,0,0-1.12,1.52,11.44,11.44,0,0,1-4.3-2.32,14,14,0,0,1-4.28,2.36,6.77,6.77,0,0,0-1-1.56,11.94,11.94,0,0,0,4-2.08,14.23,14.23,0,0,1-2.34-4.24l1.32-.3h-2v-1.67h7.1l.32-.08Zm-6-5.5a6,6,0,0,1-1.94,4.88,7,7,0,0,0-1.34-1.08,4.43,4.43,0,0,0,1.62-3.84v-2.58h6v4.5c0,.34,0,.56.08.62a.39.39,0,0,0,.28.08h.44a.74.74,0,0,0,.34-.06.64.64,0,0,0,.2-.44c0-.26.06-.86.08-1.62a4.1,4.1,0,0,0,1.34.72,11.34,11.34,0,0,1-.22,1.94,1.21,1.21,0,0,1-.64.72,2.42,2.42,0,0,1-1,.18h-1a1.66,1.66,0,0,1-1.18-.4c-.3-.28-.42-.64-.42-1.78V696.5h-2.64Zm-.38,6.83a10.58,10.58,0,0,0,2,3.42,10.74,10.74,0,0,0,2.08-3.42Z"/><path class="cls-5" d="M853.37,703a15.43,15.43,0,0,0-3.86-2l1-1.44a17.45,17.45,0,0,1,3.92,1.84Zm1.72,2.87a67.2,67.2,0,0,1-3.34,6.32l-1.6-1.18a56.78,56.78,0,0,0,3.54-6.34Zm-.68-8.11a15.71,15.71,0,0,0-3.8-2.18l1-1.38a15.2,15.2,0,0,1,3.86,2Zm11.94,14.73a14.17,14.17,0,0,0-.76-1.64c-3.74.3-7.66.56-10.38.76l-.26-1.88,1.6-.08a39.38,39.38,0,0,0,2.16-5.62h-3.78v-1.77h5.36V699h-4.36V697.2h4.36v-3.08h1.92v3.08h4.56V699h-4.56v3.32h5.5v1.77h-6.78c-.68,1.82-1.56,3.88-2.38,5.52l6.06-.34a26.17,26.17,0,0,0-1.86-2.6l1.6-.84a23.92,23.92,0,0,1,3.74,5.74Z"/><path class="cls-5" d="M879.53,694.66c0,.28,0,.62-.06,1,.18,2.66,1.22,11.65,8.7,15.09a6,6,0,0,0-1.42,1.56c-4.84-2.34-7.06-6.92-8.1-10.79a16.6,16.6,0,0,1-7.7,10.81,6.37,6.37,0,0,0-1.54-1.46c8-4.26,7.88-13.55,8-16.19Z"/><path class="cls-5" d="M894,700.46a24.61,24.61,0,0,1-3.48,2.08,6.78,6.78,0,0,0-1.1-1.52,20.23,20.23,0,0,0,8.18-6.88h1.92a20.11,20.11,0,0,0,8.56,6.6,9.05,9.05,0,0,0-1.18,1.68,25.1,25.1,0,0,1-3.54-2.08v1.56H894ZM890.59,704H907v1.74h-9.16c-.66,1.34-1.4,2.84-2.12,4.12l7.14-.28a29.16,29.16,0,0,0-2.32-2.38l1.6-.86a25.45,25.45,0,0,1,4.64,5.14l-1.7,1.06a13.65,13.65,0,0,0-.88-1.3c-4.76.24-9.84.46-13.24.6l-.24-1.82,3-.1a34.06,34.06,0,0,0,1.86-4.18h-5Zm12.58-3.81a20,20,0,0,1-4.5-4.24,19.42,19.42,0,0,1-4.26,4.24Z"/><path class="cls-5" d="M922,709.11a59.63,59.63,0,0,1,6,2.1l-1.64,1.3a53.23,53.23,0,0,0-6.3-2.3l1.48-1.1h-5.84l1.44,1a25.18,25.18,0,0,1-6.2,2.42,11.21,11.21,0,0,0-1.4-1.34,23.42,23.42,0,0,0,5.6-2h-3.5v-8.65h14.28v8.65Zm3.1-9.61H912.49v-4.68h12.64Zm-11.66,3.44H924V701.8h-10.5Zm0,2.43H924v-1.16h-10.5Zm0,2.42H924v-1.18h-10.5Zm9.7-11.49h-8.82V698h8.82Z"/><image width="120" height="60" transform="translate(653.26 582.42) scale(1.37)" xlink:href="../../../../../../../../Users/hirakawasaki/Downloads/%E3%80%90%E3%83%86%E3%83%AC%E3%82%B9%E3%82%B3%E3%83%BC%E3%83%95%E3%82%9A%E3%80%91P20211228-2%E8%87%AA%E6%B2%BB%E4%BD%93%E5%90%91%E3%81%91LP/Links/linkpolicy_bn04.jpeg"/><path class="cls-2" d="M324.62,282.18a24.15,24.15,0,1,1,0-48.3H500a24.15,24.15,0,1,1,0,48.3Z"/><path class="cls-3" d="M345.35,260.67a48.17,48.17,0,0,1-6.62,4,21.49,21.49,0,0,0,8.41,3.4,10.33,10.33,0,0,0-1.89,2.65c-7.23-1.66-11.8-5.57-14.49-11.71H326.6v7.65l7.71-1.19.16,2.63c-5,.86-10.4,1.73-14.21,2.33l-.7-2.72c1.15-.16,2.53-.35,4-.57V259h-5.47v-2.65h5.5V242.5h19.78V245H326.6v2.21h15.84v2.37H326.6v2.21h15.84v2.37H326.6v2.24h20V259H343ZM333.8,259a16.94,16.94,0,0,0,3,4,43.55,43.55,0,0,0,6.12-4Z"/><path class="cls-3" d="M359,265.6c2-.26,4.16-.51,6.24-.8l.07,2.62c-5.47.84-11.3,1.6-15.33,2.18l-.32-2.91c1.76-.19,4-.45,6.46-.77v-4.13h-5.47V259.1h5.47v-3.16h-5.47V242.88h13.89v13.06H359v3.16h5.54v2.69H359Zm-5.88-17.34h3.2v-3h-3.2Zm0,5.28h3.2v-3h-3.2Zm8.86-8.26h-3.17v3H362Zm0,5.25h-3.17v3H362Zm17.34,3a53.23,53.23,0,0,1-2.49,7.77l-2.4-.61a41,41,0,0,0,1.44-4.73h-3V267.3c0,1.53-.29,2.4-1.38,2.84s-2.75.55-5.12.55a10.48,10.48,0,0,0-.89-2.95c1.69.07,3.32.07,3.81,0s.63-.13.63-.55V256h-4.73v-2.82h7.61a36.78,36.78,0,0,0-6.3-4.12l1.86-1.83c1,.48,2,1,3,1.63a24.7,24.7,0,0,0,2.88-3.26h-8.64v-2.66h10.69l.61-.16,1.92,1.35a30.43,30.43,0,0,1-5.31,6.14,22.78,22.78,0,0,1,2.68,2.15l-.7.76h1.38l.48-.09Z"/><path class="cls-3" d="M392,264.06a31.16,31.16,0,0,1-7.71,6.28,20.34,20.34,0,0,0-2.4-2,23.21,23.21,0,0,0,7-5.47Zm5.92-2.27v8.87h-3.14v-8.87H386.7v.77h-3V244.19h3v15h23.87v2.62Zm9.05-4.67H389.51V242.5H407Zm-2.88-12.51H392.33v2.11H404.1Zm0,4.1H392.33v2.14H404.1Zm0,4.12H392.33V255H404.1Zm-.86,9.95a75.85,75.85,0,0,1,7.52,5.76l-2.69,1.83a66.35,66.35,0,0,0-7.36-6Z"/><path class="cls-3" d="M442.57,251.59a32,32,0,0,1-4.45,12.25,16.64,16.64,0,0,0,5.31,4.32,9.61,9.61,0,0,0-1.95,2.34,18.24,18.24,0,0,1-5.09-4.32,18.48,18.48,0,0,1-5.18,4.32,10.18,10.18,0,0,0-1.92-2.24,17.39,17.39,0,0,0,5.4-4.45,31.83,31.83,0,0,1-3.45-7.75c-.16,4.8-1,10.66-4.1,14.6a11.54,11.54,0,0,0-2.33-1.7,11.73,11.73,0,0,0,.7-1l-1.12.48a14.79,14.79,0,0,0-.61-1.86c-3.26,1.06-6.52,2.15-9.15,3l-1-2.75c.64-.16,1.34-.32,2.11-.55v-16l-.86.71a8.84,8.84,0,0,0-2-1.86,21.1,21.1,0,0,0,6.44-7.78h2.78a35,35,0,0,1,5.44,5.48l-1.86,2.11a31.57,31.57,0,0,0-4.54-5.12,28.43,28.43,0,0,1-5,6H420V247h2.56v2.84h3.64v10.53h-7.77v5.25l4.41-1.22c-.38-.86-.83-1.69-1.24-2.43L424,261a43,43,0,0,1,2.53,5.09c1.76-3.87,1.95-8.51,1.95-12.22v-11h14v2.75h-11.2v5.47h9l.52-.09Zm-24.16.32V254h5.12v-2.08Zm5.12,6.27V256h-5.12v2.15Zm9.6-4.42a29,29,0,0,0,3.26,7.65,25.43,25.43,0,0,0,2.94-7.65Z"/><path class="cls-3" d="M449.35,260a28.9,28.9,0,0,1-2.05,8.1,11.8,11.8,0,0,0-2.11-1,24.16,24.16,0,0,0,1.79-7.48Zm5.44-8.57a26.61,26.61,0,0,1,2.66,6.78l-2.21.93a16.26,16.26,0,0,0-.48-1.92l-2,.13v13.28h-2.56V257.57c-1.63.1-3.2.22-4.54.29l-.29-2.59,2.4-.13c.51-.71,1.09-1.47,1.63-2.34a30.94,30.94,0,0,0-3.87-4.61l1.47-1.92c.32.29.61.58.93.9a37.82,37.82,0,0,0,2.56-5.86l2.56.93c-1.12,2.21-2.46,4.8-3.55,6.56a21.51,21.51,0,0,1,1.38,1.7,58.74,58.74,0,0,0,3-5.51l2.4,1.09c-1.72,2.85-3.9,6.27-5.88,8.9l3.52-.19a26.77,26.77,0,0,0-1.12-2.53Zm.58,8a24.25,24.25,0,0,1,1.6,5.76l-2.15.67a23.6,23.6,0,0,0-1.5-5.79Zm19,8c0,1.47-.32,2.24-1.24,2.69a13.56,13.56,0,0,1-4.77.48,10.71,10.71,0,0,0-.83-2.53c1.57.06,3.1.06,3.58,0s.67-.16.67-.67V245.41H460.07v25.25h-2.56V242.72h16.86ZM463.3,265v2.15h-1.63V255.65h1.63v7H465v-8.8h-4v-2.31h1.85a17.51,17.51,0,0,0-1.4-4.6l1.79-.55a17,17,0,0,1,1.57,4.74l-1.19.41h4.1l-1.06-.28a37.57,37.57,0,0,0,1.44-5.06l2.21.54c-.61,1.6-1.28,3.56-1.79,4.8h2.27v2.31h-4.1v8.8h1.8v-7h1.6V266.3h-1.6V265Z"/><path class="cls-3" d="M492.42,264.7H481.29v2.44h-2.53V242.85h13.66Zm-11.13-19.26v6.85h3.07v-6.85Zm0,16.64h3.07v-7.2h-3.07Zm8.54-16.64h-3.1v6.85h3.1Zm0,16.64v-7.2h-3.1v7.2Zm17.38-14.21h-4.32V267c0,1.73-.39,2.62-1.6,3.14s-3.2.51-6.15.51a10.33,10.33,0,0,0-1-3c2.11.1,4.29.07,4.93,0s.8-.19.8-.73V247.87h-6.79V245h14.15Z"/><polyline class="cls-4" points="412.26 278.42 412.26 349.5 492.73 429.97"/><path class="cls-2" d="M487.14,435a7.52,7.52,0,1,0,0-10.63A7.52,7.52,0,0,0,487.14,435Z"/><path class="cls-2" d="M163.55,362.72a24.16,24.16,0,0,1,0-48.31H339a24.16,24.16,0,1,1,0,48.31Z"/><path class="cls-3" d="M184.73,324.7v7.52h-3v-4.8h-20.9v4.8h-2.91V324.7h11.65v-2.88h3.14v2.88Zm-11.87,13.47c-.23.83-.42,1.69-.61,2.46h9.92V351h-3.1v-1.15H163.8v1.25h-3v-10.5h8.48c.09-.8.19-1.66.25-2.46H163v-8.42h16.48v8.42Zm6.21,5H163.8v4.1h15.27Zm-13.25-7.45h10.69v-3.59H165.82Z"/><path class="cls-3" d="M197.43,327.29h2.08v19.26h-2.08v-2h-5.75v2.94h-2.15V327.29h2.15v14.88h1.63V322.55h2.4v19.62h1.72ZM218,335.9H215.9V348c0,1.51-.32,2.27-1.41,2.72a16,16,0,0,1-5.18.48,10.51,10.51,0,0,0-1-2.69c1.89.07,3.62.07,4.16,0s.67-.13.67-.61V335.9H199.83v-2.5h1.83a7.43,7.43,0,0,0-1.41-2.14c4.1-.8,5.92-2.08,6.75-4.39h-6.24v-2.43h6.79c.09-.77.16-1.63.19-2.59h2.75c0,.93-.1,1.79-.16,2.59h6.72v2.43h-7.17c-.06.26-.13.48-.19.74a83.28,83.28,0,0,1,7.45,3.9l-1.69,1.89H218Zm-3-2.5c-1.53-1-4.16-2.46-6.43-3.65-1.28,1.73-3.33,2.88-6.78,3.65Zm-10.81,12.19v1.76h-2.37V338h8.67v7.58Zm0-5.47v3.33h3.87v-3.33Z"/><path class="cls-3" d="M230.94,344.6a30.9,30.9,0,0,1-7.71,6.27,20.25,20.25,0,0,0-2.4-1.95,23.53,23.53,0,0,0,7-5.47Zm5.92-2.27v8.86h-3.14v-8.86h-8.09v.76h-3V324.73h3v15H249.5v2.63Zm9-4.67H228.44V323h17.47ZM243,325.14H231.26v2.12H243Zm0,4.1H231.26v2.14H243Zm0,4.13H231.26v2.17H243Zm-.86,9.95a74.35,74.35,0,0,1,7.52,5.76L247,350.9a65.24,65.24,0,0,0-7.36-6Z"/><path class="cls-3" d="M269.75,323.86a37.88,37.88,0,0,1-4.06,7.46H269v2.59h-5.35c-.83,1-1.72,1.89-2.62,2.75h6.69v14h-2.82v-1.32h-6.33v1.76H255.9V340.7c-.71.41-1.41.86-2.18,1.28a13.89,13.89,0,0,0-1.72-2.44,30.45,30.45,0,0,0,8-5.63h-7.2v-2.59h6V328h-4.58V325.4h4.58v-3.3h2.75v3.3h3.68v1.66a31.36,31.36,0,0,0,1.89-4Zm-4.83,15.2h-6.33v2.63h6.33Zm0,7.84V344h-6.33v2.88Zm-2.62-15.58a31.84,31.84,0,0,0,2.33-3.36H261.5v3.36Zm19.8-6.43c-1.24,3-2.84,6.65-4.28,9.53,3.07,2.85,3.77,5.35,3.77,7.52s-.48,3.68-1.66,4.48a5.4,5.4,0,0,1-2.18.74,18.55,18.55,0,0,1-2.91,0,7.29,7.29,0,0,0-.8-2.88,15.71,15.71,0,0,0,2.4.07,3,3,0,0,0,1.41-.36c.67-.38.9-1.21.9-2.36,0-1.89-.9-4.26-3.91-6.88,1.19-2.5,2.5-5.83,3.39-8.36h-5.08v24.77h-2.92V323.64h9.25l.45-.13Z"/><path class="cls-3" d="M313.31,333.08a36.61,36.61,0,0,1-4.39,10.82c.67,2.65,1.44,4.22,2.31,4.22.51,0,.83-1.54.92-5a7,7,0,0,0,2.15,1.54c-.39,4.83-1.19,6.24-3.46,6.24-1.7,0-2.94-1.57-3.93-4.19a23.86,23.86,0,0,1-5,4.51,16.53,16.53,0,0,0-2.05-2.05,20.84,20.84,0,0,0,6.14-5.69,88.2,88.2,0,0,1-1.5-14.21h-7v3.9h5.86s0,.74,0,1.06c-.1,7.23-.23,9.95-.8,10.78a2.34,2.34,0,0,1-1.7.93,14.17,14.17,0,0,1-2.78.06,6.8,6.8,0,0,0-.71-2.46,16.73,16.73,0,0,0,2.21.13.78.78,0,0,0,.77-.39c.32-.44.45-2.36.51-7.67h-3.33v1.08c0,4.58-.57,10.75-4,14.66a10,10,0,0,0-2.2-1.86,13.12,13.12,0,0,0,2.81-5.85c-3,1.24-6.14,2.49-8.67,3.52l-1-2.95c1-.32,2.24-.73,3.55-1.21V332.28H285v-2.75h3.1v-7.3h2.75v7.3h2.82v2.75h-2.82V342l2.82-1,.54,2.59a32.18,32.18,0,0,0,.61-6.91V326.55h9.6c-.06-1.57-.09-3.17-.09-4.73h2.81c0,1.6,0,3.16,0,4.73h3.49a24.91,24.91,0,0,0-3.13-3.42l2-1.25a18.1,18.1,0,0,1,3.49,3.65l-1.57,1h2.15v2.69h-6.4c.16,3.94.48,7.52.89,10.5a33,33,0,0,0,2.47-7.14Z"/><path class="cls-3" d="M332.7,329v3.91h10.14v11c0,1.57-.35,2.43-1.5,2.91s-3,.52-5.6.52a10.67,10.67,0,0,0-1-3c1.92.1,3.81.1,4.36.07s.7-.16.7-.61v-8H332.7v15.52h-3.07V335.77h-6.56v11.58h-3V332.86h9.54V329H316.92v-2.88h12.67v-4.38h3.17v4.38h12.9V329Z"/><polyline class="cls-4" points="250.17 362.71 125.26 486.61 125.26 549.28"/><circle class="cls-2" cx="125.26" cy="548.9" r="7.52"/><path class="cls-2" d="M216.18,645.1a24.16,24.16,0,1,1,0-48.31H452.36a24.16,24.16,0,1,1,0,48.31Z"/><path class="cls-3" d="M212.92,620.45c-.28,4.39-1.08,9.34-3.16,12.9a14.13,14.13,0,0,0-2.4-1.64c2.62-4.51,2.88-11,2.88-15.71v-9.28h11.42v-2.49h3.1v2.49h11.62v2.66H213.05v2.88h4.48v-2.37h2.79v2.37h4.86v-2.37H228v2.37h7.62v8.19Zm5.16,9.82c1.95-.19,4-.38,6.08-.6l.06,2.43c-4.16.48-8.48,1-11.65,1.31l-.29-2.62,2.95-.26v-9.34h2.85v2.69h5.85v2.43h-5.85Zm-5-15.61V616c0,.64,0,1.32,0,2h4.51v-3.36Zm7.27,0V618h4.86v-3.36ZM233.11,631c.93,0,1.16-.48,1.25-3.24a8.79,8.79,0,0,0,2.53,1c-.29,3.68-1.09,4.7-3.49,4.7h-4.28c-3,0-3.81-.83-3.81-3.55v-8.67h2.85v3.42a25.66,25.66,0,0,0,5.6-2.43l2.17,1.95a37.67,37.67,0,0,1-7.77,2.85v2.85c0,.93.22,1.09,1.34,1.09ZM228,614.66V618h4.77v-3.36Z"/><path class="cls-3" d="M251.42,622.69c-.67,5.57-2.4,9.15-10.27,11.07a9.21,9.21,0,0,0-1.7-2.62c7-1.44,8.23-4.16,8.77-8.45Zm-5.7-17.57v17.16h-2.88V605.12Zm20.26.48v16.23H250.17V605.6Zm-13,6.85h9.92V608.2H253Zm0,6.75h9.92v-4.35H253Zm6.62,3.46v6.91c0,.93.16,1.09,1.41,1.09h3.68c1.12,0,1.31-.58,1.44-4.42a8.69,8.69,0,0,0,2.78,1.19c-.35,4.83-1.18,6-4,6h-4.35c-3.24,0-4-.92-4-3.87v-6.94Z"/><path class="cls-3" d="M279,621v2h20.45a10.32,10.32,0,0,1-.1,1.12c-.44,5.34-.92,7.58-1.72,8.51a3.13,3.13,0,0,1-2.05.9,26.68,26.68,0,0,1-3.84,0A5.57,5.57,0,0,0,291,631a27.3,27.3,0,0,0,3.14.16,1.36,1.36,0,0,0,1.05-.32c.49-.51.84-2,1.16-5.57H283.48v4.06h4.64v-3.23h2.72v5.54H276.06v1.5h-2.75v-7h2.75v3.16h4.67v-4.06h-4.67V606.69h7.3a21.78,21.78,0,0,0,.76-2.59l3.52.35c-.35.77-.76,1.54-1.15,2.24h9.31v10.24H279v1.86h21.57V621Zm0-12.19v2h13.83v-2Zm13.83,6v-2.05H279v2.05Z"/><path class="cls-3" d="M314,627a30.9,30.9,0,0,1-7.71,6.27,20.25,20.25,0,0,0-2.4-2,23.53,23.53,0,0,0,7-5.47Zm5.92-2.27v8.86h-3.14v-8.86h-8.09v.77h-3V607.11h3v15h23.87v2.63Zm9.05-4.67H311.45V605.41h17.47ZM326,607.52H314.27v2.12H326Zm0,4.1H314.27v2.14H326Zm0,4.13H314.27v2.17H326Zm-.86,10a74.35,74.35,0,0,1,7.52,5.76L330,633.28a65.24,65.24,0,0,0-7.36-6Z"/><path class="cls-3" d="M354.94,609v4.09h8.22v20.26h-3v-1.79H340.41v1.85H337.5V613.12H345V609h-8.8v-2.88h28.09V609Zm5.21,19.77v-5.4a2.61,2.61,0,0,1-2,.64H355.2c-2.66,0-3.24-.77-3.24-3.43v-4.73H347.9v1a9.33,9.33,0,0,1-5.5,8.93,9.66,9.66,0,0,0-2-1.86v4.83Zm-19.74-12.92v7.93c4-2,4.74-4.7,4.74-7v-.92ZM352,609h-4.1v4.09H352Zm8.15,6.85h-5.34v4.73c0,.74.1.8.83.8h2.15c.64,0,.77-.25.86-2.08a5.37,5.37,0,0,0,1.5.74Z"/><path class="cls-3" d="M395.32,611.59a62,62,0,0,1-16,16.92c2.56,1.28,5.86,1.6,9.54,1.6,1.22,0,6.53,0,8.19,0a8.82,8.82,0,0,0-1.09,3h-7.29c-6.79,0-11.71-1.12-14.91-5.76a60.36,60.36,0,0,1-3.56,6.24l-2.91-1.76A39.18,39.18,0,0,0,373.15,621l3,1.15c-.25.64-.57,1.34-.92,2.11a8.76,8.76,0,0,0,1.63,2.43,57.26,57.26,0,0,0,13.6-13.47h-21v-2.91h11.2v-6.08h3.07v6.08h8.7l.64-.19Z"/><path class="cls-3" d="M427.64,621.38a48.77,48.77,0,0,1-6.56,4.32,16.52,16.52,0,0,0,8.13,5.15,11.28,11.28,0,0,0-1.92,2.66c-6.72-2.34-10.59-7.3-12.77-14.47a28.93,28.93,0,0,1-4.48,3.52v6.63l7.46-1.73.32,2.65c-5,1.28-10.4,2.56-14.24,3.46l-1-2.75c1.28-.26,2.78-.61,4.45-1v-5.57a36.08,36.08,0,0,1-5.95,2.53,15.4,15.4,0,0,0-1.92-2.46,35.54,35.54,0,0,0,11.61-5.6H400.32V616.2H412.7v-2.4h-9.76v-2.44h9.76v-2.17H401.5v-2.56h11.2v-2.4h3v2.4h11.45v2.56H415.68v2.17h10.24v2.44H415.68v2.4h12.47v2.56H417.31a22.65,22.65,0,0,0,2.33,5,45.41,45.41,0,0,0,5.6-4.22Z"/><path class="cls-3" d="M447.71,611.33v3.91h10.14v11c0,1.57-.35,2.43-1.5,2.91s-3,.52-5.6.52a10.67,10.67,0,0,0-1-2.95c1.92.1,3.81.1,4.36.07s.7-.16.7-.61v-8h-7.07v15.52h-3.07V618.15h-6.56v11.58h-3V615.24h9.54v-3.91H431.93v-2.88H444.6v-4.38h3.17v4.38h12.9v2.88Z"/><line class="cls-4" x1="193.26" y1="621.42" x2="92.4" y2="621.42"/><circle class="cls-2" cx="92.78" cy="621.42" r="7.52"/><polyline class="cls-6" points="0 345.28 83.08 345.28 180.58 247.78 180.58 165.57"/><polyline class="cls-4" points="730.26 497.32 571.26 497.32 525.25 451.31"/><path class="cls-2" d="M530.83,446.26a7.52,7.52,0,1,0,0,10.64A7.53,7.53,0,0,0,530.83,446.26Z"/><path class="cls-2" d="M737.07,522.75a24.16,24.16,0,0,1,0-48.31H912.48a24.16,24.16,0,0,1,0,48.31Z"/><path class="cls-3" d="M757.8,501.24a49.28,49.28,0,0,1-6.63,4,21.6,21.6,0,0,0,8.42,3.39,10.55,10.55,0,0,0-1.89,2.66c-7.23-1.67-11.81-5.57-14.49-11.71h-4.16v7.64l7.71-1.18.16,2.62c-5,.87-10.4,1.73-14.21,2.34l-.7-2.72c1.15-.16,2.53-.35,4-.58v-8.12h-5.47V497H736V483.06h19.77v2.5H739.05v2.21h15.84v2.36H739.05v2.21h15.84v2.37H739.05V497h20v2.66H755.4Zm-11.55-1.63a17.15,17.15,0,0,0,3,4,44.32,44.32,0,0,0,6.11-4Z"/><path class="cls-3" d="M771.43,506.17c2.05-.26,4.16-.52,6.24-.8l.06,2.62c-5.47.83-11.29,1.6-15.32,2.18l-.32-2.92c1.76-.19,4-.44,6.46-.76v-4.13h-5.47v-2.69h5.47V496.5h-5.47V483.45H777V496.5h-5.54v3.17H777v2.69h-5.54Zm-5.89-17.35h3.2v-3h-3.2Zm0,5.28h3.2v-3h-3.2Zm8.87-8.25h-3.17v3h3.17Zm0,5.24h-3.17v3h3.17Zm17.34,3a52.14,52.14,0,0,1-2.5,7.78l-2.4-.61a39.32,39.32,0,0,0,1.44-4.74h-3v11.33c0,1.54-.29,2.4-1.38,2.85s-2.75.54-5.12.54a10.35,10.35,0,0,0-.9-2.94c1.7.06,3.33.06,3.81,0s.64-.13.64-.54V496.53h-4.73v-2.81h7.61a37.84,37.84,0,0,0-6.3-4.13l1.85-1.82c1,.48,2,1,3,1.63a25.53,25.53,0,0,0,2.88-3.27H778v-2.65h10.69l.61-.16,1.92,1.34a30.22,30.22,0,0,1-5.32,6.15,22.16,22.16,0,0,1,2.69,2.14l-.7.77h1.37l.48-.1Z"/><path class="cls-3" d="M804.45,504.63a30.54,30.54,0,0,1-7.71,6.27,18.75,18.75,0,0,0-2.4-1.95,23.13,23.13,0,0,0,7-5.47Zm5.92-2.27v8.86h-3.13v-8.86h-8.1v.77h-3V484.76h3v15H823v2.63Zm9.06-4.67H802V483.06h17.47Zm-2.88-12.52H804.77v2.12h11.78Zm0,4.1H804.77v2.14h11.78Zm0,4.13H804.77v2.17h11.78Zm-.86,10a74.35,74.35,0,0,1,7.52,5.76l-2.69,1.82a65.24,65.24,0,0,0-7.36-6Z"/><path class="cls-3" d="M834.34,490.26c-1.05,4.67-2.84,10.47-5.63,14a13.54,13.54,0,0,0-2.85-1.57c2.69-3.33,4.39-8.83,5.12-13.06Zm8.16-7.93v25c0,2-.51,2.85-1.76,3.36s-3.33.57-6.36.54a14.7,14.7,0,0,0-1.19-3.1c2.18.09,4.51.09,5.18.06s.9-.22.9-.86v-25Zm7.3,7.07c2.72,4.45,5.34,10.27,6.14,14.14l-3.23,1.28c-.67-3.77-3.2-9.73-5.79-14.33Z"/><path class="cls-3" d="M869.41,489.53H858.06v-2.37h11.35Zm-.8,20h-6.68v1.35h-2.5V500.09h9.18Zm0-15.68h-9.12v-2.3h9.12Zm-9.12,2h9.12v2.33h-9.12Zm9-10.5h-8.9v-2.33h8.9Zm-6.56,17.22v4.6h4.16v-4.6Zm18.08-8.2a40.76,40.76,0,0,1-3.2,3h9v13.92h-3v-1.06h-7.07v1.19h-2.85v-11.2c-.92.61-1.85,1.15-2.81,1.66a22.93,22.93,0,0,0-2-2.33,34,34,0,0,0,7.87-5.16h-6.66v-2.65h6V488h-4.84V485.4h4.84v-3.52h2.84v3.52h3.68v2.21a32.26,32.26,0,0,0,2.34-4.13l2.66.89a39.18,39.18,0,0,1-4.58,7.27h5.22v2.65Zm2.84,5.48h-7.07v2.72h7.07Zm0,7.87v-2.85h-7.07v2.85Zm-4.64-16h.55a41.27,41.27,0,0,0,2.88-3.65h-3.43Z"/><path class="cls-3" d="M906.21,489v3.91h10.15v11c0,1.57-.35,2.44-1.51,2.92s-3,.51-5.6.51a10.64,10.64,0,0,0-1-2.95c1.92.1,3.81.1,4.35.07s.71-.16.71-.61v-8h-7.08v15.52h-3.07V495.8h-6.56v11.58h-3V492.89h9.53V489h-12.7V486.1h12.67v-4.38h3.17v4.38h12.89V489Z"/></g></g></svg>