<svg xmlns="http://www.w3.org/2000/svg" viewBox="0 0 955.96 703.59"><defs><style>.cls-1{fill:#d9f5ef;}.cls-2,.cls-6{fill:none;stroke-miterlimit:10;}.cls-2{stroke:#00be96;stroke-width:3px;stroke-dasharray:15.09 7.04;}.cls-3{fill:#141f42;}.cls-4{fill:#00be96;}.cls-5{fill:#fff;}.cls-6{stroke:#969696;stroke-linecap:round;}</style></defs><g id="レイヤー_2" data-name="レイヤー 2"><g id="レイヤー_6" data-name="レイヤー 6"><rect class="cls-1" x="1.5" y="290.5" width="541" height="176" rx="10"/><path class="cls-2" d="M1.5,456.5a10,10,0,0,0,10,10h521a10,10,0,0,0,10-10v-156a10,10,0,0,0-10-10H11.5a10,10,0,0,0-10,10v156Z"/><path class="cls-3" d="M531.66,249.24c8.49-8.09,14.08-13.64,14.08-18.35,0-3.21-1.76-5.15-4.88-5.15-2.38,0-4.31,1.59-6,3.39l-3.52-3.52c3-3.21,5.9-5,10.34-5,6.17,0,10.26,3.92,10.26,9.9,0,5.55-5.11,11.27-10.92,17.34,1.63-.18,3.79-.35,5.33-.35h7.13V253H531.66Z"/><path class="cls-3" d="M557.62,237c0-10.74,4.36-16.33,11-16.33s11,5.63,11,16.33-4.32,16.63-11,16.63S557.62,247.75,557.62,237Zm15.93,0c0-8.81-2.07-11.27-4.88-11.27s-4.93,2.46-4.93,11.27,2.11,11.57,4.93,11.57S573.55,245.81,573.55,237Z"/><path class="cls-3" d="M685.34,249.24c8.49-8.09,14.08-13.64,14.08-18.35,0-3.21-1.76-5.15-4.88-5.15-2.38,0-4.32,1.59-6,3.39L685,225.61c3-3.21,5.9-5,10.34-5,6.16,0,10.25,3.92,10.25,9.9,0,5.55-5.1,11.27-10.91,17.34,1.63-.18,3.79-.35,5.33-.35h7.13V253H685.34Z"/><path class="cls-3" d="M710.51,249.16l3-4.14a10.13,10.13,0,0,0,7.17,3.3c3.39,0,5.77-2,5.77-5.55s-2.2-5.5-5.51-5.5c-1.93,0-3,.49-4.88,1.72l-2.95-1.89.88-15.84h17.43v5.41H719.57l-.61,6.91a9,9,0,0,1,3.91-.88c5.46,0,10,3.08,10,9.85,0,7-5.36,11-11.39,11A14.83,14.83,0,0,1,710.51,249.16Z"/><path class="cls-3" d="M839.87,249.07l3-4.1a10.3,10.3,0,0,0,7.26,3.35c3.3,0,5.54-1.59,5.54-4.31,0-3.08-1.89-5-9-5v-4.66c6,0,7.93-2,7.93-4.71,0-2.46-1.59-3.92-4.36-3.92-2.33,0-4.23,1.1-6.16,2.91l-3.3-4a14.45,14.45,0,0,1,9.77-4.05c6.29,0,10.56,3.08,10.56,8.54,0,3.43-2,5.81-5.42,7.17v.22c3.66,1,6.47,3.65,6.47,7.83,0,5.81-5.23,9.2-11.44,9.2C845.63,253.6,842.16,251.66,839.87,249.07Z"/><path class="cls-3" d="M866.58,237c0-10.74,4.35-16.33,11-16.33s11,5.63,11,16.33-4.31,16.63-11,16.63S866.58,247.75,866.58,237Zm15.93,0c0-8.81-2.07-11.27-4.89-11.27s-4.93,2.46-4.93,11.27,2.12,11.57,4.93,11.57S882.51,245.81,882.51,237Z"/><path class="cls-3" d="M899,234.22l1.9.84a12.51,12.51,0,0,0,0,17.52l-1.9.84a13.64,13.64,0,0,1,0-19.2Z"/><path class="cls-3" d="M902.46,241c0-3,1.48-4.66,3.6-4.66s3.62,1.7,3.62,4.66-1.5,4.72-3.62,4.72S902.46,244,902.46,241Zm5.14,0c0-2.18-.68-3-1.54-3s-1.52.82-1.52,3,.66,3.06,1.52,3.06S907.6,243.18,907.6,241Zm7-4.66h1.74L908.3,251.7h-1.74ZM913.22,247c0-3,1.5-4.68,3.61-4.68s3.62,1.7,3.62,4.68-1.52,4.72-3.62,4.72S913.22,249.94,913.22,247Zm5.15,0c0-2.18-.68-3-1.54-3s-1.53.84-1.53,3,.66,3,1.53,3S918.37,249.16,918.37,247Z"/><path class="cls-3" d="M923.88,253.42l-1.9-.84a12.51,12.51,0,0,0,0-17.52l1.9-.84a13.67,13.67,0,0,1,0,19.2Z"/><path class="cls-3" d="M886.49,588.43l1.9.84a12.51,12.51,0,0,0,0,17.52l-1.9.84a13.67,13.67,0,0,1,0-19.2Z"/><path class="cls-3" d="M890.86,594.43h2.4l.23,1.48h0a5.2,5.2,0,0,1,3.65-1.76c2.42,0,3.46,1.68,3.46,4.5v7h-2.94V599c0-1.74-.48-2.34-1.58-2.34a3.17,3.17,0,0,0-2.33,1.26v7.7h-2.94Z"/><path class="cls-3" d="M902.86,594.51h10.27v2.08H902.86Zm0,5.16h10.27v2.1H902.86Z"/><path class="cls-3" d="M914.74,603.93c3.86-3.68,6.4-6.2,6.4-8.34a2.09,2.09,0,0,0-2.22-2.34,3.9,3.9,0,0,0-2.72,1.54l-1.6-1.6a6,6,0,0,1,4.7-2.26,4.32,4.32,0,0,1,4.66,4.5c0,2.52-2.32,5.12-5,7.88.74-.08,1.72-.16,2.42-.16h3.25v2.48h-9.93Z"/><path class="cls-3" d="M932.4,602.05h-6.32v-2l5.52-8.82h3.54v8.58h1.74v2.26h-1.74v3.58H932.4Zm0-2.26v-2.88c0-.86.06-2.22.1-3.08h-.08c-.36.78-.76,1.52-1.18,2.32l-2.3,3.64Z"/><path class="cls-3" d="M945.1,593.67h-6.66v-2.46h9.84V593c-3.36,4.1-3.9,7-4.14,12.62h-3C941.42,600.65,942.34,597.51,945.1,593.67Z"/><path class="cls-3" d="M952,607.63l-1.9-.84a12.51,12.51,0,0,0,0-17.52l1.9-.84a13.67,13.67,0,0,1,0,19.2Z"/><path class="cls-3" d="M234.05,665.06h-6.38V664h6.38Zm-.49,11.33h-4v.83h-1.13v-6h5.11Zm0-8.93h-5.08V666.4h5.08Zm-5.08,1.31h5.08v1.08h-5.08Zm5-6.08h-4.94v-1.08h4.94Zm-3.91,9.59v3h2.83v-3Zm4.11,3.53a7.28,7.28,0,0,0,1.42-3.94l1.08.27a7.68,7.68,0,0,1-1.53,4.3Zm6.37-8.35a18.67,18.67,0,0,0-1.85-1.15,7.12,7.12,0,0,1-3.28,3.25,4.07,4.07,0,0,0-.79-.93,6.09,6.09,0,0,0,3-2.87,23.32,23.32,0,0,0-2.34-1l.67-.93c.67.21,1.39.52,2.11.82a11.79,11.79,0,0,0,.41-1.78h-3v-1.15h8.58s0,.4,0,.56c-.17,4.23-.35,5.8-.8,6.32a1.28,1.28,0,0,1-1.06.52,15.13,15.13,0,0,1-2.11,0,2.71,2.71,0,0,0-.34-1.2c.81.07,1.57.07,1.86.07s.47,0,.57-.18c.31-.33.47-1.59.62-4.92h-3a14,14,0,0,1-.55,2.32,22.88,22.88,0,0,1,2.07,1.19Zm.25,8.64c.47,0,.56-.25.61-2.05a3.39,3.39,0,0,0,1.12.52c-.13,2.16-.45,2.7-1.58,2.7h-2c-1.34,0-1.66-.36-1.66-1.69v-4.32H238v4.32c0,.45.07.52.6.52Zm-2.41-7.26a12.93,12.93,0,0,1,3.2,2.34l-.82.89a13.59,13.59,0,0,0-3.16-2.43Zm4.46,2.7a12.27,12.27,0,0,1,2,4.29l-1.17.49a13.27,13.27,0,0,0-1.95-4.34Z"/><path class="cls-3" d="M254.58,675.63a16.74,16.74,0,0,0,2.92.22c.65,0,3.75,0,4.61,0a3.73,3.73,0,0,0-.5,1.35h-4.18c-3.73,0-6.41-.65-8.05-3.69a9.78,9.78,0,0,1-2.68,4,7.79,7.79,0,0,0-1.1-.9c2-1.54,3-4.1,3.37-7.32l1.36.12a21,21,0,0,1-.43,2.4,5.42,5.42,0,0,0,3.32,3.47v-7.54h-4.47v-1.26h10.43v1.26h-4.6v3h5.33V672h-5.33Zm-6.82-8.69h-1.31v-3.89h6.75V661h1.38v2.06h6.81v3.89H260v-2.63H247.76Z"/><path class="cls-3" d="M269.22,662.83h1.72l4.81,8.34,1.41,2.72h.09c-.09-1.34-.22-2.81-.22-4.18v-6.88h1.58v13.22H276.9l-4.8-8.34L270.67,665h-.07c.07,1.33.2,2.74.2,4.12v6.94h-1.58Z"/><path class="cls-3" d="M282.21,662.83H286c3,0,4.94,1,4.94,3.89s-2,4.09-4.87,4.09h-2.17v5.24h-1.68Zm3.64,6.63c2.32,0,3.42-.85,3.42-2.74s-1.17-2.52-3.49-2.52h-1.89v5.26Z"/><path class="cls-3" d="M292.83,669.4c0-4.23,2.32-6.8,5.64-6.8s5.63,2.57,5.63,6.8-2.32,6.88-5.63,6.88S292.83,673.63,292.83,669.4Zm9.56,0c0-3.31-1.56-5.35-3.92-5.35s-3.93,2-3.93,5.35,1.55,5.42,3.93,5.42S302.39,672.7,302.39,669.4Z"/><path class="cls-3" d="M314,668.79A15.05,15.05,0,0,0,310.4,667l.7-1a15.39,15.39,0,0,1,3.57,1.66Zm1.31,2.63c-.9,1.89-2.09,4.1-3.1,5.78l-1.13-.87a52.39,52.39,0,0,0,3.22-5.78Zm-.41-7.37a14.44,14.44,0,0,0-3.5-2l.72-1A13,13,0,0,1,315.6,663Zm10.91,13.4a11.35,11.35,0,0,0-.76-1.53c-3.47.27-7.09.5-9.58.67l-.2-1.34,1.5-.07a41.92,41.92,0,0,0,2.16-5.42h-3.67v-1.28h5v-3.29h-4.1v-1.26h4.1V661h1.37v2.94h4.27v1.26h-4.27v3.29h5.11v1.28h-6.23c-.66,1.71-1.51,3.77-2.3,5.33,1.85-.09,4-.21,6.12-.36a31,31,0,0,0-1.85-2.56l1.13-.59a24.62,24.62,0,0,1,3.44,5.17Z"/><path class="cls-3" d="M337.2,661.53c0,.24,0,.53,0,.83.16,2.38,1.13,10.7,7.9,13.79a4.07,4.07,0,0,0-1,1.1c-4.64-2.19-6.62-6.8-7.49-10.4-.79,3.6-2.65,7.94-7.2,10.4a4.62,4.62,0,0,0-1.08-1c7.29-3.73,7.29-12.32,7.42-14.7Z"/><path class="cls-3" d="M347.25,675.61l-.85-1.2a20.77,20.77,0,0,0,4.61-3.53l.83,1.08A24.2,24.2,0,0,1,347.25,675.61Zm6.89-.41c.83,0,1.82-.32,1.82-1.49s-1.3-2.85-2.3-4a19.33,19.33,0,0,0-1.45-1.35l1.07-.93c.45.45.9.93,1.33,1.4,1.67,1.76,2.86,3.35,2.86,5,0,2.19-1.78,2.7-3.09,2.7a15.12,15.12,0,0,1-2.94-.29l-.2-1.48A10,10,0,0,0,354.14,675.2Zm1.82-9.92a18.21,18.21,0,0,0-3.84-2.11l.83-1a25,25,0,0,1,4.45,2.36l.32.93c-.41.36-1.44,1.16-2.1,1.62l-.9-.84C355.19,665.89,355.71,665.49,356,665.28Zm2.66,4.5,1.17-.67a21.42,21.42,0,0,1,3.17,5.62l-1.33.74A17.63,17.63,0,0,0,358.62,669.78Z"/><path class="cls-3" d="M369.21,662.85c.93,0,5.22-.15,6.17-.24a4.18,4.18,0,0,0,1-.14l.83,1c-.32.24-.68.47-1,.74-.9.69-3.34,2.78-4.75,4a7.56,7.56,0,0,1,2.5-.38c3,0,5.14,1.8,5.14,4.23,0,2.9-2.38,4.77-6.2,4.77-2.45,0-3.94-1.06-3.94-2.56a2.53,2.53,0,0,1,2.77-2.34,3.48,3.48,0,0,1,3.67,3.19,3.17,3.17,0,0,0,2.26-3.08c0-1.76-1.7-3.1-4-3.1-3,0-4.61,1.28-6.89,3.6l-1-1.06c1.49-1.22,3.8-3.15,4.84-4s3.26-2.72,4.18-3.53l-5.51.25c-.4,0-.81.06-1.19.11l-.05-1.49A11.6,11.6,0,0,0,369.21,662.85Zm3.42,12.71a9.52,9.52,0,0,0,1.46-.11,2.47,2.47,0,0,0-2.42-2.45,1.32,1.32,0,0,0-1.44,1.16C370.23,675,371.22,675.56,372.63,675.56Z"/><path class="cls-3" d="M390.63,661.88l1.53-.2a21.45,21.45,0,0,0,.83,3.08,22.59,22.59,0,0,0,4-.89l.16,1.41a28.47,28.47,0,0,1-3.72.74,19.93,19.93,0,0,0,2,3.71c.26.34.53.64.8.95l-.74,1a40.48,40.48,0,0,0-4.34-.49l.11-1.2c1,.09,2.34.19,3,.27a23.36,23.36,0,0,1-2.18-4.11,45.74,45.74,0,0,1-7.57,0l0-1.44a37.47,37.47,0,0,0,7.11.22c-.22-.67-.4-1.21-.52-1.62S390.79,662.34,390.63,661.88Zm-4.21,11c0,1.71,1.56,2.47,4.23,2.49a21,21,0,0,0,4.64-.45l-.07,1.44a27.13,27.13,0,0,1-4.65.39c-3.42,0-5.58-1.26-5.58-3.71a7,7,0,0,1,.87-3l1.4.33A4.62,4.62,0,0,0,386.42,672.93Z"/><path class="cls-3" d="M407.6,667.39c1.69-1,3.64-2,4.63-2.53a10.15,10.15,0,0,0,1.28-.84l.79,1.28c-.41.25-.86.48-1.39.75a59.87,59.87,0,0,0-5.47,3c-1.67,1.08-2.68,2.27-2.68,3.64s1.42,2.43,4.26,2.43a26.88,26.88,0,0,0,5.77-.61v1.6a36,36,0,0,1-5.69.45c-3.39,0-5.84-1-5.84-3.71,0-1.85,1.19-3.31,3.12-4.66a58.65,58.65,0,0,1-2.61-5.55l1.42-.59A39.52,39.52,0,0,0,407.6,667.39Z"/><path class="cls-3" d="M434.12,661.73v15.68H432.7v-1H420.54v1h-1.35V661.73Zm-1.42,13.45V663.06H420.54v12.12Zm-2.62-9.33v6.5h-6.95v-6.5Zm-1.31,1.21h-4.36v4.11h4.36Z"/><path class="cls-3" d="M439.91,661h1.21v7.19c0,3.54-.34,6.8-3,9.23a4.8,4.8,0,0,0-1-.86c2.48-2.21,2.75-5.17,2.75-8.37Zm-1.64,10.54h-1.11v-8.47h1.11Zm14.23-3.66v2.92h-1.25v-1.86h-3.69v1.64h3.66v4.25c0,.6-.09.92-.52,1.12a5,5,0,0,1-1.95.21,3.59,3.59,0,0,0-.34-1.13c.65,0,1.15,0,1.33,0s.22-.07.22-.24v-3.11h-2.4v5.72H446.3v-5.72h-2.21v4.54h-1.21v-5.44h-1.2v-2.92Zm-1.35-1h-8.48v-1h7.22v-1.19h-6.58v-1h6.58v-1.17h-7v-1h8.27Zm-4.85,2.07h-3.42v1.64h3.42Z"/><path class="cls-3" d="M468.61,668.3a12.71,12.71,0,0,1-4.7,5.8,20.1,20.1,0,0,0,7,2.11,5.13,5.13,0,0,0-.84,1.26,19.69,19.69,0,0,1-7.44-2.56,24,24,0,0,1-7.47,2.5,4.82,4.82,0,0,0-.72-1.26,23.89,23.89,0,0,0,7-2.08,13.22,13.22,0,0,1-3.72-4.58l1.08-.38h-2.85V667.8h6V665H455.1v-1.3h6.83V661h1.36v2.74h6.86V665h-6.86v2.77h4.15l.25,0Zm-9.69.81a11.28,11.28,0,0,0,3.74,4.24,10.78,10.78,0,0,0,4-4.24Z"/><path class="cls-3" d="M476,671.09v4.78c0,.73-.17,1.09-.63,1.31a5,5,0,0,1-2.23.25,5.32,5.32,0,0,0-.39-1.24c.77,0,1.49,0,1.69,0s.3-.05.3-.32v-4.36c-.77.25-1.49.48-2.16.68l-.21-1.29c.66-.18,1.47-.44,2.37-.71v-4.35h-2.23v-1.25h2.23V661H476v3.6h1.91v1.25H476v4l1.88-.6.18,1.21Zm11.55-.12a9.15,9.15,0,0,1-2.47,4,13.1,13.1,0,0,0,4,1.36,5,5,0,0,0-.81,1.14,12.42,12.42,0,0,1-4.22-1.69,12,12,0,0,1-3.92,1.67,4.28,4.28,0,0,0-.76-1,12.35,12.35,0,0,0,3.67-1.4,9.42,9.42,0,0,1-2.1-2.35,9.37,9.37,0,0,1-3.55,4.7,3.87,3.87,0,0,0-.92-.93c2.58-1.6,3.55-4.4,4-7H478v-1.13h2.63c.06-.49.11-1,.15-1.42h-2.36v-1.1h6.39a23.78,23.78,0,0,0,1.66-3l1.26.42c-.51.86-1.1,1.83-1.66,2.61h2.18v1.1H482c0,.45-.09.93-.14,1.42h6.84v1.13h-7c-.06.4-.15.81-.24,1.21h5l.23,0Zm.39-8.86a58.47,58.47,0,0,1-9.47.92,4.68,4.68,0,0,0-.32-1,58,58,0,0,0,9-.88Zm-8,1.15a17.2,17.2,0,0,1,.9,2.18l-1.09.38a16.41,16.41,0,0,0-.85-2.29Zm1.7,8.46a8.15,8.15,0,0,0,2.39,2.62,6.9,6.9,0,0,0,1.91-2.62Zm.95-6.12a18.55,18.55,0,0,0-.47-2.45l1.06-.18a23.91,23.91,0,0,1,.56,2.38Z"/><path class="cls-3" d="M495.15,668.27l-4.16.86-.27-1.49c.81-.11,2.53-.42,4.43-.78v-3.08a10,10,0,0,0-.12-1.65h1.71a10.19,10.19,0,0,0-.13,1.65v2.81c3.06-.59,6.21-1.24,7-1.4a3.33,3.33,0,0,0,.95-.33l1.07.83c-.13.18-.31.49-.44.72a26.76,26.76,0,0,1-3.69,5.24l-1.26-.75a17.11,17.11,0,0,0,3.21-4.29L496.61,668v5.37c0,1.24.47,1.63,2.61,1.63a29.1,29.1,0,0,0,5.62-.52l-.07,1.55a39.27,39.27,0,0,1-5.66.36c-3.34,0-4-.86-4-2.65Z"/><path class="cls-3" d="M517.38,672.28a16.94,16.94,0,0,0,6-6.62l.86,1.53a17.94,17.94,0,0,1-6,6.41,19.86,19.86,0,0,1-7.07,2.79l-1-1.48A18.49,18.49,0,0,0,517.38,672.28Zm-1.06-5.7-1.13,1.13A36.51,36.51,0,0,0,510.7,664l1-1.1A38.63,38.63,0,0,1,516.32,666.58Z"/><path class="cls-3" d="M534.48,663.32a5.26,5.26,0,0,1-.37.64H539a3.49,3.49,0,0,0,1.18-.18l1.19.72a6.61,6.61,0,0,0-.43,1,18.24,18.24,0,0,1-2.81,5.6c.76.55,1.48,1.11,2,1.58l-1.06,1.24c-.54-.48-1.22-1-2-1.64a17.08,17.08,0,0,1-6.86,4.58l-1.3-1.12a15.67,15.67,0,0,0,7-4.34c-1.3-.93-2.66-1.87-3.82-2.59l1-1c1.18.68,2.53,1.55,3.8,2.43a15.22,15.22,0,0,0,2.44-5h-6.08a19.6,19.6,0,0,1-4.77,4.77l-1.21-.93a16.53,16.53,0,0,0,5.78-6.27,6.46,6.46,0,0,0,.58-1.42l1.63.52C535,662.38,534.66,663,534.48,663.32Z"/><path class="cls-3" d="M548,668.34h9.87a19,19,0,0,0,1.94-.09V670c-.36,0-1.11-.09-1.92-.09H548c-1,0-1.94,0-2.5.09v-1.76C546,668.29,547,668.34,548,668.34Z"/><path class="cls-3" d="M568.18,665.06H562.4V664h5.78Zm-4,11.31v.85h-1.08v-6h4.59v5.19Zm3.51-8.91h-4.57V666.4h4.57Zm-4.57,1.31h4.57v1.08h-4.57Zm4.54-6.08h-4.43v-1.08h4.43Zm-3.48,9.59v3h2.39v-3Zm14.12,3.44c0,.79-.17,1.23-.67,1.44a8.12,8.12,0,0,1-2.72.24,6.17,6.17,0,0,0-.39-1.32,20.53,20.53,0,0,0,2.19,0c.27,0,.36-.07.36-.38V662.9H570.3v5.24c0,2.79-.19,6.75-1.69,9.38a5.1,5.1,0,0,0-1-.74c1.4-2.48,1.51-6,1.51-8.64v-6.41h9.24Zm-5.24-8.17v-1.73h-1.86v-1h1.86v-1.55h1.09v1.55h1.91v1h-1.91v1.73h2.18v1h-5.27v-1Zm-.72,7v.7h-1V670H576v4.63Zm0-3.6v2.57H575V671Z"/><path class="cls-3" d="M581.79,670.25c1-1,2.46-3,3.53-4.29s2-1.4,3.18-.2,2.47,2.9,3.6,4.13,2.88,3.08,4.5,4.54l-1.15,1.29c-1.37-1.29-3-3.17-4.21-4.57s-2.56-3-3.39-4-1.11-.72-1.72,0c-.85,1-2.34,3-3.26,4.12-.36.49-.78,1.07-1.07,1.44l-1.31-1.36A10.5,10.5,0,0,0,581.79,670.25Zm12-3.48-1.06.47a21.83,21.83,0,0,0-1.67-2.9l1-.45A28.46,28.46,0,0,1,593.81,666.77Zm2.38-1-1,.51a19.91,19.91,0,0,0-1.74-2.87l1-.47A23.34,23.34,0,0,1,596.19,665.8Z"/><path class="cls-3" d="M613.74,660.63l1.08.56a11.26,11.26,0,0,0,0,16l-1.08.55a12,12,0,0,1,0-17.14Z"/><path class="cls-3" d="M616.44,675.07c3.87-3.85,6-6.15,6-8.26a2.27,2.27,0,0,0-2.44-2.5,3.73,3.73,0,0,0-2.73,1.53l-1-.92a5.06,5.06,0,0,1,3.89-1.95,3.56,3.56,0,0,1,3.84,3.77c0,2.41-2.2,4.8-5.24,8,.68,0,1.48-.13,2.16-.13h3.73v1.43h-8.3Z"/><path class="cls-3" d="M626.52,669.58c0-4.3,1.56-6.61,4.12-6.61s4.1,2.33,4.1,6.61-1.54,6.7-4.1,6.7S626.52,673.89,626.52,669.58Zm6.62,0c0-3.76-1-5.29-2.5-5.29s-2.52,1.53-2.52,5.29,1,5.39,2.52,5.39S633.14,673.35,633.14,669.58Z"/><path class="cls-3" d="M636.42,675.07c3.87-3.85,6.05-6.15,6.05-8.26a2.26,2.26,0,0,0-2.43-2.5,3.75,3.75,0,0,0-2.74,1.53l-1-.92a5.06,5.06,0,0,1,3.89-1.95,3.56,3.56,0,0,1,3.84,3.77c0,2.41-2.2,4.8-5.24,8,.68,0,1.48-.13,2.16-.13h3.73v1.43h-8.3Z"/><path class="cls-3" d="M647.2,674.68h2.93v-9.47h-2.34v-1.07a7.51,7.51,0,0,0,2.74-.93h1.26v11.47h2.65v1.37H647.2Z"/><path class="cls-3" d="M677.21,673.31h-6.52v4.12h-1.35v-4.12H661V672h3v-4.82h5.36v-2.74H665a16.74,16.74,0,0,1-2.74,3.55,8,8,0,0,0-1.15-.85,15.33,15.33,0,0,0,4-6.21l1.35.32c-.25.63-.54,1.28-.83,1.89h10.73v1.3h-5.69v2.74H676v1.26h-5.28V672h6.52Zm-7.87-1.3v-3.56h-4V672Z"/><path class="cls-3" d="M684.19,674.68h2.93v-9.47h-2.34v-1.07a7.51,7.51,0,0,0,2.74-.93h1.26v11.47h2.65v1.37h-7.24Z"/><path class="cls-3" d="M693.48,669.58c0-4.3,1.56-6.61,4.12-6.61s4.11,2.33,4.11,6.61-1.55,6.7-4.11,6.7S693.48,673.89,693.48,669.58Zm6.62,0c0-3.76-1-5.29-2.5-5.29s-2.52,1.53-2.52,5.29,1,5.39,2.52,5.39S700.1,673.35,700.1,669.58Z"/><path class="cls-3" d="M721.81,675.47c0,.94-.27,1.4-.93,1.62a14.76,14.76,0,0,1-3.8.25,6,6,0,0,0-.56-1.38c1.49,0,2.94,0,3.35,0s.56-.14.56-.54v-3.6h-8.65a10.16,10.16,0,0,1-3.09,5.6,5.06,5.06,0,0,0-1-1c2.86-2.52,3.15-6.18,3.15-9v-5.51h11Zm-1.38-4.93v-3H712.2a23.44,23.44,0,0,1-.2,3Zm-8.23-7.3v3h8.23v-3Z"/><path class="cls-3" d="M727,677.77l-1.08-.55a11.26,11.26,0,0,0,0-16l1.08-.56a12,12,0,0,1,0,17.14Z"/><path class="cls-3" d="M293.91,686.81v1.25h-4.36v10.4h-1.33V686.81Z"/><path class="cls-3" d="M304.33,690.7c-.2.58-.38,1.15-.6,1.66h5.73v11.07h-1.37v-1h-9.18v1h-1.32V692.36h4.72c.16-.52.32-1.14.43-1.66h-7.2v-1.24h4.65a14.21,14.21,0,0,0-1.53-2l1.17-.51a10.43,10.43,0,0,1,1.69,2.13l-.78.41h4.76a21,21,0,0,0,1.64-2.5l1.45.38a17.8,17.8,0,0,1-1.6,2.12h4.54v1.24Zm3.76,2.85h-9.18v1.78h9.18Zm0,2.86h-9.18v1.84h9.18Zm0,4.81v-1.91h-9.18v1.91Z"/><path class="cls-3" d="M322.88,688a21.16,21.16,0,0,1-2.61,4.44h2.33v1.19h-3.3a20.18,20.18,0,0,1-1.71,1.75h4.2v7.74h-1.28v-.81h-4v1.06h-1.25v-6.17c-.45.3-.93.59-1.42.86a8.15,8.15,0,0,0-.85-1.1,17.49,17.49,0,0,0,4.67-3.33h-4.27v-1.19h3.56v-2.16h-2.75v-1.19h2.75v-1.92h1.27v1.92h2.23v1a19.91,19.91,0,0,0,1.26-2.43Zm-2.37,8.48h-4v1.74h4Zm0,4.71v-1.89h-4v1.89Zm-1.78-8.75a21.21,21.21,0,0,0,1.56-2.16h-2.1v2.16Zm11.07-3.83c-.76,1.69-1.75,3.74-2.61,5.4,1.89,1.67,2.38,3.08,2.38,4.36a2.55,2.55,0,0,1-.92,2.34,2.64,2.64,0,0,1-1.21.41,9.24,9.24,0,0,1-1.67,0,3.1,3.1,0,0,0-.4-1.31,9,9,0,0,0,1.53,0,2.26,2.26,0,0,0,.85-.21,1.49,1.49,0,0,0,.52-1.41c0-1.13-.56-2.48-2.45-4.05.77-1.53,1.62-3.44,2.2-4.88h-3.35v14.15h-1.32V688h5.28l.21,0Z"/><path class="cls-3" d="M347,687.77v15.64h-1.32v-.75H333.32v.75H332V687.77Zm-1.32,13.68V689H333.32v12.46Zm-3.25-6.8a6.15,6.15,0,0,0,2.61,2.17,3.44,3.44,0,0,0-.72.87,7.32,7.32,0,0,1-3.05-3h-3.44a10.62,10.62,0,0,1-.66.91h4.64v2.76h-4.26v1.1c0,.39.16.47,1,.47h3.1c.61,0,.74-.17.79-1.27a2.86,2.86,0,0,0,1,.35c-.11,1.47-.47,1.8-1.64,1.8h-3.3c-1.6,0-2.05-.24-2.05-1.33v-1.93h4.3v-1.14h-3.85v-.48a10.1,10.1,0,0,1-2.25,1.85,5,5,0,0,0-.79-.81,8.55,8.55,0,0,0,2.7-2.28h-2.31v-.89h2.9a8.22,8.22,0,0,0,.61-1.18h-2.82v-.87h1.42a5.59,5.59,0,0,0-.92-1.75l.9-.3a5.52,5.52,0,0,1,1,1.76l-.82.29h1.6a16.89,16.89,0,0,0,.56-2.23l1.08.14c-.15.74-.31,1.44-.51,2.09h2.74l-.68-.23a16.55,16.55,0,0,0,1.06-1.91l1,.3a15.47,15.47,0,0,1-1.2,1.84h2.09v.87h-2.85a10.52,10.52,0,0,0,.52,1.18h2.92v.89Zm-1.59-.89a8.73,8.73,0,0,1-.45-1.18h-1.49c-.17.41-.35.81-.54,1.18Z"/><path class="cls-3" d="M358.11,702.6l-.85-1.33a12.62,12.62,0,0,0,1.55-.23,5.44,5.44,0,0,0,4.58-5.35,5,5,0,0,0-4.81-5.22,36.71,36.71,0,0,1-1.08,5.18c-1.1,3.71-2.52,5.6-4.2,5.6s-3.2-1.83-3.2-4.8a7.67,7.67,0,0,1,7.87-7.33,6.52,6.52,0,0,1,6.89,6.62C364.86,699.53,362.38,702.05,358.11,702.6Zm-4.75-3c.84,0,1.8-1.21,2.72-4.25a28.85,28.85,0,0,0,1-4.86,6.28,6.28,0,0,0-5.58,5.83C351.5,698.59,352.55,699.6,353.36,699.6Z"/><path class="cls-3" d="M370.89,697.76c.67-.29,1.35-.59,2.05-.86l.27,1.18c-1.91.89-3.94,1.79-5.53,2.49l-.52-1.33c.67-.24,1.53-.58,2.47-1v-5.7h-2.31v-1.28h2.31v-4.09h1.26v4.09H373v1.28h-2.11Zm10.37,4c1.05,0,1.23-.48,1.35-2.56a3.34,3.34,0,0,0,1.21.53c-.22,2.45-.63,3.24-2.52,3.24h-4.41c-2,0-2.65-.49-2.65-2.41v-5.68l-1.42.6-.53-1.17,1.95-.81v-4.9h1.28V693l2.41-1v-5h1.28v4.46l2.37-1,.29-.25.25-.2.94.36-.07.25a65.35,65.35,0,0,1-.18,6.74,1.21,1.21,0,0,1-.95,1.18,7.5,7.5,0,0,1-1.7.13,3.83,3.83,0,0,0-.32-1.15c.43,0,1,0,1.2,0s.46-.08.54-.47.13-2.43.13-5.3l-2.5,1.07v6.61h-1.28v-6.07l-2.41,1v6.23c0,1,.23,1.19,1.4,1.19Z"/><path class="cls-3" d="M392.49,691.35c-.05,1-.12,2-.27,2.95h7.17s0,.44,0,.65c-.36,5.13-.72,7.11-1.42,7.83a2,2,0,0,1-1.53.6,30.07,30.07,0,0,1-3-.06,3,3,0,0,0-.47-1.29c1.28.12,2.56.12,3,.12s.67,0,.85-.19c.54-.47.88-2.24,1.18-6.4H392c-.63,3.19-2.07,6.16-5.72,7.93a4.52,4.52,0,0,0-1-1.1c5-2.23,5.49-6.9,5.71-11h-5.53v-1.28h7.26v-3.13h1.35v3.13h7.38v1.28Z"/><path class="cls-3" d="M409.32,697.9a21.88,21.88,0,0,0-1.64-2.23v7.71h-1.29v-8a19.48,19.48,0,0,1-2.61,4.72,6.37,6.37,0,0,0-.67-1.23,18.68,18.68,0,0,0,3.1-5.63h-2.76V692h2.94v-2.74c-.89.18-1.81.32-2.63.45a5.39,5.39,0,0,0-.42-1,26.85,26.85,0,0,0,5.69-1.44l.94,1a14.08,14.08,0,0,1-2.29.72v3h2.25v1.26h-2.25v1.1c.56.46,2.09,2,2.45,2.46Zm10.44-2.17c-1.53,4.52-5.33,6.71-9.65,7.7a4,4,0,0,0-.68-1.13,14.33,14.33,0,0,0,5.47-2.16,14.79,14.79,0,0,0-2.57-1.95,17.52,17.52,0,0,1-1.77,1,3.52,3.52,0,0,0-.84-.92,11.54,11.54,0,0,0,5.29-4.59,15,15,0,0,1-4.5,2.09,4.44,4.44,0,0,0-.7-1.08,13.07,13.07,0,0,0,4.35-1.91,13.45,13.45,0,0,0-2.25-1.8,16.62,16.62,0,0,1-1.56,1,3.89,3.89,0,0,0-.87-.9,10.86,10.86,0,0,0,4.58-4.09l1.33.24a9.86,9.86,0,0,1-.9,1.31h3.28l.25,0,.83.39a10.45,10.45,0,0,1-3.84,4.83l1.35.23a13,13,0,0,1-1,1.46h3.3l.25,0Zm-6.26-6.07a9.09,9.09,0,0,1-.72.66,13.16,13.16,0,0,1,2.32,1.79,8.69,8.69,0,0,0,2-2.45Zm.84,6.88a11.82,11.82,0,0,1-1,.93,12.51,12.51,0,0,1,2.59,1.91,8.76,8.76,0,0,0,2.15-2.84Z"/><path class="cls-3" d="M426.78,687.41a25.1,25.1,0,0,1-1.84,3.71v12.24h-1.26V693a17.93,17.93,0,0,1-2,2.38,8.81,8.81,0,0,0-.75-1.3,20.13,20.13,0,0,0,4.61-7.09Zm11,14.11v1.28H426.19v-1.28h5.2V697h-4.14v-1.28h4.14V691.8h-4.74v-1.26h6.14a25.06,25.06,0,0,0-3.72-2.65l.88-.95a25,25,0,0,1,4,2.72l-.77.88h4.37v1.26h-4.79v3.94H437V697h-4.27v4.5Z"/><path class="cls-3" d="M445.72,694.07a18.35,18.35,0,0,1-1.62,2.23h3.42v-1.78h1.29v1.78H454v4.5c0,.71-.14,1-.67,1.25a9.65,9.65,0,0,1-2.73.19,5.35,5.35,0,0,0-.44-1.15c1,0,1.91,0,2.17,0s.35-.07.35-.3v-3.3h-3.87v5.94h-1.29v-5.94H444v4.9h-1.31v-4.61a14.07,14.07,0,0,1-2.58,1.85,6.37,6.37,0,0,0-.88-1,14.29,14.29,0,0,0,5-4.55h-4.6v-1.19h5.32a15.46,15.46,0,0,0,.81-1.76c-1.52.45-3.06.84-4.5,1.15a8,8,0,0,0-.92-1.12,45.94,45.94,0,0,0,6.16-1.47c-1.7-.6-3.46-1.14-5-1.57l.92-.81c1.82.47,3.89,1.08,5.87,1.76a18.33,18.33,0,0,0,4.16-2.12l1.1.74a21.08,21.08,0,0,1-3.6,2,36.83,36.83,0,0,1,4.16,1.73l-1,1a42,42,0,0,0-4.83-2.05c-.58.21-1.17.39-1.76.59l.77.22a15.46,15.46,0,0,1-.81,1.76h9v1.19Z"/><path class="cls-3" d="M458.62,690h-1.35v-1.15H461V687h1.26v1.88h3.62V690h-6v3c0,.54.12.74.61.74h3.06a7.39,7.39,0,0,0,1.37-.11c0,.35.09.87.12,1.16a6.4,6.4,0,0,1-1.47.1h-3.06c-1.48,0-1.86-.5-1.86-1.9Zm14.84,11.85V703H457.59v-1.13h7.24V700.3h-5.25v-1.1h5.25v-1.55h-6v-1.13h13.56v1.13h-6.19v1.55h5.33v1.1h-5.33v1.57ZM467.53,693a5.74,5.74,0,0,1-2.12,3,2.77,2.77,0,0,0-.79-.88c2-1.46,2.3-4.07,2.39-7.56h6.18s0,.37,0,.55c-.16,4.76-.34,6.41-.79,7a1.34,1.34,0,0,1-1.05.49c-.41,0-1.11,0-1.87,0a2.6,2.6,0,0,0-.31-1.06c.73.07,1.35.07,1.62.07a.53.53,0,0,0,.55-.22,2.94,2.94,0,0,0,.34-1.37Zm4.22-1c0-.36.05-.79.09-1.26H468a12.26,12.26,0,0,1-.21,1.26Zm-3.55-3.46c0,.44-.05.85-.09,1.26h3.76l.06-1.26Z"/><path class="cls-3" d="M484.74,693.94c-.93.67-1.91,1.3-2.9,1.88h7.44v7.52h-1.37v-.5h-7.29v.57H479.3v-6.23c-1.08.53-2.19,1-3.29,1.43a7.06,7.06,0,0,0-.85-1.1,35.6,35.6,0,0,0,7.4-3.57h-7v-1.2h6.16v-2.31h-4.6v-1.19h4.6V687H483v2.25h4.45V690a21.61,21.61,0,0,0,2-2.37l1.14.61a27.5,27.5,0,0,1-4.38,4.52h5.19v1.2Zm3.17,3h-7.29v1.78h7.29Zm0,4.72V699.8h-7.29v1.87Zm-3.62-8.93a29.32,29.32,0,0,0,2.74-2.31h-4v2.31Z"/><path class="cls-3" d="M496.8,689.51a44.73,44.73,0,0,0-.9,7.26,16.35,16.35,0,0,0,.18,2.5c.29-.81.72-1.91,1-2.64l.73.57c-.43,1.26-1.09,3.1-1.27,4a3.37,3.37,0,0,0-.08.81c0,.18,0,.43,0,.63l-1.26.09a21.73,21.73,0,0,1-.69-5.69,54.36,54.36,0,0,1,.83-7.58,9.62,9.62,0,0,0,.11-1.28l1.59.13A8.72,8.72,0,0,0,496.8,689.51Zm9.09-.25c0,.49,0,1.33-.05,2.18A30.13,30.13,0,0,0,509,691v1.38a29.89,29.89,0,0,1-3.11.34c0,1.82.14,3.62.21,5.14a11.73,11.73,0,0,1,3.57,2.32l-.79,1.21a14.35,14.35,0,0,0-2.72-2.09v.38c0,1.47-.69,2.89-3.12,2.89s-3.74-1-3.74-2.57,1.35-2.72,3.71-2.72a8.09,8.09,0,0,1,1.67.16c-.05-1.38-.16-3.15-.18-4.62-.57,0-1.15,0-1.73,0-1,0-2,0-3-.13V691.4c1,.09,2,.15,3.06.15.56,0,1.13,0,1.69,0v-2.23a10.15,10.15,0,0,0-.07-1.1H506C506,688.54,505.91,688.9,505.89,689.26Zm-3.15,12c1.51,0,2-.78,2-2,0-.18,0-.4,0-.64a6.16,6.16,0,0,0-1.84-.28c-1.35,0-2.31.57-2.31,1.46S501.45,701.31,502.74,701.31Z"/><path class="cls-3" d="M517,696.07l-1.89.59v5.13c0,.76-.16,1.14-.61,1.37a6.1,6.1,0,0,1-2.38.24,5.69,5.69,0,0,0-.4-1.28c.81,0,1.55,0,1.79,0s.3-.08.3-.35v-4.73l-2.41.74-.31-1.3c.74-.18,1.7-.45,2.72-.76v-3.92h-2.41v-1.23h2.41V687h1.3v3.6h1.74v1.23h-1.74v3.55l1.73-.51Zm10.77,6.41h-8.14v.92h-1.28V693a13.84,13.84,0,0,1-1.33,1.71,9.81,9.81,0,0,0-.9-1.12,16,16,0,0,0,3.56-6.64l1.28.32a24.66,24.66,0,0,1-1.15,3.08h2.75a25.19,25.19,0,0,0,1.23-3.33l1.4.32c-.4,1-.88,2.09-1.31,3h3.58v1.21h-3.67V694H527v1.15h-3.24v2.45H527v1.17h-3.24v2.5h4Zm-5.21-10.91h-2.93V694h2.93Zm0,3.56h-2.93v2.45h2.93Zm-2.93,6.12h2.93v-2.5h-2.93Z"/><path class="cls-3" d="M536.37,691.06h-7.1V690h7.1Zm-.73,11.33h-4.35v.83H530.1v-6h5.54Zm-5.52-10h5.58v1.06h-5.58Zm0,2.37h5.58v1.08h-5.58Zm5.58-6.08h-5.49v-1.08h5.49Zm-4.41,9.59v3h3.15v-3Zm14.64-3.87h-4v9h-1.33v-9h-4.21V693.1h4.21V687h1.33v6.07h4Z"/><path class="cls-3" d="M551.54,700.48l.83-1.08a4.35,4.35,0,0,0,3.27,1.51,2.41,2.41,0,0,0,2.69-2.36c0-1.53-1.07-2.54-4.11-2.54v-1.26c2.72,0,3.66-1.06,3.66-2.41a2,2,0,0,0-2.24-2,3.86,3.86,0,0,0-2.73,1.29l-.89-1a5.21,5.21,0,0,1,3.69-1.61c2.22,0,3.84,1.17,3.84,3.26a3.17,3.17,0,0,1-2.34,3v.07a3.36,3.36,0,0,1,2.79,3.27c0,2.29-1.89,3.66-4.23,3.66A5.44,5.44,0,0,1,551.54,700.48Z"/><path class="cls-3" d="M561.89,695.58c0-4.3,1.56-6.61,4.12-6.61s4.11,2.33,4.11,6.61-1.55,6.7-4.11,6.7S561.89,699.89,561.89,695.58Zm6.62,0c0-3.76-1-5.29-2.5-5.29s-2.52,1.53-2.52,5.29,1,5.39,2.52,5.39S568.51,699.35,568.51,695.58Z"/><path class="cls-3" d="M572,700.93l.92-1a2.71,2.71,0,0,0,2.1,1c1.81,0,3.34-1.4,3.41-5.51a4.1,4.1,0,0,1-3,1.66c-2.23,0-3.67-1.35-3.67-4a3.87,3.87,0,0,1,3.78-4.11c2.54,0,4.43,2.06,4.43,6.18,0,5.15-2.33,7.13-4.88,7.13A4,4,0,0,1,572,700.93Zm3.69-5.1a3.47,3.47,0,0,0,2.7-1.74c-.22-2.49-1.22-3.82-2.86-3.82-1.26,0-2.23,1.12-2.23,2.81S574.13,695.83,575.73,695.83Z"/><path class="cls-3" d="M592.9,689.64c0,1.19-.09,2.43-.21,3.67h8s0,.47,0,.65c-.32,5.8-.61,7.94-1.31,8.7a2.07,2.07,0,0,1-1.53.65,26.15,26.15,0,0,1-3.17-.08,2.75,2.75,0,0,0-.47-1.31,31,31,0,0,0,3.13.14,1.07,1.07,0,0,0,.85-.23c.54-.49.85-2.47,1.1-7.22h-6.73c-.53,3.53-1.86,6.88-5.41,8.86a3.86,3.86,0,0,0-1-1.05c5-2.64,5.24-8.19,5.35-12.78h-4.84v-1.3h15.66v1.3Z"/><path class="cls-3" d="M613.05,687.53c0,.24,0,.53,0,.83.16,2.38,1.13,10.7,7.91,13.79a4.12,4.12,0,0,0-1,1.1c-4.64-2.19-6.62-6.8-7.49-10.4-.79,3.6-2.64,7.94-7.2,10.4a4.43,4.43,0,0,0-1.08-1c7.29-3.73,7.29-12.32,7.42-14.7Z"/><path class="cls-3" d="M622.1,703.59v-1.24h4.36V691.94h1.33v11.65Z"/><path class="cls-3" d="M649.1,689.69c0,.49,0,1.14,0,1.84,1.42,0,3.71-.13,5.33-.32l.05,1.35c-1.6.16-3.9.27-5.38.29V693c0,1.19.09,2.93.18,4.5a14.34,14.34,0,0,1,5.6,3.06l-.86,1.37a12.88,12.88,0,0,0-4.69-3c0,.47,0,.88,0,1.21,0,1.47-.9,2.73-3.29,2.73s-4.33-.79-4.33-2.84c0-1.62,1.43-2.95,4.54-2.95a11,11,0,0,1,1.53.1c-.07-1.45-.14-3.11-.14-4.19s0-2.52,0-3.3a9.19,9.19,0,0,0-.14-1.78h1.71C649.17,688.29,649.12,689.15,649.1,689.69Zm-3.17,11.83c1.32,0,2-.61,2-1.85,0-.29,0-.69,0-1.15a8.06,8.06,0,0,0-1.77-.18c-1.85,0-2.92.64-2.92,1.64S644.2,701.52,645.93,701.52Z"/><path class="cls-3" d="M662.74,692.85c.74-1.84,2.61-4.09,4.9-4.09s4.11,2.39,4.11,6.17c0,5-3.14,7.21-7.6,8l-.85-1.3c3.91-.58,7-2.18,7-6.7,0-2.84-1-4.9-2.86-4.9-2.25,0-4.34,3.28-4.56,5.64a8.29,8.29,0,0,0,0,2.21l-1.39.11a21.77,21.77,0,0,1-.2-2.86,46.91,46.91,0,0,1,.56-5.82c.07-.54.11-1.06.14-1.54l1.59.05A33.21,33.21,0,0,0,662.74,692.85Z"/><path class="cls-4" d="M351.3,315.81a43.42,43.42,0,0,1-2.63,9.31,32.3,32.3,0,0,1,3.3,5.18l-3,2.6a30,30,0,0,0-2.17-3.94,21.58,21.58,0,0,1-6.56,6.91,16.53,16.53,0,0,0-2.56-3,17.82,17.82,0,0,0,6.81-7.27c-1.69-2.27-3.58-4.54-5.34-6.49l2.72-2.15c1.37,1.47,2.81,3.11,4.22,4.8a37.5,37.5,0,0,0,1.54-6.46ZM367.81,317h-3.42v14.4c0,2.15-.39,3.27-1.6,3.87s-3.11.84-5.76.84a15.93,15.93,0,0,0-1.22-4.1c1.79.1,3.52.06,4.06.06s.77-.16.77-.67V317h-8v-2.3H338.53v-3.52h5.57v-4.9h3.65v4.9h5.92v2.17h7v-7.1h3.75v7.1h3.42Zm-12.48,2.53a25.1,25.1,0,0,1,3.55,6.75l-3.29,1.7a26.74,26.74,0,0,0-3.3-7Z"/><path class="cls-4" d="M386.66,311.65c-.29,1-.61,2-.87,2.88H398v21.6h-3.87V334.5H375.62v1.63h-3.68v-21.6h9.85c.2-.93.39-1.92.52-2.88H370.63v-3.59h28.8v3.59Zm-11,19.36h3.3v-13h-3.3Zm11.58-13h-4.89v2.21h4.89Zm0,5.18h-4.89v2.43h4.89ZM382.31,331h4.89v-2.37h-4.89Zm11.77-13h-3.45v13h3.45Z"/><path class="cls-4" d="M406.31,311.23c2.69-.22,8-.7,13.82-1.18,3.3-.29,6.78-.48,9.06-.58l0,4.1A32.79,32.79,0,0,0,423,314a9.72,9.72,0,0,0-6.78,9c0,5.28,4.93,7.16,10.37,7.45l-1.51,4.38c-6.72-.44-13.05-4-13.05-11a12.81,12.81,0,0,1,4.76-9.89c-3,.32-9.53,1-13.24,1.83l-.42-4.39C404.45,311.36,405.7,311.3,406.31,311.23Zm20.89,9.83-2.43,1.08a24.27,24.27,0,0,0-2.5-4.44l2.37-1A40.73,40.73,0,0,1,427.2,321.06Zm3.71-1.57-2.4,1.15a28.14,28.14,0,0,0-2.62-4.32l2.34-1.09A47.13,47.13,0,0,1,430.91,319.49Z"/><path class="cls-4" d="M450.43,334.85,448,331a25.26,25.26,0,0,0,3-.51c4.1-1,7.3-3.91,7.3-8.58,0-4.41-2.4-7.71-6.72-8.45a66.48,66.48,0,0,1-1.92,8.68c-1.92,6.46-4.67,10.43-8.16,10.43s-6.5-3.91-6.5-9.31c0-7.4,6.4-13.7,14.69-13.7,7.93,0,12.93,5.5,12.93,12.48C462.63,328.83,458.5,333.6,450.43,334.85Zm-8.79-7.17c1.34,0,2.59-2,3.9-6.34a48.13,48.13,0,0,0,1.69-7.74,10.08,10.08,0,0,0-8.12,9.28C439.11,326.11,440.39,327.68,441.64,327.68Z"/><path class="cls-4" d="M474.72,318.34c1.12,1.21,3.84,4.51,4.48,5.31l-2.17,3.1c-.48-1-1.41-2.53-2.31-4V336.1h-3.64V323.46a27.6,27.6,0,0,1-3.62,7.2,18.51,18.51,0,0,0-1.79-3.59c2.08-2.53,3.93-6.88,5-10.69H466.5V312.8h4.58v-6.56h3.64v6.56h4v3.58h-4ZM494.85,308v27.68H491V334h-7.52v1.82h-3.65V308Zm-11.36,3.58v4H491v-4Zm0,7.39V323H491v-4.07ZM491,330.56v-4.1h-7.52v4.1Z"/><path class="cls-4" d="M510.18,314.53H498v-3h12.16Zm-1,19.9h-6.53v1.25h-3.2V324.77h9.73Zm0-15.55h-9.6V316h9.6Zm-9.6,1.47h9.6v2.85h-9.6ZM509,310.11h-9.41v-2.88H509Zm-6.4,17.67v3.68h3.29v-3.68Zm18.91-.45c.86,1.95,2.78,4.19,6.56,5.6a29.5,29.5,0,0,0-2.18,3.23,11.85,11.85,0,0,1-6.91-7c-.64,2-3.2,5.44-7.62,7a15.38,15.38,0,0,0-2.07-3.1c6.11-2.15,7.74-6.34,7.74-8.48v-4.84h3.87v4.84a6.83,6.83,0,0,0,.61,2.68,35.44,35.44,0,0,0,2.53-5.53l3.74,1.15a60.48,60.48,0,0,1-3.36,5.5Zm-12.07.25a10.21,10.21,0,0,0,2.79-5.63l3.33.67a12.21,12.21,0,0,1-3,6.53Zm15.81-6.49a47.25,47.25,0,0,0-6.4-4.64c-1.31,2.11-3.39,3.71-6.84,4.89a9.48,9.48,0,0,0-2.12-3c6.66-2.08,7.17-5.73,7.43-12.07H521a34.22,34.22,0,0,1-.8,7,66.18,66.18,0,0,1,7.58,5Zm-9.53-12.32a11.47,11.47,0,0,1-2.53,5.92l-3-1.28a10.3,10.3,0,0,0,2.4-5.28Zm11.77.32c-1,1.85-2.21,3.81-3.1,5.15l-2.82-1.09a28.51,28.51,0,0,0,2.31-5.21Z"/><path class="cls-4" d="M52.61,365.41v2.46h5.57a7.92,7.92,0,0,0,2.66-.35l2.78,1.7a20.81,20.81,0,0,0-.64,2.56,29.61,29.61,0,0,1-3,9.05,20.32,20.32,0,0,1-13,9.6l-3.33-3.84a24.81,24.81,0,0,0,4.51-1.25,15.7,15.7,0,0,0,7.27-5.47,18.91,18.91,0,0,0,2.84-8.22H42.37v4.67c0,.74,0,1.73.1,2.37H38.05a23.43,23.43,0,0,0,.16-2.69v-5.53a20.19,20.19,0,0,0-.16-2.76,26.24,26.24,0,0,0,3.27.16h6.84v-2.46a16,16,0,0,0-.25-2.94h4.93A23.27,23.27,0,0,0,52.61,365.41Z"/><path class="cls-4" d="M75.36,371.43H90a23.31,23.31,0,0,0,2.5-.16v4c-.8-.07-1.76-.13-2.5-.13H84.55v10.3h7c.87,0,1.76-.13,2.44-.19v4.19a16.69,16.69,0,0,0-2.44-.16H73.83a18.49,18.49,0,0,0-2.62.16v-4.19a23.59,23.59,0,0,0,2.62.19h6.53v-10.3h-5c-.67,0-1.82.06-2.52.13v-4A17.77,17.77,0,0,0,75.36,371.43Z"/><path class="cls-4" d="M125.28,365.86l-1.18.48,2.05,1.34a10.55,10.55,0,0,0-.71,2.21c-.76,3.13-2.14,8.09-4.83,11.65a25.56,25.56,0,0,1-12.86,8.86l-3.49-3.84c6.34-1.47,9.95-4.26,12.54-7.52a20.09,20.09,0,0,0,3.75-9H105.67c-1.47,0-3,.06-3.81.13v-4.52a35.09,35.09,0,0,0,3.81.26h14.81a14.4,14.4,0,0,0,1.51-.06c-.55-1.06-1.19-2.18-1.79-3.11l2.62-1.09A42.1,42.1,0,0,1,125.28,365.86Zm4.58-.8-2.66,1.15a39.59,39.59,0,0,0-2.56-4.32l2.66-1.06C128.1,362,129.25,363.94,129.86,365.06Z"/><path class="cls-4" d="M144.84,390.62l-3.43-3.23c6.18-2.14,8.9-4.89,8.9-12.77v-1.21h-7.59v4.35c0,1.41.1,2.72.13,3.36h-4.48a25.25,25.25,0,0,0,.19-3.36v-4.35h-2.72c-1.59,0-2.75.06-3.45.13v-4.35a21.74,21.74,0,0,0,3.45.28h2.72v-3.16a28.41,28.41,0,0,0-.19-2.88h4.55a18.68,18.68,0,0,0-.2,2.88v3.16h7.59v-3.36a22,22,0,0,0-.19-3h4.57a21.06,21.06,0,0,0-.22,3v3.36h2.37a18.93,18.93,0,0,0,3.51-.22v4.25c-.7-.06-1.82-.09-3.51-.09h-2.37v1C154.47,382.4,152.55,387.23,144.84,390.62Z"/><path class="cls-4" d="M178.5,370.43a40.63,40.63,0,0,0,9-7.77L191,366a58.45,58.45,0,0,1-8.61,6.95v12.92a22.39,22.39,0,0,0,.29,4.2H177.6a35.36,35.36,0,0,0,.23-4.2V375.58a63.86,63.86,0,0,1-11.3,4.61l-2-4A51.31,51.31,0,0,0,178.5,370.43Z"/><path class="cls-4" d="M204.58,367.14a22.62,22.62,0,0,0-.32-3.84h5a34.33,34.33,0,0,0-.29,3.84v4.73a104.55,104.55,0,0,1,13.38,5l-1.82,4.42A91.65,91.65,0,0,0,209,376.48v9.06c0,.92.16,3.16.29,4.48h-5a35.52,35.52,0,0,0,.32-4.48Z"/><path class="cls-4" d="M230.92,373.19c.92-.39,1.92-.8,2.88-1.22-.45-1-.93-1.89-1.41-2.72a28.34,28.34,0,0,0-1.89-2.82l4.16-1.6c.29.58.93,1.89,1.28,2.5.48.93,1,1.95,1.5,3,2-.86,3.91-1.66,5.76-2.27a52.29,52.29,0,0,0-4.41-4.1l2.94-2.05a51.24,51.24,0,0,1,4.64,4.1l-2.53,1.86a16.35,16.35,0,0,1,4.61-.77c5,0,7.94,3,7.94,6.72,0,4.48-3.07,7.32-8,7.32a15.72,15.72,0,0,1-4.93-.89l.1-4a12.23,12.23,0,0,0,4.45,1.08c2.4,0,4.16-1.31,4.16-3.61,0-1.63-1.44-2.94-3.84-2.94s-6,1.31-9.41,2.88c.32.67.61,1.34.89,2,1.51,3.49,4,10.33,5,13.92l-4.39,1.15a99.11,99.11,0,0,0-4.28-13.31c-.29-.67-.58-1.35-.87-2-2.3,1.16-4.32,2.24-5.69,2.85l-1.89-4.06A28,28,0,0,0,230.92,373.19Z"/><path class="cls-4" d="M267.14,385.6l2.72-3.26a9.37,9.37,0,0,0,6,2.62c2.46,0,3.77-1.06,3.77-2.72s-1.44-2.3-3.55-3.2l-3.17-1.34c-2.4-1-4.8-2.91-4.8-6.37,0-3.87,3.39-6.85,8.19-6.85a10.52,10.52,0,0,1,7.43,3l-2.4,3a7.55,7.55,0,0,0-5-1.95c-2.08,0-3.39.92-3.39,2.49s1.67,2.31,3.68,3.11l3.11,1.31c2.88,1.18,4.76,3,4.76,6.43,0,3.87-3.23,7.17-8.7,7.17A12.6,12.6,0,0,1,267.14,385.6Z"/><path class="cls-4" d="M288.68,364.9h4.83l6.88,12.64,2.37,5.12h.16c-.23-2.47-.61-5.6-.61-8.29V364.9h4.48v23.71H302l-6.85-12.67-2.4-5.09h-.16c.22,2.56.58,5.53.58,8.25v9.51h-4.48Z"/><path class="cls-4" d="M311.08,385.6l2.72-3.26a9.32,9.32,0,0,0,6,2.62c2.47,0,3.78-1.06,3.78-2.72s-1.44-2.3-3.55-3.2l-3.17-1.34c-2.4-1-4.8-2.91-4.8-6.37,0-3.87,3.39-6.85,8.19-6.85a10.51,10.51,0,0,1,7.42,3l-2.4,3a7.53,7.53,0,0,0-5-1.95c-2.08,0-3.39.92-3.39,2.49s1.66,2.31,3.68,3.11l3.1,1.31c2.88,1.18,4.77,3,4.77,6.43,0,3.87-3.23,7.17-8.7,7.17A12.6,12.6,0,0,1,311.08,385.6Z"/><path class="cls-4" d="M342.31,366.5c2.69-.23,8-.71,13.82-1.19,3.3-.28,6.78-.48,9.06-.57l0,4.09a34.55,34.55,0,0,0-6.18.45,9.73,9.73,0,0,0-6.78,9c0,5.28,4.93,7.17,10.37,7.46l-1.51,4.38c-6.72-.45-13.05-4-13.05-11a12.81,12.81,0,0,1,4.76-9.88c-3,.32-9.53,1-13.24,1.82l-.42-4.38C340.45,366.63,341.7,366.56,342.31,366.5Zm20.89,9.82-2.43,1.09a24.36,24.36,0,0,0-2.5-4.45l2.37-1A39.64,39.64,0,0,1,363.2,376.32Zm3.71-1.57-2.4,1.15a28.63,28.63,0,0,0-2.62-4.32l2.34-1.08A47,47,0,0,1,366.91,374.75Z"/><path class="cls-4" d="M386.43,390.11,384,386.3a23.34,23.34,0,0,0,3-.51c4.1-1,7.3-3.9,7.3-8.57,0-4.42-2.4-7.71-6.72-8.45a66.35,66.35,0,0,1-1.92,8.67c-1.92,6.46-4.67,10.43-8.16,10.43s-6.5-3.9-6.5-9.31c0-7.39,6.4-13.69,14.69-13.69,7.93,0,12.93,5.5,12.93,12.47C398.63,384.1,394.5,388.86,386.43,390.11Zm-8.79-7.17c1.34,0,2.59-2,3.9-6.33a48.61,48.61,0,0,0,1.69-7.74,10.06,10.06,0,0,0-8.12,9.27C375.11,381.38,376.39,382.94,377.64,382.94Z"/><path class="cls-4" d="M401.6,376.16a41.31,41.31,0,0,0,1.32-8.35l2.68.35a43.1,43.1,0,0,1-1.24,8.93Zm30.21-4.54v2.72h-21v-2.72h8.48v-1.38h-6.62l.06.16-2.49,1.22a28.13,28.13,0,0,0-1.19-3.52v23.26h-3.42V361.51h3.42v5.12l1.83-.77a39.47,39.47,0,0,1,1.79,4.35v-2.53h6.62V366.4h-7.49v-2.72h7.49v-2.17h3.78v2.17h7.74v2.72h-7.74v1.28H430v2.56h-6.88v1.38Zm-2.14,16.12c0,1.67-.32,2.56-1.48,3.08s-2.72.54-4.92.54a12.62,12.62,0,0,0-1-3.23c1.31.09,2.82.06,3.23.06s.61-.13.61-.51v-1.06h-9.57v4.8H413V375.55h16.67Zm-13.16-9.4v1.5h9.57v-1.5Zm9.57,5.66v-1.47h-9.57V384Z"/><path class="cls-4" d="M443.24,369.7h5.34v3.2h-2.66l1.25.32c-.54,1.18-1,2.43-1.47,3.39h2.4v3.2h-4.86v2.46h4.51v3.2h-4.51v5.83h-3.52v-5.83H435v-3.2h4.77v-2.46h-5v-3.2h2.4a18.34,18.34,0,0,0-1-3.42l1.15-.29H434v-3.2h5.7v-2.21h-4.58v-3.14h4.58v-2.78h3.52v2.78h4.16v3.14h-4.16Zm-.48,6.62a35.14,35.14,0,0,0,1.15-3.42H439a13,13,0,0,1,1.12,3.42l-1,.29h4.64Zm20.47-1.86a32.28,32.28,0,0,1-3.36,10.47,15.76,15.76,0,0,0,4.45,3.49,13,13,0,0,0-2.46,3,16.35,16.35,0,0,1-4-3.39,18,18,0,0,1-3.49,3.43,11.38,11.38,0,0,0-1.76-2v1.89h-3.46V362.85H462.5v6c0,1.63-.35,2.56-1.6,3.07s-2.95.54-5.28.54a13,13,0,0,0-1.09-3.26c1.57.06,3.33.06,3.81.06s.64-.13.64-.48v-2.62h-6.37v7.65h7.71l.64-.16Zm-10.62,13.86a16.71,16.71,0,0,0,3.07-3.26,31.62,31.62,0,0,1-3.07-6.92Zm2.69-11.49a23.52,23.52,0,0,0,2.27,5,23.22,23.22,0,0,0,1.7-5Z"/><path class="cls-4" d="M473,379.49v7.45c0,1.76-.29,2.69-1.25,3.27s-2.37.77-4.42.73a12.31,12.31,0,0,0-1-3.48c1.19,0,2.27,0,2.66,0s.54-.13.54-.55v-6.4c-1.05.29-2,.58-2.94.83l-.87-3.68c1.09-.22,2.37-.57,3.81-.92v-5.67h-3.45v-3.52h3.45v-6H473v6h3.2v3.52H473v4.74l2.88-.77.51,3.42Zm14.56,8.06c.73.07,1.44.1,2.24.1,1.08,0,5.05,0,6.43,0a11.1,11.1,0,0,0-1,3.32h-5.56c-4.2,0-7.43-.76-9.6-4.64a14.13,14.13,0,0,1-3.33,5,21.71,21.71,0,0,0-2.82-2.27c2.66-2.12,4-5.67,4.45-10l3.46.42a30.48,30.48,0,0,1-.61,3.23,7.16,7.16,0,0,0,2.78,3.74v-8.35h-7.52V375h18.91v3.07h-7.8v2.82h6.11v3h-6.11Zm6.2-14H478v-11h15.77Zm-3.64-8.35h-8.64v1.6h8.64Zm0,4h-8.64v1.63h8.64Z"/><path class="cls-4" d="M508.36,362.69a60.72,60.72,0,0,1-3,6.66v22h-3.75V375.14c-.67.86-1.34,1.63-2,2.36a22.62,22.62,0,0,0-2.05-4,33.42,33.42,0,0,0,7.29-12Zm7.45,21.18a29.53,29.53,0,0,1-6.37,7.43,20.53,20.53,0,0,0-3-2.4,19.86,19.86,0,0,0,5.79-6.12Zm12.06-6.11v3.71H507.11v-3.71h4.28v-6.37h-3.48v-3.64h3.48v-6h3.72v6h4.64v-6h3.71v6h4.16v3.64h-4.16v6.37Zm-12.76,0h4.64v-6.37h-4.64Zm7.16,5a39.92,39.92,0,0,1,5.44,6.59l-3.2,2a36.25,36.25,0,0,0-5.28-6.94Z"/><path class="cls-4" d="M22.31,428.42H19v-6.5H31v-1.21H21.12v-2.82H44.71v2.82h-10v1.21H47v6.5H43.52v-4h-8.8v6.65H31v-6.65h-8.7Zm20.51,15.23c1.6,0,1.89-.48,2.11-3.2a9.79,9.79,0,0,0,3.17,1.21c-.45,3.84-1.47,4.9-5,4.9H36.42c-4.39,0-5.6-.93-5.6-4.29v-.09H25.51v1.4H21.89V432H44v10.21H34.47v.09c0,1.19.35,1.38,2.3,1.38ZM23,428.7h6.91v2.08H23Zm6.91-1.12h-6.3v-2h6.3Zm-4.35,6.95v1.41h5.31v-1.41Zm5.31,5.09v-1.38H25.51v1.38Zm9.44-5.09H34.47v1.41h5.79Zm0,5.09v-1.38H34.47v1.38Zm1.92-14.08v2H35.94v-2Zm-6.24,3.16h7v2.08h-7Z"/><path class="cls-4" d="M50,422.18H62.18v3H50Zm11.26,23.2H54.63v1.24h-3.2V435.71h9.85Zm-.16-15.78h-9.6v-2.85h9.6Zm-9.6,1.6h9.6v2.88h-9.6Zm9.63-10.56H51.72v-2.88h9.43Zm-6.52,18.08v3.65h3.42v-3.65Zm18.52-9.15v4.22h5.6v12.74H75v-1.41H67.68v1.54H64.07V433.79h5.21v-4.22H62.4V426h6.88v-3.91c-1.79.23-3.61.39-5.31.51a12.77,12.77,0,0,0-1-3.19,70,70,0,0,0,13.56-2.34l2.69,3.17a48.75,48.75,0,0,1-6,1.31V426H80v3.55Zm1.8,7.65H67.68v4.48H75Z"/><path class="cls-4" d="M101.06,431.71a4.1,4.1,0,1,1-4.1-4.09A4.13,4.13,0,0,1,101.06,431.71Z"/><path class="cls-4" d="M138.59,423.23a49,49,0,0,1-4.28,8.71A83.67,83.67,0,0,1,142,439l-3.3,3.65a64.13,64.13,0,0,0-7.1-7.08,39.89,39.89,0,0,1-11.91,9.89l-3.58-3.23a35.2,35.2,0,0,0,12.16-9.44,88,88,0,0,0-8.64-6.08l2.72-3.26c2.56,1.56,5.92,3.87,8.51,5.79a33.16,33.16,0,0,0,3.55-7.62,19.92,19.92,0,0,0,.77-2.94l4.77,1.66C139.52,421.09,138.91,422.5,138.59,423.23Z"/><path class="cls-4" d="M153.06,429.25h17.18c1.51,0,2.91-.13,3.75-.19v5c-.77,0-2.4-.16-3.75-.16H153.06c-1.82,0-4,.06-5.15.16v-5C149.06,429.15,151.4,429.25,153.06,429.25Z"/><path class="cls-4" d="M183.68,435c.9-2.75.93-8.8.93-12.67a11.71,11.71,0,0,0-.29-2.94H189a20.87,20.87,0,0,0-.23,2.91c0,3.77-.09,10.52-1,13.76a18.76,18.76,0,0,1-5.69,9.18l-3.91-2.59A15.07,15.07,0,0,0,183.68,435Zm9.63,5.76V422.15a14.81,14.81,0,0,0-.25-2.76h4.77a15.24,15.24,0,0,0-.23,2.79v16.73a20.36,20.36,0,0,0,7.91-6.75l2.46,3.52a35.26,35.26,0,0,1-10.85,8.74,6.34,6.34,0,0,0-1.37,1l-2.69-2.21A12.14,12.14,0,0,0,193.31,440.8Z"/><path class="cls-4" d="M229.06,431.71a4.1,4.1,0,1,1-4.1-4.09A4.13,4.13,0,0,1,229.06,431.71Z"/><path class="cls-4" d="M262.66,421.47c0,.71,0,1.48,0,2.31h4a24.37,24.37,0,0,0,3.33-.26v4.26c-1,0-2.24-.1-3.11-.1h-4.12c.09,4.67.22,10,.28,14.34,0,2-1.15,3.23-3.58,3.23-1.95,0-3.74-.07-5.57-.19l-.35-4.16a27.9,27.9,0,0,0,4.26.38c.8,0,1.12-.42,1.12-1.34,0-2.15,0-5.35-.07-8.64a44,44,0,0,1-13,10.81l-3-3.33c6.24-2.94,11.52-7.45,14.08-11.1h-8.73c-1.15,0-2.53.06-3.65.13v-4.26a30.11,30.11,0,0,0,3.55.23h10.59q0-1.25-.09-2.31c-.1-1.37-.2-2.4-.32-3.23h4.54A26.91,26.91,0,0,0,262.66,421.47Z"/><path class="cls-4" d="M288.93,436.67a30.21,30.21,0,0,0,11.65-12.44l2.49,4.51a34,34,0,0,1-11.84,11.84,34.64,34.64,0,0,1-11.87,4.51l-2.68-4.23A32.79,32.79,0,0,0,288.93,436.67Zm0-10.33-3.26,3.32a67.47,67.47,0,0,0-8-6.91l3-3.2A64.73,64.73,0,0,1,288.93,426.34Z"/><path class="cls-4" d="M333.28,430a23,23,0,0,1-4.73,8.87,24,24,0,0,1-11.43,6.91L314,442.11a21.61,21.61,0,0,0,11.07-5.6,13.88,13.88,0,0,0,3.29-5.53H312.87c-.77,0-2.37,0-3.71.16V427c1.34.09,2.72.19,3.71.19h15.84a6.78,6.78,0,0,0,2.33-.32l2.85,1.76A12.65,12.65,0,0,0,333.28,430Zm-17.85-10.46h12.32a29.58,29.58,0,0,0,3.45-.16v4.13c-.86-.07-2.37-.1-3.52-.1H315.43c-1,0-2.4,0-3.33.1v-4.13A26.64,26.64,0,0,0,315.43,419.49Z"/><path class="cls-4" d="M352.93,425.7a40.92,40.92,0,0,0,9-7.78l3.46,3.3a58.4,58.4,0,0,1-8.61,6.94v12.93a22.28,22.28,0,0,0,.29,4.19H352a35.18,35.18,0,0,0,.23-4.19V430.85a64.63,64.63,0,0,1-11.3,4.61l-2-4A51.51,51.51,0,0,0,352.93,425.7Z"/><path class="cls-4" d="M384.93,436.67a30.21,30.21,0,0,0,11.65-12.44l2.49,4.51a34,34,0,0,1-11.84,11.84,34.64,34.64,0,0,1-11.87,4.51l-2.68-4.23A32.79,32.79,0,0,0,384.93,436.67Zm0-10.33-3.26,3.32a67.47,67.47,0,0,0-8-6.91l3-3.2A64.73,64.73,0,0,1,384.93,426.34Z"/><path class="cls-4" d="M406.31,421.76c2.69-.22,8-.7,13.82-1.18,3.3-.29,6.78-.48,9.06-.58l0,4.1a33.64,33.64,0,0,0-6.18.44,9.74,9.74,0,0,0-6.78,9c0,5.28,4.93,7.17,10.37,7.46l-1.51,4.38c-6.72-.44-13.05-4-13.05-11a12.81,12.81,0,0,1,4.76-9.89c-3,.32-9.53,1-13.24,1.82l-.42-4.38C404.45,421.89,405.7,421.83,406.31,421.76Zm20.89,9.82-2.43,1.09a24.36,24.36,0,0,0-2.5-4.45l2.37-1A40.59,40.59,0,0,1,427.2,431.58Zm3.71-1.56-2.4,1.15a28.14,28.14,0,0,0-2.62-4.32l2.34-1.09A47.13,47.13,0,0,1,430.91,430Z"/><path class="cls-4" d="M450.43,445.38l-2.4-3.81a25.26,25.26,0,0,0,3-.51c4.1-1,7.3-3.91,7.3-8.58,0-4.42-2.4-7.71-6.72-8.45a66,66,0,0,1-1.92,8.67c-1.92,6.47-4.67,10.44-8.16,10.44s-6.5-3.91-6.5-9.32c0-7.39,6.4-13.69,14.69-13.69,7.93,0,12.93,5.5,12.93,12.48C462.63,439.36,458.5,444.13,450.43,445.38Zm-8.79-7.17c1.34,0,2.59-2,3.9-6.34a48.61,48.61,0,0,0,1.69-7.74,10.08,10.08,0,0,0-8.12,9.28C439.11,436.64,440.39,438.21,441.64,438.21Z"/><path class="cls-4" d="M474.72,428.86c1.12,1.22,3.84,4.52,4.48,5.32l-2.17,3.1c-.48-1-1.41-2.53-2.31-4v13.31h-3.64V434a27.44,27.44,0,0,1-3.62,7.2,18.71,18.71,0,0,0-1.79-3.58c2.08-2.53,3.93-6.88,5-10.69H466.5v-3.58h4.58v-6.56h3.64v6.56h4v3.58h-4Zm20.13-10.36v27.68H491v-1.64h-7.52v1.83h-3.65V418.5Zm-11.36,3.58v4H491v-4Zm0,7.39v4.07H491v-4.07ZM491,441.09V437h-7.52v4.1Z"/><path class="cls-4" d="M510.18,425.06H498v-3h12.16Zm-1,19.9h-6.53v1.25h-3.2V435.3h9.73Zm0-15.55h-9.6V426.5h9.6Zm-9.6,1.47h9.6v2.85h-9.6ZM509,420.64h-9.41v-2.88H509Zm-6.4,17.66V442h3.29V438.3Zm18.91-.44c.86,1.95,2.78,4.19,6.56,5.6a29.5,29.5,0,0,0-2.18,3.23,11.88,11.88,0,0,1-6.91-7c-.64,2-3.2,5.44-7.62,7a15.73,15.73,0,0,0-2.07-3.11c6.11-2.14,7.74-6.33,7.74-8.48v-4.83h3.87v4.83a6.84,6.84,0,0,0,.61,2.69,35.44,35.44,0,0,0,2.53-5.53l3.74,1.15a61.9,61.9,0,0,1-3.36,5.5Zm-12.07.25a10.21,10.21,0,0,0,2.79-5.63l3.33.67a12.24,12.24,0,0,1-3,6.53Zm15.81-6.49a47.25,47.25,0,0,0-6.4-4.64c-1.31,2.11-3.39,3.71-6.84,4.89a9.52,9.52,0,0,0-2.12-3c6.66-2.08,7.17-5.72,7.43-12.06H521a34.22,34.22,0,0,1-.8,7,66.18,66.18,0,0,1,7.58,5Zm-9.53-12.32a11.47,11.47,0,0,1-2.53,5.92l-3-1.28a10.3,10.3,0,0,0,2.4-5.28Zm11.77.32c-1,1.85-2.21,3.81-3.1,5.15l-2.82-1.09a28.51,28.51,0,0,0,2.31-5.21Z"/><path class="cls-3" d="M413.19,490.17c0,.57-.06,1.19-.08,1.84a32.17,32.17,0,0,0,4.78-.93l.08,3.22c-1.48.34-3.28.6-5,.81,0,.78,0,1.58,0,2.34v1a21.67,21.67,0,0,1,5-.68c4,0,7.15,2.08,7.15,5.67,0,3.07-1.61,5.38-5.75,6.42a24,24,0,0,1-3.4.42l-1.2-3.36a19.6,19.6,0,0,0,3.2-.18c2.11-.39,3.77-1.43,3.77-3.33s-1.56-2.8-3.82-2.8a17.87,17.87,0,0,0-4.89.72c.05,2.06.1,4.09.1,5,0,3.22-1.14,4.08-2.86,4.08-2.52,0-6.08-2.18-6.08-4.94,0-2.26,2.6-4.63,5.8-6,0-.63,0-1.25,0-1.85v-2.18c-.49,0-1,.05-1.38.05a32.94,32.94,0,0,1-3.64-.13l-.05-3.15a29.35,29.35,0,0,0,3.59.21c.47,0,1,0,1.51-.05,0-.91,0-1.67,0-2.11a20.64,20.64,0,0,0-.18-2.29h3.59C413.34,488.37,413.24,489.49,413.19,490.17Zm-3.9,16.61c.46,0,.83-.21.83-1.09,0-.65,0-1.85-.08-3.25-1.59.86-2.65,1.92-2.65,2.83S408.61,506.78,409.29,506.78Zm17.94-12.4L425.67,497a41.3,41.3,0,0,0-6.27-3.8l1.43-2.52A54.16,54.16,0,0,1,427.23,494.38Z"/><path class="cls-3" d="M449.14,503.76c-1,1.43-2,3-2.91,4.11h5.88v2.65h-22v-2.65h5.07a17.77,17.77,0,0,0-2.16-4.18l2.37-1h-4V500h7.91v-2.57h-4.79v-1.28a32.47,32.47,0,0,1-3.87,2.42,12,12,0,0,0-1.93-2.5,27.71,27.71,0,0,0,10.51-9.17h3.2a26.5,26.5,0,0,0,11.1,8.86,15,15,0,0,0-2.06,2.78,31.63,31.63,0,0,1-4-2.47v1.36h-5V500h8v2.65h-8v5.2h2.83l-1.69-.7a26.58,26.58,0,0,0,2.47-4.5Zm-13.59-1.09a18,18,0,0,1,2.39,4.29l-2.13.91h3.51v-5.2Zm10.21-7.93a27.71,27.71,0,0,1-4.78-4.81,27.25,27.25,0,0,1-4.6,4.81Z"/><path class="cls-3" d="M468.28,510.24l-1.95-3.1a20.42,20.42,0,0,0,2.42-.41c3.33-.78,5.93-3.17,5.93-7,0-3.59-1.95-6.27-5.46-6.86a54,54,0,0,1-1.56,7c-1.56,5.25-3.8,8.48-6.63,8.48s-5.28-3.17-5.28-7.57c0-6,5.2-11.13,11.93-11.13,6.45,0,10.51,4.48,10.51,10.14C478.19,505.35,474.83,509.22,468.28,510.24Zm-7.15-5.83c1.09,0,2.11-1.63,3.17-5.14a39.44,39.44,0,0,0,1.38-6.3,8.19,8.19,0,0,0-6.6,7.54C459.08,503.14,460.12,504.41,461.13,504.41Z"/><path class="cls-3" d="M488,496.82c.91,1,3.12,3.67,3.64,4.32l-1.76,2.52c-.39-.83-1.15-2.05-1.88-3.22v10.81h-3V501a22.15,22.15,0,0,1-2.94,5.85,15.19,15.19,0,0,0-1.45-2.91,25.43,25.43,0,0,0,4-8.68h-3.36v-2.92h3.72V487h3v5.33h3.25v2.92H488Zm16.36-8.42v22.49h-3.12v-1.33h-6.11V511h-3V488.4Zm-9.23,2.91v3.22h6.11v-3.22Zm0,6v3.3h6.11v-3.3Zm6.11,9.43v-3.32h-6.11v3.32Z"/><path class="cls-3" d="M516.82,493.73h-9.88v-2.45h9.88ZM516,509.9h-5.3v1h-2.6v-8.86H516Zm0-12.64h-7.8V494.9H516Zm-7.8,1.2H516v2.31h-7.8Zm7.73-8.32h-7.65V487.8h7.65Zm-5.2,14.35v3h2.67v-3Zm15.36-.36a8.91,8.91,0,0,0,5.33,4.55,24.48,24.48,0,0,0-1.76,2.62,9.6,9.6,0,0,1-5.62-5.72,10.34,10.34,0,0,1-6.19,5.72,12.92,12.92,0,0,0-1.69-2.52c5-1.74,6.29-5.15,6.29-6.89V498h3.15v3.92a5.72,5.72,0,0,0,.49,2.19,28.16,28.16,0,0,0,2.06-4.5l3,.93a51.7,51.7,0,0,1-2.73,4.48Zm-9.8.21a8.36,8.36,0,0,0,2.26-4.58l2.71.55a10,10,0,0,1-2.42,5.3Zm12.84-5.28a38.71,38.71,0,0,0-5.2-3.77,9.82,9.82,0,0,1-5.56,4,7.56,7.56,0,0,0-1.72-2.45c5.41-1.69,5.83-4.65,6-9.8h3a28,28,0,0,1-.65,5.67,54.11,54.11,0,0,1,6.16,4Zm-7.74-10a9.28,9.28,0,0,1-2.06,4.81l-2.42-1a8.32,8.32,0,0,0,2-4.29Zm9.57.26c-.86,1.51-1.8,3.09-2.53,4.18l-2.29-.88a22.34,22.34,0,0,0,1.88-4.24Z"/><path class="cls-3" d="M355.49,556.77a19.84,19.84,0,0,1-2.62,6.65,16.06,16.06,0,0,0-2.29-1.71,14.57,14.57,0,0,0,2.1-5.54Zm8.43-10.33H351.28v-2.81H356V540.7h3.14v2.93h4.74Zm-4.68,8.77v6.65c0,1.3-.24,2.08-1.12,2.55a7.31,7.31,0,0,1-3.46.49,10.91,10.91,0,0,0-.91-2.78c.86,0,1.82,0,2.11,0s.41-.08.41-.37v-6.57h-3.79V547.9h10.34v7.31Zm-4-2.55h4.55v-2.21h-4.55Zm17.24,9.12a.6.6,0,0,0,.44-.15,1.08,1.08,0,0,0,.24-.6c.05-.49.1-1.64.08-2.94a6.35,6.35,0,0,0,2.21,1.22,20.58,20.58,0,0,1-.34,3.57,2.25,2.25,0,0,1-.89,1.4,2.7,2.7,0,0,1-1.58.44h-1.51a2.62,2.62,0,0,1-1.87-.67c-.47-.47-.6-1-.6-2.63v-5.15A17.58,17.58,0,0,1,364,565a13.66,13.66,0,0,0-2.63-1.82,12.81,12.81,0,0,0,2.34-2.8l-2.42.91a24.36,24.36,0,0,0-1.53-4.55l2.42-.84a24.72,24.72,0,0,1,1.64,4.32,21.77,21.77,0,0,0,2.78-10.19h-2.86v-2.94h2.94V540.7h3v6.42h5.51v2.94h-5.56c0,.36-.05.73-.08,1.09h2v10.06a.62.62,0,0,0,.1.39.53.53,0,0,0,.42.18Zm0-15.16a14.73,14.73,0,0,0-2.5-4.29l2.39-1.09a13.3,13.3,0,0,1,2.68,4.14Z"/><path class="cls-3" d="M401,552.71a25.48,25.48,0,0,1-2.88,6.68c.23,1.25.52,2,.83,2s.52-1.2.62-3.25a8.94,8.94,0,0,0,2,1.71c-.64,4.22-1.87,5.13-2.75,5.13-1.17,0-2-1.07-2.65-3a17.82,17.82,0,0,1-3.41,3,13.55,13.55,0,0,0-1.77-2,16.52,16.52,0,0,0,1.85-1.3h-3.9v1.5h-2.37V552.35h7.15v8.55a13.82,13.82,0,0,0,1.72-2,68.57,68.57,0,0,1-.7-7.7H385.6v-2.39h1.64a14.07,14.07,0,0,0-.57-3.1l1.5-.36h-2.05v-1h-1V565h-2.57v-4.44c-1.85.39-3.69.78-5.25,1.09l-.52-2.84c.46,0,1-.13,1.53-.23V544.39h-1v-2.7h8.91v1.4h2.55v-2.34h2.63v2.34h2.65v2.26h-2.24l1.77.34c-.39,1.12-.75,2.29-1,3.12h2.08c-.08-2.47-.13-5.2-.15-8.09h2.7v1.95l1.66-.88a16.15,16.15,0,0,1,2.53,4.13l-2.14,1.2a17.51,17.51,0,0,0-2.05-3.8c0,1.93,0,3.75.08,5.49h4v2.39h-3.9c0,1.38.13,2.65.24,3.82a25.18,25.18,0,0,0,.93-2.86Zm-18.43-8.32h-1.72v2.81h1.72Zm0,5.3h-1.72v2.81h1.72Zm0,8.14V555h-1.72v3.14Zm6.11-12.48a11.55,11.55,0,0,1,.67,3.17l-1.17.29h3.72l-1.32-.29a26.26,26.26,0,0,0,.67-3.17Zm.26,9.13V556h2.39v-1.56Zm2.39,5.12V558h-2.39v1.56Z"/><path class="cls-3" d="M416.28,563.94l-1.95-3.09a20.22,20.22,0,0,0,2.42-.42c3.33-.78,5.93-3.17,5.93-7,0-3.58-1.95-6.26-5.46-6.86a54.45,54.45,0,0,1-1.56,7c-1.56,5.25-3.8,8.47-6.63,8.47s-5.28-3.17-5.28-7.56c0-6,5.2-11.13,11.93-11.13,6.45,0,10.51,4.47,10.51,10.14C426.19,559.05,422.83,562.93,416.28,563.94Zm-7.15-5.82c1.09,0,2.11-1.64,3.17-5.15a39.31,39.31,0,0,0,1.38-6.29,8.18,8.18,0,0,0-6.6,7.54C407.08,556.84,408.12,558.12,409.13,558.12Z"/><path class="cls-3" d="M440.62,543.17c-.08.44-.19.91-.26,1.43a45.34,45.34,0,0,0,8.84-1.15l0,3a71.2,71.2,0,0,1-9.23.91c-.08.78-.15,1.59-.18,2.37a17.51,17.51,0,0,1,3.87-.47h.47a14,14,0,0,0,.24-1.56l3.17.75c-.11.29-.31.83-.47,1.33,3,1,5,3.35,5,6.37,0,3.69-2.16,7.25-8.56,8.21l-1.71-2.73c5-.54,7-3.09,7-5.64a3.87,3.87,0,0,0-2.7-3.64,19.9,19.9,0,0,1-5.46,7.91c.18.65.39,1.3.6,1.92l-3,.91c-.11-.34-.24-.7-.34-1.07a9.18,9.18,0,0,1-4,1c-1.9,0-3.51-1.14-3.51-3.77,0-3.35,2.76-6.83,6.4-8.55,0-1.12.13-2.21.23-3.28h-.83c-1.35,0-3.38-.1-4.6-.15l-.08-3a36.15,36.15,0,0,0,4.78.36h1c.05-.49.11-1,.16-1.4s.08-1.12.05-1.56l3.38.08C440.82,542.31,440.72,542.78,440.62,543.17Zm-5.91,16.74a5.48,5.48,0,0,0,2.6-.86,36.7,36.7,0,0,1-.54-5.2c-1.95,1.33-3.25,3.31-3.25,4.79C433.52,559.47,433.88,559.91,434.71,559.91Zm5.31-3a16,16,0,0,0,3.27-5,13.16,13.16,0,0,0-3.58.57v.08A27.14,27.14,0,0,0,440,556.9Z"/><path class="cls-3" d="M460.56,551c1.77-.55,6.19-2,9.33-2,4.11,0,6.87,2.45,6.87,6.37,0,4.71-4.14,7.91-12.41,8.43l-1.37-3.2c5.95-.16,10.32-1.74,10.32-5.28,0-1.95-1.46-3.3-3.72-3.3-3,0-8.22,2.16-10.43,3.09l-1.35-3.38C458.58,551.57,459.78,551.25,460.56,551Z"/><path class="cls-3" d="M499.82,544.57c0,1,0,1.95-.05,2.81l2-.13c.73,0,1.74-.1,2.49-.18v3.2c-.44,0-1.82,0-2.49,0s-1.25.05-2,.11a43.65,43.65,0,0,1-.39,5.2c-.28,1.37-.93,1.71-2.26,1.71-.93,0-3-.26-3.92-.39l.07-2.88a14,14,0,0,0,2.4.33c.52,0,.75-.1.8-.59a28.26,28.26,0,0,0,.21-3.15c-2.31.18-4.86.42-7.07.65,0,2.39-.05,4.78,0,5.9.05,2.55.28,3.12,4.18,3.12a52.18,52.18,0,0,0,7.78-.65l-.13,3.54a73.09,73.09,0,0,1-7.41.41c-6.74,0-7.54-1.4-7.67-5.9,0-1.12,0-3.64,0-6.06-.7.08-1.3.13-1.74.19-.83.1-2.44.36-3.12.46l-.36-3.32c.75,0,1.95-.06,3.27-.19l2-.18V546a20,20,0,0,0-.21-2.89h3.67a17.12,17.12,0,0,0-.16,2.7c0,.6,0,1.49,0,2.5l7.1-.65V544.7a21.37,21.37,0,0,0-.18-2.39H500C499.92,542.73,499.84,543.87,499.82,544.57Z"/><path class="cls-3" d="M520.25,544.62c-1.27,1.88-3.09,5.2-4.39,7.49a6.1,6.1,0,0,1,3-.78c1.95,0,3.12,1.22,3.22,3.38.06,1.17,0,3.25.11,4.34a1.51,1.51,0,0,0,1.69,1.41c2.26,0,3.64-2.91,4.39-6.14l2.81,2.29c-1.35,4.45-3.77,7.41-7.75,7.41-2.88,0-4.24-1.72-4.34-3.61-.1-1.38-.08-3.51-.16-4.58a1.42,1.42,0,0,0-1.53-1.46c-1.77,0-3.22,1.82-4.16,3.93a53.87,53.87,0,0,0-2,5.8l-3.66-1.25a199.26,199.26,0,0,1,8.63-18.28c.34-.7.83-1.56,1.27-2.65l3.7,1.48C520.83,543.77,520.54,544.21,520.25,544.62Z"/><path class="cls-3" d="M765.76,125.44H195.24A62.72,62.72,0,1,1,195.24,0H765.76a62.72,62.72,0,1,1,0,125.44Z"/><path class="cls-5" d="M209.25,42.74A31.39,31.39,0,0,0,207,38.9V53.72H202.6V40.08a33.31,33.31,0,0,1-4.14,7.52,21.55,21.55,0,0,0-2.09-4.29A37.26,37.26,0,0,0,202,33.13h-4.83V28.91h5.43V24.5c-1.59.3-3.15.57-4.63.76a15.87,15.87,0,0,0-1.25-3.46,54,54,0,0,0,11.77-3.15l3,3.46A40.34,40.34,0,0,1,207,23.55v5.36H211v4.22H207v1.1c1,.83,4.15,4.14,4.87,5Zm23-5.44c-3,9.85-10.45,14.4-20.06,16.57A16.16,16.16,0,0,0,209.94,50,29.07,29.07,0,0,0,220,46.46a28.54,28.54,0,0,0-3.72-2.89c-.87.57-1.78,1.11-2.73,1.64a13,13,0,0,0-2.74-3.16A22.07,22.07,0,0,0,220,34.61a35.83,35.83,0,0,1-7,2.81,16.3,16.3,0,0,0-2.32-3.57,27.61,27.61,0,0,0,7.79-3,26.5,26.5,0,0,0-3.38-2.7c-.84.53-1.71,1.1-2.66,1.6a15,15,0,0,0-2.81-3.12,20.47,20.47,0,0,0,9.49-8.28l4.41.8a21.42,21.42,0,0,1-1.63,2.5H227l.72-.19,2.89,1.29a21.43,21.43,0,0,1-8.32,10.53l3.08.53a26,26,0,0,1-1.56,2.55h4.79l.79-.16ZM218.68,25.22c-.23.23-.5.46-.76.69a23.64,23.64,0,0,1,3.64,2.69,15.48,15.48,0,0,0,3-3.38Zm2,14.78c-.38.38-.8.76-1.22,1.14a30.18,30.18,0,0,1,3.92,2.78,16.07,16.07,0,0,0,3-3.92Z"/><path class="cls-5" d="M247.41,19.71a62.36,62.36,0,0,1-3.54,7.34V53.64h-4.29V33.58a37.57,37.57,0,0,1-3.15,3.57,29.41,29.41,0,0,0-2.36-4.59,40.59,40.59,0,0,0,9.16-14.21Zm22.94,28.57v4.26h-24.5V48.28H256V40.72h-8V36.47h8V29.86h-9.23V25.6h10.79a57.78,57.78,0,0,0-6.34-4.18l3-3.23a54,54,0,0,1,8.59,5.51l-1.68,1.9h8.7v4.26h-9.23v6.61h8.21v4.25h-8.21v7.56Z"/><path class="cls-5" d="M281.72,24.73c-.49,2.54-1.82,10.14-1.82,13.94a17.41,17.41,0,0,0,.15,2.47c.57-1.29,1.18-2.62,1.71-3.87l2.35,1.86c-1.06,3.15-2.31,7.29-2.73,9.31a10.71,10.71,0,0,0-.19,1.78c0,.42,0,1,.07,1.56l-4.4.3a48.51,48.51,0,0,1-1.48-12.42,105.92,105.92,0,0,1,1.59-15c.11-1.06.34-2.5.38-3.72l5.32.46A35,35,0,0,0,281.72,24.73Zm9.38,18.58c0,1.67,1.45,2.7,5.32,2.7A45.12,45.12,0,0,0,306,45l.08,5.13a54.42,54.42,0,0,1-9.81.72c-6.53,0-9.68-2.32-9.68-6.23a23.07,23.07,0,0,1,.64-4.94l4.37.42A13,13,0,0,0,291.1,43.31Zm13.76-19.46v4.91a103.64,103.64,0,0,1-16.34,0V23.89A77.46,77.46,0,0,0,304.86,23.85Z"/><path class="cls-5" d="M344.26,48.48c0,2.46-.53,3.76-2.12,4.48s-4,.8-7.45.8a15.6,15.6,0,0,0-1.48-4.56c2.24.15,4.79.11,5.55.07s.95-.19.95-.87V29H317.36v24.7h-4.52V24.61h10.49a51.16,51.16,0,0,0,2-6.34l5.74.8c-.8,1.9-1.75,3.87-2.66,5.54h15.84Zm-19.11-2.82v2.66h-4.06V32.71h14.82V45.66Zm0-9v5.05h6.61V36.66Z"/><path class="cls-5" d="M357.26,24c-.95,4.22-2.28,12.19-1.25,16.91.49-1.18,1.18-3,1.82-4.41L360.19,38a92.37,92.37,0,0,0-2.58,9.27,8.13,8.13,0,0,0-.23,1.86c0,.38,0,1,.07,1.56l-4.21.42a41.18,41.18,0,0,1-2.17-12.31,105.88,105.88,0,0,1,1.22-15.16,24.49,24.49,0,0,0,.26-3.31l5.63.57A28.26,28.26,0,0,0,357.26,24Zm19.61-1.14v4.86a50.52,50.52,0,0,0,5.7-.68l0,4.94c-1.52.19-3.49.34-5.62.45V34c0,9-.69,14.48-8.29,19.3l-4.36-3.46a14.56,14.56,0,0,0,4.4-3c2.93-3,3.54-6.42,3.54-12.84V32.59c-1.45,0-2.85.08-4.26.08-1.63,0-4-.11-5.85-.19V27.65a39.34,39.34,0,0,0,5.74.42c1.36,0,2.85,0,4.29-.07,0-2.13-.08-4.11-.15-5.13a18.7,18.7,0,0,0-.42-2.62h5.51C377,21.08,376.91,22,376.87,22.83Z"/><path class="cls-5" d="M392,24.12c3.15-.27,9.42-.84,16.37-1.44,3.92-.31,8.1-.57,10.76-.65l0,4.86a42.81,42.81,0,0,0-7.33.5c-4.6,1.21-8,6.15-8,10.67,0,6.24,5.85,8.52,12.27,8.86l-1.79,5.2c-7.94-.53-15.46-4.82-15.46-13a15.32,15.32,0,0,1,5.62-11.74c-3.57.38-11.32,1.22-15.73,2.17l-.49-5.21C389.72,24.27,391.2,24.2,392,24.12Z"/><path class="cls-5" d="M460,33.2v4.9H425.06V33.2Z"/><path class="cls-5" d="M475.14,35.59a34.62,34.62,0,0,1-7.71,9,28.62,28.62,0,0,0-4-2.93,23.41,23.41,0,0,0,7.07-7.52Zm3.23-1.89H463.51V29.44h5.09V20.85h4.6v8.59h5.13V18.31h4.6v3.57h10.94v4H482.93v3.53h14.63V33.7H482.85v7.06c0,2.05-.41,3.19-1.9,3.8s-3.53.61-6.27.61a16,16,0,0,0-1.36-4.07c1.67.08,3.76.08,4.29.08s.76-.15.76-.53Zm15.46,10.94a20.62,20.62,0,0,0-2.24-3.19c-3.8,8.24-11.21,11.17-23,12.61a13.36,13.36,0,0,0-2.17-4.41c10.87-.8,17.67-3,20.78-10.14l3.65,1a53.68,53.68,0,0,0-4.18-4.21L490.34,34c2.73,2.32,6,5.66,7.48,8Z"/><path class="cls-5" d="M510.71,45.06c1.44-.38,2.89-.8,4.33-1.26l.49,3.84c-4.82,1.63-10,3.27-13.94,4.52l-1-4.25,1.48-.38V34.91h3.31v11.7l1.67-.45v-14h-5V19.71h12.35V32.18h-3.72v4.1h3.87v3.91h-3.87Zm-4.9-16.72h4.67V23.59h-4.67Zm17.63-4.94c-.88,6.23-3.19,10.56-7,13a16,16,0,0,0-2.4-2.92,12.54,12.54,0,0,0,4.79-6.84h-3.53v-3.8h5l.72-.12Zm-6.65,14.21h17.74v16h-4.37V52.54H521v1.25h-4.18Zm10.94-4.67c0,1.86-.27,2.84-1.48,3.45s-2.74.69-4.87.69a12.42,12.42,0,0,0-1.1-3.76c1.18,0,2.43,0,2.81,0s.54-.15.54-.53V18.23h4.1V20.7a31.23,31.23,0,0,0,1.56,4.22,42,42,0,0,0,3.34-3.76L536.2,24c-1.74,1.4-3.49,2.92-5,4a13.18,13.18,0,0,0,5.63,4.56,19.24,19.24,0,0,0-2.74,3.61A16.12,16.12,0,0,1,527.73,29ZM521,41.26v2.12h9.19V41.26Zm9.19,7.63V46.58H521v2.31Z"/><path class="cls-5" d="M548.78,21.88c2.17,0,6.2-.19,8-.34a8.46,8.46,0,0,0,2.59-.53l3,2.35a8.87,8.87,0,0,0-1.3,1.6,82.81,82.81,0,0,0-3.8,8.17,33.61,33.61,0,0,1,8.25,2.43c0-.46.08-.88.11-1.29a23.87,23.87,0,0,0,0-4.15l5,.57a61.24,61.24,0,0,1-.72,7c1.59.91,3,1.79,4.06,2.55l-2.2,5.28a39.25,39.25,0,0,0-3.27-2.66c-1.67,4.29-4.56,7.64-9.65,10.3l-4-3.31c5.73-2.47,8.39-6.08,9.65-9.54a26.27,26.27,0,0,0-9-3.07,75,75,0,0,1-4.29,9.12,6.63,6.63,0,0,1-5.93,3.34c-3.34,0-5.85-2.32-5.85-6.16,0-5.89,5.36-10.37,13-10.71,1.07-2.51,2.17-5.09,3-6.88-1.52.08-4.78.19-6.53.31-.76,0-2.09.15-3.08.3l-.19-4.9C546.66,21.8,548,21.88,548.78,21.88Zm-3.34,22.87c.76,0,1.29-.38,2-1.33a42.86,42.86,0,0,0,3.07-6.19c-4.25.64-6.64,3.23-6.64,5.62C543.85,44.11,544.57,44.75,545.44,44.75Z"/><path class="cls-5" d="M609.77,37.65V53.72h-4.71V51.55H584v2.21h-4.6V37.65H584v9.46H592V35.63h-11V21.84h4.49v9.39H592V18.65h4.64V31.23h6.91V21.84h4.75V35.63H596.59V47.11h8.47V37.65Z"/><path class="cls-5" d="M638,23.09c0,.31,0,.73,0,1.18,3.83,0,9-.07,11,0l0,4.49c-2.28-.12-5.82-.19-11-.19,0,1.94,0,4,0,5.7a9.59,9.59,0,0,1,1.37,5.2c0,4.94-2.89,11.25-12.16,13.83l-4.06-4c3.84-.79,7.18-2,9.27-4.33a7.72,7.72,0,0,1-1.71.19,6.7,6.7,0,0,1-6.54-7c0-4.29,3.46-7.1,7.6-7.1a10.55,10.55,0,0,1,1.52.11c0-.83,0-1.71,0-2.54-5.73.07-11.66.3-16.33.57l-.12-4.6c4.33,0,11.25-.15,16.42-.23,0-.49,0-.87-.08-1.18a25.23,25.23,0,0,0-.38-3.3h5.51C638.23,20.44,638.08,22.49,638,23.09ZM631.7,40.88c1.59,0,3-1.22,2.47-4.56A2.79,2.79,0,0,0,631.7,35a2.95,2.95,0,0,0,0,5.89Z"/><path class="cls-5" d="M668.71,23.7c-.08.42-.19.91-.3,1.45,2.13-.31,4.25-.73,6.34-1.22v4.75a69.29,69.29,0,0,1-7.41,1.25c-.34,1.64-.72,3.31-1.14,4.87a116.82,116.82,0,0,1-6,17.59l-5.28-1.79c2.28-3.8,5.17-11.78,6.58-17.09.26-1,.56-2.09.79-3.2-.87,0-1.71.08-2.51.08-1.82,0-3.26-.08-4.59-.15L655,25.49a37.21,37.21,0,0,0,4.79.3c1.1,0,2.24,0,3.42-.11.15-.84.27-1.56.34-2.17a19.94,19.94,0,0,0,.12-3.83l5.81.45C669.21,21.16,668.86,22.87,668.71,23.7Zm4.56,20.63c0,1.68,1.14,2.93,5.21,2.93a44.1,44.1,0,0,0,7.9-.8l-.19,4.86a60.1,60.1,0,0,1-7.75.54c-6.39,0-9.84-2.21-9.84-6a27,27,0,0,1,.68-5.1l4.52.46A13.19,13.19,0,0,0,673.27,44.33Zm5.78-13.1a66.13,66.13,0,0,1,6.68.34l-.11,4.56a55.27,55.27,0,0,0-6.54-.46,64.29,64.29,0,0,0-7.33.38V31.61C673.88,31.42,676.61,31.23,679.05,31.23Z"/><path class="cls-5" d="M715.18,24.5c-.11.49-.22.95-.34,1.44,6,1.37,9.92,6.2,9.92,12.85,0,8.05-5.74,12.65-13.64,13.86l-2.89-4.4c8.32-.69,11.63-5,11.63-9.73a8.23,8.23,0,0,0-6.16-8.4,48.34,48.34,0,0,1-5.16,12.09c.68.79,1.36,1.59,2.08,2.28l-3.83,3c-.46-.5-.91-1-1.29-1.49-2.55,2.78-4.68,4-7.49,4-3.15,0-6-2.66-6-7.56a16.61,16.61,0,0,1,5.62-12c-.38-1-.68-2.05-1-3.07a24.75,24.75,0,0,0-1.52-4l5-1.55c.23,1.25.54,2.5.84,3.64.19.73.42,1.52.68,2.32a20.87,20.87,0,0,1,8.63-2.28,17.36,17.36,0,0,0,.34-1.82,25.65,25.65,0,0,0,.3-3.61l5.25.49C715.75,21.69,715.41,23.55,715.18,24.5Zm-16.6,20.67c1.37,0,2.77-1.18,4.18-2.89A40.39,40.39,0,0,1,699.23,35a11.44,11.44,0,0,0-2.81,7.14C696.42,44,697.21,45.17,698.58,45.17Zm7.07-7.07A43.3,43.3,0,0,0,709,29.9,15.21,15.21,0,0,0,702.91,32,39.59,39.59,0,0,0,705.65,38.1Z"/><path class="cls-5" d="M737.72,24.73c-.49,2.54-1.82,10.14-1.82,13.94a17.41,17.41,0,0,0,.15,2.47c.57-1.29,1.18-2.62,1.71-3.87l2.35,1.86c-1.06,3.15-2.31,7.29-2.73,9.31a10.71,10.71,0,0,0-.19,1.78c0,.42,0,1,.07,1.56l-4.4.3a48.51,48.51,0,0,1-1.48-12.42,105.92,105.92,0,0,1,1.59-15c.11-1.06.34-2.5.38-3.72l5.32.46A35,35,0,0,0,737.72,24.73Zm9.39,18.58c0,1.67,1.44,2.7,5.31,2.7A45.12,45.12,0,0,0,762,45l.08,5.13a54.42,54.42,0,0,1-9.81.72c-6.53,0-9.68-2.32-9.68-6.23a23.07,23.07,0,0,1,.64-4.94l4.37.42A13,13,0,0,0,747.11,43.31Zm13.75-19.46v4.91a103.64,103.64,0,0,1-16.34,0V23.89A77.46,77.46,0,0,0,760.86,23.85Z"/><path class="cls-5" d="M232.81,71.88c-.11.64-.26,1.33-.38,2.09a67.28,67.28,0,0,0,12.92-1.67l0,4.4A103.53,103.53,0,0,1,231.9,78c-.11,1.14-.23,2.32-.26,3.46a25.76,25.76,0,0,1,5.66-.68H238a21.85,21.85,0,0,0,.34-2.28l4.64,1.1c-.15.42-.46,1.22-.69,1.94,4.41,1.44,7.34,4.9,7.34,9.31,0,5.39-3.16,10.6-12.5,12l-2.51-4c7.33-.8,10.3-4.52,10.3-8.24a5.64,5.64,0,0,0-4-5.32,29.18,29.18,0,0,1-8,11.55c.26,1,.57,1.9.87,2.81L229.47,101c-.15-.49-.34-1-.49-1.56a13.63,13.63,0,0,1-5.89,1.52c-2.78,0-5.13-1.67-5.13-5.51,0-4.9,4-10,9.34-12.5.08-1.63.19-3.23.35-4.78h-1.22c-2,0-4.94-.16-6.72-.23l-.12-4.41a53.33,53.33,0,0,0,7,.53h1.52c.08-.72.15-1.4.23-2s.11-1.63.08-2.28l4.94.12C233.12,70.62,233,71.31,232.81,71.88Zm-8.62,24.47a8.12,8.12,0,0,0,3.8-1.26,53,53,0,0,1-.8-7.6c-2.85,1.94-4.75,4.83-4.75,7C222.44,95.7,223,96.35,224.19,96.35Zm7.75-4.41a23.26,23.26,0,0,0,4.79-7.26,18.92,18.92,0,0,0-5.25.84v.11A40.44,40.44,0,0,0,231.94,91.94Z"/><path class="cls-5" d="M264.32,71.69c2,0,10.14-.15,12.31-.34a16.42,16.42,0,0,0,2.88-.42L282,74.31c-.87.57-1.78,1.1-2.66,1.75-2.05,1.44-6,4.79-8.43,6.69a14.52,14.52,0,0,1,3.61-.42c6.46,0,11.36,4,11.36,9.57,0,6-4.56,10.75-13.76,10.75-5.28,0-9.27-2.43-9.27-6.23,0-3.07,2.78-5.92,6.81-5.92,4.71,0,7.56,2.88,8.09,6.49a5.5,5.5,0,0,0,3.15-5.16c0-3.42-3.42-5.74-7.9-5.74-5.81,0-9.61,3.08-13.68,7.71l-3.46-3.57c2.7-2.17,7.3-6,9.54-7.9s6.08-4.94,7.94-6.58c-1.94,0-7.18.27-9.19.38-1,.08-2.25.19-3.12.31l-.15-4.94A26.65,26.65,0,0,0,264.32,71.69Zm6.84,26.63a21.58,21.58,0,0,0,2.2-.11c-.23-2.47-1.63-4.07-3.69-4.07-1.44,0-2.35.88-2.35,1.83C267.32,97.37,268.88,98.32,271.16,98.32Z"/><path class="cls-5" d="M307.79,80.69c3.11-1.82,6.42-3.45,8.2-4.48a23.62,23.62,0,0,0,3.54-2.32l2.62,4.41c-1.14.68-2.36,1.33-3.76,2A113,113,0,0,0,307.79,86c-3.16,2.09-5.28,4.26-5.28,6.92s2.62,4.18,7.9,4.18a58.36,58.36,0,0,0,12.42-1.41l-.07,5.47a70.6,70.6,0,0,1-12.2,1c-7.56,0-13.3-2.09-13.3-8.62,0-4.18,2.66-7.33,6.31-10-1.75-3.23-3.57-7.3-5.28-11.32L303,70.17A89.18,89.18,0,0,0,307.79,80.69Z"/><path class="cls-5" d="M363.61,90.46A72.13,72.13,0,0,1,355.1,96a25.14,25.14,0,0,0,10.18,3.76,17.29,17.29,0,0,0-2.85,4.1c-9.46-2-14.7-6.72-17.9-14.74h-4.82v8.7c2.81-.38,5.81-.83,8.7-1.33l.26,4.22c-5.77,1-12,1.94-16.52,2.7L331.05,99c1.21-.15,2.54-.3,4-.53V71.8h9.84V68.16h4.68V71.8h11.05V88.14Zm-23.9-14.74v2.81H356V75.72Zm0,9.42H356v-3h-16.3Zm9.5,4a16.72,16.72,0,0,0,2.88,4.29,55.64,55.64,0,0,0,6.27-4.29Z"/><path class="cls-5" d="M375.92,77.92c0,2.47,0,5.32.23,8,.53,5.48,1.67,9.24,4.07,9.24,1.78,0,3.3-4.45,4-7.49l3.8,4.64c-2.5,6.61-4.9,8.93-7.94,8.93-4.18,0-7.79-3.76-8.85-14-.38-3.49-.42-7.94-.42-10.26a22.85,22.85,0,0,0-.3-3.87l5.85.07A30.39,30.39,0,0,0,375.92,77.92Zm26.37,15.92-5,1.94c-.6-6.12-2.62-15.35-6.76-20.06l4.83-1.56C399,78.53,401.87,88,402.29,93.84Z"/><path class="cls-5" d="M421.79,80.69c3.11-1.82,6.42-3.45,8.2-4.48a23.62,23.62,0,0,0,3.54-2.32l2.62,4.41c-1.14.68-2.36,1.33-3.76,2A113,113,0,0,0,421.79,86c-3.16,2.09-5.28,4.26-5.28,6.92s2.62,4.18,7.9,4.18a58.36,58.36,0,0,0,12.42-1.41l-.07,5.47a70.6,70.6,0,0,1-12.2,1c-7.56,0-13.3-2.09-13.3-8.62,0-4.18,2.66-7.33,6.31-10-1.75-3.23-3.57-7.3-5.28-11.32L417,70.17A89.18,89.18,0,0,0,421.79,80.69Z"/><path class="cls-5" d="M444,99.35a26,26,0,0,0,4-8.82l4.1,1.49c-.91,3.23-2.2,7.06-4,9.57Zm15.69-11.48H447.78v-18H475v18H460.62a30.07,30.07,0,0,1,7,4.83l-3.23,3.08A31.34,31.34,0,0,0,457,90.34ZM452,77h7.14V73.78H452Zm0,7h7.14V80.62H452Zm13.41,15c1.56,0,1.86-.57,2.09-4.33a13.11,13.11,0,0,0,4.06,1.67c-.49,5.39-1.82,6.76-5.77,6.76h-6.31c-5,0-6.27-1.33-6.27-5.35V91.48h4.56v6.2c0,1.14.34,1.29,2.24,1.29Zm5.05-25.19h-6.95V77h6.95Zm0,6.84h-6.95V84h6.95Zm3.65,9.69a32.94,32.94,0,0,1,5,9.19l-4.4,1.86A34.19,34.19,0,0,0,470.12,92Z"/><path class="cls-5" d="M501,83.47a33.92,33.92,0,0,0-9.88,1.86c-1.1.3-2.58.91-3.68,1.33L486,81.23a38.67,38.67,0,0,0,4.18-.65,49.84,49.84,0,0,1,11.47-1.75c6,0,10.23,3.42,10.23,9.39,0,8.13-7.53,13.18-18.09,14.62L491,98.13c9.43-1.06,15.51-4.18,15.51-10.1C506.53,85.52,504.55,83.47,501,83.47Zm7.67-12-.76,4.67c-4.44-.3-12.69-1.06-17.06-1.82l.76-4.56A113.19,113.19,0,0,0,508.65,71.5Z"/><path class="cls-5" d="M535.48,102.84,531.42,99C538.75,96.46,542,93.19,542,83.85V82.4h-9v5.17c0,1.67.11,3.23.15,4h-5.32a31.39,31.39,0,0,0,.23-4V82.4h-3.23c-1.9,0-3.27.08-4.11.16V77.39a25.35,25.35,0,0,0,4.11.34H528V74c0-1.1-.12-2.28-.23-3.42h5.39A24.05,24.05,0,0,0,533,74v3.76h9v-4a24.07,24.07,0,0,0-.23-3.53h5.44a23,23,0,0,0-.27,3.53v4h2.81a22.42,22.42,0,0,0,4.18-.27v5.06c-.84-.08-2.16-.12-4.18-.12h-2.81v1.26C546.92,93.08,544.64,98.82,535.48,102.84Z"/><path class="cls-5" d="M562.12,97.41,558,94.6a39.26,39.26,0,0,0,7.14-9.8l4.3,2A59.74,59.74,0,0,1,562.12,97.41ZM578,73.78v3h8.86a31.24,31.24,0,0,0,3.76-.27v5c-1.22-.08-2.7-.11-3.73-.11H578V99.08c0,2.21-1.25,3.57-3.95,3.57a54.39,54.39,0,0,1-6.19-.34l-.46-4.71a25.79,25.79,0,0,0,4.22.46c1,0,1.37-.38,1.41-1.37,0-1.41,0-13.45,0-15.24v0h-9.65a36.73,36.73,0,0,0-3.68.15V76.51a27.53,27.53,0,0,0,3.68.31h9.65v-3a20,20,0,0,0-.34-3.31h5.62A32.84,32.84,0,0,0,578,73.78Zm14.25,20.9-4.48,2.43a72.23,72.23,0,0,0-6.16-10.19l4.14-2.24A87.44,87.44,0,0,1,592.29,94.68ZM588,67.55a4.41,4.41,0,1,1-4.41,4.4A4.37,4.37,0,0,1,588,67.55ZM588,74a2.06,2.06,0,0,0,0-4.11A2.06,2.06,0,1,0,588,74Z"/><path class="cls-5" d="M604.11,83.09h20.41c1.78,0,3.45-.15,4.44-.23v6c-.91,0-2.85-.19-4.44-.19H604.11c-2.16,0-4.71.08-6.11.19v-6C599.36,83,602.14,83.09,604.11,83.09Z"/><path class="cls-5" d="M644.43,75a26,26,0,0,0-.38-4.56H650a41.69,41.69,0,0,0-.35,4.56v5.62a123.69,123.69,0,0,1,15.89,5.89l-2.17,5.24a110.06,110.06,0,0,0-13.72-5.66V96.8c0,1.11.2,3.76.35,5.32h-5.93a41.38,41.38,0,0,0,.38-5.32Z"/><path class="cls-5" d="M680.38,74.5a101.36,101.36,0,0,0-1.83,14.7,17.08,17.08,0,0,0,.16,2.47c.49-1.33,1.14-2.62,1.71-3.91l2.31,1.9c-1.06,3.12-2.27,7-2.73,9a10,10,0,0,0-.19,1.79c0,.38,0,1,.07,1.56l-4.29.34a44.54,44.54,0,0,1-1.52-12.16,119.69,119.69,0,0,1,1.56-15.84c.15-1.07.34-2.51.38-3.73l5.24.46A24.76,24.76,0,0,0,680.38,74.5Zm19.19-1.33c0,.84-.08,2.24-.12,3.91a52,52,0,0,0,5.89-.87V81c-1.82.27-3.8.49-5.89.65.08,3.68.27,6.72.42,9.3a24.87,24.87,0,0,1,7.37,4.91l-2.62,4A39.69,39.69,0,0,0,700,96c-.22,3.64-2.28,6.23-7.41,6.23S684.06,100,684.06,96s3.27-6.5,8.44-6.5a17.53,17.53,0,0,1,2.47.15c-.08-2.36-.23-5.13-.27-7.83-.91,0-1.82,0-2.7,0-2.24,0-4.4-.07-6.64-.23V77.12a62.52,62.52,0,0,0,6.64.34c.88,0,1.79,0,2.66,0,0-1.87,0-3.42,0-4.22a16.45,16.45,0,0,0-.27-2.51h5.43A22.68,22.68,0,0,0,699.57,73.17ZM692,97.72c2.32,0,3.12-1.22,3.12-3.46v-.69a12,12,0,0,0-3-.41c-2.17,0-3.61.91-3.61,2.35S690,97.72,692,97.72Z"/><path class="cls-5" d="M731.87,79.67c0-2.28-1.83-3.57-4.79-3.57-2.36,0-4.22,1-6.08,3l-3.12-2.89a12.67,12.67,0,0,1,9.81-4.64c5.51,0,9.53,2.55,9.53,7.6,0,5.59-8.28,6.23-7.71,11.52h-4.9C723.81,84.72,731.87,83.35,731.87,79.67Zm-8.13,17.78a3.34,3.34,0,1,1,6.68,0,3.34,3.34,0,1,1-6.68,0Z"/><polygon class="cls-3" points="439.02 105.53 480.5 147.83 521.98 105.53 439.02 105.53"/><line class="cls-6" x1="556.5" y1="269.5" x2="556.5" y2="606.5"/><line class="cls-6" x1="865.5" y1="269.5" x2="865.5" y2="606.5"/><line class="cls-6" x1="709.5" y1="269.5" x2="709.5" y2="606.5"/><rect class="cls-4" x="557" y="310" width="292" height="28"/><rect class="cls-4" x="557" y="364" width="265" height="28"/><rect class="cls-4" x="557" y="419" width="180" height="28"/><rect class="cls-3" x="557" y="486" width="119" height="28"/><rect class="cls-3" x="557" y="539" width="106" height="28"/></g></g></svg>