<svg xmlns="http://www.w3.org/2000/svg" viewBox="0 0 746.86 391.07"><defs><style>.cls-1{fill:#d9f5ef;}.cls-2,.cls-6{fill:none;stroke-miterlimit:10;}.cls-2{stroke:#00be96;stroke-width:3px;stroke-dasharray:15.15 7.07;}.cls-3{fill:#141f42;}.cls-4{fill:#00be96;}.cls-5{fill:#fff;}.cls-6{stroke:#969696;stroke-linecap:round;}</style></defs><g id="レイヤー_2" data-name="レイヤー 2"><g id="レイヤー_5" data-name="レイヤー 5"><rect class="cls-1" x="1.5" y="131.89" width="340" height="113" rx="10"/><path class="cls-2" d="M1.5,234.89a10,10,0,0,0,10,10h320a10,10,0,0,0,10-10v-93a10,10,0,0,0-10-10H11.5a10,10,0,0,0-10,10v93Z"/><path class="cls-3" d="M334.71,105.75c5.41-5.16,9-8.68,9-11.68,0-2-1.12-3.27-3.11-3.27a5.42,5.42,0,0,0-3.8,2.15l-2.24-2.24c1.9-2,3.75-3.16,6.58-3.16,3.92,0,6.52,2.49,6.52,6.3,0,3.53-3.25,7.17-6.94,11,1-.11,2.4-.23,3.38-.23h4.54v3.48H334.71Z"/><path class="cls-3" d="M351.23,97.93c0-6.83,2.77-10.38,7-10.38s7,3.58,7,10.38-2.74,10.59-7,10.59S351.23,104.79,351.23,97.93Zm10.14,0c0-5.59-1.32-7.16-3.11-7.16s-3.14,1.57-3.14,7.16,1.35,7.37,3.14,7.37S361.37,103.56,361.37,97.93Z"/><path class="cls-3" d="M501.21,105.75c5.41-5.16,9-8.68,9-11.68,0-2-1.12-3.27-3.11-3.27a5.42,5.42,0,0,0-3.8,2.15L501,90.71c1.9-2,3.75-3.16,6.58-3.16,3.92,0,6.52,2.49,6.52,6.3,0,3.53-3.25,7.17-6.94,11,1-.11,2.4-.23,3.38-.23h4.54v3.48H501.21Z"/><path class="cls-3" d="M517.23,105.69l1.9-2.63a6.44,6.44,0,0,0,4.57,2.1,3.34,3.34,0,0,0,3.66-3.53,3.24,3.24,0,0,0-3.5-3.5,5,5,0,0,0-3.1,1.09L518.88,98l.56-10.08h11.09v3.44H523l-.4,4.4a5.87,5.87,0,0,1,2.5-.56c3.47,0,6.38,2,6.38,6.27s-3.42,7-7.25,7A9.44,9.44,0,0,1,517.23,105.69Z"/><path class="cls-3" d="M667.24,105.64l1.93-2.61a6.55,6.55,0,0,0,4.62,2.13c2.1,0,3.53-1,3.53-2.75,0-2-1.21-3.16-5.72-3.16v-3c3.81,0,5-1.26,5-3,0-1.57-1-2.49-2.77-2.49A5.69,5.69,0,0,0,670,92.64l-2.1-2.52a9.25,9.25,0,0,1,6.22-2.57c4,0,6.72,2,6.72,5.43,0,2.18-1.29,3.7-3.45,4.56v.14a5.09,5.09,0,0,1,4.12,5c0,3.69-3.33,5.85-7.28,5.85A8.79,8.79,0,0,1,667.24,105.64Z"/><path class="cls-3" d="M684.23,97.93c0-6.83,2.77-10.38,7-10.38s7,3.58,7,10.38-2.74,10.59-7,10.59S684.23,104.79,684.23,97.93Zm10.14,0c0-5.59-1.32-7.16-3.11-7.16s-3.14,1.57-3.14,7.16,1.35,7.37,3.14,7.37S694.37,103.56,694.37,97.93Z"/><path class="cls-3" d="M704.92,96l1.24.54a8.12,8.12,0,0,0,0,11.39l-1.24.55a8.88,8.88,0,0,1,0-12.48Z"/><path class="cls-3" d="M707.16,100.35c0-1.92,1-3,2.34-3s2.35,1.11,2.35,3-1,3.07-2.35,3.07S707.16,102.29,707.16,100.35Zm3.34,0c0-1.41-.44-1.95-1-1.95s-1,.54-1,1.95.43,2,1,2S710.5,101.77,710.5,100.35Zm4.55-3h1.13l-5.23,10h-1.13Zm-.9,6.92c0-1.94,1-3,2.34-3s2.35,1.1,2.35,3-1,3.07-2.35,3.07S714.15,106.16,714.15,104.24Zm3.34,0c0-1.42-.44-2-1-2s-1,.54-1,2,.43,2,1,2S717.49,105.66,717.49,104.24Z"/><path class="cls-3" d="M721.08,108.43l-1.24-.55a8.12,8.12,0,0,0,0-11.39l1.24-.54a8.89,8.89,0,0,1,0,12.48Z"/><path class="cls-3" d="M701.7,323l1.23.54a8.15,8.15,0,0,0,0,11.39l-1.23.55a8.88,8.88,0,0,1,0-12.48Z"/><path class="cls-3" d="M704.55,326.85h1.56l.14,1h0a3.35,3.35,0,0,1,2.36-1.15c1.58,0,2.25,1.1,2.25,2.93v4.54H709v-4.31c0-1.13-.31-1.52-1-1.52a2.05,2.05,0,0,0-1.51.82v5h-1.91Z"/><path class="cls-3" d="M712.35,326.9H719v1.35h-6.67Zm0,3.35H719v1.37h-6.67Z"/><path class="cls-3" d="M720.07,333c2.51-2.39,4.16-4,4.16-5.42a1.35,1.35,0,0,0-1.44-1.52,2.52,2.52,0,0,0-1.77,1l-1-1a3.86,3.86,0,0,1,3-1.47,2.81,2.81,0,0,1,3,2.93c0,1.63-1.51,3.32-3.22,5.12.48-.05,1.12-.11,1.57-.11h2.11v1.62h-6.45Z"/><path class="cls-3" d="M731.55,331.8h-4.11v-1.31l3.59-5.74h2.3v5.58h1.13v1.47h-1.13v2.33h-1.78Zm0-1.47v-1.87c0-.56,0-1.44.06-2h-.05c-.23.5-.49,1-.77,1.5l-1.49,2.37Z"/><path class="cls-3" d="M739.8,326.35h-4.33v-1.6h6.4v1.17c-2.18,2.67-2.54,4.55-2.69,8.21h-1.94A13,13,0,0,1,739.8,326.35Z"/><path class="cls-3" d="M744.3,335.43l-1.23-.55a8.15,8.15,0,0,0,0-11.39l1.23-.54a8.89,8.89,0,0,1,0,12.48Z"/><path class="cls-3" d="M225.39,367.42H221.5v-.68h3.89Zm-.3,6.92h-2.43v.5H222v-3.68h3.12Zm0-5.46H222v-.65h3.1Zm-3.1.8h3.1v.66H222Zm3.07-3.72h-3v-.66h3Zm-2.39,5.87v1.85h1.73v-1.85Zm2.51,2.15a4.39,4.39,0,0,0,.87-2.41l.66.17a4.63,4.63,0,0,1-.94,2.63Zm3.89-5.1a11.5,11.5,0,0,0-1.13-.71,4.3,4.3,0,0,1-2,2,2.9,2.9,0,0,0-.48-.58,3.68,3.68,0,0,0,1.82-1.74,11.23,11.23,0,0,0-1.43-.6l.41-.57c.41.13.85.32,1.29.5a8,8,0,0,0,.25-1.08h-1.85v-.71h5.25s0,.24,0,.34c-.1,2.59-.21,3.55-.49,3.86a.77.77,0,0,1-.65.32,7.87,7.87,0,0,1-1.28,0,1.71,1.71,0,0,0-.21-.73c.49,0,1,0,1.13,0s.29,0,.35-.11.29-1,.38-3h-1.86a10.11,10.11,0,0,1-.34,1.42,12,12,0,0,1,1.26.72Zm.16,5.28c.29,0,.34-.15.37-1.25a1.89,1.89,0,0,0,.69.31c-.08,1.33-.28,1.66-1,1.66h-1.22c-.82,0-1-.23-1-1V371.2h.76v2.64c0,.28,0,.32.37.32Zm-1.48-4.43a7.31,7.31,0,0,1,2,1.43l-.5.54a8.37,8.37,0,0,0-1.93-1.49Zm2.73,1.65a7.52,7.52,0,0,1,1.25,2.62l-.72.29a7.78,7.78,0,0,0-1.19-2.65Z"/><path class="cls-3" d="M237.94,373.87a10,10,0,0,0,1.78.14h2.82a2.53,2.53,0,0,0-.31.82h-2.55c-2.28,0-3.92-.4-4.92-2.26a5.92,5.92,0,0,1-1.64,2.46,4.19,4.19,0,0,0-.67-.55,6.37,6.37,0,0,0,2.06-4.48l.84.08c-.07.51-.16,1-.27,1.46a3.28,3.28,0,0,0,2,2.12V369h-2.73v-.77h6.37V369h-2.81v1.83h3.26v.76h-3.26Zm-4.17-5.31H233v-2.38h4.12v-1.25h.85v1.25h4.16v2.38h-.84V367h-7.49Z"/><path class="cls-3" d="M246.88,366.05h1.06l2.94,5.1.86,1.66h0c0-.82-.13-1.72-.13-2.56v-4.2h1v8.08h-1l-2.94-5.1-.86-1.66h-.05c.05.82.12,1.67.12,2.52v4.24h-1Z"/><path class="cls-3" d="M254.83,366.05h2.3c1.81,0,3,.62,3,2.38s-1.2,2.5-3,2.5h-1.33v3.2h-1Zm2.22,4.05c1.42,0,2.09-.52,2.09-1.67s-.72-1.54-2.14-1.54h-1.15v3.21Z"/><path class="cls-3" d="M261.31,370.07c0-2.59,1.42-4.16,3.45-4.16s3.44,1.57,3.44,4.16-1.42,4.2-3.44,4.2S261.31,372.65,261.31,370.07Zm5.85,0c0-2-1-3.27-2.4-3.27s-2.4,1.24-2.4,3.27.95,3.31,2.4,3.31S267.16,372.08,267.16,370.07Z"/><path class="cls-3" d="M274.22,369.69a9.14,9.14,0,0,0-2.17-1.07l.43-.63a9.4,9.4,0,0,1,2.18,1Zm.8,1.61c-.55,1.15-1.27,2.51-1.89,3.53l-.69-.53a33.92,33.92,0,0,0,2-3.53Zm-.25-4.5a8.72,8.72,0,0,0-2.14-1.2l.44-.6a7.81,7.81,0,0,1,2.16,1.13Zm6.67,8.19a6.84,6.84,0,0,0-.47-.94c-2.12.16-4.33.31-5.85.41l-.12-.82.91,0a25.36,25.36,0,0,0,1.32-3.31H275v-.78h3.06v-2h-2.51v-.77h2.51v-1.79h.83v1.79h2.61v.77h-2.61v2H282v.78H278.2c-.41,1-.92,2.3-1.41,3.25,1.14-.05,2.45-.13,3.74-.22a16.85,16.85,0,0,0-1.13-1.56l.69-.36a15.1,15.1,0,0,1,2.11,3.16Z"/><path class="cls-3" d="M288.43,365.26c0,.14,0,.32,0,.51.1,1.45.69,6.53,4.83,8.42a2.54,2.54,0,0,0-.61.67c-2.84-1.34-4-4.15-4.57-6.35a9.11,9.11,0,0,1-4.4,6.35,3,3,0,0,0-.66-.62c4.45-2.28,4.45-7.53,4.53-9Z"/><path class="cls-3" d="M294.57,373.86l-.52-.73a13.08,13.08,0,0,0,2.82-2.16l.5.66A14.41,14.41,0,0,1,294.57,373.86Zm4.21-.25c.51,0,1.11-.2,1.11-.91a4.6,4.6,0,0,0-1.41-2.41,11.64,11.64,0,0,0-.87-.83l.64-.57c.28.28.55.57.82.86,1,1.08,1.75,2,1.75,3.05,0,1.34-1.09,1.65-1.89,1.65a9.1,9.1,0,0,1-1.8-.18l-.12-.9A6.42,6.42,0,0,0,298.78,373.61Zm1.11-6.06a10.67,10.67,0,0,0-2.34-1.29l.51-.64a16.16,16.16,0,0,1,2.71,1.44l.2.58c-.25.22-.88.7-1.29,1l-.55-.52A8.44,8.44,0,0,0,299.89,367.55Zm1.63,2.75.72-.41a13.25,13.25,0,0,1,1.93,3.43l-.81.46A10.9,10.9,0,0,0,301.52,370.3Z"/><path class="cls-3" d="M308,366.06c.57,0,3.19-.09,3.77-.14a2.69,2.69,0,0,0,.6-.09l.5.64c-.2.14-.41.29-.61.45-.55.42-2.05,1.7-2.91,2.41a4.59,4.59,0,0,1,1.53-.23c1.83,0,3.14,1.1,3.14,2.58,0,1.78-1.46,2.92-3.79,2.92-1.49,0-2.41-.65-2.41-1.56a1.55,1.55,0,0,1,1.7-1.43,2.13,2.13,0,0,1,2.24,1.94,1.93,1.93,0,0,0,1.38-1.88c0-1.07-1-1.89-2.47-1.89-1.84,0-2.81.78-4.21,2.2l-.63-.65,3-2.46c.62-.51,2-1.66,2.55-2.16-.58,0-2.78.12-3.36.16-.25,0-.5,0-.73.06l0-.91A7.15,7.15,0,0,0,308,366.06Zm2.09,7.77a4.94,4.94,0,0,0,.89-.07,1.5,1.5,0,0,0-1.47-1.49.8.8,0,0,0-.88.7C308.62,373.5,309.22,373.83,310.08,373.83Z"/><path class="cls-3" d="M321.08,365.47l.93-.12a13.8,13.8,0,0,0,.51,1.88,14.25,14.25,0,0,0,2.45-.54l.1.86a16.14,16.14,0,0,1-2.28.45,12.24,12.24,0,0,0,1.24,2.27c.15.2.32.39.48.58l-.45.61a24.1,24.1,0,0,0-2.65-.29l.06-.74c.62.06,1.44.12,1.83.17a14.59,14.59,0,0,1-1.33-2.51,28.58,28.58,0,0,1-4.62,0l0-.89a23.52,23.52,0,0,0,4.34.14l-.32-1C321.28,366.1,321.18,365.75,321.08,365.47Zm-2.58,6.75c0,1,1,1.51,2.59,1.52a12.72,12.72,0,0,0,2.84-.27l-.05.88a16,16,0,0,1-2.83.24c-2.09,0-3.42-.77-3.42-2.27a4.41,4.41,0,0,1,.53-1.82l.86.19A2.87,2.87,0,0,0,318.5,372.22Z"/><path class="cls-3" d="M331.45,368.84c1-.63,2.22-1.21,2.83-1.54a7,7,0,0,0,.78-.52l.48.78c-.25.15-.52.3-.84.46a36.7,36.7,0,0,0-3.35,1.83c-1,.66-1.64,1.38-1.64,2.22s.87,1.48,2.61,1.48a16.39,16.39,0,0,0,3.52-.37v1a22,22,0,0,1-3.47.27c-2.07,0-3.57-.61-3.57-2.26a3.61,3.61,0,0,1,1.9-2.85c-.5-.9-1.08-2.19-1.59-3.39l.87-.36A24.3,24.3,0,0,0,331.45,368.84Z"/><path class="cls-3" d="M347.66,365.38V375h-.87v-.59h-7.43V375h-.82v-9.58Zm-.87,8.22v-7.41h-7.43v7.41Zm-1.6-5.7v4H341v-4Zm-.8.74h-2.66v2.51h2.66Z"/><path class="cls-3" d="M351.2,364.93h.73v4.39c0,2.17-.21,4.16-1.82,5.64a3.15,3.15,0,0,0-.6-.53c1.52-1.35,1.69-3.15,1.69-5.11Zm-1,6.44h-.69v-5.18h.69Zm8.69-2.24v1.78h-.76v-1.13h-2.26v1h2.24v2.6c0,.36-.06.56-.32.68a3.08,3.08,0,0,1-1.19.13,2.2,2.2,0,0,0-.21-.69h.81c.11,0,.14,0,.14-.14v-1.91h-1.47V375h-.77v-3.5h-1.35v2.78H353v-3.33h-.73v-1.78Zm-.83-.61h-5.18v-.63h4.41v-.73h-4v-.59h4v-.72H353v-.62h5.05Zm-3,1.26H353v1h2.09Z"/><path class="cls-3" d="M368.73,369.4a7.69,7.69,0,0,1-2.87,3.54,12.39,12.39,0,0,0,4.27,1.29,2.9,2.9,0,0,0-.52.77,12.11,12.11,0,0,1-4.54-1.57A14.75,14.75,0,0,1,360.5,375a2.6,2.6,0,0,0-.44-.77,14.78,14.78,0,0,0,4.27-1.27,8.21,8.21,0,0,1-2.28-2.8l.66-.23H361v-.8h3.68v-1.7h-4.17v-.79h4.17v-1.67h.84v1.67h4.19v.79h-4.19v1.7H368l.15,0Zm-5.92.49a6.94,6.94,0,0,0,2.29,2.59,6.56,6.56,0,0,0,2.45-2.59Z"/><path class="cls-3" d="M373.23,371.1V374c0,.45-.11.67-.39.8a3,3,0,0,1-1.36.15,3.45,3.45,0,0,0-.24-.76,8.28,8.28,0,0,0,1,0c.13,0,.19,0,.19-.19v-2.67q-.7.24-1.32.42L371,371l1.45-.43v-2.66H371.1v-.76h1.36v-2.2h.77v2.2h1.17v.76h-1.17v2.42l1.14-.36.11.73Zm7-.08a5.57,5.57,0,0,1-1.5,2.45,7.8,7.8,0,0,0,2.44.83,3.09,3.09,0,0,0-.5.7,7.39,7.39,0,0,1-2.57-1,7.27,7.27,0,0,1-2.4,1,2.51,2.51,0,0,0-.46-.61,7.41,7.41,0,0,0,2.24-.86,6.06,6.06,0,0,1-1.29-1.43,5.7,5.7,0,0,1-2.16,2.87,2.52,2.52,0,0,0-.56-.57,5.89,5.89,0,0,0,2.43-4.28h-1.5v-.69h1.61c0-.3.06-.6.08-.87H374.7v-.67h3.91a14.63,14.63,0,0,0,1-1.85l.77.25c-.31.53-.67,1.12-1,1.6h1.33v.67h-3.77c0,.27-.06.57-.09.87H381v.69h-4.29c0,.24-.09.5-.14.74h3.08l.14,0Zm.24-5.41a35.08,35.08,0,0,1-5.78.56,3.36,3.36,0,0,0-.2-.64A36.36,36.36,0,0,0,380,365Zm-4.86.71a10.5,10.5,0,0,1,.55,1.33l-.67.23a9,9,0,0,0-.52-1.4Zm1,5.17a5,5,0,0,0,1.46,1.59,4.18,4.18,0,0,0,1.16-1.59Zm.58-3.74a11.19,11.19,0,0,0-.29-1.5l.65-.11a11.79,11.79,0,0,1,.34,1.45Z"/><path class="cls-3" d="M385,369.37l-2.55.53-.16-.91c.49-.07,1.54-.25,2.71-.47v-1.89a6.77,6.77,0,0,0-.08-1h1a7,7,0,0,0-.07,1v1.72c1.87-.36,3.79-.76,4.26-.86a2.46,2.46,0,0,0,.58-.19l.65.5c-.08.11-.19.3-.27.44a16.44,16.44,0,0,1-2.25,3.2l-.77-.46a10.53,10.53,0,0,0,2-2.62l-4.16.84v3.28c0,.76.28,1,1.59,1a17.64,17.64,0,0,0,3.44-.32l-.05.95a24.23,24.23,0,0,1-3.45.21c-2.05,0-2.42-.52-2.42-1.61Z"/><path class="cls-3" d="M398.54,371.83a10.29,10.29,0,0,0,3.67-4.05l.53.93a10.84,10.84,0,0,1-3.69,3.92,12.11,12.11,0,0,1-4.33,1.71l-.58-.91A11.19,11.19,0,0,0,398.54,371.83Zm-.65-3.49-.69.69a23.38,23.38,0,0,0-2.74-2.3l.63-.67A23.54,23.54,0,0,1,397.89,368.34Z"/><path class="cls-3" d="M409,366.35a2.65,2.65,0,0,1-.23.39h3a2.12,2.12,0,0,0,.73-.11l.72.44a5.42,5.42,0,0,0-.26.6,11.09,11.09,0,0,1-1.72,3.42c.47.34.91.68,1.26,1l-.65.76c-.33-.3-.75-.64-1.2-1a10.39,10.39,0,0,1-4.19,2.79l-.8-.68a9.7,9.7,0,0,0,4.26-2.65c-.79-.57-1.62-1.15-2.33-1.59l.59-.6c.73.42,1.56.94,2.33,1.48a9.19,9.19,0,0,0,1.49-3h-3.72a12,12,0,0,1-2.91,2.91l-.74-.57a10.07,10.07,0,0,0,3.53-3.83,3.67,3.67,0,0,0,.35-.87l1,.32C409.3,365.78,409.1,366.15,409,366.35Z"/><path class="cls-3" d="M417.24,369.42h6a10.14,10.14,0,0,0,1.19-.06v1.08c-.22,0-.68-.05-1.18-.05h-6c-.61,0-1.19,0-1.53.05v-1.08C416,369.39,416.62,369.42,417.24,369.42Z"/><path class="cls-3" d="M429.58,367.42h-3.53v-.68h3.53Zm-2.43,6.9v.52h-.66v-3.68h2.81v3.16Zm2.15-5.44h-2.8v-.65h2.8Zm-2.8.8h2.8v.66h-2.8Zm2.78-3.72h-2.71v-.66h2.71Zm-2.13,5.87v1.83h1.47v-1.83Zm8.63,2.1c0,.48-.1.75-.41.88a5.13,5.13,0,0,1-1.66.14,3.63,3.63,0,0,0-.24-.8c.58,0,1.15,0,1.34,0s.22,0,.22-.23V366.1h-4.15v3.2c0,1.7-.12,4.12-1,5.73a2.81,2.81,0,0,0-.64-.45,11.26,11.26,0,0,0,.92-5.28v-3.92h5.65Zm-3.2-5v-1.05h-1.14v-.63h1.14v-.95h.67v.95h1.16v.63h-1.16v1.05h1.33v.63h-3.23v-.63Zm-.45,4.31v.42h-.62v-3.25h2.84v2.83Zm0-2.2v1.57h1.59V371Z"/><path class="cls-3" d="M437.9,370.58c.58-.58,1.51-1.84,2.15-2.61s1.23-.86,1.95-.12,1.51,1.77,2.2,2.51,1.76,1.89,2.75,2.78l-.7.79c-.84-.79-1.83-1.94-2.58-2.8s-1.56-1.85-2.06-2.42-.69-.44-1.06,0c-.52.62-1.43,1.83-2,2.52-.22.29-.47.65-.65.88l-.8-.84A6.36,6.36,0,0,0,437.9,370.58Zm7.35-2.12-.65.29a12.75,12.75,0,0,0-1-1.77l.62-.28A17.79,17.79,0,0,1,445.25,368.46Zm1.45-.59-.63.3a12,12,0,0,0-1.06-1.74l.61-.29A13.5,13.5,0,0,1,446.7,367.87Z"/><path class="cls-3" d="M457.42,364.71l.66.34a6.89,6.89,0,0,0,0,9.79l-.66.34a7.38,7.38,0,0,1,0-10.47Z"/><path class="cls-3" d="M459.07,373.53c2.37-2.35,3.7-3.76,3.7-5a1.38,1.38,0,0,0-1.48-1.53,2.29,2.29,0,0,0-1.68.94l-.58-.56a3.07,3.07,0,0,1,2.38-1.19,2.17,2.17,0,0,1,2.34,2.3c0,1.47-1.34,2.94-3.2,4.89.41,0,.9-.07,1.32-.07h2.27v.87h-5.07Z"/><path class="cls-3" d="M465.23,370.18c0-2.63,1-4,2.52-4s2.51,1.42,2.51,4-.95,4.09-2.51,4.09S465.23,372.81,465.23,370.18Zm4,0c0-2.3-.61-3.24-1.53-3.24s-1.54.94-1.54,3.24.62,3.29,1.54,3.29S469.28,372.48,469.28,370.18Z"/><path class="cls-3" d="M471.28,373.53c2.37-2.35,3.7-3.76,3.7-5a1.39,1.39,0,0,0-1.49-1.53,2.29,2.29,0,0,0-1.67.94l-.58-.56a3.07,3.07,0,0,1,2.38-1.19,2.17,2.17,0,0,1,2.34,2.3c0,1.47-1.34,2.94-3.2,4.89.41,0,.9-.07,1.32-.07h2.27v.87h-5.07Z"/><path class="cls-3" d="M477.87,373.29h1.79V367.5h-1.43v-.65a4.53,4.53,0,0,0,1.68-.57h.77v7h1.61v.84h-4.42Z"/><path class="cls-3" d="M496.21,372.45h-4V375h-.83v-2.52h-5.08v-.79h1.8v-3h3.28V367h-2.67a10.05,10.05,0,0,1-1.68,2.17,4.89,4.89,0,0,0-.7-.52,9.38,9.38,0,0,0,2.48-3.79l.82.19c-.15.39-.33.79-.5,1.16h6.55V367h-3.47v1.67h3.22v.77h-3.22v2.18h4Zm-4.81-.79v-2.18h-2.46v2.18Z"/><path class="cls-3" d="M500.47,373.29h1.8V367.5h-1.43v-.65a4.54,4.54,0,0,0,1.67-.57h.77v7h1.62v.84h-4.43Z"/><path class="cls-3" d="M506.15,370.18c0-2.63,1-4,2.52-4s2.51,1.42,2.51,4-.95,4.09-2.51,4.09S506.15,372.81,506.15,370.18Zm4.05,0c0-2.3-.62-3.24-1.53-3.24s-1.54.94-1.54,3.24.62,3.29,1.54,3.29S510.2,372.48,510.2,370.18Z"/><path class="cls-3" d="M523.46,373.78c0,.57-.16.85-.57,1a9,9,0,0,1-2.32.15,3.77,3.77,0,0,0-.34-.85c.91,0,1.79,0,2,0s.34-.08.34-.33v-2.2h-5.28a6.29,6.29,0,0,1-1.89,3.43,2.89,2.89,0,0,0-.61-.6c1.75-1.54,1.93-3.77,1.93-5.52V365.5h6.69Zm-.84-3v-1.85h-5a13.54,13.54,0,0,1-.12,1.85Zm-5-4.46v1.83h5V366.3Z"/><path class="cls-3" d="M526.63,375.18l-.66-.34a6.87,6.87,0,0,0,0-9.79l.66-.34a7.35,7.35,0,0,1,0,10.47Z"/><path class="cls-3" d="M262,380.82v.76h-2.66v6.36h-.81v-7.12Z"/><path class="cls-3" d="M268.34,383.2c-.12.35-.23.7-.36,1h3.49V391h-.83v-.62H265V391h-.81v-6.76h2.89a9.37,9.37,0,0,0,.26-1H263v-.76h2.84a9.18,9.18,0,0,0-.93-1.25l.71-.3a5.76,5.76,0,0,1,1,1.29l-.47.26h2.9a12.21,12.21,0,0,0,1-1.53l.89.23a12.26,12.26,0,0,1-1,1.3h2.77v.76Zm2.3,1.73H265V386h5.61Zm0,1.75H265v1.13h5.61Zm0,2.94v-1.17H265v1.17Z"/><path class="cls-3" d="M279.68,381.52a13,13,0,0,1-1.59,2.72h1.42V385h-2a13,13,0,0,1-1,1.06H279v4.74h-.78v-.5h-2.47v.65H275v-3.77c-.28.18-.58.36-.87.52a7.18,7.18,0,0,0-.52-.67,10.94,10.94,0,0,0,2.85-2h-2.61v-.73H276v-1.32h-1.68v-.73H276V381h.77v1.17h1.36v.61a11,11,0,0,0,.77-1.49Zm-1.45,5.19h-2.47v1.06h2.47Zm0,2.88v-1.16h-2.47v1.16Zm-1.09-5.35a13.89,13.89,0,0,0,1-1.32h-1.29v1.32Zm6.77-2.34c-.47,1-1.07,2.29-1.6,3.3a3.48,3.48,0,0,1,1.45,2.66,1.53,1.53,0,0,1-.56,1.43,1.59,1.59,0,0,1-.74.25,4.93,4.93,0,0,1-1,0,1.89,1.89,0,0,0-.24-.8,5,5,0,0,0,.93,0,1.21,1.21,0,0,0,.52-.13c.24-.13.33-.46.32-.86a3.29,3.29,0,0,0-1.5-2.47c.48-.94,1-2.1,1.35-3h-2.05V391H280v-9.42h3.22l.13,0Z"/><path class="cls-3" d="M294.41,381.4V391h-.8v-.46h-7.55V391h-.78V381.4Zm-.8,8.36v-7.61h-7.55v7.61Zm-2-4.15a3.85,3.85,0,0,0,1.59,1.33,2.38,2.38,0,0,0-.44.52,4.48,4.48,0,0,1-1.86-1.85h-2.1c-.13.19-.26.38-.41.56h2.84v1.68h-2.61v.67c0,.24.1.29.62.29h1.89c.38,0,.45-.1.49-.77a1.88,1.88,0,0,0,.59.21c-.06.9-.28,1.1-1,1.1h-2c-1,0-1.26-.15-1.26-.82v-1.18h2.63v-.69h-2.35v-.3a6.35,6.35,0,0,1-1.38,1.14,3.22,3.22,0,0,0-.48-.5,5.19,5.19,0,0,0,1.65-1.39h-1.41v-.54h1.77a5.06,5.06,0,0,0,.38-.73H287v-.53h.87a3.45,3.45,0,0,0-.56-1.07l.55-.18a3.61,3.61,0,0,1,.59,1.08l-.51.17h1a8,8,0,0,0,.34-1.36l.67.09c-.09.45-.19.88-.31,1.27h1.67l-.42-.14a9.77,9.77,0,0,0,.65-1.17l.63.19a9.89,9.89,0,0,1-.74,1.12h1.28v.53H291a6,6,0,0,0,.32.73h1.78v.54Zm-1-.54a5.8,5.8,0,0,1-.28-.73h-.91c-.1.25-.21.5-.33.73Z"/><path class="cls-3" d="M301.21,390.47l-.52-.82a7.16,7.16,0,0,0,.95-.14,3.32,3.32,0,0,0,2.79-3.27,3.06,3.06,0,0,0-2.94-3.19,20.78,20.78,0,0,1-.66,3.17c-.67,2.27-1.54,3.42-2.56,3.42s-2-1.12-2-2.93a4.69,4.69,0,0,1,4.81-4.48,4,4,0,0,1,4.21,4C305.33,388.59,303.82,390.13,301.21,390.47Zm-2.91-1.84c.52,0,1.1-.74,1.66-2.6a17.16,17.16,0,0,0,.62-3,3.85,3.85,0,0,0-3.41,3.57C297.17,388,297.81,388.63,298.3,388.63Z"/><path class="cls-3" d="M309,387.51c.4-.18.82-.36,1.25-.53l.17.73c-1.17.54-2.41,1.09-3.38,1.51l-.32-.81c.41-.14.94-.35,1.51-.59v-3.49h-1.41v-.78h1.41v-2.5H309v2.5h1.28v.78H309Zm6.34,2.47c.63,0,.74-.29.82-1.56a2.11,2.11,0,0,0,.74.32c-.13,1.5-.39,2-1.54,2h-2.7c-1.24,0-1.62-.3-1.62-1.47v-3.47l-.86.36-.32-.71,1.18-.5v-3h.79v2.65l1.47-.61v-3.06h.78v2.73l1.45-.61.18-.15.15-.12.58.22,0,.15a38.61,38.61,0,0,1-.11,4.12.73.73,0,0,1-.58.72,4.56,4.56,0,0,1-1,.08,2.65,2.65,0,0,0-.19-.71c.26,0,.61,0,.73,0s.28-.05.33-.29a31.8,31.8,0,0,0,.08-3.23l-1.53.64v4h-.78v-3.71l-1.47.63v3.81c0,.58.14.72.85.72Z"/><path class="cls-3" d="M322.22,383.59c0,.6-.08,1.2-.17,1.81h4.38s0,.26,0,.39c-.22,3.14-.44,4.35-.87,4.79a1.23,1.23,0,0,1-.93.36c-.39,0-1.1,0-1.84,0a1.77,1.77,0,0,0-.29-.79c.78.07,1.56.07,1.84.07s.41,0,.52-.12c.33-.28.54-1.36.72-3.9h-3.63a6.28,6.28,0,0,1-3.5,4.84,2.62,2.62,0,0,0-.58-.67c3-1.37,3.36-4.22,3.49-6.75H318v-.78h4.43V380.9h.83v1.91h4.51v.78Z"/><path class="cls-3" d="M332.5,387.6a10.91,10.91,0,0,0-1-1.37v4.71h-.79v-4.86a11.67,11.67,0,0,1-1.59,2.88,4.19,4.19,0,0,0-.41-.75,11.45,11.45,0,0,0,1.89-3.44h-1.68V384h1.79v-1.67c-.54.11-1.1.2-1.61.27a2.82,2.82,0,0,0-.25-.64,15.44,15.44,0,0,0,3.48-.88l.57.62a9.67,9.67,0,0,1-1.4.44V384h1.38v.77H331.5v.67c.34.29,1.28,1.25,1.5,1.51Zm6.38-1.33c-.93,2.76-3.25,4.1-5.89,4.7a2.9,2.9,0,0,0-.42-.69,8.7,8.7,0,0,0,3.34-1.32,8.61,8.61,0,0,0-1.57-1.19,11,11,0,0,1-1.08.63,2,2,0,0,0-.52-.56A7.09,7.09,0,0,0,336,385a9.08,9.08,0,0,1-2.75,1.28,2.88,2.88,0,0,0-.43-.66,7.94,7.94,0,0,0,2.66-1.17,9.15,9.15,0,0,0-1.37-1.1,11.2,11.2,0,0,1-1,.6,2.12,2.12,0,0,0-.53-.55,6.59,6.59,0,0,0,2.8-2.5l.81.14a5.79,5.79,0,0,1-.55.81h2l.16,0,.5.24A6.27,6.27,0,0,1,336,385l.82.15a8.7,8.7,0,0,1-.6.89h2l.16,0Zm-3.83-3.71a5.49,5.49,0,0,1-.43.4,9,9,0,0,1,1.42,1.09,5.15,5.15,0,0,0,1.22-1.49Zm.52,4.2a5.09,5.09,0,0,1-.64.57,7.61,7.61,0,0,1,1.59,1.17,5.36,5.36,0,0,0,1.31-1.74Z"/><path class="cls-3" d="M343.17,381.18a15.42,15.42,0,0,1-1.12,2.27v7.48h-.77v-6.3a12.1,12.1,0,0,1-1.22,1.45,5.38,5.38,0,0,0-.46-.79,12.25,12.25,0,0,0,2.81-4.34Zm6.72,8.63v.78h-7.08v-.78H346v-2.75h-2.53v-.78H346v-2.41H343.1v-.77h3.75a15,15,0,0,0-2.28-1.62l.54-.58a15,15,0,0,1,2.42,1.66l-.47.54h2.67v.77H346.8v2.41h2.61v.78H346.8v2.75Z"/><path class="cls-3" d="M354.74,385.25a9.33,9.33,0,0,1-1,1.37h2.1v-1.09h.79v1.09h3.16v2.75c0,.43-.08.63-.4.76a5.75,5.75,0,0,1-1.67.12,3.58,3.58,0,0,0-.27-.71h1.32c.17,0,.22,0,.22-.18v-2h-2.36V391h-.79v-3.63h-2.17v3h-.8v-2.82a8.89,8.89,0,0,1-1.58,1.13,3.42,3.42,0,0,0-.54-.61,8.72,8.72,0,0,0,3.05-2.79H351v-.72h3.25a8.59,8.59,0,0,0,.49-1.08c-.92.27-1.86.52-2.75.7a4.92,4.92,0,0,0-.56-.68,28.71,28.71,0,0,0,3.77-.9c-1-.36-2.12-.69-3.08-1l.56-.49c1.11.28,2.37.66,3.58,1.07a11.14,11.14,0,0,0,2.54-1.29l.67.45a12.9,12.9,0,0,1-2.19,1.21,23.78,23.78,0,0,1,2.54,1.05l-.61.6a24.29,24.29,0,0,0-2.95-1.26c-.35.14-.71.25-1.07.37l.47.13a10.41,10.41,0,0,1-.5,1.08h5.5v.72Z"/><path class="cls-3" d="M362.63,382.78h-.82v-.71h2.26v-1.14h.77v1.14h2.21v.71h-3.67v1.85c0,.33.08.45.37.45h1.87a4.39,4.39,0,0,0,.84-.07c0,.21.06.53.08.71a4.35,4.35,0,0,1-.91.06h-1.87c-.9,0-1.13-.31-1.13-1.16ZM371.7,390v.69H362V390h4.43v-1h-3.22v-.67h3.22v-.95h-3.69v-.69H371v.69h-3.79v.95h3.26v.67h-3.26v1Zm-3.62-5.39a3.52,3.52,0,0,1-1.3,1.83,1.8,1.8,0,0,0-.49-.54c1.25-.89,1.41-2.48,1.47-4.62h3.77s0,.23,0,.34c-.1,2.91-.21,3.92-.48,4.26a.8.8,0,0,1-.64.3,10.8,10.8,0,0,1-1.15,0,1.66,1.66,0,0,0-.18-.65c.44,0,.82,0,1,0a.31.31,0,0,0,.33-.13,1.92,1.92,0,0,0,.21-.83Zm2.57-.6c0-.22,0-.48.06-.77h-2.35a5.88,5.88,0,0,1-.13.77Zm-2.17-2.11c0,.26,0,.52-.05.77h2.3l0-.77Z"/><path class="cls-3" d="M378.59,385.18c-.57.4-1.16.79-1.77,1.14h4.55v4.6h-.84v-.31h-4.46V391h-.8v-3.8c-.66.32-1.34.61-2,.87a5.34,5.34,0,0,0-.52-.68,21.41,21.41,0,0,0,4.52-2.17H373v-.74h3.76V383h-2.8v-.73h2.8v-1.37h.81v1.37h2.72v.46a13.06,13.06,0,0,0,1.25-1.46l.69.38a17,17,0,0,1-2.67,2.76h3.17v.74Zm1.94,1.83h-4.46v1.09h4.46Zm0,2.89v-1.15h-4.46v1.15Zm-2.21-5.46A17.51,17.51,0,0,0,380,383h-2.44v1.41Z"/><path class="cls-3" d="M386,382.47a27.22,27.22,0,0,0-.55,4.43,11.36,11.36,0,0,0,.11,1.53c.18-.49.44-1.16.63-1.61l.45.35c-.26.77-.67,1.89-.78,2.43a1.68,1.68,0,0,0,0,.49c0,.11,0,.27,0,.39l-.77,0a13.24,13.24,0,0,1-.42-3.47,31.53,31.53,0,0,1,.51-4.63,7.37,7.37,0,0,0,.06-.79l1,.08A6.33,6.33,0,0,0,386,382.47Zm5.56-.15c0,.29,0,.81,0,1.33.67-.06,1.31-.15,1.9-.26v.85a18.71,18.71,0,0,1-1.9.21c0,1.11.08,2.21.13,3.14a7.27,7.27,0,0,1,2.17,1.41l-.48.74a8.44,8.44,0,0,0-1.66-1.27v.23c0,.9-.42,1.77-1.9,1.77s-2.29-.59-2.29-1.58.82-1.66,2.26-1.66a5.54,5.54,0,0,1,1,.1c0-.84-.1-1.92-.11-2.82l-1.06,0c-.62,0-1.2,0-1.85-.08v-.82c.63.05,1.21.08,1.87.08l1,0v-1.36a4.91,4.91,0,0,0-.05-.67h1Q391.54,382,391.52,382.32Zm-1.93,7.36c.93,0,1.2-.48,1.2-1.2,0-.11,0-.25,0-.39a3.75,3.75,0,0,0-1.12-.17c-.83,0-1.41.35-1.41.89S388.8,389.68,389.59,389.68Z"/><path class="cls-3" d="M398.29,386.47l-1.15.37V390c0,.46-.1.7-.38.84a3.72,3.72,0,0,1-1.45.14,3.15,3.15,0,0,0-.24-.78c.49,0,.95,0,1.09,0s.19,0,.19-.21v-2.89l-1.48.45-.18-.79c.45-.11,1-.28,1.66-.46v-2.4h-1.48v-.75h1.48v-2.2h.79v2.2h1.07v.75h-1.07v2.17l1.06-.31Zm6.58,3.92h-5V391h-.78V384.6a7.34,7.34,0,0,1-.82,1,4.21,4.21,0,0,0-.55-.68,9.71,9.71,0,0,0,2.18-4.06l.78.2A14.17,14.17,0,0,1,400,383h1.68a14.11,14.11,0,0,0,.75-2l.86.2c-.24.6-.54,1.28-.8,1.84h2.19v.73h-2.25v1.48h2v.7h-2v1.5h2v.71h-2v1.53h2.43Zm-3.18-6.67H399.9v1.48h1.79Zm0,2.18H399.9v1.5h1.79Zm-1.79,3.74h1.79v-1.53H399.9Z"/><path class="cls-3" d="M410.14,383.42h-4.33v-.68h4.33Zm-.44,6.92H407v.5h-.73v-3.68h3.39Zm-3.38-6.11h3.41v.65h-3.41Zm0,1.45h3.41v.66h-3.41Zm3.41-3.72h-3.35v-.66h3.35ZM407,387.83v1.85H409v-1.85Zm8.94-2.37h-2.46V391h-.81v-5.5h-2.58v-.8h2.58V381h.81v3.71H416Z"/><path class="cls-3" d="M419.41,389.17l.51-.66a2.68,2.68,0,0,0,2,.92,1.47,1.47,0,0,0,1.64-1.44c0-.93-.65-1.55-2.51-1.55v-.77c1.66,0,2.24-.65,2.24-1.47a1.23,1.23,0,0,0-1.37-1.25,2.34,2.34,0,0,0-1.67.8l-.54-.63a3.19,3.19,0,0,1,2.25-1c1.36,0,2.35.71,2.35,2a1.92,1.92,0,0,1-1.43,1.86v0a2.07,2.07,0,0,1,1.7,2,2.32,2.32,0,0,1-2.58,2.23A3.35,3.35,0,0,1,419.41,389.17Z"/><path class="cls-3" d="M425.74,386.18c0-2.63,1-4,2.52-4s2.51,1.42,2.51,4-.95,4.09-2.51,4.09S425.74,388.81,425.74,386.18Zm4.05,0c0-2.3-.62-3.24-1.53-3.24s-1.54.94-1.54,3.24.61,3.29,1.54,3.29S429.79,388.48,429.79,386.18Z"/><path class="cls-3" d="M431.94,389.44l.56-.62a1.68,1.68,0,0,0,1.29.61c1.1,0,2-.85,2.08-3.36a2.53,2.53,0,0,1-1.84,1,2.13,2.13,0,0,1-2.24-2.43,2.36,2.36,0,0,1,2.31-2.51c1.55,0,2.7,1.25,2.7,3.77,0,3.15-1.42,4.36-3,4.36A2.45,2.45,0,0,1,431.94,389.44Zm2.26-3.11a2.14,2.14,0,0,0,1.65-1.07c-.14-1.51-.75-2.33-1.75-2.33-.77,0-1.37.68-1.37,1.72S433.22,386.33,434.2,386.33Z"/><path class="cls-3" d="M444.69,382.55c0,.72-.06,1.48-.13,2.24h4.88s0,.29,0,.4c-.2,3.54-.37,4.85-.8,5.31a1.26,1.26,0,0,1-.94.4,15.09,15.09,0,0,1-1.93,0,1.6,1.6,0,0,0-.29-.8,18.11,18.11,0,0,0,1.92.09.65.65,0,0,0,.51-.14c.33-.3.52-1.51.67-4.42h-4.11a6.86,6.86,0,0,1-3.3,5.42,2.15,2.15,0,0,0-.6-.64c3.05-1.62,3.21-5,3.27-7.81h-3v-.8h9.57v.8Z"/><path class="cls-3" d="M457,381.26c0,.14,0,.32,0,.51.1,1.45.69,6.53,4.83,8.42a2.54,2.54,0,0,0-.61.67c-2.84-1.34-4.05-4.15-4.58-6.35a9,9,0,0,1-4.4,6.35,2.64,2.64,0,0,0-.66-.62c4.46-2.28,4.46-7.53,4.54-9Z"/><path class="cls-3" d="M462.53,391.07v-.76h2.66V384H466v7.11Z"/><path class="cls-3" d="M479,382.58c0,.3,0,.69,0,1.12.87,0,2.27-.07,3.26-.2l0,.83c-1,.1-2.38.16-3.29.18v.08c0,.73.06,1.8.11,2.75a8.82,8.82,0,0,1,3.42,1.87l-.52.84a7.87,7.87,0,0,0-2.86-1.83c0,.29,0,.54,0,.74,0,.9-.55,1.67-2,1.67s-2.64-.48-2.64-1.74c0-1,.87-1.8,2.78-1.8a5.82,5.82,0,0,1,.93.07c0-.89-.09-1.91-.09-2.57s0-1.54,0-2a5.15,5.15,0,0,0-.09-1.09h1.05C479.08,381.72,479,382.25,479,382.58Zm-1.93,7.23c.8,0,1.19-.38,1.19-1.14V388a5,5,0,0,0-1.08-.11c-1.14,0-1.79.4-1.79,1S476,389.81,477.1,389.81Z"/><path class="cls-3" d="M487.37,384.51c.45-1.13,1.59-2.5,3-2.5s2.51,1.46,2.51,3.77c0,3.06-1.91,4.4-4.64,4.9l-.52-.8c2.39-.35,4.26-1.33,4.26-4.09,0-1.74-.59-3-1.75-3-1.38,0-2.65,2-2.78,3.44a4.81,4.81,0,0,0,0,1.36l-.85.06a14.35,14.35,0,0,1-.12-1.75,29.5,29.5,0,0,1,.34-3.55c.05-.33.07-.65.09-.95l1,0A21.05,21.05,0,0,0,487.37,384.51Z"/><path class="cls-4" d="M221.84,148.66a27.26,27.26,0,0,1-1.64,5.83,19.81,19.81,0,0,1,2.06,3.24l-1.9,1.62a18.67,18.67,0,0,0-1.36-2.46,13.45,13.45,0,0,1-4.1,4.32,10.5,10.5,0,0,0-1.61-1.86,11.06,11.06,0,0,0,4.27-4.54c-1.06-1.42-2.24-2.84-3.35-4.06l1.71-1.35c.86.92,1.76,1.95,2.64,3a23.56,23.56,0,0,0,1-4Zm10.32.74H230v9c0,1.34-.24,2-1,2.42a8,8,0,0,1-3.6.52,9.8,9.8,0,0,0-.76-2.56c1.12.06,2.2,0,2.54,0s.48-.1.48-.42v-9h-5V148h-8.8v-2.2h3.48V142.7h2.28v3.06h3.7v1.36h4.36v-4.44H230v4.44h2.14Zm-7.8,1.59a15.7,15.7,0,0,1,2.22,4.22l-2.06,1.06a16.66,16.66,0,0,0-2.06-4.36Z"/><path class="cls-4" d="M243.94,146.06c-.18.62-.38,1.22-.54,1.8H251v13.51h-2.42v-1H237v1h-2.3V147.86h6.16c.12-.58.24-1.2.32-1.8h-7.3v-2.24h18v2.24ZM237,158.17h2.06v-8.11H237Zm7.24-8.11h-3.06v1.39h3.06Zm0,3.25h-3.06v1.52h3.06Zm-3.06,4.86h3.06v-1.48h-3.06Zm7.36-8.11h-2.16v8.11h2.16Z"/><path class="cls-4" d="M256.22,145.8c1.68-.14,5-.44,8.64-.74,2.06-.18,4.24-.3,5.66-.36l0,2.56a20.78,20.78,0,0,0-3.86.28,6.09,6.09,0,0,0-4.24,5.61c0,3.3,3.08,4.48,6.48,4.66l-.94,2.74c-4.2-.28-8.16-2.52-8.16-6.86a8,8,0,0,1,3-6.19c-1.88.2-6,.64-8.28,1.14l-.27-2.74C255.06,145.88,255.84,145.84,256.22,145.8ZM269.28,152l-1.52.68a15.88,15.88,0,0,0-1.56-2.79l1.48-.62A25,25,0,0,1,269.28,152Zm2.32-1-1.5.72a17.71,17.71,0,0,0-1.64-2.71l1.46-.68A28.7,28.7,0,0,1,271.6,151Z"/><path class="cls-4" d="M283.8,160.57l-1.5-2.38a15.38,15.38,0,0,0,1.86-.32,5.43,5.43,0,0,0,4.56-5.36c0-2.77-1.5-4.83-4.2-5.29a40.57,40.57,0,0,1-1.2,5.43c-1.2,4-2.92,6.52-5.1,6.52s-4.06-2.44-4.06-5.82a8.89,8.89,0,0,1,9.18-8.57c5,0,8.08,3.44,8.08,7.81C291.42,156.81,288.84,159.79,283.8,160.57Zm-5.5-4.48c.84,0,1.62-1.26,2.44-4a30.14,30.14,0,0,0,1.06-4.85,6.31,6.31,0,0,0-5.08,5.81C276.72,155.11,277.52,156.09,278.3,156.09Z"/><path class="cls-4" d="M299,150.25c.7.76,2.4,2.82,2.8,3.32l-1.36,1.94c-.3-.64-.88-1.58-1.44-2.48v8.32H296.7v-7.9a17.15,17.15,0,0,1-2.26,4.5,12.33,12.33,0,0,0-1.12-2.24,19.43,19.43,0,0,0,3.1-6.69h-2.59v-2.24h2.87v-4.1H299v4.1h2.5V149H299Zm12.58-6.49v17.31h-2.4v-1h-4.7v1.14h-2.28V143.76Zm-7.1,2.24v2.48h4.7V146Zm0,4.63v2.54h4.7v-2.54Zm4.7,7.26v-2.56h-4.7v2.56Z"/><path class="cls-4" d="M321.14,147.86h-7.6V146h7.6Zm-.64,12.45h-4.08v.78h-2v-6.82h6.08Zm0-9.72h-6v-1.83h6Zm-6,.92h6v1.78h-6Zm5.94-6.41h-5.88v-1.8h5.88Zm-4,11.05v2.3h2.06v-2.3Zm11.82-.28a6.83,6.83,0,0,0,4.1,3.5,18.79,18.79,0,0,0-1.36,2,7.4,7.4,0,0,1-4.32-4.4,8,8,0,0,1-4.76,4.4,10,10,0,0,0-1.3-1.94c3.82-1.34,4.84-4,4.84-5.3v-3h2.42v3a4.31,4.31,0,0,0,.38,1.68,21.62,21.62,0,0,0,1.58-3.46l2.34.72a38.47,38.47,0,0,1-2.1,3.44Zm-7.54.16a6.39,6.39,0,0,0,1.74-3.52l2.08.42a7.64,7.64,0,0,1-1.86,4.08Zm9.88-4.06a29.9,29.9,0,0,0-4-2.91,7.5,7.5,0,0,1-4.28,3.07,5.83,5.83,0,0,0-1.32-1.88c4.16-1.31,4.48-3.59,4.64-7.55h2.3a21.1,21.1,0,0,1-.5,4.36,41.58,41.58,0,0,1,4.74,3.1Zm-6-7.71A7.13,7.13,0,0,1,323,148l-1.86-.8a6.47,6.47,0,0,0,1.5-3.3Zm7.36.2c-.66,1.16-1.38,2.38-1.94,3.22l-1.76-.68a17.57,17.57,0,0,0,1.44-3.26Z"/><path class="cls-4" d="M35.16,180.54v1.54h3.48a4.87,4.87,0,0,0,1.66-.22L42,182.92a13.35,13.35,0,0,0-.4,1.6,18.63,18.63,0,0,1-1.86,5.66,12.71,12.71,0,0,1-8.16,6l-2.08-2.4a16.29,16.29,0,0,0,2.82-.78,9.79,9.79,0,0,0,4.54-3.42,11.87,11.87,0,0,0,1.78-5.14H28.76v2.92c0,.46,0,1.08.06,1.48H26.06a15.17,15.17,0,0,0,.1-1.68V183.7a12.77,12.77,0,0,0-.1-1.72,16.59,16.59,0,0,0,2,.1h4.28v-1.54a9.88,9.88,0,0,0-.16-1.84H35.3A14.54,14.54,0,0,0,35.16,180.54Z"/><path class="cls-4" d="M49.38,184.3h9.16a13.61,13.61,0,0,0,1.56-.1v2.52c-.5,0-1.1-.08-1.56-.08H55.12v6.44h4.36c.54,0,1.1-.08,1.52-.12v2.62a10.54,10.54,0,0,0-1.52-.1H48.42a11.81,11.81,0,0,0-1.64.1V193a15.45,15.45,0,0,0,1.64.12H52.5v-6.44H49.38c-.42,0-1.14,0-1.58.08V184.2A10.48,10.48,0,0,0,49.38,184.3Z"/><path class="cls-4" d="M80.58,180.82l-.74.3,1.28.84a6.53,6.53,0,0,0-.44,1.38,20.63,20.63,0,0,1-3,7.28,16,16,0,0,1-8,5.54l-2.18-2.4a13.11,13.11,0,0,0,7.84-4.7,12.57,12.57,0,0,0,2.34-5.64h-9.3c-.92,0-1.86,0-2.38.08v-2.82a22.27,22.27,0,0,0,2.38.16h9.26a8.39,8.39,0,0,0,.94,0c-.34-.66-.74-1.36-1.12-1.94l1.64-.68A26.38,26.38,0,0,1,80.58,180.82Zm2.86-.5-1.66.72a25.91,25.91,0,0,0-1.6-2.7l1.66-.66C82.34,178.4,83.06,179.62,83.44,180.32Z"/><path class="cls-4" d="M92.8,196.3l-2.14-2c3.86-1.34,5.56-3.06,5.56-8v-.76H91.48v2.72c0,.88.06,1.7.08,2.1h-2.8a16.17,16.17,0,0,0,.12-2.1v-2.72h-1.7c-1,0-1.72,0-2.16.08V182.9a13,13,0,0,0,2.16.18h1.7v-2c0-.58-.06-1.2-.12-1.8H91.6a12.22,12.22,0,0,0-.12,1.8v2h4.74V181a13.2,13.2,0,0,0-.12-1.86H99a12.6,12.6,0,0,0-.14,1.86v2.1h1.48a11.85,11.85,0,0,0,2.2-.14v2.66c-.44,0-1.14-.06-2.2-.06H98.82v.66C98.82,191.16,97.62,194.18,92.8,196.3Z"/><path class="cls-4" d="M113.84,183.68a25.64,25.64,0,0,0,5.64-4.86l2.16,2.06a36.68,36.68,0,0,1-5.38,4.34v8.08a13.75,13.75,0,0,0,.18,2.62h-3.16a22.4,22.4,0,0,0,.14-2.62v-6.4a40.08,40.08,0,0,1-7.06,2.88l-1.26-2.52A32.16,32.16,0,0,0,113.84,183.68Z"/><path class="cls-4" d="M130.14,181.62a13.88,13.88,0,0,0-.2-2.4h3.12a21.74,21.74,0,0,0-.18,2.4v3a65.32,65.32,0,0,1,8.36,3.1l-1.14,2.76a57.77,57.77,0,0,0-7.22-3v5.66c0,.58.1,2,.18,2.8h-3.12a22,22,0,0,0,.2-2.8Z"/><path class="cls-4" d="M146.6,185.4l1.8-.76c-.28-.6-.58-1.18-.88-1.7a16.91,16.91,0,0,0-1.18-1.76l2.6-1c.18.36.58,1.18.8,1.56.3.58.62,1.22.94,1.9,1.22-.54,2.44-1,3.6-1.42a32.71,32.71,0,0,0-2.76-2.56l1.84-1.28a30.92,30.92,0,0,1,2.9,2.56l-1.58,1.16a10.21,10.21,0,0,1,2.88-.48c3.1,0,5,1.88,5,4.2,0,2.8-1.92,4.58-5,4.58a9.84,9.84,0,0,1-3.08-.56l.06-2.52a7.56,7.56,0,0,0,2.78.68c1.5,0,2.6-.82,2.6-2.26,0-1-.9-1.84-2.4-1.84a16.4,16.4,0,0,0-5.88,1.8c.2.42.38.84.56,1.24.94,2.18,2.48,6.46,3.14,8.7l-2.74.72A62,62,0,0,0,149.9,188c-.18-.42-.36-.84-.54-1.24-1.44.72-2.7,1.4-3.56,1.78L144.62,186A16.66,16.66,0,0,0,146.6,185.4Z"/><path class="cls-4" d="M169.24,193.16l1.7-2a5.82,5.82,0,0,0,3.76,1.64c1.54,0,2.36-.66,2.36-1.7s-.9-1.44-2.22-2l-2-.84a4.29,4.29,0,0,1-3-4c0-2.42,2.12-4.28,5.12-4.28a6.57,6.57,0,0,1,4.64,1.9l-1.5,1.86A4.72,4.72,0,0,0,175,182.5c-1.3,0-2.12.58-2.12,1.56s1,1.44,2.3,1.94l1.94.82c1.8.74,3,1.88,3,4,0,2.42-2,4.48-5.44,4.48A7.89,7.89,0,0,1,169.24,193.16Z"/><path class="cls-4" d="M182.7,180.22h3l4.3,7.9,1.48,3.2h.1c-.14-1.54-.38-3.5-.38-5.18v-5.92H194V195h-3l-4.28-7.92-1.5-3.18h-.1c.14,1.6.36,3.46.36,5.16V195h-2.8Z"/><path class="cls-4" d="M196.69,193.16l1.71-2a5.82,5.82,0,0,0,3.76,1.64c1.54,0,2.36-.66,2.36-1.7s-.9-1.44-2.22-2l-2-.84a4.3,4.3,0,0,1-3-4c0-2.42,2.13-4.28,5.13-4.28a6.57,6.57,0,0,1,4.64,1.9l-1.5,1.86a4.72,4.72,0,0,0-3.14-1.22c-1.3,0-2.12.58-2.12,1.56s1,1.44,2.3,1.94l1.94.82c1.8.74,3,1.88,3,4,0,2.42-2,4.48-5.44,4.48A7.91,7.91,0,0,1,196.69,193.16Z"/><path class="cls-4" d="M216.21,181.22c1.69-.14,5-.44,8.65-.74,2.06-.18,4.24-.3,5.66-.36l0,2.56a20.78,20.78,0,0,0-3.86.28,6.08,6.08,0,0,0-4.24,5.6c0,3.3,3.08,4.48,6.48,4.66L228,196c-4.2-.28-8.16-2.52-8.16-6.86a8,8,0,0,1,3-6.18c-1.88.2-6,.64-8.29,1.14l-.26-2.74C215.05,181.3,215.83,181.26,216.21,181.22Zm13.07,6.14-1.52.68a15.43,15.43,0,0,0-1.56-2.78l1.48-.62A24.82,24.82,0,0,1,229.28,187.36Zm2.32-1-1.5.72a17.59,17.59,0,0,0-1.64-2.7l1.46-.68A29.92,29.92,0,0,1,231.6,186.38Z"/><path class="cls-4" d="M243.8,196l-1.5-2.38a15.38,15.38,0,0,0,1.86-.32,5.43,5.43,0,0,0,4.56-5.36,4.94,4.94,0,0,0-4.2-5.28,40.45,40.45,0,0,1-1.2,5.42c-1.2,4-2.92,6.52-5.11,6.52s-4.06-2.44-4.06-5.82c0-4.62,4-8.56,9.19-8.56,5,0,8.08,3.44,8.08,7.8S248.84,195.2,243.8,196Zm-5.51-4.48c.85,0,1.63-1.26,2.45-4a30,30,0,0,0,1.06-4.84,6.31,6.31,0,0,0-5.09,5.8C236.71,190.52,237.51,191.5,238.29,191.5Z"/><path class="cls-4" d="M253.27,187.26a26.15,26.15,0,0,0,.82-5.22l1.68.22a26.34,26.34,0,0,1-.78,5.58Zm18.89-2.84v1.7h-13.1v-1.7h5.3v-.86h-4.14l0,.1-1.56.76a16.72,16.72,0,0,0-.74-2.2v14.54h-2.15V178.1H258v3.2l1.14-.48a23.86,23.86,0,0,1,1.12,2.72V182h4.14v-.8h-4.68v-1.7h4.68V178.1h2.36v1.36h4.84v1.7h-4.84v.8H271v1.6h-4.3v.86Zm-1.34,10.08c0,1-.2,1.6-.92,1.92a7.65,7.65,0,0,1-3.08.34,7.88,7.88,0,0,0-.64-2c.82.06,1.76,0,2,0s.38-.08.38-.32v-.66h-6v3h-2.2v-9.92h10.42Zm-8.22-5.88v.94h6v-.94Zm6,3.54v-.92h-6v.92Z"/><path class="cls-4" d="M279.29,183.22h3.35v2H281l.78.2c-.34.74-.64,1.52-.92,2.12h1.5v2h-3v1.54h2.83v2h-2.83v3.64h-2.2v-3.64h-3v-2h3v-1.54H274v-2h1.5a11.39,11.39,0,0,0-.66-2.14l.72-.18h-2v-2h3.56v-1.38h-2.86v-2h2.86v-1.74h2.2v1.74h2.61v2h-2.61Zm-.29,4.14a20.64,20.64,0,0,0,.72-2.14h-3.05a9,9,0,0,1,.71,2.14l-.65.18h2.91Zm12.8-1.16a20.43,20.43,0,0,1-2.1,6.54,9.65,9.65,0,0,0,2.78,2.18,8.23,8.23,0,0,0-1.54,1.88,10.51,10.51,0,0,1-2.5-2.12,11,11,0,0,1-2.18,2.14,6.9,6.9,0,0,0-1.1-1.24v1.18H283V178.94h8.34v3.76c0,1-.22,1.6-1,1.92a9.27,9.27,0,0,1-3.3.34,8.16,8.16,0,0,0-.68-2c1,0,2.08,0,2.38,0s.4-.08.4-.3V181h-4v4.78H290l.4-.1Zm-6.64,8.66a10.36,10.36,0,0,0,1.92-2,19.78,19.78,0,0,1-1.92-4.32Zm1.68-7.18a15.05,15.05,0,0,0,1.42,3.1,14.53,14.53,0,0,0,1.06-3.1Z"/><path class="cls-4" d="M297.92,189.34V194c0,1.1-.18,1.68-.79,2a4.92,4.92,0,0,1-2.76.46,7.82,7.82,0,0,0-.62-2.18c.74,0,1.42,0,1.67,0s.33-.08.33-.34v-4l-1.84.52-.54-2.3c.68-.14,1.48-.36,2.38-.58v-3.54h-2.16v-2.2h2.16V178.1h2.17v3.78h2v2.2h-2v3l1.8-.48.32,2.14Zm9.1,5c.46,0,.9.06,1.4.06.68,0,3.16,0,4,0a7,7,0,0,0-.64,2.08h-3.48c-2.62,0-4.64-.48-6-2.9a8.8,8.8,0,0,1-2.08,3.14,13.65,13.65,0,0,0-1.76-1.42c1.66-1.32,2.48-3.54,2.78-6.26l2.16.26a18.18,18.18,0,0,1-.38,2,4.49,4.49,0,0,0,1.74,2.34v-5.22h-4.7v-1.92H311.9v1.92H307v1.76h3.82v1.86H307Zm3.88-8.76H301v-6.9h9.86Zm-2.28-5.22h-5.4v1h5.4Zm0,2.52h-5.4v1h5.4Z"/><path class="cls-4" d="M320,178.84a35.1,35.1,0,0,1-1.91,4.16v13.76h-2.34V186.62c-.42.54-.84,1-1.26,1.48a13.92,13.92,0,0,0-1.28-2.48,21.07,21.07,0,0,0,4.57-7.48Zm4.66,13.24a18.46,18.46,0,0,1-4,4.64,13.88,13.88,0,0,0-1.86-1.5,12.43,12.43,0,0,0,3.62-3.82Zm7.54-3.82v2.32h-13v-2.32h2.68v-4h-2.18V182h2.18v-3.74h2.32V182h2.9v-3.76h2.32V182H332v2.28h-2.6v4Zm-8,0h2.9v-4h-2.9Zm4.48,3.12a24.76,24.76,0,0,1,3.4,4.12l-2,1.26a22.88,22.88,0,0,0-3.3-4.34Z"/><path class="cls-4" d="M16.22,220.8h-2.1v-4.06h7.54V216H15.48v-1.76H30.22V216H24v.76h7.7v4.06h-2.2v-2.48H24v4.16H21.66v-4.16H16.22ZM29,230.32c1,0,1.18-.3,1.32-2a6.08,6.08,0,0,0,2,.76c-.28,2.4-.92,3.06-3.1,3.06H25c-2.74,0-3.5-.58-3.5-2.68v-.06H18.22v.88H16V223H29.8v6.38h-6v.06c0,.74.22.86,1.44.86ZM16.62,221h4.32v1.3H16.62Zm4.32-.7H17V219h3.94Zm-2.72,4.34v.88h3.32v-.88Zm3.32,3.18v-.86H18.22v.86Zm5.9-3.18H23.82v.88h3.62Zm0,3.18v-.86H23.82v.86Zm1.2-8.8v1.28h-3.9V219Zm-3.9,2H29.1v1.3H24.74Z"/><path class="cls-4" d="M33.54,216.9h7.6v1.88h-7.6Zm7,14.5H36.42v.78h-2v-6.82h6.16Zm-.1-9.86h-6v-1.78h6Zm-6,1h6v1.8h-6Zm6-6.6H34.6v-1.8h5.9Zm-4.08,11.3v2.28h2.14v-2.28ZM48,221.52v2.64h3.5v8H49.12v-.88H44.58v1H42.32v-8h3.26v-2.64h-4.3V219.3h4.3v-2.44c-1.12.14-2.26.24-3.32.32a7.78,7.78,0,0,0-.64-2,43.72,43.72,0,0,0,8.48-1.46l1.68,2a30.41,30.41,0,0,1-3.78.82v2.78h4.3v2.22Zm1.12,4.78H44.58v2.8h4.54Z"/><path class="cls-4" d="M65.44,222.86a2.56,2.56,0,1,1-2.56-2.56A2.58,2.58,0,0,1,65.44,222.86Z"/><path class="cls-4" d="M88.9,217.56A30.21,30.21,0,0,1,86.22,223a52.37,52.37,0,0,1,4.8,4.42L89,229.7a40.27,40.27,0,0,0-4.44-4.42,25,25,0,0,1-7.44,6.18l-2.25-2a22,22,0,0,0,7.61-5.9,55,55,0,0,0-5.4-3.8l1.7-2c1.6,1,3.7,2.42,5.32,3.62a20.74,20.74,0,0,0,2.22-4.76,12.47,12.47,0,0,0,.48-1.84l3,1C89.48,216.22,89.1,217.1,88.9,217.56Z"/><path class="cls-4" d="M97.94,221.32h10.74c.94,0,1.82-.08,2.34-.12v3.14c-.48,0-1.5-.1-2.34-.1H97.94c-1.14,0-2.48,0-3.22.1V221.2C95.44,221.26,96.9,221.32,97.94,221.32Z"/><path class="cls-4" d="M117.08,224.94c.56-1.72.58-5.5.58-7.92a7.59,7.59,0,0,0-.18-1.84h2.94a13.17,13.17,0,0,0-.14,1.82,44.13,44.13,0,0,1-.6,8.6,11.73,11.73,0,0,1-3.56,5.74l-2.45-1.62A9.4,9.4,0,0,0,117.08,224.94Zm6,3.6V216.88a8.87,8.87,0,0,0-.16-1.72h3a10.16,10.16,0,0,0-.14,1.74v10.46a12.67,12.67,0,0,0,4.94-4.22l1.54,2.2a22,22,0,0,1-6.78,5.46,4.27,4.27,0,0,0-.86.6L122.94,230A7.61,7.61,0,0,0,123.1,228.54Z"/><path class="cls-4" d="M145.44,222.86a2.56,2.56,0,1,1-2.56-2.56A2.58,2.58,0,0,1,145.44,222.86Z"/><path class="cls-4" d="M166.44,216.46c0,.44,0,.92,0,1.44H169a15.46,15.46,0,0,0,2.08-.16v2.66c-.64,0-1.4-.06-1.94-.06h-2.58c.06,2.92.14,6.26.18,9,0,1.28-.72,2-2.24,2-1.22,0-2.34,0-3.48-.12l-.22-2.6a17,17,0,0,0,2.66.24c.5,0,.7-.26.7-.84,0-1.34,0-3.34,0-5.4a27.5,27.5,0,0,1-8.16,6.76l-1.84-2.08a23.75,23.75,0,0,0,8.8-6.94h-5.46c-.72,0-1.58,0-2.28.08v-2.66a19.14,19.14,0,0,0,2.22.14H164q0-.78-.06-1.44c-.06-.86-.12-1.5-.2-2h2.84A17.11,17.11,0,0,0,166.44,216.46Z"/><path class="cls-4" d="M182.86,226a18.83,18.83,0,0,0,7.28-7.78L191.7,221a21.27,21.27,0,0,1-7.4,7.4,21.66,21.66,0,0,1-7.42,2.82l-1.68-2.64A20.61,20.61,0,0,0,182.86,226Zm0-6.46-2,2.08a41.58,41.58,0,0,0-5-4.32l1.88-2A40.39,40.39,0,0,1,182.86,219.5Z"/><path class="cls-4" d="M210.58,221.76a14.37,14.37,0,0,1-3,5.54,15,15,0,0,1-7.14,4.32l-2-2.26a13.49,13.49,0,0,0,6.92-3.5,8.68,8.68,0,0,0,2.06-3.46h-9.66c-.48,0-1.48,0-2.32.1v-2.6c.84.06,1.7.12,2.32.12h9.9a4.22,4.22,0,0,0,1.46-.2l1.78,1.1A7.41,7.41,0,0,0,210.58,221.76Zm-11.16-6.54h7.7a18.86,18.86,0,0,0,2.16-.1v2.58c-.54,0-1.48-.06-2.2-.06h-7.66c-.64,0-1.5,0-2.08.06v-2.58A16.86,16.86,0,0,0,199.42,215.22Z"/><path class="cls-4" d="M222.86,219.1a25.64,25.64,0,0,0,5.64-4.86l2.16,2.06a36.68,36.68,0,0,1-5.38,4.34v8.08a13.75,13.75,0,0,0,.18,2.62H222.3a22.4,22.4,0,0,0,.14-2.62v-6.4a40.08,40.08,0,0,1-7.06,2.88l-1.26-2.52A32.16,32.16,0,0,0,222.86,219.1Z"/><path class="cls-4" d="M242.86,226a18.83,18.83,0,0,0,7.28-7.78L251.7,221a21.27,21.27,0,0,1-7.4,7.4,21.66,21.66,0,0,1-7.42,2.82l-1.68-2.64A20.61,20.61,0,0,0,242.86,226Zm0-6.46-2,2.08a41.58,41.58,0,0,0-5-4.32l1.88-2A40.39,40.39,0,0,1,242.86,219.5Z"/><path class="cls-4" d="M256.22,216.64c1.68-.14,5-.44,8.64-.74,2.06-.18,4.24-.3,5.66-.36l0,2.56a20.78,20.78,0,0,0-3.86.28,6.08,6.08,0,0,0-4.24,5.6c0,3.3,3.08,4.48,6.48,4.66l-.94,2.74c-4.2-.28-8.16-2.52-8.16-6.86a8,8,0,0,1,3-6.18c-1.88.2-6,.64-8.28,1.14l-.27-2.74C255.06,216.72,255.84,216.68,256.22,216.64Zm13.06,6.14-1.52.68a15.43,15.43,0,0,0-1.56-2.78l1.48-.62A24.82,24.82,0,0,1,269.28,222.78Zm2.32-1-1.5.72a17.59,17.59,0,0,0-1.64-2.7l1.46-.68A29.92,29.92,0,0,1,271.6,221.8Z"/><path class="cls-4" d="M283.8,231.4,282.3,229a15.38,15.38,0,0,0,1.86-.32,5.43,5.43,0,0,0,4.56-5.36,4.94,4.94,0,0,0-4.2-5.28,40.45,40.45,0,0,1-1.2,5.42c-1.2,4-2.92,6.52-5.1,6.52s-4.06-2.44-4.06-5.82c0-4.62,4-8.56,9.18-8.56,5,0,8.08,3.44,8.08,7.8S288.84,230.62,283.8,231.4Zm-5.5-4.48c.84,0,1.62-1.26,2.44-4a30,30,0,0,0,1.06-4.84,6.3,6.3,0,0,0-5.08,5.8C276.72,225.94,277.52,226.92,278.3,226.92Z"/><path class="cls-4" d="M299,221.08c.7.76,2.4,2.82,2.8,3.32l-1.36,1.94c-.3-.64-.88-1.58-1.44-2.48v8.32H296.7v-7.9a17.15,17.15,0,0,1-2.26,4.5,12.33,12.33,0,0,0-1.12-2.24,19.46,19.46,0,0,0,3.1-6.68h-2.59v-2.24h2.87v-4.1H299v4.1h2.5v2.24H299Zm12.58-6.48v17.3h-2.4v-1h-4.7V232h-2.28V214.6Zm-7.1,2.24v2.48h4.7v-2.48Zm0,4.62V224h4.7v-2.54Zm4.7,7.26v-2.56h-4.7v2.56Z"/><path class="cls-4" d="M321.14,218.7h-7.6v-1.88h7.6Zm-.64,12.44h-4.08v.78h-2V225.1h6.08Zm0-9.72h-6V219.6h6Zm-6,.92h6v1.78h-6Zm5.94-6.4h-5.88v-1.8h5.88Zm-4,11v2.3h2.06V227Zm11.82-.28a6.83,6.83,0,0,0,4.1,3.5,18.79,18.79,0,0,0-1.36,2,7.4,7.4,0,0,1-4.32-4.4,8,8,0,0,1-4.76,4.4,10,10,0,0,0-1.3-1.94c3.82-1.34,4.84-4,4.84-5.3v-3h2.42v3a4.31,4.31,0,0,0,.38,1.68,21.62,21.62,0,0,0,1.58-3.46l2.34.72a38.47,38.47,0,0,1-2.1,3.44Zm-7.54.16a6.39,6.39,0,0,0,1.74-3.52l2.08.42a7.64,7.64,0,0,1-1.86,4.08Zm9.88-4.06a29.94,29.94,0,0,0-4-2.9A7.53,7.53,0,0,1,322.3,223a5.83,5.83,0,0,0-1.32-1.88c4.16-1.3,4.48-3.58,4.64-7.54h2.3a21.1,21.1,0,0,1-.5,4.36,41.58,41.58,0,0,1,4.74,3.1Zm-6-7.7a7.13,7.13,0,0,1-1.58,3.7l-1.86-.8a6.47,6.47,0,0,0,1.5-3.3Zm7.36.2c-.66,1.16-1.38,2.38-1.94,3.22l-1.76-.68a17.57,17.57,0,0,0,1.44-3.26Z"/><path class="cls-3" d="M261.71,260.61c0,.35,0,.73,0,1.13a20.08,20.08,0,0,0,2.95-.57l.05,2c-.92.21-2,.37-3.06.5,0,.48,0,1,0,1.44v.59a13.4,13.4,0,0,1,3.08-.42c2.46,0,4.4,1.28,4.4,3.49,0,1.89-1,3.32-3.54,4a15,15,0,0,1-2.1.25l-.73-2.06a13.19,13.19,0,0,0,2-.11c1.29-.24,2.32-.88,2.32-2.05s-1-1.73-2.36-1.73a10.76,10.76,0,0,0-3,.45c0,1.26.07,2.51.07,3.05,0,2-.71,2.52-1.76,2.52-1.56,0-3.75-1.35-3.75-3,0-1.4,1.6-2.85,3.57-3.7,0-.39,0-.77,0-1.14v-1.34l-.84,0a20.47,20.47,0,0,1-2.24-.08l0-1.94a18.37,18.37,0,0,0,2.21.13l.93,0c0-.56,0-1,0-1.3a12.55,12.55,0,0,0-.12-1.41h2.21C261.81,259.5,261.74,260.19,261.71,260.61Zm-2.4,10.22c.29,0,.51-.12.51-.67s0-1.14-.05-2c-1,.53-1.63,1.18-1.63,1.75S258.89,270.83,259.31,270.83Zm11-7.63-1,1.63a25.28,25.28,0,0,0-3.85-2.34l.88-1.55A33.08,33.08,0,0,1,270.35,263.2Z"/><path class="cls-3" d="M283.84,269c-.61.88-1.23,1.85-1.79,2.53h3.62v1.63H272.12v-1.63h3.13a11.34,11.34,0,0,0-1.33-2.58l1.45-.63h-2.45v-1.63h4.87v-1.58h-3v-.79a19,19,0,0,1-2.38,1.49,7.61,7.61,0,0,0-1.18-1.54,16.87,16.87,0,0,0,6.46-5.65h2a16.35,16.35,0,0,0,6.83,5.46,9.07,9.07,0,0,0-1.26,1.72,20.32,20.32,0,0,1-2.43-1.53v.84h-3.06v1.58h4.93v1.63h-4.93v3.21h1.75l-1-.44A17.7,17.7,0,0,0,282,268.3Zm-8.37-.68a10.76,10.76,0,0,1,1.47,2.65l-1.31.56h2.16V268.3Zm6.29-4.88a17.49,17.49,0,0,1-2.95-3,16.46,16.46,0,0,1-2.83,3Z"/><path class="cls-3" d="M295.61,273l-1.2-1.9a12.53,12.53,0,0,0,1.49-.26,4.34,4.34,0,0,0,3.65-4.29,4,4,0,0,0-3.36-4.22,32.15,32.15,0,0,1-1,4.33c-1,3.24-2.34,5.22-4.08,5.22s-3.25-1.95-3.25-4.66a7.12,7.12,0,0,1,7.35-6.85,6.1,6.1,0,0,1,6.46,6.25C301.71,270,299.65,272.34,295.61,273Zm-4.4-3.58c.67,0,1.3-1,2-3.17a24.43,24.43,0,0,0,.84-3.88A5,5,0,0,0,290,267C290,268.59,290.59,269.38,291.21,269.38Z"/><path class="cls-3" d="M307.76,264.7c.56.61,1.92,2.26,2.24,2.66l-1.09,1.55a22.77,22.77,0,0,0-1.15-2v6.66h-1.83v-6.33a13.65,13.65,0,0,1-1.81,3.61,9.14,9.14,0,0,0-.89-1.8,15.51,15.51,0,0,0,2.48-5.34h-2.07v-1.8h2.29v-3.28h1.83v3.28h2v1.8h-2Zm10.07-5.18v13.84H315.9v-.81h-3.76v.91h-1.82V259.52Zm-5.69,1.79v2h3.76v-2Zm0,3.7v2h3.76v-2Zm3.76,5.81v-2.05h-3.76v2.05Z"/><path class="cls-3" d="M325.49,262.8H319.4v-1.51h6.09Zm-.52,9.95h-3.26v.63h-1.6v-5.46H325Zm0-7.77h-4.8v-1.46H325Zm-4.8.73H325v1.43h-4.8Zm4.75-5.12H320.2v-1.44h4.71Zm-3.2,8.83v1.85h1.65v-1.85Zm9.46-.22a5.43,5.43,0,0,0,3.28,2.8,14.34,14.34,0,0,0-1.09,1.62,5.92,5.92,0,0,1-3.46-3.52,6.38,6.38,0,0,1-3.81,3.52,7.65,7.65,0,0,0-1-1.55c3.06-1.08,3.88-3.17,3.88-4.25v-2.41h1.93v2.41a3.35,3.35,0,0,0,.31,1.35,17.3,17.3,0,0,0,1.26-2.77l1.88.58a31.11,31.11,0,0,1-1.69,2.75Zm-6,.13a5.11,5.11,0,0,0,1.4-2.82l1.66.34a6.09,6.09,0,0,1-1.49,3.26Zm7.91-3.25a23.74,23.74,0,0,0-3.2-2.32,6.07,6.07,0,0,1-3.43,2.45,4.62,4.62,0,0,0-1.05-1.51c3.33-1,3.58-2.86,3.71-6h1.84a16.76,16.76,0,0,1-.4,3.49,34.45,34.45,0,0,1,3.8,2.48Zm-4.77-6.16a5.79,5.79,0,0,1-1.26,3l-1.49-.64a5.25,5.25,0,0,0,1.2-2.64Zm5.89.16c-.53.93-1.1,1.9-1.55,2.57l-1.41-.54a13.53,13.53,0,0,0,1.15-2.61Z"/><path class="cls-3" d="M226.2,303a12.24,12.24,0,0,1-1.61,4.1,10.18,10.18,0,0,0-1.41-1.06,9,9,0,0,0,1.3-3.41Zm5.19-6.35h-7.78v-1.73h2.93v-1.81h1.94v1.81h2.91ZM228.51,302v4.1c0,.8-.14,1.28-.69,1.57a4.49,4.49,0,0,1-2.13.3,6.35,6.35,0,0,0-.56-1.71h1.3c.19,0,.25,0,.25-.22V302h-2.33v-4.5h6.37V302Zm-2.43-1.57h2.8v-1.36h-2.8Zm10.61,5.62a.36.36,0,0,0,.27-.1.6.6,0,0,0,.14-.36,14.27,14.27,0,0,0,.05-1.81,4.1,4.1,0,0,0,1.36.75,12.76,12.76,0,0,1-.2,2.19,1.42,1.42,0,0,1-.55.87,1.77,1.77,0,0,1-1,.27h-.92a1.61,1.61,0,0,1-1.16-.42c-.28-.28-.36-.59-.36-1.61v-3.17a10.81,10.81,0,0,1-2.92,5.39,8.4,8.4,0,0,0-1.61-1.12,8.38,8.38,0,0,0,1.44-1.73l-1.49.56a15.44,15.44,0,0,0-.95-2.8l1.49-.51a14,14,0,0,1,1,2.66,13.31,13.31,0,0,0,1.71-6.28h-1.76V297h1.81v-3.95h1.83V297h3.39v1.81h-3.43c0,.23,0,.45,0,.67h1.24v6.2a.38.38,0,0,0,.07.24.31.31,0,0,0,.25.11Zm0-9.33a9.12,9.12,0,0,0-1.54-2.64l1.47-.67a8.15,8.15,0,0,1,1.65,2.54Z"/><path class="cls-3" d="M254.21,300.46a15.73,15.73,0,0,1-1.78,4.12c.15.77.32,1.2.51,1.21s.32-.73.39-2a5.53,5.53,0,0,0,1.23,1.06c-.4,2.59-1.15,3.15-1.7,3.15-.72,0-1.24-.65-1.63-1.82a11,11,0,0,1-2.1,1.87,8.68,8.68,0,0,0-1.08-1.25,9.18,9.18,0,0,0,1.13-.8h-2.4v.93h-1.45v-6.69h4.4v5.27a9,9,0,0,0,1.05-1.24,44.13,44.13,0,0,1-.43-4.73h-5.62v-1.48h1a8.61,8.61,0,0,0-.35-1.9l.93-.23h-1.27v-.59h-.6V308h-1.59v-2.74l-3.23.67-.32-1.74c.29,0,.61-.08.94-.14v-8.73h-.62v-1.66h5.49v.86h1.57V293.1h1.61v1.44h1.64v1.39h-1.38l1.09.21c-.24.69-.47,1.41-.64,1.92h1.28c0-1.52-.08-3.2-.1-5h1.67v1.2l1-.55a10,10,0,0,1,1.55,2.55l-1.31.73a11,11,0,0,0-1.26-2.33c0,1.18,0,2.3,0,3.37h2.47v1.48H252c0,.84.08,1.63.14,2.35a14,14,0,0,0,.58-1.76Zm-11.35-5.12H241.8v1.73h1.06Zm0,3.27H241.8v1.73h1.06Zm0,5v-1.75H241.8v1.94Zm3.76-7.69a7.12,7.12,0,0,1,.42,2l-.72.17h2.29l-.82-.17a16.27,16.27,0,0,0,.42-2Zm.16,5.62v1h1.47v-1Zm1.47,3.16v-1h-1.47v1Z"/><path class="cls-3" d="M263.61,307.38l-1.2-1.91a12.73,12.73,0,0,0,1.49-.25,4.34,4.34,0,0,0,3.65-4.29,4,4,0,0,0-3.36-4.23,32.27,32.27,0,0,1-1,4.34c-1,3.23-2.34,5.22-4.08,5.22s-3.25-1.95-3.25-4.66a7.11,7.11,0,0,1,7.35-6.85,6.09,6.09,0,0,1,6.46,6.24C269.71,304.37,267.65,306.76,263.61,307.38Zm-4.4-3.59c.67,0,1.3-1,2-3.17a24.07,24.07,0,0,0,.84-3.87,5,5,0,0,0-4.06,4.64C258,303,258.59,303.79,259.21,303.79Z"/><path class="cls-3" d="M278.59,294.59c0,.27-.11.56-.16.88a28.58,28.58,0,0,0,5.44-.7l0,1.85a43.86,43.86,0,0,1-5.68.56c0,.48-.1,1-.12,1.46a10.7,10.7,0,0,1,2.39-.29h.29a8.24,8.24,0,0,0,.14-1l1.95.47c-.06.17-.19.51-.28.81a4.15,4.15,0,0,1,3.09,3.92c0,2.28-1.33,4.47-5.27,5.06L279.34,306c3.09-.34,4.34-1.9,4.34-3.47a2.38,2.38,0,0,0-1.66-2.24,12.36,12.36,0,0,1-3.37,4.86c.12.4.24.8.37,1.19l-1.84.56c-.06-.21-.14-.44-.21-.66a5.75,5.75,0,0,1-2.48.64,2.07,2.07,0,0,1-2.16-2.32c0-2.06,1.7-4.21,3.94-5.27,0-.68.08-1.36.14-2h-.51c-.83,0-2.08-.07-2.83-.1l-.05-1.86a21.81,21.81,0,0,0,2.94.23h.65c0-.31.06-.59.09-.87a7.82,7.82,0,0,0,0-1l2.08.05C278.72,294.06,278.65,294.35,278.59,294.59ZM275,304.9a3.38,3.38,0,0,0,1.6-.53,21.49,21.49,0,0,1-.34-3.2,4.18,4.18,0,0,0-2,2.94C274.22,304.63,274.44,304.9,275,304.9Zm3.26-1.86a9.93,9.93,0,0,0,2-3.06,7.79,7.79,0,0,0-2.21.36v0A16.62,16.62,0,0,0,278.22,303Z"/><path class="cls-3" d="M290.86,299.42a22.86,22.86,0,0,1,5.75-1.24c2.53,0,4.22,1.5,4.22,3.92,0,2.89-2.54,4.86-7.63,5.18l-.85-2c3.66-.09,6.35-1.07,6.35-3.24a2,2,0,0,0-2.28-2c-1.86,0-5.06,1.33-6.42,1.91l-.84-2.08C289.64,299.76,290.38,299.57,290.86,299.42Z"/><path class="cls-3" d="M315,295.45c0,.63,0,1.2,0,1.73l1.2-.08c.45,0,1.07-.06,1.54-.11v2c-.27,0-1.12,0-1.54,0L315,299a28,28,0,0,1-.24,3.2c-.18.85-.58,1.06-1.39,1.06a24.18,24.18,0,0,1-2.42-.24l0-1.78a8.6,8.6,0,0,0,1.47.21c.32,0,.47-.07.5-.37a17.48,17.48,0,0,0,.12-1.94c-1.42.12-3,.26-4.35.4,0,1.48,0,2.95,0,3.64,0,1.57.18,1.92,2.58,1.92a31.89,31.89,0,0,0,4.78-.4l-.08,2.18c-1.07.12-3,.25-4.56.25-4.14,0-4.64-.86-4.72-3.63,0-.69,0-2.24,0-3.73l-1.07.11c-.51.06-1.5.22-1.92.29l-.22-2c.46,0,1.2,0,2-.11l1.22-.11v-1.62a12.41,12.41,0,0,0-.13-1.78h2.26a10.63,10.63,0,0,0-.1,1.67c0,.36,0,.91,0,1.53l4.37-.4v-1.81a12.86,12.86,0,0,0-.12-1.47h2.15C315.09,294.32,315,295,315,295.45Z"/><path class="cls-3" d="M327.6,295.49c-.79,1.15-1.91,3.2-2.71,4.61a3.72,3.72,0,0,1,1.84-.48,1.91,1.91,0,0,1,2,2.08c0,.72,0,2,.06,2.67a.93.93,0,0,0,1,.86c1.4,0,2.24-1.79,2.71-3.77l1.73,1.41c-.84,2.73-2.32,4.56-4.77,4.56a2.39,2.39,0,0,1-2.68-2.23c-.06-.85,0-2.16-.09-2.81a.88.88,0,0,0-1-.9c-1.08,0-2,1.12-2.56,2.42a34.2,34.2,0,0,0-1.21,3.57l-2.26-.77c1.18-3.2,4.47-9.73,5.31-11.26.21-.43.52-1,.79-1.63l2.27.91Z"/><path class="cls-3" d="M664.27,38.29H87.73A19.15,19.15,0,0,1,87.73,0H664.27a19.15,19.15,0,0,1,0,38.29Z"/><path class="cls-5" d="M93.24,21.77a17.53,17.53,0,0,0-1.2-2v7.8h-2.3V20.37a17.77,17.77,0,0,1-2.18,4,11.81,11.81,0,0,0-1.1-2.26,19.54,19.54,0,0,0,3-5.36H86.88V14.49h2.86V12.17c-.84.16-1.66.3-2.44.4a8.24,8.24,0,0,0-.66-1.82,28.59,28.59,0,0,0,6.2-1.66l1.58,1.82a20.85,20.85,0,0,1-2.38.76v2.82h2.14v2.22H92v.58c.54.44,2.18,2.18,2.56,2.62Zm12.1-2.86c-1.6,5.18-5.5,7.58-10.56,8.72a8.49,8.49,0,0,0-1.18-2,15.39,15.39,0,0,0,5.32-1.88,15,15,0,0,0-2-1.52c-.46.3-.94.58-1.44.86a6.73,6.73,0,0,0-1.44-1.66,11.58,11.58,0,0,0,4.8-3.92A18.62,18.62,0,0,1,95.2,19,8.64,8.64,0,0,0,94,17.09a14.48,14.48,0,0,0,4.1-1.6,13.86,13.86,0,0,0-1.78-1.42c-.44.28-.9.58-1.4.84a7.74,7.74,0,0,0-1.48-1.64,10.78,10.78,0,0,0,5-4.36l2.32.42a11.49,11.49,0,0,1-.86,1.32h2.68l.38-.1,1.52.68a11.26,11.26,0,0,1-4.38,5.54l1.62.28a13.36,13.36,0,0,1-.82,1.34h2.52l.42-.08ZM98.2,12.55c-.12.12-.26.24-.4.36a12.55,12.55,0,0,1,1.92,1.42,8.28,8.28,0,0,0,1.58-1.78Zm1.06,7.78c-.2.2-.42.4-.64.6a15.8,15.8,0,0,1,2.06,1.46,8.43,8.43,0,0,0,1.58-2.06Z"/><path class="cls-5" d="M113.32,9.65a32.44,32.44,0,0,1-1.86,3.86v14H109.2V17a19.48,19.48,0,0,1-1.66,1.88,15.41,15.41,0,0,0-1.24-2.42,21.28,21.28,0,0,0,4.82-7.48Zm12.08,15v2.24H112.5V24.69h5.32v-4H113.6V18.47h4.22V15H113V12.75h5.68a30.05,30.05,0,0,0-3.34-2.2l1.58-1.7a28,28,0,0,1,4.52,2.9l-.88,1h4.58V15h-4.86v3.48h4.32v2.24h-4.32v4Z"/><path class="cls-5" d="M131.38,12.29a53,53,0,0,0-1,7.34,9.65,9.65,0,0,0,.08,1.3c.3-.68.62-1.38.9-2l1.24,1c-.56,1.66-1.22,3.84-1.44,4.9a6,6,0,0,0-.1.94c0,.22,0,.54,0,.82l-2.32.16a25.57,25.57,0,0,1-.78-6.54,55.77,55.77,0,0,1,.84-7.92c.06-.56.18-1.32.2-2l2.8.24C131.72,10.93,131.46,11.93,131.38,12.29Zm4.94,9.78c0,.88.76,1.42,2.8,1.42a23.64,23.64,0,0,0,5-.52l0,2.7a28.32,28.32,0,0,1-5.16.38c-3.44,0-5.1-1.22-5.1-3.28a12.22,12.22,0,0,1,.34-2.6l2.3.22A6.79,6.79,0,0,0,136.32,22.07Zm7.24-10.24v2.58a53.68,53.68,0,0,1-8.6,0V11.85A41.13,41.13,0,0,0,143.56,11.83Z"/><path class="cls-5" d="M164.3,24.79c0,1.3-.28,2-1.12,2.36a10.56,10.56,0,0,1-3.92.42,8.22,8.22,0,0,0-.78-2.4c1.18.08,2.52.06,2.92,0s.5-.1.5-.46V14.55H150.14v13h-2.38V12.23h5.52a27.78,27.78,0,0,0,1.06-3.34l3,.42c-.42,1-.92,2-1.4,2.92h8.34Zm-10.06-1.48v1.4H152.1V16.49h7.8v6.82Zm0-4.74v2.66h3.48V18.57Z"/><path class="cls-5" d="M171.14,11.89c-.5,2.22-1.2,6.42-.66,8.9.26-.62.62-1.58,1-2.32l1.24.8a49.36,49.36,0,0,0-1.36,4.88,4.51,4.51,0,0,0-.12,1c0,.2,0,.54,0,.82l-2.22.22a21.75,21.75,0,0,1-1.14-6.48,56.16,56.16,0,0,1,.64-8,13.56,13.56,0,0,0,.14-1.74l3,.3A15.94,15.94,0,0,0,171.14,11.89Zm10.32-.6v2.56a26.31,26.31,0,0,0,3-.36l0,2.6c-.8.1-1.84.18-3,.24v.84c0,4.72-.36,7.62-4.36,10.16l-2.3-1.82a7.76,7.76,0,0,0,2.32-1.6c1.54-1.6,1.86-3.38,1.86-6.76v-.72c-.76,0-1.5,0-2.24,0s-2.1-.06-3.08-.1V13.83a21,21,0,0,0,3,.22c.72,0,1.5,0,2.26,0,0-1.12,0-2.16-.08-2.7a9.53,9.53,0,0,0-.22-1.38h2.9C181.5,10.37,181.48,10.85,181.46,11.29Z"/><path class="cls-5" d="M189.4,12l8.62-.76c2.06-.16,4.26-.3,5.66-.34l0,2.56a22.63,22.63,0,0,0-3.86.26,6.08,6.08,0,0,0-4.22,5.62c0,3.28,3.08,4.48,6.46,4.66l-.94,2.74C197,26.43,193,24.17,193,19.85a8.05,8.05,0,0,1,3-6.18c-1.88.2-6,.64-8.28,1.14l-.26-2.74C188.22,12.05,189,12,189.4,12Z"/><path class="cls-5" d="M225.22,16.75v2.58h-18.4V16.75Z"/><path class="cls-5" d="M233.18,18a18.15,18.15,0,0,1-4.06,4.74A14.71,14.71,0,0,0,227,21.21a12.34,12.34,0,0,0,3.72-4Zm1.7-1h-7.82V14.77h2.68V10.25h2.42v4.52h2.7V8.91h2.42v1.88H243v2.12h-5.76v1.86H245V17h-7.74v3.72c0,1.08-.22,1.68-1,2a9.53,9.53,0,0,1-3.3.32,8.44,8.44,0,0,0-.72-2.14c.88,0,2,0,2.26,0s.4-.08.4-.28ZM243,22.77a11,11,0,0,0-1.18-1.68c-2,4.34-5.9,5.88-12.12,6.64a7,7,0,0,0-1.14-2.32c5.72-.42,9.3-1.6,10.94-5.34l1.92.54a28.89,28.89,0,0,0-2.2-2.22l1.94-1.22a21.29,21.29,0,0,1,3.94,4.24Z"/><path class="cls-5" d="M251.9,23q1.14-.3,2.28-.66l.26,2c-2.54.86-5.28,1.72-7.34,2.38l-.52-2.24.78-.2V17.65h1.74v6.16l.88-.24V16.21h-2.62V9.65h6.5v6.56h-2v2.16h2v2.06h-2Zm-2.58-8.8h2.46v-2.5h-2.46Zm9.28-2.6c-.46,3.28-1.68,5.56-3.7,6.84a8.48,8.48,0,0,0-1.26-1.54,6.6,6.6,0,0,0,2.52-3.6H254.3v-2h2.62l.38-.06Zm-3.5,7.48h9.34v8.42h-2.3v-.56H257.3v.66h-2.2Zm5.76-2.46c0,1-.14,1.5-.78,1.82a5.69,5.69,0,0,1-2.56.36,6.59,6.59,0,0,0-.58-2c.62,0,1.28,0,1.48,0s.28-.08.28-.28V8.87h2.16v1.3a16.31,16.31,0,0,0,.82,2.22,21,21,0,0,0,1.76-2l1.88,1.5c-.92.74-1.84,1.54-2.62,2.12a6.93,6.93,0,0,0,3,2.4,10.08,10.08,0,0,0-1.44,1.9,8.51,8.51,0,0,1-3.36-3.78ZM257.3,21v1.12h4.84V21Zm4.84,4V23.79H257.3V25Z"/><path class="cls-5" d="M271.94,10.79c1.14,0,3.26-.1,4.2-.18a4.3,4.3,0,0,0,1.36-.28l1.6,1.24a4.82,4.82,0,0,0-.68.84,42.61,42.61,0,0,0-2,4.3A18,18,0,0,1,280.76,18c0-.24,0-.46.06-.68a13.17,13.17,0,0,0,0-2.18l2.62.3a32.48,32.48,0,0,1-.38,3.7c.84.48,1.56.94,2.14,1.34L284,23.25a20.85,20.85,0,0,0-1.72-1.4,10,10,0,0,1-5.08,5.42l-2.12-1.74a8.62,8.62,0,0,0,5.08-5,13.87,13.87,0,0,0-4.74-1.62,39.31,39.31,0,0,1-2.26,4.8,3.49,3.49,0,0,1-3.12,1.76A3,3,0,0,1,267,22.21c0-3.1,2.82-5.46,6.84-5.64.56-1.32,1.14-2.68,1.6-3.62-.8,0-2.52.1-3.44.16-.4,0-1.1.08-1.62.16l-.1-2.58C270.82,10.75,271.5,10.79,271.94,10.79Zm-1.76,12c.4,0,.68-.2,1-.7a22.4,22.4,0,0,0,1.62-3.26c-2.24.34-3.5,1.7-3.5,3C269.34,22.49,269.72,22.83,270.18,22.83Z"/><path class="cls-5" d="M304,19.09v8.46h-2.48V26.41H290.48v1.16h-2.42V19.09h2.42v5h4.18V18h-5.8V10.77h2.36v4.94h3.44V9.09h2.44v6.62h3.64V10.77h2.5V18H297.1v6h4.46v-5Z"/><path class="cls-5" d="M318.92,11.43c0,.16,0,.38,0,.62,2,0,4.76,0,5.8,0l0,2.36c-1.2-.06-3.06-.1-5.78-.1,0,1,0,2.12,0,3a5.09,5.09,0,0,1,.72,2.74c0,2.6-1.52,5.92-6.4,7.28l-2.14-2.12A9,9,0,0,0,316,22.91a4.28,4.28,0,0,1-.9.1,3.53,3.53,0,0,1-3.44-3.68,3.77,3.77,0,0,1,4-3.74,5.19,5.19,0,0,1,.8.06c0-.44,0-.9,0-1.34-3,0-6.14.16-8.6.3l-.06-2.42c2.28,0,5.92-.08,8.64-.12,0-.26,0-.46,0-.62a14.51,14.51,0,0,0-.2-1.74h2.9C319,10,318.94,11.11,318.92,11.43Zm-3.34,9.36c.84,0,1.58-.64,1.3-2.4a1.47,1.47,0,0,0-1.3-.7,1.55,1.55,0,0,0,0,3.1Z"/><path class="cls-5" d="M335.06,11.75c0,.22-.1.48-.16.76,1.12-.16,2.24-.38,3.34-.64v2.5a36.82,36.82,0,0,1-3.9.66c-.18.86-.38,1.74-.6,2.56a62.15,62.15,0,0,1-3.18,9.26l-2.78-.94a43.3,43.3,0,0,0,3.46-9c.14-.54.3-1.1.42-1.68-.46,0-.9,0-1.32,0-1,0-1.72,0-2.42-.08l-.06-2.5a19.79,19.79,0,0,0,2.52.16q.87,0,1.8-.06.12-.66.18-1.14a10.25,10.25,0,0,0,.06-2l3.06.24C335.32,10.41,335.14,11.31,335.06,11.75Zm2.4,10.86c0,.88.6,1.54,2.74,1.54a23.47,23.47,0,0,0,4.16-.42l-.1,2.56a32.11,32.11,0,0,1-4.08.28c-3.36,0-5.18-1.16-5.18-3.18a14,14,0,0,1,.36-2.68l2.38.24A6.85,6.85,0,0,0,337.46,22.61Zm3-6.9a35.17,35.17,0,0,1,3.52.18l-.06,2.4a29.32,29.32,0,0,0-3.44-.24,34.36,34.36,0,0,0-3.86.2V15.91C337.78,15.81,339.22,15.71,340.5,15.71Z"/><path class="cls-5" d="M359.52,12.17l-.18.76a6.59,6.59,0,0,1,5.22,6.76c0,4.24-3,6.66-7.18,7.3l-1.52-2.32c4.38-.36,6.12-2.62,6.12-5.12a4.33,4.33,0,0,0-3.24-4.42A25.29,25.29,0,0,1,356,21.49a16,16,0,0,0,1.1,1.2l-2,1.6c-.24-.26-.48-.52-.68-.78-1.34,1.46-2.46,2.12-3.94,2.12-1.66,0-3.18-1.4-3.18-4a8.74,8.74,0,0,1,3-6.32c-.2-.54-.36-1.08-.54-1.62a12.69,12.69,0,0,0-.8-2.08l2.62-.82c.12.66.28,1.32.44,1.92.1.38.22.8.36,1.22a10.9,10.9,0,0,1,4.54-1.2q.12-.51.18-1a13.51,13.51,0,0,0,.16-1.9l2.76.26C359.82,10.69,359.64,11.67,359.52,12.17Zm-8.74,10.88c.72,0,1.46-.62,2.2-1.52a21.54,21.54,0,0,1-1.86-3.84,6,6,0,0,0-1.48,3.76C349.64,22.43,350.06,23.05,350.78,23.05Zm3.72-3.72A23,23,0,0,0,356.28,15a8,8,0,0,0-3.22,1.12A20.54,20.54,0,0,0,354.5,19.33Z"/><path class="cls-5" d="M371.38,12.29a53,53,0,0,0-1,7.34,9.65,9.65,0,0,0,.08,1.3c.3-.68.62-1.38.9-2l1.24,1c-.56,1.66-1.22,3.84-1.44,4.9a6,6,0,0,0-.1.94c0,.22,0,.54,0,.82l-2.32.16a25.57,25.57,0,0,1-.78-6.54,55.77,55.77,0,0,1,.84-7.92c.06-.56.18-1.32.2-2l2.8.24C371.72,10.93,371.46,11.93,371.38,12.29Zm4.94,9.78c0,.88.76,1.42,2.8,1.42a23.64,23.64,0,0,0,5-.52l0,2.7a28.32,28.32,0,0,1-5.16.38c-3.44,0-5.1-1.22-5.1-3.28a12.22,12.22,0,0,1,.34-2.6l2.3.22A6.79,6.79,0,0,0,376.32,22.07Zm7.24-10.24v2.58a53.68,53.68,0,0,1-8.6,0V11.85A41.13,41.13,0,0,0,383.56,11.83Z"/><path class="cls-5" d="M395.64,10.79c-.06.34-.14.7-.2,1.1a35.1,35.1,0,0,0,6.8-.88l0,2.32a55,55,0,0,1-7.1.7c-.06.6-.12,1.22-.14,1.82a13.64,13.64,0,0,1,3-.36h.36a11,11,0,0,0,.18-1.2l2.44.58c-.08.22-.24.64-.36,1a5.17,5.17,0,0,1,3.86,4.9c0,2.84-1.66,5.58-6.58,6.32L396.58,25c3.86-.42,5.42-2.38,5.42-4.34a3,3,0,0,0-2.08-2.8,15.36,15.36,0,0,1-4.2,6.08c.14.5.3,1,.46,1.48l-2.3.7c-.08-.26-.18-.54-.26-.82a7.14,7.14,0,0,1-3.1.8,2.59,2.59,0,0,1-2.7-2.9c0-2.58,2.12-5.26,4.92-6.58q.06-1.29.18-2.52h-.64c-1,0-2.6-.08-3.54-.12l-.06-2.32a28.26,28.26,0,0,0,3.68.28h.8q.06-.57.12-1.08c0-.38.06-.86,0-1.2l2.6.06C395.8,10.13,395.72,10.49,395.64,10.79ZM391.1,23.67a4.26,4.26,0,0,0,2-.66,27.87,27.87,0,0,1-.42-4,5.22,5.22,0,0,0-2.5,3.68C390.18,23.33,390.46,23.67,391.1,23.67Zm4.08-2.32a12.32,12.32,0,0,0,2.52-3.82,10,10,0,0,0-2.76.44V18A21,21,0,0,0,395.18,21.35Z"/><path class="cls-5" d="M412.22,10.69c1.06,0,5.34-.08,6.48-.18a8.74,8.74,0,0,0,1.52-.22l1.3,1.78c-.46.3-.94.58-1.4.92-1.08.76-3.18,2.52-4.44,3.52a7.81,7.81,0,0,1,1.9-.22c3.4,0,6,2.12,6,5,0,3.16-2.4,5.66-7.24,5.66-2.78,0-4.88-1.28-4.88-3.28A3.35,3.35,0,0,1,415,20.59,4,4,0,0,1,419.28,24a2.9,2.9,0,0,0,1.66-2.72c0-1.8-1.8-3-4.16-3-3.06,0-5.06,1.62-7.2,4.06l-1.82-1.88c1.42-1.14,3.84-3.18,5-4.16s3.2-2.6,4.18-3.46c-1,0-3.78.14-4.84.2-.54,0-1.18.1-1.64.16l-.08-2.6A13.88,13.88,0,0,0,412.22,10.69Zm3.6,14a10.44,10.44,0,0,0,1.16-.06c-.12-1.3-.86-2.14-1.94-2.14-.76,0-1.24.46-1.24,1C413.8,24.21,414.62,24.71,415.82,24.71Z"/><path class="cls-5" d="M435.1,15.43c1.64-1,3.38-1.82,4.32-2.36a12.5,12.5,0,0,0,1.86-1.22l1.38,2.32c-.6.36-1.24.7-2,1.08a59.2,59.2,0,0,0-5.58,3c-1.66,1.1-2.78,2.24-2.78,3.64s1.38,2.2,4.16,2.2a30.88,30.88,0,0,0,6.54-.74l0,2.88a37.14,37.14,0,0,1-6.42.5c-4,0-7-1.1-7-4.54,0-2.2,1.4-3.86,3.32-5.28-.92-1.7-1.88-3.84-2.78-6l2.5-1A47.51,47.51,0,0,0,435.1,15.43Z"/><path class="cls-5" d="M464.48,20.57a37.16,37.16,0,0,1-4.48,2.9,13.16,13.16,0,0,0,5.36,2,9.07,9.07,0,0,0-1.5,2.16c-5-1-7.74-3.54-9.42-7.76H451.9v4.58c1.48-.2,3.06-.44,4.58-.7l.14,2.22c-3,.54-6.3,1-8.7,1.42l-.58-2.32c.64-.08,1.34-.16,2.12-.28v-14h5.18V8.83h2.46v1.92h5.82v8.6ZM451.9,12.81v1.48h8.58V12.81Zm0,5h8.58V16.19H451.9Zm5,2.08a8.79,8.79,0,0,0,1.52,2.26,30.12,30.12,0,0,0,3.3-2.26Z"/><path class="cls-5" d="M471,14c0,1.3,0,2.8.12,4.24.28,2.88.88,4.86,2.14,4.86.94,0,1.74-2.34,2.12-3.94l2,2.44c-1.32,3.48-2.58,4.7-4.18,4.7-2.2,0-4.1-2-4.66-7.34-.2-1.84-.22-4.18-.22-5.4a12.16,12.16,0,0,0-.16-2l3.08,0A16.18,16.18,0,0,0,471,14Zm13.88,8.38-2.62,1c-.32-3.22-1.38-8.08-3.56-10.56L481.2,12C483.1,14.29,484.62,19.29,484.84,22.35Z"/><path class="cls-5" d="M495.1,15.43c1.64-1,3.38-1.82,4.32-2.36a12.5,12.5,0,0,0,1.86-1.22l1.38,2.32c-.6.36-1.24.7-2,1.08a59.2,59.2,0,0,0-5.58,3c-1.66,1.1-2.78,2.24-2.78,3.64s1.38,2.2,4.16,2.2a30.88,30.88,0,0,0,6.54-.74l0,2.88a37.14,37.14,0,0,1-6.42.5c-4,0-7-1.1-7-4.54,0-2.2,1.4-3.86,3.32-5.28-.92-1.7-1.88-3.84-2.78-6l2.5-1A47.51,47.51,0,0,0,495.1,15.43Z"/><path class="cls-5" d="M506.78,25.25a13.68,13.68,0,0,0,2.1-4.64l2.16.78a17,17,0,0,1-2.12,5Zm8.26-6h-6.26V9.73H523.1v9.48h-7.56a15.78,15.78,0,0,1,3.7,2.54l-1.7,1.62a16.56,16.56,0,0,0-3.9-2.86Zm-4-5.74h3.76V11.79H511Zm0,3.68h3.76V15.39H511Zm7.06,7.9c.82,0,1-.3,1.1-2.28a6.8,6.8,0,0,0,2.14.88c-.26,2.84-1,3.56-3,3.56H515c-2.64,0-3.3-.7-3.3-2.82V21.11h2.4v3.26c0,.6.18.68,1.18.68Zm2.66-13.26h-3.66v1.68h3.66Zm0,3.6h-3.66v1.76h3.66Zm1.92,5.1a17.39,17.39,0,0,1,2.64,4.84l-2.32,1a17.89,17.89,0,0,0-2.44-4.94Z"/><path class="cls-5" d="M536.78,16.89a17.84,17.84,0,0,0-5.2,1c-.58.16-1.36.48-1.94.7l-.76-2.86a20.13,20.13,0,0,0,2.2-.34,26.37,26.37,0,0,1,6-.92c3.16,0,5.38,1.8,5.38,4.94,0,4.28-4,6.94-9.52,7.7l-1.44-2.48c5-.56,8.16-2.2,8.16-5.32C539.7,18,538.66,16.89,536.78,16.89Zm4-6.3-.4,2.46c-2.34-.16-6.68-.56-9-1l.4-2.4A59.38,59.38,0,0,0,540.82,10.59Z"/><path class="cls-5" d="M554.94,27.09l-2.14-2c3.86-1.34,5.56-3.06,5.56-8v-.76h-4.74v2.72c0,.88.06,1.7.08,2.1h-2.8a16.17,16.17,0,0,0,.12-2.1V16.33h-1.7c-1,0-1.72,0-2.16.08V13.69a13,13,0,0,0,2.16.18H551v-2c0-.58-.06-1.2-.12-1.8h2.84a12.22,12.22,0,0,0-.12,1.8v2h4.74v-2.1a13.2,13.2,0,0,0-.12-1.86h2.86a12.6,12.6,0,0,0-.14,1.86v2.1h1.48a11.85,11.85,0,0,0,2.2-.14v2.66c-.44,0-1.14-.06-2.2-.06H561V17C561,22,559.76,25,554.94,27.09Z"/><path class="cls-5" d="M569,24.23l-2.16-1.48a20.84,20.84,0,0,0,3.76-5.16l2.26,1.06A31.39,31.39,0,0,1,569,24.23Zm8.38-12.44v1.6H582a16.19,16.19,0,0,0,2-.14v2.62c-.64,0-1.42-.06-2-.06h-4.68v9.3c0,1.16-.66,1.88-2.08,1.88a28.88,28.88,0,0,1-3.26-.18l-.24-2.48a13.83,13.83,0,0,0,2.22.24c.52,0,.72-.2.74-.72,0-.74,0-7.08,0-8v0h-5.08c-.6,0-1.38,0-1.94.08V13.23a15.23,15.23,0,0,0,1.94.16h5.08v-1.6a10.36,10.36,0,0,0-.18-1.74h3A16.21,16.21,0,0,0,577.34,11.79Zm7.5,11-2.36,1.28a38,38,0,0,0-3.24-5.36l2.18-1.18A46.49,46.49,0,0,1,584.84,22.79ZM582.6,8.51a2.32,2.32,0,1,1-2.32,2.32A2.3,2.3,0,0,1,582.6,8.51Zm0,3.4a1.08,1.08,0,1,0,0-2.16,1.08,1.08,0,1,0,0,2.16Z"/><path class="cls-5" d="M591.06,16.69H601.8c.94,0,1.82-.08,2.34-.12v3.14c-.48,0-1.5-.1-2.34-.1H591.06c-1.14,0-2.48,0-3.22.1V16.57C588.56,16.63,590,16.69,591.06,16.69Z"/><path class="cls-5" d="M612.28,12.41a13.88,13.88,0,0,0-.2-2.4h3.12a21.74,21.74,0,0,0-.18,2.4v3a65.32,65.32,0,0,1,8.36,3.1l-1.14,2.76a57.77,57.77,0,0,0-7.22-3v5.66c0,.58.1,2,.18,2.8h-3.12a22,22,0,0,0,.2-2.8Z"/><path class="cls-5" d="M631.2,12.17a53.39,53.39,0,0,0-1,7.74,9.45,9.45,0,0,0,.08,1.3c.26-.7.6-1.38.9-2.06l1.22,1c-.56,1.64-1.2,3.68-1.44,4.76a5.58,5.58,0,0,0-.1.94c0,.2,0,.54,0,.82l-2.26.18a23.49,23.49,0,0,1-.8-6.4,63.34,63.34,0,0,1,.82-8.34,19.08,19.08,0,0,0,.2-2l2.76.24A13,13,0,0,0,631.2,12.17Zm10.1-.7c0,.44,0,1.18-.06,2.06a27.4,27.4,0,0,0,3.1-.46v2.5c-1,.14-2,.26-3.1.34,0,1.94.14,3.54.22,4.9a13.09,13.09,0,0,1,3.88,2.58L644,25.49a21,21,0,0,0-2.44-2c-.12,1.92-1.2,3.28-3.9,3.28s-4.48-1.16-4.48-3.26,1.72-3.42,4.44-3.42a8.9,8.9,0,0,1,1.3.08c0-1.24-.12-2.7-.14-4.12-.48,0-1,0-1.42,0-1.18,0-2.32,0-3.5-.12V13.55a33.33,33.33,0,0,0,3.5.18c.46,0,.94,0,1.4,0,0-1,0-1.8,0-2.22a8.49,8.49,0,0,0-.14-1.32h2.86A12.52,12.52,0,0,0,641.3,11.47Zm-4,12.92c1.22,0,1.64-.64,1.64-1.82v-.36a6.17,6.17,0,0,0-1.6-.22c-1.14,0-1.9.48-1.9,1.24S636.28,24.39,637.34,24.39Z"/><path class="cls-5" d="M658.3,14.89c0-1.2-1-1.88-2.52-1.88a4.24,4.24,0,0,0-3.2,1.58l-1.64-1.52a6.65,6.65,0,0,1,5.16-2.44c2.9,0,5,1.34,5,4,0,2.94-4.36,3.28-4.06,6.06h-2.58C654.06,17.55,658.3,16.83,658.3,14.89ZM654,24.25A1.76,1.76,0,1,1,655.78,26,1.71,1.71,0,0,1,654,24.25Z"/><polygon class="cls-3" points="354.73 28.08 376 49.78 397.27 28.08 354.73 28.08"/><line class="cls-6" x1="350.5" y1="118.39" x2="350.5" y2="334.39"/><line class="cls-6" x1="683.5" y1="118.39" x2="683.5" y2="334.39"/><line class="cls-6" x1="516.5" y1="118.39" x2="516.5" y2="334.39"/><rect class="cls-4" x="351" y="144.39" width="316" height="18"/><rect class="cls-4" x="351" y="179.39" width="286" height="18"/><rect class="cls-4" x="351" y="214.39" width="195" height="18"/><rect class="cls-3" x="351" y="257.39" width="129" height="18"/><rect class="cls-3" x="351" y="291.39" width="115" height="18"/></g></g></svg>