<svg xmlns="http://www.w3.org/2000/svg" viewBox="0 0 102 30"><defs><style>.b{fill:#f50a00}</style></defs><path fill="none" d="M0-.06h101.77v30H0z"/><path class="b" d="M32.63 8.74c-4 0-5.75 2.7-5.75 6.2s1.8 6.2 5.75 6.2 5.75-2.7 5.75-6.2-1.8-6.2-5.75-6.2zm0 10.3c-2.05 0-3.15-1.3-3.15-4.1s1.1-4.1 3.15-4.1 3.15 1.3 3.15 4.1S34.68 19 32.63 19zM69.33 20.94a6.33 6.33 0 0 0 1.35.1 3.84 3.84 0 0 0 1.25-.1l-4.2-12a6.1 6.1 0 0 0-2.2 0l-4.2 12a3.84 3.84 0 0 0 1.25.1 6.33 6.33 0 0 0 1.35-.1l2.7-8.88zM61.53 8.84a6.33 6.33 0 0 0-1.35.1l-1.61 8.62-2.09-8.62a5.56 5.56 0 0 0-2.1 0l-2.08 8.62-1.62-8.62a6.33 6.33 0 0 0-1.35-.1 4.08 4.08 0 0 0-1.3.1l2.9 12a3 3 0 0 0 1 .1 7.88 7.88 0 0 0 1.6-.1l1.85-7.66 1.85 7.66a7.88 7.88 0 0 0 1.6.1 3 3 0 0 0 1-.1l2.9-12a4.08 4.08 0 0 0-1.2-.1zM79.38 8.84a6.33 6.33 0 0 0-1.35.1l-2.65 9.49-2.65-9.49a6.33 6.33 0 0 0-1.35-.1 4.08 4.08 0 0 0-1.3.1l3.85 12a4.84 4.84 0 0 0 1.45.1 4.84 4.84 0 0 0 1.45-.1l3.85-12a4.08 4.08 0 0 0-1.3-.1z"/><path class="b" d="M44.48 14.74l3.7-5.8a4.08 4.08 0 0 0-1.3-.1 6.92 6.92 0 0 0-1.45.1l-3.55 5.8 3.75 6.2a6.92 6.92 0 0 0 1.45.1 4.08 4.08 0 0 0 1.3-.1zM39 8.94v12a3.84 3.84 0 0 0 1.25.1 3.84 3.84 0 0 0 1.25-.1v-12a3.84 3.84 0 0 0-1.25-.1 3.84 3.84 0 0 0-1.25.1zM83.78 18.84v-3.05h4.5a3 3 0 0 0 .1-1 3 3 0 0 0-.1-1.05h-4.5V11h5.3a3 3 0 0 0 .1-1 3 3 0 0 0-.1-1.05h-7.8v12h7.8a3 3 0 0 0 .1-1.05 3 3 0 0 0-.1-1.05zM14.28 5.94c-7.54 0-9 1.45-9 9s1.46 9 9 9 9-1.46 9-9-1.45-9-9-9zm0 17.1c-7 0-8.1-1.1-8.1-8.1s1.1-8.1 8.1-8.1 8.1 1.1 8.1 8.1-1.1 8.06-8.1 8.06z"/><path class="b" d="M17.16 10.14a3.14 3.14 0 0 0-2.88 2 3.12 3.12 0 0 0-2.88-2 3 3 0 0 0-3.12 3.36c0 3.43 4.5 6.49 6 7.64 1.5-1.15 6-4.21 6-7.64a3 3 0 0 0-3.12-3.36zM93.27 16.45a2.17 2.17 0 1 1-2.17 2.17 2.17 2.17 0 0 1 2.17-2.17m0-.33a2.5 2.5 0 1 0 2.5 2.5 2.5 2.5 0 0 0-2.5-2.5z"/><path class="b" d="M93.79 20l-.53-1h-.34v1h-.69v-2.9h1.06c.62 0 1.13.21 1.13.91a.85.85 0 0 1-.5.83l.65 1.16zm-.87-1.57h.32c.33 0 .5-.14.5-.41s-.17-.36-.5-.36h-.32z"/></svg>