<svg xmlns="http://www.w3.org/2000/svg" xmlns:xlink="http://www.w3.org/1999/xlink" viewBox="0 0 633.69 547.22"><defs><style>.cls-1{fill:none;}.cls-2{fill:#141f42;}.cls-3{fill:#fff;}.cls-4{clip-path:url(#clip-path);}</style><clipPath id="clip-path" transform="translate(384.22)"><rect class="cls-1" y="77.93" width="199.67" height="196.94"/></clipPath></defs><g id="レイヤー_2" data-name="レイヤー 2"><g id="レイヤー_8" data-name="レイヤー 8"><path class="cls-2" d="M158.88,34.5H37A17.25,17.25,0,1,1,37,0h121.9a17.25,17.25,0,0,1,0,34.5Z" transform="translate(384.22)"/><path class="cls-3" d="M42.94,8.74h2.87a13.7,13.7,0,0,0-.15,2.13v2h4.05a19.39,19.39,0,0,0,2-.11v2.45c-.38,0-1.27-.07-2-.07h-4A9.64,9.64,0,0,1,40.51,24l-2.23-1.66a7.69,7.69,0,0,0,4.88-7.23H38.57c-.8,0-1.51.05-2.07.09V12.7a18.47,18.47,0,0,0,2,.13h4.68v-2A9.16,9.16,0,0,0,42.94,8.74Z" transform="translate(384.22)"/><path class="cls-3" d="M56.68,21.09V11.33a11.3,11.3,0,0,0-.2-2.05H59.3a14.19,14.19,0,0,0-.18,2.05V20.7a20.67,20.67,0,0,0,9.26-6l1.28,2a22.57,22.57,0,0,1-10.45,6.48,4.85,4.85,0,0,0-1.06.49l-1.71-1.48A2.3,2.3,0,0,0,56.68,21.09Z" transform="translate(384.22)"/><path class="cls-3" d="M77.52,17.35l-2.2.83A35,35,0,0,0,73.69,14l2.16-.78C76.3,14.16,77.16,16.34,77.52,17.35Zm8.71-2.43a14.37,14.37,0,0,1-2.44,5.27,14.09,14.09,0,0,1-6,4.47l-1.89-1.93a12.1,12.1,0,0,0,6-3.76,12.32,12.32,0,0,0,2.31-6.18l2.52.81C86.45,14.18,86.34,14.56,86.23,14.92ZM81.5,16.23,79.34,17a30.94,30.94,0,0,0-1.46-4l2.14-.7C80.36,13.06,81.25,15.4,81.5,16.23Z" transform="translate(384.22)"/><path class="cls-3" d="M95.59,15.46l-1.31,2c-1-.72-2.9-1.92-4.11-2.57l1.3-2C92.69,13.57,94.67,14.81,95.59,15.46ZM97,19.56a18.33,18.33,0,0,0,7-6.75l1.38,2.45a21.63,21.63,0,0,1-7.15,6.48,22.44,22.44,0,0,1-6,2.22L90.91,21.6A19.45,19.45,0,0,0,97,19.56Zm1.32-8.17-1.34,2c-1-.7-2.88-1.91-4.06-2.58l1.29-2C95.43,9.46,97.41,10.72,98.35,11.39Zm5.36.56-1.56.66a16.46,16.46,0,0,0-1.59-2.82l1.51-.64A28.87,28.87,0,0,1,103.71,12Zm2.52-1-1.53.69A16.38,16.38,0,0,0,103,8.92l1.53-.63A22.74,22.74,0,0,1,106.23,11Z" transform="translate(384.22)"/><path class="cls-3" d="M115.23,10.34a45.83,45.83,0,0,0,5.1-.52l0,2.09a53.24,53.24,0,0,1-5.87.45,13.24,13.24,0,0,1-1,1.84,6,6,0,0,1,2-.36,2.42,2.42,0,0,1,2.39,1.38c.94-.43,1.69-.74,2.43-1.06s1.33-.59,2-.94l.9,2.09c-.57.16-1.53.52-2.14.76-.81.32-1.84.72-2.94,1.22,0,1,.06,2.34.08,3.17H116c.06-.54.08-1.4.1-2.19-1.36.77-2.08,1.47-2.08,2.37s.85,1.26,2.62,1.26a30.07,30.07,0,0,0,5.11-.5l-.07,2.32a45.59,45.59,0,0,1-5.1.31c-2.83,0-4.91-.69-4.91-3s2.16-3.74,4.21-4.81a1.39,1.39,0,0,0-1.26-.61,4.4,4.4,0,0,0-2.81,1.24,20.69,20.69,0,0,0-1.67,2l-1.93-1.44a17.6,17.6,0,0,0,4-5H112c-.73,0-2,0-3-.1V10.2a24.13,24.13,0,0,0,3.17.22h.86a9.57,9.57,0,0,0,.36-2.08l2.38.2A17.9,17.9,0,0,1,115.23,10.34Z" transform="translate(384.22)"/><path class="cls-3" d="M138.69,14.23a18.82,18.82,0,0,1,3.74,3l-1.67,1c-.18-.21-.4-.47-.65-.72-5.1.15-10.55.25-14.12.31l-.07-1.71c1.22,0,2.67,0,4.25,0a20.79,20.79,0,0,0-2.36-1.1l1.28-1.15.95.38c.26-.2.53-.43.8-.65h-4.72V11.93h6.75V11H135v.92h6.86v1.69h-5.71l1.28.63a32.13,32.13,0,0,1-2.83,1.84l3.78-.06c-.43-.34-.88-.68-1.29-1Zm-9-3.85H126V8.69h3.75v-1h2.11v1h4.1v-1H138v1h3.89v1.69H138v1.06h-2.11V10.38h-4.1v1.06h-2.11Zm-2.14,8.07h12.91v6.06h-2.22V24h-8.59v.5h-2.1Zm2.1,1.38v.78H133v-.78ZM133,22.66v-.85h-3.32v.85Zm.36-9c-.6.49-1.25,1-1.82,1.35.39.2.77.41,1.11.61a26.74,26.74,0,0,0,2.78-2Zm4.91,6.21h-3.38v.78h3.38Zm0,2.83v-.85h-3.38v.85Z" transform="translate(384.22)"/><path class="cls-3" d="M149.21,19.13a16,16,0,0,0-1-1.62v7h-2.09V18.28a16.25,16.25,0,0,1-1.87,3.35,10.89,10.89,0,0,0-1-2,18.2,18.2,0,0,0,2.72-5h-2.25v-2h2.39v-2c-.7.11-1.39.2-2,.27a7.17,7.17,0,0,0-.6-1.63A23.84,23.84,0,0,0,149,7.91l1.42,1.64a16.06,16.06,0,0,1-2.12.65v2.43h1.67v-.31H154v-.61h-3.18V10.47H154V9.86h-3.51V8.56H154V7.75h2.15v.81h3.72v1.3h-3.72v.61h3.31v1.24h-3.31v.61h4.08v1.34H150v1h-1.78v.57c.58.54,1.87,1.88,2.18,2.26Zm8.23,2.52c1.1.65,2.34,1.41,3.06,1.91l-1.87,1a32.31,32.31,0,0,0-3-2.11l1.12-.81H153.5l1.21.79a16,16,0,0,1-4.33,2.18c-.32-.38-.91-.95-1.31-1.33a14.16,14.16,0,0,0,3.55-1.64h-1.57V14.27h8.32v7.38ZM153,16.34h4.37v-.76H153Zm0,2h4.37v-.78H153Zm0,2h4.37v-.76H153Z" transform="translate(384.22)"/><polygon class="cls-2" points="462.98 25.3 482.15 44.85 501.32 25.3 462.98 25.3"/><g class="cls-4"><image width="2047" height="1653" transform="translate(0 35.5) scale(0.31)" xlink:href="../../../../../../../../Users/hirakawasaki/Downloads/%E3%80%90%E3%83%86%E3%83%AC%E3%82%B9%E3%82%B3%E3%83%BC%E3%83%95%E3%82%9A%E3%80%91P20211228-1%E3%80%80%E9%87%91%E8%9E%8D%E6%A9%9F%E9%96%A2%E5%90%91%E3%81%91LP/Links/270235332_761933218100863_7807453734556773463_n.jpg"/></g></g></g></svg>