<svg xmlns="http://www.w3.org/2000/svg" xmlns:xlink="http://www.w3.org/1999/xlink" viewBox="0 0 602.77 486.75"><defs><style>.cls-1{fill:none;}.cls-2{fill:#141f42;}.cls-3{fill:#fff;}.cls-4{clip-path:url(#clip-path);}</style><clipPath id="clip-path" transform="translate(66.67 189.41)"><rect class="cls-1" x="9.52" y="74.93" width="223.23" height="194.94"/></clipPath></defs><g id="レイヤー_2" data-name="レイヤー 2"><g id="レイヤー_8" data-name="レイヤー 8"><path class="cls-2" d="M208.15,34.5H17.25a17.25,17.25,0,0,1,0-34.5h190.9a17.25,17.25,0,0,1,0,34.5Z" transform="translate(66.67 189.41)"/><path class="cls-3" d="M26.25,8.74h2.86A13.69,13.69,0,0,0,29,10.87v2H33a19.15,19.15,0,0,0,2-.11v2.45c-.38,0-1.26-.07-2-.07H29c-.11,3.62-1.24,6.57-5.13,8.89l-2.24-1.66a7.67,7.67,0,0,0,4.88-7.23H21.87c-.79,0-1.51.05-2.07.09V12.7a18.65,18.65,0,0,0,2,.13h4.68v-2A9.16,9.16,0,0,0,26.25,8.74Z" transform="translate(66.67 189.41)"/><path class="cls-3" d="M40,21.09V11.33a11.3,11.3,0,0,0-.2-2.05h2.83a12.9,12.9,0,0,0-.18,2.05V20.7a20.59,20.59,0,0,0,9.25-6l1.28,2a22.48,22.48,0,0,1-10.44,6.48,4.65,4.65,0,0,0-1.06.49l-1.71-1.48A2.4,2.4,0,0,0,40,21.09Z" transform="translate(66.67 189.41)"/><path class="cls-3" d="M60.83,17.35l-2.2.83A36.77,36.77,0,0,0,57,14l2.16-.78C59.6,14.16,60.47,16.34,60.83,17.35Zm8.71-2.43a14.39,14.39,0,0,1-2.45,5.27,14,14,0,0,1-6,4.47l-1.89-1.93a12.14,12.14,0,0,0,6-3.76,12.31,12.31,0,0,0,2.3-6.18L70,13.6C69.76,14.18,69.65,14.56,69.54,14.92Zm-4.73,1.31L62.64,17a29.43,29.43,0,0,0-1.45-4l2.14-.7C63.67,13.06,64.55,15.4,64.81,16.23Z" transform="translate(66.67 189.41)"/><path class="cls-3" d="M78.9,15.46l-1.32,2c-1-.72-2.9-1.92-4.1-2.57l1.3-2C76,13.57,78,14.81,78.9,15.46Zm1.44,4.1a18.23,18.23,0,0,0,7-6.75l1.39,2.45a21.73,21.73,0,0,1-7.15,6.48,22.69,22.69,0,0,1-6,2.22L74.22,21.6A19.62,19.62,0,0,0,80.34,19.56Zm1.31-8.17-1.33,2c-1-.7-2.88-1.91-4.07-2.58l1.3-2C78.74,9.46,80.72,10.72,81.65,11.39ZM87,12l-1.57.66a15.79,15.79,0,0,0-1.58-2.82l1.51-.64C85.88,9.91,86.6,11.12,87,12Zm2.52-1L88,11.66a17.81,17.81,0,0,0-1.69-2.74l1.53-.63A22.74,22.74,0,0,1,89.54,11Z" transform="translate(66.67 189.41)"/><path class="cls-3" d="M93.24,10.54,101,9.88c1.86-.17,3.82-.27,5.1-.33v2.31a17.52,17.52,0,0,0-3.47.25,5.47,5.47,0,0,0-3.82,5c0,3,2.78,4,5.84,4.19l-.85,2.47c-3.78-.25-7.35-2.27-7.35-6.17a7.19,7.19,0,0,1,2.69-5.57c-1.7.18-5.37.58-7.46,1l-.23-2.47C92.2,10.61,92.9,10.58,93.24,10.54ZM105,16.07l-1.37.61a14.23,14.23,0,0,0-1.4-2.5l1.33-.56A22.42,22.42,0,0,1,105,16.07Zm2.09-.88-1.35.64a16.35,16.35,0,0,0-1.48-2.43l1.32-.61A26.33,26.33,0,0,1,107.09,15.19Z" transform="translate(66.67 189.41)"/><path class="cls-3" d="M114.37,9.64h8.21v2.23H117v3.48h4.74v2.23H117V23h-2.67Z" transform="translate(66.67 189.41)"/><path class="cls-3" d="M127.46,9.64h3.13L134.88,23h-2.79l-.94-3.42h-4.32L125.9,23h-2.71Zm0,7.85h3.17l-.4-1.46c-.41-1.38-.77-2.91-1.15-4.35h-.09c-.34,1.45-.74,3-1.14,4.35Z" transform="translate(66.67 189.41)"/><path class="cls-3" d="M140.51,23.13c-2.84-.54-4.73-3.06-4.73-6.86,0-4.34,2.43-6.86,6-6.86s6,2.54,6,6.86c0,3.63-1.73,6.08-4.38,6.77a3.41,3.41,0,0,0,3,1.42,4.52,4.52,0,0,0,1.45-.22l.49,2a6.26,6.26,0,0,1-7.78-3.08ZM145,16.27c0-2.87-1.26-4.58-3.24-4.58s-3.24,1.71-3.24,4.58,1.26,4.79,3.24,4.79S145,19.26,145,16.27Z" transform="translate(66.67 189.41)"/><path class="cls-3" d="M161.46,10.34a45.59,45.59,0,0,0,5.1-.52l0,2.09a53.05,53.05,0,0,1-5.87.45,12.27,12.27,0,0,1-1,1.84,6,6,0,0,1,2-.36,2.44,2.44,0,0,1,2.4,1.38c.93-.43,1.69-.74,2.43-1.06s1.33-.59,2-.94l.91,2.09c-.58.16-1.54.52-2.15.76-.81.32-1.83.72-2.93,1.22,0,1,0,2.34.07,3.17h-2.16c0-.54.07-1.4.09-2.19-1.35.77-2.07,1.47-2.07,2.37s.84,1.26,2.61,1.26a30,30,0,0,0,5.11-.5l-.07,2.32a45.4,45.4,0,0,1-5.09.31c-2.83,0-4.92-.69-4.92-3s2.16-3.74,4.21-4.81a1.38,1.38,0,0,0-1.26-.61A4.43,4.43,0,0,0,158,16.84a20.69,20.69,0,0,0-1.67,2l-1.93-1.44a17.6,17.6,0,0,0,4-5h-.23c-.74,0-2.06,0-3.05-.1V10.2a24.24,24.24,0,0,0,3.17.22h.87a10.21,10.21,0,0,0,.36-2.08l2.37.2A15.51,15.51,0,0,1,161.46,10.34Z" transform="translate(66.67 189.41)"/><path class="cls-3" d="M187.24,12.9A19.2,19.2,0,0,1,185,19.65a9.14,9.14,0,0,0,3.87,3,7.43,7.43,0,0,0-1.47,1.91,10.39,10.39,0,0,1-3.78-3A12.79,12.79,0,0,1,179,24.62a11.46,11.46,0,0,0-1.29-1.91,10.35,10.35,0,0,0,4.64-3.06,20.1,20.1,0,0,1-1.64-4.25,8,8,0,0,1-.81,1.12,9.8,9.8,0,0,0-1-.81v.65h-2.07v-.6h-2.47v3.55c0,.63.11.72.75.72H177c.54,0,.65-.25.72-1.89a6.19,6.19,0,0,0,1.91.81c-.25,2.45-.81,3.08-2.43,3.08h-2.34c-2,0-2.54-.58-2.54-2.7V13.82h4.56V11.08H172.3v-2h6.61v5a17,17,0,0,0,2.37-6.3l2.24.4c-.2.93-.44,1.85-.72,2.73h5.78v2Zm-5.08,0a19.76,19.76,0,0,0,1.54,4.66A16.32,16.32,0,0,0,185,12.9Z" transform="translate(66.67 189.41)"/><path class="cls-3" d="M206.32,17.19v1.63H190V17.19h3.18a7.85,7.85,0,0,0-.66-1.37l.77-.17H190.6V14.09H197v-.72h-4.73V11.86H197v-.67h-5.9V9.62h3a7.81,7.81,0,0,0-.7-1.42l2-.49a7.58,7.58,0,0,1,.95,1.82l-.3.09h3.94a13,13,0,0,0,.88-1.91l2.25.34c-.34.61-.64,1.15-.93,1.58h3.11v1.57h-6v.67h4.88v1.51h-4.88v.72h6.57v1.56h-2.46l.61.09c-.33.58-.6,1.07-.85,1.45Zm-13.86,2.3H204v5h-2.2V24h-7.18v.56h-2.11Zm2.11,1.64v1.22h7.18V21.13Zm.14-5.48a6.22,6.22,0,0,1,.67,1.39l-.56.15H197V15.65Zm4.5,0v1.54h2.52l-.77-.13c.21-.4.48-.95.68-1.41Z" transform="translate(66.67 189.41)"/><polygon class="cls-2" points="160.2 214.71 179.37 234.26 198.53 214.71 160.2 214.71"/><g class="cls-4"><image width="2047" height="1653" transform="scale(0.29)" xlink:href="../../../../../../../../Users/hirakawasaki/Downloads/%E3%80%90%E3%83%86%E3%83%AC%E3%82%B9%E3%82%B3%E3%83%BC%E3%83%95%E3%82%9A%E3%80%91P20211228-1%E3%80%80%E9%87%91%E8%9E%8D%E6%A9%9F%E9%96%A2%E5%90%91%E3%81%91LP/Links/270235332_761933218100863_7807453734556773463_n.jpg"/></g></g></g></svg>