<svg xmlns="http://www.w3.org/2000/svg" xmlns:xlink="http://www.w3.org/1999/xlink" viewBox="0 0 546.71 495.82"><defs><style>.cls-1{fill:none;}.cls-2{fill:#141f42;}.cls-3{fill:#fff;}.cls-4{clip-path:url(#clip-path);}</style><clipPath id="clip-path" transform="translate(53.21)"><polygon class="cls-1" points="204.25 260.8 31.99 260.8 31.99 118.69 54.95 105.92 67.18 83.99 204.25 83.99 204.25 260.8"/></clipPath></defs><g id="レイヤー_2" data-name="レイヤー 2"><g id="レイヤー_8" data-name="レイヤー 8"><path class="cls-2" d="M219.65,34.5H17.25a17.25,17.25,0,0,1,0-34.5h202.4a17.25,17.25,0,0,1,0,34.5Z" transform="translate(53.21)"/><path class="cls-3" d="M28.34,9.77a19.52,19.52,0,0,0,4.54-1.08l1.48,2L33,11a29.44,29.44,0,0,1-3,.59v2.87h4.53c.4,0,1.25-.08,1.64-.11v2.32c-.48,0-1.1-.07-1.58-.07H29.87A9.06,9.06,0,0,1,25.27,24L23,22.46a7.12,7.12,0,0,0,4.52-5.85H22.55c-.56,0-1.23,0-1.7.07V14.36c.49.05,1.1.11,1.66.11h5.08V11.91c-1.73.14-3.62.2-4.83.23l-.56-2.08A43.1,43.1,0,0,0,28.34,9.77Z" transform="translate(53.21)"/><path class="cls-3" d="M44.94,12.92c.13.43.29,1,.49,1.74,2.28-.43,4.8-.91,5.51-1.08a3.47,3.47,0,0,0,.91-.28l1.44,1A27.93,27.93,0,0,1,49.46,20l-2-1a15.8,15.8,0,0,0,2.66-3.24c-.43.07-2.23.45-4.17.84.68,2.49,1.45,5.26,1.73,6.2.1.3.34,1.11.48,1.47l-2.45.62a10.42,10.42,0,0,0-.32-1.59c-.27-1-1-3.78-1.66-6.23l-3.37.72-.55-2.16a16.26,16.26,0,0,0,1.65-.22c.26,0,.9-.14,1.73-.3-.18-.7-.34-1.28-.47-1.68a5.8,5.8,0,0,0-.5-1.27l2.41-.58C44.72,12,44.83,12.45,44.94,12.92Z" transform="translate(53.21)"/><path class="cls-3" d="M65.73,9.93v.94h2.16a5.71,5.71,0,0,0,1.5-.18l1.49,1.45c-.47.45-1,1.07-1.4,1.5a28.14,28.14,0,0,1-3.78,3.53c0,1.44,0,3.4,0,4.53,0,.73.07,1.75.12,2.31H63.21a21.21,21.21,0,0,0,.14-2.31V18.63a31.32,31.32,0,0,1-5.52,2.21l-1.39-2.12a22.6,22.6,0,0,0,7.35-3,12.09,12.09,0,0,0,3-2.68H60.29c-.64,0-1.78,0-2.34.07V10.74a16.77,16.77,0,0,0,2.31.13h3.11V9.93a10.59,10.59,0,0,0-.11-1.66h2.58A13.44,13.44,0,0,0,65.73,9.93Zm1.1,8.23,1.49-1.73A40.15,40.15,0,0,1,72.65,19l-1.52,2A27.65,27.65,0,0,0,66.83,18.16Z" transform="translate(53.21)"/><path class="cls-3" d="M77.23,18c.51-1.54.52-5,.52-7.13a6.69,6.69,0,0,0-.16-1.65h2.65a11.25,11.25,0,0,0-.13,1.64,39.44,39.44,0,0,1-.54,7.74,10.59,10.59,0,0,1-3.2,5.17l-2.2-1.46A8.53,8.53,0,0,0,77.23,18Zm5.42,3.24V10.76a9,9,0,0,0-.14-1.55h2.68a8.73,8.73,0,0,0-.13,1.57v9.41a11.39,11.39,0,0,0,4.45-3.8l1.39,2a19.86,19.86,0,0,1-6.11,4.92,4.29,4.29,0,0,0-.77.54l-1.51-1.24A7.17,7.17,0,0,0,82.65,21.25Z" transform="translate(53.21)"/><path class="cls-3" d="M96.46,20.37c.73,1.21,2.08,1.69,4,1.77,2.1.09,6.16,0,8.55-.15a11.84,11.84,0,0,0-.67,2.16c-2.16.11-5.78.15-7.92.06s-3.69-.6-4.86-2c-.79.7-1.59,1.4-2.58,2.16l-1-2.23a24.28,24.28,0,0,0,2.47-1.66v-3.8H92.3v-2h4.16Zm-1.25-8.08a13.33,13.33,0,0,0-2.9-2.85L93.9,8.15a14.37,14.37,0,0,1,3,2.72ZM98.09,9.5h3c.16-.6.32-1.28.41-1.79L104,8c-.22.52-.45,1.05-.67,1.5H107v5.06h-6.81v1.18h7.51v5.37h-9.6Zm2.09,1.74v1.57h4.74V11.24Zm0,6.29v1.82h5.4V17.53Z" transform="translate(53.21)"/><path class="cls-3" d="M118.51,11s0,.7,0,1c-.16,7.67-.29,10.42-.85,11.25a1.93,1.93,0,0,1-1.38.92,9.84,9.84,0,0,1-2.18.07,5.34,5.34,0,0,0-.61-2.14c.72,0,1.36.07,1.71.07a.65.65,0,0,0,.61-.32c.34-.49.48-2.72.59-8.74h-1.82c-.18,4.81-.81,8.84-3.13,11.51A5.72,5.72,0,0,0,109.86,23c2-2.28,2.51-5.72,2.63-9.94H110.4V11h2.11c0-1,0-2,0-3h2.11c0,1,0,2,0,3ZM126,9.79V24.05h-2.14V22.93h-2.32v1.24H119.5V9.79Zm-2.14,11.07v-9h-2.32v9Z" transform="translate(53.21)"/><path class="cls-3" d="M130.46,10.54l7.78-.66c1.85-.17,3.81-.27,5.09-.33l0,2.31a17.68,17.68,0,0,0-3.48.25,5.47,5.47,0,0,0-3.81,5c0,3,2.77,4,5.83,4.19L141,23.81c-3.78-.25-7.34-2.27-7.34-6.17a7.22,7.22,0,0,1,2.68-5.57c-1.69.18-5.36.58-7.45,1l-.24-2.47C129.41,10.61,130.12,10.58,130.46,10.54Zm11.75,5.53-1.36.61a13.65,13.65,0,0,0-1.41-2.5l1.33-.56A22.42,22.42,0,0,1,142.21,16.07Zm2.09-.88-1.35.64a16.31,16.31,0,0,0-1.47-2.43l1.31-.61A26.33,26.33,0,0,1,144.3,15.19Z" transform="translate(53.21)"/><path class="cls-3" d="M155.84,8.74c0,3.4.49,10,7.11,13.88a11.6,11.6,0,0,0-1.73,1.88,15.27,15.27,0,0,1-6.62-8.88c-1.35,4-3.51,7-6.65,8.89a16.05,16.05,0,0,0-2-1.74c3.75-1.89,5.89-5.37,6.88-10.1l1.1.19c-.13-.68-.2-1.33-.26-1.94h-4.1V8.74Z" transform="translate(53.21)"/><path class="cls-3" d="M166.46,14.29h-1.89V10.63h6.78V10h-5.56V8.36h13.27V10h-5.62v.68h6.93v3.66h-2V12.05h-4.95V15.8h-2.09V12.05h-4.89ZM178,22.86c.9,0,1.06-.27,1.19-1.8a5.62,5.62,0,0,0,1.78.68c-.25,2.16-.83,2.76-2.79,2.76H174.4c-2.47,0-3.15-.53-3.15-2.42v0h-3v.79h-2V16.29h12.46V22H173.3v0c0,.67.2.78,1.3.78Zm-11.18-8.41h3.89v1.17h-3.89Zm3.89-.63h-3.55V12.67h3.55Zm-2.45,3.91v.79h3v-.79Zm3,2.86v-.78h-3v.78Zm5.31-2.86H173.3v.79h3.26Zm0,2.86v-.78H173.3v.78Zm1.08-7.92v1.15h-3.51V12.67Zm-3.51,1.78h3.92v1.17h-3.92Z" transform="translate(53.21)"/><path class="cls-3" d="M183.27,12.49A17.52,17.52,0,0,0,182.15,9l1.75-.61a17.07,17.07,0,0,1,1.22,3.36Zm7.38,9.56c0,1-.18,1.55-.83,1.89a6.14,6.14,0,0,1-2.72.36,7.87,7.87,0,0,0-.57-2c.7,0,1.47,0,1.73,0s.32-.09.32-.32V20.53h-3.69v3.8h-2V12.65h2.81V7.73h2.12v4.92h2.88Zm-5.76-7.4v1.11h3.69V14.65Zm3.69,4.08V17.56h-3.69v1.17Zm-.32-6.8a21.92,21.92,0,0,0,1.13-3.66l2.13.47A38.77,38.77,0,0,1,190,12.38Zm5.85,8H192v-10h2.07Zm4-11.89V21.92c0,1.26-.25,1.84-1,2.2a8.83,8.83,0,0,1-3.58.41,8,8,0,0,0-.74-2.21c1.17.05,2.32.05,2.7.05s.49-.13.49-.47V8.07Z" transform="translate(53.21)"/><path class="cls-3" d="M202.89,16A12,12,0,0,0,200,14.25l1.17-1.58a11.42,11.42,0,0,1,3,1.63Zm1.28,2.22c-.61,2-1.39,4.12-2.13,5.92l-1.94-1.06a52.5,52.5,0,0,0,2.34-6Zm-.42-7a11.6,11.6,0,0,0-2.91-1.87L202,7.82a12.85,12.85,0,0,1,3,1.73Zm12.81,2.48a22.22,22.22,0,0,1-2.35,6.18c.29,1.28.6,2,.92,2s.44-.9.53-2.55a6,6,0,0,0,1.51,1.1c-.45,3.27-1.34,4-2.07,4-1,0-1.75-.9-2.31-2.51a12.88,12.88,0,0,1-2.63,2.43,11.32,11.32,0,0,0-1.4-1.36,11.17,11.17,0,0,0,3.44-3.3,52.73,52.73,0,0,1-.79-7.51h-4.74v3.13c0,2.71-.25,6.63-1.76,9.15a7.32,7.32,0,0,0-1.61-1.08c1.37-2.32,1.5-5.63,1.5-8.07v-5h6.52c0-.79-.06-1.6-.08-2.43h2c0,.83,0,1.64,0,2.43h2a11.55,11.55,0,0,0-2-1.51l1.15-1.08a9.47,9.47,0,0,1,2.3,1.73l-.88.86h.74v1.89h-3.26c.09,1.68.22,3.22.38,4.58a20.64,20.64,0,0,0,1-3.41Zm-8,7.12v1h-1.41v-6h4.07v5Zm2.52-6h-3.84V13.26h3.84Zm-2.52,2.55v1.93h1.24V17.38Z" transform="translate(53.21)"/><polygon class="cls-2" points="152.49 25.3 171.66 44.85 190.83 25.3 152.49 25.3"/><g class="cls-4"><image width="2047" height="1653" transform="translate(0 54.34) scale(0.27)" xlink:href="../../../../../../../../Users/hirakawasaki/Downloads/%E3%80%90%E3%83%86%E3%83%AC%E3%82%B9%E3%82%B3%E3%83%BC%E3%83%95%E3%82%9A%E3%80%91P20211228-1%E3%80%80%E9%87%91%E8%9E%8D%E6%A9%9F%E9%96%A2%E5%90%91%E3%81%91LP/Links/270235332_761933218100863_7807453734556773463_n.jpg"/></g></g></g></svg>