<svg xmlns="http://www.w3.org/2000/svg" viewBox="0 0 908.9 483.9"><defs><style>.cls-1{fill:#fff;}.cls-2{fill:#141f42;}.cls-3,.cls-4{fill:none;stroke:#141f42;stroke-miterlimit:10;}.cls-3{stroke-width:4.61px;}.cls-4{stroke-width:1.15px;}.cls-5{fill:#4b4b4b;}.cls-6{fill:#fff03c;}.cls-7{fill:#ffff64;}.cls-8{fill:#ff8c00;}.cls-9{fill:#1eb4e1;}.cls-10{fill:#787878;}.cls-11{fill:#786478;}.cls-12{fill:#a5e1ef;}.cls-13{fill:#ff6e78;}</style></defs><g id="レイヤー_2" data-name="レイヤー 2"><g id="レイヤー_7" data-name="レイヤー 7"><ellipse class="cls-1" cx="413.59" cy="241.95" rx="413.59" ry="241.95"/><path class="cls-2" d="M349.46,229.79c-7.77,0-11.31,5.3-11.31,12.16s3.54,12.16,11.31,12.16,11.31-5.3,11.31-12.16S357.23,229.79,349.46,229.79Zm0,20.2c-4,0-6.2-2.55-6.2-8s2.17-8,6.2-8,6.19,2.55,6.19,8S353.49,250,349.46,250Z"/><path class="cls-2" d="M413.68,245l2.65-8.68L419,245l1.2,3.92,1.47,4.8a12.14,12.14,0,0,0,2.65.2,7.42,7.42,0,0,0,2.46-.2l-8.26-23.53a6.41,6.41,0,0,0-2.16-.19,6.53,6.53,0,0,0-2.17.19l-8.26,23.53a7.5,7.5,0,0,0,2.46.2,12.31,12.31,0,0,0,2.66-.2l1.46-4.8Z"/><path class="cls-2" d="M406.3,230a12.94,12.94,0,0,0-2.66.19l-3.18,16.91-4.1-16.91a6,6,0,0,0-2.06-.19,6.1,6.1,0,0,0-2.07.19l-4.09,16.91L385,230.18a12.94,12.94,0,0,0-2.66-.19,8.23,8.23,0,0,0-2.55.19l5.7,23.53a5.7,5.7,0,0,0,2.06.2,15.31,15.31,0,0,0,3.15-.2l3.64-15,3.64,15a15.12,15.12,0,0,0,3.14.2,5.74,5.74,0,0,0,2.07-.2l5.7-23.53A8.23,8.23,0,0,0,406.3,230Z"/><path class="cls-2" d="M440.7,230a12.94,12.94,0,0,0-2.66.19l-5.21,18.62-5.21-18.62A12.88,12.88,0,0,0,425,230a8.28,8.28,0,0,0-2.56.19L430,253.71a20.41,20.41,0,0,0,5.7,0l7.58-23.53A8.37,8.37,0,0,0,440.7,230Z"/><path class="cls-2" d="M372.76,241.56,380,230.18a8.28,8.28,0,0,0-2.56-.19,14.11,14.11,0,0,0-2.85.19l-7,11.38L375,253.71a13.31,13.31,0,0,0,2.85.2,7.84,7.84,0,0,0,2.55-.2Z"/><path class="cls-2" d="M362,230.18v23.53a15.17,15.17,0,0,0,4.91,0V230.18a16,16,0,0,0-4.91,0Z"/><path class="cls-2" d="M449.35,249.6v-6h8.85a5.77,5.77,0,0,0,.2-2.06,5.7,5.7,0,0,0-.2-2.06h-8.85v-5.2h10.43a6,6,0,0,0,.19-2.06,6.06,6.06,0,0,0-.19-2.06H444.44v23.53h15.34a11.21,11.21,0,0,0,0-4.11Z"/><path class="cls-2" d="M313.37,224.3c-14.79,0-17.65,2.86-17.65,17.65s2.86,17.65,17.65,17.65S331,256.74,331,242,328.16,224.3,313.37,224.3Zm0,33.53c-13.72,0-15.88-2.16-15.88-15.88s2.16-15.88,15.88-15.88,15.88,2.15,15.88,15.88S327.1,257.83,313.37,257.83Z"/><path class="cls-2" d="M319,232.54a6.13,6.13,0,0,0-5.64,4,6.13,6.13,0,0,0-5.64-4c-2.59,0-6.12,1.55-6.12,6.58,0,6.74,8.82,12.74,11.76,15,2.94-2.25,11.76-8.25,11.76-15C325.13,234.09,321.6,232.54,319,232.54Z"/><path class="cls-2" d="M490.6,228.78a7.58,7.58,0,0,0-2.46-.2,7.45,7.45,0,0,0-2.45.2h0v25a16,16,0,0,0,4.91,0v-25Z"/><path class="cls-2" d="M474.39,230c-3.92,0-7.26.2-7.26.2v23.53a7.82,7.82,0,0,0,2.45.19,7.74,7.74,0,0,0,2.45-.19V245s1.57.1,2.36.1c8,0,9.8-3.33,9.8-7.55C484.19,230.81,479.88,230,474.39,230Zm0,11.57c-.79,0-2.36-.1-2.36-.1v-7.84a13.78,13.78,0,0,1,2.36-.1c3.13,0,5.29.39,5.29,4C479.68,240.81,477.52,241.59,474.39,241.59Z"/><path class="cls-2" d="M510,249.41a13.39,13.39,0,0,0,4.84,1.17c1.24.06,2.55,0,2.66-1.45.07-.87-1.27-1.28-3.2-2-3.69-1.16-5.13-3.23-4.87-5.77s2.69-4.8,7.1-4.8a12.94,12.94,0,0,1,5.09,1l-1.11,3.56a16.09,16.09,0,0,0-3.81-1c-.79-.12-2.05,0-2.27,1.09-.26,1.28,2.11,1.8,4,2.66,3.09,1.39,4.28,2.81,3.94,5.68-.37,3.14-2.35,4.64-7.63,4.64a14,14,0,0,1-5.87-1Z"/><path class="cls-2" d="M492.58,248.59a1.46,1.46,0,0,0,0,.29,5,5,0,0,0,5.42,5.2,5.6,5.6,0,0,0,4.36-2v1.65a7.45,7.45,0,0,0,2.45.2,7.37,7.37,0,0,0,2.45-.2h0V236.55a15.11,15.11,0,0,0-4.9,0v10a2.36,2.36,0,0,1-2.38,2.6,2.26,2.26,0,0,1-2.52-2.48v-10.1a15.11,15.11,0,0,0-4.9,0Z"/><path class="cls-2" d="M531.46,231.34a3.47,3.47,0,0,0-.09-1.11H526.9v-4.46h0a3.26,3.26,0,0,0-1.1-.09,3.31,3.31,0,0,0-1.11.09h0v4.46h-4.47a3.79,3.79,0,0,0-.08,1.11,3.7,3.7,0,0,0,.08,1.11h4.47v4.46a3.31,3.31,0,0,0,1.11.09,3.26,3.26,0,0,0,1.1-.09v-4.46h4.47A3.79,3.79,0,0,0,531.46,231.34Z"/><path class="cls-3" d="M556.34,162.65c-34.85-24.4-81.45-38.41-142.75-38.41-63.71,0-111.54,15.13-146.8,41.33"/><polygon class="cls-2" points="554.08 138.63 549.59 139.68 554.78 161.8 532.33 165.36 533.06 169.91 560.39 165.57 554.08 138.63"/><path class="cls-4" d="M561.23,319.46l-1.68-2.27c-36.67,27.25-85.77,41.06-146,41.06-57.77,0-105.34-12.73-141.46-37.84L284,318.72l-.4-2.8-16.79,2.41,3.63,16.56,2.76-.6-2.51-11.46c36.59,25.37,84.65,38.25,142.93,38.25C474.4,361.08,524.07,347.07,561.23,319.46Z"/><rect class="cls-2" x="382.82" y="37.27" width="61.55" height="61.55" rx="12"/><polygon class="cls-2" points="401.96 93.73 413.88 108.12 425.34 93.73 401.96 93.73"/><path class="cls-1" d="M423.92,83.89a9.59,9.59,0,0,1-3.89.69,10.13,10.13,0,0,1-9.62-6c-5-.94-8.24-5.33-8.24-11.94,0-7.55,4.23-11.94,10.37-11.94s10.38,4.42,10.38,11.94c0,6.33-3,10.6-7.62,11.79a6,6,0,0,0,5.27,2.47,8.22,8.22,0,0,0,2.54-.37Zm-11.38-9c3.45,0,5.64-3.14,5.64-8.34,0-5-2.19-8-5.64-8s-5.64,3-5.64,8C406.9,71.79,409.09,74.93,412.54,74.93Z"/><path class="cls-4" d="M435.89,385.35H421.07l-7.71-9.3-7.41,9.3H391.29a8.49,8.49,0,0,0-8.47,8.47v44.61a8.49,8.49,0,0,0,8.47,8.47h44.6a8.49,8.49,0,0,0,8.47-8.47V393.82A8.49,8.49,0,0,0,435.89,385.35Z"/><path class="cls-2" d="M416.23,419.57H408.7l-1.63,6h-4.7l7.43-23.2h5.45l7.46,23.2h-4.85Zm-1-3.6-.69-2.54c-.72-2.41-1.34-5.08-2-7.59h-.13c-.6,2.54-1.28,5.18-2,7.59l-.69,2.54Z"/><path class="cls-5" d="M235,204c-5.7-1.67-7.37-4.31-6.53-10.43s4.72-16,2.08-30S215.14,142,202.62,142s-25.3,7.51-27.94,21.56,1.25,23.91,2.08,30-.83,8.76-6.53,10.43c0,0,4,3.19,8.48,1,0,0-1.25,1.39-1.25,5.84l25.16,3.48,25.17-3.48c0-4.45-1.25-5.84-1.25-5.84C231,207.17,235,204,235,204Z"/><path d="M202.62,215.21h-.13l-25.16-3.48a.93.93,0,0,1-.81-.93,16.35,16.35,0,0,1,.48-4.26,9.69,9.69,0,0,1-7.36-1.82.94.94,0,0,1,.32-1.64c5.27-1.54,6.64-3.73,5.87-9.39-.19-1.38-.53-2.94-.93-4.76-1.36-6.15-3.22-14.58-1.15-25.58,2.89-15.33,17-22.32,28.87-22.32s26,7,28.88,22.32c2.06,11,.21,19.43-1.15,25.58-.4,1.82-.75,3.38-.93,4.76-.77,5.66.6,7.85,5.86,9.39a.93.93,0,0,1,.66.73.91.91,0,0,1-.34.91,9.68,9.68,0,0,1-7.35,1.82,16.8,16.8,0,0,1,.48,4.26.94.94,0,0,1-.81.93l-25.17,3.48ZM178.41,210l24.21,3.35L226.83,210c-.12-3.27-1-4.4-1-4.41a1,1,0,0,1,0-1.19.94.94,0,0,1,1.15-.26,6.81,6.81,0,0,0,5.8.08c-4.57-1.89-6-5-5.21-10.77.2-1.45.55-3,1-4.91,1.32-6,3.13-14.2,1.14-24.82-2.69-14.28-15.89-20.79-27-20.79s-24.33,6.51-27,20.79c-2,10.62-.19,18.83,1.13,24.82.41,1.86.77,3.46,1,4.91.79,5.78-.63,8.88-5.2,10.77a6.81,6.81,0,0,0,5.8-.08.94.94,0,0,1,1.12,1.47h0S178.54,206.7,178.41,210Z"/><path class="cls-1" d="M181.35,181.87c-2.34-2-4,.65-3.75,4.34s2.55,8.33,5.53,7.59A36.28,36.28,0,0,1,181.35,181.87Z"/><path d="M182.5,194.66a3.71,3.71,0,0,1-2.15-.73c-2.13-1.53-3.32-5-3.54-7.65s.55-4.9,2-5.62a2.68,2.68,0,0,1,3.09.61.8.8,0,0,1,.27.6,35.21,35.21,0,0,0,1.74,11.67.81.81,0,0,1-.05.63.76.76,0,0,1-.5.39A3.29,3.29,0,0,1,182.5,194.66ZM179.82,182a.62.62,0,0,0-.33.08c-.69.35-1.29,1.87-1.11,4.09.21,2.68,1.46,5.47,2.89,6.5a2.33,2.33,0,0,0,.79.39,37,37,0,0,1-1.49-10.78A1.37,1.37,0,0,0,179.82,182Z"/><path class="cls-1" d="M233.49,335.93a226.33,226.33,0,0,0-1.25-31.7L220.7,239.29l-4.81-25.65c-1,5.53-5.65,9.94-13.27,9.94s-12.21-4.41-13.27-9.94l-4.8,25.65L173,304.23a226.33,226.33,0,0,0-1.25,31.7"/><path d="M233.49,336.87h0a.94.94,0,0,1-.91-1,229.59,229.59,0,0,0-1.24-31.56l-11.54-64.88-4.14-22.11c-2.25,4.5-7,7.17-13,7.17s-10.75-2.67-13-7.17l-4.14,22.12-11.54,64.92a228.9,228.9,0,0,0-1.23,31.51,1,1,0,0,1-.91,1,.93.93,0,0,1-1-.91,229.14,229.14,0,0,1,1.25-31.85l11.55-65,4.81-25.67a1,1,0,0,1,.92-.77h0a1,1,0,0,1,.93.77c1.08,5.66,5.81,9.18,12.34,9.18s11.27-3.52,12.35-9.18a.94.94,0,0,1,.92-.76h0a.93.93,0,0,1,.92.76l4.8,25.66,11.55,64.94a231.68,231.68,0,0,1,1.26,31.9A.94.94,0,0,1,233.49,336.87Z"/><path class="cls-1" d="M202.62,223.58c7.62,0,12.22-4.41,13.27-9.94l-1.73-9.25-.25-.06a52.38,52.38,0,0,0-22.57,0l-.26.06-1.73,9.25C190.41,219.17,195,223.58,202.62,223.58Z"/><path d="M202.62,224.52c-7.49,0-12.93-4.1-14.19-10.71a1,1,0,0,1,0-.35l1.73-9.24a1,1,0,0,1,.69-.74l.28-.06a46.18,46.18,0,0,1,11.5-1.26,47,47,0,0,1,11.51,1.26l.25.06a1,1,0,0,1,.7.74l1.73,9.24a1,1,0,0,1,0,.35C215.56,220.42,210.12,224.52,202.62,224.52Zm-12.31-10.89c1.14,5.56,5.85,9,12.31,9s11.17-3.45,12.32-9l-1.59-8.46A45.16,45.16,0,0,0,202.63,204a44.56,44.56,0,0,0-10.73,1.13Z"/><path class="cls-1" d="M223.88,183.6c-.22,6.51-1.88,13.93-7.28,18.78-6,5.42-10.64,7-14,7s-7.92-1.56-14-7-7.4-14.08-7.3-21.07,3.44-16.37,10.74-19.71c.11,10.64,9,19.61,19.08,15.44A20.33,20.33,0,0,0,223.88,183.6Z"/><path d="M202.62,210.3c-4.34,0-9.25-2.43-14.6-7.22-6.47-5.81-7.71-15.05-7.61-21.78,0-7.64,3.88-17.16,11.29-20.55a.93.93,0,0,1,1.33.84c.06,5.65,2.68,10.87,6.85,13.63a11.39,11.39,0,0,0,10.94.95,1,1,0,0,1,1.1.29A19.57,19.57,0,0,0,224,182.67a1,1,0,0,1,.82,1c-.29,8.53-2.91,15.25-7.59,19.45C211.88,207.87,207,210.3,202.62,210.3Zm-11.4-47.18c-5.87,3.52-8.93,11.6-8.93,18.19-.09,6.36,1,15,7,20.37,5,4.47,9.48,6.74,13.34,6.74s8.36-2.27,13.35-6.74c5.15-4.62,6.64-11.79,6.93-17.28a21.48,21.48,0,0,1-12-6.25,13.15,13.15,0,0,1-12.06-1.36A18.19,18.19,0,0,1,191.22,163.12Z"/><ellipse cx="212.11" cy="186.11" rx="1.66" ry="1.95"/><path d="M202.62,197.86a3.06,3.06,0,0,1-2.36-.89.63.63,0,0,1,.08-.88.62.62,0,0,1,.88.08,2,2,0,0,0,1.4.44,1.91,1.91,0,0,0,1.41-.45.63.63,0,0,1,.88,0,.61.61,0,0,1,.07.86A3,3,0,0,1,202.62,197.86Z"/><path d="M202.62,202.69c-3.25,0-5.81-1.51-5.94-3.5a.63.63,0,0,1,1.25-.09c.08,1.13,1.89,2.34,4.69,2.34s4.62-1.21,4.7-2.34a.62.62,0,0,1,.66-.58.63.63,0,0,1,.59.67C208.43,201.18,205.88,202.69,202.62,202.69Z"/><path d="M202.62,205.82a5.19,5.19,0,0,1-3.69-1.45.63.63,0,1,1,.92-.85,4.19,4.19,0,0,0,5.55,0,.62.62,0,0,1,.88,0,.64.64,0,0,1,0,.89A5.22,5.22,0,0,1,202.62,205.82Z"/><path d="M189.17,181a.66.66,0,0,1-.27-.06.63.63,0,0,1-.3-.83c1.06-2.23,3.76-3.68,5.67-3a.62.62,0,0,1,.4.79.63.63,0,0,1-.8.4c-1.17-.39-3.28.58-4.13,2.38A.62.62,0,0,1,189.17,181Z"/><path class="cls-6" d="M191.08,204.39s-11.19,3.83-16.93,5.81-9.8,3.65-12.51,11.89-8.86,29.93-9.49,41.81,7.72,17.73,15.54,13.46a32.71,32.71,0,0,0,4.9-3.44s-1.53,17.38-1.67,32.95a30.44,30.44,0,0,0,9.87,3.34c5.29.69,10.85-2.37,12.52-13.91s2.36-51,2.36-51A142.48,142.48,0,0,1,191.08,204.39Z"/><path d="M182.3,311.25a13.39,13.39,0,0,1-1.63-.11,31,31,0,0,1-10.22-3.46,1,1,0,0,1-.47-.82c.11-12.22,1.09-25.7,1.49-30.86a23.24,23.24,0,0,1-3.35,2.19,10.55,10.55,0,0,1-10.94,0c-4.07-2.56-6.3-7.91-6-14.3.62-11.77,6.69-33.42,9.54-42.06,2.75-8.37,6.78-10.3,13.1-12.48,5.73-2,16.93-5.81,16.93-5.81a.94.94,0,0,1,1.24.94A142.53,142.53,0,0,0,196.58,245a1.33,1.33,0,0,1,0,.28c0,1.61-.71,39.68-2.37,51.15C193.57,301,191.1,311.25,182.3,311.25Zm-10.43-4.94a29.41,29.41,0,0,0,9,3c6,.8,10.12-3.86,11.46-13.1,1.59-11,2.3-48.2,2.35-50.78a145.42,145.42,0,0,1-4.64-39.66l-15.63,5.36c-5.74,2-9.39,3.59-11.93,11.29-2.81,8.56-8.83,30-9.44,41.57-.3,5.7,1.6,10.41,5.09,12.61a8.77,8.77,0,0,0,9.06,0A32.42,32.42,0,0,0,172,273.2a.93.93,0,0,1,1-.12,1,1,0,0,1,.51.92C173.51,274.17,172,291.1,171.87,306.31Z"/><path class="cls-6" d="M214.16,204.39s11.2,3.83,16.93,5.81,9.8,3.65,12.52,11.89,8.86,29.93,9.49,41.81-6.26,18.22-15.16,15.72c-3.2-1.12-5-1.95-5-1.95s1.26,13.63,1.39,29.2a30.33,30.33,0,0,1-9.87,3.34c-5.28.69-10.84-2.37-12.51-13.91s-2.37-51-2.37-51A142.07,142.07,0,0,0,214.16,204.39Z"/><path d="M223.13,311.23c-3.84,0-10.27-2-12.12-14.79-1.66-11.47-2.35-49.54-2.38-51.15a1.35,1.35,0,0,1,0-.28,142.32,142.32,0,0,0,4.55-40.57,1,1,0,0,1,.38-.8.93.93,0,0,1,.87-.14s11.19,3.83,16.93,5.81c6.31,2.18,10.34,4.11,13.1,12.48,2.84,8.64,8.92,30.29,9.53,42.06.35,6.59-1.5,11.85-5.22,14.82-3,2.37-6.92,3-11.12,1.85-1.58-.55-2.82-1-3.69-1.37.33,4,1.15,15.31,1.27,27.71a.94.94,0,0,1-.48.82,30.89,30.89,0,0,1-10.21,3.46A12.24,12.24,0,0,1,223.13,311.23Zm-12.61-65.84c0,2.58.76,39.77,2.35,50.78,1.34,9.24,5.41,13.9,11.46,13.1a29.31,29.31,0,0,0,9-3c-.16-15.12-1.37-28.42-1.38-28.55a1,1,0,0,1,.39-.86,1,1,0,0,1,.94-.09s1.81.84,4.92,1.92c3.6,1,6.86.48,9.39-1.53,3.22-2.58,4.83-7.29,4.52-13.25-.61-11.58-6.63-33-9.45-41.57-2.53-7.7-6.18-9.31-11.93-11.29-4.54-1.57-12.51-4.3-15.62-5.36A145.42,145.42,0,0,1,210.52,245.39Z"/><path class="cls-1" d="M179,171l-.12,0a.63.63,0,0,1-.5-.73c2-10.26,7.76-15.05,8-15.25a.63.63,0,0,1,.88.1.62.62,0,0,1-.09.88c-.06,0-5.69,4.73-7.57,14.51A.63.63,0,0,1,179,171Z"/><path class="cls-1" d="M221.53,173a.63.63,0,0,1-.62-.54c-1.74-12.88-9.25-18.15-9.32-18.2a.63.63,0,0,1,.7-1c.33.23,8,5.6,9.86,19.07a.63.63,0,0,1-.53.71Z"/><path class="cls-1" d="M223.92,181.85c0,.52,0,1.11,0,1.75h0a34.45,34.45,0,0,1-1.77,10.2c3,.74,5.24-3.85,5.54-7.59S226.25,179.9,223.92,181.85Z"/><path d="M222.75,194.66a3.37,3.37,0,0,1-.83-.1.78.78,0,0,1-.5-.39.81.81,0,0,1,0-.63,33.46,33.46,0,0,0,1.72-10c0-.58,0-1.16,0-1.72a.78.78,0,0,1,.28-.61,2.67,2.67,0,0,1,3.07-.59c1.4.73,2.17,2.93,2,5.62s-1.41,6.12-3.54,7.65A3.66,3.66,0,0,1,222.75,194.66Zm1.95-12.42c0,.47,0,.94,0,1.4a36.59,36.59,0,0,1-1.47,9.4,2.52,2.52,0,0,0,.79-.39c1.43-1,2.67-3.82,2.89-6.5.18-2.22-.42-3.74-1.11-4.09A1,1,0,0,0,224.7,182.24Z"/><path d="M172.59,274.86a.91.91,0,0,1-.75-.38.94.94,0,0,1,.19-1.32,73.18,73.18,0,0,0,8.55-7.79,6,6,0,0,1-3.94-2.26c-2.86-3.36-4.1-10.43-2.34-16.52L158,260.45a.94.94,0,1,1-1.21-1.43l19.29-16.38a.94.94,0,0,1,1.43,1.18c-3.33,5.88-2.41,14.54.6,18.08a3.87,3.87,0,0,0,4.61,1.33.94.94,0,0,1,1,1.5,80,80,0,0,1-10.58,9.94A.88.88,0,0,1,172.59,274.86Z"/><path class="cls-1" d="M203.56,227.61c-.1-.73-.21-2.19-.94-2.5s-3.65-1.15-5-1.56a6.42,6.42,0,0,0-4.59.31c-1.56.73-8.24,4.8-9.28,5.94s-4,10.64-4,10.64a23.34,23.34,0,0,1-3.13,2.92,20.08,20.08,0,0,0-.65,17l8.44-10.07,1.8-2.14a9.58,9.58,0,0,0,7.51-2.92l10-14.08S203.67,228.34,203.56,227.61Z"/><path d="M176,261.32h-.12a.94.94,0,0,1-.73-.53c-2.09-4.39-2.57-12.15.68-17.88a.78.78,0,0,1,.22-.26,28.47,28.47,0,0,0,2.88-2.66c.77-2.47,3-9.63,4.11-10.81s8-5.42,9.58-6.16a7.3,7.3,0,0,1,5.26-.36l1.39.41c1.83.55,3.18.95,3.72,1.19,1.14.49,1.33,2,1.46,3l0,.25c.11.76.21,3.35.22,3.64a.9.9,0,0,1-.17.58l-10,14.08-.05.06a10.39,10.39,0,0,1-7.76,3.27h0l-10,11.87A1,1,0,0,1,176,261.32ZM177.39,244a19.31,19.31,0,0,0-1.09,14.6l9.23-11a.93.93,0,0,1,.76-.33,8.62,8.62,0,0,0,6.73-2.56l9.8-13.78c0-.93-.12-2.64-.19-3.13h0l0-.28a4.25,4.25,0,0,0-.38-1.52c-.44-.18-2.19-.7-3.47-1.08l-1.4-.42a5.49,5.49,0,0,0-3.91.26c-1.68.78-8.12,4.78-9,5.73-.56.64-2.39,5.84-3.76,10.28a1.11,1.11,0,0,1-.14.29A22.3,22.3,0,0,1,177.39,244Z"/><path class="cls-7" d="M183,264.11c2.78-2.71,2.62-9.44,1.43-13.81L176,260.37h0C177.49,263.47,179.93,265.26,183,264.11Z"/><path d="M181.2,265.4c-2.44,0-4.61-1.62-6-4.62a.93.93,0,0,1,.13-1l8.44-10.07a1,1,0,0,1,.93-.32,1,1,0,0,1,.7.68c1.13,4.16,1.61,11.52-1.69,14.73a1,1,0,0,1-.32.21A6.26,6.26,0,0,1,181.2,265.4Zm1.82-1.29Zm-5.89-3.61c.9,1.65,2.63,3.69,5.37,2.8,1.9-2.05,2.2-6.79,1.45-10.94Z"/><path d="M232.93,278.45a.85.85,0,0,1-.31-.06c-3.56-1.55-12.22-5-12.3-5.07a.77.77,0,0,1-.49-.81.79.79,0,0,1,.66-.69c2.57-.4,4.17-2.48,5-4.15a16.61,16.61,0,0,0,.41-13.88.79.79,0,0,1,.14-.89.78.78,0,0,1,.88-.17l16.93,7.51a.78.78,0,0,1-.64,1.43l-15.18-6.73a18.38,18.38,0,0,1-1.15,13.46,9.83,9.83,0,0,1-4.05,4.27c2.8,1.13,7.85,3.18,10.37,4.28a.78.78,0,0,1-.32,1.5Z"/><path class="cls-7" d="M226.79,266.82l-5-2.24c-.62,0-1.67,0-2.92,0-.25,2.39-.46,7.19,1.77,8C223.44,272.16,225.55,269.85,226.79,266.82Z"/><path d="M220.61,273.54a.87.87,0,0,1-.32-.06c-2.65-1-2.76-5.41-2.38-9a.94.94,0,0,1,.91-.84h.37c1.13,0,2,0,2.62,0a1,1,0,0,1,.33.08l5,2.24a.94.94,0,0,1,.48,1.22c-1.49,3.64-3.94,5.89-6.91,6.35Zm-.91-8c-.24,3.21.15,5.51,1,6.1,2.47-.52,4-2.66,4.81-4.32l-4-1.79C221.09,265.5,220.45,265.5,219.7,265.52Z"/><path d="M172.45,247.88h0a.94.94,0,0,1-.92-1c0-.56.39-13.8,3.25-21.91a.94.94,0,1,1,1.78.62c-2.77,7.83-3.14,21.2-3.15,21.34A.93.93,0,0,1,172.45,247.88Z"/><path d="M232.8,257h0a.93.93,0,0,1-.9-1c0-.06.2-6,0-9,0-.41-.06-.95-.09-1.61-.21-4.19-.63-12.9-3.06-19.76a.94.94,0,1,1,1.77-.62c2.52,7.12,3,16,3.17,20.29,0,.64.06,1.17.08,1.58.21,3.07,0,9,0,9.2A1,1,0,0,1,232.8,257Z"/><ellipse cx="193.13" cy="186.11" rx="1.66" ry="1.95"/><path d="M189.31,238.74a.62.62,0,0,1-.44-.18l-5.28-5.22a.63.63,0,0,1,0-.89.64.64,0,0,1,.89,0l5.28,5.22a.61.61,0,0,1,0,.88A.59.59,0,0,1,189.31,238.74Z"/><path d="M191.34,234.29a.62.62,0,0,1-.45-.2L187,230a.62.62,0,0,1,0-.88.63.63,0,0,1,.89,0l3.88,4.14a.62.62,0,0,1,0,.89A.63.63,0,0,1,191.34,234.29Z"/><path d="M194,231a.62.62,0,0,1-.48-.23l-3-3.56a.62.62,0,0,1,.07-.88.63.63,0,0,1,.89.07l3,3.57a.63.63,0,0,1-.08.88A.62.62,0,0,1,194,231Z"/><path d="M199,230.21a.64.64,0,0,1-.47-.21l-4-4.51a.63.63,0,0,1,.06-.89.62.62,0,0,1,.88.05l4,4.52a.63.63,0,0,1,0,.89A.66.66,0,0,1,199,230.21Z"/><path class="cls-8" d="M211.8,228.7H193.44c-1.59,0-3.11,1.21-2.86,4.2l2.29,27.23a2.47,2.47,0,0,0,2.48,2.41H209.9a2.47,2.47,0,0,0,2.48-2.41l2.29-27.23C214.92,229.91,213.39,228.7,211.8,228.7Z"/><path d="M209.89,263.48H195.35a3.37,3.37,0,0,1-3.41-3.25L189.64,233a5.08,5.08,0,0,1,1.1-4.06,3.61,3.61,0,0,1,2.7-1.15H211.8a3.64,3.64,0,0,1,2.71,1.15A5.1,5.1,0,0,1,215.6,233l-2.29,27.22A3.38,3.38,0,0,1,209.89,263.48Zm-16.45-33.84a1.74,1.74,0,0,0-1.32.55,3.43,3.43,0,0,0-.6,2.63l2.29,27.23a1.54,1.54,0,0,0,1.54,1.55h14.54a1.55,1.55,0,0,0,1.55-1.58l2.29-27.2a3.43,3.43,0,0,0-.6-2.63,1.74,1.74,0,0,0-1.33-.55Z"/><path d="M211.8,231.87H193.44a.63.63,0,0,1,0-1.26H211.8a.63.63,0,0,1,0,1.26Z"/><path d="M194.21,237a2.09,2.09,0,1,1,2.09-2.09A2.09,2.09,0,0,1,194.21,237Zm0-2.93a.85.85,0,0,0-.84.84.84.84,0,0,0,.84.83.83.83,0,0,0,.83-.83A.84.84,0,0,0,194.21,234Z"/><path class="cls-1" d="M226.65,253.45l-3.05-1.4s-2.54-7.58-3.63-9.1-3.88-4.71-4.83-6-3.25,1.14-1.91,4.2,2.8,4.83,3,7.06a35.14,35.14,0,0,1-6.74-2c-4.39-1.66-7.45-3.06-9.17-3.88s-3.3,1.27-2.35,3.11c-2.8-.57-3.75,1.91-1.84,3.82-1.28.95-1.47,3.05,1.71,4.77-1.52-.06-1.91,2-.12,3.56s8,4.9,11.51,6.18,10.44.63,12.54.76l5,2.24A17.36,17.36,0,0,0,226.65,253.45Z"/><path d="M226.79,267.76a.84.84,0,0,1-.38-.08l-4.88-2.17c-.52,0-1.34,0-2.27,0-3,.07-7.62.17-10.36-.83-3.51-1.28-9.91-4.71-11.81-6.34a3.58,3.58,0,0,1-1.34-3.87A2.19,2.19,0,0,1,196,254a4.05,4.05,0,0,1-1.69-2.83,2.9,2.9,0,0,1,.54-1.92,3.2,3.2,0,0,1-.36-3.35,2.87,2.87,0,0,1,2.24-1.42,3.19,3.19,0,0,1,.89-2.41,2.61,2.61,0,0,1,3.09-.55c2.7,1.29,5.75,2.59,9.09,3.85A45.83,45.83,0,0,0,215,247a17.21,17.21,0,0,0-1.23-2.63c-.43-.82-.93-1.76-1.4-2.85-1.06-2.42-.23-4.78,1.14-5.58a1.76,1.76,0,0,1,2.38.44c.39.53,1.14,1.42,1.93,2.37,1.12,1.34,2.28,2.73,2.92,3.63,1,1.45,3,7.27,3.62,9l2.69,1.23a.9.9,0,0,1,.45.45,18.4,18.4,0,0,1,.16,14.14,1,1,0,0,1-.52.52A1,1,0,0,1,226.79,267.76ZM221,263.62l.83,0a1,1,0,0,1,.33.08l4.12,1.84a16.6,16.6,0,0,0-.31-11.4l-2.74-1.26a.93.93,0,0,1-.5-.55c-1-3-2.77-7.82-3.5-8.86-.6-.84-1.79-2.26-2.83-3.52-.78-.92-1.51-1.8-1.94-2.37a1.28,1.28,0,0,0-.41.51,3.11,3.11,0,0,0,.06,2.68c.45,1,.93,1.93,1.35,2.72a12.29,12.29,0,0,1,1.72,4.64,1,1,0,0,1-.29.76.93.93,0,0,1-.78.25,35.23,35.23,0,0,1-7-2c-3.38-1.28-6.49-2.6-9.23-3.92a.75.75,0,0,0-.93.17,1.44,1.44,0,0,0-.18,1.67,1,1,0,0,1-.09,1,.92.92,0,0,1-.94.35c-.79-.16-1.39,0-1.61.39s-.1,1.12.62,1.84a1,1,0,0,1,.27.74.92.92,0,0,1-.37.68,1.11,1.11,0,0,0-.48,1c.05.72.81,1.53,2.08,2.21a.94.94,0,0,1-.49,1.77c-.2,0-.25.07-.29.16-.12.3,0,1.05.82,1.75a53.94,53.94,0,0,0,11.22,6c2.41.88,6.79.78,9.68.72Z"/><path d="M210.3,251.59a.57.57,0,0,1-.22,0l-.47-.18C206,250,200,247.69,197.6,246a.64.64,0,0,1-.16-.87.63.63,0,0,1,.88-.16c2.3,1.59,8.44,4,11.74,5.22l.47.18a.63.63,0,0,1-.23,1.21Z"/><path d="M209.41,255.79a.64.64,0,0,1-.2,0,91.39,91.39,0,0,1-13.43-5.92.63.63,0,1,1,.67-1.06,92,92,0,0,0,13.17,5.79.63.63,0,0,1-.21,1.22Z"/><path d="M208.9,259.93a.78.78,0,0,1-.21,0,74.31,74.31,0,0,1-11.18-5.27.64.64,0,0,1-.22-.86.63.63,0,0,1,.86-.22,73.4,73.4,0,0,0,11,5.17.63.63,0,0,1-.22,1.22Z"/><polyline class="cls-6" points="677.48 321.58 676.84 290.21 628.98 289.14 624.5 321.58"/><path class="cls-1" d="M658.22,198.44l-19.21.11a56.27,56.27,0,0,1,.11,8.11,25.88,25.88,0,0,0,9.71,8.64,33.65,33.65,0,0,0,9.4-8.72Z"/><path d="M648.83,216a.72.72,0,0,1-.32-.08,26.47,26.47,0,0,1-10-8.91.74.74,0,0,1-.1-.46,56.46,56.46,0,0,0-.11-8,.7.7,0,0,1,.19-.55.72.72,0,0,1,.52-.23l19.21-.11h0a.71.71,0,0,1,.5.21.72.72,0,0,1,.22.51l0,8.14a.76.76,0,0,1-.13.41,34.43,34.43,0,0,1-9.64,8.94A.78.78,0,0,1,648.83,216Zm-9-9.55a25.7,25.7,0,0,0,8.93,8,33.16,33.16,0,0,0,8.72-8.13v-7.18l-17.71.1A54.12,54.12,0,0,1,639.86,206.48Z"/><polyline class="cls-9" points="750.62 321.58 751.9 305.26 726.85 275.01 718.13 275.33 701.16 304.86 701 321.58"/><path d="M725.17,322.3a.72.72,0,0,1-.72-.72V311.35l-6.93-4.11a.73.73,0,0,1-.25-1,.71.71,0,0,1,1-.25l7.28,4.32a.72.72,0,0,1,.36.62v10.64A.73.73,0,0,1,725.17,322.3Z"/><path class="cls-1" d="M654,177.85a9.65,9.65,0,0,0,4.86-5.76c-4.22,5.28-13.24,5.6-18.09,6.35s-7,5.92-7,5.92a85,85,0,0,0,1.28,11.84c1,4.06,6.19,9.29,13.77,9.29s12.8-5.23,13.76-9.29a85,85,0,0,0,1.28-11.84,36.21,36.21,0,0,1-3.52-8A10.87,10.87,0,0,1,654,177.85Z"/><path d="M648.83,206.21a16,16,0,0,1-9.81-3.27,12.5,12.5,0,0,1-4.66-6.57,83.28,83.28,0,0,1-1.3-12,.65.65,0,0,1,.05-.31c.1-.22,2.35-5.56,7.55-6.36.72-.11,1.52-.21,2.38-.32,5-.62,11.83-1.48,15.25-5.76a.72.72,0,0,1,.89-.2.71.71,0,0,1,.37.83,10.61,10.61,0,0,1-3,4.77,8.16,8.16,0,0,0,3.41-1.23.71.71,0,0,1,.65-.08.73.73,0,0,1,.45.47,36.2,36.2,0,0,0,3.43,7.76.67.67,0,0,1,.12.43,83.28,83.28,0,0,1-1.3,12C662.17,201.1,656.32,206.21,648.83,206.21ZM634.51,184.5A82.66,82.66,0,0,0,635.76,196c.84,3.52,5.56,8.72,13.07,8.72s12.22-5.2,13.06-8.72a81.78,81.78,0,0,0,1.25-11.48,35.31,35.31,0,0,1-3.2-7.07,12.11,12.11,0,0,1-6,1.08.71.71,0,0,1-.64-.6.7.7,0,0,1,.41-.77,8.08,8.08,0,0,0,2.49-1.86c-3.88,2.36-9,3-13,3.5-.85.1-1.64.2-2.34.31C636.9,179.76,634.88,183.71,634.51,184.5Z"/><path class="cls-1" d="M631.17,191c.3,2.72,2,5.39,3.75,4.53a69.68,69.68,0,0,1-.94-7.91C632.44,186.57,630.86,188.34,631.17,191Z"/><path d="M634.24,196.45a2.27,2.27,0,0,1-1.13-.31c-1.31-.71-2.41-2.78-2.66-5h0c-.21-1.88.39-3.53,1.53-4.2a2.14,2.14,0,0,1,2.41.15.72.72,0,0,1,.31.54,67.56,67.56,0,0,0,.93,7.81.73.73,0,0,1-.39.79A2.15,2.15,0,0,1,634.24,196.45Zm-2.36-5.5c.2,1.75,1,3.44,1.92,3.93a1.19,1.19,0,0,0,.28.1c-.39-2.16-.64-4.83-.8-6.89a.63.63,0,0,0-.57.06c-.51.3-1,1.31-.83,2.8Z"/><path class="cls-1" d="M663.68,187.65a72,72,0,0,1-.95,7.91c1.75.86,3.45-1.81,3.76-4.53S665.21,186.57,663.68,187.65Z"/><path d="M663.41,196.45a2.15,2.15,0,0,1-1-.25.73.73,0,0,1-.39-.79,67.86,67.86,0,0,0,.94-7.81.68.68,0,0,1,.3-.54,2.15,2.15,0,0,1,2.42-.15c1.14.67,1.74,2.32,1.52,4.2s-1.12,4.19-2.66,5A2.27,2.27,0,0,1,663.41,196.45Zm1-8.36c-.16,2.06-.41,4.73-.79,6.89a1.3,1.3,0,0,0,.27-.1c.89-.49,1.72-2.18,1.92-3.93.17-1.49-.31-2.5-.83-2.8A.63.63,0,0,0,664.37,188.09Z"/><path class="cls-5" d="M661.36,166.22c-2.82-6.56-8.64-7.52-16.91-5.18s-14.62,10.51-12.91,15.26a49.55,49.55,0,0,1,2.24,8.06s2.13-5.18,7-5.92,13.87-1.07,18.09-6.35a9.65,9.65,0,0,1-4.86,5.76,10.87,10.87,0,0,0,6.35-1.44,36.21,36.21,0,0,0,3.52,8s1.5-4.38,2.56-7.68S666.33,166.11,661.36,166.22Z"/><path d="M663.87,185.08a.72.72,0,0,1-.6-.32,34.05,34.05,0,0,1-3.33-7.27,12.11,12.11,0,0,1-6,1.08.71.71,0,0,1-.64-.6.7.7,0,0,1,.41-.77,8.08,8.08,0,0,0,2.49-1.86c-3.88,2.36-9,3-13,3.5-.85.1-1.64.2-2.34.31-4.4.68-6.41,5.44-6.43,5.48a.74.74,0,0,1-.75.45.73.73,0,0,1-.63-.61,51,51,0,0,0-2.21-7.92c-.63-1.77-.34-3.94.87-6.28a21.3,21.3,0,0,1,12.52-9.92c9.14-2.59,14.74-1,17.59,5.16a5.11,5.11,0,0,1,3.84,2.18,11.45,11.45,0,0,1,1.44,9.21c-1.06,3.27-2.55,7.65-2.57,7.69a.72.72,0,0,1-.59.49Zm-3.52-9.39a.67.67,0,0,1,.24,0,.73.73,0,0,1,.45.47,40.08,40.08,0,0,0,2.65,6.45c.53-1.57,1.38-4.11,2-6.2a9.92,9.92,0,0,0-1.22-7.9,3.69,3.69,0,0,0-3.14-1.61.74.74,0,0,1-.68-.43c-2.47-5.75-7.43-7.22-16.05-4.77A19.76,19.76,0,0,0,633,170.93a6.67,6.67,0,0,0-.79,5.13,58.63,58.63,0,0,1,1.87,6.24,9.93,9.93,0,0,1,6.57-4.58c.72-.11,1.52-.21,2.38-.32,5-.62,11.83-1.48,15.25-5.76a.72.72,0,0,1,.89-.2.71.71,0,0,1,.37.83,10.61,10.61,0,0,1-3,4.77,8.16,8.16,0,0,0,3.41-1.23A.75.75,0,0,1,660.35,175.69Z"/><path class="cls-8" d="M639.12,206.66s-9.39,4.06-13.13,5.55-6.4,3.84-7.36,9.5-4.38,67.65-4.38,67.65l20.92,3.84,8.53-64.45A70.4,70.4,0,0,1,639.12,206.66Z"/><path d="M635.17,293.92H635l-20.92-3.84a.73.73,0,0,1-.59-.75c.14-2.54,3.43-62.1,4.39-67.73,1.11-6.55,4.57-8.76,7.8-10.05,3.69-1.47,13-5.5,13.11-5.54a.69.69,0,0,1,.68.06.73.73,0,0,1,.33.6,70.39,70.39,0,0,0,4.54,21.84.67.67,0,0,1,0,.34l-8.54,64.45a.68.68,0,0,1-.29.49A.71.71,0,0,1,635.17,293.92ZM615,288.76l19.54,3.59L643,228.83a73.25,73.25,0,0,1-4.53-21.09c-2.51,1.08-9.18,3.94-12.17,5.14s-5.93,3.12-6.92,9C618.45,227.07,615.37,282.19,615,288.76Z"/><path class="cls-8" d="M676.05,220.45c0-3.1-1.6-5.87-5.22-7.79s-12.6-6.08-12.6-6.08a98.64,98.64,0,0,1-5,22l6.07,65.87.65,7.11c6.83.64,17.61-.64,17.61-.64S676.05,223.54,676.05,220.45Z"/><path d="M664.41,302.42c-1.59,0-3.15-.05-4.55-.18a.73.73,0,0,1-.66-.65l-6.72-73a.7.7,0,0,1,0-.32,99.6,99.6,0,0,0,5-21.78.71.71,0,0,1,.36-.55.73.73,0,0,1,.66,0c.09,0,9,4.19,12.62,6.1s5.62,4.86,5.62,8.43c0,3.05,1.46,79.64,1.47,80.42a.73.73,0,0,1-.64.73A130.05,130.05,0,0,1,664.41,302.42Zm-3.82-1.57a106.48,106.48,0,0,0,16.21-.61c-.15-7.55-1.47-76.88-1.47-79.79s-1.67-5.47-4.84-7.15c-2.89-1.53-9.28-4.53-11.65-5.64a100,100,0,0,1-4.91,21Z"/><path class="cls-1" d="M653.2,228.54a98.64,98.64,0,0,0,5-22,33.65,33.65,0,0,1-9.4,8.72,25.88,25.88,0,0,1-9.71-8.64,70.4,70.4,0,0,0,4.58,22.09l-8.53,64.45c4.46,2.36,16.28,3.1,24.1,1.21Z"/><path d="M649,296.19c-5.7,0-11.33-.83-14.2-2.35a.73.73,0,0,1-.38-.74L643,228.83a70.48,70.48,0,0,1-4.57-22.17.73.73,0,0,1,1.34-.38,25.61,25.61,0,0,0,9.06,8.2,33.15,33.15,0,0,0,8.85-8.31.72.72,0,0,1,1.31.48,100.52,100.52,0,0,1-5,22L660,294.35a.73.73,0,0,1-.55.77A46.65,46.65,0,0,1,649,296.19ZM636,292.78c4.63,2.13,15.33,2.64,22.54,1.07l-6-65.25a.7.7,0,0,1,0-.32,99.81,99.81,0,0,0,4.67-19.17,35.79,35.79,0,0,1-8,6.82.71.71,0,0,1-.68,0A26.43,26.43,0,0,1,640,209a74.7,74.7,0,0,0,4.42,19.46.67.67,0,0,1,0,.34Z"/><path d="M643.09,220.69a.46.46,0,0,1-.33-.13.49.49,0,0,1,0-.68l3.49-3.71a.49.49,0,0,1,.68,0,.47.47,0,0,1,0,.68l-3.49,3.71A.47.47,0,0,1,643.09,220.69Z"/><path d="M654,220.72a.45.45,0,0,1-.36-.16l-3.18-3.6a.49.49,0,0,1,.05-.68.47.47,0,0,1,.67,0l3.18,3.6a.5.5,0,0,1,0,.68A.51.51,0,0,1,654,220.72Z"/><circle class="cls-10" cx="648.83" cy="219.14" r="0.96"/><circle class="cls-10" cx="648.83" cy="240.17" r="0.96"/><circle class="cls-10" cx="648.83" cy="261.19" r="0.96"/><circle class="cls-10" cx="648.83" cy="282.21" r="0.96"/><path d="M641.36,228.16a.54.54,0,0,1-.25-.06l-6.29-3.74a.46.46,0,0,1-.23-.3.48.48,0,0,1,.06-.37l2.24-3.58-6.34-.38a.48.48,0,0,1-.4-.25.52.52,0,0,1,0-.47l4.7-8a.48.48,0,1,1,.83.48l-4.3,7.33,6.37.38a.48.48,0,0,1,.38.73l-2.41,3.85,5.87,3.49a.48.48,0,0,1-.24.89Z"/><path d="M656.08,228.7a.48.48,0,0,1-.42-.26.47.47,0,0,1,.2-.65l7.21-3.75-3.49-3.49a.49.49,0,0,1-.12-.48.48.48,0,0,1,.37-.33l6.76-1.35-4.93-7.3a.48.48,0,0,1,.8-.54l5.33,7.9a.48.48,0,0,1,.05.45.49.49,0,0,1-.35.29l-6.59,1.32,3.31,3.31a.48.48,0,0,1-.12.77l-7.79,4A.43.43,0,0,1,656.08,228.7Z"/><path d="M646.69,317.26a.48.48,0,0,1-.48-.48V299.71a.48.48,0,0,1,.48-.48.47.47,0,0,1,.48.48v17.07A.47.47,0,0,1,646.69,317.26Z"/><path d="M650.85,317.26a.48.48,0,0,1-.48-.48V299.71a.48.48,0,0,1,.48-.48.47.47,0,0,1,.48.48v17.07A.47.47,0,0,1,650.85,317.26Z"/><path class="cls-5" d="M731,170.47l-1.71,4.8,4.59,3a15.28,15.28,0,0,1-.85,5.3l1.81.31s1.28-2.14,2.56-1.94a2.82,2.82,0,0,1,1.38.55c3.88-6.62,4.24-14.55,0-17.49-3.2-8.88-12.91-6.94-18.35-7.76A18.35,18.35,0,0,1,712.1,154a7.47,7.47,0,0,0,1.39,5.3,15.14,15.14,0,0,1-6.51-4.79c-3.41,3.88-4.37,8.16-.11,11.94a7.56,7.56,0,0,1-4.8.1,8,8,0,0,0,5.08,6.55c.08-1.15.15-1.86.15-1.86C712.42,167.61,724.27,166.79,731,170.47Z"/><path d="M734.83,184.56h-.12l-1.81-.31a.72.72,0,0,1-.56-1,15.1,15.1,0,0,0,.82-4.66l-4.27-2.75a.73.73,0,0,1-.29-.85l1.5-4.2c-6.62-3.25-17.35-2.29-22.11.87,0,.31-.07.83-.12,1.5a.72.72,0,0,1-.33.56.74.74,0,0,1-.65.06,8.74,8.74,0,0,1-5.53-7.11.71.71,0,0,1,.26-.67.7.7,0,0,1,.71-.11,6.82,6.82,0,0,0,3.13.18c-3.15-3.48-2.83-7.71,1-12a.73.73,0,0,1,.57-.24.71.71,0,0,1,.55.29,15.13,15.13,0,0,0,4.28,3.68,7.87,7.87,0,0,1-.45-3.86.71.71,0,0,1,1.17-.46,17.9,17.9,0,0,0,8,3,37.24,37.24,0,0,0,3.79.26c5.2.2,12.3.47,15.06,7.75,4.2,3.15,4.22,11.13,0,18.32a.71.71,0,0,1-.5.34.72.72,0,0,1-.59-.15,2.06,2.06,0,0,0-1-.4c-.53-.08-1.4.88-1.83,1.6A.72.72,0,0,1,734.83,184.56ZM734,183l.53.09c.52-.73,1.68-2.08,3-1.86a4,4,0,0,1,1,.27c3.47-6.38,3.45-13.41-.14-15.91a.71.71,0,0,1-.27-.35c-2.37-6.57-8.46-6.8-13.84-7a37.64,37.64,0,0,1-3.94-.29,20.8,20.8,0,0,1-7.55-2.56,6.89,6.89,0,0,0,1.28,3.54.72.72,0,0,1-.8,1.13,15.76,15.76,0,0,1-6.28-4.34c-3.08,3.86-3,7.31.38,10.27a.73.73,0,0,1,.23.68.72.72,0,0,1-.47.54,8.62,8.62,0,0,1-4.1.38,7.22,7.22,0,0,0,3.5,4.49c0-.53.07-.82.07-.82a.72.72,0,0,1,.3-.52c5.1-3.66,17.14-4.86,24.46-.87a.73.73,0,0,1,.33.88L730.15,175l4.11,2.65a.72.72,0,0,1,.33.58A15.57,15.57,0,0,1,734,183Z"/><path class="cls-1" d="M737.39,181.9c-1.28-.2-2.56,1.94-2.56,1.94l-1.81-.31a15.28,15.28,0,0,0,.85-5.3l-4.59-3,1.71-4.8c-6.72-3.68-18.57-2.86-23.69.81,0,0-1.28,13.17.64,19.4s5.34,9.28,7.58,10.71v3.11a11.18,11.18,0,0,0,5.23,4.08s6.77-1.42,13.47-9a43.37,43.37,0,0,1,.4-8.19c2.24.72,4.69-1.73,5-5.2S738.67,182.1,737.39,181.9Z"/><path d="M720.75,209.3a.69.69,0,0,1-.25,0,11.94,11.94,0,0,1-5.59-4.37.69.69,0,0,1-.12-.39v-2.72c-2.48-1.68-5.69-4.9-7.54-10.89-1.94-6.29-.72-19.13-.67-19.67a.72.72,0,0,1,.3-.52c5.1-3.66,17.14-4.86,24.46-.87a.73.73,0,0,1,.33.88L730.15,175l4.11,2.65a.72.72,0,0,1,.33.58A15.57,15.57,0,0,1,734,183l.53.09c.52-.73,1.68-2.08,3-1.86,2.25.36,3.13,1.92,2.84,5.06a7.16,7.16,0,0,1-2.83,5.31,3.8,3.8,0,0,1-2.28.67,42.35,42.35,0,0,0-.3,7.33.72.72,0,0,1-.18.5c-6.78,7.67-13.58,9.17-13.87,9.23Zm-4.51-5a10.68,10.68,0,0,0,4.55,3.56c1.12-.3,6.94-2.1,12.7-8.51a43.89,43.89,0,0,1,.41-8,.74.74,0,0,1,.33-.52.76.76,0,0,1,.61-.08,2.16,2.16,0,0,0,1.88-.34,5.74,5.74,0,0,0,2.19-4.24c.3-3.2-.82-3.38-1.63-3.51h0c-.52-.08-1.4.88-1.83,1.6a.72.72,0,0,1-.74.34l-1.81-.31a.72.72,0,0,1-.56-1,15.1,15.1,0,0,0,.82-4.66l-4.27-2.75a.73.73,0,0,1-.29-.85l1.5-4.2c-6.62-3.25-17.35-2.29-22.11.87-.18,2.07-1,13.3.64,18.77,1.8,5.85,5,8.84,7.28,10.32a.76.76,0,0,1,.33.61Z"/><path class="cls-9" d="M734.3,200.79c-4.59,26-18.46,54.42-18.46,54.42-9.61-29.77-.32-50.9-.32-50.9l-20,6.51-5.76,59,7,37.45s15.58,3,18.14-3.94S720.53,277,720.53,277s2.56,18.89,5.44,25,7.58,7.76,15.16,6.61,10.77-3.3,10.77-3.3l6.94-91.88S743.05,205.7,734.3,200.79Z"/><path d="M737.06,309.62c-5.74,0-9.35-2.32-11.74-7.36-2-4.29-3.87-14.56-4.82-20.59-1,6.2-3,17-4.84,21.92-2.74,7.42-18.29,4.53-18.95,4.4a.73.73,0,0,1-.58-.57l-7-37.46a1.27,1.27,0,0,1,0-.2l5.76-59a.72.72,0,0,1,.5-.61l19.95-6.51a.72.72,0,0,1,.89,1,56.28,56.28,0,0,0-3.4,14.15,84.43,84.43,0,0,0,3.2,34.48c3-6.45,13.72-30.5,17.61-52.56a.72.72,0,0,1,1.06-.51c8.63,4.84,24.35,12.5,24.51,12.57a.74.74,0,0,1,.4.71l-6.94,91.87a.73.73,0,0,1-.31.55c-.14.09-3.43,2.26-11.08,3.42A27.6,27.6,0,0,1,737.06,309.62Zm-16.53-33.36h0a.72.72,0,0,1,.71.62c0,.19,2.58,18.85,5.38,24.76,2.63,5.56,6.8,7.36,14.39,6.21,6.05-.92,9.26-2.5,10.19-3l6.87-91c-2.52-1.24-15.3-7.51-23.25-11.91-4.73,25.57-18.21,53.34-18.34,53.62a.73.73,0,0,1-1.34-.1,86.13,86.13,0,0,1-3.79-36.92,62.24,62.24,0,0,1,2.94-13l-18.06,5.89-5.71,58.44,6.93,36.86a41.37,41.37,0,0,0,7.49.53c3.62-.11,8.17-.9,9.36-4.1,2.5-6.79,5.48-26,5.51-26.22A.72.72,0,0,1,720.53,276.26Z"/><path class="cls-1" d="M734.22,199.17c-6.7,7.93-13.47,9.41-13.47,9.41a11.35,11.35,0,0,1-5.23-4.27s-9.29,21.13.32,50.9c0,0,13.87-28.38,18.46-54.42C734.3,200.79,734.25,200.19,734.22,199.17Z"/><path d="M715.84,255.93h-.05a.72.72,0,0,1-.64-.5,86.13,86.13,0,0,1-3.79-36.92,55.88,55.88,0,0,1,3.5-14.49.71.71,0,0,1,1.27-.08,10.91,10.91,0,0,0,4.66,3.88c1.15-.32,7.07-2.24,12.88-9.11a.71.71,0,0,1,.79-.22.72.72,0,0,1,.48.66c0,1,.08,1.58.08,1.59a1.09,1.09,0,0,1,0,.18c-4.56,25.83-18.39,54.32-18.52,54.61A.73.73,0,0,1,715.84,255.93Zm-.12-50.13c-1.68,4.73-7.06,23.1.26,47.43,3-6.41,13.59-30.22,17.54-52.18-6.34,6.8-12.35,8.18-12.62,8.24a.71.71,0,0,1-.41,0A11.92,11.92,0,0,1,715.72,205.8Z"/><path d="M714.29,215.33a.73.73,0,0,1-.44-.15.72.72,0,0,1-.13-1,29.9,29.9,0,0,1,6.63-6.19.72.72,0,0,1,1,.2.71.71,0,0,1-.21,1,29.69,29.69,0,0,0-6.28,5.87A.72.72,0,0,1,714.29,215.33Z"/><path d="M728.38,216.19a.74.74,0,0,1-.56-.26,40.37,40.37,0,0,0-7.47-6.75.72.72,0,1,1,.79-1.2,40.42,40.42,0,0,1,7.79,7,.72.72,0,0,1-.09,1A.69.69,0,0,1,728.38,216.19Z"/><path class="cls-6" d="M716.78,211.84a8.92,8.92,0,0,0,1.67,5.33h2.67a40.26,40.26,0,0,0,3.37-5.64,37.68,37.68,0,0,0-3.74-2.95A30.29,30.29,0,0,0,716.78,211.84Z"/><path d="M721.12,217.89h-2.67a.69.69,0,0,1-.54-.25,9.45,9.45,0,0,1-1.85-5.78.7.7,0,0,1,.22-.54,30.44,30.44,0,0,1,4.07-3.34.71.71,0,0,1,.79,0,36.75,36.75,0,0,1,3.83,3,.74.74,0,0,1,.18.85,40.5,40.5,0,0,1-3.45,5.76A.7.7,0,0,1,721.12,217.89Zm-2.32-1.44h1.94a39.65,39.65,0,0,0,2.86-4.74c-1.26-1.09-2.31-1.87-2.85-2.25a30.9,30.9,0,0,0-3.23,2.67A8.31,8.31,0,0,0,718.8,216.45Z"/><path class="cls-6" d="M724,236l-2.91-18.83h-2.67a79.92,79.92,0,0,0-5.75,25.26,90.86,90.86,0,0,0,3.14,12.78S719.7,247.3,724,236Z"/><path d="M715.84,255.93h-.05a.72.72,0,0,1-.64-.5A92.92,92.92,0,0,1,712,242.56a1,1,0,0,1,0-.17,81.29,81.29,0,0,1,5.81-25.52.74.74,0,0,1,.66-.42h2.67a.71.71,0,0,1,.71.61l2.91,18.83a.67.67,0,0,1,0,.37c-4.28,11.2-8.18,19.19-8.21,19.27A.73.73,0,0,1,715.84,255.93Zm-2.42-13.53A91.36,91.36,0,0,0,716,253.23c1.33-2.87,4.21-9.24,7.3-17.31l-2.78-18h-1.57A81.21,81.21,0,0,0,713.42,242.4Z"/><path d="M713.81,256a.48.48,0,0,1-.42-.25A90.06,90.06,0,0,1,702.2,218.2a.51.51,0,0,1,.3-.46l5.1-2.14-2.94-2a.48.48,0,0,1-.07-.74l5.68-5.6a.48.48,0,0,1,.68.68l-5.27,5.19,3.2,2.15a.53.53,0,0,1,.21.45.48.48,0,0,1-.3.4l-5.61,2.35a89.59,89.59,0,0,0,11.05,36.82.49.49,0,0,1-.18.66A.53.53,0,0,1,713.81,256Z"/><path d="M720.13,253.24a.49.49,0,0,1-.37-.79,157.5,157.5,0,0,0,20.67-33.24l-5.07-4.09a.47.47,0,0,1-.17-.48.48.48,0,0,1,.34-.36l5.42-1.47-2.78-7.67a.47.47,0,0,1,.28-.61.49.49,0,0,1,.62.29l3,8.16a.48.48,0,0,1,0,.39.55.55,0,0,1-.3.24l-5,1.35,4.62,3.73a.47.47,0,0,1,.14.56,157.11,157.11,0,0,1-21,33.81A.49.49,0,0,1,720.13,253.24Z"/><ellipse cx="711.41" cy="181.78" rx="1.17" ry="1.38"/><ellipse cx="724.45" cy="181.14" rx="1.17" ry="1.38"/><path d="M717.65,189.46a6.7,6.7,0,0,1-2.54-.47.48.48,0,1,1,.39-.88,6,6,0,0,0,2.15.38.49.49,0,0,1,0,1Z"/><path d="M718,193.7h-.54c-.78,0-2.65-.22-3.32-1.08a.47.47,0,0,1,.08-.67.48.48,0,0,1,.68.08,4.19,4.19,0,0,0,2.6.7c1.87.1,4.25-.31,5.31-1.43a.48.48,0,0,1,.7.66C722.32,193.25,719.93,193.7,718,193.7Z"/><path d="M718.78,196.44a4.51,4.51,0,0,1-2.65-.7.49.49,0,0,1-.09-.68.48.48,0,0,1,.68-.08c1,.75,3.65.58,4.53-.11a.48.48,0,0,1,.59.76A5.32,5.32,0,0,1,718.78,196.44Z"/><path d="M713.22,178.66a.5.5,0,0,1-.26-.08h0a7.41,7.41,0,0,0-3.67-.94h-.17a.51.51,0,0,1-.49-.48.49.49,0,0,1,.47-.49,8.51,8.51,0,0,1,4.38,1.09.48.48,0,0,1-.26.89Z"/><path d="M720.16,176.79a.46.46,0,0,1-.37-.17.47.47,0,0,1,.05-.67,8.17,8.17,0,0,1,5.49-1.93.47.47,0,0,1,.43.52.49.49,0,0,1-.53.44c-2.46-.24-4.73,1.68-4.76,1.69A.47.47,0,0,1,720.16,176.79Z"/><path d="M721.93,182.82a.41.41,0,0,1-.38-.27,4.15,4.15,0,0,1-.08-2.81.42.42,0,0,1,.54-.23.4.4,0,0,1,.22.53,3.37,3.37,0,0,0,.09,2.23.42.42,0,0,1-.25.53Z"/><path d="M719.19,203.1a7.23,7.23,0,0,1-4.08-1.11.72.72,0,0,1-.19-1,.72.72,0,0,1,1-.19c1.69,1.15,4.77,1.15,7.18,0a23.36,23.36,0,0,0,6.62-4.87.73.73,0,0,1,1,1,24.8,24.8,0,0,1-7,5.17A10.87,10.87,0,0,1,719.19,203.1Z"/><rect class="cls-1" x="715.41" y="233.63" width="32.01" height="43.7" rx="3.92" transform="translate(-26.23 93.59) rotate(-7.19)"/><path d="M719.9,279.66a2.62,2.62,0,0,1-2.58-2.28l-5-39.61a2.62,2.62,0,0,1,2.26-2.92l28-3.53a2.6,2.6,0,0,1,2.91,2.26l5,39.61a2.6,2.6,0,0,1-2.26,2.91l-28,3.54Zm23-46.92h-.15l-28,3.54a1.13,1.13,0,0,0-.77.44,1.15,1.15,0,0,0-.24.86l5,39.61a1.17,1.17,0,0,0,1.3,1l28-3.54h0a1.17,1.17,0,0,0,1-1.3l-5-39.61a1.17,1.17,0,0,0-1.15-1Z"/><path class="cls-1" d="M727.57,257.67s-3.52-5.77-4.05-6.3a4.07,4.07,0,0,0-2.45-1.07c-1.07-.1-4.58-1-6.5-1.34s-2.61,3,.16,3.72a37.44,37.44,0,0,1,5.27,1.89l-10.14.21,1.07,15.48s9.82,2.13,16.43.1Z"/><path d="M720.38,272a49.8,49.8,0,0,1-9.6-1,.71.71,0,0,1-.57-.65l-1.07-15.48a.74.74,0,0,1,.19-.53.73.73,0,0,1,.52-.24l6.5-.13c-.57-.2-1.18-.39-1.81-.56a2.9,2.9,0,0,1-2.32-3.37,2.16,2.16,0,0,1,2.47-1.76c.94.16,2.22.45,3.46.73s2.48.56,3,.61a4.74,4.74,0,0,1,2.89,1.28c.55.55,3.32,5.06,4.16,6.43a.77.77,0,0,1,.11.39l-.22,12.7a.71.71,0,0,1-.51.67A25.11,25.11,0,0,1,720.38,272Zm-8.77-2.31c2,.38,9.57,1.62,15,.16l.2-12c-1.66-2.71-3.53-5.65-3.84-6a3.38,3.38,0,0,0-2-.86c-.6-.06-1.78-.33-3.16-.64-1.22-.28-2.48-.56-3.38-.71-.62-.11-.79.51-.82.64-.13.62.21,1.38,1.29,1.67a36.8,36.8,0,0,1,5.38,1.94.73.73,0,0,1,.41.8.72.72,0,0,1-.7.57l-9.38.2Z"/><ellipse cx="642.16" cy="185.21" rx="1.17" ry="1.38"/><ellipse cx="655.49" cy="185.21" rx="1.17" ry="1.38"/><path d="M640.29,196.84a.48.48,0,0,1-.48-.46,8,8,0,0,1,.8-3.43.47.47,0,0,1,.64-.22.48.48,0,0,1,.22.65,7.09,7.09,0,0,0-.7,3,.47.47,0,0,1-.46.49Z"/><path d="M648.83,193.7a2.7,2.7,0,0,1-2.47-1.46.48.48,0,1,1,.88-.4,1.72,1.72,0,0,0,1.59.89,1.74,1.74,0,0,0,1.59-.89.47.47,0,0,1,.63-.24.49.49,0,0,1,.24.64A2.69,2.69,0,0,1,648.83,193.7Z"/><path d="M648.83,198.34c-2.5,0-4.55-1-5.2-2a.48.48,0,0,1,.12-.67.49.49,0,0,1,.67.12,7,7,0,0,0,8.81,0,.49.49,0,0,1,.67-.12.48.48,0,0,1,.12.67C653.37,197.32,651.32,198.34,648.83,198.34Z"/><path d="M648.83,201.06a5.22,5.22,0,0,1-3.32-1.14.49.49,0,0,1,0-.68.48.48,0,0,1,.68,0,4.44,4.44,0,0,0,5.33,0,.48.48,0,0,1,.65.71A5.15,5.15,0,0,1,648.83,201.06Z"/><path d="M657.36,196.84h0a.47.47,0,0,1-.47-.49,7.09,7.09,0,0,0-.7-3,.49.49,0,0,1,.22-.65.48.48,0,0,1,.65.22,8.19,8.19,0,0,1,.79,3.43A.48.48,0,0,1,657.36,196.84Z"/><path class="cls-1" d="M637.09,171.5a.57.57,0,0,1-.28-.08.49.49,0,0,1-.12-.68,18.89,18.89,0,0,1,7.09-5.65.47.47,0,0,1,.63.24.48.48,0,0,1-.25.64,18.33,18.33,0,0,0-6.68,5.33A.47.47,0,0,1,637.09,171.5Z"/><path class="cls-1" d="M648.83,172.41a.48.48,0,0,1-.18-.93A10.66,10.66,0,0,0,654,167a.48.48,0,0,1,.85.44,11.4,11.4,0,0,1-5.8,4.93Z"/><path class="cls-1" d="M734.08,165.38a.49.49,0,0,1-.39-.2c-2.7-3.73-8.6-3.58-8.66-3.58a.48.48,0,1,1,0-1c.26,0,6.48-.16,9.47,4a.48.48,0,0,1-.1.67A.52.52,0,0,1,734.08,165.38Z"/><path class="cls-11" d="M787.6,321.58a75.7,75.7,0,0,0-3.44-17.44l-31.62-15.21L740,307.1a58.81,58.81,0,0,0-1.84,14.48"/><path class="cls-11" d="M723.57,259.88c-1.6,3-3,8.4-.64,12.88s13.45,22.65,13.45,22.65l7.52-11.76L735,266.76l1.6-2.4-1-5.24-8.86-3.66Z"/><path d="M736.38,296.14h0a.75.75,0,0,1-.61-.35c-.45-.74-11.16-18.24-13.47-22.69-2.58-5-.81-10.87.65-13.56a.41.41,0,0,1,0-.09l3.24-4.41a.72.72,0,0,1,.86-.24l8.86,3.65a.7.7,0,0,1,.43.54l1,5.24a.75.75,0,0,1-.11.53l-1.36,2.05,8.68,16.5a.73.73,0,0,1,0,.73L737,295.8A.74.74,0,0,1,736.38,296.14Zm-12.19-35.87c-1.32,2.46-2.91,7.74-.62,12.16,2,3.81,10.47,17.78,12.82,21.62l6.68-10.44-8.69-16.51a.73.73,0,0,1,0-.74l1.44-2.16-.83-4.57-8-3.28Z"/><path class="cls-1" d="M743.58,284.69c-3.68-.08-6.56,5.12-7.12,7.76s.56,6.64.56,6.64c-1.36.72-1.52,3.93,1.2,5.21l5.28-12.09Z"/><path d="M738.22,305a.67.67,0,0,1-.31-.07,4.27,4.27,0,0,1-2.57-3.78,3.19,3.19,0,0,1,.86-2.36,16.77,16.77,0,0,1-.45-6.51c.64-3,3.77-8.33,7.75-8.33h.1a.72.72,0,0,1,.7.73l-.08,7.52a.67.67,0,0,1-.06.28l-5.28,12.09a.76.76,0,0,1-.41.38A.74.74,0,0,1,738.22,305Zm4.63-19.54c-2.83.58-5.2,4.84-5.69,7.12-.51,2.44.54,6.26.55,6.3a.72.72,0,0,1-.35.83,1.55,1.55,0,0,0-.57,1.41,2.71,2.71,0,0,0,1.1,2.11l4.89-11.19Z"/><path class="cls-5" d="M770.79,187.53c-1.6-7-12.48-8.32-19.53-2.4s-13.12,16.41-13.92,23.53,1.76,10.33,6.16,10.89c0,0-1.68,4.72-5.44,6.08,0,0,4.56,2.16,7.76-.24a7.51,7.51,0,0,0,.56,8.24l33.85.16s1-5.36-1.68-8a6.19,6.19,0,0,0,7.77-3.28c-3.37,1.36-8.41-.4-7.69-5.85s4-9.92,3.84-16.4S778.07,185.93,770.79,187.53Z"/><path d="M780.23,234.51h0l-33.85-.16a.69.69,0,0,1-.57-.28,8,8,0,0,1-1.37-7.17,10.17,10.17,0,0,1-6.69-.62.72.72,0,0,1,.06-1.33c2.5-.9,4-3.52,4.67-4.85-3.38-.76-6.77-3.45-5.86-11.52.84-7.48,7.07-18,14.18-24,4.2-3.53,10.16-4.84,14.85-3.27a8.43,8.43,0,0,1,5.66,5.39,8.48,8.48,0,0,1,6.64,1.77c3.07,2.4,5.13,7,5.25,11.77.09,3.95-1,7.14-2.11,10.23a31.17,31.17,0,0,0-1.74,6.29,4.54,4.54,0,0,0,1.53,4.46,5.39,5.39,0,0,0,5.17.62.71.71,0,0,1,.78.16.72.72,0,0,1,.15.8,7,7,0,0,1-6.76,4.08c1.49,3,.76,6.85.72,7.05A.71.71,0,0,1,780.23,234.51Zm-33.48-1.6,32.86.16c.16-1.4.35-4.91-1.56-6.76a.74.74,0,0,1-.11-.91.73.73,0,0,1,.86-.29,5.43,5.43,0,0,0,5.93-1.48,6.73,6.73,0,0,1-4.73-1.26,6,6,0,0,1-2.08-5.8,33.08,33.08,0,0,1,1.8-6.58c1-3,2.12-6,2-9.71-.1-4.27-2-8.56-4.69-10.68a7,7,0,0,0-6.11-1.36.72.72,0,0,1-.86-.55,7,7,0,0,0-4.9-5c-4.23-1.42-9.64-.21-13.46,3-6.75,5.67-12.88,16-13.67,23.05-.7,6.23,1.11,9.53,5.53,10.09a.74.74,0,0,1,.53.34.74.74,0,0,1,.06.62,12.7,12.7,0,0,1-4.28,5.7c1.48.38,3.75.63,5.49-.68a.72.72,0,0,1,.92,0,.74.74,0,0,1,.13.92A6.74,6.74,0,0,0,746.75,232.91Z"/><path class="cls-11" d="M736.62,264.36c1.12,8.32,4.88,13.53,5.92,16.65.48,3.76-1.84,10.88-3.12,15.52s-2.72,10.33-2.72,10.33a17.35,17.35,0,0,0,6.24,3.84c1.68.72,4.48.08,5.76-3.28s4.16-17.13,4.16-17.13L757.27,307c.8,2.88,3.84,5.36,8.24,4.8s13.28-2.88,22.41-7l-13-25.69,5.68-17.53,11-10.56s-1.36-9.21-2.16-12.41-3-6.48-5.84-7.36-15.29-3-15.29-3l-14.25.72s-8.48,2.24-11,2.88a11.18,11.18,0,0,0-6.64,5.36c-1.76,2.88-12.81,22.73-12.81,22.73"/><path d="M764.25,312.62a7.69,7.69,0,0,1-7.68-5.41l-3.63-13.81c-.93,4.26-2.64,11.84-3.56,14.27a6,6,0,0,1-3.24,3.63,4.43,4.43,0,0,1-3.46.07,17.9,17.9,0,0,1-6.5-4,.71.71,0,0,1-.18-.68c0-.06,1.45-5.74,2.72-10.34.2-.71.42-1.47.65-2.27,1.26-4.39,2.82-9.85,2.46-12.9a28.44,28.44,0,0,0-1.4-3.1,42.09,42.09,0,0,1-4.53-13.61.72.72,0,0,1,.62-.81.71.71,0,0,1,.81.62,40.78,40.78,0,0,0,4.4,13.16,28.85,28.85,0,0,1,1.49,3.35.57.57,0,0,1,0,.14c.42,3.33-1.2,9-2.5,13.54-.23.8-.45,1.56-.65,2.27-1.06,3.86-2.25,8.51-2.61,9.9a17.14,17.14,0,0,0,5.67,3.39l.05,0a3.08,3.08,0,0,0,2.36-.07,4.61,4.61,0,0,0,2.45-2.81c1.24-3.27,4.1-16.88,4.13-17a.73.73,0,0,1,.69-.57.68.68,0,0,1,.71.54l4.4,16.72c.68,2.43,3.3,4.8,7.46,4.27,4.48-.57,13-2.89,21.51-6.67l-12.62-25a.7.7,0,0,1,0-.55L780,261.34a.71.71,0,0,1,.18-.3l10.7-10.3c-.26-1.75-1.4-9.2-2.09-12s-2.63-6-5.36-6.85-14-2.82-15.12-3l-14.08.72c-.84.22-8.57,2.26-11,2.86a10.47,10.47,0,0,0-6.21,5c-1.73,2.83-12.68,22.5-12.79,22.7a.72.72,0,0,1-1.26-.7c.45-.81,11.07-19.89,12.82-22.75a11.88,11.88,0,0,1,7.08-5.69c2.53-.63,10.95-2.86,11-2.88l.15,0,14.24-.72h.16c.51.09,12.49,2.18,15.38,3.06,3.26,1,5.53,4.67,6.33,7.88s2.12,12.09,2.17,12.47a.71.71,0,0,1-.21.63L781.27,262,775.73,279l12.83,25.42a.75.75,0,0,1,0,.57.76.76,0,0,1-.38.41c-8.88,4.05-17.76,6.49-22.62,7.11A12.82,12.82,0,0,1,764.25,312.62Z"/><path class="cls-5" d="M676.62,221.6s-8.64,6.08-4.75,13.92l29.67,2.25c1.55-3.31,1.17-11.1-3.74-15.42Z"/><path d="M701.54,238.49h-.06l-29.66-2.25a.71.71,0,0,1-.59-.39c-4.13-8.31,4.89-14.78,5-14.84a.69.69,0,0,1,.44-.13l21.18.74a.72.72,0,0,1,.45.18c5.06,4.46,5.69,12.48,3.91,16.27A.71.71,0,0,1,701.54,238.49Zm-29.19-3.65L701.07,237c1.1-3.07.85-9.89-3.55-13.95l-20.67-.73a16.15,16.15,0,0,0-3.48,3.73C671.4,229,671.06,232,672.35,234.84Z"/><path class="cls-9" d="M633.62,232.11c-1-5.31-3.6-9.2-6.24-10.64s-9.45-5-9.45-5c-.72-2.56-1.2-5.52-1.2-5.52L613,209.83c.19,3.4.49,5.71.49,5.71a36.71,36.71,0,0,1-3.92,7.61l-6-10.49a53.17,53.17,0,0,1-7.22-3.07,26.36,26.36,0,0,1-2.3-1.33l-4.41,7a55.82,55.82,0,0,0-9.81,2.67c-3.74,1.6-6.09,5.44-9.29,9.5s-15.68,22.41-15.68,22.41l13.76,7.79,13-15.58-.32,38.73.32,5.12c21.77,2.88,44.71.75,44.71.75l-.2,4.55c1.28,4.78,1.58,11.83,1.55,17.93A50.89,50.89,0,0,0,639.94,308l.56-.13C639.44,280.61,634.53,236.86,633.62,232.11Z"/><path d="M629.13,309.92q-.75,0-1.5,0a.72.72,0,0,1-.7-.72c.05-7.72-.48-13.86-1.51-17.75a.76.76,0,0,1,0-.21l.16-3.73c-4.3.34-24.75,1.73-44-.82a.72.72,0,0,1-.63-.67l-.32-5.12v-.05l.3-36.72-11.72,14a.71.71,0,0,1-.91.16l-13.77-7.79a.72.72,0,0,1-.35-.46.76.76,0,0,1,.11-.57c.51-.75,12.54-18.42,15.72-22.45.58-.74,1.13-1.47,1.67-2.18,2.51-3.3,4.67-6.15,7.89-7.53a53.73,53.73,0,0,1,9.66-2.66l4.23-6.77a.76.76,0,0,1,.47-.33.71.71,0,0,1,.55.11,24,24,0,0,0,2.23,1.29,52.7,52.7,0,0,0,7.13,3,.77.77,0,0,1,.39.32l5.41,9.46a35.09,35.09,0,0,0,3.15-6.29c-.08-.6-.32-2.73-.48-5.6a.71.71,0,0,1,.93-.73l3.78,1.15a.74.74,0,0,1,.5.58s.44,2.72,1.1,5.14c1.31.68,6.86,3.56,9.17,4.82,3.09,1.68,5.62,5.95,6.61,11.14.94,4.91,5.84,48.89,6.89,75.82a.72.72,0,0,1-.54.73l-.58.13A52.42,52.42,0,0,1,629.13,309.92Zm-.75-1.45a51.52,51.52,0,0,0,11.38-1.22c-1.1-26.91-5.92-70.16-6.85-75h0c-.9-4.71-3.21-8.69-5.88-10.15s-9.36-4.92-9.43-4.95a.73.73,0,0,1-.36-.45c-.57-2-1-4.23-1.14-5.16l-2.36-.72c.19,2.77.43,4.61.43,4.63a.93.93,0,0,1,0,.33,37.32,37.32,0,0,1-4,7.78.73.73,0,0,1-1.23-.05L603,213.26a56.18,56.18,0,0,1-7.07-3c-.76-.4-1.34-.73-1.74-1l-4,6.43a.72.72,0,0,1-.49.32,56.52,56.52,0,0,0-9.66,2.63c-2.87,1.23-4.93,3.94-7.3,7.07-.55.72-1.11,1.46-1.7,2.21-2.81,3.55-13,18.42-15.21,21.71l12.55,7.11,12.64-15.12a.71.71,0,0,1,.8-.21.7.7,0,0,1,.47.68L582,280.8l.28,4.5c21.27,2.73,43.74.69,44,.67a.72.72,0,0,1,.79.75l-.19,4.44C627.87,295.11,628.39,300.93,628.38,308.47Z"/><path class="cls-1" d="M581.6,285.94l.43,4.8A223.61,223.61,0,0,0,608,292.45h.53c2.59,0,4.88,0,6.88-.1a68.61,68.61,0,0,0,10.74-1.11l.2-4.55S603.37,288.82,581.6,285.94Z"/><path d="M609.82,293.18H608a223.29,223.29,0,0,1-26-1.71.71.71,0,0,1-.63-.65l-.43-4.8a.72.72,0,0,1,.22-.59.73.73,0,0,1,.6-.19c21.43,2.83,44.32.76,44.54.74a.72.72,0,0,1,.79.75l-.19,4.55a.71.71,0,0,1-.58.67,68.51,68.51,0,0,1-10.86,1.13C613.63,293.14,611.75,293.18,609.82,293.18ZM582.7,290.1A221,221,0,0,0,608,291.72h.54c2.38,0,4.68,0,6.84-.1a75.56,75.56,0,0,0,10.08-1l.13-3.16c-4.24.33-24.12,1.69-43.15-.71Z"/><path class="cls-9" d="M554.82,249.88c-2.56,3.94-3.42,10.13.64,14.83s14.19,15.68,19.42,20.81l.47-.38a48.08,48.08,0,0,0,8.49-8.8s-9.39-11.31-15.26-18.67l13-15.58"/><path d="M574.88,286.24a.73.73,0,0,1-.51-.21c-5.38-5.27-15.52-16.28-19.46-20.85-4.29-5-3.44-11.46-.7-15.7a.73.73,0,0,1,1-.21.72.72,0,0,1,.21,1c-2.45,3.78-3.22,9.56.58,14s13.47,14.91,18.93,20.31a49.51,49.51,0,0,0,8-8.17c-1.76-2.13-9.75-11.78-14.92-18.26a.72.72,0,0,1,0-.92l13-15.58a.72.72,0,0,1,1.11.93l-12.64,15.13c5.81,7.27,14.79,18.09,14.88,18.2a.72.72,0,0,1,0,.86,48.84,48.84,0,0,1-8.64,9c-.3.25-.48.38-.48.38A.66.66,0,0,1,574.88,286.24Z"/><path d="M597.61,223.68a.52.52,0,0,1-.37-.16c-3-3.41-6.28-6.5-6.31-6.53a.48.48,0,0,1,.66-.7s3,2.86,6,6.11a84.09,84.09,0,0,0,4.58-8.05.49.49,0,0,1,.64-.23.47.47,0,0,1,.23.64,91.32,91.32,0,0,1-5,8.7.47.47,0,0,1-.37.22Z"/><path class="cls-1" d="M613,209.83c-.11-2-.19-4.26-.15-6.69l-8.48,1.71-7.74-.91a51.1,51.1,0,0,1-.28,5.65,53.17,53.17,0,0,0,7.22,3.07l6,10.49a36.71,36.71,0,0,0,3.92-7.61S613.15,213.23,613,209.83Z"/><path d="M609.53,223.87h0a.74.74,0,0,1-.6-.36L603,213.26a56.18,56.18,0,0,1-7.07-3,.73.73,0,0,1-.38-.72,51.91,51.91,0,0,0,.28-5.56.76.76,0,0,1,.24-.55.73.73,0,0,1,.57-.18l7.62.9,8.37-1.69a.72.72,0,0,1,.6.15.7.7,0,0,1,.26.57c0,2.11,0,4.34.15,6.64.19,3.33.49,5.64.49,5.66a.93.93,0,0,1,0,.33,37.32,37.32,0,0,1-4,7.78A.75.75,0,0,1,609.53,223.87Zm-12.45-14.7a52.75,52.75,0,0,0,6.69,2.81.77.77,0,0,1,.39.32l5.41,9.46a35.09,35.09,0,0,0,3.15-6.29c-.08-.6-.32-2.73-.48-5.6h0c-.12-2-.17-4-.16-5.85l-7.61,1.53a.55.55,0,0,1-.22,0l-6.94-.81C597.3,205.71,597.26,207.4,597.08,209.17Z"/><path d="M613.45,216.27a.71.71,0,0,1-.28-.06.72.72,0,0,1-.38-1c.57-1.31,1.14-3.1,1.15-3.11a.73.73,0,0,1,.91-.47.72.72,0,0,1,.46.91c0,.08-.6,1.86-1.19,3.24A.74.74,0,0,1,613.45,216.27Z"/><path d="M618.8,221.08a.49.49,0,0,1-.28-.09l-4.23-3a.49.49,0,0,1-.11-.67.48.48,0,0,1,.67-.12l3.14,2.24-.72-2.68a.48.48,0,0,1,.93-.25l1.07,4a.49.49,0,0,1-.47.61Z"/><path d="M626.31,287.41a.7.7,0,0,1-.49-.19.73.73,0,0,1,0-1,10.94,10.94,0,0,0,3.53-8.05c.1-3.84-.64-28.06-3.93-45.95a.72.72,0,0,1,.58-.84.71.71,0,0,1,.84.58c3.31,18,4.05,42.38,4,46.24a12.36,12.36,0,0,1-3.93,9A.71.71,0,0,1,626.31,287.41Z"/><path d="M611.48,281.62h0a.47.47,0,0,1-.47-.49A365.56,365.56,0,0,0,608.65,232a.5.5,0,0,1,.42-.54.48.48,0,0,1,.54.42A367.67,367.67,0,0,1,612,281.15.48.48,0,0,1,611.48,281.62Z"/><ellipse class="cls-12" cx="611.21" cy="229.44" rx="0.96" ry="1.23"/><ellipse class="cls-12" cx="613.77" cy="249.08" rx="0.96" ry="1.23"/><ellipse class="cls-12" cx="614.52" cy="271.75" rx="0.96" ry="1.23"/><path class="cls-1" d="M622.8,287c-.71.05-1.51.1-2.4.14,0,.8.06,2.86,0,4.93.91-.08,1.71-.17,2.41-.26C622.86,290.75,622.91,288.8,622.8,287Z"/><path d="M620.41,292.74a.78.78,0,0,1-.5-.19.7.7,0,0,1-.22-.55c0-2.06,0-4.1,0-4.89a.72.72,0,0,1,.68-.74l2.39-.14a.72.72,0,0,1,.77.68c.12,1.89.06,3.87,0,4.88a.73.73,0,0,1-.63.69c-.77.09-1.59.18-2.44.26Zm.73-5c0,.84,0,2.1,0,3.44l1-.1c0-.89,0-2.14,0-3.4Z"/><path class="cls-1" d="M640,321.58a34,34,0,0,0,0-13.63,50.89,50.89,0,0,1-12.28,1.22c0,6.79-.5,12.41-.5,12.41"/><path d="M640,322.3h-.15a.73.73,0,0,1-.56-.86,32.8,32.8,0,0,0,.11-12.62,50.94,50.94,0,0,1-11,1.1c-.06,6.42-.48,11.68-.49,11.73a.72.72,0,0,1-.77.66.73.73,0,0,1-.67-.78s.46-5.67.49-12.35a.73.73,0,0,1,.75-.72,50.87,50.87,0,0,0,12.1-1.2.71.71,0,0,1,.55.09.74.74,0,0,1,.31.46,34.29,34.29,0,0,1,0,13.94A.72.72,0,0,1,640,322.3Z"/><path class="cls-1" d="M627.16,321.58s.46-5.62.5-12.41c0-6.1-.27-13.15-1.55-17.93-1.31.27-7,1.3-17.62,1.21A222.17,222.17,0,0,1,582,290.74s-2.35,12.49-1.39,30.84"/><path d="M627.17,322.3h-.06a.73.73,0,0,1-.67-.78s.46-5.67.49-12.35c0-7.3-.42-13.18-1.35-17.09a95.33,95.33,0,0,1-17.1,1.09,223.24,223.24,0,0,1-25.86-1.63,149.49,149.49,0,0,0-1.26,30,.72.72,0,0,1-1.44.08c-.95-18.23,1.37-30.88,1.4-31a.72.72,0,0,1,.79-.58,222.17,222.17,0,0,0,26.39,1.7c10.46.1,16-.89,17.47-1.2a.72.72,0,0,1,.84.52c1.08,4.07,1.61,10.17,1.57,18.12,0,6.75-.49,12.41-.5,12.47A.71.71,0,0,1,627.17,322.3Z"/><path d="M632.77,322.06a.46.46,0,0,1-.23-.05.49.49,0,0,1-.2-.66,13.86,13.86,0,0,0,.68-1.66c-3.22-3.3-.69-7.44-.66-7.49a.48.48,0,0,1,.66-.15.47.47,0,0,1,.15.66c-.09.15-2.25,3.71.73,6.49a.51.51,0,0,1,.13.5,16.22,16.22,0,0,1-.84,2.11A.48.48,0,0,1,632.77,322.06Z"/><path d="M636.87,322.06a.48.48,0,0,1-.41-.73,23.29,23.29,0,0,0,1.35-2.91.48.48,0,0,1,.63-.27.48.48,0,0,1,.27.62,25.77,25.77,0,0,1-1.42,3.06A.48.48,0,0,1,636.87,322.06Z"/><path d="M608.54,318.22h0a.49.49,0,0,1-.45-.51,177.24,177.24,0,0,0,.16-18.78.48.48,0,0,1,.46-.5.47.47,0,0,1,.5.45,179.34,179.34,0,0,1-.16,18.89A.47.47,0,0,1,608.54,318.22Z"/><path d="M613.67,318.22h0a.47.47,0,0,1-.44-.51,183.68,183.68,0,0,0,.16-18.78.47.47,0,0,1,.45-.5.49.49,0,0,1,.51.45,185.85,185.85,0,0,1-.16,18.89A.48.48,0,0,1,613.67,318.22Z"/><path d="M569.49,280.29a.48.48,0,0,1-.24-.9,33.76,33.76,0,0,0,8.19-7.25.48.48,0,0,1,.68-.07.5.5,0,0,1,.07.68,33.89,33.89,0,0,1-8.46,7.47A.42.42,0,0,1,569.49,280.29Z"/><path d="M561.54,257.76a12.58,12.58,0,0,1-4-.6.48.48,0,1,1,.32-.91,15.54,15.54,0,0,0,7.36.15.48.48,0,1,1,.22.93A17.81,17.81,0,0,1,561.54,257.76Z"/><path d="M581.6,242.81a.69.69,0,0,1-.45-.16.72.72,0,0,1-.11-1c1-1.31,1.63-2.11,1.63-2.11a.72.72,0,0,1,1-.16.73.73,0,0,1,.16,1s-.61.83-1.68,2.16A.71.71,0,0,1,581.6,242.81Z"/><path d="M582.88,236a.49.49,0,0,1-.48-.42,20.51,20.51,0,0,0-3.27-8.37.47.47,0,0,1,.11-.67.48.48,0,0,1,.67.11,21.15,21.15,0,0,1,3.45,8.81.49.49,0,0,1-.42.54Z"/><path d="M629.6,301.52h-.25a.48.48,0,0,1,0-1h.18a52,52,0,0,0,8.9-.74.48.48,0,0,1,.19.95A51.57,51.57,0,0,1,629.6,301.52Z"/><path class="cls-1" d="M613.61,181.9c-2.77,3.21-8.05,3-8.05,3a14.58,14.58,0,0,0,4.74-5.49c-6.4,6.35-16.69,4.75-16.69,4.75a26.59,26.59,0,0,1-5.07,3.52s-.11,10.88,3.84,15.15,8.43,7,12,7,8-2.77,11.95-7,3.84-15.15,3.84-15.15C617.08,186.12,613.61,181.9,613.61,181.9Z"/><path d="M604.33,210.58c-3.6,0-8.27-2.72-12.48-7.27s-4-15.19-4-15.65a.73.73,0,0,1,.39-.64,25.32,25.32,0,0,0,4.91-3.41.73.73,0,0,1,.6-.18c.1,0,10,1.47,16.08-4.55a.72.72,0,0,1,.92-.07.71.71,0,0,1,.24.89,15.57,15.57,0,0,1-3.13,4.29,8.74,8.74,0,0,0,5.24-2.56.83.83,0,0,1,.55-.25.73.73,0,0,1,.55.27s3.41,4.11,6.28,5.57a.73.73,0,0,1,.39.64c0,.46.07,11.22-4,15.65S607.93,210.58,604.33,210.58ZM589.26,188.1c0,2,.37,10.68,3.65,14.23,3.94,4.26,8.21,6.81,11.42,6.81s7.48-2.55,11.42-6.81c3.28-3.55,3.61-12.22,3.65-14.23a26.47,26.47,0,0,1-5.82-5.13c-3,2.81-7.84,2.65-8.05,2.64a.71.71,0,0,1-.67-.53.71.71,0,0,1,.31-.79,11.59,11.59,0,0,0,2-1.69c-5.51,3-11.79,2.49-13.34,2.31A28.13,28.13,0,0,1,589.26,188.1Z"/><path class="cls-1" d="M585.34,193.22c.51,3.41,2.64,6.51,4.81,5.53a35.86,35.86,0,0,1-1.56-9.13C587.08,188.19,584.83,189.89,585.34,193.22Z"/><path d="M589.32,199.66a2.94,2.94,0,0,1-1.38-.37c-1.57-.86-2.91-3.26-3.32-6h0c-.32-2.12.35-3.95,1.72-4.66a2.32,2.32,0,0,1,2.75.43.76.76,0,0,1,.22.49,35.46,35.46,0,0,0,1.52,8.94.73.73,0,0,1-.39.89A2.76,2.76,0,0,1,589.32,199.66Zm-1.91-9.83a.86.86,0,0,0-.4.11c-.65.33-1.22,1.47-1,3.17h0c.34,2.25,1.4,4.27,2.58,4.91a1.52,1.52,0,0,0,.58.19,37.2,37.2,0,0,1-1.32-8.23A.9.9,0,0,0,587.41,189.83Z"/><path class="cls-1" d="M620.07,189.62a35.86,35.86,0,0,1-1.56,9.13c2.17,1,4.3-2.12,4.81-5.53S621.58,188.19,620.07,189.62Z"/><path d="M619.34,199.66a2.85,2.85,0,0,1-1.13-.25.72.72,0,0,1-.38-.89,35.92,35.92,0,0,0,1.52-8.94.76.76,0,0,1,.22-.49,2.32,2.32,0,0,1,2.75-.43c1.37.71,2,2.54,1.72,4.66-.41,2.71-1.75,5.11-3.32,6A2.94,2.94,0,0,1,619.34,199.66Zm1.43-9.68a36.68,36.68,0,0,1-1.33,8.23A1.51,1.51,0,0,0,620,198c1.18-.64,2.24-2.66,2.58-4.91.26-1.7-.32-2.84-1-3.17A.83.83,0,0,0,620.77,190Z"/><path class="cls-5" d="M623.64,175.45c-1.12-5.34-5.17-8.32-8.64-7.68-.53-1.55-1.81-4.43-7.84-5.18s-14.83,2.83-19.37,9.92a15.74,15.74,0,0,0,.75,18.3l.13,0c-.15-1.88-.13-3.17-.13-3.17a26.59,26.59,0,0,0,5.07-3.52s10.29,1.6,16.69-4.75a14.58,14.58,0,0,1-4.74,5.49s5.28.22,8.05-3c0,0,3.47,4.22,6.51,5.77,0,0,0,1.27-.13,3.12l0,0C623,186.28,624.76,180.78,623.64,175.45Z"/><path d="M588.67,191.56h-.11l-.13,0a.74.74,0,0,1-.44-.24,16.38,16.38,0,0,1-.81-19.16c4.72-7.39,13.91-11,20.07-10.26,5.54.69,7.4,3.12,8.22,5.11,3.55-.28,7.68,2.63,8.88,8.32,1,5-.28,10.59-3.73,15.86l0,.06a.71.71,0,0,1-.81.25.72.72,0,0,1-.49-.73c.09-1.18.12-2.13.13-2.64a26.71,26.71,0,0,1-5.82-5.13c-3,2.81-7.84,2.65-8.05,2.64a.71.71,0,0,1-.67-.53.71.71,0,0,1,.31-.79,12,12,0,0,0,2-1.69c-5.52,3-11.79,2.49-13.34,2.31a28.13,28.13,0,0,1-4.58,3.19c0,.52,0,1.48.13,2.68a.71.71,0,0,1-.23.58A.7.7,0,0,1,588.67,191.56Zm16.85-28.34a21.69,21.69,0,0,0-17.12,9.68,15.28,15.28,0,0,0-.57,15.6,7.91,7.91,0,0,1,0-.84.73.73,0,0,1,.39-.64,25.32,25.32,0,0,0,4.91-3.41.73.73,0,0,1,.6-.18c.1,0,10,1.47,16.08-4.55a.72.72,0,0,1,.92-.07.71.71,0,0,1,.24.89,15.57,15.57,0,0,1-3.13,4.29,8.74,8.74,0,0,0,5.24-2.56.83.83,0,0,1,.55-.25.73.73,0,0,1,.55.27s3.41,4.11,6.28,5.57a.73.73,0,0,1,.39.64v.25a18.68,18.68,0,0,0,2.1-12.31h0c-.84-4-4.05-7.82-7.81-7.12a.72.72,0,0,1-.81-.48c-.41-1.18-1.37-4-7.25-4.69A12.92,12.92,0,0,0,605.52,163.22Z"/><path class="cls-1" d="M591.52,178.06a.57.57,0,0,1-.18,0,.49.49,0,0,1-.26-.64,19.09,19.09,0,0,1,7.68-8.71.49.49,0,0,1,.66.19.48.48,0,0,1-.2.65,18.53,18.53,0,0,0-7.25,8.25A.49.49,0,0,1,591.52,178.06Z"/><ellipse cx="597.5" cy="189.27" rx="1.23" ry="1.45"/><ellipse cx="611.16" cy="189.27" rx="1.23" ry="1.45"/><path d="M605.26,197.43H603.4a.48.48,0,0,1,0-1h1.86a.48.48,0,0,1,0,1Z"/><path d="M604.33,202.13c-1.93,0-4.14-.65-4.66-1.87a.48.48,0,0,1,.89-.38c.26.62,1.84,1.28,3.77,1.28s3.51-.66,3.77-1.28a.48.48,0,0,1,.89.38C608.47,201.48,606.25,202.13,604.33,202.13Z"/><path d="M604.33,204.79a4.42,4.42,0,0,1-2.77-.86.48.48,0,1,1,.63-.73,3.95,3.95,0,0,0,4.28,0,.48.48,0,0,1,.63.73A4.42,4.42,0,0,1,604.33,204.79Z"/><path class="cls-1" d="M602.68,284.88a64.68,64.68,0,0,0-9.71-6c-2.3-1.07-9.13-2.56-9.13-2.56a48.08,48.08,0,0,1-8.49,8.8,6.24,6.24,0,0,0,5.72,6.41s1.12,6,1.54,8.37,3.26,1.76,3-.75-1.12-9.49-1.12-9.49,3.95,5.07,5.87,8.27,4.64,1.22,2.94-1.87-5.29-9.76-5.29-9.76,7.21,5.65,9.13,7.73,4.21-.58,2.18-2.61-6.34-6.67-8.53-8.59c0,0,6.83,2.29,9.71,4.27S604.54,286.48,602.68,284.88Z"/><path d="M584.08,302.12a2.26,2.26,0,0,1-2.18-2.07c-.35-1.92-1.16-6.33-1.44-7.85a7,7,0,0,1-5.84-7.07.75.75,0,0,1,.27-.55,47.58,47.58,0,0,0,8.35-8.64.74.74,0,0,1,.76-.31c.28.07,6.93,1.53,9.27,2.62a64.13,64.13,0,0,1,9.88,6.08h0a2.6,2.6,0,0,1,.75,3.49c-.58.76-1.93,1.19-3.82-.11a36.41,36.41,0,0,0-6.31-3c1.17,1.18,2.46,2.51,3.59,3.69l2.46,2.53a3,3,0,0,1,.91,2.92,2.3,2.3,0,0,1-1.63,1.62,2.59,2.59,0,0,1-2.5-.93c-1.11-1.19-4.06-3.64-6.29-5.45,1.17,2.16,2.67,5,3.61,6.64,1.11,2,.61,3.7-.46,4.32s-2.53.26-3.73-1.73c-1.1-1.84-2.9-4.33-4.21-6.08.27,2.26.64,5.36.8,6.86a2.51,2.51,0,0,1-2,3A1.32,1.32,0,0,1,584.08,302.12Zm-8-16.64a5.51,5.51,0,0,0,5,5.35.71.71,0,0,1,.66.58s1.12,6,1.55,8.38c.1.6.42.95.83.88s.82-.53.72-1.42c-.26-2.47-1.11-9.41-1.11-9.48a.72.72,0,0,1,.44-.76.73.73,0,0,1,.84.22c.16.21,4,5.14,5.92,8.35.66,1.09,1.39,1.44,1.77,1.22s.61-1.1-.09-2.37c-1.69-3.06-5.25-9.71-5.28-9.77a.73.73,0,0,1,.17-.9.72.72,0,0,1,.91,0c.3.23,7.27,5.71,9.21,7.81a1.2,1.2,0,0,0,1.1.51.85.85,0,0,0,.58-.61,1.57,1.57,0,0,0-.54-1.51c-.64-.64-1.51-1.55-2.48-2.55-2-2.1-4.55-4.72-6-6a.72.72,0,0,1,.71-1.23c.28.1,7,2.35,9.89,4.36,1,.67,1.65.69,1.86.42s.12-.94-.55-1.52a63.36,63.36,0,0,0-9.55-5.86,62.81,62.81,0,0,0-8.5-2.41A50.2,50.2,0,0,1,576.07,285.48Z"/><path class="cls-1" d="M615.37,292.35c-2,.08-4.29.12-6.88.1H608v-5H605.6c0,1.18-.09,3.79-.1,5v.2c0,1.34,1.12,1.82,2.46,1.82,1.81,0,5.65-.32,6.72-.48S615.37,292.35,615.37,292.35Z"/><path d="M608,294.91c-1.84,0-2.94-.86-2.94-2.3v-.2c0-1.19.07-3.87.09-5a.48.48,0,0,1,.49-.47H608a.49.49,0,0,1,.34.14.48.48,0,0,1,.14.34V292h0c2.39,0,4.7,0,6.86-.1a.47.47,0,0,1,.49.36,2.23,2.23,0,0,1-.18,1.63,1.28,1.28,0,0,1-.91.56C613.71,294.58,609.83,294.91,608,294.91Zm-1.89-7c0,1.26-.08,3.45-.08,4.48v.2c0,.89.67,1.33,2,1.33,1.84,0,5.63-.32,6.65-.47a.34.34,0,0,0,.25-.14.92.92,0,0,0,.1-.48c-2.06.07-4.23.1-6.47.08H608a.48.48,0,0,1-.47-.48v-4.52Z"/><ellipse class="cls-1" cx="608.44" cy="289.78" rx="1.12" ry="0.75"/><path d="M608.44,291c-.9,0-1.6-.54-1.6-1.23s.7-1.22,1.6-1.22,1.6.54,1.6,1.22S609.34,291,608.44,291Zm0-1.49c-.41,0-.64.2-.64.26s.23.27.64.27.64-.2.64-.27S608.85,289.52,608.44,289.52Z"/><path d="M554.82,250.6a.71.71,0,0,1-.41-.13.72.72,0,0,1-.19-1c.51-.75,12.54-18.42,15.72-22.45a.72.72,0,0,1,1-.12.73.73,0,0,1,.12,1c-3.15,4-15.53,22.18-15.65,22.36A.72.72,0,0,1,554.82,250.6Z"/><path class="cls-1" d="M719.25,321.58a23.67,23.67,0,0,0-.64-5.76,31.18,31.18,0,0,1-8.69,1.28,35.1,35.1,0,0,1-.06,4.48"/><path d="M709.86,322.3h-.06a.72.72,0,0,1-.66-.78,33.37,33.37,0,0,0,.06-4.39.72.72,0,0,1,.2-.52.68.68,0,0,1,.52-.23,30.44,30.44,0,0,0,8.48-1.25.71.71,0,0,1,.57.06.73.73,0,0,1,.34.46,24.35,24.35,0,0,1,.66,6,.72.72,0,0,1-1.44-.06,21.78,21.78,0,0,0-.46-4.82,32.33,32.33,0,0,1-7.4,1.08,34.21,34.21,0,0,1-.09,3.83A.72.72,0,0,1,709.86,322.3Z"/><path class="cls-1" d="M709.86,321.58a35.1,35.1,0,0,0,.06-4.48c-.42-9.18-4-18.85-6.57-23.79l-.1-4.59s-5,1.81-15.53,1.81-16.49-1.71-16.49-1.71v4.7s-8.53,10-8.53,28.06"/><path d="M709.86,322.3h-.06a.72.72,0,0,1-.66-.78,33.37,33.37,0,0,0,.06-4.39c-.43-9.51-4.28-19.24-6.49-23.49a.72.72,0,0,1-.08-.32l-.08-3.64a57.59,57.59,0,0,1-14.83,1.57,72.73,72.73,0,0,1-15.76-1.5v3.77a.74.74,0,0,1-.18.47,32.75,32.75,0,0,0-4.18,7.15,50.17,50.17,0,0,0-4.18,20.44.72.72,0,0,1-1.44,0c0-16.89,7.28-26.74,8.53-28.32v-4.44a.73.73,0,0,1,.92-.69c.06,0,6,1.68,16.29,1.68S703,288.06,703,288a.71.71,0,0,1,.65.08.75.75,0,0,1,.32.58l.1,4.42c2.27,4.44,6.13,14.3,6.58,23.95a36.17,36.17,0,0,1-.07,4.57A.72.72,0,0,1,709.86,322.3Z"/><path class="cls-6" d="M721.28,294.59c-1.49-7.15-5-18-6.62-25.72S712,249.13,711.46,246a10.3,10.3,0,0,0-5.87-7.47l-11.41-5.34A28.54,28.54,0,0,1,691,243.69a127.12,127.12,0,0,0-10.77-10.57s-10.14,2.14-12.91,3.1a11.54,11.54,0,0,0-7.47,7.79l-3.52,11.58,9.17,21.18,5.76,12.05s6,1.71,16.49,1.71,15.53-1.81,15.53-1.81l.1,4.59c2.57,4.94,6.15,14.61,6.57,23.79a31.18,31.18,0,0,0,8.69-1.28l-1.07-8.43S722.77,301.74,721.28,294.59Z"/><path d="M709.92,317.82a.72.72,0,0,1-.72-.69c-.43-9.51-4.28-19.24-6.49-23.49a.72.72,0,0,1-.08-.32l-.08-3.64a57.59,57.59,0,0,1-14.83,1.57c-10.49,0-16.44-1.66-16.68-1.73a.76.76,0,0,1-.46-.38l-5.76-12.06-9.19-21.21a.69.69,0,0,1,0-.49l3.53-11.58a12.3,12.3,0,0,1,7.92-8.26c2.79-1,12.58-3,13-3.12a.7.7,0,0,1,.62.16,128.81,128.81,0,0,1,10.14,9.84,27.59,27.59,0,0,0,2.65-9.25.7.7,0,0,1,.35-.56.72.72,0,0,1,.67,0l11.42,5.33a11,11,0,0,1,6.27,8c.18,1.05.42,3,.71,5.57.6,5.12,1.43,12.13,2.49,17.24.81,3.9,2.14,8.68,3.41,13.3s2.47,8.89,3.21,12.42h0c1.38,6.64-2.66,11.95-3.69,13.18l1,8.11a.72.72,0,0,1-.51.78,31.83,31.83,0,0,1-8.89,1.31Zm-5.85-24.7a65.43,65.43,0,0,1,6.54,23.24,30.67,30.67,0,0,0,7.21-1.06l-1-7.82a.73.73,0,0,1,.18-.58s5-5.48,3.56-12.17c-.72-3.47-1.92-7.77-3.18-12.33S714.78,273,714,269c-1.08-5.18-1.91-12.23-2.51-17.37-.29-2.51-.53-4.49-.7-5.49a9.54,9.54,0,0,0-5.46-6.94l-10.5-4.91A29.52,29.52,0,0,1,691.6,244a.72.72,0,0,1-.55.37.77.77,0,0,1-.62-.24A125.37,125.37,0,0,0,680,233.9c-1.81.39-10.07,2.17-12.48,3a10.84,10.84,0,0,0-7,7.33l-3.44,11.31,9.07,20.94,5.61,11.73a69.67,69.67,0,0,0,16,1.6C698,289.81,703,288.06,703,288a.71.71,0,0,1,.65.08.75.75,0,0,1,.32.58Z"/><path class="cls-1" d="M691,243.69a28.54,28.54,0,0,0,3.21-10.46s-.11-4.69.1-8.54l-13.44-.32a62,62,0,0,1-.64,8.75A127.12,127.12,0,0,1,691,243.69Z"/><path d="M691,244.41a.75.75,0,0,1-.54-.24,126.68,126.68,0,0,0-10.7-10.5.69.69,0,0,1-.24-.67,62,62,0,0,0,.63-8.63.69.69,0,0,1,.21-.51.67.67,0,0,1,.52-.21l13.45.32a.76.76,0,0,1,.51.23.71.71,0,0,1,.19.53c-.21,3.77-.1,8.44-.1,8.48v.08A28.9,28.9,0,0,1,691.6,244a.72.72,0,0,1-.55.37Zm-10-11.57a131.28,131.28,0,0,1,9.83,9.58,27.49,27.49,0,0,0,2.64-9.21c0-.42-.08-4.33.07-7.81l-12-.29A61.11,61.11,0,0,1,681,232.84Z"/><path d="M680,248.06a4.54,4.54,0,0,1-2.93-.95,3.7,3.7,0,0,1-1.18-3.24c.21-3.27.53-7.54.53-7.58a.48.48,0,0,1,.52-.45.49.49,0,0,1,.44.52s-.32,4.3-.53,7.57a2.79,2.79,0,0,0,.85,2.45,4.19,4.19,0,0,0,3.57.57,31.47,31.47,0,0,0,6.22-2.82.48.48,0,0,1,.66.17.49.49,0,0,1-.18.66,31.43,31.43,0,0,1-6.48,2.93A6.49,6.49,0,0,1,680,248.06Z"/><path d="M700.93,248.5a3.17,3.17,0,0,1-1.54-.44c-2.33-1.27-5.22-3-5.25-3a.48.48,0,1,1,.49-.83s2.91,1.72,5.22,3a1.6,1.6,0,0,0,1.79.09,2.75,2.75,0,0,0,.4-2.83c-.72-2.36-3.65-6.88-3.68-6.92a.48.48,0,0,1,.81-.53c.12.19,3,4.68,3.79,7.17a3.59,3.59,0,0,1-.72,3.85A2,2,0,0,1,700.93,248.5Z"/><path d="M703.25,289.44a.74.74,0,0,1-.46-.16.72.72,0,0,1-.11-1c2.33-2.91,6.57-12.75,6-20.42-.52-7.49-4.19-17.84-4.22-17.94a.72.72,0,1,1,1.36-.49c.15.43,3.77,10.64,4.3,18.33.57,8.15-3.83,18.27-6.34,21.42A.71.71,0,0,1,703.25,289.44Z"/><rect class="cls-1" x="677.17" y="255.54" width="24.42" height="31.89" transform="translate(27.38 -61.24) rotate(5.19)"/><path d="M700.1,289.19H700L675.72,287a.72.72,0,0,1-.49-.26.7.7,0,0,1-.17-.52L678,254.43a.72.72,0,0,1,.78-.65L703.05,256a.72.72,0,0,1,.65.78l-2.88,31.76a.73.73,0,0,1-.72.66Zm-23.53-3.58,22.87,2.07,2.76-30.32-22.88-2.08Z"/><path d="M677.66,286.94h0a.48.48,0,0,1-.44-.52l2.89-31.76a.48.48,0,0,1,.52-.44.48.48,0,0,1,.44.52l-2.89,31.76A.48.48,0,0,1,677.66,286.94Z"/><path class="cls-6" d="M659.82,244c-2.35,5.33-7.58,22.62-8.22,26.78a12.9,12.9,0,0,0,7.26,13c5.65,2.56,12.8,5.65,16,6.4s7.36-2.45,7.36-2.45l8.54,1.06a59,59,0,0,0,1.49-13.23l-6.5-1s-2.24-4.37-6.83-4.16-9.18.53-12.59-.43l3.94-16.22"/><path d="M675.88,291.05a5.21,5.21,0,0,1-1.18-.14c-2.6-.6-8-2.77-16.14-6.44a13.63,13.63,0,0,1-7.67-13.79c.63-4.11,5.84-21.46,8.27-27a.71.71,0,0,1,1-.37.72.72,0,0,1,.37,1c-2.4,5.44-7.54,22.55-8.17,26.6a12.17,12.17,0,0,0,6.84,12.25c7.91,3.58,13.4,5.78,15.88,6.36,2.82.66,6.72-2.3,6.75-2.33a.76.76,0,0,1,.53-.14l7.89,1a59.76,59.76,0,0,0,1.34-11.81l-5.9-.87a.75.75,0,0,1-.54-.39C685,274.8,683,271,679,271.19l-1.1.05c-4.35.22-8.47.41-11.72-.5a.74.74,0,0,1-.51-.87l4-16.22A.73.73,0,0,1,671,254l-3.78,15.52c2.93.65,6.65.47,10.58.28l1.1-.05c4.28-.22,6.66,3.13,7.32,4.22l6.16.91a.73.73,0,0,1,.62.7A59.41,59.41,0,0,1,691.46,289a.72.72,0,0,1-.79.54l-8.25-1C681.56,289.12,678.65,291,675.88,291.05Z"/><path class="cls-1" d="M703.85,275.25c-1.72,0-3.69.12-3.69.12,3.21-2.2,2.05-3.57.56-3.17a46.83,46.83,0,0,1-5.4,1.29,4.94,4.94,0,0,0-3.07,2.1A58.61,58.61,0,0,1,691,287.64a24.55,24.55,0,0,0,7.14.45,3.55,3.55,0,0,0,3.41-2.52c.52-1.48,1.48-6.6,1.48-6.6C705.49,278,705.57,275.25,703.85,275.25Z"/><path d="M695.94,288.89a21.23,21.23,0,0,1-5.09-.55.72.72,0,0,1-.53-.85,57.72,57.72,0,0,0,1.21-11.89.77.77,0,0,1,.11-.39,5.67,5.67,0,0,1,3.58-2.44,39.13,39.13,0,0,0,4.58-1.06l.74-.2a1.82,1.82,0,0,1,2.26.79c.2.43.29,1.2-.6,2.25l1.65,0A1.83,1.83,0,0,1,705.7,276a3.34,3.34,0,0,1-2,3.44c-.24,1.21-1,5-1.44,6.34a4.25,4.25,0,0,1-4,3C697.42,288.86,696.67,288.89,695.94,288.89Zm-4.07-1.81a24.12,24.12,0,0,0,6.25.29,2.78,2.78,0,0,0,2.76-2c.5-1.41,1.45-6.45,1.46-6.5a.71.71,0,0,1,.43-.53,2.07,2.07,0,0,0,1.52-2,.38.38,0,0,0-.44-.34c-1.68,0-3.62.12-3.64.12a.72.72,0,0,1-.45-1.32c1.55-1.07,1.76-1.75,1.72-1.87a.84.84,0,0,0-.57,0l-.73.2a39.69,39.69,0,0,1-4.75,1.1,4,4,0,0,0-2.45,1.62A58,58,0,0,1,691.87,287.08Z"/><path class="cls-1" d="M700.16,275.37c-1.48.08-3.48,0-3.48,0"/><path d="M697.87,276.14h-1.2a.73.73,0,0,1-.71-.74.75.75,0,0,1,.74-.71s2,0,3.43,0a.75.75,0,0,1,.76.69.73.73,0,0,1-.69.76C699.44,276.13,698.56,276.14,697.87,276.14Z"/><path d="M658.75,277.67a.47.47,0,0,1-.4-.74,29.49,29.49,0,0,1,5.32-6,.48.48,0,1,1,.61.75,29,29,0,0,0-5.13,5.75A.45.45,0,0,1,658.75,277.67Z"/><path d="M682.68,285.77h-.07a.49.49,0,0,1-.41-.54l1-7.25a.49.49,0,0,1,.54-.41.48.48,0,0,1,.42.54l-1,7.24A.48.48,0,0,1,682.68,285.77Z"/><path d="M687.72,295.39a78,78,0,0,1-14.1-1.17.48.48,0,0,1-.39-.56.49.49,0,0,1,.56-.39,76.58,76.58,0,0,0,13.93,1.15,62.41,62.41,0,0,0,13.17-1.2.48.48,0,1,1,.21.94A63.28,63.28,0,0,1,687.72,295.39Z"/><path d="M710.61,308.51a.47.47,0,0,1-.48-.48.48.48,0,0,1,.48-.48,20.64,20.64,0,0,0,4.77-.62.48.48,0,1,1,.27.92A21.24,21.24,0,0,1,710.61,308.51Z"/><path class="cls-5" d="M703.94,213.81c1.33-4.43,3.2-10.88.53-17.13a18.23,18.23,0,0,0-33.5,0c-2.67,6.25-.8,12.7.53,17.13s1.23,10.88-2.51,13.71a7.91,7.91,0,0,0,5.78-6.11c-2.09-4.44-2-12.91-2-12.91,2.57-1.52,8.49-3.12,15-3.12s12.4,1.6,15,3.12c0,0,.07,8.47-2,12.91a7.91,7.91,0,0,0,5.78,6.11C702.71,224.69,702.61,218.24,703.94,213.81Z"/><path d="M706.45,228.24h-.14a8.57,8.57,0,0,1-6.34-6.66.69.69,0,0,1,0-.47c1.74-3.69,1.92-10.44,1.94-12.18-2.69-1.43-8.27-2.82-14.24-2.82s-11.55,1.39-14.24,2.82c0,1.74.2,8.49,1.94,12.18a.69.69,0,0,1,.05.47,8.57,8.57,0,0,1-6.34,6.66.73.73,0,0,1-.8-.42.72.72,0,0,1,.23-.86c3.28-2.49,3.62-8.39,2.25-12.93-1.24-4.13-3.32-11-.51-17.62a19,19,0,0,1,34.84,0c2.81,6.59.73,13.49-.51,17.62-1.37,4.54-1,10.44,2.25,12.93a.72.72,0,0,1-.43,1.29ZM673,218.44a13.66,13.66,0,0,1-1.39,6.93,7.48,7.48,0,0,0,2.37-3.89A18.06,18.06,0,0,1,673,218.44Zm28.4,3a7.48,7.48,0,0,0,2.37,3.89,13.66,13.66,0,0,1-1.39-6.93A18.06,18.06,0,0,1,701.43,221.48Zm-13.71-16.82c6.5,0,12.64,1.62,15.33,3.22a.74.74,0,0,1,.36.61c0,.19,0,2.64-.29,5.57,0-.15.08-.31.13-.46,1.26-4.19,3.17-10.52.56-16.63a17.51,17.51,0,0,0-32.18,0c-2.61,6.1-.7,12.44.56,16.63,0,.15.09.31.13.46-.3-2.93-.29-5.38-.29-5.57a.71.71,0,0,1,.36-.61C675.08,206.28,681.22,204.66,687.72,204.66Z"/><path class="cls-1" d="M671.5,213.81c-.18-.61-.38-1.27-.57-2-1.92.42-1.38,6.6,1.33,8A18.94,18.94,0,0,0,671.5,213.81Z"/><path d="M672.26,220.6a.81.81,0,0,1-.34-.08c-2.28-1.21-3.09-4.85-2.79-7,.24-1.8,1.14-2.25,1.65-2.36a.71.71,0,0,1,.84.51c.19.68.39,1.33.57,1.94h0a19.37,19.37,0,0,1,.79,6.31.71.71,0,0,1-.36.59A.68.68,0,0,1,672.26,220.6Zm-1.64-7.22a1.61,1.61,0,0,0-.06.33,7.32,7.32,0,0,0,1,4.46,17.66,17.66,0,0,0-.71-4.15h0Z"/><path class="cls-1" d="M703.94,213.81c.18-.61.38-1.27.57-2,1.92.42,1.38,6.6-1.33,8A18.94,18.94,0,0,1,703.94,213.81Z"/><path d="M703.18,220.6a.68.68,0,0,1-.36-.1.71.71,0,0,1-.36-.59,19.37,19.37,0,0,1,.79-6.31h0c.18-.61.38-1.26.57-1.94a.7.7,0,0,1,.84-.51c.51.11,1.41.56,1.65,2.36.3,2.16-.51,5.8-2.79,7A.81.81,0,0,1,703.18,220.6Zm1.45-6.58h0a17.66,17.66,0,0,0-.71,4.15,7.32,7.32,0,0,0,1-4.46,1.61,1.61,0,0,0-.06-.33Z"/><path class="cls-1" d="M702.69,208.5c-2.57-1.52-8.49-3.12-15-3.12A39.6,39.6,0,0,0,676,207.13c0-7.34,2.51-11.46,2.51-11.46a17.89,17.89,0,0,0-5.74,12.83s-.07,8.47,2,12.91c0,0,0,.09.07.14,2.16,4.4,8.16,8.85,12.88,8.85s10.72-4.45,12.88-8.85l.07-.14C702.76,217,702.69,208.5,702.69,208.5Z"/><path d="M687.72,231.12c-5.3,0-11.38-4.88-13.53-9.26l-.07-.14C672,217.18,672,208.85,672,208.49a18.52,18.52,0,0,1,6-13.36.71.71,0,0,1,.94,0,.72.72,0,0,1,.16.93s-2.21,3.69-2.39,10.1a41.39,41.39,0,0,1,11-1.49c6.5,0,12.64,1.62,15.33,3.22a.74.74,0,0,1,.36.61c0,.36.05,8.69-2.09,13.23l-.07.14C699.1,226.24,693,231.12,687.72,231.12Zm-11.49-31.66a16.64,16.64,0,0,0-2.75,9c0,.09-.05,8.36,1.94,12.6l.06.13c2.18,4.42,8,8.45,12.24,8.45s10.07-4,12.24-8.45l.06-.13c1.74-3.7,1.92-10.44,1.94-12.18-2.69-1.43-8.27-2.82-14.24-2.82a39.27,39.27,0,0,0-11.51,1.71.69.69,0,0,1-.65-.1.7.7,0,0,1-.3-.58A28.64,28.64,0,0,1,676.23,199.46Z"/><path class="cls-1" d="M694.88,203.06a.48.48,0,0,1-.48-.47,12.22,12.22,0,0,0-1.12-5.3.48.48,0,1,1,.83-.47,12.73,12.73,0,0,1,1.25,5.75.47.47,0,0,1-.47.49Z"/><path class="cls-1" d="M700.32,203.7a.49.49,0,0,1-.48-.46c-.3-6.77-4.17-10-4.21-10a.5.5,0,0,1-.07-.68.48.48,0,0,1,.68-.07c.17.14,4.24,3.5,4.57,10.73a.49.49,0,0,1-.46.5Z"/><ellipse cx="680.84" cy="211.3" rx="1.23" ry="1.45"/><ellipse cx="694.6" cy="211.3" rx="1.23" ry="1.45"/><path d="M688.63,218.5h-1.82a.47.47,0,0,1-.48-.48.48.48,0,0,1,.48-.48h1.82a.48.48,0,0,1,.48.48A.47.47,0,0,1,688.63,218.5Z"/><path d="M687.72,222.29c-3.2,0-4.22-1-4.51-1.93a.47.47,0,0,1,.3-.6.48.48,0,0,1,.61.3c.28.82,1.55,1.27,3.6,1.27s3.33-.45,3.6-1.27a.47.47,0,0,1,.61-.3.47.47,0,0,1,.3.6C691.94,221.24,690.92,222.29,687.72,222.29Z"/><path d="M687.72,224.59a5,5,0,0,1-3.08-.86.48.48,0,0,1-.07-.68.49.49,0,0,1,.68-.06,5.09,5.09,0,0,0,4.94,0,.48.48,0,0,1,.68.07.49.49,0,0,1-.07.67A5,5,0,0,1,687.72,224.59Z"/><path class="cls-1" d="M744.7,201.06a.54.54,0,0,1-.21-.05.47.47,0,0,1-.22-.64,34.73,34.73,0,0,1,9.59-12.1.48.48,0,1,1,.57.77,34.53,34.53,0,0,0-9.3,11.75A.47.47,0,0,1,744.7,201.06Z"/><path class="cls-1" d="M778.79,205.3h-.08a.48.48,0,0,1-.39-.55c.83-5,0-10-2-12a.48.48,0,0,1,.68-.68c2.57,2.56,3,8.44,2.22,12.82A.48.48,0,0,1,778.79,205.3Z"/><path d="M736.62,265.08a.73.73,0,0,1-.72-.61c-.84-5.38.55-12,2.29-16.23a.72.72,0,0,1,1.34.55c-1.67,4-3,10.36-2.2,15.46a.74.74,0,0,1-.6.83Z"/><path d="M732.54,267.32h-.07l-6.49-1a.48.48,0,0,1-.4-.55.47.47,0,0,1,.54-.4l6.49,1a.48.48,0,0,1-.07.95Z"/><path class="cls-11" d="M777.59,249.16s2.72,29.21,4.56,62.9A42.31,42.31,0,0,0,797,310.94S794.8,273,791.6,251"/><path d="M786.49,313a40.6,40.6,0,0,1-4.43-.23.74.74,0,0,1-.63-.68c-1.81-33.29-4.53-62.58-4.56-62.88a.73.73,0,0,1,.66-.78.71.71,0,0,1,.78.65c0,.29,2.71,29.25,4.53,62.31a42,42,0,0,0,13.44-1c-.3-4.89-2.45-39.05-5.4-59.29a.74.74,0,0,1,.61-.82.72.72,0,0,1,.82.61c3.17,21.79,5.43,59.63,5.45,60a.71.71,0,0,1-.53.73A40.47,40.47,0,0,1,786.49,313Z"/><path class="cls-1" d="M797.52,321.58a80.6,80.6,0,0,0-1.93-10.27,43.2,43.2,0,0,1-11.67.9,54.43,54.43,0,0,0-.49,9.37"/><path d="M783.43,322.3a.72.72,0,0,1-.72-.66,53.44,53.44,0,0,1,.5-9.52.71.71,0,0,1,.75-.63,42.31,42.31,0,0,0,11.47-.89.73.73,0,0,1,.86.53,84.92,84.92,0,0,1,2,10.38.72.72,0,0,1-1.44.15,78.82,78.82,0,0,0-1.74-9.5,44,44,0,0,1-10.5.8,49.59,49.59,0,0,0-.41,8.57.72.72,0,0,1-.66.77Z"/><path class="cls-1" d="M764.18,237.24l4.13-9.05-.16-6.8-15.29,1.28s1.2,6.24-.32,9.92a44.57,44.57,0,0,0-2.06,6.81,28.35,28.35,0,0,0,3.5,7.52S759,242.62,764.18,237.24Z"/><path d="M754,247.64h-.09a.73.73,0,0,1-.5-.3,29,29,0,0,1-3.6-7.72.73.73,0,0,1,0-.36,44.13,44.13,0,0,1,2.11-6.94c1.42-3.43.29-9.45.27-9.51a.73.73,0,0,1,.14-.57.7.7,0,0,1,.51-.28l15.29-1.28a.73.73,0,0,1,.54.18.69.69,0,0,1,.24.52l.16,6.8a.87.87,0,0,1-.06.32l-4.14,9a.86.86,0,0,1-.13.2c-5.13,5.34-10.2,9.68-10.25,9.72A.69.69,0,0,1,754,247.64Zm-2.75-8.26a28,28,0,0,0,2.9,6.45c1.49-1.3,5.44-4.84,9.44-9l4-8.78-.13-5.87-13.75,1.15c.28,1.84.78,6.47-.49,9.55A42.73,42.73,0,0,0,751.23,239.38Zm12.95-2.14Z"/><path class="cls-1" d="M751.74,264.44l12.44-27.2c-5.16,5.38-10.2,9.68-10.2,9.68a28.35,28.35,0,0,1-3.5-7.52C749,245.8,748.16,255.3,751.74,264.44Z"/><path d="M751.74,265.16h0a.72.72,0,0,1-.65-.45c-3.68-9.4-2.74-19-1.3-25.46a.75.75,0,0,1,.68-.57.72.72,0,0,1,.72.51,28.58,28.58,0,0,0,3,6.64c1.5-1.31,5.49-4.89,9.52-9.09a.72.72,0,0,1,1.18.8l-12.43,27.2A.71.71,0,0,1,751.74,265.16Zm-1.07-23a42.36,42.36,0,0,0,1.15,20.4l10-21.89c-4,3.92-7.33,6.78-7.37,6.81a.68.68,0,0,1-.56.17.73.73,0,0,1-.5-.3A26.57,26.57,0,0,1,750.67,242.14Z"/><path d="M748.14,263.24a.47.47,0,0,1-.39-.2,47.2,47.2,0,0,1-7.69-20.49.48.48,0,0,1,.34-.5l4.65-1.36-2.76-2.63a.48.48,0,0,1,0-.72l5.76-4.72a.47.47,0,0,1,.67.07.48.48,0,0,1-.06.67l-5.34,4.38,3,2.82a.49.49,0,0,1,.14.47.47.47,0,0,1-.33.34l-5.06,1.49a46.49,46.49,0,0,0,7.48,19.63.48.48,0,0,1-.12.67A.57.57,0,0,1,748.14,263.24Z"/><path d="M755.74,263.16a.46.46,0,0,1-.33-.13.48.48,0,0,1,0-.68,171.76,171.76,0,0,0,16.15-19.46L766.93,240a.48.48,0,0,1,.1-.86l5.26-1.78-1.64-6a.47.47,0,0,1,.33-.59.49.49,0,0,1,.6.33l1.76,6.49a.49.49,0,0,1-.31.58l-4.73,1.6,4.19,2.66a.45.45,0,0,1,.21.31.46.46,0,0,1-.07.36,170.54,170.54,0,0,1-16.54,20A.5.5,0,0,1,755.74,263.16Z"/><path d="M779.83,246a.54.54,0,0,1-.21,0,.48.48,0,0,1-.22-.65,24.21,24.21,0,0,1,4.83-6.54.48.48,0,0,1,.65.71,23.49,23.49,0,0,0-4.61,6.26A.5.5,0,0,1,779.83,246Z"/><path d="M752.38,279.25a2.87,2.87,0,1,1,2.25-2.8A2.58,2.58,0,0,1,752.38,279.25Zm0-4.64c-.69,0-1.28.84-1.28,1.84s.59,1.84,1.28,1.84,1.28-.85,1.28-1.84S753.08,274.61,752.38,274.61Z"/><path class="cls-1" d="M774.07,208.82c1.76-1.68,4.16,1.52,3,5.52s-3.52,4.89-4.72,4.08Z"/><path d="M773.32,219.42A2.46,2.46,0,0,1,772,219a.73.73,0,0,1-.31-.73l1.68-9.6a.78.78,0,0,1,.21-.4,2.11,2.11,0,0,1,2.64-.34c1.43.86,2.47,3.46,1.6,6.58-.93,3.3-2.57,4.35-3.46,4.68A2.9,2.9,0,0,1,773.32,219.42ZM773.2,218a1.54,1.54,0,0,0,.65-.1c1.07-.4,2-1.79,2.57-3.72.68-2.44-.12-4.44-1-5a.62.62,0,0,0-.72,0Z"/><path class="cls-1" d="M745.66,208.18s.08,7.92,2.16,11.37,7.36,8.4,12.65,8.4S771.11,222.27,773,218s3-17.84-4.8-24.8c0,0-4.88,8.24-13.53,10.48,0,0,4.09-4,5-8.56C759.75,195.14,751.42,203.86,745.66,208.18Z"/><path d="M760.47,228.67a14,14,0,0,1-8-3,21.7,21.7,0,0,1-5.31-5.7c-2.15-3.57-2.26-11.4-2.26-11.73a.72.72,0,0,1,.29-.59c5.65-4.23,13.91-12.87,14-13a.73.73,0,0,1,.86-.14.71.71,0,0,1,.37.79,17.9,17.9,0,0,1-3.44,6.86c6.71-2.87,10.56-9.23,10.6-9.3a.74.74,0,0,1,.51-.35.71.71,0,0,1,.59.18c8.19,7.27,6.87,21.47,5,25.64S766.29,228.67,760.47,228.67Zm-14.08-20.14c.05,1.57.34,7.81,2.05,10.64,2,3.35,7.09,8.06,12,8.06s10.1-5.52,11.9-9.5c1.72-3.8,3-16.46-4-23.4-1.46,2.14-6.11,8.16-13.48,10.07a.73.73,0,0,1-.81-.34.74.74,0,0,1,.12-.88,22.07,22.07,0,0,0,3.74-5.17A133.85,133.85,0,0,1,746.39,208.53Z"/><ellipse cx="753.34" cy="208.07" rx="1.23" ry="1.45"/><ellipse cx="766.52" cy="208.07" rx="1.23" ry="1.45"/><path d="M760.82,216.79H759a.48.48,0,0,1-.48-.48.49.49,0,0,1,.48-.48h1.83a.49.49,0,0,1,.48.48A.48.48,0,0,1,760.82,216.79Z"/><path d="M759.91,220.53c-2.31,0-3.82-.62-4.75-2a.48.48,0,0,1,.12-.67.49.49,0,0,1,.67.12c.75,1.08,2,1.56,4,1.56s3.21-.48,4-1.56a.49.49,0,0,1,.67-.12.48.48,0,0,1,.12.67C763.72,219.91,762.21,220.53,759.91,220.53Z"/><path d="M759.91,223.22a4.5,4.5,0,0,1-2.88-.86.49.49,0,0,1,0-.68.48.48,0,0,1,.68,0,3.62,3.62,0,0,0,2.24.62,3.46,3.46,0,0,0,2.23-.63.49.49,0,0,1,.64.73A4.49,4.49,0,0,1,759.91,223.22Z"/><path d="M768.23,218.91a.48.48,0,0,1-.48-.48,4.82,4.82,0,0,0-.38-2,.48.48,0,0,1,.19-.65.49.49,0,0,1,.65.19,5.51,5.51,0,0,1,.5,2.48A.48.48,0,0,1,768.23,218.91Z"/><path d="M768.31,203.14a.47.47,0,0,1-.39-.2,3.5,3.5,0,0,0-2.57-1.56.48.48,0,0,1-.48-.48.47.47,0,0,1,.48-.48,4.42,4.42,0,0,1,3.35,2,.48.48,0,0,1-.11.67A.47.47,0,0,1,768.31,203.14Z"/><path class="cls-2" d="M621.88,412.38a30.68,30.68,0,1,1,0-61.35H751.17a30.68,30.68,0,0,1,0,61.35Z"/><path class="cls-1" d="M652.31,368c0-4,2.23-6.3,5.47-6.3s5.47,2.33,5.47,6.3-2.23,6.4-5.47,6.4S652.31,371.93,652.31,368Zm8.45,0c0-2.63-1.16-4.2-3-4.2s-3,1.57-3,4.2,1.16,4.29,3,4.29S660.76,370.58,660.76,368Z"/><path class="cls-1" d="M665.66,361.88h2.44v5.32h0l4.06-5.32h2.69l-3.74,4.82,4.4,7.43h-2.68l-3.17-5.51-1.61,2.07v3.44h-2.44Z"/><path class="cls-1" d="M675.81,361.88h2.48l1,6c.18,1.29.38,2.58.56,3.91h.07c.25-1.33.51-2.63.78-3.91l1.42-6h2.1l1.41,6c.26,1.26.51,2.58.77,3.91h.09c.18-1.33.36-2.63.54-3.91l1-6h2.31L688,374.13h-3l-1.37-6.05c-.2-1-.38-1.9-.53-2.85H683c-.17.95-.34,1.89-.53,2.85l-1.34,6.05h-3Z"/><path class="cls-1" d="M694.49,361.88h2.88l3.94,12.25h-2.57l-.86-3.14h-4l-.86,3.14h-2.48Zm0,7.21h2.91l-.36-1.34c-.38-1.28-.71-2.68-1.06-4h-.08c-.32,1.34-.68,2.73-1.05,4Z"/><path class="cls-1" d="M701.16,361.88h2.56l1.62,6c.38,1.35.65,2.58,1,3.95h.08c.4-1.37.66-2.6,1-3.95l1.59-6h2.48l-3.74,12.25H704.9Z"/><path class="cls-1" d="M713,361.88h7.51v2.05h-5.06v2.82h4.3v2.06h-4.3v3.27h5.24v2.05H713Z"/><path class="cls-1" d="M622.29,397c-2.62-.49-4.35-2.81-4.35-6.3,0-4,2.23-6.3,5.47-6.3s5.48,2.33,5.48,6.3c0,3.34-1.59,5.59-4,6.22a3.15,3.15,0,0,0,2.78,1.31A4.56,4.56,0,0,0,629,398l.44,1.8a5.23,5.23,0,0,1-2.07.36A5.34,5.34,0,0,1,622.29,397Zm4.1-6.3c0-2.63-1.16-4.2-3-4.2s-3,1.57-3,4.2,1.16,4.4,3,4.4S626.39,393.46,626.39,390.71Z"/><path class="cls-1" d="M630.28,393.64a4.06,4.06,0,0,1,2.3-3.48,5.69,5.69,0,0,1-.78-2.64,3.06,3.06,0,0,1,3.21-3.11,2.58,2.58,0,0,1,2.84,2.66c0,1.62-1.32,2.63-2.63,3.54a15.67,15.67,0,0,0,2.65,2.55,9.38,9.38,0,0,0,1.5-3.11h2.2a12.75,12.75,0,0,1-2.06,4.2,7.27,7.27,0,0,0,2.18.88l-.6,2a9.53,9.53,0,0,1-3.05-1.29,6,6,0,0,1-3.76,1.29C631.72,397.11,630.28,395.54,630.28,393.64Zm4.3,1.6a3.24,3.24,0,0,0,1.78-.61,17.71,17.71,0,0,1-2.76-2.86,2.37,2.37,0,0,0-1,1.72A1.79,1.79,0,0,0,634.58,395.24Zm-.32-6.09c1-.57,1.71-1.17,1.71-2.06,0-.61-.28-1.06-.91-1.06s-1.24.58-1.24,1.49A3.77,3.77,0,0,0,634.26,389.15Z"/><path class="cls-1" d="M645.86,384.62h2.88l3.94,12.26h-2.57l-.86-3.14h-4l-.86,3.14h-2.48Zm-.05,7.21h2.91l-.36-1.34c-.38-1.27-.71-2.68-1.06-4h-.08c-.32,1.34-.68,2.73-1.05,4Z"/><path class="cls-1" d="M661.38,385.23h8.33c.48,0,1.18,0,1.46,0,0,.38,0,1,0,1.52v8.57c0,.58,0,1.46.07,1.95h-2.4c0-.26,0-.54,0-.86h-7.54c-.64,0-1.59.05-2.13.1v-2.36c.58.05,1.32.1,2.07.1h7.62v-6.85h-7.43c-.69,0-1.58,0-2,.06v-2.29C660,385.2,660.82,385.23,661.38,385.23Z"/><path class="cls-1" d="M686.59,395.59l-.91,2.07a58.84,58.84,0,0,0-10.11-2.47l.83-2.08A70.38,70.38,0,0,1,686.59,395.59Zm-.7-5.19-.81,2.06a57.38,57.38,0,0,0-8.6-2.08l.76-2A66.3,66.3,0,0,1,685.89,390.4Zm1.13-4.52-.84,2.07a57.25,57.25,0,0,0-8.95-2.07l.77-1.95A59.43,59.43,0,0,1,687,385.88Z"/><path class="cls-1" d="M702.22,389.68c-.13,1-.56,3.82-.81,5.4h1.06c.43,0,1.19,0,1.62-.07v2.13c-.33,0-1.14-.05-1.59-.05h-8.7c-.59,0-1,0-1.63.05V395a15.52,15.52,0,0,0,1.63.09h5.36c.24-1.41.6-3.76.65-4.68h-4.47c-.53,0-1.17,0-1.65.08v-2.19c.43,0,1.19.1,1.64.1h4.23a3.67,3.67,0,0,0,1.23-.18l1.6.78A6.24,6.24,0,0,0,702.22,389.68Z"/><path class="cls-1" d="M709.87,393.84h9.49c.57,0,1.26,0,1.82-.1v2.53a16.9,16.9,0,0,0-1.82-.1h-9.49c-.65,0-1.46.05-2.07.1v-2.53C708.45,393.79,709.22,393.84,709.87,393.84Zm1.26-8.09H718a18.34,18.34,0,0,0,1.84-.1v2.4c-.48,0-1.26-.07-1.84-.07h-6.83c-.63,0-1.39,0-1.95.07v-2.4C709.79,385.71,710.56,385.75,711.13,385.75Z"/><path class="cls-1" d="M725.92,388.53h10.83a14,14,0,0,0,1.51-.1v2.15c-.42,0-1-.05-1.51-.05h-4a10.62,10.62,0,0,1-1,4.25,7.94,7.94,0,0,1-3.33,3.17l-1.93-1.4a6.91,6.91,0,0,0,3-2.37,7.09,7.09,0,0,0,1-3.65h-4.55c-.5,0-1.13,0-1.59.06v-2.16C724.83,388.48,725.4,388.53,725.92,388.53Zm2.1-4.22h6.65a13.31,13.31,0,0,0,1.78-.12v2.14c-.56,0-1.21-.07-1.78-.07H728c-.58,0-1.27,0-1.78.07v-2.14A13,13,0,0,0,728,384.31Z"/><path class="cls-1" d="M747.16,389.8a17.67,17.67,0,0,0,4.12-3.54l1.63,1.6a21.15,21.15,0,0,1-3.7,3v5.68a9,9,0,0,0,.12,1.78h-2.45c0-.33.08-1.2.08-1.78v-4.37a34.91,34.91,0,0,1-4.75,1.94l-1-1.95A22.23,22.23,0,0,0,747.16,389.8Z"/><rect class="cls-13" x="713.48" y="38.4" width="195.42" height="74.45" rx="6"/><polygon class="cls-13" points="713.48 102.15 713.48 133.61 744.49 102.59 713.48 102.15"/><path class="cls-1" d="M791.76,53V69.71h-2.42v-1H778.15v1h-2.31V53Zm-2.42,13.7V55.22H778.15V66.65Zm-1.81-9.23V64.5h-7.59V57.42Zm-2.23,1.94H782v3.22h3.28Z"/><path class="cls-1" d="M804.52,55.67a9.16,9.16,0,0,1-1,1.25,17.69,17.69,0,0,0,7.73,4.8,11.2,11.2,0,0,0-1.3,1.84,21.85,21.85,0,0,1-3.84-2v.84H798.7v-.89a24.1,24.1,0,0,1-3.93,2.06,9.81,9.81,0,0,0-1.19-1.71,18.51,18.51,0,0,0,7.61-5.25h1.08a9.32,9.32,0,0,0-1-.6c.15-.11.28-.24.43-.37h-2.27a8.77,8.77,0,0,1,.76,1.55l-2,.65a10.79,10.79,0,0,0-1-2.2h-.18a15,15,0,0,1-1.68,2.27,17.73,17.73,0,0,0-1.84-1.21,12,12,0,0,0,2.87-4.6l2.12.54c-.15.38-.3.77-.49,1.14h4V55.3a9.56,9.56,0,0,0,1.83-3.17l2.18.51c-.15.39-.32.78-.49,1.17h5.2v1.86h-3a8.46,8.46,0,0,1,.89,1.47l-2,.73a13.49,13.49,0,0,0-1.27-2.2Zm-7.65,8H808v6h-2.22v-.45H799v.51h-2.12Zm2.12,1.9v1.75h6.76V65.56Zm5.72-4.94a14.87,14.87,0,0,1-2.38-2.12A14.61,14.61,0,0,1,800,60.62Z"/><path class="cls-1" d="M828.74,56.21s0,.76-.06,1.06c-.37,7.41-.74,10.2-1.56,11.17a2.49,2.49,0,0,1-1.9,1,17.64,17.64,0,0,1-3,0,5.14,5.14,0,0,0-.76-2.29c1.17.09,2.27.09,2.75.09a1.11,1.11,0,0,0,.88-.29c.56-.58.93-3,1.23-8.55h-5.22c-.29,3.86-1.6,8.38-6.83,11.34A8.72,8.72,0,0,0,812.56,68a11.34,11.34,0,0,0,6.18-9.53h-5.6V56.21h5.69V52.38h2.37v3.83Z"/><path class="cls-1" d="M835.16,55.39a49.51,49.51,0,0,0-.9,7.21,8.29,8.29,0,0,0,.08,1.21c.24-.66.55-1.29.83-1.92l1.14.93c-.52,1.53-1.12,3.42-1.34,4.43a4.76,4.76,0,0,0-.09.87c0,.19,0,.51,0,.77l-2.1.17a22,22,0,0,1-.74-6,58.06,58.06,0,0,1,.76-7.76,16.93,16.93,0,0,0,.18-1.83l2.57.23A11.11,11.11,0,0,0,835.16,55.39Zm9.4-.65c0,.41,0,1.1-.06,1.92a26.68,26.68,0,0,0,2.89-.43v2.33c-.9.13-1.87.24-2.89.31,0,1.81.13,3.3.2,4.56a12.39,12.39,0,0,1,3.62,2.41l-1.29,2a18.32,18.32,0,0,0-2.27-1.88c-.11,1.79-1.12,3-3.63,3s-4.17-1.08-4.17-3,1.6-3.18,4.13-3.18a7.73,7.73,0,0,1,1.21.07c0-1.15-.11-2.51-.13-3.84-.44,0-.89,0-1.32,0-1.1,0-2.16,0-3.26-.11V56.68a31.77,31.77,0,0,0,3.26.16h1.31c0-.92,0-1.68,0-2.07a8.46,8.46,0,0,0-.13-1.23h2.66A10.87,10.87,0,0,0,844.56,54.74Zm-3.69,12c1.14,0,1.53-.6,1.53-1.7v-.33a5.82,5.82,0,0,0-1.49-.21c-1.06,0-1.77.45-1.77,1.16S839.88,66.77,840.87,66.77Z"/><path class="cls-1" d="M743,88.05c0-4.49,2.52-7.1,6.16-7.1s6.17,2.63,6.17,7.1-2.52,7.2-6.17,7.2S743,92.51,743,88.05Zm9.52,0c0-3-1.31-4.73-3.36-4.73s-3.35,1.77-3.35,4.73,1.31,4.82,3.35,4.82S752.48,91,752.48,88.05Z"/><path class="cls-1" d="M758,81.2h2.76v6h0l4.56-6h3l-4.21,5.43,5,8.36h-3l-3.58-6.2-1.8,2.33V95H758Z"/><path class="cls-1" d="M769.41,81.2h2.79l1.1,6.73c.21,1.46.43,2.91.63,4.4H774c.28-1.49.58-3,.87-4.4l1.6-6.73h2.37l1.58,6.73c.3,1.42.58,2.91.88,4.4h.09c.2-1.49.41-3,.61-4.4l1.1-6.73h2.61L783.17,95h-3.43l-1.54-6.81c-.23-1.08-.43-2.14-.6-3.21h-.07c-.19,1.07-.38,2.13-.6,3.21L775.42,95h-3.37Z"/><path class="cls-1" d="M790.42,81.2h3.24L798.09,95h-2.88l-1-3.54h-4.47l-1,3.54H786Zm0,8.11h3.27l-.41-1.51c-.42-1.43-.8-3-1.19-4.5H792c-.35,1.51-.76,3.07-1.17,4.5Z"/><path class="cls-1" d="M797.92,81.2h2.89l1.82,6.72c.43,1.52.73,2.9,1.16,4.44h.09c.45-1.54.74-2.92,1.17-4.44l1.79-6.72h2.79L805.42,95h-3.29Z"/><path class="cls-1" d="M811.21,81.2h8.45v2.3H814v3.19h4.84V89H814v3.68h5.9V95h-8.66Z"/><path class="cls-1" d="M833.75,82c-.11.56-.26,1.25-.39,1.92.63,0,1.17-.08,1.56-.08,2,0,3.37.88,3.37,3.56,0,2.19-.26,5.21-1.06,6.83a3,3,0,0,1-3.05,1.71,12.16,12.16,0,0,1-2.23-.26l-.39-2.46a10.28,10.28,0,0,0,2.27.39,1.35,1.35,0,0,0,1.39-.8,14.56,14.56,0,0,0,.77-5.15c0-1.49-.66-1.7-1.81-1.7-.3,0-.76,0-1.3.08a39.5,39.5,0,0,1-3.8,10l-2.42-1a28.44,28.44,0,0,0,3.78-8.75l-1.6.19-2.09.31-.22-2.53a16.52,16.52,0,0,0,2,0c.58,0,1.45-.07,2.4-.17a18.73,18.73,0,0,0,.39-3.93l2.78.28C834,80.9,833.85,81.49,833.75,82Zm7.9.3-.92.39a33.66,33.66,0,0,1,3,6.49l-2.37,1.08a20.94,20.94,0,0,0-3.12-7l1.67-.72a21.86,21.86,0,0,0-1.26-2.2l1.47-.61C840.62,80.4,841.29,81.57,841.65,82.26Zm2.21-.86-1.47.63a21.58,21.58,0,0,0-1.51-2.57l1.49-.59A24.76,24.76,0,0,1,843.86,81.4Z"/><path class="cls-1" d="M848.92,89.68V94c0,1-.17,1.57-.73,1.9a4.59,4.59,0,0,1-2.57.43,7.07,7.07,0,0,0-.57-2c.69,0,1.32,0,1.54,0s.32-.07.32-.32V90.28l-1.71.48-.51-2.14c.64-.13,1.38-.33,2.22-.54V84.79h-2V82.74h2V79.22h2v3.52h1.86v2.05h-1.86v2.75l1.67-.44.3,2Zm8.47,4.7c.43,0,.84.05,1.3.05.64,0,2.94,0,3.74,0a6.45,6.45,0,0,0-.59,1.94H858.6c-2.44,0-4.32-.45-5.59-2.7a8.1,8.1,0,0,1-1.93,2.92,12.62,12.62,0,0,0-1.64-1.32C851,94,851.75,92,852,89.42l2,.25a18.57,18.57,0,0,1-.35,1.88,4.06,4.06,0,0,0,1.61,2.17V88.87h-4.37V87.08h11v1.79h-4.54V90.5H861v1.73h-3.56ZM861,86.22h-9.18V79.8H861Zm-2.12-4.86h-5v.93h5Zm0,2.35h-5v1h5Z"/><path class="cls-1" d="M869.47,79.91a34.3,34.3,0,0,1-1.77,3.87V96.59h-2.18V87.15c-.39.51-.78.95-1.17,1.38a13.33,13.33,0,0,0-1.19-2.31,19.48,19.48,0,0,0,4.24-7Zm4.33,12.32a17.22,17.22,0,0,1-3.7,4.32,12.69,12.69,0,0,0-1.73-1.39,11.78,11.78,0,0,0,3.37-3.56Zm7-3.55v2.16H868.74V88.68h2.5V85h-2V82.85h2V79.37h2.15v3.48h2.7v-3.5h2.16v3.5h2.42V85h-2.42v3.71Zm-7.43,0h2.7V85h-2.7Zm4.17,2.9a23.4,23.4,0,0,1,3.17,3.84l-1.86,1.17a21.48,21.48,0,0,0-3.07-4Z"/></g></g></svg>