<svg xmlns="http://www.w3.org/2000/svg" viewBox="0 0 1008.28 569.76"><defs><style>.cls-1{fill:#fff;}.cls-2{fill:#141f42;}.cls-3,.cls-4{fill:none;stroke:#141f42;stroke-miterlimit:10;}.cls-3{stroke-width:4.61px;}.cls-4{stroke-width:1.15px;}.cls-5{fill:#4b4b4b;}.cls-6{fill:#fff03c;}.cls-7{fill:#ffff64;}.cls-8{fill:#ff8c00;}.cls-9{fill:#1eb4e1;}.cls-10{fill:#787878;}.cls-11{fill:#786478;}.cls-12{fill:#a5e1ef;}.cls-13{fill:#ff6e78;}</style></defs><g id="レイヤー_2" data-name="レイヤー 2"><g id="レイヤー_8" data-name="レイヤー 8"><ellipse class="cls-1" cx="486.97" cy="284.88" rx="486.97" ry="284.88"/><path class="cls-2" d="M408.31,270c-9.53,0-13.87,6.49-13.87,14.91s4.34,14.91,13.87,14.91,13.87-6.49,13.87-14.91S417.84,270,408.31,270Zm0,24.77c-4.94,0-7.6-3.13-7.6-9.86s2.66-9.86,7.6-9.86,7.6,3.13,7.6,9.86S413.26,294.74,408.31,294.74Z"/><path class="cls-2" d="M487.08,288.61,490.33,278l3.25,10.65,1.47,4.81,1.79,5.89a15.42,15.42,0,0,0,3.26.24,9.4,9.4,0,0,0,3-.24L493,270.45a14.75,14.75,0,0,0-5.3,0l-10.13,28.86a9.27,9.27,0,0,0,3,.24,15.42,15.42,0,0,0,3.26-.24l1.8-5.89Z"/><path class="cls-2" d="M478,270.21a15.42,15.42,0,0,0-3.26.24l-3.9,20.73-5-20.73a7.28,7.28,0,0,0-2.54-.24,7.16,7.16,0,0,0-2.53.24l-5,20.73-3.9-20.73a15.25,15.25,0,0,0-3.25-.24,9.89,9.89,0,0,0-3.14.24l7,28.86a7.16,7.16,0,0,0,2.53.24,19.17,19.17,0,0,0,3.86-.24l4.46-18.41,4.47,18.41a19,19,0,0,0,3.86.24,7.16,7.16,0,0,0,2.53-.24l7-28.86A9.84,9.84,0,0,0,478,270.21Z"/><path class="cls-2" d="M520.23,270.21a15.42,15.42,0,0,0-3.26.24l-6.39,22.83-6.39-22.83a15.42,15.42,0,0,0-3.26-.24,10,10,0,0,0-3.14.24l9.29,28.86s.48.24,3.5.24a11.8,11.8,0,0,0,3.5-.24l9.28-28.86A9.84,9.84,0,0,0,520.23,270.21Z"/><path class="cls-2" d="M436.9,284.4l8.92-13.95a9.84,9.84,0,0,0-3.13-.24,16.74,16.74,0,0,0-3.5.24l-8.56,13.95,9,14.91a16.86,16.86,0,0,0,3.5.24,10,10,0,0,0,3.14-.24Z"/><path class="cls-2" d="M423.63,270.45v28.86a19.06,19.06,0,0,0,6,0V270.45a19.06,19.06,0,0,0-6,0Z"/><path class="cls-2" d="M530.84,294.26v-7.34H541.7a13.4,13.4,0,0,0,0-5.05H530.84V275.5h12.79a13.4,13.4,0,0,0,0-5.05H524.81v28.86h18.82a13.4,13.4,0,0,0,0-5.05Z"/><path class="cls-2" d="M364,263.23c-18.14,0-21.64,3.51-21.64,21.65s3.5,21.65,21.64,21.65,21.65-3.51,21.65-21.65S382.19,263.23,364,263.23Zm0,41.13c-16.83,0-19.48-2.64-19.48-19.48S347.21,265.4,364,265.4s19.48,2.64,19.48,19.48S380.88,304.36,364,304.36Z"/><path class="cls-2" d="M371,273.33A7.52,7.52,0,0,0,364,278.2a7.52,7.52,0,0,0-6.92-4.87c-3.17,0-7.51,1.91-7.51,8.08,0,8.26,10.83,15.63,14.43,18.38,3.61-2.75,14.43-10.12,14.43-18.38C378.47,275.24,374.14,273.33,371,273.33Z"/><path class="cls-2" d="M581.43,268.73a18.93,18.93,0,0,0-6,0h0v30.62a18.93,18.93,0,0,0,6,0V268.73Z"/><path class="cls-2" d="M561.55,270.25c-4.81,0-8.9.24-8.9.24v28.86a19,19,0,0,0,6,0v-10.7s1.92.12,2.88.12c9.86,0,12-4.09,12-9.26C573.58,271.21,568.29,270.25,561.55,270.25Zm0,14.19c-1,0-2.88-.12-2.88-.12V274.7a17,17,0,0,1,2.88-.12c3.85,0,6.49.48,6.49,4.93C568,283.48,565.4,284.44,561.55,284.44Z"/><path class="cls-2" d="M605.25,294a16.41,16.41,0,0,0,5.94,1.42c1.52.08,3.12,0,3.26-1.77.08-1.07-1.56-1.57-3.93-2.44-4.52-1.43-6.3-4-6-7.08s3.31-5.89,8.72-5.89a15.8,15.8,0,0,1,6.24,1.18l-1.36,4.37a19.82,19.82,0,0,0-4.67-1.25c-1-.14-2.51,0-2.79,1.35-.31,1.57,2.59,2.21,4.92,3.26,3.79,1.7,5.25,3.45,4.83,7-.46,3.85-2.87,5.69-9.36,5.69a17.17,17.17,0,0,1-7.19-1.22Z"/><path class="cls-2" d="M583.87,293a2.11,2.11,0,0,0,0,.35c0,3.67,2.58,6.37,6.65,6.37a6.88,6.88,0,0,0,5.35-2.47v2a18.93,18.93,0,0,0,6,0h0V278.25a9.22,9.22,0,0,0-3-.24,8.92,8.92,0,0,0-3,.25V290.5s.18,3.19-2.93,3.19a2.76,2.76,0,0,1-3.08-3v-12.4a9.27,9.27,0,0,0-3-.24,8.87,8.87,0,0,0-3,.25Z"/><path class="cls-2" d="M631.55,271.87a4.16,4.16,0,0,0-.11-1.36H626V265h0a8.46,8.46,0,0,0-2.72,0h0v5.47h-5.47a8.46,8.46,0,0,0,0,2.72h5.47v5.47a8.46,8.46,0,0,0,2.72,0v-5.47h5.47A4.16,4.16,0,0,0,631.55,271.87Z"/><path class="cls-3" d="M663,188.26c-42.84-30.33-100.29-47.77-176-47.77-78.14,0-136.81,18.56-180.07,50.71"/><polygon class="cls-2" points="660.89 164.21 656.39 165.24 661.45 187.39 638.99 190.82 639.69 195.38 667.05 191.19 660.89 164.21"/><path class="cls-4" d="M668.08,380,666,377.17c-45,33.42-105.21,50.37-179,50.37-70.85,0-129.2-15.62-173.51-46.42L328,379l-.49-3.43-20.59,3,4.44,20.31,3.39-.73-3.08-14.06C356.53,415.21,415.49,431,487,431,561.56,431,622.49,413.83,668.08,380Z"/><rect class="cls-2" x="449.23" y="33.82" width="75.49" height="75.49" rx="12"/><polygon class="cls-2" points="472.71 103.08 487.33 120.72 501.39 103.08 472.71 103.08"/><path class="cls-1" d="M499.65,91a11.7,11.7,0,0,1-4.77.85,12.41,12.41,0,0,1-11.8-7.42C477,83.28,473,77.89,473,69.78c0-9.26,5.2-14.65,12.73-14.65s12.73,5.43,12.73,14.65c0,7.77-3.69,13-9.35,14.46,1.31,2.15,3.89,3,6.46,3a10.05,10.05,0,0,0,3.12-.47Zm-14-11c4.23,0,6.92-3.85,6.92-10.23,0-6.11-2.69-9.76-6.92-9.76s-6.92,3.65-6.92,9.76C478.77,76.16,481.46,80,485.69,80Z"/><path class="cls-4" d="M514.33,460.78H496.15l-9.45-11.41-9.09,11.41h-18a10.41,10.41,0,0,0-10.39,10.39v54.71a10.41,10.41,0,0,0,10.39,10.39h54.71a10.41,10.41,0,0,0,10.39-10.39V471.17A10.41,10.41,0,0,0,514.33,460.78Z"/><path class="cls-2" d="M490.21,502.76H481l-2,7.3h-5.76l9.11-28.45H489l9.15,28.45h-6ZM489,498.33l-.85-3.11c-.88-3-1.65-6.23-2.5-9.3h-.15c-.73,3.11-1.58,6.34-2.42,9.3l-.85,3.11Z"/><path class="cls-5" d="M267.94,238.3c-7-2-9-5.29-8-12.79s5.8-19.61,2.56-36.84-18.93-26.43-34.28-26.43-31,9.21-34.28,26.43,1.53,29.34,2.56,36.84-1,10.75-8,12.79c0,0,4.95,3.92,10.41,1.2,0,0-1.54,1.7-1.54,7.16l30.87,4.26,30.87-4.26c0-5.46-1.53-7.16-1.53-7.16C263,242.22,267.94,238.3,267.94,238.3Z"/><path d="M228.2,252.08H228l-30.87-4.27a1.14,1.14,0,0,1-1-1.14,20.15,20.15,0,0,1,.59-5.23,12,12,0,0,1-9-2.22,1.19,1.19,0,0,1-.41-1.13,1.16,1.16,0,0,1,.81-.89c6.46-1.89,8.14-4.58,7.19-11.52-.23-1.69-.65-3.61-1.14-5.84-1.66-7.55-3.94-17.88-1.4-31.37,3.53-18.81,20.83-27.38,35.41-27.38s31.88,8.57,35.42,27.38c2.53,13.49.25,23.82-1.41,31.37-.49,2.23-.91,4.15-1.14,5.84-.95,6.94.73,9.63,7.19,11.52a1.16,1.16,0,0,1,.81.89,1.19,1.19,0,0,1-.41,1.13,12,12,0,0,1-9,2.22,20.15,20.15,0,0,1,.59,5.23,1.14,1.14,0,0,1-1,1.14l-30.87,4.27Zm-29.7-6.42,29.7,4.1,29.7-4.1c-.16-4-1.23-5.4-1.24-5.42a1.17,1.17,0,0,1,0-1.46,1.15,1.15,0,0,1,1.4-.32,8.31,8.31,0,0,0,7.11.1c-5.6-2.31-7.35-6.11-6.38-13.21.24-1.77.67-3.74,1.18-6,1.62-7.36,3.84-17.43,1.39-30.46-3.3-17.51-19.5-25.49-33.15-25.49s-29.85,8-33.15,25.49c-2.45,13-.23,23.1,1.39,30.46.51,2.27.94,4.24,1.18,6,1,7.1-.78,10.9-6.38,13.21a8.31,8.31,0,0,0,7.11-.1,1.16,1.16,0,0,1,1.37,1.81h0S198.66,241.65,198.5,245.66Z"/><path class="cls-1" d="M202.11,211.18c-2.88-2.42-5,.8-4.61,5.33s3.14,10.21,6.79,9.31A44.34,44.34,0,0,1,202.11,211.18Z"/><path d="M203.52,226.88a4.49,4.49,0,0,1-2.64-.91c-2.61-1.87-4.08-6.18-4.34-9.38s.68-6,2.4-6.89c.68-.34,2.06-.71,3.79.75a1,1,0,0,1,.34.74,42.88,42.88,0,0,0,2.13,14.31,1,1,0,0,1-.06.78,1,1,0,0,1-.62.47A3.81,3.81,0,0,1,203.52,226.88Zm-3.29-15.56a1,1,0,0,0-.41.09c-.84.44-1.58,2.3-1.36,5,.27,3.28,1.79,6.71,3.55,8a2.88,2.88,0,0,0,1,.48,46.08,46.08,0,0,1-1.83-13.23A1.64,1.64,0,0,0,200.23,211.32Z"/><path class="cls-1" d="M266.06,400.16a277.47,277.47,0,0,0-1.53-38.89l-14.16-79.65-5.89-31.47c-1.3,6.79-6.93,12.2-16.28,12.2s-15-5.41-16.28-12.2L206,281.62l-14.16,79.65a277.47,277.47,0,0,0-1.53,38.89"/><path d="M266.06,401.31h0a1.15,1.15,0,0,1-1.12-1.19,280,280,0,0,0-1.53-38.71l-14.14-79.59-5.08-27.11c-2.77,5.52-8.55,8.79-16,8.79s-13.19-3.27-16-8.79l-5.08,27.12L193,361.47a279.11,279.11,0,0,0-1.52,38.65,1.16,1.16,0,0,1-2.31.07,281.46,281.46,0,0,1,1.55-39.06l14.16-79.71,5.9-31.48a1.16,1.16,0,0,1,1.13-.95h0a1.15,1.15,0,0,1,1.13.94c1.33,6.95,7.14,11.27,15.15,11.27s13.82-4.32,15.15-11.27a1.14,1.14,0,0,1,1.13-.93h0a1.14,1.14,0,0,1,1.13.94l5.9,31.47,14.15,79.66a280.66,280.66,0,0,1,1.56,39.12A1.16,1.16,0,0,1,266.06,401.31Z"/><path class="cls-1" d="M228.2,262.35c9.35,0,15-5.41,16.28-12.2l-2.12-11.34-.31-.07a64.27,64.27,0,0,0-27.7,0l-.31.07-2.12,11.34C213.22,256.94,218.85,262.35,228.2,262.35Z"/><path d="M228.2,263.5c-9.19,0-15.86-5-17.41-13.13a1,1,0,0,1,0-.43l2.12-11.34a1.16,1.16,0,0,1,.85-.91l.34-.07a65,65,0,0,1,28.22,0l.32.07a1.16,1.16,0,0,1,.85.91l2.12,11.34a1,1,0,0,1,0,.43C244.06,258.47,237.39,263.5,228.2,263.5Zm-15.1-13.36c1.4,6.83,7.17,11.06,15.1,11.06s13.7-4.23,15.1-11.06l-1.94-10.38a63.44,63.44,0,0,0-26.32,0Z"/><path class="cls-1" d="M254.27,213.31c-.27,8-2.3,17.09-8.93,23-7.42,6.65-13.05,8.57-17.14,8.57s-9.72-1.92-17.14-8.57-9.08-17.27-8.95-25.84,4.22-20.08,13.17-24.17c.13,13,11,24,23.41,18.93A24.88,24.88,0,0,0,254.27,213.31Z"/><path d="M228.2,246.06c-5.32,0-11.35-3-17.91-8.86-7.94-7.12-9.46-18.46-9.34-26.71,0-9.38,4.76-21.06,13.85-25.21a1.14,1.14,0,0,1,1.63,1c.07,6.92,3.29,13.32,8.4,16.71a14,14,0,0,0,13.42,1.16,1.15,1.15,0,0,1,1.35.36,24.06,24.06,0,0,0,14.82,7.62,1.15,1.15,0,0,1,1,1.18c-.35,10.46-3.57,18.7-9.31,23.85C239.55,243.08,233.52,246.06,228.2,246.06Zm-14-57.87c-7.19,4.32-11,14.22-11,22.31-.12,7.8,1.28,18.44,8.57,25,6.12,5.49,11.63,8.28,16.37,8.28s10.25-2.79,16.37-8.28c6.32-5.67,8.14-14.45,8.5-21.19a26.39,26.39,0,0,1-14.72-7.66A16.15,16.15,0,0,1,223.56,205C218.28,201.46,214.8,195.15,214.21,188.19Z"/><ellipse cx="239.84" cy="216.39" rx="2.03" ry="2.39"/><path d="M228.2,230.8a3.72,3.72,0,0,1-2.89-1.09.75.75,0,0,1,.09-1.08.77.77,0,0,1,1.08.09,3,3,0,0,0,3.45,0,.77.77,0,0,1,1.17,1A3.77,3.77,0,0,1,228.2,230.8Z"/><path d="M228.2,236.73c-4,0-7.13-1.85-7.29-4.3a.77.77,0,0,1,.72-.82.75.75,0,0,1,.81.71c.1,1.38,2.32,2.87,5.76,2.87s5.66-1.49,5.76-2.87a.75.75,0,0,1,.81-.71.77.77,0,0,1,.72.82C235.33,234.88,232.19,236.73,228.2,236.73Z"/><path d="M228.2,240.56a6.38,6.38,0,0,1-4.53-1.78.77.77,0,1,1,1.13-1,5.16,5.16,0,0,0,6.8,0,.77.77,0,0,1,1.09,0,.76.76,0,0,1,0,1.08A6.38,6.38,0,0,1,228.2,240.56Z"/><path d="M211.7,210.12a.77.77,0,0,1-.7-1.1c1.3-2.73,4.61-4.5,6.95-3.72a.76.76,0,1,1-.48,1.45c-1.44-.48-4,.72-5.08,2.93A.75.75,0,0,1,211.7,210.12Z"/><path class="cls-6" d="M214,238.81s-13.72,4.69-20.76,7.12-12,4.48-15.35,14.59-10.87,36.71-11.64,51.29,9.47,21.75,19.06,16.5a39.76,39.76,0,0,0,6-4.22s-1.87,21.32-2.05,40.42a37.18,37.18,0,0,0,12.11,4.09c6.48.86,13.31-2.9,15.35-17.05s2.9-62.59,2.9-62.59A174.91,174.91,0,0,1,214,238.81Z"/><path d="M203.27,369.88a15.48,15.48,0,0,1-2-.13,38.11,38.11,0,0,1-12.53-4.24,1.16,1.16,0,0,1-.58-1c.13-15,1.33-31.52,1.83-37.85a29.44,29.44,0,0,1-4.12,2.69c-4.52,2.47-9.42,2.46-13.42-.06-5-3.14-7.72-9.69-7.31-17.53.76-14.44,8.21-41,11.69-51.59,3.38-10.28,8.33-12.64,16.07-15.32,7-2.43,20.77-7.12,20.77-7.12a1.17,1.17,0,0,1,1.07.17,1.19,1.19,0,0,1,.46,1c-1.17,26,5.51,49.53,5.58,49.77a1.27,1.27,0,0,1,.05.34c0,2-.88,48.67-2.91,62.73C217.1,357.35,214.07,369.88,203.27,369.88Zm-12.79-6.06a35.94,35.94,0,0,0,11.09,3.64c7.42,1,12.42-4.73,14.06-16.08,2-13.5,2.83-59.12,2.89-62.27a178.51,178.51,0,0,1-5.69-48.66c-3.82,1.3-13.6,4.65-19.17,6.58-7,2.43-11.52,4.4-14.63,13.85-3.46,10.5-10.84,36.78-11.59,51-.37,7,2,12.77,6.24,15.46,3.27,2.06,7.32,2,11.12,0a38.85,38.85,0,0,0,5.81-4.09,1.15,1.15,0,0,1,1.28-.14,1.13,1.13,0,0,1,.62,1.12C192.49,324.4,190.68,345.16,190.48,363.82Z"/><path class="cls-6" d="M242.36,238.81s13.72,4.69,20.76,7.12,12,4.48,15.35,14.59,10.87,36.71,11.64,51.29-7.67,22.34-18.59,19.27c-3.92-1.36-6.14-2.39-6.14-2.39s1.53,16.72,1.71,35.82A37.18,37.18,0,0,1,255,368.6c-6.48.86-13.31-2.9-15.35-17.05s-2.9-62.59-2.9-62.59A174.91,174.91,0,0,0,242.36,238.81Z"/><path d="M253.35,369.86c-4.7,0-12.6-2.45-14.87-18.15-2-14.06-2.87-60.75-2.91-62.73a1.27,1.27,0,0,1,.05-.34c.07-.24,6.75-23.76,5.58-49.77a1.19,1.19,0,0,1,.46-1,1.17,1.17,0,0,1,1.07-.17s13.73,4.69,20.77,7.12c7.74,2.68,12.69,5,16.07,15.32,3.48,10.59,10.93,37.15,11.69,51.59.43,8.07-1.85,14.52-6.41,18.17-3.64,2.91-8.49,3.72-13.64,2.27-1.94-.67-3.46-1.25-4.52-1.68.4,4.93,1.41,18.78,1.55,34a1.16,1.16,0,0,1-.58,1,38.11,38.11,0,0,1-12.53,4.24A13.48,13.48,0,0,1,253.35,369.86Zm-15.47-80.75c.06,3.15.94,48.77,2.89,62.27,1.64,11.35,6.64,17.06,14.06,16.08a36.07,36.07,0,0,0,11.09-3.63c-.19-18.56-1.67-34.87-1.69-35a1.15,1.15,0,0,1,1.63-1.15s2.23,1,6,2.34c4.41,1.24,8.42.6,11.51-1.87,4-3.17,5.93-8.94,5.55-16.25-.75-14.21-8.13-40.49-11.59-51-3.11-9.45-7.58-11.42-14.63-13.85-5.57-1.93-15.35-5.28-19.17-6.58A178.51,178.51,0,0,1,237.88,289.11Z"/><path class="cls-1" d="M199.21,197.8l-.15,0a.77.77,0,0,1-.61-.9c2.41-12.58,9.52-18.45,9.82-18.7a.77.77,0,0,1,1,1.2c-.07.05-7,5.8-9.28,17.79A.77.77,0,0,1,199.21,197.8Z"/><path class="cls-1" d="M251.39,200.36a.78.78,0,0,1-.76-.67c-2.14-15.8-11.34-22.26-11.44-22.32a.77.77,0,0,1,.87-1.27c.4.27,9.86,6.86,12.1,23.38a.78.78,0,0,1-.66.87Z"/><path class="cls-1" d="M254.32,211.17c0,.63,0,1.35,0,2.14h0a42.88,42.88,0,0,1-2.16,12.51c3.65.91,6.42-4.73,6.79-9.31S257.18,208.77,254.32,211.17Z"/><path d="M252.88,226.88a4.44,4.44,0,0,1-1-.13,1,1,0,0,1-.67-1.25,41.19,41.19,0,0,0,2.11-12.22c0-.71.05-1.41.05-2.11a.91.91,0,0,1,.34-.74c1.72-1.44,3.1-1.07,3.76-.73,1.73.9,2.67,3.6,2.4,6.89s-1.73,7.51-4.34,9.39A4.54,4.54,0,0,1,252.88,226.88Zm2.4-15.24c0,.58,0,1.15-.05,1.72a44.42,44.42,0,0,1-1.81,11.53,2.83,2.83,0,0,0,1-.48c1.76-1.26,3.28-4.69,3.55-8,.22-2.73-.52-4.59-1.36-5A1.29,1.29,0,0,0,255.28,211.64Z"/><path d="M191.36,325.24a1.15,1.15,0,0,1-.69-2.07,91.33,91.33,0,0,0,10.5-9.56,7.43,7.43,0,0,1-4.84-2.77c-3.51-4.13-5-12.79-2.87-20.26l-20,17a1.14,1.14,0,0,1-1.62-.13,1.15,1.15,0,0,1,.13-1.63l23.66-20.08a1.16,1.16,0,0,1,1.49,0,1.15,1.15,0,0,1,.26,1.46c-4.07,7.2-2.95,17.83.74,22.17a4.75,4.75,0,0,0,5.66,1.63,1.16,1.16,0,0,1,1.35.43,1.14,1.14,0,0,1-.08,1.41,96.15,96.15,0,0,1-13,12.19A1.1,1.1,0,0,1,191.36,325.24Z"/><path class="cls-1" d="M229.35,267.3c-.13-.9-.25-2.69-1.15-3.08s-4.48-1.4-6.14-1.91a7.94,7.94,0,0,0-5.63.38c-1.92.9-10.1,5.89-11.38,7.29s-4.86,13-4.86,13a28.14,28.14,0,0,1-3.84,3.58c-3.57,6.3-3.44,15.31-.79,20.87l10.35-12.36,2.21-2.63a11.74,11.74,0,0,0,9.21-3.58l12.28-17.27S229.48,268.19,229.35,267.3Z"/><path d="M195.56,308.63h-.15a1.17,1.17,0,0,1-.9-.65c-2.56-5.39-3.14-14.91.84-21.94a1,1,0,0,1,.26-.32,34.31,34.31,0,0,0,3.54-3.25c.94-3,3.73-11.82,5-13.26,1.46-1.61,9.8-6.65,11.75-7.56a9,9,0,0,1,6.46-.45l1.69.51c2.26.67,3.91,1.17,4.57,1.45,1.4.61,1.64,2.45,1.79,3.67l0,.3c.14.93.26,4.11.27,4.47a1.1,1.1,0,0,1-.21.71l-12.28,17.27-.06.07a12.76,12.76,0,0,1-9.51,4h0l-12.21,14.56A1.13,1.13,0,0,1,195.56,308.63Zm1.69-21.27c-3.1,5.63-3,13-1.34,17.91l11.32-13.52a1.19,1.19,0,0,1,.94-.41,10.53,10.53,0,0,0,8.25-3.14l12-16.9c-.05-1.14-.14-3.24-.23-3.84h0l-.05-.34a5,5,0,0,0-.47-1.87c-.53-.22-2.68-.86-4.25-1.32l-1.72-.52a6.8,6.8,0,0,0-4.8.33c-2.06,1-10,5.85-11,7-.69.79-2.93,7.16-4.61,12.61a1.06,1.06,0,0,1-.18.35A26.37,26.37,0,0,1,197.25,287.36Z"/><path class="cls-7" d="M204.15,312.07c3.42-3.33,3.21-11.59,1.76-16.95l-10.35,12.36h0C197.37,311.28,200.36,313.47,204.15,312.07Z"/><path d="M201.92,313.64c-3,0-5.65-2-7.41-5.66a1.17,1.17,0,0,1,.16-1.24L205,294.38a1.15,1.15,0,0,1,1.13-.38,1.17,1.17,0,0,1,.87.82c1.38,5.11,2,14.13-2.07,18.07a1.36,1.36,0,0,1-.41.26A7.58,7.58,0,0,1,201.92,313.64Zm2.23-1.57h0Zm-7.22-4.43c1.11,2,3.22,4.52,6.59,3.43,2.32-2.52,2.7-8.33,1.78-13.42Z"/><path d="M265.38,329.66a1,1,0,0,1-.38-.08c-4.37-1.91-15-6.17-15.1-6.22a1,1,0,0,1-.59-1,1,1,0,0,1,.81-.84c3.15-.49,5.11-3,6.19-5.09,2.63-5,2.84-12.16.5-17a1,1,0,0,1,.18-1.09,1,1,0,0,1,1.08-.21l20.75,9.21a1,1,0,0,1-.78,1.76l-18.61-8.26A22.51,22.51,0,0,1,258,317.32a12,12,0,0,1-5,5.24c3.43,1.39,9.62,3.9,12.72,5.25a1,1,0,0,1-.39,1.85Z"/><path class="cls-7" d="M257.85,315.39l-6.18-2.75c-.76-.05-2,0-3.57,0-.31,2.93-.57,8.82,2.16,9.81C253.73,321.94,256.32,319.11,257.85,315.39Z"/><path d="M250.26,323.63a1.34,1.34,0,0,1-.39-.07c-3.25-1.18-3.38-6.64-2.92-11a1.14,1.14,0,0,1,1.12-1h.45c1.39,0,2.49-.06,3.22,0a1.11,1.11,0,0,1,.4.09l6.18,2.76a1.14,1.14,0,0,1,.59,1.49c-1.82,4.46-4.83,7.22-8.47,7.78Zm-1.11-9.84c-.3,3.94.18,6.76,1.27,7.48,3-.63,4.89-3.25,5.9-5.3l-4.92-2.19C250.85,313.76,250.06,313.77,249.15,313.79Z"/><path d="M191.19,292.16h0A1.15,1.15,0,0,1,190,291c0-.68.47-16.92,4-26.87a1.15,1.15,0,1,1,2.17.77c-3.39,9.6-3.85,26-3.86,26.16A1.15,1.15,0,0,1,191.19,292.16Z"/><path d="M265.21,303.33h0a1.15,1.15,0,0,1-1.11-1.2c0-.07.25-7.4,0-11.05,0-.5-.07-1.17-.11-2-.25-5.13-.78-15.82-3.75-24.23a1.16,1.16,0,1,1,2.18-.77c3.08,8.73,3.62,19.64,3.88,24.89,0,.78.07,1.44.1,1.93.26,3.77,0,11,0,11.29A1.15,1.15,0,0,1,265.21,303.33Z"/><ellipse cx="216.56" cy="216.39" rx="2.03" ry="2.39"/><path d="M211.87,280.94a.75.75,0,0,1-.54-.22l-6.48-6.4a.77.77,0,1,1,1.08-1.09l6.48,6.4a.76.76,0,0,1,0,1.08A.72.72,0,0,1,211.87,280.94Z"/><path d="M214.36,275.48a.77.77,0,0,1-.56-.24L209,270.16a.77.77,0,0,1,1.12-1.05l4.77,5.07a.78.78,0,0,1-.57,1.3Z"/><path d="M217.64,271.42a.78.78,0,0,1-.59-.27l-3.67-4.37a.78.78,0,0,1,.1-1.09.76.76,0,0,1,1.08.1l3.67,4.37a.77.77,0,0,1-.09,1.08A.79.79,0,0,1,217.64,271.42Z"/><path d="M223.81,270.49a.78.78,0,0,1-.58-.26l-4.91-5.54a.76.76,0,0,1,.06-1.09.78.78,0,0,1,1.09.06l4.91,5.55a.76.76,0,0,1-.06,1.08A.78.78,0,0,1,223.81,270.49Z"/><path class="cls-8" d="M239.46,268.62H216.94c-1.95,0-3.82,1.49-3.51,5.15l2.81,33.4a3,3,0,0,0,3,3h17.84a3,3,0,0,0,3-3l2.81-33.4C243.28,270.11,241.41,268.62,239.46,268.62Z"/><path d="M237.12,311.29H219.28a4.13,4.13,0,0,1-4.19-4l-2.81-33.43a6.22,6.22,0,0,1,1.34-5,4.42,4.42,0,0,1,3.32-1.42h22.52a4.42,4.42,0,0,1,3.32,1.42,6.22,6.22,0,0,1,1.34,5l-2.81,33.4A4.14,4.14,0,0,1,237.12,311.29Zm-20.18-41.51a2.13,2.13,0,0,0-1.62.67,4.18,4.18,0,0,0-.74,3.23l2.81,33.4a1.89,1.89,0,0,0,1.89,1.91h17.84a1.91,1.91,0,0,0,1.9-1.94l2.8-33.37a4.18,4.18,0,0,0-.74-3.23,2.13,2.13,0,0,0-1.62-.67Z"/><path d="M239.46,272.51H216.94a.77.77,0,1,1,0-1.53h22.52a.77.77,0,1,1,0,1.53Z"/><path d="M217.88,278.76a2.57,2.57,0,1,1,2.56-2.57A2.57,2.57,0,0,1,217.88,278.76Zm0-3.59a1,1,0,1,0,1,1A1,1,0,0,0,217.88,275.17Z"/><path class="cls-1" d="M257.68,299l-3.75-1.72s-3.12-9.28-4.45-11.16-4.76-5.77-5.93-7.33-4,1.4-2.34,5.15,3.43,5.93,3.67,8.66a42.63,42.63,0,0,1-8.27-2.42c-5.39-2-9.13-3.74-11.24-4.76s-4.06,1.56-2.89,3.83c-3.43-.71-4.6,2.34-2.26,4.68-1.56,1.17-1.8,3.74,2.1,5.85-1.87-.08-2.34,2.5-.15,4.37s9.83,6,14.12,7.57,12.8.78,15.38.94l6.18,2.75C259.89,310.4,260,303.81,257.68,299Z"/><path d="M257.85,316.54a1.1,1.1,0,0,1-.47-.1l-6-2.66c-.65,0-1.65,0-2.8,0-3.72.09-9.34.21-12.7-1-4.3-1.57-12.15-5.78-14.48-7.78a4.42,4.42,0,0,1-1.65-4.75,3.7,3.7,0,0,1,.32-.59A4.94,4.94,0,0,1,218,296.2a3.55,3.55,0,0,1,.65-2.35,4,4,0,0,1-.44-4.11A3.5,3.5,0,0,1,221,288a3.92,3.92,0,0,1,1.09-3,3.23,3.23,0,0,1,3.8-.68c3.3,1.59,7,3.18,11.14,4.72a55.45,55.45,0,0,0,6.37,2,21.42,21.42,0,0,0-1.5-3.22c-.54-1-1.14-2.16-1.73-3.5-1.3-3-.28-5.86,1.41-6.85a2.14,2.14,0,0,1,2.91.55c.49.64,1.4,1.74,2.37,2.9,1.38,1.65,2.8,3.35,3.58,4.46,1.26,1.77,3.74,8.91,4.44,11l3.3,1.51a1.19,1.19,0,0,1,.56.55c2.36,4.9,2.44,11.87.19,17.35a1.12,1.12,0,0,1-.63.63A1.09,1.09,0,0,1,257.85,316.54Zm-7.13-5.08q.59,0,1,0a1.11,1.11,0,0,1,.4.09l5.05,2.26a20.31,20.31,0,0,0-.38-14l-3.36-1.54a1.14,1.14,0,0,1-.61-.68c-1.24-3.67-3.4-9.59-4.3-10.86-.73-1-2.19-2.78-3.47-4.31-.95-1.14-1.85-2.22-2.38-2.92a1.61,1.61,0,0,0-.5.63,3.8,3.8,0,0,0,.08,3.29c.55,1.26,1.13,2.36,1.65,3.34a15,15,0,0,1,2.11,5.68,1.15,1.15,0,0,1-1.31,1.24,43,43,0,0,1-8.52-2.48c-4.15-1.56-8-3.18-11.33-4.8a.92.92,0,0,0-1.14.21,1.78,1.78,0,0,0-.22,2.05,1.16,1.16,0,0,1-1.26,1.66c-1-.2-1.71,0-2,.47s-.13,1.37.76,2.26a1.15,1.15,0,0,1-.12,1.74,1.37,1.37,0,0,0-.59,1.2c.06.88,1,1.87,2.55,2.72a1.15,1.15,0,0,1,.57,1.32,1.13,1.13,0,0,1-1.16.84c-.26,0-.32.09-.36.2-.15.37,0,1.28,1,2.15,2,1.68,9.42,5.78,13.77,7.36,3,1.07,8.32,1,11.86.88C249.39,311.48,250.11,311.46,250.72,311.46Z"/><path d="M237.62,296.71a1,1,0,0,1-.28,0l-.57-.23c-4.4-1.68-11.75-4.51-14.73-6.57a.77.77,0,0,1,.88-1.27c2.83,2,10.35,4.85,14.4,6.41l.58.22a.77.77,0,0,1-.28,1.49Z"/><path d="M236.53,301.86a.8.8,0,0,1-.26-.05c-5.19-1.81-13.34-5.3-16.46-7.25a.77.77,0,0,1-.25-1.06.76.76,0,0,1,1.06-.24c3,1.86,11.15,5.35,16.16,7.1a.77.77,0,0,1,.47,1A.76.76,0,0,1,236.53,301.86Z"/><path d="M235.9,306.93a.63.63,0,0,1-.26-.05,90.75,90.75,0,0,1-13.71-6.46.77.77,0,1,1,.79-1.32,89.64,89.64,0,0,0,13.45,6.34.77.77,0,0,1-.27,1.49Z"/><polyline class="cls-6" points="810.66 382.56 809.88 344.08 751.17 342.77 745.68 382.56"/><path class="cls-1" d="M787,231.52l-23.56.13a69.61,69.61,0,0,1,.13,9.94,31.88,31.88,0,0,0,11.91,10.61,41.4,41.4,0,0,0,11.54-10.71Z"/><path d="M775.52,253.08a.89.89,0,0,1-.39-.09,32.31,32.31,0,0,1-12.27-10.93.86.86,0,0,1-.13-.56,69.6,69.6,0,0,0-.13-9.78.89.89,0,0,1,.87-1l23.56-.13h0a.89.89,0,0,1,.88.88l0,10a.88.88,0,0,1-.16.5A42,42,0,0,1,776,253,.89.89,0,0,1,775.52,253.08Zm-11-11.71a31.37,31.37,0,0,0,11,9.81,40.81,40.81,0,0,0,10.7-10l0-8.81-21.72.12A64.64,64.64,0,0,1,764.52,241.37Z"/><polyline class="cls-9" points="900.39 382.56 901.96 362.53 871.23 325.43 860.53 325.82 839.72 362.04 839.52 382.56"/><path d="M869.17,383.44a.88.88,0,0,1-.89-.88V370l-8.5-5.05a.89.89,0,0,1,.91-1.52l8.93,5.3a.89.89,0,0,1,.44.76v13.06A.88.88,0,0,1,869.17,383.44Z"/><path class="cls-1" d="M781.87,206.25a11.84,11.84,0,0,0,6-7.06c-5.17,6.48-16.23,6.87-22.18,7.78s-8.57,7.27-8.57,7.27.39,9.55,1.57,14.53,7.59,11.38,16.88,11.38,15.71-6.41,16.88-11.38S794,214.24,794,214.24a43.94,43.94,0,0,1-4.32-9.75C786.38,206.71,781.87,206.25,781.87,206.25Z"/><path d="M775.52,241a19.57,19.57,0,0,1-12-4,15.34,15.34,0,0,1-5.73-8.06c-1.18-5-1.57-14.3-1.59-14.69a1,1,0,0,1,.07-.38c.11-.28,2.88-6.82,9.25-7.8.88-.14,1.87-.26,2.92-.39,6.13-.77,14.52-1.82,18.71-7.08a.89.89,0,0,1,1.09-.23.87.87,0,0,1,.46,1,13.19,13.19,0,0,1-3.71,5.85,10.31,10.31,0,0,0,4.19-1.5.87.87,0,0,1,1.34.47,44.21,44.21,0,0,0,4.21,9.52.84.84,0,0,1,.15.53c0,.39-.41,9.69-1.59,14.69C791.89,234.78,784.72,241,775.52,241ZM758,214.41c.06,1.41.49,9.72,1.54,14.15s6.82,10.71,16,10.71,15-6.39,16-10.71,1.46-12.47,1.54-14.08a43.13,43.13,0,0,1-3.93-8.67,14.85,14.85,0,0,1-7.37,1.33.89.89,0,0,1-.28-1.69,9.42,9.42,0,0,0,3-2.28c-4.76,2.9-11,3.68-15.91,4.3-1,.13-2,.25-2.87.38C760.89,208.6,758.41,213.44,758,214.41Z"/><path class="cls-1" d="M753.86,222.42c.38,3.34,2.46,6.61,4.6,5.55a86.76,86.76,0,0,1-1.16-9.7C755.42,217,753.48,219.12,753.86,222.42Z"/><path d="M757.63,229.06a2.8,2.8,0,0,1-1.38-.37c-1.62-.88-3-3.41-3.27-6.17h0c-.26-2.3.47-4.33,1.87-5.16a2.64,2.64,0,0,1,3,.19.87.87,0,0,1,.38.66,83.24,83.24,0,0,0,1.14,9.59.89.89,0,0,1-.47,1A2.77,2.77,0,0,1,757.63,229.06Zm-2.89-6.74c.24,2.15,1.25,4.22,2.35,4.82a1.31,1.31,0,0,0,.34.13c-.47-2.65-.78-5.92-1-8.45a.75.75,0,0,0-.7.07c-.64.37-1.23,1.61-1,3.43Z"/><path class="cls-1" d="M793.74,218.27a86.76,86.76,0,0,1-1.16,9.7c2.14,1.06,4.22-2.21,4.6-5.55S795.62,217,793.74,218.27Z"/><path d="M793.41,229.06a2.77,2.77,0,0,1-1.23-.29.89.89,0,0,1-.47-1,83.5,83.5,0,0,0,1.14-9.59.87.87,0,0,1,.38-.66,2.64,2.64,0,0,1,3-.19c1.4.83,2.13,2.86,1.87,5.16s-1.37,5.14-3.27,6.17A2.8,2.8,0,0,1,793.41,229.06Zm1.17-10.24c-.19,2.53-.5,5.8-1,8.45a1.31,1.31,0,0,0,.34-.13c1.1-.6,2.11-2.67,2.35-4.82.21-1.82-.38-3.06-1-3.43A.75.75,0,0,0,794.58,218.82Z"/><path class="cls-5" d="M790.9,192c-3.47-8.05-10.6-9.23-20.75-6.35s-17.93,12.89-15.83,18.72a61.8,61.8,0,0,1,2.75,9.88s2.61-6.35,8.57-7.27,17-1.3,22.18-7.78a11.84,11.84,0,0,1-6,7.06s4.51.46,7.79-1.76a43.94,43.94,0,0,0,4.32,9.75s1.83-5.37,3.14-9.43S797,191.86,790.9,192Z"/><path d="M794,215.12a.87.87,0,0,1-.74-.39,41.92,41.92,0,0,1-4.09-8.92,14.85,14.85,0,0,1-7.37,1.33.89.89,0,0,1-.28-1.69,9.42,9.42,0,0,0,3-2.28c-4.76,2.9-11,3.68-15.91,4.3-1,.13-2,.25-2.87.38-5.4.83-7.86,6.67-7.89,6.73a.88.88,0,0,1-1.69-.2,61.29,61.29,0,0,0-2.71-9.72c-.78-2.17-.41-4.83,1.07-7.7,2.81-5.47,9-10.36,15.36-12.17,11.2-3.18,18.08-1.17,21.57,6.33a6.25,6.25,0,0,1,4.71,2.67c2.33,3.13,2.74,8.3,1.77,11.3-1.3,4-3.13,9.38-3.15,9.43a.91.91,0,0,1-.72.6Zm-4.32-11.52a.93.93,0,0,1,.29.05.88.88,0,0,1,.55.58,49.6,49.6,0,0,0,3.25,7.91c.65-1.93,1.7-5,2.52-7.6a12.22,12.22,0,0,0-1.5-9.69,4.51,4.51,0,0,0-3.85-2,.87.87,0,0,1-.83-.53c-3-7.05-9.11-8.85-19.69-5.85a24.24,24.24,0,0,0-14.28,11.28c-1.22,2.39-1.57,4.62-1,6.29a70.15,70.15,0,0,1,2.3,7.66,12.09,12.09,0,0,1,8-5.62c.88-.14,1.87-.26,2.92-.39,6.13-.77,14.52-1.82,18.71-7.08a.89.89,0,0,1,1.09-.23.87.87,0,0,1,.46,1,13.19,13.19,0,0,1-3.71,5.85,10.31,10.31,0,0,0,4.19-1.5A.83.83,0,0,1,789.66,203.6Z"/><path class="cls-8" d="M763.61,241.59s-11.52,5-16.1,6.81-7.85,4.71-9,11.65-5.37,83-5.37,83l25.66,4.71,10.47-79.05C763.61,253.5,763.61,241.59,763.61,241.59Z"/><path d="M758.77,348.63l-.16,0L733,343.9a.87.87,0,0,1-.72-.92c.17-3.1,4.2-76.17,5.38-83.08,1.36-8,5.6-10.73,9.57-12.32,4.52-1.81,16-6.75,16.08-6.8a.9.9,0,0,1,.84.07.92.92,0,0,1,.39.74,86.41,86.41,0,0,0,5.58,26.79,1,1,0,0,1,0,.42l-10.48,79.06a.89.89,0,0,1-.35.6A.9.9,0,0,1,758.77,348.63ZM734,342.3l24,4.4,10.32-77.91a90.33,90.33,0,0,1-5.57-25.87c-3.07,1.33-11.25,4.84-14.92,6.3s-7.27,3.83-8.49,11C738.26,266.63,734.49,334.24,734,342.3Z"/><path class="cls-8" d="M808.92,258.51c0-3.8-2-7.2-6.41-9.56s-15.45-7.46-15.45-7.46a121.11,121.11,0,0,1-6.17,26.94l7.44,80.8.8,8.72c8.38.79,21.6-.78,21.6-.78S808.92,262.3,808.92,258.51Z"/><path d="M794.64,359.06c-2,0-3.87-.06-5.59-.23a.89.89,0,0,1-.8-.8L780,268.51a.91.91,0,0,1,.06-.4,121.44,121.44,0,0,0,6.12-26.71.88.88,0,0,1,1.25-.71c.11.05,11.07,5.14,15.49,7.48s6.88,6,6.88,10.34c0,3.74,1.8,97.69,1.81,98.64a.88.88,0,0,1-.78.9A158.52,158.52,0,0,1,794.64,359.06ZM790,357.13c7,.53,17-.45,19.88-.75-.18-9.26-1.8-94.3-1.8-97.87s-2-6.72-5.94-8.77c-3.55-1.88-11.38-5.56-14.29-6.92a124.52,124.52,0,0,1-6,25.72Z"/><path class="cls-1" d="M780.89,268.43a121.11,121.11,0,0,0,6.17-26.94,41.4,41.4,0,0,1-11.54,10.71,31.88,31.88,0,0,1-11.91-10.61s0,11.91,5.63,27.1l-10.47,79.05c5.46,2.9,20,3.81,29.56,1.49Z"/><path d="M775.77,351.41c-7,0-13.9-1-17.42-2.88a.89.89,0,0,1-.46-.9l10.44-78.84c-5.54-15.06-5.61-26.71-5.61-27.2a.9.9,0,0,1,.65-.85.88.88,0,0,1,1,.39,31.4,31.4,0,0,0,11.11,10.05A40.38,40.38,0,0,0,786.33,241a.88.88,0,0,1,1.61.6,124.29,124.29,0,0,1-6.15,27l7.42,80.61a.9.9,0,0,1-.67,1A56.89,56.89,0,0,1,775.77,351.41Zm-16-4.18c5.68,2.61,18.81,3.24,27.65,1.31l-7.38-80a.91.91,0,0,1,.06-.4,121.6,121.6,0,0,0,5.73-23.52A43.21,43.21,0,0,1,776,253a.89.89,0,0,1-.84,0,32.24,32.24,0,0,1-10.48-8.48,91.6,91.6,0,0,0,5.42,23.87,1,1,0,0,1,0,.42Z"/><path d="M768.49,258.81a.62.62,0,0,1-.41-.16.59.59,0,0,1,0-.84l4.28-4.55a.61.61,0,0,1,.84,0,.59.59,0,0,1,0,.83l-4.29,4.55A.59.59,0,0,1,768.49,258.81Z"/><path d="M781.8,258.84a.6.6,0,0,1-.44-.2l-3.89-4.42a.58.58,0,0,1,0-.83.59.59,0,0,1,.83.05l3.9,4.42a.59.59,0,0,1-.06.83A.58.58,0,0,1,781.8,258.84Z"/><circle class="cls-10" cx="775.52" cy="256.91" r="1.18"/><circle class="cls-10" cx="775.52" cy="282.69" r="1.18"/><circle class="cls-10" cx="775.52" cy="308.48" r="1.18"/><circle class="cls-10" cx="775.52" cy="334.26" r="1.18"/><path d="M766.36,268a.64.64,0,0,1-.3-.08l-7.73-4.58a.67.67,0,0,1-.27-.37.55.55,0,0,1,.08-.45l2.74-4.4-7.78-.46a.58.58,0,0,1-.48-.31.6.6,0,0,1,0-.58l5.76-9.82a.59.59,0,1,1,1,.6l-5.28,9,7.81.46a.61.61,0,0,1,.49.32.59.59,0,0,1,0,.59l-2.95,4.72,7.2,4.27a.6.6,0,0,1,.21.81A.59.59,0,0,1,766.36,268Z"/><path d="M784.42,268.62a.58.58,0,0,1-.52-.31.59.59,0,0,1,.25-.8l8.84-4.6-4.28-4.28a.59.59,0,0,1,.31-1l8.29-1.66-6-8.95a.59.59,0,0,1,1-.66l6.54,9.68a.59.59,0,0,1-.37.91l-8.08,1.62,4.06,4.06a.58.58,0,0,1,.17.51.58.58,0,0,1-.31.43l-9.56,5A.63.63,0,0,1,784.42,268.62Z"/><path d="M772.9,377.26a.59.59,0,0,1-.59-.59V355.73a.59.59,0,0,1,.59-.59.58.58,0,0,1,.59.59v20.94A.58.58,0,0,1,772.9,377.26Z"/><path d="M778,377.26a.58.58,0,0,1-.59-.59V355.73a.58.58,0,0,1,.59-.59.59.59,0,0,1,.59.59v20.94A.59.59,0,0,1,778,377.26Z"/><path class="cls-5" d="M876.3,197.2l-2.09,5.88,5.63,3.63a18.82,18.82,0,0,1-1.05,6.51l2.23.38s1.57-2.63,3.14-2.38a3.43,3.43,0,0,1,1.69.68c4.75-8.12,5.2-17.85,0-21.46-3.93-10.89-15.84-8.51-22.51-9.51S853.14,177,853.14,177a9.11,9.11,0,0,0,1.7,6.51,18.56,18.56,0,0,1-8-5.88c-4.18,4.76-5.36,10-.13,14.65a9.33,9.33,0,0,1-5.89.12,9.88,9.88,0,0,0,6.23,8c.1-1.41.19-2.27.19-2.27C853.53,193.69,868.06,192.69,876.3,197.2Z"/><path d="M881,214.49l-.14,0-2.23-.37a.9.9,0,0,1-.62-.43.92.92,0,0,1-.06-.76,18.33,18.33,0,0,0,1-5.71l-5.23-3.37a.89.89,0,0,1-.36-1l1.84-5.16c-8.11-4-21.28-2.81-27.12,1.06,0,.39-.08,1-.14,1.85a.87.87,0,0,1-.41.68.89.89,0,0,1-.79.08,10.72,10.72,0,0,1-6.79-8.72.88.88,0,0,1,1.19-1,8.39,8.39,0,0,0,3.83.23c-3.86-4.28-3.46-9.46,1.21-14.76a.84.84,0,0,1,.7-.3.88.88,0,0,1,.68.36,18.46,18.46,0,0,0,5.25,4.51,9.59,9.59,0,0,1-.56-4.74.88.88,0,0,1,.55-.7.9.9,0,0,1,.89.14,21.92,21.92,0,0,0,9.78,3.69,46.35,46.35,0,0,0,4.64.33c6.38.24,15.09.57,18.48,9.5,5.14,3.86,5.18,13.65,0,22.47a.87.87,0,0,1-.61.42.85.85,0,0,1-.72-.19,2.5,2.5,0,0,0-1.26-.48c-.65-.11-1.71,1.07-2.25,2A.9.9,0,0,1,881,214.49Zm-1.06-2,.65.11c.63-.89,2-2.54,3.7-2.28a5,5,0,0,1,1.22.33c4.26-7.83,4.23-16.45-.17-19.51a1,1,0,0,1-.33-.43c-2.9-8.06-10.37-8.34-17-8.59a46,46,0,0,1-4.84-.35,25.57,25.57,0,0,1-9.25-3.14,8.31,8.31,0,0,0,1.57,4.34.89.89,0,0,1,0,1.07.9.9,0,0,1-1,.32,19.22,19.22,0,0,1-7.69-5.33c-3.79,4.74-3.63,9,.46,12.59a.89.89,0,0,1,.28.84.9.9,0,0,1-.58.67,10.55,10.55,0,0,1-5,.46,8.87,8.87,0,0,0,4.29,5.51c.05-.65.08-1,.08-1a.9.9,0,0,1,.37-.64c6.25-4.49,21-6,30-1.06a.9.9,0,0,1,.41,1.08l-1.86,5.22,5,3.25a.89.89,0,0,1,.4.71A19.56,19.56,0,0,1,880,212.52Z"/><path class="cls-1" d="M884.16,211.22c-1.57-.25-3.14,2.38-3.14,2.38l-2.23-.38a18.82,18.82,0,0,0,1.05-6.51l-5.63-3.63,2.09-5.88c-8.24-4.51-22.77-3.51-29,1,0,0-1.57,16.15.78,23.79s6.55,11.39,9.29,13.14v3.81a13.8,13.8,0,0,0,6.42,5s8.31-1.74,16.53-11a53.37,53.37,0,0,1,.48-10c2.75.88,5.76-2.12,6.16-6.38S885.73,211.47,884.16,211.22Z"/><path d="M863.74,244.84a.8.8,0,0,1-.3-.06,14.55,14.55,0,0,1-6.86-5.36.9.9,0,0,1-.14-.48v-3.33c-3.05-2.06-7-6-9.25-13.36-2.39-7.72-.89-23.47-.83-24.13a.9.9,0,0,1,.37-.64c6.25-4.49,21-6,30-1.06a.9.9,0,0,1,.41,1.08l-1.86,5.22,5,3.25a.89.89,0,0,1,.4.71,19.56,19.56,0,0,1-.77,5.84l.65.11c.63-.89,2-2.54,3.7-2.28,2.77.44,3.84,2.35,3.49,6.21a8.83,8.83,0,0,1-3.48,6.52,4.67,4.67,0,0,1-2.79.82,51.53,51.53,0,0,0-.37,9,.88.88,0,0,1-.22.62c-8.31,9.41-16.66,11.24-17,11.32Zm-5.53-6.17a13,13,0,0,0,5.58,4.35c1.37-.36,8.51-2.56,15.58-10.43a53.71,53.71,0,0,1,.51-9.84.87.87,0,0,1,.4-.63.88.88,0,0,1,.74-.1,2.66,2.66,0,0,0,2.31-.42,7,7,0,0,0,2.69-5.2c.36-3.93-1-4.14-2-4.3h0c-.64-.11-1.71,1.07-2.25,2a.87.87,0,0,1-.9.41l-2.23-.37a.9.9,0,0,1-.62-.43.92.92,0,0,1-.06-.76,18.33,18.33,0,0,0,1-5.71l-5.23-3.37a.89.89,0,0,1-.36-1l1.84-5.16c-8.11-4-21.28-2.81-27.12,1.06-.22,2.55-1.28,16.32.79,23,2.21,7.17,6.07,10.84,8.92,12.66a.86.86,0,0,1,.41.74Z"/><path class="cls-9" d="M880.36,234.4c-5.63,31.93-22.64,66.75-22.64,66.75-11.78-36.52-.4-62.44-.4-62.44l-24.47,8-7.07,72.38L834.42,365s19.11,3.67,22.25-4.84,6.81-32.33,6.81-32.33,3.14,23.17,6.67,30.63,9.29,9.52,18.59,8.11S902,362.53,902,362.53l8.5-112.69S891.09,240.42,880.36,234.4Z"/><path d="M883.75,367.89c-7,0-11.47-2.85-14.4-9-2.49-5.26-4.74-17.87-5.91-25.26-1.29,7.61-3.72,20.88-5.94,26.88-3.36,9.11-22.44,5.57-23.25,5.41a.9.9,0,0,1-.7-.71l-8.64-45.94a1,1,0,0,1,0-.25L832,246.61a.87.87,0,0,1,.6-.75l24.48-8a.88.88,0,0,1,.93.25.9.9,0,0,1,.16.95A68.53,68.53,0,0,0,854,256.42a103.44,103.44,0,0,0,3.92,42.3c3.68-7.91,16.83-37.41,21.6-64.48a.9.9,0,0,1,.49-.65.89.89,0,0,1,.81,0c10.59,5.94,29.87,15.33,30.06,15.42a.88.88,0,0,1,.5.87L902.84,362.6a.87.87,0,0,1-.39.67c-.16.11-4.2,2.78-13.58,4.2A34.22,34.22,0,0,1,883.75,367.89ZM863.48,327h0a.88.88,0,0,1,.87.77c0,.23,3.17,23.12,6.6,30.37,3.23,6.82,8.35,9,17.65,7.62,7.43-1.13,11.37-3.07,12.51-3.71l8.43-111.64c-3.1-1.51-18.77-9.21-28.53-14.6-5.79,31.36-22.33,65.42-22.5,65.77a.89.89,0,0,1-.86.49.91.91,0,0,1-.78-.61,105.59,105.59,0,0,1-4.64-45.29,76.16,76.16,0,0,1,3.6-16l-22.16,7.23-7,71.68,8.51,45.21a51.25,51.25,0,0,0,9.19.65c4.43-.13,10-1.1,11.47-5,3.07-8.33,6.73-31.92,6.76-32.16A.89.89,0,0,1,863.48,327Z"/><path class="cls-1" d="M880.27,232.41c-8.22,9.72-16.53,11.54-16.53,11.54a14,14,0,0,1-6.42-5.24s-11.38,25.92.4,62.44c0,0,17-34.82,22.64-66.75C880.36,234.4,880.31,233.65,880.27,232.41Z"/><path d="M857.72,302h-.07a.91.91,0,0,1-.78-.61,105.59,105.59,0,0,1-4.64-45.29c1.37-11,4.17-17.5,4.28-17.77a.91.91,0,0,1,.76-.53.87.87,0,0,1,.81.42,13.21,13.21,0,0,0,5.71,4.77c1.41-.39,8.67-2.75,15.8-11.18a.88.88,0,0,1,1.56.54c0,1.22.09,2,.09,2a.79.79,0,0,1,0,.22c-5.58,31.69-22.55,66.64-22.72,67A.89.89,0,0,1,857.72,302Zm-.14-61.49c-2.07,5.8-8.67,28.33.31,58.18,3.65-7.87,16.68-37.07,21.51-64-7.77,8.34-15.14,10-15.47,10.11a.94.94,0,0,1-.5,0A14.52,14.52,0,0,1,857.58,240.54Z"/><path d="M855.82,252.23a.89.89,0,0,1-.71-1.42,37,37,0,0,1,8.14-7.6.88.88,0,1,1,1,1.48,36.4,36.4,0,0,0-7.7,7.19A.86.86,0,0,1,855.82,252.23Z"/><path d="M873.1,253.28a.9.9,0,0,1-.68-.32,48.89,48.89,0,0,0-9.17-8.27.88.88,0,0,1,1-1.48,49.71,49.71,0,0,1,9.55,8.61.88.88,0,0,1-.67,1.46Z"/><path class="cls-6" d="M858.87,247.94c.06,1.78.43,4.66,2,6.55h3.28a49.28,49.28,0,0,0,4.13-6.93,44.65,44.65,0,0,0-4.59-3.61A38,38,0,0,0,858.87,247.94Z"/><path d="M864.2,255.37h-3.28a.91.91,0,0,1-.67-.3c-1.74-2-2.19-5-2.26-7.1a.86.86,0,0,1,.27-.66,37.79,37.79,0,0,1,5-4.1.91.91,0,0,1,1,0,46.41,46.41,0,0,1,4.69,3.69.89.89,0,0,1,.22,1,50.16,50.16,0,0,1-4.23,7.08A.86.86,0,0,1,864.2,255.37Zm-2.85-1.77h2.39a51.15,51.15,0,0,0,3.5-5.81,43.94,43.94,0,0,0-3.5-2.76,38.25,38.25,0,0,0-4,3.27A10.3,10.3,0,0,0,861.35,253.6Z"/><path class="cls-6" d="M867.76,277.59l-3.56-23.1h-3.28a98,98,0,0,0-7,31,111.76,111.76,0,0,0,3.85,15.67S862.46,291.44,867.76,277.59Z"/><path d="M857.72,302h-.07a.89.89,0,0,1-.78-.61,114.46,114.46,0,0,1-3.88-15.8,1.27,1.27,0,0,1,0-.2,99.8,99.8,0,0,1,7.14-31.3.88.88,0,0,1,.8-.52h3.28a.89.89,0,0,1,.87.75l3.57,23.1a.86.86,0,0,1,0,.45c-5.26,13.74-10,23.54-10.08,23.64A.89.89,0,0,1,857.72,302Zm-3-16.6a108.85,108.85,0,0,0,3.13,13.29c1.64-3.52,5.17-11.33,9-21.23l-3.41-22.12h-1.93A99.39,99.39,0,0,0,854.76,285.43Z"/><path d="M855.23,302.16a.55.55,0,0,1-.51-.3A110.4,110.4,0,0,1,841,255.74a.58.58,0,0,1,.37-.55l6.25-2.63L844,250.13a.59.59,0,0,1-.25-.43.58.58,0,0,1,.17-.48l7-6.87a.59.59,0,0,1,.83.84l-6.46,6.37,3.92,2.64a.59.59,0,0,1-.1,1l-6.89,2.89a109.79,109.79,0,0,0,13.56,45.16.6.6,0,0,1-.23.81A.59.59,0,0,1,855.23,302.16Z"/><path d="M863,298.73a.64.64,0,0,1-.37-.13.6.6,0,0,1-.08-.84A193.4,193.4,0,0,0,887.89,257l-6.23-5a.61.61,0,0,1-.21-.58.6.6,0,0,1,.43-.45l6.64-1.8-3.41-9.41a.58.58,0,0,1,.35-.75.59.59,0,0,1,.76.35l3.63,10a.66.66,0,0,1,0,.48.65.65,0,0,1-.37.3l-6.15,1.66,5.68,4.57a.6.6,0,0,1,.17.69,193,193,0,0,1-25.71,41.47A.58.58,0,0,1,863,298.73Z"/><ellipse cx="852.29" cy="211.07" rx="1.43" ry="1.69"/><ellipse cx="868.29" cy="210.29" rx="1.43" ry="1.69"/><path d="M859.94,220.49a8.53,8.53,0,0,1-3.12-.57.6.6,0,0,1-.3-.78.59.59,0,0,1,.78-.3,7.36,7.36,0,0,0,2.64.47.59.59,0,1,1,0,1.18Z"/><path d="M860.42,225.7l-.67,0c-1-.05-3.24-.26-4.07-1.32a.6.6,0,0,1,.1-.83.59.59,0,0,1,.83.11c.28.35,1.4.77,3.2.86,2.3.11,5.21-.39,6.51-1.76a.59.59,0,1,1,.86.82C865.67,225.15,862.73,225.7,860.42,225.7Z"/><path d="M861.33,229.05a5.52,5.52,0,0,1-3.25-.85.59.59,0,1,1,.72-.94c1.2.93,4.48.72,5.55-.12a.59.59,0,0,1,.83.09.6.6,0,0,1-.09.83A6.55,6.55,0,0,1,861.33,229.05Z"/><path d="M854.51,207.25a.55.55,0,0,1-.32-.1h0a9.17,9.17,0,0,0-4.5-1.15h-.21a.6.6,0,0,1-.6-.57.59.59,0,0,1,.58-.61,10.31,10.31,0,0,1,5.37,1.34.61.61,0,0,1,.18.82A.62.62,0,0,1,854.51,207.25Z"/><path d="M863,205a.58.58,0,0,1-.45-.21.6.6,0,0,1,.06-.83c.13-.11,3.18-2.72,6.73-2.37a.59.59,0,1,1-.12,1.18c-3-.29-5.81,2.06-5.84,2.08A.55.55,0,0,1,863,205Z"/><path d="M865.19,212.35a.52.52,0,0,1-.47-.33,5.17,5.17,0,0,1-.09-3.45.5.5,0,1,1,.93.37,4.2,4.2,0,0,0,.11,2.74.5.5,0,0,1-.31.64A.47.47,0,0,1,865.19,212.35Z"/><path d="M861.84,237.23a8.84,8.84,0,0,1-5-1.37.88.88,0,1,1,1-1.46c2.07,1.41,5.85,1.41,8.81,0a28.8,28.8,0,0,0,8.11-6,.89.89,0,1,1,1.29,1.22,30.43,30.43,0,0,1-8.64,6.34A13.33,13.33,0,0,1,861.84,237.23Z"/><rect class="cls-1" x="857.19" y="274.68" width="39.27" height="53.6" rx="3.92" transform="translate(-30.85 112.16) rotate(-7.19)"/><path d="M862.71,331.14a3.2,3.2,0,0,1-3.17-2.8l-6.14-48.59a3.22,3.22,0,0,1,.65-2.36,3.12,3.12,0,0,1,2.13-1.21l34.37-4.34a3.2,3.2,0,0,1,3.57,2.77l6.13,48.59a3.2,3.2,0,0,1-2.77,3.57l-34.37,4.34ZM891,273.58l-.18,0-34.37,4.33a1.42,1.42,0,0,0-.95.54,1.45,1.45,0,0,0-.29,1.06l6.13,48.59a1.47,1.47,0,0,0,.54.95,1.44,1.44,0,0,0,1.06.28L897.26,325h0a1.39,1.39,0,0,0,.94-.55,1.37,1.37,0,0,0,.29-1.05l-6.13-48.59a1.43,1.43,0,0,0-1.41-1.25Z"/><path class="cls-1" d="M872.11,304.16s-4.31-7.07-5-7.72a4.9,4.9,0,0,0-3-1.31c-1.31-.13-5.61-1.26-8-1.66s-3.2,3.65.2,4.57a47.34,47.34,0,0,1,6.46,2.32l-12.43.26,1.31,19s12,2.62,20.15.13Z"/><path d="M863.29,321.7a61.88,61.88,0,0,1-11.78-1.23.89.89,0,0,1-.7-.81l-1.31-19a.92.92,0,0,1,.23-.66.89.89,0,0,1,.64-.29l8-.17c-.7-.24-1.45-.47-2.22-.68a3.56,3.56,0,0,1-2.85-4.13,2.63,2.63,0,0,1,3-2.16c1.15.19,2.72.55,4.24.89s3,.69,3.67.76a5.79,5.79,0,0,1,3.55,1.56c.67.68,4.07,6.21,5.1,7.89a.85.85,0,0,1,.13.47l-.26,15.58a.89.89,0,0,1-.63.83A30.58,30.58,0,0,1,863.29,321.7Zm-10.76-2.83c2.51.47,11.74,2,18.45.19l.25-14.66c-2-3.33-4.33-6.93-4.72-7.34A4.1,4.1,0,0,0,864,296c-.73-.08-2.19-.41-3.88-.79-1.49-.34-3-.69-4.14-.87-.77-.13-1,.63-1,.78-.16.77.26,1.7,1.58,2.05a46.82,46.82,0,0,1,6.6,2.38.89.89,0,0,1-.35,1.69l-11.51.24Z"/><ellipse cx="767.34" cy="215.29" rx="1.43" ry="1.69"/><ellipse cx="783.7" cy="215.29" rx="1.43" ry="1.69"/><path d="M765.05,229.55a.59.59,0,0,1-.59-.57,9.84,9.84,0,0,1,1-4.21.59.59,0,1,1,1,.53,8.9,8.9,0,0,0-.85,3.64.59.59,0,0,1-.57.61Z"/><path d="M775.52,225.69a3.29,3.29,0,0,1-3-1.78.59.59,0,0,1,1.07-.49,2.29,2.29,0,0,0,3.9,0,.59.59,0,0,1,1.07.49A3.29,3.29,0,0,1,775.52,225.69Z"/><path d="M775.52,231.39c-3.06,0-5.57-1.25-6.38-2.42a.59.59,0,0,1,1-.67c.52.77,2.61,1.91,5.4,1.91s4.88-1.14,5.4-1.91a.59.59,0,0,1,1,.67C781.09,230.14,778.58,231.39,775.52,231.39Z"/><path d="M775.52,234.72a6.34,6.34,0,0,1-4.06-1.39.6.6,0,0,1,0-.84.59.59,0,0,1,.83,0,5.45,5.45,0,0,0,6.54,0,.59.59,0,0,1,.79.88A6.4,6.4,0,0,1,775.52,234.72Z"/><path d="M786,229.55h0a.59.59,0,0,1-.57-.61,8.85,8.85,0,0,0-.85-3.64.59.59,0,0,1,1.05-.53,9.84,9.84,0,0,1,1,4.21A.59.59,0,0,1,786,229.55Z"/><path class="cls-1" d="M761.12,198.47a.62.62,0,0,1-.34-.11.59.59,0,0,1-.14-.82,23.15,23.15,0,0,1,8.69-6.94.59.59,0,0,1,.78.3.59.59,0,0,1-.31.78,22.34,22.34,0,0,0-8.19,6.54A.61.61,0,0,1,761.12,198.47Z"/><path class="cls-1" d="M775.52,199.58a.59.59,0,0,1-.21-1.14A13,13,0,0,0,781.8,193a.59.59,0,0,1,.8-.25.58.58,0,0,1,.25.79,14.05,14.05,0,0,1-7.12,6A.52.52,0,0,1,775.52,199.58Z"/><path class="cls-1" d="M880.1,191a.61.61,0,0,1-.48-.25c-3.31-4.57-10.56-4.39-10.63-4.38a.61.61,0,0,1-.61-.57.59.59,0,0,1,.57-.61c.33,0,7.95-.21,11.63,4.87a.59.59,0,0,1-.48.94Z"/><path class="cls-11" d="M945.74,382.56a92.84,92.84,0,0,0-4.22-21.4l-38.78-18.65-15.41,22.28s-2.55,9.62-2.26,17.77"/><path class="cls-11" d="M867.21,306.87c-2,3.64-3.64,10.31-.79,15.81s16.49,27.78,16.49,27.78L892.14,336l-10.9-20.71,2-2.95-1.16-6.43-10.87-4.48Z"/><path d="M882.91,351.35h0a.91.91,0,0,1-.74-.43c-.56-.91-13.7-22.37-16.53-27.83-3.16-6.12-1-13.34.8-16.64l.06-.1,4-5.42a.88.88,0,0,1,1-.29l10.86,4.48a.87.87,0,0,1,.54.66l1.16,6.43a.88.88,0,0,1-.14.65l-1.67,2.51,10.65,20.25a.89.89,0,0,1,0,.89l-9.23,14.43A.89.89,0,0,1,882.91,351.35Zm-14.95-44c-1.62,3-3.56,9.5-.75,14.92,2.42,4.67,12.84,21.8,15.72,26.52l8.19-12.8-10.66-20.26a.9.9,0,0,1,0-.91l1.76-2.64-1-5.61-9.77-4Z"/><path class="cls-1" d="M891.75,337.31c-4.52-.1-8,6.28-8.74,9.52s.69,8.15.69,8.15c-1.67.88-1.87,4.81,1.47,6.38l6.48-14.83Z"/><path d="M885.17,362.24a1,1,0,0,1-.38-.08,5.26,5.26,0,0,1-3.15-4.64,3.89,3.89,0,0,1,1.05-2.89c-.35-1.45-1.13-5.22-.55-8,.79-3.69,4.62-10.22,9.51-10.22h.12a.88.88,0,0,1,.86.89l-.09,9.23a1.05,1.05,0,0,1-.08.35L886,361.71a.83.83,0,0,1-.5.47A.81.81,0,0,1,885.17,362.24Zm5.68-24c-3.47.72-6.38,5.94-7,8.74-.64,3,.66,7.68.67,7.73a.89.89,0,0,1-.44,1,1.92,1.92,0,0,0-.7,1.72,3.41,3.41,0,0,0,1.35,2.6l6-13.74Z"/><path class="cls-5" d="M925.12,218.13c-2-8.64-15.31-10.21-24-2.94s-16.1,20.12-17.08,28.86,2.16,12.66,7.56,13.35c0,0-2.06,5.79-6.68,7.46,0,0,5.6,2.65,9.53-.3a9.24,9.24,0,0,0,.68,10.12l41.53.19s1.27-6.57-2.06-9.81a7.58,7.58,0,0,0,9.52-4c-4.12,1.67-10.31-.49-9.43-7.17s4.91-12.17,4.72-20.12S934.06,216.17,925.12,218.13Z"/><path d="M936.71,275.76h0l-41.52-.2a.89.89,0,0,1-.7-.35,9.75,9.75,0,0,1-1.67-8.79c-3.87,1.26-8-.66-8.21-.76a.87.87,0,0,1-.51-.84.89.89,0,0,1,.58-.79c3.07-1.11,4.94-4.32,5.72-5.95-4.14-.93-8.29-4.24-7.18-14.13,1-9.18,8.67-22.11,17.39-29.44,5.15-4.33,12.47-5.94,18.22-4a10.32,10.32,0,0,1,6.94,6.61,10.43,10.43,0,0,1,8.15,2.17c3.76,2.95,6.29,8.62,6.43,14.44.12,4.84-1.26,8.76-2.59,12.54a38.75,38.75,0,0,0-2.13,7.72c-.31,2.39.34,4.28,1.89,5.48a6.6,6.6,0,0,0,6.33.75.88.88,0,0,1,1,.2.91.91,0,0,1,.18,1,8.57,8.57,0,0,1-8.29,5c1.83,3.62.93,8.4.89,8.64A.89.89,0,0,1,936.71,275.76Zm-41.07-2,40.3.19c.2-1.7.43-6-1.91-8.29a.88.88,0,0,1-.13-1.11.89.89,0,0,1,1.05-.36,6.63,6.63,0,0,0,7.27-1.81,8.22,8.22,0,0,1-5.8-1.55,7.36,7.36,0,0,1-2.55-7.11,40.45,40.45,0,0,1,2.21-8.08c1.28-3.63,2.6-7.39,2.49-11.91-.13-5.23-2.44-10.49-5.76-13.09a8.64,8.64,0,0,0-7.5-1.67.89.89,0,0,1-1-.67,8.53,8.53,0,0,0-6-6.15c-5.19-1.74-11.83-.26-16.52,3.69-8.28,7-15.8,19.64-16.77,28.28-.86,7.63,1.36,11.68,6.79,12.37a.88.88,0,0,1,.64.41.9.9,0,0,1,.08.77,15.59,15.59,0,0,1-5.25,7c1.82.46,4.6.76,6.73-.84a.89.89,0,0,1,1.29,1.17A8.28,8.28,0,0,0,895.64,273.79Z"/><path class="cls-11" d="M883.21,312.37c1.37,10.21,6,16.59,7.26,20.42.59,4.61-2.26,13.35-3.83,19s-3.33,12.67-3.33,12.67a21.27,21.27,0,0,0,7.65,4.71c2.06.88,5.5.1,7.07-4s5.11-21,5.11-21l5.39,20.51c1,3.54,4.72,6.58,10.12,5.89s16.29-3.53,27.48-8.64l-15.9-31.51,7-21.49,13.45-13S949,284.69,948,280.76s-3.64-7.95-7.17-9S922.08,268,922.08,268l-17.47.88s-10.41,2.75-13.55,3.54-6,3-8.15,6.58-15.7,27.87-15.7,27.87"/><path d="M917.1,371.57a9.43,9.43,0,0,1-9.42-6.64L903.22,348c-1.13,5.23-3.23,14.53-4.36,17.51a7.38,7.38,0,0,1-4,4.45,5.48,5.48,0,0,1-4.24.09,22,22,0,0,1-8-4.93.87.87,0,0,1-.22-.83c0-.07,1.78-7,3.34-12.68.24-.87.51-1.81.79-2.79,1.54-5.39,3.46-12.07,3-15.82a35.45,35.45,0,0,0-1.71-3.81,51.57,51.57,0,0,1-5.56-16.69.89.89,0,0,1,1.76-.24,49.89,49.89,0,0,0,5.39,16.15,37.15,37.15,0,0,1,1.83,4.11.85.85,0,0,1,0,.17c.52,4.09-1.47,11-3.07,16.61-.28,1-.54,1.92-.78,2.78-1.31,4.74-2.77,10.44-3.21,12.14a20.58,20.58,0,0,0,7,4.16l.06,0a3.78,3.78,0,0,0,2.89-.08,5.67,5.67,0,0,0,3-3.45c1.53-4,5-20.71,5.07-20.87a.87.87,0,0,1,.84-.71.85.85,0,0,1,.88.66l5.4,20.52c.83,3,4,5.89,9.14,5.23,5.5-.69,16-3.54,26.39-8.18l-15.48-30.69a.83.83,0,0,1-.05-.67l7-21.5a.84.84,0,0,1,.22-.36l13.12-12.64c-.32-2.14-1.71-11.29-2.56-14.68s-3.23-7.38-6.57-8.4-17.24-3.46-18.54-3.69l-17.29.87c-1,.27-10.51,2.78-13.46,3.52s-5.59,2.87-7.61,6.18c-2.13,3.48-15.55,27.6-15.69,27.84a.88.88,0,0,1-1.2.35.9.9,0,0,1-.35-1.21c.56-1,13.58-24.4,15.73-27.91,2.26-3.7,5.27-6.12,8.69-7,3.1-.78,13.43-3.5,13.53-3.53l.18,0,17.48-.88a.61.61,0,0,1,.19,0c.63.11,15.31,2.67,18.86,3.75,4,1.23,6.78,5.74,7.77,9.67s2.59,14.84,2.66,15.3a.89.89,0,0,1-.26.77L938,309.42l-6.79,20.94,15.74,31.19a.87.87,0,0,1-.42,1.2c-10.88,5-21.78,7.95-27.74,8.71A13.74,13.74,0,0,1,917.1,371.57Z"/><path class="cls-5" d="M809.62,259.92S799,267.38,803.79,277l36.39,2.75c1.9-4.06,1.44-13.61-4.58-18.92Z"/><path d="M840.18,280.63h-.07l-36.39-2.75a.87.87,0,0,1-.72-.49c-5.06-10.18,6-18.12,6.11-18.2a.91.91,0,0,1,.54-.16l26,.92a.87.87,0,0,1,.55.22c6.2,5.46,7,15.3,4.8,19.95A.88.88,0,0,1,840.18,280.63Zm-35.81-4.48,35.23,2.67c1.36-3.76,1-12.13-4.36-17.11l-25.34-.9a20.32,20.32,0,0,0-4.28,4.58C803.21,269,802.79,272.63,804.37,276.15Z"/><path class="cls-9" d="M756.87,272.81c-1.25-6.52-4.42-11.29-7.66-13.06s-11.58-6.08-11.58-6.08a68.79,68.79,0,0,1-1.47-6.78l-4.63-1.41c.23,4.17.6,7,.6,7a45.33,45.33,0,0,1-4.81,9.33L720,249a66.53,66.53,0,0,1-8.86-3.77c-1.86-1-2.82-1.63-2.82-1.63l-5.4,8.64a67.68,67.68,0,0,0-12,3.27c-4.58,2-7.46,6.67-11.39,11.65s-19.24,27.48-19.24,27.48l16.88,9.56,16-19.11-.39,47.51.39,6.28c26.7,3.54,54.84.92,54.84.92l-.24,5.58c1.56,5.86,1.93,14.51,1.89,22a62.84,62.84,0,0,0,15.07-1.49l.69-.16C764,332.3,758,278.64,756.87,272.81Z"/><path d="M751.36,368.26c-.61,0-1.23,0-1.84,0a.88.88,0,0,1-.85-.89c.05-9.47-.59-17-1.86-21.76a.63.63,0,0,1,0-.27l.19-4.57c-5.28.42-30.36,2.12-54-1a.88.88,0,0,1-.77-.82l-.4-6.28v-.07l.38-45-14.39,17.22a.89.89,0,0,1-1.11.2l-16.89-9.56a.85.85,0,0,1-.42-.57.87.87,0,0,1,.13-.7c.62-.92,15.37-22.59,19.27-27.53.72-.91,1.4-1.81,2.06-2.68,3.07-4.05,5.72-7.54,9.68-9.24a67.46,67.46,0,0,1,11.84-3.26l5.2-8.3a.85.85,0,0,1,.56-.4.89.89,0,0,1,.68.13,29.73,29.73,0,0,0,2.74,1.58,64.53,64.53,0,0,0,8.74,3.72.9.9,0,0,1,.48.4l6.64,11.59a42.18,42.18,0,0,0,3.86-7.71c-.09-.74-.39-3.35-.59-6.87a.88.88,0,0,1,.34-.75.89.89,0,0,1,.8-.15l4.63,1.42a.87.87,0,0,1,.62.7s.55,3.34,1.35,6.31c1.61.83,8.42,4.37,11.26,5.92,3.78,2.06,6.88,7.3,8.1,13.66,1.15,6,7.16,60,8.46,93a.89.89,0,0,1-.67.89l-.72.17A65,65,0,0,1,751.36,368.26Zm-.92-1.78a63.57,63.57,0,0,0,14-1.5c-1.35-33-7.26-86.06-8.4-92h0c-1.1-5.77-3.93-10.66-7.21-12.45s-11.49-6-11.57-6.08a.85.85,0,0,1-.44-.54c-.7-2.47-1.21-5.19-1.41-6.33l-2.88-.88c.23,3.39.52,5.65.52,5.68a.91.91,0,0,1,0,.4,45.4,45.4,0,0,1-4.92,9.54.87.87,0,0,1-.77.38.89.89,0,0,1-.73-.44l-7.2-12.58a65.48,65.48,0,0,1-8.66-3.71c-.93-.49-1.65-.9-2.13-1.19l-4.93,7.89a.91.91,0,0,1-.6.4,67.75,67.75,0,0,0-11.85,3.21c-3.52,1.51-6,4.84-9,8.68-.67.88-1.35,1.79-2.08,2.71-3.44,4.36-15.9,22.59-18.66,26.64L676.89,303l15.49-18.54a.89.89,0,0,1,1.57.58l-.4,47.48.35,5.52c26.08,3.34,53.64.84,53.92.82a.85.85,0,0,1,.69.24.86.86,0,0,1,.28.68l-.24,5.44C749.82,350.08,750.45,357.22,750.44,366.48Z"/><path class="cls-1" d="M693.06,338.84l.52,5.89a272.12,272.12,0,0,0,31.81,2.09H726c3.18,0,6,0,8.45-.13a85.65,85.65,0,0,0,13.17-1.36l.24-5.58S719.76,342.38,693.06,338.84Z"/><path d="M727.68,347.72h-2.3a273.82,273.82,0,0,1-31.9-2.1.89.89,0,0,1-.78-.8l-.52-5.89a.89.89,0,0,1,.27-.72.92.92,0,0,1,.73-.24c26.29,3.49,54.36.94,54.64.92a.85.85,0,0,1,.69.24.86.86,0,0,1,.28.68l-.24,5.58a.9.9,0,0,1-.71.83,85.94,85.94,0,0,1-13.32,1.37C732.34,347.67,730.05,347.72,727.68,347.72Zm-33.28-3.78a271.87,271.87,0,0,0,31,2h.65c2.92,0,5.75,0,8.4-.13a90.61,90.61,0,0,0,12.36-1.21l.16-3.87c-5.2.41-29.59,2.07-52.93-.87Z"/><path class="cls-9" d="M660.21,294.6c-3.14,4.85-4.19,12.44.78,18.2S678.4,332,684.82,338.32l.57-.46c1.77-1.45,7.27-6.12,10.42-10.8,0,0-11.52-13.87-18.72-22.9l16-19.11"/><path d="M684.82,339.21a.87.87,0,0,1-.62-.26c-6.61-6.47-19-20-23.88-25.57-5.26-6.1-4.22-14.07-.85-19.26a.88.88,0,1,1,1.48,1c-3,4.63-4,11.73.71,17.13s16.52,18.28,23.21,24.91a60.42,60.42,0,0,0,9.83-10c-2.16-2.6-12-14.45-18.3-22.4a.89.89,0,0,1,0-1.12l16-19.11a.89.89,0,0,1,1.36,1.14l-15.5,18.55c7.13,8.93,18.14,22.19,18.25,22.33a.89.89,0,0,1,0,1.06c-3.24,4.8-8.93,9.62-10.59,11l-.59.48A.91.91,0,0,1,684.82,339.21Z"/><path d="M712.69,262.47a.57.57,0,0,1-.44-.2c-3.67-4.18-7.71-8-7.75-8a.59.59,0,0,1,.81-.86s3.75,3.52,7.31,7.51a104.8,104.8,0,0,0,5.63-9.88.59.59,0,0,1,1.06.5,110.87,110.87,0,0,1-6.12,10.67.57.57,0,0,1-.45.27Z"/><path class="cls-1" d="M731.53,245.48c-.14-2.39-.23-5.22-.18-8.21l-10.41,2.1-9.49-1.11a64.45,64.45,0,0,1-.35,6.93A66.53,66.53,0,0,0,720,249l7.36,12.86a45.33,45.33,0,0,0,4.81-9.33S731.76,249.65,731.53,245.48Z"/><path d="M727.32,262.7h0a.89.89,0,0,1-.73-.44l-7.2-12.58a65.48,65.48,0,0,1-8.66-3.71.89.89,0,0,1-.47-.88,64.74,64.74,0,0,0,.35-6.82.85.85,0,0,1,.29-.67.88.88,0,0,1,.69-.22l9.35,1.09,10.27-2.06a.86.86,0,0,1,.74.18.88.88,0,0,1,.32.7c0,2.58,0,5.32.18,8.14.23,4.09.6,6.92.6,6.95a.91.91,0,0,1,0,.4,45.4,45.4,0,0,1-4.92,9.54A.88.88,0,0,1,727.32,262.7Zm-15.27-18a66.45,66.45,0,0,0,8.2,3.44.9.9,0,0,1,.48.4l6.64,11.59a42.18,42.18,0,0,0,3.86-7.71c-.09-.74-.39-3.35-.59-6.87h0c-.14-2.47-.2-4.87-.19-7.17l-9.34,1.88a.82.82,0,0,1-.27,0l-8.51-1C712.32,240.43,712.26,242.5,712.05,244.68Z"/><path d="M732.13,253.38a.85.85,0,0,1-.35-.08.87.87,0,0,1-.46-1.16c.69-1.61,1.4-3.79,1.41-3.82a.88.88,0,1,1,1.68.55c0,.09-.74,2.28-1.47,4A.88.88,0,0,1,732.13,253.38Z"/><path d="M738.69,259.28a.53.53,0,0,1-.34-.11l-5.19-3.7a.59.59,0,1,1,.69-1l3.85,2.75-.89-3.29a.59.59,0,0,1,.42-.72.58.58,0,0,1,.72.41l1.31,4.88a.6.6,0,0,1-.23.64A.59.59,0,0,1,738.69,259.28Z"/><path d="M747.9,340.64a.84.84,0,0,1-.6-.24.88.88,0,0,1,0-1.25c2.22-2.36,4.22-4.89,4.34-9.88.11-4.71-.79-34.41-4.83-56.36a.89.89,0,1,1,1.74-.33c4.07,22.09,5,52,4.86,56.73-.13,5.62-2.46,8.54-4.82,11.06A.91.91,0,0,1,747.9,340.64Z"/><path d="M729.71,333.54h0a.58.58,0,0,1-.58-.6,448.57,448.57,0,0,0-2.88-60.25.59.59,0,0,1,.51-.66.6.6,0,0,1,.67.51A451.14,451.14,0,0,1,730.3,333,.59.59,0,0,1,729.71,333.54Z"/><ellipse class="cls-12" cx="729.38" cy="269.54" rx="1.18" ry="1.51"/><ellipse class="cls-12" cx="732.52" cy="293.62" rx="1.18" ry="1.51"/><ellipse class="cls-12" cx="733.44" cy="321.44" rx="1.18" ry="1.51"/><path class="cls-1" d="M743.6,340.08c-.87.06-1.86.12-3,.17,0,1,.08,3.51,0,6.05,1.12-.11,2.11-.21,3-.32C743.67,344.74,743.74,342.35,743.6,340.08Z"/><path d="M740.66,347.18a.89.89,0,0,1-.88-.91c.07-2.52,0-5,0-6a.88.88,0,0,1,.83-.91l2.94-.17a.89.89,0,0,1,.94.83c.14,2.31.08,4.74,0,6a.9.9,0,0,1-.78.85c-.94.12-1.94.22-3,.32Zm.9-6.09c0,1,0,2.59,0,4.23l1.2-.13c0-1.09.05-2.62,0-4.17Z"/><path class="cls-1" d="M764.66,382.56a41.53,41.53,0,0,0,0-16.72,62.84,62.84,0,0,1-15.07,1.49c0,8.34-.6,15.23-.6,15.23"/><path d="M764.66,383.44a.62.62,0,0,1-.19,0,.88.88,0,0,1-.68-1.05,40.37,40.37,0,0,0,.14-15.48,63,63,0,0,1-13.5,1.36c-.08,7.86-.59,14.31-.6,14.38a.88.88,0,0,1-1.76-.14c0-.07.55-7,.6-15.16a.87.87,0,0,1,.92-.88A61.92,61.92,0,0,0,764.42,365a.9.9,0,0,1,.68.12.92.92,0,0,1,.38.56,42.23,42.23,0,0,1,0,17.1A.88.88,0,0,1,764.66,383.44Z"/><path class="cls-1" d="M749,382.56s.56-6.89.6-15.23c0-7.48-.33-16.13-1.89-22-1.61.34-8.56,1.6-21.62,1.49a274.23,274.23,0,0,1-32.46-2.1s-2.88,15.32-1.7,37.83"/><path d="M749,383.44h-.07a.88.88,0,0,1-.81-.95c0-.07.55-7,.6-15.16.05-8.95-.53-16.17-1.66-21-2.68.48-9.46,1.44-21,1.34a271.36,271.36,0,0,1-31.72-2,182.24,182.24,0,0,0-1.55,36.8.89.89,0,0,1-1.77.1c-1.17-22.36,1.69-37.89,1.71-38a.9.9,0,0,1,1-.72,271.78,271.78,0,0,0,32.36,2.09c12.84.12,19.65-1.1,21.43-1.47a.89.89,0,0,1,1,.64c1.33,5,2,12.47,1.92,22.23-.05,8.27-.6,15.22-.61,15.29A.88.88,0,0,1,749,383.44Z"/><path d="M755.82,383.15a.58.58,0,0,1-.28-.07.59.59,0,0,1-.24-.8,16.53,16.53,0,0,0,.83-2c-4-4.05-.84-9.13-.81-9.18a.59.59,0,0,1,1,.62c-.11.19-2.76,4.55.89,8a.61.61,0,0,1,.16.61,21.11,21.11,0,0,1-1,2.59A.58.58,0,0,1,755.82,383.15Z"/><path d="M760.86,383.15a.64.64,0,0,1-.3-.08.6.6,0,0,1-.21-.81,31.27,31.27,0,0,0,1.66-3.58.59.59,0,1,1,1.1.43,31,31,0,0,1-1.74,3.75A.59.59,0,0,1,760.86,383.15Z"/><path d="M726.11,378.44h0a.6.6,0,0,1-.55-.63,223.43,223.43,0,0,0,.2-23,.58.58,0,0,1,.56-.62.59.59,0,0,1,.62.56,226.12,226.12,0,0,1-.2,23.17A.59.59,0,0,1,726.11,378.44Z"/><path d="M732.39,378.44h0a.6.6,0,0,1-.55-.63,220.16,220.16,0,0,0,.2-23,.59.59,0,1,1,1.18-.06,226.12,226.12,0,0,1-.2,23.17A.59.59,0,0,1,732.39,378.44Z"/><path d="M678.21,331.91a.6.6,0,0,1-.52-.3.59.59,0,0,1,.22-.8,41.62,41.62,0,0,0,10.05-8.9.59.59,0,1,1,.91.75,41.86,41.86,0,0,1-10.37,9.17A.6.6,0,0,1,678.21,331.91Z"/><path d="M668.45,304.27a15.42,15.42,0,0,1-4.9-.73.6.6,0,0,1-.37-.75.59.59,0,0,1,.75-.37c4,1.37,9,.19,9,.18a.6.6,0,0,1,.72.44.59.59,0,0,1-.44.71A22.6,22.6,0,0,1,668.45,304.27Z"/><path d="M693.06,285.93a.88.88,0,0,1-.69-1.43c1.28-1.6,2-2.58,2-2.59a.88.88,0,0,1,1.42,1c0,.05-.74,1-2,2.65A.87.87,0,0,1,693.06,285.93Z"/><path d="M694.63,277.52a.58.58,0,0,1-.58-.51,25.4,25.4,0,0,0-4-10.27.59.59,0,0,1,.13-.82.6.6,0,0,1,.83.13,26,26,0,0,1,4.23,10.81.59.59,0,0,1-.52.66Z"/><path d="M751.94,358h-.31a.59.59,0,0,1-.59-.59.6.6,0,0,1,.59-.59h.22a63.44,63.44,0,0,0,10.92-.9A.59.59,0,0,1,763,357,63.8,63.8,0,0,1,751.94,358Z"/><path class="cls-1" d="M732.33,211.23c-3.41,3.92-9.88,3.66-9.88,3.66a17.85,17.85,0,0,0,5.82-6.74c-7.85,7.79-20.48,5.83-20.48,5.83a32.74,32.74,0,0,1-6.22,4.32s-.13,13.35,4.71,18.58,10.34,8.64,14.66,8.64,9.82-3.4,14.66-8.64,4.71-18.58,4.71-18.58C736.58,216.4,732.33,211.23,732.33,211.23Z"/><path d="M720.94,246.41c-4.42,0-10.14-3.34-15.31-8.93-5-5.43-5-18.63-5-19.19a.89.89,0,0,1,.49-.78,32.17,32.17,0,0,0,6-4.19.89.89,0,0,1,.73-.22c.12,0,12.29,1.8,19.73-5.58a.88.88,0,0,1,1.42,1,19,19,0,0,1-3.83,5.27,10.77,10.77,0,0,0,6.42-3.14,1,1,0,0,1,.68-.31.87.87,0,0,1,.67.33c0,.05,4.18,5.05,7.7,6.84a.89.89,0,0,1,.49.78c0,.56.07,13.76-5,19.19C731.08,243.07,725.36,246.41,720.94,246.41Zm-18.48-27.59c0,2.48.45,13.11,4.47,17.46,4.84,5.23,10.08,8.35,14,8.35s9.17-3.12,14-8.35c4-4.35,4.43-15,4.47-17.46a32.68,32.68,0,0,1-7.13-6.28c-3.74,3.44-9.62,3.25-9.88,3.24a.88.88,0,0,1-.44-1.63,14,14,0,0,0,2.47-2.07c-6.77,3.68-14.47,3.06-16.37,2.83A33.3,33.3,0,0,1,702.46,218.82Z"/><path class="cls-1" d="M697.64,225.1c.64,4.19,3.24,8,5.9,6.79a43.84,43.84,0,0,1-1.9-11.2C699.78,218.94,697,221,697.64,225.1Z"/><path d="M702.53,233a3.51,3.51,0,0,1-1.69-.45c-1.93-1.05-3.57-4-4.07-7.32h0c-.4-2.6.43-4.84,2.1-5.72a2.83,2.83,0,0,1,3.37.54.85.85,0,0,1,.28.59,43.45,43.45,0,0,0,1.86,11,.89.89,0,0,1-.47,1.1A3.4,3.4,0,0,1,702.53,233ZM700.19,221a1.16,1.16,0,0,0-.5.13c-.79.41-1.49,1.81-1.17,3.89h0c.42,2.76,1.72,5.24,3.16,6a1.77,1.77,0,0,0,.72.23,45.69,45.69,0,0,1-1.63-10.09A1.07,1.07,0,0,0,700.19,221Z"/><path class="cls-1" d="M740.24,220.69a43.84,43.84,0,0,1-1.9,11.2c2.66,1.2,5.26-2.6,5.9-6.79S742.1,218.94,740.24,220.69Z"/><path d="M739.35,233a3.4,3.4,0,0,1-1.38-.3.9.9,0,0,1-.47-1.1,43,43,0,0,0,1.86-11,.85.85,0,0,1,.28-.59,2.83,2.83,0,0,1,3.37-.54c1.67.88,2.5,3.12,2.1,5.72-.5,3.33-2.14,6.27-4.07,7.32A3.51,3.51,0,0,1,739.35,233Zm1.76-11.87a45.69,45.69,0,0,1-1.63,10.09,1.77,1.77,0,0,0,.72-.23c1.44-.78,2.74-3.26,3.16-6,.32-2.08-.38-3.48-1.17-3.89A1,1,0,0,0,741.11,221.13Z"/><path class="cls-5" d="M744.63,203.31c-1.37-6.54-6.35-10.21-10.6-9.42-.66-1.9-2.23-5.44-9.62-6.35s-18.19,3.47-23.76,12.17-2.81,18.13.92,22.45l.16,0c-.18-2.29-.16-3.88-.16-3.88a32.74,32.74,0,0,0,6.22-4.32s12.63,2,20.48-5.83a17.85,17.85,0,0,1-5.82,6.74s6.47.26,9.88-3.66c0,0,4.25,5.17,8,7.07,0,0,0,1.56-.16,3.83l0,0C743.78,216.59,746,209.85,744.63,203.31Z"/><path d="M701.73,223.07h-.13l-.17,0a.88.88,0,0,1-.53-.29,20.09,20.09,0,0,1-1-23.51c5.79-9.06,17.06-13.5,24.61-12.57,6.8.84,9.08,3.82,10.09,6.26,4.35-.34,9.42,3.22,10.89,10.21,1.28,6.08-.35,13-4.58,19.45l-.06.08a.89.89,0,0,1-1.59-.6c.11-1.44.14-2.61.15-3.24a32.68,32.68,0,0,1-7.13-6.28c-3.74,3.44-9.62,3.25-9.88,3.24a.88.88,0,0,1-.44-1.63,13.61,13.61,0,0,0,2.46-2.07c-6.76,3.68-14.46,3.06-16.36,2.83a32.7,32.7,0,0,1-5.61,3.91c0,.64,0,1.83.15,3.29a.85.85,0,0,1-.28.72A.89.89,0,0,1,701.73,223.07ZM722.4,188.3c-6.89,0-16.06,4.15-21,11.89a18.71,18.71,0,0,0-.7,19.13c0-.63,0-1,0-1a.89.89,0,0,1,.49-.78,32.17,32.17,0,0,0,6-4.19.89.89,0,0,1,.73-.22c.12,0,12.29,1.8,19.73-5.58a.88.88,0,0,1,1.42,1,19,19,0,0,1-3.83,5.27,10.77,10.77,0,0,0,6.42-3.14,1,1,0,0,1,.68-.31.87.87,0,0,1,.67.33c0,.05,4.18,5.05,7.7,6.84a.89.89,0,0,1,.49.78v.31c2.64-5.14,3.55-10.41,2.56-15.11h0c-1-4.86-5-9.58-9.57-8.73a.89.89,0,0,1-1-.59c-.5-1.45-1.68-4.86-8.89-5.75A14.57,14.57,0,0,0,722.4,188.3Z"/><path class="cls-1" d="M705.23,206.52a.68.68,0,0,1-.23-.05.58.58,0,0,1-.31-.77,23.51,23.51,0,0,1,9.42-10.7.59.59,0,0,1,.57,1,22.67,22.67,0,0,0-8.9,10.12A.61.61,0,0,1,705.23,206.52Z"/><ellipse cx="712.56" cy="220.26" rx="1.51" ry="1.77"/><ellipse cx="729.32" cy="220.26" rx="1.51" ry="1.77"/><path d="M722.08,230.27H719.8a.59.59,0,0,1-.59-.59.6.6,0,0,1,.59-.59h2.28a.6.6,0,0,1,.59.59A.59.59,0,0,1,722.08,230.27Z"/><path d="M720.94,236c-2.36,0-5.08-.79-5.71-2.29a.59.59,0,1,1,1.08-.46c.32.76,2.26,1.57,4.63,1.57s4.31-.81,4.63-1.57a.59.59,0,1,1,1.08.46C726,235.24,723.3,236,720.94,236Z"/><path d="M720.94,239.3a5.33,5.33,0,0,1-3.4-1.06.59.59,0,0,1,.78-.89,4.19,4.19,0,0,0,2.62.77,4.27,4.27,0,0,0,2.63-.77.59.59,0,0,1,.77.89A5.33,5.33,0,0,1,720.94,239.3Z"/><path class="cls-1" d="M718.91,337.53A79.07,79.07,0,0,0,707,330.2c-2.81-1.3-11.19-3.14-11.19-3.14-3.15,4.68-8.65,9.35-10.42,10.8a7.64,7.64,0,0,0,7,7.85s1.37,7.4,1.89,10.28,4,2.16,3.67-.92-1.37-11.65-1.37-11.65,4.84,6.22,7.19,10.15,5.7,1.5,3.6-2.29-6.48-12-6.48-12,8.84,6.94,11.2,9.49,5.17-.72,2.68-3.21-7.79-8.18-10.47-10.53c0,0,8.37,2.81,11.91,5.23S721.2,339.5,718.91,337.53Z"/><path d="M696.1,358.69a2.77,2.77,0,0,1-2.67-2.54c-.43-2.36-1.43-7.76-1.77-9.63a8.58,8.58,0,0,1-7.16-8.68.92.92,0,0,1,.33-.67c1.62-1.32,7.14-6,10.25-10.6a.88.88,0,0,1,.92-.37c.35.07,8.5,1.87,11.37,3.2a79.25,79.25,0,0,1,12.12,7.46h0c1.45,1.25,1.85,3.09.93,4.29-.72.93-2.38,1.45-4.69-.14a44.83,44.83,0,0,0-7.75-3.68c1.45,1.45,3,3.08,4.41,4.52,1.18,1.22,2.24,2.32,3,3.11a3.67,3.67,0,0,1,1.12,3.58,2.81,2.81,0,0,1-2,2,3.18,3.18,0,0,1-3.07-1.14c-1.35-1.46-5-4.47-7.7-6.69,1.43,2.65,3.27,6.07,4.42,8.15,1.37,2.48.75,4.54-.56,5.29s-3.11.32-4.58-2.12c-1.35-2.25-3.56-5.31-5.16-7.46.33,2.77.79,6.59,1,8.42.23,2.16-1,3.49-2.4,3.69Zm-9.82-20.42a6.75,6.75,0,0,0,6.19,6.56.9.9,0,0,1,.81.72s1.37,7.4,1.9,10.28c.13.74.52,1.16,1,1.08s1-.65.89-1.74c-.32-3-1.36-11.55-1.37-11.64a.88.88,0,0,1,1.57-.65c.2.26,4.91,6.3,7.26,10.23.81,1.34,1.71,1.77,2.18,1.5s.74-1.35-.11-2.9c-2.07-3.76-6.44-11.91-6.49-12a.89.89,0,0,1,1.33-1.12c.36.29,8.92,7,11.3,9.59a1.5,1.5,0,0,0,1.35.62,1,1,0,0,0,.71-.75,1.92,1.92,0,0,0-.66-1.85c-.79-.79-1.86-1.9-3-3.13-2.49-2.57-5.58-5.78-7.39-7.37a.89.89,0,0,1-.18-1.1.88.88,0,0,1,1.05-.4c.35.11,8.53,2.88,12.13,5.34,1.2.83,2,.85,2.28.52s.15-1.15-.67-1.86a78.51,78.51,0,0,0-11.71-7.2c-2.28-1.06-8.5-2.51-10.43-2.95A61.57,61.57,0,0,1,686.28,338.27Z"/><path class="cls-1" d="M734.49,346.7c-2.46.1-5.27.15-8.45.13h-.65v-6.13h-2.9c0,1.44-.1,4.66-.11,6.08V347c0,1.64,1.37,2.23,3,2.23,2.23,0,6.94-.39,8.25-.59S734.49,346.7,734.49,346.7Z"/><path d="M725.39,349.84c-2.25,0-3.6-1-3.6-2.82v-.25c0-1.45.08-4.75.11-6.1a.59.59,0,0,1,.59-.57h2.9a.58.58,0,0,1,.59.59v5.55h.07c2.93,0,5.76,0,8.41-.13a.58.58,0,0,1,.6.44,2.77,2.77,0,0,1-.22,2,1.57,1.57,0,0,1-1.12.68C732.45,349.43,727.69,349.84,725.39,349.84Zm-2.32-8.56c0,1.55-.09,4.23-.1,5.5V347c0,1.09.81,1.64,2.42,1.64,2.25,0,6.91-.4,8.16-.58a.44.44,0,0,0,.31-.17,1.13,1.13,0,0,0,.11-.6c-2.52.1-5.18.13-7.93.11h-.66a.59.59,0,0,1-.58-.59v-5.54Z"/><ellipse class="cls-1" cx="725.98" cy="343.56" rx="1.37" ry="0.92"/><path d="M726,345.06c-1.1,0-2-.66-2-1.5s.87-1.51,2-1.51,2,.66,2,1.51S727.08,345.06,726,345.06Zm0-1.83c-.51,0-.78.24-.78.33s.27.32.78.32.78-.24.78-.32S726.49,343.23,726,343.23Z"/><path d="M660.21,295.49a.91.91,0,0,1-.5-.15.9.9,0,0,1-.23-1.24c.62-.92,15.37-22.59,19.27-27.53a.9.9,0,0,1,1.25-.15.89.89,0,0,1,.14,1.25c-3.86,4.89-19,27.21-19.2,27.43A.89.89,0,0,1,660.21,295.49Z"/><path class="cls-1" d="M861.91,382.56a29.22,29.22,0,0,0-.79-7.07,38.31,38.31,0,0,1-10.65,1.57,43.73,43.73,0,0,1-.08,5.5"/><path d="M850.39,383.44h-.08a.89.89,0,0,1-.81-.95,41.53,41.53,0,0,0,.08-5.39.92.92,0,0,1,.24-.65.91.91,0,0,1,.64-.27,37.68,37.68,0,0,0,10.4-1.53.84.84,0,0,1,.69.07.87.87,0,0,1,.43.56,29.91,29.91,0,0,1,.81,7.31.89.89,0,0,1-1.77-.06,27,27,0,0,0-.56-5.92,39.52,39.52,0,0,1-9.08,1.32,42.42,42.42,0,0,1-.11,4.7A.88.88,0,0,1,850.39,383.44Z"/><path class="cls-1" d="M850.39,382.56a43.73,43.73,0,0,0,.08-5.5c-.52-11.26-4.92-23.12-8.07-29.19l-.13-5.62s-6.15,2.22-19,2.22S803,342.38,803,342.38v5.76s-10.48,12.3-10.48,34.42"/><path d="M850.39,383.44h-.08a.89.89,0,0,1-.81-.95,41.53,41.53,0,0,0,.08-5.39c-.54-11.66-5.26-23.6-8-28.82a.87.87,0,0,1-.1-.39l-.11-4.46c-2.35.64-8.29,1.93-18.18,1.93a88.87,88.87,0,0,1-19.34-1.85v4.63a.86.86,0,0,1-.21.57,40,40,0,0,0-5.13,8.78,61.57,61.57,0,0,0-5.13,25.07.89.89,0,0,1-1.77,0c0-20.72,8.93-32.81,10.47-34.74v-5.44a.9.9,0,0,1,.35-.71.87.87,0,0,1,.78-.14c.07,0,7.39,2.06,20,2.06s18.68-2.15,18.74-2.18a.91.91,0,0,1,.8.11.88.88,0,0,1,.39.71l.12,5.42c2.79,5.44,7.52,17.53,8.07,29.37a45,45,0,0,1-.08,5.61A.88.88,0,0,1,850.39,383.44Z"/><path class="cls-6" d="M864.39,349.45c-1.83-8.77-6.15-22.12-8.11-31.55s-3.27-24.21-3.93-28a12.64,12.64,0,0,0-7.2-9.16l-14-6.55A35.11,35.11,0,0,1,827.22,287a155.65,155.65,0,0,0-13.22-13s-12.43,2.62-15.84,3.8A14.2,14.2,0,0,0,789,287.4l-4.32,14.21,11.26,26L803,342.38s7.33,2.09,20.22,2.09,19-2.22,19-2.22l.13,5.62c3.15,6.07,7.55,17.93,8.07,29.19a38.31,38.31,0,0,0,10.65-1.57l-1.31-10.34S866.22,358.21,864.39,349.45Z"/><path d="M850.47,378a.88.88,0,0,1-.89-.85c-.54-11.66-5.26-23.6-8-28.82a.87.87,0,0,1-.1-.39l-.11-4.46c-2.35.64-8.29,1.93-18.18,1.93-12.87,0-20.16-2-20.47-2.13a.89.89,0,0,1-.55-.47L795.14,328l-11.27-26a.91.91,0,0,1,0-.61l4.32-14.2A15.16,15.16,0,0,1,797.87,277c3.42-1.18,15.44-3.72,16-3.82a.87.87,0,0,1,.76.19A161.35,161.35,0,0,1,827,285.46a33.67,33.67,0,0,0,3.24-11.34.92.92,0,0,1,.44-.7.88.88,0,0,1,.82,0l14,6.55a13.43,13.43,0,0,1,7.69,9.81c.22,1.28.51,3.73.87,6.83.74,6.28,1.75,14.88,3,21.15,1,4.78,2.62,10.64,4.19,16.31s3,10.91,3.93,15.23h0c1.7,8.15-3.25,14.67-4.52,16.17l1.26,9.95a.9.9,0,0,1-.62,1,39.54,39.54,0,0,1-10.9,1.61Zm-7.19-30.3c2.72,5.3,7.29,17,8,28.51a37.94,37.94,0,0,0,8.85-1.3l-1.22-9.6a.88.88,0,0,1,.23-.71c.06-.07,6.08-6.72,4.37-14.92-.9-4.27-2.36-9.55-3.9-15.13s-3.21-11.58-4.22-16.42c-1.32-6.34-2.34-15-3.07-21.31-.37-3.07-.65-5.5-.86-6.73a11.71,11.71,0,0,0-6.7-8.51l-12.88-6A36,36,0,0,1,828,287.45a.87.87,0,0,1-.68.44.89.89,0,0,1-.75-.29A152.85,152.85,0,0,0,813.75,275c-2.21.47-12.34,2.65-15.3,3.68a13.22,13.22,0,0,0-8.6,9l-4.23,13.88,11.13,25.68,6.88,14.39a84.83,84.83,0,0,0,19.6,2c12.54,0,18.68-2.15,18.74-2.18a.91.91,0,0,1,.8.11.88.88,0,0,1,.39.71Z"/><path class="cls-1" d="M827.22,287a35.11,35.11,0,0,0,3.93-12.83s-.13-5.75.13-10.47l-16.49-.39a75.56,75.56,0,0,1-.79,10.73A155.65,155.65,0,0,1,827.22,287Z"/><path d="M827.22,287.9a.89.89,0,0,1-.66-.3,152.7,152.7,0,0,0-13.14-12.87.9.9,0,0,1-.29-.83,75.94,75.94,0,0,0,.77-10.58.87.87,0,0,1,.27-.63.81.81,0,0,1,.64-.25l16.49.39a.87.87,0,0,1,.86.93c-.25,4.63-.13,10.35-.13,10.4v.09a35.6,35.6,0,0,1-4,13.2.87.87,0,0,1-.68.44ZM815,273.71A162.21,162.21,0,0,1,827,285.46a33.7,33.7,0,0,0,3.24-11.3c0-.52-.1-5.31.09-9.58l-14.69-.35A74,74,0,0,1,815,273.71Z"/><path d="M813.75,292.38a5.53,5.53,0,0,1-3.59-1.17,4.53,4.53,0,0,1-1.46-4c.26-4,.65-9.25.66-9.3a.59.59,0,1,1,1.17.08c0,.06-.39,5.28-.65,9.29a3.4,3.4,0,0,0,1,3,5.19,5.19,0,0,0,4.39.71c2.76-.63,7.57-3.44,7.62-3.47a.59.59,0,0,1,.81.21.6.6,0,0,1-.21.81c-.21.12-5,2.93-8,3.6A8.27,8.27,0,0,1,813.75,292.38Z"/><path d="M839.43,292.92a4,4,0,0,1-1.89-.55c-2.86-1.55-6.4-3.65-6.43-3.67a.59.59,0,0,1-.21-.81.6.6,0,0,1,.81-.21s3.56,2.11,6.4,3.66a2,2,0,0,0,2.19.1c.74-.6.94-2,.49-3.47-.88-2.9-4.47-8.43-4.51-8.49a.59.59,0,1,1,1-.64c.15.23,3.72,5.73,4.65,8.79.6,1.95.25,3.81-.88,4.73A2.54,2.54,0,0,1,839.43,292.92Z"/><path d="M842.27,343.13a.88.88,0,0,1-.55-.19.9.9,0,0,1-.14-1.25c2.85-3.56,8-15.64,7.4-25-.64-9.19-5.14-21.88-5.19-22a.89.89,0,0,1,1.67-.6c.19.53,4.63,13,5.29,22.49.69,10-4.7,22.41-7.79,26.27A.87.87,0,0,1,842.27,343.13Z"/><rect class="cls-1" x="810.29" y="301.55" width="29.95" height="39.12" transform="translate(32.42 -73.32) rotate(5.19)"/><path d="M838.41,342.83h-.08l-29.82-2.71a.91.91,0,0,1-.61-.31.89.89,0,0,1-.2-.65l3.54-39a.9.9,0,0,1,1-.8L842,302.1a.88.88,0,0,1,.8,1l-3.54,39a.86.86,0,0,1-.31.6A.91.91,0,0,1,838.41,342.83Zm-28.86-4.4L837.61,341l3.38-37.2-28.06-2.54Z"/><path d="M810.89,340.07h0a.6.6,0,0,1-.54-.65l3.54-38.95a.59.59,0,1,1,1.18.1l-3.54,39A.59.59,0,0,1,810.89,340.07Z"/><path class="cls-6" d="M789,287.4c-2.88,6.55-9.29,27.75-10.08,32.86a15.86,15.86,0,0,0,8.9,16c6.94,3.14,15.71,6.93,19.64,7.85s9-3,9-3L827,342.38a72.85,72.85,0,0,0,1.83-16.23l-8-1.18s-2.75-5.37-8.38-5.11-11.26.66-15.44-.52l4.84-19.89"/><path d="M808.71,345.1a6.38,6.38,0,0,1-1.45-.16c-3.19-.74-9.86-3.4-19.8-7.91a16.69,16.69,0,0,1-9.41-16.91c.77-5,7.17-26.32,10.14-33.07a.9.9,0,0,1,1.17-.46.88.88,0,0,1,.45,1.17c-2.93,6.67-9.25,27.67-10,32.63a14.91,14.91,0,0,0,8.39,15c9.7,4.39,16.43,7.09,19.47,7.8,3.47.81,8.24-2.82,8.29-2.85a.85.85,0,0,1,.65-.18l9.67,1.21a72.16,72.16,0,0,0,1.64-14.49l-7.23-1.06a.89.89,0,0,1-.66-.48c-.1-.19-2.55-4.83-7.55-4.62l-1.35.06c-5.34.26-10.38.51-14.37-.62a.88.88,0,0,1-.62-1.06L801,299.24a.87.87,0,0,1,1.07-.65.89.89,0,0,1,.65,1.07l-4.64,19c3.6.8,8.17.58,13,.34l1.36-.06c5.24-.27,8.16,3.84,9,5.18l7.56,1.11a.89.89,0,0,1,.76.86,72.85,72.85,0,0,1-1.86,16.46.9.9,0,0,1-1,.67L816.73,342C815.68,342.74,812.1,345.1,808.71,345.1Z"/><path class="cls-1" d="M843,325.72c-2.11,0-4.52.15-4.52.15,3.93-2.7,2.51-4.37.69-3.88a57.11,57.11,0,0,1-6.63,1.57,6.08,6.08,0,0,0-3.76,2.59,71.73,71.73,0,0,1-1.51,14.77,30.16,30.16,0,0,0,8.76.56,4.33,4.33,0,0,0,4.17-3.09c.64-1.82,1.82-8.1,1.82-8.1C845,329.06,845.12,325.72,843,325.72Z"/><path d="M833.32,342.46a26.17,26.17,0,0,1-6.25-.68.9.9,0,0,1-.66-1,70.43,70.43,0,0,0,1.5-14.58.81.81,0,0,1,.13-.48,6.9,6.9,0,0,1,4.39-3,49.93,49.93,0,0,0,5.61-1.3l.91-.25a2.23,2.23,0,0,1,2.77,1c.25.53.37,1.47-.73,2.76.65,0,1.35,0,2,0a2.23,2.23,0,0,1,2.28,1.85,4.09,4.09,0,0,1-2.48,4.21c-.28,1.49-1.21,6.19-1.76,7.78a5.21,5.21,0,0,1-4.95,3.68C835.13,342.42,834.2,342.46,833.32,342.46Zm-5-2.22a29.37,29.37,0,0,0,7.66.35,3.43,3.43,0,0,0,3.4-2.5c.6-1.73,1.77-7.9,1.78-8a.86.86,0,0,1,.53-.65,2.54,2.54,0,0,0,1.86-2.44.47.47,0,0,0-.54-.42c-2.06,0-4.44.14-4.46.14a.88.88,0,0,1-.56-1.61c1.91-1.31,2.16-2.14,2.12-2.29a1,1,0,0,0-.7,0l-.9.24a48.78,48.78,0,0,1-5.83,1.35,5,5,0,0,0-3,2A71.46,71.46,0,0,1,828.32,340.24Z"/><path class="cls-1" d="M838.49,325.87c-1.81.1-4.27.05-4.27.05"/><path d="M835.68,326.82c-.82,0-1.42,0-1.47,0a.88.88,0,0,1-.87-.9.9.9,0,0,1,.9-.87s2.44.05,4.21,0a.91.91,0,0,1,.93.84.88.88,0,0,1-.84.93C837.61,326.8,836.53,326.82,835.68,326.82Z"/><path d="M787.69,328.7a.62.62,0,0,1-.32-.09.6.6,0,0,1-.17-.82,35.84,35.84,0,0,1,6.53-7.33.59.59,0,0,1,.83.07.6.6,0,0,1-.08.84,35.74,35.74,0,0,0-6.29,7.06A.57.57,0,0,1,787.69,328.7Z"/><path d="M817,338.63H817a.6.6,0,0,1-.51-.67l1.18-8.88a.59.59,0,0,1,.66-.51.6.6,0,0,1,.51.67l-1.18,8.88A.59.59,0,0,1,817,338.63Z"/><path d="M823.23,350.43a94.72,94.72,0,0,1-17.3-1.44.59.59,0,1,1,.22-1.16,93.54,93.54,0,0,0,17.08,1.42,76.83,76.83,0,0,0,16.16-1.48.59.59,0,1,1,.25,1.15A77.4,77.4,0,0,1,823.23,350.43Z"/><path d="M851.3,366.53a.6.6,0,0,1-.59-.59.59.59,0,0,1,.59-.59,24.88,24.88,0,0,0,5.86-.77.61.61,0,0,1,.73.41.59.59,0,0,1-.4.73A26,26,0,0,1,851.3,366.53Z"/><path class="cls-5" d="M843.12,250.36c1.64-5.43,3.93-13.35.66-21a22.36,22.36,0,0,0-41.1,0c-3.27,7.65-1,15.57.65,21s1.51,13.35-3.07,16.82a9.7,9.7,0,0,0,7.09-7.5c-2.57-5.44-2.48-15.83-2.48-15.83C808,242,815.28,240,823.23,240s15.21,2,18.36,3.83c0,0,.09,10.39-2.48,15.83a9.69,9.69,0,0,0,7.09,7.5C841.62,263.71,841.49,255.8,843.12,250.36Z"/><path d="M846.2,268.07l-.16,0a10.48,10.48,0,0,1-7.79-8.16.89.89,0,0,1,.06-.58c2.14-4.53,2.36-12.81,2.39-14.94-3.3-1.76-10.15-3.46-17.47-3.46s-14.17,1.7-17.47,3.46c0,2.13.25,10.41,2.39,14.94a1,1,0,0,1,.06.58,10.5,10.5,0,0,1-7.79,8.16.88.88,0,0,1-.7-1.57c4-3.06,4.44-10.29,2.77-15.86-1.53-5.06-4.08-13.53-.63-21.61a23.24,23.24,0,0,1,42.73,0c3.46,8.08.91,16.55-.62,21.61-1.68,5.57-1.27,12.8,2.76,15.86a.87.87,0,0,1,.28,1.06A.88.88,0,0,1,846.2,268.07Zm-41-12a17,17,0,0,1-1.7,8.5,9.18,9.18,0,0,0,2.9-4.77A22.05,22.05,0,0,1,805.21,256Zm34.84,3.73a9.18,9.18,0,0,0,2.9,4.77,16.85,16.85,0,0,1-1.71-8.5A21.19,21.19,0,0,1,840.05,259.77Zm-16.82-20.63c8,0,15.5,2,18.81,4a.89.89,0,0,1,.43.75,66.57,66.57,0,0,1-.36,6.83l.17-.56c1.54-5.14,3.88-12.91.68-20.41a21.47,21.47,0,0,0-39.47,0c-3.2,7.49-.86,15.27.69,20.41.06.19.11.37.16.56a65,65,0,0,1-.35-6.83.86.86,0,0,1,.43-.75C807.73,241.13,815.25,239.14,823.23,239.14Z"/><path class="cls-1" d="M803.33,250.36c-.22-.75-.46-1.56-.7-2.4-2.35.51-1.69,8.09,1.63,9.85A23.13,23.13,0,0,0,803.33,250.36Z"/><path d="M804.26,258.69a.86.86,0,0,1-.41-.1c-2.8-1.48-3.79-5.94-3.43-8.59.31-2.21,1.4-2.77,2-2.9a.88.88,0,0,1,1,.62c.24.84.48,1.64.7,2.39h0a24.18,24.18,0,0,1,1,7.73.91.91,0,0,1-.45.74A1,1,0,0,1,804.26,258.69Zm-2-8.86a3.86,3.86,0,0,0-.07.41,8.91,8.91,0,0,0,1.18,5.48,21.94,21.94,0,0,0-.87-5.1h0Z"/><path class="cls-1" d="M843.12,250.36c.23-.75.47-1.56.71-2.4,2.35.51,1.69,8.09-1.64,9.85A23.41,23.41,0,0,1,843.12,250.36Z"/><path d="M842.19,258.69a1,1,0,0,1-.44-.11.9.9,0,0,1-.44-.74,23.9,23.9,0,0,1,1-7.73h0c.22-.75.46-1.55.69-2.39a.89.89,0,0,1,1-.62c.63.13,1.72.69,2,2.9.36,2.65-.63,7.11-3.43,8.59A.87.87,0,0,1,842.19,258.69Zm1.78-8.07h0a21.85,21.85,0,0,0-.87,5.1,9,9,0,0,0,1.18-5.48,3.86,3.86,0,0,0-.07-.41Z"/><path class="cls-1" d="M841.59,243.85C838.44,242,831.18,240,823.23,240a48.59,48.59,0,0,0-14.4,2.15c0-9,3.08-14.06,3.08-14.06a21.94,21.94,0,0,0-7,15.74s-.09,10.39,2.48,15.83c0,.06,0,.12.07.17,2.65,5.4,10,10.87,15.81,10.87s13.15-5.47,15.8-10.87a.89.89,0,0,0,.08-.17C841.68,254.24,841.59,243.85,841.59,243.85Z"/><path d="M823.23,271.6c-6.5,0-14-6-16.6-11.36l-.09-.18c-2.62-5.57-2.56-15.78-2.55-16.22a22.72,22.72,0,0,1,7.33-16.39.88.88,0,0,1,1.34,1.13s-2.7,4.53-2.93,12.39a50.6,50.6,0,0,1,13.5-1.83c8,0,15.5,2,18.81,4a.89.89,0,0,1,.43.75c0,.44.07,10.65-2.56,16.22l-.08.18C837.19,265.62,829.73,271.6,823.23,271.6Zm-14.1-38.84a20.43,20.43,0,0,0-3.37,11.09c0,.11-.06,10.26,2.39,15.46l.07.15c2.66,5.43,9.82,10.37,15,10.37s12.34-4.94,15-10.37l.07-.16c2.14-4.53,2.36-12.8,2.39-14.93-3.3-1.76-10.15-3.46-17.47-3.46A47.76,47.76,0,0,0,809.1,243a.88.88,0,0,1-1.15-.84A34.88,34.88,0,0,1,809.13,232.76Z"/><path class="cls-1" d="M832,237.18a.6.6,0,0,1-.59-.58,14.78,14.78,0,0,0-1.38-6.5.59.59,0,0,1,1-.58,15.66,15.66,0,0,1,1.53,7.06.59.59,0,0,1-.58.6Z"/><path class="cls-1" d="M838.69,238a.59.59,0,0,1-.59-.56c-.37-8.31-5.12-12.26-5.16-12.3a.58.58,0,0,1-.09-.83.6.6,0,0,1,.83-.09c.21.18,5.2,4.3,5.6,13.17a.59.59,0,0,1-.56.61Z"/><ellipse cx="814.79" cy="247.29" rx="1.51" ry="1.77"/><ellipse cx="831.67" cy="247.29" rx="1.51" ry="1.77"/><path d="M824.35,256.12h-2.24a.58.58,0,0,1-.59-.59.59.59,0,0,1,.59-.59h2.24a.6.6,0,0,1,.59.59A.59.59,0,0,1,824.35,256.12Z"/><path d="M823.23,260.77c-3.92,0-5.18-1.29-5.54-2.37a.59.59,0,0,1,.38-.74.57.57,0,0,1,.74.37c.34,1,1.91,1.56,4.42,1.56s4.08-.55,4.41-1.56a.58.58,0,0,1,.75-.37.57.57,0,0,1,.37.74C828.4,259.48,827.15,260.77,823.23,260.77Z"/><path d="M823.23,263.58a6.08,6.08,0,0,1-3.78-1.05.59.59,0,0,1,.75-.91,6.28,6.28,0,0,0,6.06,0,.6.6,0,0,1,.83.09.58.58,0,0,1-.08.82A6.15,6.15,0,0,1,823.23,263.58Z"/><path class="cls-1" d="M893.12,234.72a.62.62,0,0,1-.26-.06.59.59,0,0,1-.27-.79A42.6,42.6,0,0,1,904.36,219a.59.59,0,0,1,.82.13.58.58,0,0,1-.13.82,42.57,42.57,0,0,0-11.4,14.41A.58.58,0,0,1,893.12,234.72Z"/><path class="cls-1" d="M934.94,239.93h-.1a.6.6,0,0,1-.48-.68c1-6.12,0-12.3-2.39-14.7a.59.59,0,0,1,.84-.84c3.14,3.15,3.61,10.36,2.71,15.73A.58.58,0,0,1,934.94,239.93Z"/><path d="M883.21,313.26a.89.89,0,0,1-.88-.75c-1-6.6.67-14.76,2.81-19.92a.88.88,0,0,1,1.16-.47.87.87,0,0,1,.47,1.15c-2,4.93-3.67,12.7-2.69,19a.89.89,0,0,1-.74,1Z"/><path d="M878.2,316h-.09l-8-1.18a.59.59,0,0,1,.18-1.17l7.95,1.18a.59.59,0,0,1-.09,1.17Z"/><path class="cls-11" d="M933.47,293.72s3.34,35.83,5.59,77.16a51.72,51.72,0,0,0,18.26-1.38S954.57,323,950.65,296"/><path d="M944.38,372a47.71,47.71,0,0,1-5.43-.28.89.89,0,0,1-.77-.83c-2.23-40.84-5.56-76.77-5.59-77.13a.88.88,0,1,1,1.76-.16c0,.35,3.32,35.88,5.56,76.43a51.73,51.73,0,0,0,16.48-1.23c-.36-6-3-47.91-6.62-72.73a.88.88,0,1,1,1.75-.26c3.89,26.72,6.66,73.14,6.69,73.6a.9.9,0,0,1-.65.91A50.12,50.12,0,0,1,944.38,372Z"/><path class="cls-1" d="M957.91,382.56a98.46,98.46,0,0,0-2.37-12.6,52.78,52.78,0,0,1-14.31,1.1,65.72,65.72,0,0,0-.6,11.5"/><path d="M940.63,383.44a.88.88,0,0,1-.88-.81,65.53,65.53,0,0,1,.6-11.68.89.89,0,0,1,.93-.77,52,52,0,0,0,14.06-1.09.89.89,0,0,1,1.06.65,99.79,99.79,0,0,1,2.39,12.73.88.88,0,0,1-1.76.18A100.69,100.69,0,0,0,954.89,371,54,54,0,0,1,942,372a61.23,61.23,0,0,0-.49,10.5.89.89,0,0,1-.82.95Z"/><path class="cls-1" d="M917,279.1l5.07-11.1-.2-8.34-18.74,1.57s1.47,7.65-.4,12.17a53.56,53.56,0,0,0-2.53,8.36,34.49,34.49,0,0,0,4.3,9.21S910.69,285.7,917,279.1Z"/><path d="M904.51,291.86h-.11a.9.9,0,0,1-.62-.37,35.89,35.89,0,0,1-4.42-9.46.9.9,0,0,1,0-.46,55.63,55.63,0,0,1,2.57-8.5c1.74-4.21.36-11.59.35-11.67a.88.88,0,0,1,.16-.7.92.92,0,0,1,.63-.35l18.75-1.57a.89.89,0,0,1,1,.87L923,268a1,1,0,0,1-.08.39l-5.07,11.1a1,1,0,0,1-.17.24c-6.28,6.56-12.5,11.88-12.57,11.94A.91.91,0,0,1,904.51,291.86Zm-3.38-10.14a34.48,34.48,0,0,0,3.56,7.92c1.82-1.6,6.67-5.93,11.58-11.05l4.92-10.77-.17-7.2L904.17,262c.33,2.26,1,7.93-.61,11.71A52.51,52.51,0,0,0,901.13,281.72ZM917,279.1h0Z"/><path class="cls-1" d="M901.76,312.47,917,279.1c-6.32,6.6-12.5,11.87-12.5,11.87a34.49,34.49,0,0,1-4.3-9.21C898.45,289.6,897.37,301.25,901.76,312.47Z"/><path d="M901.76,313.36h0a.88.88,0,0,1-.8-.56c-4.52-11.52-3.36-23.34-1.59-31.23a.88.88,0,0,1,.83-.69.89.89,0,0,1,.88.63,34.49,34.49,0,0,0,3.63,8.14c1.84-1.61,6.74-6,11.68-11.15a.89.89,0,0,1,1.45,1l-15.25,33.37A.91.91,0,0,1,901.76,313.36Zm-1.31-28.25c-1.2,6.93-1.6,16,1.41,25l12.26-26.85c-4.89,4.82-9,8.32-9,8.37a.89.89,0,0,1-1.3-.17A32.35,32.35,0,0,1,900.45,285.11Z"/><path d="M897.34,311a.58.58,0,0,1-.48-.26,57.86,57.86,0,0,1-9.43-25.12.58.58,0,0,1,.42-.61l5.7-1.68-3.39-3.22a.58.58,0,0,1,0-.88l7.06-5.8a.59.59,0,0,1,.75.92l-6.55,5.37,3.64,3.46a.6.6,0,0,1,.17.57.61.61,0,0,1-.41.43l-6.2,1.82a56.83,56.83,0,0,0,9.17,24.07.59.59,0,0,1-.15.82A.6.6,0,0,1,897.34,311Z"/><path d="M906.67,310.9a.6.6,0,0,1-.43-1A209,209,0,0,0,926.06,286l-5.67-3.59a.59.59,0,0,1-.27-.57.58.58,0,0,1,.4-.49L927,279.2l-2-7.41a.59.59,0,0,1,.41-.73.6.6,0,0,1,.73.42l2.16,7.95a.59.59,0,0,1-.38.71l-5.8,2,5.14,3.27a.58.58,0,0,1,.26.38.6.6,0,0,1-.09.45,209.16,209.16,0,0,1-20.29,24.52A.58.58,0,0,1,906.67,310.9Z"/><path d="M936.22,289.89a.58.58,0,0,1-.26-.06.58.58,0,0,1-.27-.79,29.86,29.86,0,0,1,5.92-8,.59.59,0,0,1,.8.87,29.3,29.3,0,0,0-5.66,7.68A.61.61,0,0,1,936.22,289.89Z"/><path d="M902.55,330.63c-1.52,0-2.75-1.54-2.75-3.44s1.23-3.43,2.75-3.43,2.75,1.54,2.75,3.43S904.06,330.63,902.55,330.63Zm0-5.69c-.85,0-1.57,1-1.57,2.25s.72,2.26,1.57,2.26,1.57-1,1.57-2.26S903.4,324.94,902.55,324.94Z"/><path class="cls-1" d="M929.15,244.24c2.16-2.06,5.1,1.87,3.73,6.78s-4.32,6-5.79,5Z"/><path d="M928.23,257.24a2.86,2.86,0,0,1-1.63-.48.85.85,0,0,1-.38-.89l2.06-11.78a.87.87,0,0,1,.26-.49,2.58,2.58,0,0,1,3.23-.41c1.75,1.05,3,4.24,2,8.07-1.13,4.05-3.14,5.34-4.24,5.74A3.56,3.56,0,0,1,928.23,257.24Zm-.14-1.78a1.63,1.63,0,0,0,.79-.12c1.3-.48,2.48-2.19,3.15-4.56.84-3-.14-5.45-1.17-6.07a.75.75,0,0,0-.89,0Z"/><path class="cls-1" d="M894.3,243.46s.1,9.72,2.65,13.94,9,10.31,15.51,10.31,13.06-7,15.41-12.18,3.73-21.89-5.89-30.43c0,0-6,10.11-16.59,12.86,0,0,5-4.91,6.19-10.5C911.58,227.46,901.37,238.16,894.3,243.46Z"/><path d="M912.46,268.59c-3.91,0-7.46-2-9.76-3.74a26.54,26.54,0,0,1-6.51-7c-2.64-4.38-2.77-14-2.78-14.39a.9.9,0,0,1,.36-.72c6.93-5.19,17.07-15.8,17.17-15.9a.88.88,0,0,1,1.5.79,21.91,21.91,0,0,1-4.22,8.42c8.23-3.52,12.95-11.32,13-11.41a.89.89,0,0,1,1.35-.21c10,8.93,8.43,26.34,6.11,31.46S919.6,268.59,912.46,268.59Zm-17.26-24.7c0,1.92.41,9.58,2.51,13.05,2.48,4.1,8.7,9.88,14.75,9.88s12.39-6.77,14.61-11.65c2.1-4.66,3.62-20.19-4.92-28.7-1.79,2.63-7.49,10-16.54,12.35a.89.89,0,0,1-.84-1.49,27.57,27.57,0,0,0,4.59-6.34A163.48,163.48,0,0,1,895.2,243.89Z"/><ellipse cx="903.72" cy="243.32" rx="1.51" ry="1.77"/><ellipse cx="919.89" cy="243.32" rx="1.51" ry="1.77"/><path d="M912.89,254h-2.23a.58.58,0,0,1-.59-.59.59.59,0,0,1,.59-.59h2.23a.59.59,0,0,1,.59.59A.58.58,0,0,1,912.89,254Z"/><path d="M911.77,258.61c-2.82,0-4.68-.77-5.82-2.42a.59.59,0,0,1,.14-.82.6.6,0,0,1,.83.15c.92,1.32,2.41,1.91,4.85,1.91s3.94-.59,4.86-1.91a.59.59,0,0,1,.82-.15.59.59,0,0,1,.15.82C916.45,257.84,914.6,258.61,911.77,258.61Z"/><path d="M911.77,261.91a5.49,5.49,0,0,1-3.52-1.06A.59.59,0,1,1,909,260a4.48,4.48,0,0,0,2.74.76,4.38,4.38,0,0,0,2.75-.77.59.59,0,0,1,.83.06.6.6,0,0,1-.05.83A5.5,5.5,0,0,1,911.77,261.91Z"/><path d="M922,256.61a.59.59,0,0,1-.59-.59,5.55,5.55,0,0,0-.47-2.46.6.6,0,0,1,.24-.8.59.59,0,0,1,.8.23,6.68,6.68,0,0,1,.61,3A.58.58,0,0,1,922,256.61Z"/><path d="M922.08,237.28a.61.61,0,0,1-.48-.25,4.24,4.24,0,0,0-3.15-1.91.6.6,0,0,1-.59-.6.58.58,0,0,1,.59-.58,5.41,5.41,0,0,1,4.11,2.4.6.6,0,0,1-.48.94Z"/><path class="cls-2" d="M756.28,490a33.52,33.52,0,1,1,0-67H897.54a33.52,33.52,0,1,1,0,67Z"/><path class="cls-1" d="M789.68,442.52c0-4.34,2.43-6.86,6-6.86s6,2.54,6,6.86-2.43,7-6,7S789.68,446.84,789.68,442.52Zm9.2,0c0-2.86-1.26-4.57-3.24-4.57s-3.24,1.71-3.24,4.57,1.26,4.67,3.24,4.67S798.88,445.37,798.88,442.52Z"/><path class="cls-1" d="M804.21,435.9h2.66v5.79h0l4.42-5.79h2.93l-4.07,5.25,4.79,8.09h-2.92l-3.45-6-1.75,2.25v3.75h-2.66Z"/><path class="cls-1" d="M815.26,435.9H818l1.06,6.52c.2,1.4.41,2.8.61,4.24h.07c.27-1.44.56-2.86.85-4.24l1.55-6.52h2.29l1.53,6.52c.28,1.36.55,2.8.84,4.24h.09c.2-1.44.4-2.86.6-4.24l1.06-6.52H831l-2.47,13.34h-3.31l-1.49-6.59c-.22-1-.42-2.07-.58-3.1h-.07c-.18,1-.36,2.05-.58,3.1l-1.46,6.59h-3.26Z"/><path class="cls-1" d="M835.58,435.9h3.13L843,449.24h-2.79l-.94-3.42H835l-.94,3.42h-2.7Zm-.05,7.85h3.16l-.39-1.46c-.42-1.39-.78-2.92-1.15-4.36h-.09c-.35,1.46-.74,3-1.14,4.36Z"/><path class="cls-1" d="M842.83,435.9h2.79l1.77,6.5c.41,1.47.7,2.81,1.11,4.3h.09c.44-1.49.72-2.83,1.14-4.3l1.73-6.5h2.7l-4.07,13.34H846.9Z"/><path class="cls-1" d="M855.68,435.9h8.18v2.23h-5.51v3.08H863v2.23h-4.68V447h5.71v2.23h-8.38Z"/><path class="cls-1" d="M757,473.38c-2.84-.54-4.74-3.06-4.74-6.86,0-4.34,2.44-6.86,6-6.86s6,2.54,6,6.86c0,3.64-1.72,6.09-4.37,6.77a3.41,3.41,0,0,0,3,1.43,4.88,4.88,0,0,0,1.46-.22l.49,2a5.66,5.66,0,0,1-2.25.4A5.82,5.82,0,0,1,757,473.38Zm4.46-6.86c0-2.86-1.25-4.57-3.24-4.57s-3.24,1.71-3.24,4.57,1.26,4.79,3.24,4.79S761.48,469.51,761.48,466.52Z"/><path class="cls-1" d="M765.71,469.71c0-1.85,1.17-2.94,2.5-3.78a6.29,6.29,0,0,1-.84-2.88,3.33,3.33,0,0,1,3.49-3.39,2.81,2.81,0,0,1,3.1,2.9c0,1.77-1.44,2.86-2.86,3.86a16.49,16.49,0,0,0,2.88,2.77,10.09,10.09,0,0,0,1.63-3.39H778a14.28,14.28,0,0,1-2.25,4.58,8.12,8.12,0,0,0,2.38.95l-.65,2.16a10.47,10.47,0,0,1-3.33-1.4,6.48,6.48,0,0,1-4.09,1.4C767.28,473.49,765.71,471.78,765.71,469.71Zm4.68,1.75a3.61,3.61,0,0,0,2-.67,18.83,18.83,0,0,1-3-3.12,2.57,2.57,0,0,0-1.1,1.88A2,2,0,0,0,770.39,471.46Zm-.34-6.63c1.05-.63,1.86-1.28,1.86-2.25,0-.67-.31-1.15-1-1.15s-1.36.63-1.36,1.62A4.09,4.09,0,0,0,770.05,464.83Z"/><path class="cls-1" d="M782.67,459.9h3.13l4.29,13.34H787.3l-.94-3.42H782l-.94,3.42h-2.7Zm-.06,7.85h3.17l-.39-1.46c-.42-1.39-.78-2.92-1.16-4.36h-.09c-.34,1.46-.73,3-1.13,4.36Z"/><path class="cls-1" d="M799.55,460.56h9.08l1.58,0c0,.41-.05,1.13-.05,1.65v9.33c0,.63,0,1.58.07,2.12h-2.61c0-.28,0-.59,0-.93h-8.21c-.71,0-1.73.05-2.33.11v-2.58c.63.06,1.44.11,2.25.11h8.3v-7.45h-8.08c-.76,0-1.73,0-2.23.07v-2.5C798,460.53,798.94,460.56,799.55,460.56Z"/><path class="cls-1" d="M827,471.83l-1,2.25a64.81,64.81,0,0,0-11-2.68l.9-2.27A78.64,78.64,0,0,1,827,471.83Zm-.76-5.65-.88,2.25a62.63,62.63,0,0,0-9.36-2.27l.82-2.18A75.89,75.89,0,0,1,826.23,466.18Zm1.23-4.91-.92,2.25a60.69,60.69,0,0,0-9.74-2.25l.84-2.13A65.13,65.13,0,0,1,827.46,461.27Z"/><path class="cls-1" d="M844,465.41c-.15,1.06-.61,4.16-.89,5.87h1.16a17.27,17.27,0,0,0,1.76-.08v2.33c-.36,0-1.24-.06-1.73-.06h-9.47c-.65,0-1.1,0-1.78.06v-2.34c.49.05,1.15.09,1.78.09h5.84c.25-1.53.64-4.09.7-5.1h-4.86c-.58,0-1.28.05-1.8.09v-2.38a17.18,17.18,0,0,0,1.78.11h4.61a4,4,0,0,0,1.33-.2l1.75.85A4.33,4.33,0,0,0,844,465.41Z"/><path class="cls-1" d="M852.31,469.93h10.33a19,19,0,0,0,2-.11v2.75c-.63-.07-1.44-.11-2-.11H852.31c-.7,0-1.58.06-2.25.11v-2.75C850.76,469.87,851.61,469.93,852.31,469.93Zm1.37-8.81h7.45a18.47,18.47,0,0,0,2-.11v2.61c-.52,0-1.37-.07-2-.07H853.7c-.69,0-1.52,0-2.13.07V461C852.22,461.08,853.07,461.12,853.68,461.12Z"/><path class="cls-1" d="M869.77,464.15h11.79a14.1,14.1,0,0,0,1.64-.11v2.34c-.45,0-1.13-.06-1.64-.06h-4.34a11.26,11.26,0,0,1-1.15,4.63,8.61,8.61,0,0,1-3.62,3.46l-2.1-1.53a7.44,7.44,0,0,0,3.25-2.58,7.67,7.67,0,0,0,1.12-4h-5c-.54,0-1.22,0-1.73.08V464C868.58,464.09,869.21,464.15,869.77,464.15Zm2.29-4.6h7.24a14,14,0,0,0,1.94-.12v2.32c-.61,0-1.31-.07-1.94-.07h-7.23c-.63,0-1.38,0-1.94.07v-2.32A13.8,13.8,0,0,0,872.06,459.55Z"/><path class="cls-1" d="M892.88,465.53a18.72,18.72,0,0,0,4.49-3.85l1.78,1.75a24,24,0,0,1-4,3.27v6.18a9.88,9.88,0,0,0,.12,1.94h-2.66c0-.36.09-1.31.09-1.94v-4.76a36,36,0,0,1-5.17,2.11l-1.06-2.12A23.71,23.71,0,0,0,892.88,465.53Z"/><rect class="cls-13" x="822.86" y="65.33" width="185.42" height="74.45" rx="6"/><polygon class="cls-13" points="822.86 129.08 822.86 160.54 853.88 129.52 822.86 129.08"/><path class="cls-1" d="M894.65,78.75v18h-2.6V95.7H880v1.06h-2.48v-18Zm-2.6,14.73V81.19H880V93.48Zm-1.94-9.93v7.61H882V83.55Zm-2.4,2.08h-3.52V89.1h3.52Z"/><path class="cls-1" d="M908.37,81.67a10.73,10.73,0,0,1-1,1.34,18.79,18.79,0,0,0,8.3,5.17,11.89,11.89,0,0,0-1.4,2A23.71,23.71,0,0,1,910.11,88v.9h-8V88a25.72,25.72,0,0,1-4.22,2.22,10.22,10.22,0,0,0-1.28-1.84,19.83,19.83,0,0,0,8.18-5.65H906a9.91,9.91,0,0,0-1-.64c.16-.12.3-.26.46-.4h-2.44a9.73,9.73,0,0,1,.82,1.66l-2.1.7a11.49,11.49,0,0,0-1.1-2.36h-.2a16.8,16.8,0,0,1-1.8,2.44,17.82,17.82,0,0,0-2-1.3,12.82,12.82,0,0,0,3.08-4.94l2.28.58c-.16.4-.32.82-.52,1.22h4.34v1.6a10.49,10.49,0,0,0,2-3.4l2.34.54c-.16.42-.34.84-.52,1.26h5.58v2h-3.24a9.54,9.54,0,0,1,1,1.58l-2.2.78a13.68,13.68,0,0,0-1.36-2.36Zm-8.22,8.59h11.92v6.46h-2.38v-.48h-7.26v.54h-2.28Zm2.28,2v1.88h7.26V92.3Zm6.14-5.3A16.28,16.28,0,0,1,906,84.71,15.48,15.48,0,0,1,903.53,87Z"/><path class="cls-1" d="M934.39,82.25s0,.82-.06,1.14c-.4,8-.8,11-1.68,12a2.7,2.7,0,0,1-2,1.12,20.34,20.34,0,0,1-3.2,0,5.53,5.53,0,0,0-.82-2.46c1.26.1,2.44.1,3,.1a1.18,1.18,0,0,0,.94-.32c.6-.62,1-3.24,1.32-9.19h-5.6c-.32,4.15-1.72,9-7.34,12.19A9.49,9.49,0,0,0,917,94.94a12.2,12.2,0,0,0,6.64-10.25h-6V82.25h6.12V78.13h2.54v4.12Z"/><path class="cls-1" d="M941.29,81.37a53.54,53.54,0,0,0-1,7.75,9.45,9.45,0,0,0,.08,1.3c.26-.7.6-1.38.9-2.06l1.22,1c-.56,1.64-1.2,3.68-1.44,4.76a5.58,5.58,0,0,0-.1.94c0,.2,0,.54,0,.82l-2.26.18a23.49,23.49,0,0,1-.8-6.4,63.52,63.52,0,0,1,.82-8.35,19.08,19.08,0,0,0,.2-2l2.76.24A13,13,0,0,0,941.29,81.37Zm10.1-.7c0,.44,0,1.18-.06,2.06a27.4,27.4,0,0,0,3.1-.46v2.5c-1,.15-2,.27-3.1.35,0,1.94.14,3.54.22,4.9a13.09,13.09,0,0,1,3.88,2.58l-1.38,2.1a21,21,0,0,0-2.44-2c-.12,1.92-1.2,3.28-3.9,3.28s-4.48-1.16-4.48-3.26,1.72-3.42,4.44-3.42a8.9,8.9,0,0,1,1.3.08c0-1.24-.12-2.7-.14-4.12h-1.42c-1.18,0-2.32,0-3.5-.12V82.75a33.33,33.33,0,0,0,3.5.18c.46,0,.94,0,1.4,0,0-1,0-1.8,0-2.22a8.49,8.49,0,0,0-.14-1.32h2.86A12.52,12.52,0,0,0,951.39,80.67Zm-4,12.93c1.22,0,1.64-.64,1.64-1.82v-.36a6.17,6.17,0,0,0-1.6-.22c-1.14,0-1.9.48-1.9,1.24S946.37,93.6,947.43,93.6Z"/><path class="cls-1" d="M842.22,113.58c0-4.83,2.7-7.63,6.62-7.63s6.62,2.82,6.62,7.63-2.7,7.74-6.62,7.74S842.22,118.38,842.22,113.58Zm10.22,0c0-3.19-1.4-5.09-3.6-5.09s-3.6,1.9-3.6,5.09,1.4,5.18,3.6,5.18S852.44,116.74,852.44,113.58Z"/><path class="cls-1" d="M858.36,106.21h3v6.45h.06l4.9-6.45h3.26L865,112.06l5.32,9H867.1l-3.84-6.66-1.94,2.5V121h-3Z"/><path class="cls-1" d="M870.64,106.21h3l1.18,7.25c.22,1.56.46,3.12.68,4.72h.08c.3-1.6.62-3.18.94-4.72l1.72-7.25h2.54l1.7,7.25c.32,1.52.62,3.12.94,4.72h.1c.22-1.6.44-3.18.66-4.72l1.18-7.25h2.8L885.42,121h-3.68l-1.66-7.32c-.24-1.16-.46-2.3-.64-3.45h-.08c-.2,1.15-.4,2.29-.64,3.45L877.1,121h-3.62Z"/><path class="cls-1" d="M893.22,106.21h3.48L901.46,121h-3.1l-1-3.8h-4.8l-1,3.8h-3Zm-.06,8.73h3.52l-.44-1.62c-.46-1.54-.86-3.25-1.28-4.85h-.1c-.38,1.62-.82,3.31-1.26,4.85Z"/><path class="cls-1" d="M901.28,106.21h3.1l2,7.23c.46,1.64.78,3.12,1.24,4.78h.1c.48-1.66.8-3.14,1.26-4.78l1.92-7.23h3L909.34,121H905.8Z"/><path class="cls-1" d="M915.56,106.21h9.08v2.48h-6.12v3.43h5.2v2.48h-5.2v4h6.34V121h-9.3Z"/><path class="cls-1" d="M939.78,107c-.12.6-.28,1.34-.42,2.06.68,0,1.26-.08,1.68-.08,2.12,0,3.62.95,3.62,3.83,0,2.36-.28,5.6-1.14,7.34a3.18,3.18,0,0,1-3.28,1.84,13.14,13.14,0,0,1-2.4-.28l-.42-2.64a11.56,11.56,0,0,0,2.44.42,1.47,1.47,0,0,0,1.5-.86,15.87,15.87,0,0,0,.82-5.54c0-1.6-.7-1.83-1.94-1.83-.32,0-.82,0-1.4.09-.76,3-2.24,7.78-4.08,10.72l-2.6-1c1.94-2.62,3.32-6.66,4.06-9.4l-1.72.2c-.58.1-1.62.24-2.24.34l-.24-2.73a19.1,19.1,0,0,0,2.14,0c.62,0,1.56-.08,2.58-.18a20.35,20.35,0,0,0,.42-4.22l3,.3C940,105.89,939.88,106.53,939.78,107Zm8.48.32-1,.42a36.37,36.37,0,0,1,3.26,7L948,115.92a22.54,22.54,0,0,0-3.36-7.51l1.8-.78a22.11,22.11,0,0,0-1.36-2.36l1.58-.66C947.16,105.35,947.88,106.61,948.26,107.35Zm2.38-.92-1.58.68a22.62,22.62,0,0,0-1.62-2.76l1.6-.64A26.61,26.61,0,0,1,950.64,106.43Z"/><path class="cls-1" d="M956.08,115.34V120c0,1.1-.18,1.68-.78,2a4.94,4.94,0,0,1-2.76.46,7.82,7.82,0,0,0-.62-2.18c.74,0,1.42,0,1.66,0s.34-.08.34-.34v-4l-1.84.52-.54-2.3c.68-.14,1.48-.36,2.38-.58v-3.55h-2.16v-2.2h2.16v-3.78h2.16v3.78h2v2.2h-2v3l1.8-.48.32,2.14Zm9.1,5c.46,0,.9.06,1.4.06.68,0,3.16,0,4,0a7,7,0,0,0-.64,2.08h-3.48c-2.62,0-4.64-.48-6-2.9a8.8,8.8,0,0,1-2.08,3.14,13.65,13.65,0,0,0-1.76-1.42c1.66-1.32,2.48-3.54,2.78-6.26l2.16.26a18.18,18.18,0,0,1-.38,2,4.49,4.49,0,0,0,1.74,2.34v-5.22h-4.7v-1.92h11.82v1.92h-4.88v1.76H969v1.86h-3.82Zm3.88-8.76H959.2v-6.91h9.86Zm-2.28-5.23h-5.4v1h5.4Zm0,2.52h-5.4v1h5.4Z"/><path class="cls-1" d="M978.16,104.83a36.68,36.68,0,0,1-1.9,4.16v13.77h-2.34V112.62c-.42.54-.84,1-1.26,1.48a13.92,13.92,0,0,0-1.28-2.48,21,21,0,0,0,4.56-7.49Zm4.66,13.25a18.46,18.46,0,0,1-4,4.64,13.28,13.28,0,0,0-1.86-1.5,12.43,12.43,0,0,0,3.62-3.82Zm7.54-3.82v2.32h-13v-2.32h2.68v-4h-2.18V108h2.18v-3.74h2.32V108h2.9v-3.76h2.32V108h2.6v2.28h-2.6v4Zm-8,0h2.9v-4h-2.9Zm4.48,3.12a24.76,24.76,0,0,1,3.4,4.12l-2,1.26a22.88,22.88,0,0,0-3.3-4.34Z"/></g></g></svg>