<svg xmlns="http://www.w3.org/2000/svg" viewBox="0 0 465.18 69.65"><defs><style>.cls-1{fill:#141f42;}</style></defs><title>logo</title><g id="Layer_2" data-name="Layer 2"><g id="レイヤー_1" data-name="レイヤー 1"><path class="cls-1" d="M106,10.83c-15.33,0-22.32,10.45-22.32,24s7,24,22.32,24,22.31-10.45,22.31-24S121.37,10.83,106,10.83Zm0,39.86c-8,0-12.23-5-12.23-15.87S98.08,19,106,19s12.22,5,12.22,15.86S114,50.69,106,50.69Z"/><path class="cls-1" d="M232.76,40.82,238,23.69l5.23,17.13,2.36,7.74L248.47,58a25,25,0,0,0,5.24.38c4.07,0,4.85-.38,4.85-.38l-16.3-46.43s-.78-.39-4.27-.39-4.27.39-4.27.39L217.42,58s.78.38,4.85.38a25,25,0,0,0,5.24-.38l2.89-9.48Z"/><path class="cls-1" d="M218.2,11.22a24.42,24.42,0,0,0-5.24.39L206.68,45,198.6,11.61s-.78-.39-4.08-.39-4.07.39-4.07.39L182.36,45l-6.27-33.35a24.42,24.42,0,0,0-5.24-.39c-4.27,0-5,.39-5,.39L177.06,58s.78.38,4.07.38a31.18,31.18,0,0,0,6.21-.38l7.18-29.62L201.7,58a31.31,31.31,0,0,0,6.21.38c3.3,0,4.08-.38,4.08-.38l11.25-46.43S222.47,11.22,218.2,11.22Z"/><path class="cls-1" d="M286.09,11.22a24.42,24.42,0,0,0-5.24.39L270.56,48.34,260.28,11.61a24.42,24.42,0,0,0-5.24-.39c-4.27,0-5,.39-5,.39L264.94,58s.77.38,5.62.38,5.63-.38,5.63-.38l14.94-46.43S290.36,11.22,286.09,11.22Z"/><path class="cls-1" d="M152,34.05l14.36-22.44s-.78-.39-5-.39a26.85,26.85,0,0,0-5.63.39L141.94,34.05l14.55,24a27.42,27.42,0,0,0,5.63.38c4.27,0,5-.38,5-.38Z"/><path class="cls-1" d="M130.68,11.61V58s.78.38,4.85.38,4.85-.38,4.85-.38V11.61s-.77-.39-4.85-.39S130.68,11.61,130.68,11.61Z"/><path class="cls-1" d="M303.16,49.91V38.11h17.47s.39-.77.39-4.06-.39-4.06-.39-4.06H303.16V19.73h20.57s.39-.77.39-4.06-.39-4.06-.39-4.06H293.46V58h30.27s.39-.78.39-4.07-.39-4.06-.39-4.06Z"/><path class="cls-1" d="M34.82,0C5.64,0,0,5.64,0,34.82S5.64,69.65,34.82,69.65,69.65,64,69.65,34.82,64,0,34.82,0Zm0,66.16c-27.08,0-31.34-4.25-31.34-31.34S7.74,3.48,34.82,3.48,66.16,7.74,66.16,34.82,61.91,66.16,34.82,66.16Z"/><path class="cls-1" d="M46,16.25a12.1,12.1,0,0,0-11.14,7.82,12.09,12.09,0,0,0-11.13-7.82c-5.11,0-12.08,3.07-12.08,13,0,13.29,17.41,25.14,23.21,29.57C40.62,54.38,58,42.53,58,29.24,58,19.32,51.07,16.25,46,16.25Z"/><path class="cls-1" d="M384.55,8.84s-.78-.39-4.84-.39-4.83.38-4.83.39h0V58.1s.77.39,4.83.39,4.84-.39,4.84-.39V8.84Z"/><path class="cls-1" d="M352.57,11.29c-7.74,0-14.32.38-14.32.38V58.1s.77.39,4.84.39,4.83-.39,4.83-.39V40.89s3.1.19,4.65.19c15.86,0,19.34-6.58,19.34-14.9C371.91,12.83,363.4,11.29,352.57,11.29Zm0,22.82c-1.55,0-4.65-.19-4.65-.19V18.44a28,28,0,0,1,4.65-.19c6.19,0,10.44.77,10.44,7.93C363,32.57,358.76,34.11,352.57,34.11Z"/><path class="cls-1" d="M422.87,49.55c1.89,1.15,6.52,2.14,9.55,2.29,2.45.13,5-.05,5.24-2.85.13-1.71-2.5-2.53-6.31-3.93-7.28-2.29-10.14-6.37-9.62-11.38s5.32-9.48,14-9.48a25.53,25.53,0,0,1,10.05,1.91l-2.2,7a31.48,31.48,0,0,0-7.51-2c-1.57-.23-4,0-4.48,2.16-.51,2.52,4.16,3.56,7.91,5.24,6.1,2.75,8.45,5.55,7.77,11.21-.74,6.19-4.63,9.15-15.05,9.15-4.59,0-8.95-.61-11.58-2Z"/><path class="cls-1" d="M388.46,47.93a5.46,5.46,0,0,0,0,.56c0,5.92,4.15,10.26,10.7,10.26a11.08,11.08,0,0,0,8.61-4V58s.78.39,4.84.39,4.83-.38,4.83-.39h0V24.16s-.77-.38-4.83-.38-4.84.39-4.84.39V43.86S408.09,49,403.1,49c-5.46,0-5-4.9-5-4.9V24.16s-.78-.38-4.84-.38-4.84.39-4.84.39Z"/><path class="cls-1" d="M465.18,13.89a6.88,6.88,0,0,0-.17-2.18H456.2V2.9h0a14.19,14.19,0,0,0-4.38,0h0v8.81H443a6.51,6.51,0,0,0-.18,2.18,6.56,6.56,0,0,0,.18,2.19h8.8v8.81a14.19,14.19,0,0,0,4.38,0V16.08H465A6.92,6.92,0,0,0,465.18,13.89Z"/></g></g></svg>